<svg id="b" xmlns="http://www.w3.org/2000/svg" width="321.203" height="380.694" viewBox="0 0 321.203 380.694"><defs><style>.g{fill:#fff;}.h{fill:#fcdc4a;}.i{fill:#211715;}</style></defs><g id="c"><g id="d"><path class="g" d="M272.933,227.907c-.363.06-.722.124-1.077.191-4.567.857-9.053,2.02-13.367,3.465-4.588,1.537-9.529,3.923-10.161,7.216-2.698-.179-5.543-.237-8.18.498-2.637.734-4.492,2.657-4.458,4.487.018.987.274,1.614.977,2.462,1.452,1.751,4.33,4.214,6.581,6.419,0,0,1.119,3.305,2.235,6.6,4.06-1.852,16.288-5.231,25.4-7.178-.338-1.771-.653-3.419-.653-3.419,4.29-2.95,6.615-4.646,9.725-7.623,2.078-1.99,4.185-4.044,5.112-6.325.927-2.281.429-4.87-2.119-6.229-2.6-1.387-6.462-1.156-10.017-.564Z"></path><path class="g" d="M47.877,227.847c-3.451-.546-7.138-.715-9.648.624-2.548,1.359-3.046,3.948-2.119,6.229.927,2.281,3.034,4.335,5.112,6.325,3.11,2.977,5.434,4.673,9.725,7.623l-.766,3.517c8.721,1.887,20.068,5.014,24.467,6.871,1.568-3.058,3.281-6.393,3.281-6.393,2.251-2.206,5.129-4.668,6.581-6.419.703-.848.959-1.475.977-2.462.034-1.83-1.821-3.752-4.458-4.487-2.637-.734-5.482-.677-8.18-.498-.632-3.293-5.573-5.679-10.161-7.216-4.313-1.445-8.8-2.608-13.367-3.465-.474-.089-.958-.174-1.446-.251Z"></path><path class="g" d="M197.254,261.53c7.917-2.147,13.157,3.565,13.83,7.946,1.16,7.33,1.933,18.268,8.819,20.73-1.389,4.438-9.377,5.684-12.241,5.77-3.636.143-6.743-1.231-9.893-2.863-3.078-1.589-5.855-4.037-7.531-7.058-.172-.301-.315-.601-.429-.931"></path><path class="g" d="M147.772,216.922c-.11.025-.22.05-.33.076-14.667,3.427-27.106,15.497-30.06,30.007-.986,4.808-.864,13.024.037,16.859,0,0,1.268,5.499,1.771,6.911l4.307,2.84c16.24-5.408,37.865-16.19,48.407-25.683,1.853,4.297,4.457,9.635,6.531,12.876,3.605,5.634,8.868,9.851,13.795,12.806l.792-1.977c.918-.53,1.958-.733,2.885-.7.715.025,1.323.144,1.84.322,3.033-6.799,1.542-18.46.348-24.255-.142-.7-.307-1.394-.494-2.083-.578-2.136-1.364-4.211-2.331-6.205-4.225-8.762-11.956-15.933-21.1-19.733-5.15-2.149-10.751-3.218-16.425-2.909-3.378-.186-6.728.119-9.972.846Z"></path><path class="g" d="M190.938,292.767c.012-.033.024-.066.036-.1,1.814.55,3.821-.085,5.133-1.115,2.834-2.224,4.009-5.326,4.727-7.354,1.013-2.863,1.077-7.491-.432-10.003-.506-.841-1.681-2.274-4.442-2.368-1.358-.046-2.96.394-4.073,1.579-4.826-2.944-9.929-7.095-13.451-12.598-2.074-3.241-4.678-8.579-6.531-12.876-10.404,9.368-31.602,19.992-47.765,25.467-1.112-1.18-2.71-1.617-4.064-1.571-2.762.093-3.937,1.526-4.442,2.368-1.509,2.511-1.446,7.139-.432,10.003.718,2.028,1.893,5.13,4.727,7.354,1.27.997,3.191,1.624,4.958,1.164,1.461,4.02,3.697,8.471,7.071,12.66,5.105,6.34,11.433,10.151,18.082,11.409,2.622.496,5.29.798,8.082.869,2.791-.098,5.726-.263,8.758-.974,6.59-1.545,12.233-5.163,17.265-11.551,3.226-4.095,5.379-8.426,6.795-12.362Z"></path><path class="g" d="M286.978,85.343c-23.398-24.746-54.324-41.927-87.17-47.683-13.444-2.356-26.55-3.393-39.219-3.323-12.669-.07-25.774.967-39.219,3.323-32.846,5.756-63.771,22.938-87.17,47.683C-1.327,122.916-10.138,182.787,23.438,217.47c7.981,8.244,18.357,15.064,31.338,19.824,19.788,7.256,41.132,9.565,62.507,10.253.033-.182.064-.369.099-.542,2.954-14.51,15.393-26.58,30.06-30.007.11-.026.22-.051.33-.076,3.244-.728,6.594-1.032,9.972-.846,5.674-.309,11.275.76,16.425,2.909,9.144,3.799,16.875,10.97,21.1,19.733.967,1.994,1.753,4.069,2.331,6.205.186.688.351,1.383.493,2.083.044.216.09.455.135.687,23.257-.466,46.637-2.5,68.174-10.398,12.981-4.76,23.357-11.581,31.338-19.824,33.577-34.683,24.765-94.553-10.763-132.127Z"></path><path class="g" d="M171.457,321.916c.975-2.724,1.888-5.429,2.717-8.058-2.316,1.289-4.758,2.215-7.346,2.822-3.032.711-5.967.876-8.758.974-2.791-.071-5.46-.374-8.082-.869-2.046-.387-4.062-1.016-6.021-1.886,2.464,7.669,5.603,15.91,8.889,23.356,2.354,5.335,3.133,7.147,6.048,12.604,2.915-5.456,3.694-7.268,6.048-12.604,2.3-5.213,4.529-10.816,6.505-16.339Z"></path><g id="e"><path class="h" d="M274.936,251.261c-9.539,1.725-26.33,6.263-30.079,8.291,1.653,5.346,2.766,11.382,3.102,17.89.261,5.049-2.842,9.312-7.805,10.278-6.868,1.337-13.571,2.202-20.307,2.619-1.509,4.326-9.351,5.552-12.185,5.637-3.636.143-6.743-1.231-9.893-2.863-.72-.372-1.421-.794-2.097-1.256-1.296.842-3.073,1.304-4.699.811-.012.033-.024.066-.036.1-1.417,3.937-3.57,8.267-6.795,12.362-3.072,3.9-6.373,6.762-9.977,8.756-.828,2.621-1.737,5.316-2.709,8.031-1.976,5.523-4.205,11.126-6.505,16.339-2.354,5.336-3.133,7.147-6.048,12.604-2.915-5.456-3.694-7.268-6.048-12.604-3.285-7.446-6.425-15.687-8.889-23.356.031.014.066.008.097.018-4.425-1.955-8.562-5.136-12.109-9.54-3.373-4.19-5.61-8.64-7.071-12.66-1.767.46-3.688-.167-4.958-1.164-.464-.364-.869-.757-1.25-1.16h-.266c-12.938.727-25.16-.181-37.959-2.672-4.963-.966-8.066-5.229-7.805-10.278.336-6.507,1.448-12.543,3.102-17.89-3.748-2.028-20.539-6.566-30.079-8.291-4.697,15.005-9.087,31.887-8.417,47.897.143,3.428.972,7.094,2.387,10.206,5.036,11.076,20.574,15.595,31.338,18.179,13.323,3.198,27.018,4.694,40.412,7.597-.212,18.834-.405,31.007-.631,43.221l98.65.014c-.226-12.432-.418-24.731-.627-43.139,13.532-2.966,27.381-4.459,40.849-7.692,10.764-2.584,26.302-7.103,31.338-18.179,1.415-3.112,2.243-6.778,2.387-10.206.67-16.01-3.72-32.892-8.417-47.897Z" style="fill: rgb(255, 138, 21);"></path></g></g><g id="f"><path class="i" d="M282.408,230.969c.206.159.339.385.449.582.383.688-.033-.144.121.267.036.097.15.568.098.252.133.816-.019,1.307-.336,1.981-.931,1.982-2.667,3.539-4.219,5.03-2.999,2.88-6.081,5.138-9.504,7.494-1.066.734-1.55,2.106-.861,3.284.618,1.056,2.211,1.599,3.284.861,4.278-2.944,8.379-6.027,12.011-9.758,1.86-1.911,3.831-4.224,4.3-6.937.507-2.929-.597-5.41-2.921-7.199-1.028-.791-2.688-.157-3.284.861-.724,1.238-.169,2.49.861,3.284h0Z"></path><path class="i" d="M233.545,245.504c.671,1.942,2.261,3.402,3.713,4.79,1.422,1.36,2.889,2.672,4.295,4.049.898.88,2.511.962,3.394,0,.872-.95.958-2.455,0-3.394-1.206-1.182-2.456-2.316-3.686-3.472-1.068-1.004-2.161-2.015-3.072-3.169l.375.486c-.22-.291-.411-.593-.555-.93l.242.573c-.028-.069-.054-.139-.077-.209-.409-1.184-1.664-2.093-2.952-1.676-1.172.379-2.116,1.682-1.676,2.952h0Z"></path><path class="i" d="M36.348,226.824c-2.32,1.786-3.432,4.272-2.921,7.199.473,2.716,2.439,5.022,4.3,6.937,3.629,3.734,7.734,6.815,12.011,9.758,1.068.735,2.664.199,3.284-.861.696-1.19.21-2.547-.861-3.284-3.422-2.355-6.506-4.614-9.504-7.494-1.535-1.474-3.155-2.978-4.146-4.89-.375-.723-.51-1.176-.418-1.99,0-.005.138-.474.168-.532.148-.29.246-.495.511-.699,1.025-.789,1.574-2.064.861-3.284-.59-1.009-2.25-1.657-3.284-.861h0Z"></path><path class="i" d="M79.627,254.343c1.405-1.377,2.872-2.69,4.295-4.049,1.452-1.388,3.041-2.848,3.713-4.79.411-1.188-.468-2.677-1.676-2.952-1.336-.304-2.513.404-2.952,1.676-.023.071-.049.14-.077.209l.242-.573c-.144.337-.335.638-.555.93l.375-.486c-.911,1.153-2.004,2.164-3.072,3.169-1.23,1.156-2.48,2.291-3.686,3.472-.898.88-.949,2.523,0,3.394.966.887,2.436.939,3.394,0h0Z"></path><path class="i" d="M211.81,378.376c-.266-14.379-.466-28.759-.63-43.14l-1.762,2.314c10.397-2.269,20.95-3.686,31.399-5.678,7.943-1.514,15.986-3.277,23.521-6.279,6.836-2.724,13.738-6.603,17.671-13.066,5.07-8.333,4.187-19.227,3.039-28.494-1.409-11.385-4.383-22.475-7.794-33.405-.412-1.32-1.636-1.916-2.952-1.676-5.852,1.064-11.645,2.5-17.378,4.075-4.405,1.21-9.209,2.302-13.275,4.457-.911.483-1.403,1.73-1.103,2.71,1.252,4.099,2.154,8.315,2.631,12.576.372,3.324,1.08,7.156-1.146,10.01-2.286,2.931-6.514,3.035-9.886,3.58-4.737.766-9.507,1.287-14.296,1.586-3.068.192-3.09,4.993,0,4.8,4.24-.265,8.461-.715,12.666-1.315,2.111-.301,4.216-.646,6.313-1.03,1.78-.326,3.469-.662,5.102-1.475,2.732-1.362,4.741-3.856,5.753-6.704,1.195-3.361.594-7.145.156-10.592-.548-4.309-1.396-8.556-2.666-12.712l-1.103,2.71c.3-.159.608-.3.918-.438-.582.259.447-.174.656-.253.986-.375,1.985-.713,2.987-1.04,2.611-.851,5.253-1.611,7.902-2.334,5.625-1.535,11.305-2.94,17.044-3.983l-2.952-1.676c2.907,9.313,5.528,18.747,7.082,28.39.763,4.731,1.23,9.516,1.301,14.31.068,4.621-.189,9.268-2.111,13.551-2.771,6.174-8.987,9.937-14.989,12.467-6.929,2.92-14.412,4.631-21.759,6.111-11.297,2.276-22.745,3.732-34.008,6.189-1.012.221-1.774,1.304-1.762,2.314.164,14.381.364,28.761.63,43.14.057,3.085,4.857,3.095,4.8,0h0Z"></path><path class="i" d="M118.41,287.992c-9.592.524-19.238.194-28.755-1.146-2.465-.347-4.922-.753-7.368-1.212-1.657-.311-3.246-.636-4.59-1.719-2.79-2.25-2.761-5.564-2.494-8.832.413-5.053,1.376-10.044,2.859-14.892.299-.976-.189-2.226-1.103-2.71-4.066-2.155-8.87-3.247-13.274-4.455-5.734-1.573-11.527-3.011-17.378-4.078-1.311-.239-2.537.347-2.952,1.676-3.003,9.61-5.702,19.353-7.234,29.318-.781,5.08-1.299,10.207-1.334,15.351-.034,4.92.45,9.742,2.364,14.319,2.932,7.009,9.295,11.628,16.03,14.677,7.106,3.216,14.736,5.139,22.347,6.733,11.685,2.448,23.55,3.919,35.222,6.434l-1.762-2.314c-.162,14.408-.364,28.815-.631,43.221-.057,3.09,4.743,3.09,4.8,0,.267-14.406.469-28.813.631-43.221.011-1.002-.749-2.096-1.762-2.314-9.938-2.142-20.015-3.529-30.004-5.402-7.828-1.468-15.733-3.162-23.208-5.966-6.017-2.257-12.499-5.579-15.988-11.221-2.206-3.568-3.083-7.837-3.207-11.986-.146-4.902.166-9.815.793-14.677,1.39-10.778,4.337-21.324,7.571-31.675l-2.952,1.676c5.738,1.046,11.419,2.451,17.043,3.986,2.649.723,5.29,1.483,7.902,2.333,1.002.326,2.001.665,2.987,1.039.2.076,1.25.517.656.253.31.138.617.278.918.438l-1.103-2.71c-1.449,4.74-2.373,9.615-2.88,14.543-.462,4.495-.532,8.777,2.435,12.477,2.916,3.637,7.273,4.243,11.599,4.959,5.209.861,10.462,1.492,15.731,1.833,6.024.39,12.064.395,18.091.065,3.072-.168,3.092-4.969,0-4.8h0Z"></path><path class="i" d="M238.643,354.034c1.177.719,2.347,1.448,3.53,2.156,2.176,1.303,4.836,1.303,6.79-.448,1.149-1.029,1.93-2.687,2.704-4,.606-1.027,1.155-.526,2.021.003,1.567.957,3.101,2.127,5.017,2.165,2.542.051,4.115-1.636,5.329-3.624.482-.789,1.174-2.748,2.218-2.371,1.07.386,2.102,1.358,3.11,1.925,2.736,1.541,5.873.7,7.579-1.892.8-1.216,1.522-2.492,2.281-3.734,1.615-2.643-2.535-5.058-4.145-2.423-.675,1.105-1.35,2.21-2.025,3.315-.547.896-.893.818-1.732.305-1.284-.784-2.625-1.827-4.1-2.214-2.508-.659-4.842.649-6.153,2.738-.4.637-.785,1.285-1.177,1.927-.174.285-.377.823-.623,1.048-.713.65-2.284-.778-2.965-1.194-1.868-1.141-3.775-1.902-5.958-.993-1.844.768-2.696,2.388-3.677,3.995-.25.409-.506,1.074-.864,1.409-.425.396-.656.223-1.096-.015-1.246-.672-2.433-1.486-3.642-2.224-2.643-1.615-5.058,2.535-2.423,4.145h0Z"></path><path class="i" d="M61.787,349.601l-3.56,1.361c-.354.136-.945.457-1.285.354-.234-.071-.219-.178-.384-.313-.329-.27.06.197-.004.055-.05-.112-.088-.23-.132-.345-.517-1.365-.938-2.942-1.702-4.194-1.335-2.191-4.134-3.068-6.509-2.215-1.122.403-2.42,1.231-3.61,1.361-.532.058-.094.001-.58-.156-.089-.029-.22-.329-.194-.298.154.179.145.338.062.152-.283-.63-.497-1.301-.744-1.946-.762-1.995-1.522-3.833-3.669-4.701-1.963-.794-3.647-.165-5.478.535-.566.216-1.143.497-1.727.66-.446.125-.534.163-.895-.045-.069-.04-.24-.356-.196-.307.049.055.171.402.052.127-.567-1.309-1.023-2.677-1.533-4.01-.463-1.21-1.616-2.043-2.952-1.676-1.158.318-2.142,1.735-1.676,2.952.498,1.302.983,2.609,1.493,3.906.95,2.413,2.973,4.179,5.709,3.936,1.543-.137,3.014-.938,4.451-1.468.533-.197.712-.194,1.176-.043.143.047-.14-.097.193.29-.148-.172-.148-.344-.045-.108.144.33.258.676.387,1.012.701,1.834,1.228,3.811,2.913,5.004,1.973,1.397,4.052,1.017,6.13.222.67-.256,1.336-.526,2.011-.769.679-.244.803-.225,1.252.291-.243-.28-.068-.171.053.149.123.324.248.648.372.972.26.681.51,1.367.781,2.044,1.143,2.852,4.037,4.429,7.031,3.403,1.376-.472,2.726-1.042,4.085-1.562,1.21-.463,2.043-1.616,1.676-2.952-.318-1.158-1.735-2.142-2.952-1.676h0Z"></path><path class="i" d="M199.52,263.526c3.247-.25,6.39,1.002,8.139,3.739,1.469,2.298,1.493,5.649,1.954,8.513,1.039,6.449,2.845,14.174,9.648,16.743l-1.676-2.952c-.134.376-.473.865-1.048,1.356-.435.37-1.285.848-1.999,1.164-1.439.636-3.332,1.068-5.008,1.326-.149.023-.359.049-.088.015-.186.023-.373.044-.56.063-.324.032-.649.058-.975.075-1.193.059-2.346-.033-3.505-.317-2.665-.654-5.277-1.942-7.543-3.474-2.566-1.735-4.97,2.422-2.423,4.145,2.686,1.816,5.929,3.366,9.106,4.055,2.528.548,4.988.44,7.516.029,4.444-.721,9.514-2.566,11.154-7.159.465-1.301-.538-2.523-1.676-2.952-.785-.296-1.51-.832-2.186-1.557s-1.242-1.687-1.73-2.708c-1.071-2.242-1.622-4.875-2.076-7.349-.474-2.585-.686-5.226-1.217-7.798-.511-2.476-2.056-4.844-3.95-6.488-2.739-2.377-6.238-3.545-9.859-3.266-1.292.1-2.4,1.032-2.4,2.4,0,1.222,1.101,2.5,2.4,2.4h0Z"></path><path class="i" d="M121.464,270.008c-.895-2.747-1.724-5.889-2.062-8.666-.554-4.554-.61-9.542.364-14.042,1.962-9.068,7.873-16.823,15.544-21.904,8.414-5.573,18.228-7.677,28.22-6.643,10.425,1.078,20.25,7.047,26.326,15.555,3.57,4.998,5.558,10.527,6.502,16.566.984,6.293,1.642,13.602-.874,19.624-.5,1.197.539,2.64,1.676,2.952,1.383.38,2.45-.475,2.952-1.676,2.475-5.922,2.062-13.028,1.28-19.258-.77-6.133-2.199-11.985-5.308-17.39-5.695-9.9-15.726-17.667-26.897-20.261-10.962-2.546-22.695-1.064-32.63,4.206-9.218,4.889-16.811,13.007-20.283,22.918-3.25,9.276-2.455,20.045.56,29.295.953,2.924,5.589,1.673,4.629-1.276h0Z"></path><path class="i" d="M124.196,290.402c-2.323.514-4.214-1.792-5.258-3.559-1.014-1.717-1.829-3.689-2.044-5.747-.12-1.147-.129-2.514.052-3.535.194-1.101.395-1.684.942-2.509-.345.521-.052.081.064-.037.09-.093.185-.181.282-.266-.188.137-.21.155-.065.055.066-.043.686-.392.386-.259.251-.112.537-.189.805-.243.964-.193,2.037-.094,2.819.576.984.842,2.428.966,3.394,0,.863-.863.989-2.547,0-3.394-2.545-2.179-6.06-2.655-9.105-1.226-2.132,1-3.436,3.083-3.997,5.307-1.31,5.196.198,11.122,3.442,15.33,2.318,3.007,5.67,4.995,9.559,4.136,1.266-.28,2.007-1.748,1.676-2.952-.359-1.305-1.682-1.957-2.952-1.676h0Z"></path><path class="i" d="M193.753,274.878c.79-.667,1.91-.768,2.885-.558.455.098.865.265,1.235.559-.252-.201.587.777.223.245,1.163,1.699,1.174,4.158.926,6.126-.241,1.918-1.007,3.834-1.968,5.492-1.096,1.889-3.035,4.239-5.492,3.612-1.331-.34-2.503.436-2.952,1.676-3.497,9.662-10.652,18.941-20.849,21.923-10.303,3.013-22.407,1.086-30.416-6.267-4.623-4.245-8.035-9.737-10.195-15.607-.447-1.216-1.627-2.04-2.952-1.676-1.171.322-2.126,1.73-1.676,2.952,4.188,11.379,12.614,21.924,24.705,25.253,11.84,3.26,25.209,1.201,34.383-7.231,5.34-4.908,9.175-11.289,11.63-18.071l-2.952,1.676c8.088,2.066,13.169-7.76,13.598-14.453.198-3.082-.297-6.906-2.714-9.104-3.049-2.774-7.759-2.519-10.812.06-.991.837-.862,2.532,0,3.394.981.981,2.401.839,3.394,0h0Z"></path><path class="i" d="M153.077,303.776c2.007-.111,4.033.005,6.042.007,1.069.001,2.144-.041,3.212.007.133.006.353.073.477.037-.027.008-.705-.152-.41-.049.045.016.098.024.145.034.501.097-.541-.329-.221-.106.191.133.574.411-.17-.166.527.408,1,.703,1.697.703.589,0,1.292-.261,1.697-.703.788-.859,1.06-2.573,0-3.394-.887-.688-1.683-1.016-2.809-1.126-.994-.097-2.009-.038-3.006-.036-2.212.005-4.444-.129-6.654-.007-1.251.069-2.46,1.055-2.4,2.4.056,1.241,1.057,2.474,2.4,2.4h0Z"></path><path class="i" d="M156.805,286.446c.292,1.112.572,2.242.739,3.38l-.086-.638c.02.156.028.31.013.467l.086-.638c-.011.073-.027.141-.051.21l.242-.573c-.022.049-.044.091-.074.135l.375-.486c-.035.042-.068.075-.11.109l.486-.375c-.085.055-.176.099-.268.142l.573-.242c-.147.062-.294.107-.451.132l.638-.086c-.142.017-.281.016-.424,0l.638.086c-.16-.022-.316-.061-.476-.083-.319-.1-.638-.114-.957-.043-.319.014-.617.109-.892.285-.498.291-.973.862-1.103,1.434-.14.614-.11,1.304.242,1.849.312.484.835,1.022,1.434,1.103.423.057.833.163,1.263.182.691.03,1.323-.187,1.937-.472.773-.358,1.382-1.091,1.587-1.921.176-.711.104-1.282-.016-1.995-.184-1.089-.436-2.168-.716-3.236-.152-.579-.588-1.133-1.103-1.434s-1.273-.429-1.849-.242c-.581.188-1.141.548-1.434,1.103-.304.576-.41,1.209-.242,1.849h0Z"></path><path class="i" d="M139.574,276.696c-.565,1.834-.197,6.054,3.279,6.414,4.593-.027,4.838-5.129,3.292-7.528-1.266-1.964-4.989-2.781-6.57,1.115Z"></path><path class="i" d="M176.358,276.696c.565,1.834.197,6.054-3.278,6.413-4.593-.028-4.838-5.13-3.292-7.528,1.266-1.964,4.988-2.781,6.57,1.115Z"></path><path class="i" d="M131.545,287.57c-.147,1.593-.344,3.182-.358,4.784-.019,2.085.869,4.114,2.728,5.186,1.75,1.009,4.192,1.036,5.899-.097.995-.66,1.702-1.64,2.014-2.795.302-1.115.188-2.194.022-3.314-.082-.554-.643-1.165-1.103-1.434-.514-.301-1.273-.429-1.849-.242-.581.188-1.141.548-1.434,1.103-.322.609-.342,1.174-.242,1.849l.022.15-.086-.638c.067.505.096,1.003.034,1.51l.086-.638c-.021.127-.044.253-.078.378-.016.062-.035.124-.057.185-.061.176-.021.084.122-.276-.063.063-.115.2-.156.279-.113.215.386-.489.049-.092-.174.205.471-.288.124-.097-.055.035-.112.067-.171.096-.165.083-.074.047.274-.108-.242.011-.533.155-.782.191l.638-.086c-.33.036-.648.034-.978-.007l.638.086c-.186-.031-.361-.082-.544-.126-.427-.103.464.256.088.039-.102-.059-.212-.14-.317-.192.317.256.382.305.194.147-.046-.041-.091-.083-.134-.128-.381-.383.236.432.024.057-.049-.087-.114-.263-.183-.321.14.352.165.408.074.168l-.046-.139c-.057-.188-.095-.378-.126-.572l.086.638c-.106-.924-.005-1.894.069-2.818.073-.909.175-1.816.259-2.724.053-.579-.306-1.3-.703-1.697-.416-.416-1.099-.73-1.697-.703-1.399.063-2.276,1.057-2.4,2.4h0Z"></path><path class="i" d="M170.026,249.595c2.243,5.117,4.63,10.387,8.047,14.843,3.432,4.476,7.81,8.095,12.601,11.04,2.639,1.622,5.053-2.528,2.423-4.145-4.301-2.644-8.366-5.907-11.388-9.99-3.165-4.278-5.412-9.32-7.538-14.171-.52-1.187-2.257-1.461-3.284-.861-1.225.716-1.383,2.092-.861,3.284h0Z"></path><path class="i" d="M170.402,246.059c-4.748,4.297-10.254,7.745-15.796,10.914-6.445,3.685-13.135,6.962-19.97,9.859-3.659,1.551-7.373,2.974-11.135,4.253-2.908.989-1.66,5.627,1.276,4.629,14.074-4.789,27.986-11.284,40.338-19.59,3.027-2.035,5.975-4.222,8.681-6.671,2.295-2.077-1.108-5.464-3.394-3.394h0Z"></path><path class="i" d="M115.065,246.368c-.039.176-.072.352-.1.53l2.314-1.762c-15.04-.487-30.109-1.742-44.8-5.128-13.741-3.167-27.174-8.062-38.583-16.522-17.557-13.018-27.532-33.441-28.919-55.055-1.409-21.952,5.093-44.028,16.558-62.651,12.815-20.818,32.447-37.495,53.724-49.22,11.05-6.09,22.809-10.836,35.018-14.03,13.797-3.61,28.168-5.253,42.402-5.694,27.451-.849,55.488,2.368,80.79,13.553,11.651,5.151,22.687,11.714,32.797,19.463,9.74,7.466,18.899,16.084,26.409,25.815,13.478,17.462,22.262,39.057,23.547,61.162,1.202,20.682-4.503,41.742-18.626,57.281-19.421,21.367-49.601,27.864-77.233,30.123-7.364.602-14.749.901-22.134,1.051-3.085.063-3.095,4.863,0,4.8,15.722-.32,31.5-1.336,46.948-4.418,14.235-2.84,28.472-7.382,40.701-15.373,10.279-6.717,18.979-15.743,25-26.465,5.356-9.54,8.494-20.126,9.731-30.97,2.569-22.532-3.356-45.725-14.382-65.357-12.383-22.048-31.968-39.839-53.591-52.635-11.21-6.634-23.249-11.942-35.739-15.649-13.923-4.132-28.501-6.139-42.978-6.947-28.398-1.586-57.886,1.255-84.356,12.151-12.253,5.044-23.866,11.539-34.544,19.389-10.324,7.589-20.032,16.301-28.144,26.245C12.192,108.054,2.561,130.243.411,153.435c-2.018,21.774,3.331,44.134,17.324,61.23,18.674,22.816,48.695,30.784,76.836,33.783,7.546.804,15.125,1.244,22.709,1.489.963.031,2.142-.761,2.314-1.762.028-.178.061-.354.1-.53.62-3.015-4.006-4.304-4.629-1.276h0Z"></path><path class="i" d="M141.897,316.292c4.002,12.26,8.86,24.39,14.934,35.778.833,1.563,3.311,1.563,4.145,0,6.074-11.389,10.932-23.519,14.934-35.778.961-2.943-3.673-4.205-4.629-1.276-3.877,11.876-8.566,23.6-14.45,34.632h4.145c-5.884-11.032-10.573-22.756-14.45-34.632-.954-2.924-5.591-1.672-4.629,1.276h0Z"></path><path class="i" d="M183.644,341.101c5.907-8.288,11.136-16.982,16.687-25.502,1.691-2.596-2.463-5.004-4.145-2.423-5.551,8.52-10.78,17.213-16.687,25.502-.753,1.056-.186,2.671.861,3.284,1.205.705,2.529.198,3.284-.861h0Z"></path><path class="i" d="M138.307,338.678c-5.907-8.288-11.136-16.982-16.687-25.502-1.68-2.578-5.838-.176-4.145,2.423,5.551,8.52,10.78,17.213,16.687,25.502.751,1.054,2.093,1.557,3.284.861,1.042-.609,1.617-2.223.861-3.284h0Z"></path><path class="i" d="M271.908,9.952v15.267c0,1.255,1.104,2.458,2.4,2.4s2.4-1.055,2.4-2.4v-15.267c0-1.255-1.104-2.458-2.4-2.4s-2.4,1.055-2.4,2.4h0Z"></path><path class="i" d="M283.686,2.318c0,12.02,0,24.04,0,36.061,0,3.089,4.8,3.094,4.8,0,0-12.02,0-24.04,0-36.061,0-3.089-4.8-3.094-4.8,0h0Z"></path><path class="i" d="M296.463,20.217v36.325c0,3.089,4.8,3.094,4.8,0V20.217c0-3.089-4.8-3.094-4.8,0h0Z"></path><path class="i" d="M309.241,50.224v28.428c0,3.089,4.8,3.094,4.8,0v-28.428c0-3.089-4.8-3.094-4.8,0h0Z"></path><path class="i" d="M39.224,9.952v15.267c0,1.255,1.104,2.458,2.4,2.4s2.4-1.055,2.4-2.4v-15.267c0-1.255-1.104-2.458-2.4-2.4s-2.4,1.055-2.4,2.4h0Z"></path><path class="i" d="M27.447,2.318c0,12.223,0,24.447,0,36.67,0,3.089,4.8,3.094,4.8,0,0-12.223,0-24.447,0-36.67,0-3.089-4.8-3.094-4.8,0h0Z"></path><path class="i" d="M14.669,20.217v36.325c0,3.089,4.8,3.094,4.8,0V20.217c0-3.089-4.8-3.094-4.8,0h0Z"></path><path class="i" d="M1.891,50.224v28.428c0,3.089,4.8,3.094,4.8,0v-28.428c0-3.089-4.8-3.094-4.8,0h0Z"></path></g></g></svg>