<svg xmlns="http://www.w3.org/2000/svg" width="457.736" height="344.501" viewBox="0 0 457.736 344.501"><defs><style>.a{fill:#fff;}.b{fill:#fcdc4a;}.c{fill:#211715;}</style></defs><path class="a" d="M301.575,187.955a20.975,20.975,0,0,0,5.417-3.05,8.046,8.046,0,0,0,2.395-3.494,11.8,11.8,0,0,0,.564-3.273c.212-2.88.077-3.278.193-6.337a34.051,34.051,0,0,1-12.62-9.585,43.474,43.474,0,0,1-8.717-15.7,6.567,6.567,0,0,1-5.673-1.432c-3.244-2.7-4.58-6.45-5.394-8.9-1.151-3.462-1.2-9.051.543-12.077a5.673,5.673,0,0,1,5.113-2.839,6.091,6.091,0,0,1,4.418,1.651l5.943-3.369c7.937-2.429,14.1-4.253,22.883-8.427,16.123-7.658,20.969-10.79,29.893-18.236A216.67,216.67,0,0,1,360.6,117.294l5.515,5.932a6.09,6.09,0,0,1,4.431-1.617,5.675,5.675,0,0,1,5.091,2.879c1.722,3.04,1.627,8.628.45,12.081-.833,2.446-2.2,6.186-5.463,8.86a6.515,6.515,0,0,1-5.852,1.338,43.438,43.438,0,0,1-8.638,15.449,31.539,31.539,0,0,1-11.511,8.745c.094,3.85-.049,4.053.166,7.177a11.8,11.8,0,0,0,.564,3.273,8.046,8.046,0,0,0,2.395,3.494,18.938,18.938,0,0,0,4.3,2.563c-1.1,4.75-2.277,9.578-3.528,14.427a54.7,54.7,0,0,1-43.232,0c-1.485-5.754-2.872-11.48-4.133-17.08"></path><path class="a" d="M367.447,145.279c-3.144,0-5.318,2.212-5.318,4.8,0,2.9,2.22,4.89,5.319,4.89,3.217,0,5.318-2.013,5.318-4.89C372.766,147.474,370.581,145.279,367.447,145.279Z"></path><path class="a" d="M432.527,203.411a11.828,11.828,0,0,0-.091-2.387,14.622,14.622,0,0,0-1.777-4.775c-3.356-4.167-6.261-7.81-9.669-11.284a32.316,32.316,0,0,0-2.592-2.283,7.275,7.275,0,0,0-5.243-1.544c-1.437.149-3.759,1.647-4.248,3.307,0,0-.28.947-.682,2.31a4.1,4.1,0,0,0-3.954.819,4.964,4.964,0,0,0-1.686,4.688l.327,1.467-1.267-.871a3.729,3.729,0,0,0-4.477.711,4.364,4.364,0,0,0-.968,3.719,7.7,7.7,0,0,0,1.453,2.333,4.27,4.27,0,0,0-4.145-.743,7.726,7.726,0,0,0-1.976,1.405,5.366,5.366,0,0,0-.9,5.692,68.759,68.759,0,0,0,3.234,6.2l2.57-1.631c1.4,2.263,2.264,4.836,1.739,6.926-2.566,11.17-1.481,16.49,2.338,19.164a25.485,25.485,0,0,0,10.114,4.069c1,.1,5.593.384,6.459-.131,1.7-1.011,3.4-1.6,4.552-3.337a12.354,12.354,0,0,0,1.7-4.825c.335-2.034,1.484-7.1,2.4-10.421a66.522,66.522,0,0,1,4.952-12.761A12.988,12.988,0,0,0,432.527,203.411Z"></path><path class="a" d="M327.394,241.919c-28.574.207-57.009.373-67.106.407a2.9,2.9,0,0,0-2.894,2.916c.059,16.4.85,73.175,1.453,94.042a2.907,2.907,0,0,0,2.956,2.822c9.125-.141,37.386-.054,65.591.042,28.206-.1,56.467-.183,65.591-.042a2.908,2.908,0,0,0,2.957-2.822c.6-20.867,1.394-77.638,1.452-94.042a2.9,2.9,0,0,0-2.894-2.916C384.4,242.292,355.968,242.126,327.394,241.919Z"></path><path class="a" d="M197.4,193.4c16.5-18.311,27.05-43.146,27.05-73.658C224.451,43.205,176.193,2.4,113.443,2.4S2.435,43.205,2.435,119.737c0,69.99,55.5,110.118,111.008,110.118a115.547,115.547,0,0,0,66.976-21.3c6.405,3.622,22.075,11.713,29.477,15.058C206.256,213.791,201.5,202.546,197.4,193.4Z"></path><path class="a" d="M123.566,169.517v-67.48h23.7v68.33c-7.52-.01-15.52-.01-23.7-.01Z"></path><path class="a" d="M108.876,168.867v1.47c-8.01,0-16.01-.01-23.7-.02v-38.28h23.7Z"></path><path class="a" d="M423.337,232.413a12.322,12.322,0,0,1-1.7,4.825c-1.151,1.735-2.849,2.326-4.551,3.337-.866.515-5.457.231-6.459.131a25.485,25.485,0,0,1-10.114-4.069c-3.819-2.674-4.9-7.994-2.338-19.164.525-2.089-.342-4.663-1.739-6.926l-2.57,1.631a68.759,68.759,0,0,1-3.234-6.2,4.979,4.979,0,0,1-.406-1.622,87,87,0,0,0-12.572-7.732c-4.526-2.36-9.4-4.643-14.512-7.144l-10.49-4.658c-3.876,17.207-8.938,35.607-14.386,52.338-.573,1.76-1.091,3.351-1.573,4.828,25.244.175,48.808.311,57.805.341a2.9,2.9,0,0,1,2.894,2.916c-.029,8.176-.24,26.378-.519,45.165H410.7v-1.695c6.892-1.06,12.429-6.979,14.214-13.721a44.481,44.481,0,0,0,1.095-9.5c.527-12.288.143-18.374,1.405-30.188l-4.052-3.05C423.356,232.305,423.346,232.364,423.337,232.413Z"></path><path class="a" d="M257.394,245.242a2.9,2.9,0,0,1,2.894-2.916c8.882-.03,31.956-.162,56.83-.334-.483-1.48-1-3.072-1.575-4.835-5.448-16.731-10.511-35.131-14.386-52.338l-10.483,4.658c-15.68,7.67-29.15,13.3-37.1,25.37-4.73,7.18-7.66,16.93-8.93,28.08-1.775,15.65-2.583,23.421-4.546,47.481h17.816C257.635,271.621,257.423,253.418,257.394,245.242Z"></path><path class="a" d="M46.78,159.69c0-1.631,0-2.654,0-2.654h23.7v13.275c-8.817-.007-16.9-.016-23.706-.026C46.779,166.321,46.78,162.254,46.78,159.69Z"></path><path class="b" d="M185.666,168.867v1.51c-5.83.01-14.05,0-23.7-.01V72.037h23.7Z" style="fill: rgb(255, 138, 21);"></path><path class="b" d="M384.671,138.418V138.1c-1.574-8.729-3.858-15.821-6.041-26.183-1.834-8.73-2.759-19.917-6.4-27.472-2.729-5.65-8.387-14.371-17.085-18.381l-5.525-3.175-1.208-.7A57.8,57.8,0,0,0,325,57.648c-16.128,0-29.474,7.495-35.844,13.685-7.133,7.706-10.066,15.4-13.409,29.912-2.186,9.486-4.348,21.028-6.058,30.614-1.473,8.663-1.626,17.37,2.426,25.043,4.639,8.786,13.309,12.99,26.384,14.548l11.2.151a34.4,34.4,0,0,1-12.178-9.385,43.474,43.474,0,0,1-8.717-15.7,6.567,6.567,0,0,1-5.673-1.432c-3.244-2.7-4.58-6.45-5.394-8.9-1.151-3.462-1.2-9.051.543-12.077a5.673,5.673,0,0,1,5.113-2.839,6.091,6.091,0,0,1,4.418,1.651l5.943-3.369c7.937-2.429,14.1-4.253,22.883-8.427,16.123-7.658,20.969-10.79,29.893-18.236A216.582,216.582,0,0,1,360.6,117.294l5.515,5.932a6.09,6.09,0,0,1,4.431-1.617,5.675,5.675,0,0,1,5.091,2.879c1.722,3.04,1.627,8.628.45,12.081-.833,2.446-2.2,6.186-5.463,8.86a6.868,6.868,0,0,1-.606.441,4.685,4.685,0,0,1,2.746,4.21c0,2.877-2.1,4.89-5.318,4.89a5.133,5.133,0,0,1-4.821-2.722,42.853,42.853,0,0,1-6.491,9.968,31.539,31.539,0,0,1-11.511,8.745c.01.412.017.774.022,1.111l9.991.134c12.38.567,21.314-4.66,26.435-13.7A30.87,30.87,0,0,0,384.671,138.418Z" style="fill: rgb(255, 138, 21);"></path><path class="b" d="M317.119,241.992l10.275-.073,9.3.066c.483-1.479,1-3.063,1.572-4.825,3.642-11.191,7.114-23.13,10.169-34.959l-.358-.093a55.027,55.027,0,0,1-42.353,0l-.349.093c3.055,11.829,6.519,23.768,10.169,34.959Z" style="fill: rgb(255, 138, 21);"></path><path class="c" d="M257.918,288.005h-57.53c-3.089,0-3.094,4.8,0,4.8h57.53c3.088,0,3.094-4.8,0-4.8Z"></path><path class="c" d="M396.878,292.805h58.54c3.088,0,3.094-4.8,0-4.8h-58.54c-3.089,0-3.094,4.8,0,4.8Z"></path><path class="c" d="M319.441,155.872a16.358,16.358,0,0,0,7.878,1.831,12.9,12.9,0,0,0,8.03-2.4,2.4,2.4,0,0,0,0-3.394,2.475,2.475,0,0,0-3.394,0c.812-.632-.147.061-.412.2-.212.11-.779.266-.077.059-.221.065-.435.167-.655.238a12.74,12.74,0,0,1-1.831.418c.347-.057.188-.025-.066,0q-.27.027-.54.045c-.433.028-.867.039-1.3.036-.388,0-.777-.015-1.165-.042-.178-.012-.356-.026-.534-.044-.1-.01-.753-.131-.15-.013-.576-.112-1.147-.212-1.71-.38-.24-.072-.474-.158-.71-.239-.574-.2.449.221-.07-.024q-.44-.207-.869-.434a2.4,2.4,0,1,0-2.423,4.145Z"></path><path class="c" d="M325.914,137.553a36.2,36.2,0,0,1,.847,3.877l-.086-.638a2.336,2.336,0,0,1,.015.535l.085-.638a1.245,1.245,0,0,1-.058.241l.242-.573a1,1,0,0,1-.085.154l.375-.485a.828.828,0,0,1-.127.124l.486-.375a2.5,2.5,0,0,1-.307.163l.573-.242a2.272,2.272,0,0,1-.517.151l.638-.086a2.079,2.079,0,0,1-.486,0l.638.086c-.183-.026-.363-.07-.546-.095a1.823,1.823,0,0,0-.957-.043,1.8,1.8,0,0,0-.893.285,2.4,2.4,0,0,0-.861,3.284,2.3,2.3,0,0,0,1.435,1.1c.453.061.893.175,1.355.195a4.394,4.394,0,0,0,2.044-.493,3.041,3.041,0,0,0,1.658-1.992,4.851,4.851,0,0,0-.019-2.1c-.211-1.249-.5-2.487-.821-3.712a2.4,2.4,0,0,0-2.952-1.676,2.445,2.445,0,0,0-1.676,2.952Z"></path><path class="c" d="M305.812,126.465c-.647,2.1-.225,6.943,3.761,7.355,5.268-.031,5.548-5.883,3.775-8.634C311.9,122.934,307.626,122,305.812,126.465Z"></path><path class="c" d="M348,126.465c.648,2.1.226,6.944-3.76,7.355-5.268-.031-5.548-5.883-3.775-8.634C341.915,122.934,346.184,122,348,126.465Z"></path><path class="c" d="M302.213,190.27c3.308-1.368,6.875-3.092,8.662-6.373,1.6-2.943,1.591-6.38,1.614-9.65a2.4,2.4,0,0,0-4.8,0c-.008,1.129-.028,2.255-.1,3.383q-.039.6-.092,1.207c-.005.054-.067.662-.034.391.029-.249-.07.406-.068.392a7.318,7.318,0,0,1-.279,1.04c-.059.164-.2.465-.05.143-.074.162-.151.324-.233.483a8.146,8.146,0,0,1-.481.823c-.032.05-.377.491-.187.268s-.237.25-.228.24c-.1.1-.2.205-.307.3.008-.008-.43.371-.28.249.169-.137-.289.213-.332.244-.159.113-.319.224-.482.332a19.293,19.293,0,0,1-1.87,1.093c-.337.173-.679.337-1.023.5l-.419.187a1.555,1.555,0,0,1-.284.121,2.466,2.466,0,0,0-1.676,2.952c.36,1.113,1.71,2.19,2.952,1.677Z"></path><path class="c" d="M342.262,174.247c0,3.048.013,6.23,1.3,9.044,1.395,3.045,4.324,4.913,7.273,6.256a2.459,2.459,0,0,0,3.283-.861,2.428,2.428,0,0,0-.861-3.284,20.788,20.788,0,0,1-3.638-2.065c-.1-.07-.417-.333-.174-.129-.134-.112-.265-.225-.391-.345a7.2,7.2,0,0,1-.623-.672c.212.26.078.095-.04-.082-.074-.112-.146-.225-.214-.341-.175-.293-.312-.6-.47-.9s.11.34,0,0c-.061-.185-.136-.364-.19-.551a9.943,9.943,0,0,1-.23-1.054c-.027-.173-.024-.158.007.045l-.025-.237c-.012-.157-.029-.314-.042-.471-.033-.391-.059-.784-.083-1.176-.063-1.06-.083-2.118-.083-3.179a2.4,2.4,0,0,0-4.8,0Z"></path><path class="c" d="M267.372,131.221c-1.849,11.052-1.573,23.149,6.215,32a28.176,28.176,0,0,0,10.521,7.213,42.732,42.732,0,0,0,6.611,2.1,45.578,45.578,0,0,0,7.788,1.311c2.511.134,5.061,0,7.576,0,3.088,0,3.093-4.8,0-4.8h-6.9a24.794,24.794,0,0,1-4.411-.565,49.528,49.528,0,0,1-6.715-1.678,25.73,25.73,0,0,1-9.522-5.379,22.933,22.933,0,0,1-6.345-10.886c-1.587-5.875-1.18-12.1-.186-18.045a2.472,2.472,0,0,0-1.676-2.952,2.421,2.421,0,0,0-2.953,1.676Z"></path><path class="c" d="M350.828,60.821A40.181,40.181,0,0,0,340.7,57.083a62.6,62.6,0,0,0-13.83-1.813,58.385,58.385,0,0,0-27.818,6.3,51.318,51.318,0,0,0-9.626,6.3,36.179,36.179,0,0,0-6.728,7.76C278.279,82.218,276,89.971,274.142,97.6c-2.706,11.106-4.76,22.375-6.77,33.623a2.468,2.468,0,0,0,1.677,2.952A2.419,2.419,0,0,0,272,132.5c1.719-9.625,3.5-19.245,5.643-28.786,1.722-7.684,3.5-15.65,7.337-22.6a38.644,38.644,0,0,1,5.653-7.841,33.971,33.971,0,0,1,7.492-5.7,52.613,52.613,0,0,1,24.186-7.447,58.384,58.384,0,0,1,15.5,1.213,56.282,56.282,0,0,1,6.383,1.819c.988.344,1.963.719,2.936,1.1.678.267.24.113.112.043.156.085.309.178.462.266l.7.4c2.683,1.542,5.1-2.6,2.423-4.145Z"></path><path class="c" d="M382.357,139.056a27.98,27.98,0,0,1-7.761,24.015,23.077,23.077,0,0,1-9.269,5.5,34.427,34.427,0,0,1-10.9,1.239c-2.34-.029-4.682,0-7.022,0-3.088,0-3.094,4.8,0,4.8,6.289,0,12.774.5,18.873-1.31,8.932-2.657,15.583-9.442,18.956-18.021a33.228,33.228,0,0,0,1.754-17.5,2.419,2.419,0,0,0-2.952-1.676,2.457,2.457,0,0,0-1.676,2.953Z"></path><path class="c" d="M356.642,69.593c7.4,4.62,12.923,12.78,15.361,21.086a131.219,131.219,0,0,1,3.1,15.271c.9,5.36,2.06,10.651,3.364,15.927,1.385,5.6,2.853,11.185,3.888,16.866a2.421,2.421,0,0,0,2.952,1.676,2.452,2.452,0,0,0,1.676-2.952c-1.946-10.689-5.255-21.069-7.082-31.787a151.943,151.943,0,0,0-3.109-15.71,44.106,44.106,0,0,0-5.709-12.382,40.1,40.1,0,0,0-12.021-12.139c-2.628-1.64-5.04,2.511-2.422,4.144Z"></path><path class="c" d="M344.836,91.189a99.531,99.531,0,0,1-14.677,10.384,168.532,168.532,0,0,1-23.308,11.149c-4.509,1.707-9.124,3.1-13.732,4.513-2.945.9-1.689,5.536,1.276,4.629,4.162-1.274,8.331-2.531,12.42-4.026,4.653-1.7,9.161-3.731,13.622-5.879a134.684,134.684,0,0,0,19.174-10.666c2.981-2.092,5.822-4.379,8.619-6.71a2.419,2.419,0,0,0,0-3.394,2.451,2.451,0,0,0-3.394,0Z"></path><path class="c" d="M344.46,94.1a223.068,223.068,0,0,1,14.069,24.409c1.385,2.762,5.527.334,4.145-2.423a223.394,223.394,0,0,0-14.069-24.409c-1.712-2.552-5.871-.152-4.145,2.423Z"></path><path class="c" d="M341.606,176.039c5.855-1.354,10.771-5.539,14.647-9.951a56.556,56.556,0,0,0,8.487-12.532,2.463,2.463,0,0,0-.861-3.283,2.421,2.421,0,0,0-3.284.861,52.083,52.083,0,0,1-7.543,11.338c-3.463,3.988-7.638,7.763-12.722,8.939-3.009.695-1.735,5.324,1.276,4.628Z"></path><path class="c" d="M363.358,143.4c-.007.057-.014.113-.022.17l.086-.638a15.053,15.053,0,0,1-.458,2.11,1.812,1.812,0,0,0-.043.957,1.783,1.783,0,0,0,.284.892,1.817,1.817,0,0,0,.619.674,1.8,1.8,0,0,0,.816.429l.638.086a2.385,2.385,0,0,0,1.211-.328l.486-.375a2.4,2.4,0,0,0,.617-1.059,18.546,18.546,0,0,0,.566-2.918,2.672,2.672,0,0,0-.7-1.7,2.678,2.678,0,0,0-1.7-.7l-.638.086a2.387,2.387,0,0,0-1.059.617l-.376.486a2.384,2.384,0,0,0-.327,1.211Z"></path><path class="c" d="M285.609,143.882a49.723,49.723,0,0,0,10.9,21.373c5.228,6,12.176,11.1,20.206,12.3a2.479,2.479,0,0,0,2.953-1.677A2.418,2.418,0,0,0,318,172.927c-7.312-1.1-13.329-5.606-18.087-11.066a44.659,44.659,0,0,1-9.671-19.255c-.7-3.007-5.329-1.734-4.628,1.276Z"></path><path class="c" d="M289.629,121.212a9.157,9.157,0,0,0-10.077-1.426,8.846,8.846,0,0,0-4.5,6.077,22.56,22.56,0,0,0,3.3,17.378c2.263,3.391,5.841,6.444,10.189,5.88a2.479,2.479,0,0,0,2.4-2.4,2.414,2.414,0,0,0-2.4-2.4c-3.206.416-5.37-2.167-6.79-4.73a18.7,18.7,0,0,1-2.352-7.146c-.225-2.464-.2-5.313,1.177-7.466q.141-.2-.074.079c.07-.087.143-.172.22-.253.062-.06.546-.511.36-.369a3.691,3.691,0,0,1,1.421-.645,4.119,4.119,0,0,1,3.726.815c2.3,2.051,5.7-1.332,3.394-3.394Z"></path><path class="c" d="M367.635,124.6a4.035,4.035,0,0,1,3.2-.912,3.532,3.532,0,0,1,2.279,1.082c.357.352-.137-.258.137.151.1.142.188.285.273.433a5.354,5.354,0,0,1,.519,1.243,13.328,13.328,0,0,1,.511,3.81c.027,4.623-1.918,10.609-5.949,13.274-2.565,1.7-.163,5.855,2.423,4.144,5.935-3.924,8.923-12.3,8.234-19.2-.319-3.2-1.28-6.434-4.058-8.331a9.086,9.086,0,0,0-10.964.916c-2.305,2.066,1.1,5.452,3.394,3.394Z"></path><path class="c" d="M367.447,142.879a7.712,7.712,0,0,0-7.364,5.021,7.184,7.184,0,0,0,2.729,8.108,8.643,8.643,0,0,0,8.675.4,7.192,7.192,0,0,0,3.535-7.691c-.61-3.594-4.125-5.792-7.575-5.834a2.4,2.4,0,1,0,0,4.8c.16,0,.319.015.479.018.419.007-.122,0-.176-.035a3.2,3.2,0,0,0,.732.156c.14.04.275.09.413.134.382.121-.149-.043-.179-.08.124.153.546.285.724.4.057.038.441.286.083.052-.342-.224,0,.013.062.071.154.144.287.352.449.481-.394-.312-.234-.341-.105-.119.055.093.117.182.171.276s.091.2.149.287q.118.252-.112-.276c.031.08.061.161.088.244a4.232,4.232,0,0,0,.158.632c-.017-.032-.05-.635-.034-.245,0,.134.017.266.017.4,0,.093,0,.187-.006.28-.012.243-.154.528.032-.1-.068.228-.088.473-.158.7a2.076,2.076,0,0,0-.1.3c.061-.478.2-.409.066-.168-.1.182-.2.359-.313.538-.14.231-.271.151.115-.14a1.743,1.743,0,0,0-.164.185c-.084.091-.173.179-.265.262-.221.2-.341.131.095-.059-.187.081-.36.241-.544.339a3.859,3.859,0,0,0-.354.172c.039-.027.565-.2.2-.093-.223.064-.441.14-.668.191a2.183,2.183,0,0,0-.426.079l.344-.048c-.1.011-.2.019-.3.026a7.12,7.12,0,0,1-.773.007c-.1,0-.2-.015-.3-.019-.533-.022.571.113.056.008-.231-.047-.46-.1-.687-.166-.088-.027-.174-.061-.261-.087-.4-.121.533.27-.045-.026-.195-.1-.376-.219-.562-.335s-.117-.218.176.143a3.321,3.321,0,0,0-.286-.254c-.093-.09-.49-.575-.236-.23s.006,0-.035-.066c-.07-.107-.135-.217-.195-.329-.125-.231-.091-.46.024.106a2.437,2.437,0,0,0-.09-.246c-.071-.212-.115-.428-.167-.645-.117-.487.027.6.014.09,0-.094-.013-.189-.015-.283q-.006-.206.006-.411c.019-.331.16-.313-.025.116a7.705,7.705,0,0,0,.2-.753c.109-.36-.069.184-.095.214a3.36,3.36,0,0,0,.242-.457c.045-.074.1-.144.14-.218.228-.376-.405.419-.014.022a3.3,3.3,0,0,0,.52-.508l-.275.209c.072-.055.146-.107.221-.157.114-.077.231-.148.35-.215.1-.056.217-.1.31-.16.166-.078.082-.045-.25.1.089-.036.179-.069.27-.1a7.682,7.682,0,0,1,.86-.219c.351-.075-.115.1-.18.023a3.559,3.559,0,0,0,.636-.031,2.4,2.4,0,0,0,0-4.8Z"></path><path class="c" d="M302.213,190.27c3.308-1.368,6.875-3.092,8.662-6.373,1.6-2.944,1.591-6.38,1.614-9.651a2.4,2.4,0,1,0-4.8,0c-.008,1.13-.028,2.256-.1,3.383q-.039.6-.092,1.208c-.005.054-.067.662-.034.391.029-.249-.07.406-.068.392a7.318,7.318,0,0,1-.279,1.04c-.059.163-.2.465-.05.143-.074.162-.151.324-.233.483a8.146,8.146,0,0,1-.481.823c-.032.05-.377.491-.187.268s-.237.25-.228.24c-.1.1-.2.205-.307.3.008-.008-.43.371-.28.249.169-.137-.289.213-.332.244-.159.113-.319.224-.482.332a19.293,19.293,0,0,1-1.87,1.093c-.337.173-.679.337-1.023.494-.139.064-.279.126-.419.188a1.555,1.555,0,0,1-.284.121,2.466,2.466,0,0,0-1.676,2.952c.36,1.113,1.71,2.19,2.952,1.677Z"></path><path class="c" d="M342.262,174.246c0,3.049.013,6.231,1.3,9.045,1.395,3.045,4.324,4.913,7.273,6.256a2.459,2.459,0,0,0,3.283-.861,2.428,2.428,0,0,0-.861-3.284,20.788,20.788,0,0,1-3.638-2.065c-.1-.07-.417-.333-.174-.129-.134-.112-.265-.225-.391-.345a7.2,7.2,0,0,1-.623-.672c.212.26.078.095-.04-.082-.074-.112-.146-.225-.214-.341-.175-.293-.312-.6-.47-.9s.11.34,0,0c-.061-.185-.136-.364-.19-.551a9.943,9.943,0,0,1-.23-1.054c-.027-.173-.024-.158.007.045l-.025-.237c-.012-.157-.029-.314-.042-.471-.033-.392-.059-.784-.083-1.176-.063-1.06-.083-2.118-.083-3.18a2.4,2.4,0,0,0-4.8,0Z"></path><path class="c" d="M361.936,191.547c9.223,4.512,18.847,8.639,27.08,14.87a2.415,2.415,0,0,0,3.284-.861,2.458,2.458,0,0,0-.861-3.283c-8.233-6.232-17.858-10.359-27.08-14.87a2.462,2.462,0,0,0-3.284.861,2.422,2.422,0,0,0,.861,3.283Z"></path><path class="c" d="M304.513,204.177a57.1,57.1,0,0,0,44.776,0,2.419,2.419,0,0,0,.861-3.284,2.456,2.456,0,0,0-3.283-.861,52.842,52.842,0,0,1-39.931,0,2.472,2.472,0,0,0-3.284.861,2.421,2.421,0,0,0,.861,3.284Z"></path><path class="c" d="M301.34,241.1q-5.263-9.448-10.338-19-1.235-2.334-2.451-4.676-.548-1.053-1.09-2.108a10.22,10.22,0,0,0-.647-1.258c-.211-.291-.164-.6-.329-.1.183-.554,1.229-1.307,1.64-1.73q.918-.945,1.859-1.867c1.3-1.28,2.629-2.534,3.961-3.783a2.422,2.422,0,0,0-.486-3.769q-1.779-1.021-3.561-2.039l-1.679-.957-.84-.477-.42-.238q-.461-.3.061.142l.328,1.211c-.025.56.223-.255.35-.467.2-.332.416-.656.64-.973a19.515,19.515,0,0,1,1.442-1.766,47.231,47.231,0,0,1,4.127-4.013,73.559,73.559,0,0,1,8.462-6.349l-3.525-1.434c4.38,19.439,9.906,38.548,16.07,57.49.951,2.925,5.588,1.673,4.628-1.276-6.163-18.942-11.69-38.051-16.07-57.49a2.418,2.418,0,0,0-3.526-1.434,69.739,69.739,0,0,0-12.977,10.479,32.311,32.311,0,0,0-2.6,3.123,7.746,7.746,0,0,0-1.807,3.737c-.115,2.213,1.795,3.062,3.442,4q2.519,1.434,5.03,2.876l-.485-3.769c-1.449,1.358-2.892,2.722-4.3,4.12a22.657,22.657,0,0,0-3.864,4.211c-1.182,2.037-.252,3.923.715,5.8q1.306,2.542,2.635,5.072,5.585,10.644,11.46,21.131c1.5,2.7,5.651.281,4.145-2.422Z"></path><path class="c" d="M338.9,242.943c6.164-18.942,11.679-38.053,16.07-57.49l-3.526,1.434a73.331,73.331,0,0,1,8.457,6.349,47.056,47.056,0,0,1,4.124,4.013,19.5,19.5,0,0,1,1.441,1.766c.224.317.439.641.64.973.13.217.368,1.022.35.467l.327-1.211c.2-.38.322-.259-.147-.023-.285.144-.559.319-.837.477l-1.886,1.076-3.569,2.039a2.422,2.422,0,0,0-.485,3.769c1.277,1.193,2.549,2.391,3.8,3.615q.941.923,1.861,1.864c.488.5,1.538,1.254,1.8,1.9-.151-.371.011-.415-.32.1-.209.326-.361.7-.538,1.048q-.6,1.161-1.2,2.318-1.216,2.341-2.452,4.674-5.055,9.557-10.338,18.992c-1.5,2.7,2.64,5.124,4.145,2.422,3.9-7,7.738-14.029,11.461-21.122q1.327-2.531,2.635-5.071c.935-1.82,1.837-3.636.8-5.637-.83-1.6-2.516-2.952-3.781-4.21-1.465-1.458-2.968-2.877-4.479-4.288l-.486,3.769,5.036-2.876c1.641-.935,3.56-1.787,3.44-4a7.6,7.6,0,0,0-1.721-3.613,31.582,31.582,0,0,0-2.685-3.247,69.621,69.621,0,0,0-12.97-10.479,2.417,2.417,0,0,0-3.525,1.434c-4.391,19.437-9.907,38.548-16.07,57.49-.958,2.944,3.675,4.206,4.628,1.276Z"></path><path class="c" d="M242.614,289c1.16-14.154,2.431-28.292,4.016-42.4.942-8.387,2.237-16.849,5.765-24.6a41.547,41.547,0,0,1,14.189-16.884c7.834-5.515,16.728-9.371,25.3-13.56a2.424,2.424,0,0,0,.861-3.284,2.451,2.451,0,0,0-3.284-.861c-14.826,7.245-31.547,14.027-39.8,29.323-4.352,8.063-6.372,17.165-7.415,26.2q-1.1,9.5-2.05,19.025c-.888,9.006-1.641,18.026-2.38,27.045a2.419,2.419,0,0,0,2.4,2.4,2.449,2.449,0,0,0,2.4-2.4Z"></path><path class="c" d="M395.716,288.967a26.137,26.137,0,0,0,14.518,2.217,19.413,19.413,0,0,0,12.64-7.113c3.532-4.362,4.939-9.453,5.35-14.983.407-5.484.431-11,.557-16.5.132-5.778.43-11.537,1.037-17.286a2.416,2.416,0,0,0-2.4-2.4,2.454,2.454,0,0,0-2.4,2.4c-1,9.486-.975,18.99-1.333,28.509-.188,4.986-.23,10.191-2.752,14.65a15.7,15.7,0,0,1-8.942,7.506,20.244,20.244,0,0,1-13.852-1.147,2.473,2.473,0,0,0-3.284.861,2.419,2.419,0,0,0,.861,3.283Z"></path><path class="c" d="M411.221,185.083c.443-1.244,2.273-1.729,3.485-1.513,2.05.365,3.666,2.133,5.049,3.567,1.782,1.849,3.466,3.787,5.106,5.761.778.936,1.545,1.879,2.31,2.825a14.245,14.245,0,0,1,1.876,2.513,10.11,10.11,0,0,1,1.1,4.637,13.031,13.031,0,0,1-1.967,5.941,63.4,63.4,0,0,0-4.439,11.422,107.655,107.655,0,0,0-2.647,11.123c-.358,1.969-.7,4.274-2.429,5.543a21.149,21.149,0,0,1-2.789,1.6c.646-.335-.259-.035.213-.1a11.009,11.009,0,0,1-1.163.063,19.552,19.552,0,0,1-9.151-1.663A25.388,25.388,0,0,1,403,235.38q-.692-.409-1.349-.873c-.289-.2.289.247.022.017-.123-.106-.247-.21-.365-.321-.214-.2-.408-.416-.6-.634-.234-.263.217.312.012.022-.077-.109-.155-.216-.225-.329-.144-.232-.283-.463-.408-.705-.08-.156-.158-.314-.227-.475.139.324.015.033-.037-.137a13.3,13.3,0,0,1-.631-4.709,38.075,38.075,0,0,1,.819-6.851c.527-2.664,1.05-4.972.127-7.631a19.431,19.431,0,0,0-4.326-6.909c-2.126-2.25-5.516,1.149-3.394,3.394a12.607,12.607,0,0,1,3.437,6.028,6.479,6.479,0,0,1-.242,2.726c-.3,1.4-.561,2.8-.763,4.214-.573,4.007-.884,8.3.781,12.1,1.506,3.438,4.763,5.364,8.087,6.8a25.865,25.865,0,0,0,11.5,2.155,11.365,11.365,0,0,0,10.2-8.951c.984-4.168,1.691-8.379,2.882-12.5a62.716,62.716,0,0,1,4.815-11.964,14.94,14.94,0,0,0-.028-14.263,25.3,25.3,0,0,0-2.654-3.43c-1-1.231-2-2.458-3.02-3.667a56.433,56.433,0,0,0-6.28-6.65c-2.45-2.09-5.276-3.566-8.6-3.007a7.941,7.941,0,0,0-5.925,4.983,2.423,2.423,0,0,0,1.677,2.952,2.449,2.449,0,0,0,2.952-1.676Z"></path><path class="c" d="M419.635,194.484c-2.123-2.34-4.31-4.626-6.516-6.889a19.415,19.415,0,0,0-2.375-2.222,6.493,6.493,0,0,0-7.406-.087,7.477,7.477,0,0,0-3.067,7.614,2.414,2.414,0,0,0,2.952,1.676,2.461,2.461,0,0,0,1.676-2.952q-.077-.412,0,.042c-.01-.137-.012-.274-.009-.411.022-.281.014-.277-.026.011q.034-.211.087-.42a4.216,4.216,0,0,1,.2-.622c-.191.447.224-.335.275-.414-.226.35.29-.306.366-.384.348-.359-.188.034.256-.189a4.326,4.326,0,0,1,.4-.216q-.337.144.06,0a3.649,3.649,0,0,1,.438-.1q-.4.059.032.029c.638.013-.361-.148.267.02a4.207,4.207,0,0,1,.45.132q-.306-.135.088.06a4.776,4.776,0,0,1,.429.272q-.388-.314-.222-.172c.017.033.091.08.116.106.356.37.735.721,1.1,1.087,2.389,2.427,4.746,4.895,7.034,7.419a2.4,2.4,0,0,0,3.394-3.395Z"></path><path class="c" d="M411,197.3a53.3,53.3,0,0,0-6.332-5.276,10.632,10.632,0,0,0-3.226-1.855,6.316,6.316,0,0,0-7.551,7.758,11.579,11.579,0,0,0,2.4,3.806,19.209,19.209,0,0,0,1.441,1.578c1.46,1.445,2.978,2.832,4.488,4.224a2.4,2.4,0,1,0,3.395-3.394,64.284,64.284,0,0,1-6.414-6.4c-.172-.211,0,0,.028.037-.088-.122-.179-.243-.264-.368-.143-.211-.25-.458-.4-.66-.2-.264.052.309-.011,0a1.809,1.809,0,0,1-.073-.243c.064-.033.01.563.021.158,0-.143.011-.293.006-.435-.013-.333-.105.426-.017.1.024-.09.036-.184.058-.274.037-.151.32-.826.058-.3.088-.176.22-.356.292-.535.111-.273-.119.213-.132.164,0,.01.393-.417.147-.173-.213.213.066-.044.14-.091s.164-.095.244-.145c.358-.221.036-.03-.061.006.117-.043.233-.084.353-.118.087-.025.184-.037.269-.066.316-.11-.429,0-.1.009.089,0,.179-.011.268-.011s.177,0,.264.012c.137.012.117.009-.06-.008-.27-.159-.008.007.1.053.247.105-.17-.091-.181-.085.066-.033.52.329.577.368.447.3.895.606,1.339.915q.368.255.731.517c.123.089.245.18.368.27s.259.193.059.039c.524.4,1.015.845,1.515,1.278.966.837,1.948,1.659,2.868,2.548A2.4,2.4,0,0,0,411,197.3Z"></path><path class="c" d="M398.275,197.191a6.812,6.812,0,0,0-4.722-.823,7.668,7.668,0,0,0-3.318,1.865,7.326,7.326,0,0,0-2.4,6.31,14.584,14.584,0,0,0,1.8,4.871,31.686,31.686,0,0,0,2.156,3.975,2.4,2.4,0,0,0,4.145-2.423,26.69,26.69,0,0,1-1.75-3.164q-.461-.909-.906-1.827-.186-.382-.369-.766c-.04-.084-.079-.168-.119-.251-.061-.128-.052-.3-.034-.066q.114.274,0-.035c-.036-.111-.068-.224-.1-.337l-.039-.173c-.048-.269-.047-.233,0,.106a6.654,6.654,0,0,0,0-1.188q.029-.274-.024.181c.021-.12.046-.24.075-.359.044-.178.1-.35.156-.524.166-.528-.243.379.047-.085.037-.058.417-.633.2-.348s.224-.21.279-.261c.139-.128.285-.245.427-.367.409-.351-.264.143.158-.115.063-.038.674-.467.346-.247q-.32.12.094-.027a3.942,3.942,0,0,1,.452-.116c-.412.077.088.021.243.025-.5-.012.1.043.233.07q.391.144.092.012.231.108.455.232a2.4,2.4,0,1,0,2.423-4.145Z"></path><path class="c" d="M402.542,52.977l-11.563,7.2a2.4,2.4,0,1,0,2.423,4.144l11.562-7.2a2.4,2.4,0,1,0-2.422-4.144Z"></path><path class="c" d="M408.345,71.215,396.625,73.3a2.412,2.412,0,0,0-1.676,2.953A2.466,2.466,0,0,0,397.9,77.93l11.72-2.086a2.411,2.411,0,0,0,1.676-2.952,2.466,2.466,0,0,0-2.952-1.677Z"></path><path class="c" d="M389.368,40.048l-5.916,10.329A2.4,2.4,0,0,0,387.6,52.8l5.916-10.33a2.4,2.4,0,0,0-4.145-2.422Z"></path><path class="c" d="M260.288,239.926a5.5,5.5,0,0,0-4.52,2.545,6.713,6.713,0,0,0-.77,3.674q.011,2.359.031,4.719.053,6.354.128,12.709.188,16.332.445,32.662.247,15.9.57,31.794.069,3.171.145,6.342a35.776,35.776,0,0,0,.244,5.887,5.436,5.436,0,0,0,5.608,4.243c.588,0,1.176-.011,1.764-.015,4.833-.033,9.666-.039,14.5-.049q11.625-.022,23.251-.028,13.665-.01,27.331-.009,13.6,0,27.2.011,11.177.009,22.352.031c4.416.01,8.831.013,13.246.051a8.786,8.786,0,0,0,2.939-.284,5.329,5.329,0,0,0,3.445-3.79,14.977,14.977,0,0,0,.2-3.062q.168-6.277.289-12.557.333-16.358.566-32.717.24-15.95.419-31.9.065-5.873.108-11.744c.013-1.914.3-4.1-.679-5.827a5.682,5.682,0,0,0-5.253-2.687q-6.2-.015-12.405-.012-10.971-.006-21.941-.008-13.473,0-26.945,0-13.867,0-27.735,0-12.164,0-24.325.006-8.181,0-16.361.011-1.923,0-3.845.007c-3.088.011-3.094,4.811,0,4.8,3.553-.012,7.1-.01,10.657-.013q10.146-.006,20.291-.008,12.865,0,25.731,0,13.695,0,27.388,0l24.87,0q9.147,0,18.294.01,2.7,0,5.394.006a9.188,9.188,0,0,1,1.565,0c.917.171.508,2.389.5,3.172-.054,8.572-.162,17.143-.273,25.714q-.213,16.572-.492,33.142c-.16,9.5-.328,19-.566,28.5q-.033,1.3-.068,2.6c-.013.47.16,1.477-.255,1.772-.312.222-1.195.068-1.586.065q-2.559-.021-5.119-.027-8.886-.035-17.772-.04-12.3-.018-24.61-.021-13.6-.006-27.2,0-12.81,0-25.619.017-9.927.011-19.854.036-3.217.009-6.435.024l-2.15.015c-.393,0-1.229.145-1.528-.084-.431-.329-.235-1.439-.249-1.952q-.035-1.31-.068-2.619-.075-3.05-.141-6.1-.158-7.211-.284-14.422-.3-16.563-.524-33.127-.2-14.306-.338-28.612-.022-2.4-.038-4.79c0-.662-.4-3.207.48-3.261C263.357,244.539,263.379,239.738,260.288,239.926Z"></path><path class="c" d="M271.056,332.442c13.781-.086,27.563-.013,41.344.029,16.7.051,33.4-.025,50.1-.051,6.589-.01,13.177-.019,19.766.022,3.089.019,3.093-4.781,0-4.8-13.478-.084-26.957-.012-40.434.03-16.864.053-33.726-.028-50.59-.052-6.729-.01-13.458-.02-20.186.022-3.088.019-3.095,4.819,0,4.8Z"></path><path class="c" d="M318.3,284.805q-.006,2.819,0,5.636c0,2.119-.288,4.447,1.358,6.082,1.6,1.587,3.788,1.325,5.843,1.323q2.775,0,5.55,0a6.067,6.067,0,0,0,3.113-.586,4.56,4.56,0,0,0,2.182-2.863,14.523,14.523,0,0,0,.149-3.093q0-1.484,0-2.968,0-1.357,0-2.713a5.758,5.758,0,0,0-.687-3.22,4.527,4.527,0,0,0-3.188-2.082,19.542,19.542,0,0,0-2.607-.074h-6.193a5.842,5.842,0,0,0-3.43.734,4.712,4.712,0,0,0-2.089,3.821,2.417,2.417,0,0,0,2.4,2.4,2.452,2.452,0,0,0,2.4-2.4c.027-.61-.142.486.037-.078l-.1.251q.213-.333-.069.062c.158-.1.267-.126-.087.037.5-.228-.488.008.07-.044-.678.063.247.017.415.017h7.879a2.95,2.95,0,0,1,.871.008l-.279-.025c.256.083.229.067-.079-.046.492.2-.342-.2.062.053l-.16-.212c.129.231.126.2-.006-.1.173.545.05-.514.037.078-.007.305,0,.611,0,.917q0,1.143,0,2.287,0,2.365-.01,4.73a2.23,2.23,0,0,1,0,.567l.052-.27a2.19,2.19,0,0,1-.092.347c.1-.1.069-.464,0-.1l.158-.213q-.288.269.085-.039c-.549.143.382-.063.014.016-.352.075.6.023.007.007-.348-.01-.7,0-1.045,0q-2.266-.006-4.533,0l-2.219,0-.9,0a1.637,1.637,0,0,1-.519-.007q.457.071.194,0t.164.073c-.54-.228.412.272-.065-.05.186.264.209.285.066.063l.1.252-.053-.17q-.087-.4.012.093c-.072-.065,0-.654,0-.763q-.007-1.27-.008-2.542,0-2.6,0-5.2a2.4,2.4,0,0,0-4.8,0Z"></path><path class="c" d="M199.1,195.092a106.852,106.852,0,0,0,19.919-32.256,117.094,117.094,0,0,0,7.816-40.919,155.8,155.8,0,0,0-3.857-37.757,118.908,118.908,0,0,0-11.649-30.725A99.426,99.426,0,0,0,168.936,12.5a113.014,113.014,0,0,0-28.614-9.857A136.749,136.749,0,0,0,108.248.1,128.558,128.558,0,0,0,76.968,5,107.629,107.629,0,0,0,49.711,17.163,98.744,98.744,0,0,0,27.386,36.409a104.623,104.623,0,0,0-16.33,26.152A128.755,128.755,0,0,0,1.785,95.439a149.629,149.629,0,0,0-.933,38.73A113.577,113.577,0,0,0,10.734,169.5a105.019,105.019,0,0,0,18.947,27.646,110.2,110.2,0,0,0,25.727,19.964,117.577,117.577,0,0,0,30.154,11.828,118.751,118.751,0,0,0,77.455-7.528,112.728,112.728,0,0,0,18.613-10.779h-2.423c9.584,5.409,19.454,10.516,29.478,15.058a2.447,2.447,0,0,0,2.665-.187,2.375,2.375,0,0,0,.861-2.523c-3.867-10.412-8.2-20.654-12.738-30.791a2.417,2.417,0,0,0-3.283-.861,2.458,2.458,0,0,0-.861,3.284c4.365,9.759,8.53,19.62,12.253,29.644l3.526-2.71c-10.024-4.543-19.9-9.65-29.478-15.058a2.375,2.375,0,0,0-2.423,0,112.684,112.684,0,0,1-39.356,17.867A114,114,0,0,1,71.289,219.4a108.08,108.08,0,0,1-26.836-15.314A101.046,101.046,0,0,1,8.9,150.776a123.052,123.052,0,0,1-3.966-36.957,143.412,143.412,0,0,1,5.22-34.627,109.31,109.31,0,0,1,12.5-28.318A95.1,95.1,0,0,1,41.4,29.187,97.93,97.93,0,0,1,65.392,14.266a113.44,113.44,0,0,1,28.057-8,134.979,134.979,0,0,1,31.082-1.028,118.782,118.782,0,0,1,29.239,6.021,100.482,100.482,0,0,1,25.2,12.864,94.45,94.45,0,0,1,20.2,19.444A103.3,103.3,0,0,1,213.671,69.9a130.976,130.976,0,0,1,7.527,32.7c1.361,13.281,1.291,26.85-1.284,39.981a104.374,104.374,0,0,1-13.828,35.351A100.243,100.243,0,0,1,195.7,191.7C193.645,193.991,197.029,197.4,199.1,195.092Z"></path><path class="c" d="M72.883,168.87V157.036a2.435,2.435,0,0,0-2.4-2.4h-23.7a2.435,2.435,0,0,0-2.4,2.4v12.485c0,3.088,4.8,3.093,4.8,0V157.036l-2.4,2.4h23.7l-2.4-2.4V168.87c0,3.088,4.8,3.093,4.8,0Z"></path><path class="c" d="M111.277,168.87V132.036a2.435,2.435,0,0,0-2.4-2.4h-23.7a2.435,2.435,0,0,0-2.4,2.4v37.485c0,3.088,4.8,3.093,4.8,0V132.036l-2.4,2.4h23.7l-2.4-2.4V168.87c0,3.088,4.8,3.093,4.8,0Z"></path><path class="c" d="M149.671,168.87V102.036a2.435,2.435,0,0,0-2.4-2.4h-23.7a2.435,2.435,0,0,0-2.4,2.4v67.485c0,3.088,4.8,3.093,4.8,0V102.036l-2.4,2.4h23.7l-2.4-2.4V168.87c0,3.088,4.8,3.093,4.8,0Z"></path><path class="c" d="M188.065,168.87V85.082c0-4.2.078-8.409,0-12.609,0-.145,0-.291,0-.437a2.435,2.435,0,0,0-2.4-2.4h-23.7a2.435,2.435,0,0,0-2.4,2.4V156.28c0,4.26-.078,8.529,0,12.789,0,.151,0,.3,0,.452,0,3.088,4.8,3.093,4.8,0V85.277c0-4.246.2-8.546,0-12.789-.007-.15,0-.3,0-.452l-2.4,2.4h23.7l-2.4-2.4v83.788c0,4.2-.077,8.409,0,12.609,0,.145,0,.291,0,.437,0,3.088,4.8,3.093,4.8,0Z"></path><path class="c" d="M122.368,36.916c-9.61,5.178-20.045,11.244-31,13.886a.9.9,0,0,0,0,1.758l9.811,2.4a.912.912,0,0,1,.5,1.457C86.53,74.926,58.061,92.166,33.432,102.108a1.111,1.111,0,0,0,.6,2.125,140.711,140.711,0,0,0,41.083-13c13.986-6.846,25.348-13.413,34.438-24.692a.863.863,0,0,1,1.431.1c1.451,2.557,3.647,6.036,5.652,9.386a.9.9,0,0,0,1.657-.268,363.048,363.048,0,0,0,5.4-37.965A.9.9,0,0,0,122.368,36.916Z"></path><path class="c" d="M36.015,172.665q14.247.03,28.494.04,19.586.019,39.17.033,20.52.015,41.04.026,16.824.01,33.65.017,8.732,0,17.463.007h.6c3.088,0,3.093-4.8,0-4.8q-7.416,0-14.831-.006l-32.127-.016-40.627-.025q-19.936-.015-39.871-.033-15.153-.015-30.306-.039l-2.652,0c-3.089-.007-3.093,4.793,0,4.8Z"></path></svg>