<svg id="b" xmlns="http://www.w3.org/2000/svg" width="379.472" height="359.163" viewBox="0 0 379.472 359.163"><defs><style>.q{fill:#fcdc4a;}.q,.r,.s,.t{stroke-width:0px;}.r{fill:none;}.s{fill:#fff;}.t{fill:#211715;}</style></defs><g id="c"><g id="d"><path class="s" d="M168.65,6.952c0-1.683.001-3.337.002-4.958-33.999,19.632-93.207,53.822-128.115,73.982-.013,30.429-.033,72.814-.039,98.052,34.828-20.109,94.592-54.625,128.113-73.986.011-24.02.027-63.156.039-93.089Z"></path><g id="e"><path class="s" d="M377.404,296.919c0-6.19,0-32.869.005-58.726-29.568-17.08-100.431-58.002-151.668-87.591-15.937-9.203-29.975-17.31-40.276-23.27-29.043,16.789-70.638,40.824-103.722,59.93,52.055,30.051,175.729,101.469,192.241,111.003-.009,29.042-.009,58.62-.009,58.62v.283c.355-.204.71-.409.71-.409,2.87-1.652,86.339-49.893,102.718-59.354,0-.145,0-.307,0-.487Z"></path></g><g id="f"><path class="s" d="M228.855,152.4c6.645,3.837,13.595,7.851,20.72,11.966l-.092,1.352c1.249-.004,2.363.056,2.866.113l.754.085c.891,2.664,2.288,6.448,3.136,9.593,2.026-1.142,4.669-2.432,7.221-3.962,4.167-2.493,8.13-5.645,8.949-9.875.347-1.817.205-3.686-.027-5.521-.801-6.474-2.333-14.737-6.367-20.062-2.458-3.259-6.34-7.462-10.124-9.403,0,0-10.529-2.549-16.694-3.661-6.165-1.111-11.731,3.764-11.731,3.764-5.889,4.427-10.09,11.047-11.589,18.26l.357,3.417c2.267-1.908,5.238-2.334,8.88-.459.977.503,2.253,2.333,2.25,3.724l1.491.539"></path></g><path class="s" d="M236.836,93.925c6.405-3.976,14.909-3.643,21.271.877,6.212,4.414,8.433,12.638,5.772,19.473,1.369.614,2.461,1.895,2.704,3.418.332,2.078-.75,4.357-2.433,5.707-1.834,1.471-4.456,2.262-6.707,2.097-5.299,4.641-13.596,5.442-19.786,2.038-1.784-.981-3.381-2.287-4.727-3.812-6.367-7.205-6.479-19.146-.099-26.405,1.192-1.356,2.544-2.487,4.005-3.394Z"></path><path class="s" d="M322.567,169.305c-1.402-.246-2.766-.46-3.989-.613-6.227-.778-12.324,3.257-12.324,3.257-5.889,4.427-10.09,11.047-11.589,18.26l.357,3.417c2.267-1.908,5.238-2.334,8.88-.459.977.503,2.253,2.333,2.25,3.724,0,.05,0,.099-.001.148,7.357,4.247,14.549,8.4,21.435,12.377l-.231,1.246c.378-.02.737-.01,1.063.027l1.788.279,1.743.272c.891,2.653,2.248,6.347,3.078,9.428,2.026-1.142,4.669-2.432,7.221-3.962,4.167-2.493,8.13-5.645,8.949-9.875.347-1.817.205-3.686-.027-5.521-.801-6.474-2.333-14.737-6.367-20.062-2.458-3.259-6.34-7.462-10.124-9.403,0,0-6.377-1.534-12.113-2.541Z"></path><path class="s" d="M306.382,154.528c-.187,5.159,1.452,10.396,4.881,14.277,1.365,1.545,2.983,2.869,4.791,3.863,5.958,3.276,13.842,2.709,19.222-1.383.563-.428,1.258-.633,1.964-.675,1.987-.118,4.107-.883,5.665-2.133,1.706-1.369,2.803-3.679,2.466-5.785-.145-.909-.588-1.732-1.212-2.383-.812-.848-1.139-2.077-.866-3.219,1.539-6.434-.852-13.577-6.513-17.599-7.919-5.626-19.112-4.852-25.619,2.551-3.03,3.447-4.616,7.937-4.781,12.486Z"></path><path class="s" d="M86.138,116.232c0,.376-.007,12.305-.007,12.783.929-.536,16.795-9.699,17.39-10.042,0-.346.006-12.344.006-12.783-2.223,1.284-15.607,9.012-17.388,10.043Z"></path><path class="s" d="M111.441,83.363c0,.376-.007,30.565-.007,31.043.929-.536,16.795-9.699,17.39-10.042,0-.346.006-30.605.006-31.044-2.223,1.284-15.607,9.012-17.388,10.043Z"></path><path class="s" d="M24.078,81.993c11.502-3.451,18-.292,19.917,4.208.958,1.708,1.917,4,2.292,5.5.248.991.417,2.426.527,3.623.03.323.055.629.076.904.38,4.908-1.373,9.945-4.718,13.557-3.345,3.612-8.232,5.746-13.155,5.744-5.211-.002-10.38-2.398-13.722-6.409-2.231-.069-3.495-.046-5.332-.86-1.689-.749-3.134-2.183-3.72-3.992-.587-1.809-.212-3.97,1.092-5.314.857-.884,1.459-1.249,2.933-1.53,0,0-.939-8.513,6.728-12.263,1.876-.918,4.583-2.417,7.083-3.167Z"></path><path class="s" d="M42.128,82.301c-1.727-2.732-4.174-5.057-6.939-6.253-4.111-1.778-6.767-1.76-10.278-1.639-4.247.147-8.121,1.77-11.542,4.292-4.414,3.254-8.181,10.847-6.125,18.403,0,0,.154.565.416,1.527.704-.657,1.326-.964,2.606-1.209l6.061-2.763c4.392-1.24,8.723-3.141,12.744-5.281,1.859-.989,4.241-3.334,6.35-3.552,1.165-.12,2.326.662,3.36,1.087,1.423.585,2.903,1.224,4.442,1.408.436.052.884.061,1.323.017-.369-2.048-1.22-4.141-2.419-6.038Z"></path><path class="s" d="M40.949,113.487c-.727,7.887-2.553,15.457-5.276,21.876-.227.535-.474,1.082-.82,1.361-.762.615-1.627-.285-2.294-1.175-4.738-6.316-8.331-12.891-11.453-21.758l19.844-.304Z"></path><path class="s" d="M69.659,107.021c-.961-.054-1.91.098-2.775.518-4.86,2.358-4.723,10.631-3.25,10.178,2.752,1.783,5.504,3.566,8.255,5.35.187-.033.372-.08.552-.134,2.72-.816,4.842-3.294,5.315-6.093.473-2.8-.683-5.796-2.859-7.62-1.439-1.206-3.363-2.094-5.239-2.199Z"></path><path class="s" d="M9.93,226.724c.135-1.354.853-3.413,2.003-4.258.942.287,1.925.466,2.528.524,4.884.469,9.516.746,13.835-1.582l3.487-2.551c4.11.614,8.647.843,11.868-.273.365-.126.707-.276,1.036-.438,1.666,1.492,5.285,4.693,6.11,6.209.899,1.652,1.232,3.721.416,5.416-.758,1.575-2.399,2.59-4.105,2.965-1.707.375-3.486.189-5.208-.111-2.921-.509-5.164-1.18-7.961-2.338.126.905.128,1.98-.056,2.65-.474,1.729-1.471,2.666-3.028,3.556-1.683.961-3.961.998-5.893.858-3.001-.218-5.886-1.211-8.708-2.255-1.818-.672-3.732-1.449-4.856-3.029-1.202-1.69-1.674-3.278-1.469-5.342Z"></path><path class="s" d="M25.576,171.034c2.152.116,4.337.158,6.495.152.254,0,.505,0,.759-.001.038,0,.076,0,.114-.001,5.458-.018,10.734-.377,14.751-.701-.008.241-.011.373-.011.373-.233,11.4-1.383,37.319-1.898,46.628-.612.46-1.332.821-2.134,1.099-3.221,1.116-7.758.887-11.868.273l-3.487,2.551c-4.319,2.328-8.952,2.051-13.835,1.582-1.048-.101-3.244-.556-4.378-1.333-.156-12.441-.017-40.493.751-52.696,4.537,1.002,9.234,1.776,14.741,2.074Z"></path><path class="s" d="M19.16,155.637c2.259-3.467,5.051-9.017,8.055-13.948,7.05,1.845,13.446,3.563,19.726,5.131-3.947,7.509-8.087,14.958-12.414,22.315-2.021-.607-5.366-1.494-7.663-2.24l-7.704-11.258Z"></path><path class="s" d="M34.361,157.386c.137.3.244.603.312.904,1.276,5.62-4.976,9.53-8.559,9.03-7.032-.982-9.76-4.054-11.524-10.193-.436-2.836.04-5.484,2.523-7.564,1.859-1.557,3.512-2.086,5.023-1.645,2.357.688,3.605,2.323,3.743,4.206,2.122.46,4.386,1.166,6.276,2.47.893.616,1.713,1.715,2.205,2.793Z"></path><path class="s" d="M187.876,282.67c12.941-3.659,35.69,2.425,35.69,2.425,6.085,1.288,11.377,4.909,12.464,11.493.179,3.548-.821,14.992-1.365,19.454-.088.724-.039,1.473-.307,2.159-.275.704-.791,1.305-1.316,1.879-2.775,3.032-6.556,3.222-9.21,3.664l-2.522.024c.003-3.676.008-7.306.014-9.442.932-.576,1.498-1.587,1.498-2.688,0-1.881-.001-4.165-.001-5.588,0,0,0-1.502,0-3.713-5.424,3.006-10.393,5.401-16.773,6.785-1.444.313-3.83.365-5.289.133-2.053-.326-4.311-1.156-5.444-2.556,0,0-6.147-3.531-15.886-9.127l.458-.129s1.607-12.97,7.989-14.775Z"></path><path class="s" d="M229.262,264.407c-.686.196-1.317.4-1.869.68-.197.1-.42.188-.634.134-.245-.062-.402-.294-.533-.51-3.897-6.427-4.953-14.595-10.943-21.061-2.133-2.068-3.588-2.717-6.265-4.004-4.809-2.312-9.208-4.162-14.516-4.702-1.416-.144-2.868.094-4.253.587-2.667,1.232-5.845,3.589-7.395,6.521-3.607,6.824-4.16,17.231-4.194,22.391,7.622,14.496,11.704,19.462,17.391,22.758,1.127.66,3.565,1.62,4.835,1.9,5.81,1.34,10.93,1.57,15.639-.51.572-.24,1.143-.55,1.429-1.08.244-.46.202-1.02.168-1.55-.193-2.829-.404-5.658-.611-8.454.466.507.978,1.006,1.572,1.511,2.095,1.778,5.195,3.091,7.939,3.231,3.586.183,7.21-1.644,10.407-4.143,2.034-1.59,3.797-3.491,5.499-5.433.203-.232.416-.486.439-.794.033-.428-.308-.783-.622-1.076-2.649-2.468-5.298-4.936-7.948-7.404-.183-.171-.465-.257-.706-.329-.364-.108-.815-.01-1.025.086-1.341.614-2.65.922-3.805,1.252Z"></path><path class="s" d="M241.879,319.852c-.572-.472-1.239-.813-2.017-.999-1.509-.362-3.776-.337-5.809-.044-.279.454-.642.87-1.01,1.271-2.901,3.17-6.901,3.234-9.564,3.726-.003,3.208-.006,6.457-.008,9.086,1.251.8,2.804,1.196,4.301,1.139,1.987-.077,3.88-.822,5.717-1.583,3.266-1.353,6.608-2.864,8.944-5.518.212-.241.417-.497.602-.765.558-.805.738-1.679.674-2.641-.045-.686-.218-1.64-.583-2.222-.356-.567-.768-1.055-1.248-1.451Z"></path><path class="s" d="M118.855,261.745c1.133,1.4,3.392,2.23,5.444,2.556,1.459.232,3.845.18,5.289-.133,6.634-1.439,11.743-3.971,17.423-7.147,0,1.415,0,2.954,0,4.458l.504-.243c3.102-1.423,7.623-3.258,11.011-4.764.75-.333,1.216-1.094,1.18-1.914-.043-.988-.089-1.964-.137-2.924-1.088-6.584-6.379-10.206-12.464-11.493l-28.84-3.614.59,25.22Z"></path><path class="s" d="M147.209,288.674c-.068-.045-.135-.091-.201-.139.002-2.302.005-5.159.007-8.073,1.287-.053,2.653-.1,3.837-.159,1.473-.073,3.051-.184,4.208-1.098.35-.276.85-1.52,1.049-2.565.049-.298.097-.595.144-.892,1.316-.388,4.466.039,5.763.35,1.284.308,2.331,1.315,3.032,2.434.328.524.384,1.113.425,1.73.057.865-.103,1.687-.605,2.41-.167.241-.351.471-.542.688-2.1,2.386-5.104,3.744-8.04,4.96-1.652.684-3.354,1.354-5.14,1.423-1.374.053-2.799-.319-3.938-1.069Z"></path><path class="s" d="M155.984,277.184c.049-.183.092-.367.125-.545.745-4.523,1.232-8.94,1.608-13.837.125-1.63.17-3.984.284-5.615l.035-.501c-3.322,1.462-7.566,3.192-10.522,4.548l-.503.231c.002,2.755.005,5.099.005,7.38,0,2.961-.003,7.351-.005,11.617,1.287-.053,2.655-.1,3.84-.159,1.473-.073,3.051-.184,4.208-1.098.29-.229.684-1.125.923-2.02Z"></path><path class="s" d="M147.008,223.134c.061.104.123.207.185.31.131.216.288.449.533.51.214.054.437-.034.634-.134,1.481-.752,3.537-.953,5.674-1.932.21-.096.661-.194,1.025-.086.24.071.522.158.706.329,2.649,2.468,5.298,4.936,7.948,7.404.314.293.654.648.622,1.076-.023.307-.236.562-.439.794-1.701,1.942-3.464,3.843-5.499,5.433-3.197,2.499-6.822,4.326-10.407,4.143-2.385-.122-5.038-1.129-7.062-2.562.104,1.432.206,2.868.304,4.303.034.53.076,1.09-.168,1.55-.286.53-.858.84-1.429,1.08-4.708,2.08-9.829,1.85-15.639.51-1.27-.28-3.708-1.24-4.835-1.9-4.088-2.37-13.869-7.036-18.144-13.992-1.347-2.193-1.391-8.608-1.159-12.461.39-5.284,1.414-11.899,3.964-16.724,1.55-2.932,4.728-5.289,7.395-6.521,1.193-.664,2.837-.731,4.253-.587,5.308.541,9.708,2.39,14.516,4.702,2.677,1.287,4.132,1.936,6.265,4.004.089.096.178.193.265.291,5.664,6.315,6.804,14.18,10.494,20.461Z"></path><g id="g"><path class="q" d="M278.108,143.868c0-1.445-.766-2.767-2.018-3.488-2.667-1.535-7.533-4.336-12.426-7.153.869.981,1.669,1.958,2.351,2.863,4.034,5.325,5.565,13.588,6.367,20.062.232,1.834.374,3.704.027,5.521-.819,4.23-4.782,7.382-8.949,9.875-.198.119-.397.233-.595.349v.144c4.058,2.344,8.146,4.704,12.241,7.069,1.006.581,2.013,1.163,3.02,1.744-.005-11.473-.013-30.418-.016-36.985Z" style="fill: rgb(255, 138, 21);"></path><path class="q" d="M358.063,192.028c0-1.445-.766-2.768-2.018-3.488-2.282-1.314-6.176-3.555-10.318-5.939,3.347,5.303,4.707,12.76,5.443,18.711.232,1.834.374,3.704.027,5.521-.819,4.23-4.782,7.382-8.949,9.875-.337.202-.675.399-1.013.593,2.563,1.48,5.062,2.924,7.49,4.326,3.255,1.88,6.38,3.685,9.354,5.403-.006-11.561-.013-28.799-.016-35.001Z" style="fill: rgb(255, 138, 21);"></path><path class="q" d="M238.25,93.134c-2.006,1.007-3.851,2.401-5.419,4.186-2.302,2.619-3.758,5.846-4.381,9.241,4.891,2.797,9.47,2.501,14.225,1.827,1.779-.158,4.357-.876,6.563-1.664,1.635-.584,3.248.117,3.926,1.819.361.907.76,2.179,1.23,3.379.775,1.978,3.062,2.89,4.996,2.01l.385-.175c1.241.063,2.514.128,2.514.128,2.053.105,3.963,1.73,4.296,3.808.332,2.078-.75,4.357-2.433,5.707-.199.159-.407.311-.622.454.77.635,1.638,1.134,2.578,1.452,1.846.629,3.908.553,5.717-.179.342-.144.679-.311.998-.493,2.008-1.175,3.458-3.257,3.871-5.547-1.082-.25-2.237-.549-2.946-1.395-.964-1.128-.792-2.792-.813-4.267-.031-1.615-.869-3.055-2.086-4.103-1.393-1.206-4.415-1.586-5.802-1.481,0,0-.026.002-.066.005-.144-5.026-2.535-9.964-6.872-13.045-5.904-4.194-13.653-4.783-19.857-1.669Z" style="fill: rgb(255, 138, 21);"></path><path class="q" d="M310.656,142.645c-1.344,1.672-2.37,3.56-3.081,5.564s.344,4.242,2.387,4.85c3.573,1.062,7.038.769,10.602.264,1.779-.158,4.357-.876,6.563-1.664,1.635-.584,3.248.117,3.926,1.819.361.907.76,2.179,1.23,3.379.775,1.978,3.062,2.89,4.996,2.01l.077-.035c1.241-.565,2.692-.405,3.78.417h0s.557.421,1.121.847c3.255-7.085,1.086-15.942-5.476-20.604-7.919-5.626-19.112-4.852-25.619,2.551-.174.198-.343.399-.507.603Z" style="fill: rgb(255, 138, 21);"></path><path class="q" d="M136.743,50.494c0,.376-.007,48.826-.007,49.304.929-.536,16.795-9.699,17.39-10.042,0-.346.006-48.865.006-49.304-2.223,1.284-15.607,9.012-17.388,10.043Z" style="fill: rgb(255, 138, 21);"></path><path class="q" d="M62.23,116.804c-1.781,2.028-4.044,4.517-6.29,6.758-1.316-1.639-2.889-3.118-4.624-4.497-3.082-2.448-6.678-4.579-10.268-6.727-.65,8.299-2.519,16.295-5.374,23.024-.227.535-.474,1.082-.82,1.361-.763.615-1.627-.285-2.294-1.175-4.817-6.422-8.451-13.111-11.604-22.207-3.627-.455-9.329,3.714-11.752,6.552-1.189,1.393-2.55,3.387-3.358,5.03-1.386,2.817-2.164,5.351-2.956,8.389-1.837,7.047-.865,14.784,2.656,21.158,1.057,1.914,2.341,3.698,3.808,5.318-.15,1.279-.236,2.002-.236,2.002,0,0-.484,4.067-.484,6.667,5.233,1.244,10.541,2.232,16.943,2.578,9.682.523,20.049-.406,25.518-.844.314-4.092.207-22.707.484-27.107l.164-2.609.753.402,2.785,1.487c4.187,1.298,8.194-4.679,9.928-7.099,2.693-3.757,5.164-7.679,7.489-11.673-3.489-2.262-6.978-4.524-10.467-6.785ZM34.527,169.135c-1.724-.517-4.407-1.238-6.585-1.903-.647.125-1.271.165-1.828.087-7.032-.982-9.76-4.054-11.524-10.193-.436-2.836.041-5.484,2.523-7.564,1.859-1.557,3.512-2.086,5.023-1.645.449.131.845.306,1.213.501,1.228-2.208,2.524-4.528,3.865-6.73,7.05,1.845,13.446,3.563,19.726,5.131-3.947,7.509-8.087,14.958-12.414,22.315Z" style="fill: rgb(255, 138, 21);"></path><path class="q" d="M222.823,306.052s0-.876,0-2.269l-2.268-.216c-4.582,2.428-9.023,4.367-14.505,5.556-1.444.313-3.83.365-5.289.133-2.053-.326-4.311-1.156-5.444-2.556,0,0-.121-.069-.332-.191v-24.448c0-1.808-.96-3.472-2.512-4.4-6.528-3.904-18.48-10.832-24.592-14.224-1.136-.624-2.512.192-2.512,1.488,0,4.67-.007,18.552-.012,30.433h0s0,14.259,0,14.259c0,1.813.958,3.476,2.528,4.382,7.089,4.094,19.582,11.309,24.991,14.433,1.41.814,3.714.815,5.124,0,4.431-2.56,16.832-9.682,23.326-13.421,0-.239.001-.475.002-.686.932-.576,1.498-1.587,1.498-2.688,0-1.881-.001-4.165-.001-5.588Z" style="fill: rgb(255, 138, 21);"></path><path class="q" d="M197.073,203.914c-1.127.484-2.219,1.075-3.261,1.772-2.09,1.399-3.919,3.205-5.221,5.366-2.453,4.072-2.912,9.13-2.007,13.797.577,2.977,1.729,5.926,3.825,8.118,5.372,5.614,15.213,5.817,22.184,3.701.024-.007.049-.015.073-.022.106-.033.211-.066.317-.101-.622-3.473-1.141-7.346-.36-10.841.431-1.927,1.443-3.633,2.947-4.912,2.127-1.808,4.159-1.893,7.516-1.59-.311-4.004-1.65-7.866-4.377-10.88-.404-.446-.831-.87-1.279-1.272-5.652-5.075-13.615-6.029-20.356-3.136Z" style="fill: rgb(255, 138, 21);"></path><path class="q" d="M144.087,258.611c-4.579,2.427-9.02,4.368-14.499,5.557-1.444.313-3.83.365-5.289.133-2.053-.326-4.311-1.156-5.444-2.556l-.13-5.548-.199-.04v-19.051c0-1.808-.96-3.472-2.512-4.4-6.528-3.904-18.48-10.832-24.592-14.224-1.136-.624-2.512.192-2.512,1.488,0,4.635-.007,18.346-.012,30.167h-.004s0,14.525,0,14.525c0,1.813.958,3.476,2.528,4.382,7.089,4.094,19.582,11.309,24.991,14.433,1.41.814,3.714.815,5.124,0,4.989-2.882,20.085-11.55,25.474-14.659v-9.931l-2.924-.278Z" style="fill: rgb(255, 138, 21);"></path><path class="q" d="M113.817,164.673c-.857.528-1.615,1.113-2.302,1.741-3.583,3.278-5.167,7.833-5.647,10.55-1.16,6.565-.689,10.2-.103,13.7.266,1.592,1.137,3.545,1.958,4.667.926,1.264,2.941,2.651,4.375,3.282,8.727,3.839,15.81,2.256,19.099.607.755-.379,1.612-.675,2.084-1.348-.719-3.969-1.854-8.969-.875-13.353.416-1.863,1.395-3.513,2.85-4.75,2.086-1.773,4.077-1.833,7.406-1.525-.599-4.431-2.793-8.645-6.126-11.633-4.685-4.199-11.059-5.429-17.155-4.105-2.252.489-4.06,1.238-5.565,2.166Z" style="fill: rgb(255, 138, 21);"></path></g></g><g id="h"><path class="t" d="M347.324,185.828c1.683.971,3.369,1.938,5.053,2.907,1.041.599,2.796,1.204,3.418,2.287.457.796.268,1.959.268,2.856,0,1.137,0,2.274,0,3.411.002,6.303.005,12.605.007,18.908.001,3.608.002,7.216.002,10.825,0,2.574,4,2.578,4,0,0-6.938-.003-13.875-.006-20.813-.001-3.07-.002-6.14-.003-9.209,0-2.346.426-5.267-.553-7.449-.831-1.85-2.458-2.739-4.134-3.704-2.011-1.158-4.024-2.312-6.034-3.471-2.234-1.288-4.251,2.167-2.019,3.454h0Z"></path><path class="t" d="M267.364,137.668c1.798,1.034,3.597,2.067,5.395,3.101,1.093.629,2.925,1.232,3.278,2.578.237.904.069,2.053.07,2.987.001,1.242.003,2.485.004,3.727.006,6.601.009,13.203.011,19.804.001,3.662.002,7.324.002,10.986,0,2.574,4,2.578,4,0,0-7.02-.003-14.041-.007-21.061-.002-3.34-.004-6.681-.007-10.021-.001-1.261-.002-2.522-.004-3.782-.001-1.271.121-2.644-.265-3.87-.671-2.13-2.275-3.197-4.111-4.254-2.115-1.218-4.231-2.432-6.347-3.648-2.235-1.285-4.252,2.17-2.019,3.454h0Z"></path><g id="i"><path class="t" d="M295.675,188.678c-10.601-6.122-21.201-12.244-31.802-18.365-2.233-1.29-4.25,2.166-2.019,3.454,10.601,6.122,21.201,12.244,31.802,18.365,2.233,1.29,4.25-2.166,2.019-3.454h0Z"></path></g><path class="t" d="M241.043,169.104c-4.095-2.365-8.191-4.731-12.286-7.096-2.587-1.494-5.136-3.136-7.795-4.499-1.79-.918-4.286,1.219-5.793,2.09-2.813,1.625-5.627,3.25-8.44,4.876-1.995,1.153-3.994,2.298-5.984,3.459-1.292.754-1.302,2.702,0,3.454,7.344,4.238,14.684,8.483,22.027,12.723,1.384.799,2.768,1.599,4.153,2.397.623.359,1.396.361,2.019,0,4.159-2.41,8.327-4.805,12.49-7.21,2.228-1.287.216-4.745-2.019-3.454-4.163,2.405-8.331,4.8-12.49,7.21h2.019c-7.443-4.288-14.878-8.592-22.316-12.888-1.288-.744-2.576-1.488-3.864-2.232v3.454c6.025-3.515,12.078-6.983,18.12-10.47h-2.019c6.73,3.862,13.441,7.759,20.16,11.64,2.233,1.29,4.25-2.165,2.019-3.454h0Z"></path><path class="t" d="M226.456,125.062c-6.316,4.796-10.851,11.668-12.508,19.456-.225,1.056.312,2.162,1.397,2.46.996.274,2.234-.336,2.46-1.397,1.427-6.704,5.186-12.901,10.67-17.065.859-.652,1.309-1.724.718-2.736-.495-.846-1.871-1.375-2.736-.718h0Z"></path><path class="t" d="M226.855,139.635v12.636c0,1.046.92,2.048,2,2s2-.879,2-2v-12.636c0-1.046-.92-2.048-2-2s-2,.879-2,2h0Z"></path><path class="t" d="M257.472,151.059c-.12-.85.027.488.043.72.044.623.078,1.247.107,1.871.066,1.413.114,2.83.087,4.245-.006.292-.013.584-.03.876-.014.234.114.754-.007.314.185.673-.57-.157.123-.092-.213-.02-.954.755-1.132.899-1.713,1.39-3.383,2.831-5.103,4.212-.519.417-.717,1.333-.514,1.946,1.098,3.327,2.336,6.608,3.263,9.99.347,1.264,1.815,1.823,2.938,1.195,7.374-4.122,17.578-8.327,17.364-18.317-.089-4.182-.942-8.572-1.969-12.618-1.016-4.003-2.494-8.042-5.008-11.361-2.921-3.857-6.408-7.689-10.735-9.98-2.274-1.204-4.297,2.248-2.019,3.454,3.403,1.802,6.168,4.693,8.584,7.645,2.328,2.846,3.825,6.08,4.855,9.595,1.024,3.497,1.659,7.113,2.09,10.727.241,2.02.442,4.191-.315,6.13-.638,1.634-1.871,2.98-3.159,4.132-3.419,3.058-7.74,4.922-11.706,7.139l2.938,1.195c-.927-3.381-2.165-6.663-3.263-9.99l-.514,1.946c1.908-1.533,3.752-3.145,5.669-4.667,1.377-1.093,1.581-2.251,1.64-3.914.097-2.758.018-5.62-.369-8.356-.151-1.071-1.515-1.657-2.46-1.397-1.151.316-1.548,1.386-1.397,2.46h0Z"></path><path class="t" d="M215.258,154.483c.004-.353.018-.704.055-1.055-.035.335-.002.016.012-.047.039-.182.073-.363.121-.542.031-.115.065-.23.102-.344-.003.01.205-.523.087-.252s.126-.238.122-.23c.082-.153.171-.302.265-.448.064-.098.131-.194.199-.29-.249.35.109-.124.139-.158.167-.191.344-.373.525-.55.245-.239.501-.464.761-.685.484-.412-.153.095.15-.113.162-.112.326-.219.496-.319.14-.082.286-.154.428-.232.331-.184.145-.071.054-.034.3-.122.614-.215.93-.287.128-.029.257-.055.387-.076-.409.065.243-.011.268-.012.349-.016.7-.007,1.047.029-.298-.031.166.029.233.042.189.037.376.079.562.127.394.103.787.226,1.163.38.247.101.502.217.738.35.093.052.418.329.101.041.134.122.257.253.386.381.251.248.12.133.058.052.104.135.195.28.283.425.09.147.17.298.251.45.193.367.068.164.038.081.065.183.12.369.157.559-.021-.106.009-.341-.016.007-.008.12-.003.243-.008.364-.003.062-.075.695-.027.403.038-.238-.091.353-.123.474-.04.149-.248.48.005.035-.022.038-.123.209-.121.232.005.044-.11.168-.136.216.277-.523.133-.048-.003-.019-.026.005-.177.166-.18.17.328-.364.155-.101-.001-.014-.147.082-.751.294-.243.146-.236.069-.463.151-.704.205-.157.036-.697.116-.266.064-.359.044-.72.067-1.081.079-1.364.043-2.643.068-3.938.563-.707.27-1.392.591-2.077.911-.124.058-.247.116-.372.172-.09.041-.563.194-.092.043-.217.07-.538.123-.728.232-.223.128.497-.031.103-.01-.184.01-.477-.08.077.032-.303-.061.122.061.162.082-.174-.108-.137-.074.112.105-.114-.123-.122-.122-.024.004l.068.094c-.06-.085-.115-.173-.166-.265-.199-.35.031.213-.141-.335-.146-.463-.193-.774-.201-1.232-.02-1.08-.905-2-2-2-1.069,0-2.02.915-2,2,.037,2.025.767,4.618,2.914,5.334,1.476.493,2.908-.149,4.232-.766.311-.145.623-.288.934-.434.525-.247-.371.126.179-.077.17-.063.338-.129.51-.186.345-.114.699-.211,1.059-.267-.453.071.143.005.201.003.199-.005.399.005.599.005,1.592.002,3.249-.165,4.678-.92,2.995-1.583,3.48-5.75,1.878-8.473-1.977-3.36-6.942-4.738-10.545-3.447-1.854.664-3.488,1.911-4.708,3.453-1.338,1.691-1.902,3.628-1.929,5.774-.013,1.081.929,2,2,2,1.095,0,1.987-.915,2-2Z"></path><path class="t" d="M254.989,172.944c-2.285,1.637-4.694,2.759-7.416,3.38-1.274.29-2.022.4-3.398.356-.246-.008-.491-.029-.736-.048-.089-.007-.388-.069.008.003-.112-.02-.224-.038-.335-.061-.213-.044-.425-.096-.632-.161-.124-.038-.245-.085-.368-.127-.22-.075.298.195,0-.009-.082-.056-.632-.384-.395-.215.235.168-.192-.19-.249-.246-.184-.185.232.412.013-.002-.043-.081-.158-.33-.004.046-.112-.273-.177-.563-.234-.851.076.387-.022-.348-.024-.442-.007-.278.002-.556.023-.832.032-.411.018-.201.005-.107.025-.179.063-.357.103-.533.072-.318.161-.633.273-.94.071-.194.095-.252.291-.589.07-.121.145-.238.222-.354.208-.316-.284.33.103-.139.441-.534.927-1.034,1.433-1.507.437-.409.876-.789,1.366-1.113.132-.087.265-.173.402-.252-.028.016.553-.275.171-.11-.293.126-.017.01.062-.01.117-.029.231-.067.348-.095.267-.065.538-.111.81-.15-.393.055-.069.011.009.005.19-.014.379-.036.569-.05.655-.049,1.312-.069,1.968-.073.989-.006,1.988.007,2.973.112,1.076.115,2-1.001,2-2,0-1.177-.921-1.885-2-2-2.35-.25-4.929-.239-7.242.264-1.506.328-2.753,1.302-3.887,2.3-1.155,1.017-2.336,2.22-3.007,3.621-1.252,2.613-1.7,6.7.664,8.86,1.979,1.809,4.97,1.999,7.503,1.685,3.809-.471,7.507-1.929,10.628-4.164.877-.628,1.299-1.743.718-2.736-.507-.867-1.854-1.35-2.736-.718h0Z"></path><path class="t" d="M265.046,109.843c1.335-.081,2.354.068,3.642.531.527.189.878.423,1.32.92s.774,1.088.888,1.745.019,1.43.051,2.122c.047,1.004.209,1.992.66,2.899.885,1.782,2.728,2.529,4.553,2.958l-1.397-2.46c-.393,1.991-1.564,3.733-3.442,4.612-2.153,1.008-4.521.598-6.409-.748-.88-.627-2.226-.155-2.736.718-.587,1.004-.165,2.108.718,2.736,2.974,2.12,6.901,2.392,10.194.868,2.83-1.31,4.931-4.077,5.533-7.123.203-1.028-.283-2.199-1.397-2.46-.613-.144-1.468-.263-1.903-.692-.327-.323-.361-.933-.38-1.441-.071-1.955-.067-3.741-1.219-5.433-1.916-2.816-5.357-3.952-8.677-3.751-1.078.065-2,.872-2,2,0,1.032.916,2.066,2,2h0Z"></path><path class="t" d="M266.077,114.061c2.381-7.416-.157-15.806-6.365-20.541-5.871-4.478-14.075-5.639-20.917-2.813-7.216,2.981-11.74,9.722-12.57,17.385s2.381,15.558,8.703,20.086c7.298,5.228,17.92,4.361,24.431-1.721,1.885-1.761-.948-4.585-2.828-2.828-4.543,4.244-11.829,5.247-17.381,2.435-5.788-2.931-9.019-9.158-9.05-15.522-.03-6.111,2.852-12.074,8.234-15.182,5.118-2.956,11.64-2.874,16.799-.058,6.347,3.465,9.301,10.799,7.087,17.695-.789,2.457,3.072,3.509,3.857,1.063h0Z"></path><path class="t" d="M262.288,115.885c.465.033-.303-.101.11.011.156.043.315.074.469.124.179.058.419.2.123.04.143.078.288.149.427.234.14.086.388.284.125.065.125.104.247.212.362.328s.224.236.327.363c-.283-.348.008.038.061.127.084.14.159.284.229.431-.196-.412-.004.029.026.135.045.159.08.32.107.483-.077-.463-.014.038-.012.148.003.172-.01.342-.017.514-.018.458.087-.256-.028.152-.047.168-.079.34-.129.507-.019.063-.227.621-.141.422.091-.211-.137.267-.166.321-.084.157-.174.31-.27.46-.033.052-.335.475-.204.306s-.202.228-.244.273c-.12.13-.245.254-.375.374-.046.043-.426.355-.278.244.145-.11-.276.187-.333.224-.159.104-.321.202-.486.296-1.171.665-2.562,1.025-3.808,1.055-1.045.026-2.049.902-2,2,.048,1.062.88,2.027,2,2,4.305-.106,8.621-2.446,10.081-6.659.663-1.914.523-4.205-.63-5.908-1.235-1.824-3.134-2.912-5.327-3.067-1.046-.074-2.046.973-2,2,.051,1.147.88,1.921,2,2h0Z"></path><path class="t" d="M239.192,116.028c-.007.128-.087,1.405-1.133,2.092-.686.45-1.374.339-1.591.301-.167-.03-1.251-.242-1.749-1.318-.472-1.019-.258-2.467.701-3.262.995-.824,2.308-.595,3.05.168.668.687.745,1.369.722,2.019Z"></path><path class="t" d="M249.869,118.208c-.007.128-.087,1.405-1.133,2.092-.686.45-1.374.339-1.591.301-.167-.03-1.251-.242-1.749-1.318-.472-1.019-.258-2.467.701-3.262.995-.824,2.308-.595,3.05.168.668.687.745,1.369.722,2.019Z"></path><path class="r" d="M228.75,108.805c.983.382,8.22.098,12.79-.758,2.476-.464,5.302-1.428,7.722-2.573.807-.382,1.766-.243,2.431.353,2.013,1.805,3.654,4.029,4.793,6.486.52,1.122,1.841,1.629,2.958,1.096.617-.294,1.279-.494,1.957-.586"></path><path class="t" d="M228.407,108.805c3.715,1.772,7.626,2.281,11.704,1.895,1.875-.177,3.783-.392,5.618-.829.959-.229,1.907-.505,2.844-.81.567-.184,1.381-.684,1.988-.522,1.107.295,1.403,2.611,1.749,3.513.633,1.652,1.564,2.985,3.233,3.715,2.513,1.099,4.672-.024,6.947-1.059.983-.447,1.223-1.872.718-2.736-.591-1.01-1.749-1.167-2.736-.718-1.323.602-2.981,1.851-4.059.247-.909-1.353-.968-3.198-1.842-4.594-.849-1.355-2.288-2.27-3.894-2.365-1.652-.097-3.24.721-4.804,1.157-1.552.433-3.1.696-4.697.886-3.683.438-7.341.392-10.75-1.234-2.312-1.103-4.344,2.345-2.019,3.454h0Z"></path><path class="t" d="M294.222,198.053c.027-.1.055-.199.085-.297.013-.04.149-.436.071-.235-.035.089.145-.298.195-.389.112-.204.237-.399.368-.591-.002.003.197-.257.089-.122-.085.106.153-.17.178-.197.325-.363.679-.699,1.047-1.018.086-.074.172-.148.26-.22.256-.208-.208.141.062-.043.186-.126.372-.251.567-.363.083-.048.167-.093.251-.137.043-.022.398-.196.191-.102-.125.057.293-.107.382-.135.213-.068.432-.111.646-.172.014-.004.329-.066.116-.03-.199.033.183-.018.221-.021,1.064-.08,1.533.01,2.544.331.461.146.853.301,1.279.526.143.076.498.346.202.083.152.135.296.276.432.427.032.036.265.336.139.163-.116-.159.065.107.069.113.1.17.201.341.301.511.026.045.165.349.044.056.036.088.066.179.096.27.048.151.109.646.091.262.009.204.005.409-.007.613-.005.081-.064.57-.021.307.045-.278-.06.25-.08.327-.023.086-.187.561-.076.283.117-.292-.091.151-.13.223-.14.259-.189.15.022-.006-.096.071-.229.204-.302.301-.112.149.137-.112.163-.123-.074.03-.139.098-.21.136-.205.111-.508.195-.111.084-.18.051-.354.125-.536.175-.171.046-.344.079-.517.116-.078.017-.157.025-.234.04.449-.087.058-.009-.048,0-1.208.089-2.405.005-3.598.265-1.056.229-1.672,1.46-1.397,2.46.3,1.091,1.401,1.627,2.46,1.397.456-.099,1.004-.056,1.535-.067.655-.014,1.302-.077,1.951-.173.892-.132,1.798-.393,2.568-.875,1.82-1.138,2.625-3.22,2.575-5.314-.134-5.607-7.286-8.19-11.872-6.312-2.727,1.117-5.126,3.538-5.917,6.41-.684,2.485,3.174,3.546,3.857,1.063h0Z"></path><path class="t" d="M305.245,170.222c-6.316,4.796-10.851,11.668-12.508,19.456-.225,1.056.312,2.162,1.397,2.46.996.274,2.234-.336,2.46-1.397,1.427-6.704,5.186-12.901,10.67-17.065.859-.652,1.309-1.724.718-2.736-.495-.846-1.871-1.375-2.736-.718h0Z"></path><path class="t" d="M305.644,184.795v13.301c0,1.046.92,2.048,2,2s2-.879,2-2v-13.301c0-1.046-.92-2.048-2-2s-2,.879-2,2h0Z"></path><path class="t" d="M344.833,159.003c2.412-7.509-.161-16.004-6.448-20.796-5.915-4.509-14.2-5.703-21.102-2.868-7.349,3.019-11.952,9.851-12.79,17.651s2.423,15.721,8.81,20.304c7.38,5.297,18.144,4.413,24.729-1.74,1.885-1.761-.948-4.586-2.828-2.828-4.564,4.265-11.884,5.318-17.495,2.551-5.967-2.943-9.303-9.312-9.339-15.833-.034-6.175,2.871-12.214,8.296-15.375,5.272-3.072,12.003-2.957,17.297.004,6.337,3.545,9.235,10.954,7.015,17.867-.789,2.457,3.072,3.508,3.857,1.063h0Z"></path><path class="t" d="M341.019,160.832c.466.033-.295-.1.119.012.158.043.319.075.476.125.172.055.429.204.132.043.145.078.292.151.433.237.133.082.397.289.132.07.127.105.25.215.367.332s.227.239.331.367c-.278-.344.014.048.066.134.085.142.161.288.232.437-.192-.407,0,.04.029.143.046.161.082.325.109.49-.075-.457-.013.05-.011.157.003.174-.01.347-.017.521-.019.458.086-.247-.029.161-.048.17-.08.344-.131.514-.019.065-.226.622-.144.431.087-.203-.14.274-.169.328-.085.159-.177.314-.274.466-.034.053-.335.475-.209.312s-.207.233-.25.279c-.122.131-.249.258-.38.379-.048.044-.425.355-.285.249.137-.104-.281.19-.34.229-.161.105-.326.205-.493.3-1.192.676-2.603,1.042-3.873,1.073-1.045.026-2.049.902-2,2,.048,1.062.88,2.027,2,2,4.35-.107,8.716-2.471,10.191-6.73.67-1.933.529-4.247-.635-5.967-1.246-1.84-3.163-2.939-5.375-3.095-1.046-.074-2.046.973-2,2,.051,1.147.88,1.921,2,2h0Z"></path><path class="t" d="M316.61,161.003c-.008.13-.089,1.424-1.148,2.12-.695.456-1.393.344-1.612.305-.169-.03-1.268-.246-1.773-1.336-.479-1.033-.262-2.5.71-3.306,1.008-.836,2.339-.603,3.091.17.677.696.755,1.388.732,2.047Z"></path><path class="t" d="M327.431,163.214c-.008.13-.089,1.424-1.148,2.12-.695.456-1.393.344-1.612.305-.169-.03-1.268-.246-1.773-1.336-.479-1.033-.262-2.5.71-3.306,1.008-.836,2.339-.603,3.091.17.677.696.755,1.388.732,2.047Z"></path><path class="t" d="M306.296,153.74c3.715,1.772,7.626,2.281,11.704,1.895,1.875-.177,3.783-.392,5.618-.829.959-.229,1.907-.505,2.844-.81.567-.184,1.381-.684,1.988-.522,1.107.295,1.403,2.611,1.749,3.513.633,1.652,1.564,2.985,3.233,3.715,2.513,1.099,4.672-.024,6.947-1.059.983-.447,1.223-1.872.718-2.736-.591-1.01-1.749-1.167-2.736-.718-1.323.602-2.981,1.851-4.059.247-.909-1.353-.968-3.198-1.842-4.594-.849-1.355-2.288-2.27-3.894-2.365-1.652-.097-3.24.721-4.804,1.157-1.552.433-3.1.696-4.697.886-3.683.438-7.341.392-10.75-1.234-2.312-1.103-4.344,2.345-2.019,3.454h0Z"></path><path class="t" d="M309.704,226.251v-14.96l-3.009,1.727c3.701,2.141,7.402,4.281,11.11,6.41,2.236,1.284,4.253-2.171,2.019-3.454-3.708-2.129-7.409-4.269-11.11-6.41-1.312-.759-3.009.206-3.009,1.727v14.96c0,2.574,4,2.578,4,0h0Z"></path><path class="t" d="M333.899,218.524c-2.188,1.474-4.429,2.478-6.991,3.06-1.128.256-1.753.356-3.001.356-.251,0-.502-.007-.752-.024-.118-.008-.789-.108-.352-.028-.456-.084-.89-.198-1.329-.348-.269-.092.306.163.068.024-.083-.048-.171-.087-.255-.134-.081-.046-.157-.104-.239-.147-.235-.125.267.248.077.067-.112-.108-.224-.212-.333-.324.431.443.029.105.062.056-.042.063-.23-.658-.06-.094-.067-.223-.125-.444-.178-.671-.018-.077-.037-.377-.007-.023-.011-.129-.021-.258-.026-.388-.009-.235-.006-.471.007-.705.007-.138.018-.275.033-.412.015-.142.015-.138,0,.012l.038-.208c.064-.276.122-.552.207-.823.021-.067.294-.739.179-.504.122-.25.264-.479.404-.718.028-.048.233-.325.03-.06.097-.127.203-.246.308-.367.783-.903,1.715-1.812,2.644-2.425.567-.375,1.149-.656,1.805-.835.671-.182,1.032-.182,1.778-.202.563-.015-.437-.088.097-.005.198.031.396.062.594.093l.968.151c1.066.166,2.151-.272,2.46-1.397.261-.949-.323-2.293-1.397-2.46-.802-.125-1.61-.29-2.418-.36-1.743-.151-3.54.306-5.091,1.086-1.413.711-2.679,1.832-3.764,2.971-1.059,1.112-1.892,2.302-2.389,3.766-.843,2.485-.834,6.012,1.38,7.801,2.012,1.626,4.79,1.816,7.266,1.513,3.637-.444,7.159-1.794,10.196-3.841.895-.603,1.288-1.762.718-2.736-.519-.888-1.837-1.324-2.736-.718h0Z"></path><path class="t" d="M336.261,196.219c-.12-.85.027.488.043.72.044.623.078,1.247.107,1.871.066,1.413.114,2.83.087,4.245-.006.292-.013.584-.03.876-.014.234.114.754-.007.314.185.673-.57-.157.123-.092-.213-.02-.954.755-1.132.899-1.713,1.39-3.383,2.831-5.103,4.212-.519.417-.717,1.333-.514,1.946,1.098,3.327,2.336,6.608,3.263,9.99.347,1.264,1.815,1.823,2.938,1.195,7.374-4.122,17.578-8.327,17.364-18.317-.089-4.182-.942-8.572-1.969-12.618-1.016-4.003-2.494-8.042-5.008-11.361-2.921-3.857-6.408-7.689-10.735-9.98-2.274-1.204-4.297,2.248-2.019,3.454,3.403,1.802,6.168,4.693,8.584,7.645,2.328,2.846,3.825,6.08,4.855,9.595,1.024,3.497,1.659,7.113,2.09,10.727.241,2.02.442,4.191-.315,6.13-.638,1.634-1.871,2.98-3.159,4.132-3.419,3.058-7.74,4.922-11.706,7.139l2.938,1.195c-.927-3.381-2.165-6.663-3.263-9.99l-.514,1.946c1.908-1.533,3.752-3.145,5.669-4.667,1.377-1.093,1.581-2.251,1.64-3.914.097-2.758.018-5.62-.369-8.356-.151-1.071-1.515-1.657-2.46-1.397-1.151.316-1.548,1.386-1.397,2.46h0Z"></path><g id="j"><path class="t" d="M328.596,207.69c-6.647-3.839-13.295-7.678-19.942-11.517-2.233-1.29-4.25,2.166-2.019,3.454,6.647,3.839,13.295,7.678,19.942,11.517,2.233,1.29,4.25-2.165,2.019-3.454h0Z"></path></g><g id="k"><path class="t" d="M250.584,162.639c-6.907-3.989-13.814-7.977-20.72-11.966-2.233-1.29-4.25,2.166-2.019,3.454,6.907,3.989,13.814,7.977,20.72,11.966,2.233,1.29,4.25-2.166,2.019-3.454h0Z"></path></g><g id="l"><path class="t" d="M83.745,246.911c0-13.389,0-26.779.003-40.168,0-6.399.002-12.797.003-19.196,0-2.574-4-2.578-4,0-.003,18.43-.005,36.859-.005,55.289,0,1.358,0,2.716,0,4.075,0,2.574,4,2.578,4,0h0Z"></path></g><path class="t" d="M42.534,80.141v-4.17l-.991,1.727c16.355-9.445,32.711-18.89,49.067-28.334,17.87-10.319,35.74-20.638,53.611-30.956,8.481-4.897,16.962-9.793,25.442-14.69l-3.009-1.727c0,26.464-.024,52.928-.033,79.392-.002,6.219-.004,12.439-.007,18.658l.991-1.727c-14.325,8.276-28.651,16.55-42.978,24.824-16.366,9.452-32.732,18.903-49.098,28.354-8.445,4.877-16.89,9.754-25.334,14.631-2.228,1.287-.217,4.745,2.019,3.454,13.067-7.547,26.135-15.094,39.203-22.641,13.906-8.031,27.813-16.062,41.719-24.093,11.951-6.902,23.902-13.805,35.852-20.709,1.022-.59,1.586-1.168,1.627-2.402.026-.784,0-1.573,0-2.357,0-1.6.001-3.2.002-4.8.001-3.605.003-7.21.004-10.816.003-7.981.006-15.962.009-23.943.006-16.444.013-32.887.024-49.331.001-2.165.001-4.331.001-6.496,0-1.522-1.697-2.484-3.009-1.727-16.758,9.675-33.515,19.351-50.273,29.027-18.355,10.599-36.71,21.198-55.065,31.797-4.549,2.627-9.098,5.254-13.648,7.881-2.093,1.209-4.187,2.418-6.28,3.627-1.021.59-2.422,1.124-3.259,1.961-.744.744-.586,1.832-.586,2.791v2.793c0,2.574,4,2.578,4,0h0Z"></path><path class="t" d="M75.208,102.633c-1.219,1.531-2.4,3.092-3.53,4.689-.285.402-.328,1.083-.202,1.541.128.464.486.967.919,1.195.464.245,1.026.368,1.541.202l.478-.202c.301-.178.54-.417.718-.718.762-1.077,1.546-2.138,2.353-3.182l-.313.405c.286-.37.574-.737.865-1.103.195-.181.333-.396.414-.644.125-.238.183-.495.172-.771,0-.491-.218-1.076-.586-1.414-.381-.35-.882-.61-1.414-.586-.495.022-1.091.18-1.414.586h0Z"></path><path class="t" d="M64.752,114.633c.12-.873.324-1.732.642-2.555-.08.208.147-.319.186-.395.096-.191.199-.377.31-.56.302-.5.366-.582.729-.951.544-.554,1.131-.918,1.98-1.104.099-.022.099-.032.368-.046.229-.012.458-.011.687,0,.365.02.797.108,1.304.263,3.551,1.083,5.801,4.809,4.524,8.322-.28.772-.87,1.603-1.578,2.254-.699.643-1.545,1.045-2.543,1.282-1.051.25-1.676,1.445-1.397,2.46.295,1.074,1.406,1.647,2.46,1.397,5.676-1.349,8.892-7.688,6.738-13.088-1.069-2.678-3.119-4.802-5.769-5.957s-5.807-1.406-8.288.307c-2.42,1.67-3.815,4.436-4.211,7.308-.147,1.069.259,2.148,1.397,2.46.934.257,2.312-.32,2.46-1.397h0Z"></path><path class="t" d="M42.872,219.199c1.53,1.384,3.086,2.743,4.536,4.212.372.377.739.761,1.086,1.161.113.13.223.263.333.397-.311-.379.066.103.12.187.563.892.874,2.064.683,3.079-.484,2.582-3.735,2.836-5.891,2.645-3.038-.27-6.062-1.232-8.88-2.358-1.003-.401-2.197.438-2.46,1.397-.313,1.139.39,2.058,1.397,2.46,2.598,1.038,5.265,1.81,8.03,2.25,2.887.459,6.054.564,8.597-1.129,2.523-1.68,3.612-4.417,3.101-7.386-.383-2.224-1.68-3.893-3.214-5.456-1.471-1.499-3.054-2.88-4.61-4.288-.801-.724-2.038-.791-2.828,0-.736.736-.804,2.101,0,2.828h0Z"></path><path class="t" d="M29.11,226.553c2.003,1.359,4.072,4.474,2.397,6.867-1.83,2.615-5.996,2.179-8.684,1.615-1.917-.402-3.776-1.04-5.613-1.713-1.423-.521-3.083-1.055-4.084-2.266-.989-1.195-1.42-2.805-1.196-4.333.136-.928.523-2.321,1.425-2.781,2.294-1.17.272-4.623-2.019-3.454-3.018,1.54-3.868,6.033-3.252,9.052.811,3.979,3.91,6.085,7.469,7.419,3.884,1.456,8.052,2.788,12.259,2.393,3.479-.327,7.077-2.266,8.001-5.884,1.067-4.177-1.324-8.091-4.683-10.37-2.136-1.449-4.139,2.015-2.019,3.454h0Z"></path><path class="t" d="M28.439,173.079c0,12.169-.009,24.338-.084,36.507-.022,3.594-.051,7.188-.094,10.782-.031,2.575,3.969,2.576,4,0,.158-13.119.168-26.241.176-39.361.002-2.643.002-5.285.002-7.928,0-2.574-4-2.578-4,0h0Z"></path><path class="t" d="M45.684,170.857c-.266,12.788-.872,25.575-1.48,38.351-.131,2.759-.266,5.518-.418,8.277l.991-1.727c-3.394,2.423-8.597,1.734-12.461,1.171-1.068-.156-2.149.264-2.46,1.397-.258.941.321,2.304,1.397,2.46,4.757.693,10.712,1.43,15.036-1.23,1.175-.723,1.467-1.5,1.538-2.819.038-.712.076-1.424.112-2.137.087-1.7.17-3.401.251-5.102.417-8.74.792-17.483,1.112-26.228.152-4.137.295-8.274.381-12.413.054-2.575-3.946-2.575-4,0h0Z"></path><path class="t" d="M27.287,219.681c-2.704,1.405-5.666,1.707-8.672,1.608-2.435-.081-5.383-.02-7.522-1.359l.991,1.727c-.172-13.986-.073-27.991.312-41.973.093-3.358.205-6.717.399-10.071.149-2.572-3.852-2.563-4,0-.527,9.121-.612,18.275-.701,27.409-.047,4.908-.07,9.817-.067,14.725.002,2.112.008,4.224.023,6.336.006.885.013,1.769.023,2.654.017,1.563.371,2.433,1.854,3.103,2.86,1.292,6.24,1.421,9.332,1.467,3.511.052,6.913-.542,10.047-2.171,2.285-1.188.265-4.641-2.019-3.454h0Z"></path><path class="t" d="M14.772,107.104c-.456-.013-.913-.025-1.368-.053-.177-.011-.353-.023-.529-.039-.077-.007-.618-.106-.145-.011-.395-.079-.783-.149-1.169-.268-.176-.054-.348-.116-.521-.178-.545-.197.248.148-.226-.095-.338-.173-.667-.349-.981-.564-.073-.049-.144-.099-.214-.152.173.135.171.13-.006-.015-.128-.12-.262-.233-.386-.358s-.238-.258-.358-.386c-.145-.177-.15-.18-.014-.008-.052-.071-.102-.143-.15-.216-.114-.171-.22-.346-.317-.528-.044-.082-.246-.554-.095-.164-.127-.329-.211-.663-.291-1.006-.039-.233-.04-.228-.001.015-.009-.087-.015-.173-.018-.26-.01-.203-.01-.406.002-.609.006-.111.122-.571.01-.158.045-.166.069-.339.116-.505.017-.062.223-.623.129-.408-.096.217.174-.317.206-.37.052-.086.355-.472.079-.149.108-.127.22-.247.337-.365.104-.104.21-.206.32-.304.068-.061.138-.12.209-.177-.232.176-.261.203-.087.081.113-.061.226-.13.337-.196.368-.22-.409.119.027-.015.376-.116.748-.216,1.135-.292,1.028-.204,1.713-1.484,1.397-2.46-.354-1.093-1.359-1.616-2.46-1.397-1.987.395-3.689,1.502-4.747,3.256-1.091,1.81-1.329,4.228-.617,6.216.729,2.037,2.2,3.768,4.114,4.791,1.978,1.057,4.083,1.282,6.288,1.347,1.047.031,2.047-.942,2-2-.05-1.11-.879-1.967-2-2h0Z"></path><path class="t" d="M17.407,111.842c-9.638,3.464-14.823,12.819-16.779,22.37-2,9.765.837,20.105,7.672,27.38,3.614,3.848,8.199,6.692,13.213,8.316,2.455.795,3.506-3.066,1.063-3.857-7.678-2.486-14.155-8.499-16.921-16.123-1.492-4.113-2.03-8.559-1.469-12.905.545-4.222,1.954-8.795,4.137-12.461,2.298-3.86,5.856-7.319,10.148-8.862,2.404-.864,1.367-4.731-1.063-3.857h0Z"></path><path class="t" d="M41.546,114.97c4.691,2.818,9.472,5.719,12.979,10.007.684.837,2.125.705,2.828,0,2.174-2.18,4.257-4.447,6.29-6.758l-2.424.313c3.489,2.262,6.978,4.524,10.467,6.785l-.718-2.736c-2.904,4.976-5.918,10.147-9.659,14.554-1.136,1.338-2.731,3.219-4.613,3.404-.204.02-.404-.003-.6-.028.08.01.285.134.056.052-.319-.115-.631-.337-.929-.496l-1.72-.918c-2.27-1.212-4.293,2.24-2.019,3.454,1.516.809,3.018,1.878,4.789,1.934,2.767.089,5.176-1.697,6.998-3.607,1.798-1.885,3.284-4.085,4.764-6.221,2.271-3.278,4.378-6.666,6.387-10.11.563-.965.191-2.148-.718-2.736-3.489-2.262-6.978-4.524-10.467-6.785-.701-.454-1.862-.326-2.424.313-2.034,2.311-4.116,4.578-6.29,6.758h2.828c-3.704-4.53-8.833-7.655-13.789-10.632-2.212-1.329-4.225,2.128-2.019,3.454h0Z"></path><path class="t" d="M49.578,143.083c-.544,9.017.178,18.097-.484,27.107l2-2c-6.639.534-13.283,1.028-19.949.999-7.457-.033-14.727-.946-21.98-2.661l1.468,1.929c.016-2.226.223-4.457.484-6.667.127-1.074-1.01-2-2-2-1.186,0-1.873.922-2,2-.261,2.21-.468,4.441-.484,6.667-.006.85.623,1.729,1.468,1.929,7.431,1.757,14.938,2.743,22.579,2.801,6.821.052,13.619-.45,20.413-.996,1.14-.092,1.915-.845,2-2,.662-9.01-.06-18.09.484-27.107.155-2.571-3.845-2.562-4,0h0Z"></path><path class="t" d="M42.268,87.211c3.972,7.24,3.721,16.693-2.797,22.41-6.475,5.679-16.36,4.899-22.19-1.262-1.773-1.874-4.598.958-2.828,2.828,5.504,5.816,14.22,7.936,21.713,4.984,7.542-2.971,12.643-10.209,12.774-18.349.072-4.488-1.067-8.711-3.217-12.63-1.239-2.257-4.694-.241-3.454,2.019h0Z"></path><path class="t" d="M36.575,94.804c.021.143.233,1.571,1.474,2.241.813.44,1.577.249,1.816.185.185-.049,1.382-.392,1.839-1.649.433-1.191.054-2.796-1.1-3.597-1.197-.831-2.65-.447-3.411.481-.685.836-.706,1.61-.618,2.338Z"></path><path class="t" d="M25.074,99.107c.021.143.233,1.571,1.474,2.241.813.44,1.577.249,1.816.185.185-.049,1.382-.392,1.839-1.649.433-1.191.054-2.796-1.1-3.597-1.197-.831-2.65-.447-3.411.481-.685.836-.706,1.61-.618,2.338Z"></path><path class="t" d="M45.923,85.67c-1.365-3.922-3.793-7.401-7.159-9.861-3.249-2.375-7.456-3.41-11.434-3.445-4.368-.039-8.478.75-12.32,2.897-3.417,1.91-6.187,4.571-7.987,8.07-2.274,4.42-2.95,9.476-1.707,14.304.642,2.491,4.501,1.435,3.857-1.063-1.648-6.399,1.02-13.525,6.598-17.104s13.617-4.461,19.56-1.12c3.178,1.787,5.548,4.973,6.735,8.384.841,2.416,4.706,1.377,3.857-1.063h0Z"></path><path class="t" d="M45.708,85.818c-2.223,1.474-5.248-.365-7.359-1.299-2.657-1.175-4.885-.493-7.205,1.068-2.205,1.483-4.361,2.783-6.777,3.914-2.771,1.298-5.629,2.384-8.57,3.229-2.47.71-1.419,4.571,1.063,3.857,5.632-1.619,11.167-4.003,15.992-7.334.772-.533,1.879-1.46,2.879-1.444.503.008,1.073.389,1.514.593.652.302,1.318.573,1.985.84,2.729,1.092,5.873,1.769,8.497.029,2.135-1.417.135-4.882-2.019-3.454h0Z"></path><path class="t" d="M38.949,113.487c-.377,3.97-1.041,7.905-2.02,11.772-.471,1.859-1.012,3.7-1.634,5.514-.301.878-.621,1.75-.96,2.614-.143.363-.283.73-.44,1.087-.073.172-.152.342-.236.51-.254.381-.207.386.142.014h1.063c-.305-.041-.352-.187-.662-.568-.313-.385-.594-.804-.884-1.206-.597-.829-1.179-1.669-1.743-2.521-1.134-1.712-2.198-3.472-3.184-5.274-2.134-3.9-3.873-7.982-5.357-12.17-.854-2.41-4.72-1.372-3.857,1.063,2.408,6.797,5.474,13.33,9.547,19.295.956,1.401,1.914,3.007,3.143,4.183,1.485,1.421,3.659,1.504,4.91-.264,1-1.413,1.533-3.323,2.111-4.943.641-1.796,1.201-3.62,1.69-5.463,1.186-4.468,1.936-9.044,2.372-13.644.102-1.077-.992-2-2-2-1.167,0-1.898.92-2,2h0Z"></path><path class="t" d="M26.332,168.82c2.532.816,5.108,1.489,7.66,2.24.849.25,1.815-.166,2.259-.919,4.317-7.337,8.454-14.778,12.42-22.31.585-1.112.105-2.612-1.195-2.938-6.592-1.651-13.155-3.413-19.73-5.13-.87-.227-1.795.153-2.259.919-1.338,2.209-2.598,4.462-3.85,6.72s2.204,4.273,3.454,2.019,2.512-4.511,3.85-6.72l-2.259.919c6.575,1.717,13.138,3.479,19.73,5.13l-1.195-2.938c-3.966,7.532-8.103,14.973-12.42,22.31l2.259-.919c-2.552-.751-5.128-1.424-7.66-2.24-2.456-.791-3.508,3.07-1.063,3.857h0Z"></path><path class="t" d="M32.433,157.918c1.077,2.557-.227,4.927-2.342,6.294-.48.31-1.1.631-1.429.752-.298.11-.603.203-.912.277-.132.032-.265.059-.399.085-.226.044.219-.003-.149.02-1.301.081-2.69-.284-4.05-.724-2.356-.762-4.011-2.137-5.172-4.262-1.252-2.29-2.312-5.416-.759-7.945.783-1.274,2.661-2.875,4.189-2.634,1.163.184,2.364,1.276,2.47,2.342.085.849.558,1.726,1.468,1.929,1.474.327,2.964.715,4.319,1.397,1.399.704,2.28,1.525,2.968,2.946.47.972,1.856,1.232,2.736.718.993-.581,1.189-1.76.718-2.736-1.827-3.78-5.805-5.322-9.677-6.182l1.468,1.929c-.235-2.362-1.454-4.385-3.605-5.491-2.282-1.174-4.691-1.058-6.884.272-2.158,1.308-3.925,3.293-4.599,5.758-.618,2.259-.35,4.576.432,6.747,1.235,3.431,3.263,6.517,6.625,8.163,1.811.887,3.745,1.393,5.735,1.676,1.907.271,3.708-.149,5.434-.972,4.11-1.96,7.179-6.897,5.273-11.422-.419-.995-1.322-1.71-2.46-1.397-.938.258-1.819,1.458-1.397,2.46Z"></path><path class="r" d="M30.217,117.138c-.204.579-.567,1.691-.968,2.885"></path><path class="r" d="M33.353,115.635c.731,1.215,1.417,2.457,2.058,3.722"></path><g id="m"><path class="t" d="M216.948,143.214c-10.159-5.867-20.318-11.734-30.473-17.609-2.232-1.292-4.249,2.164-2.019,3.454,10.154,5.875,20.314,11.742,30.473,17.609,2.233,1.29,4.25-2.165,2.019-3.454h0Z"></path></g><g id="n"><path class="t" d="M378.419,236.467c-12.058-6.965-24.117-13.93-36.175-20.894-2.233-1.29-4.25,2.165-2.019,3.454,12.059,6.964,24.117,13.929,36.175,20.894,2.233,1.29,4.25-2.165,2.019-3.454h0Z"></path></g><path class="t" d="M106.224,170.814c-8.497,4.905-16.993,9.815-25.49,14.72-1.297.749-1.298,2.705,0,3.454,7.473,4.313,14.947,8.626,22.42,12.94,2.233,1.289,4.25-2.166,2.019-3.454-7.473-4.314-14.947-8.627-22.42-12.94v3.454c8.497-4.905,16.993-9.815,25.49-14.72,2.229-1.287.217-4.744-2.019-3.454h0Z"></path><path class="t" d="M375.414,238.191c-.007,17.423-.009,34.845-.01,52.268,0,2.317,0,4.635,0,6.952l.991-1.727c-5.419,3.129-10.837,6.26-16.255,9.391-8.349,4.824-16.698,9.649-25.048,14.473-9.093,5.255-18.187,10.509-27.28,15.764-7.525,4.348-15.049,8.696-22.574,13.044-3.771,2.179-7.54,4.36-11.313,6.534-.32.184-.64.369-.96.554l3.009,1.727c0-13.423.002-26.846.005-40.268.001-6.214.005-12.428.005-18.642,0-.702-.381-1.375-.991-1.727-11.963-6.902-23.92-13.813-35.88-20.72-2.233-1.29-4.25,2.166-2.019,3.454,11.96,6.907,23.917,13.818,35.88,20.72l-.991-1.727c0,18.282-.009,36.564-.01,54.846,0,1.355,0,2.709,0,4.064,0,1.52,1.698,2.488,3.009,1.727,5.144-2.984,10.299-5.948,15.448-8.923,10.519-6.077,21.037-12.156,31.556-18.234,11.413-6.595,22.825-13.19,34.238-19.784,4.522-2.613,9.044-5.226,13.567-7.839,1.691-.977,3.381-1.954,5.072-2.93,1.246-.72,4.066-1.778,4.469-3.246.266-.967.071-2.266.071-3.268,0-1.32,0-2.639,0-3.959,0-3.912,0-7.825,0-11.737.001-10.704.003-21.409.006-32.113,0-2.892.002-5.783.003-8.675,0-2.574-3.999-2.578-4,0h0Z"></path><path class="t" d="M182.593,243.184c-6.548-3.782-13.095-7.563-19.64-11.35-2.232-1.292-4.249,2.164-2.019,3.454,6.545,3.787,13.092,7.568,19.64,11.35,2.233,1.29,4.25-2.165,2.019-3.454h0Z"></path><path class="t" d="M126.393,163.778c1.876-1.251,3.944-2.283,5.897-3.411,2.082-1.202,4.163-2.404,6.245-3.607,4.176-2.412,8.352-4.825,12.529-7.238,7.821-4.519,15.641-9.038,23.462-13.558,3.983-2.302,7.966-4.604,11.949-6.907,2.228-1.288.216-4.746-2.019-3.454-15.406,8.907-30.814,17.811-46.224,26.712-2.293,1.325-4.587,2.65-6.88,3.974-2.31,1.334-4.757,2.554-6.976,4.034-2.132,1.421-.131,4.887,2.019,3.454h0Z"></path><g id="o"><path class="t" d="M273.977,300.465c.692.027,1.39-.489,1.975-.827.733-.423,1.465-.847,2.198-1.27,2.526-1.46,5.052-2.919,7.577-4.379,7.953-4.596,15.906-9.192,23.858-13.788,9.629-5.565,19.258-11.13,28.887-16.694,8.377-4.841,16.754-9.683,25.131-14.524,4.442-2.567,8.938-5.062,13.335-7.706.13-.078.263-.152.394-.228.85-.491,1.042-1.366.919-2.259l-.007-.054c-.147-1.071-1.517-1.656-2.46-1.397-1.154.317-1.545,1.386-1.397,2.46l.007.054.919-2.259c-3.714,2.145-7.427,4.292-11.14,6.438-8.018,4.634-16.037,9.268-24.055,13.902-9.561,5.525-19.121,11.051-28.682,16.576-8.34,4.82-16.679,9.639-25.019,14.459-4.343,2.51-8.825,4.871-13.067,7.551-.122.077-.252.145-.377.218l1.009-.273h-.007c-2.574-.102-2.57,3.898,0,4h0Z"></path></g><path class="t" d="M220.923,252.268c5.094-3.017,10.252-5.931,15.38-8.89,2.229-1.286.217-4.744-2.019-3.454-5.128,2.959-10.286,5.873-15.38,8.89-2.213,1.311-.203,4.77,2.019,3.454h0Z"></path><path class="t" d="M209.803,241.258c5.942-3.418,11.873-6.853,17.81-10.28h-2.019c1.783,1.016,3.553,2.055,5.33,3.08,2.234,1.288,4.251-2.167,2.019-3.454-1.384-.798-2.766-1.597-4.149-2.397-1.029-.595-1.968-1.296-3.2-.683-1.388.691-2.713,1.568-4.055,2.343-4.583,2.649-9.166,5.298-13.755,7.937-2.231,1.283-.219,4.741,2.019,3.454h0Z"></path><path class="t" d="M254.884,245.378c5.092,2.943,10.177,5.897,15.28,8.82v-3.454c-4.985,2.977-10.088,5.755-15.08,8.72h2.019c-7.155-4.165-14.487-8.384-21.78-12.58v3.454c2.164-1.273,4.348-2.511,6.52-3.77,2.226-1.291.214-4.749-2.019-3.454-2.172,1.259-4.356,2.497-6.52,3.77-1.287.757-1.307,2.702,0,3.454,7.324,4.214,14.639,8.423,21.78,12.58.615.358,1.404.365,2.019,0,4.992-2.965,10.095-5.743,15.08-8.72,1.277-.763,1.316-2.7,0-3.454-5.103-2.923-10.188-5.877-15.28-8.82-2.233-1.291-4.249,2.165-2.019,3.454h0Z"></path><path class="t" d="M242.804,272.861c1.055,0,2.268-.594,3.235-.96,1.4-.53,2.792-1.115,4.118-1.813,1.302-.687,2.59-1.512,3.526-2.666,1.179-1.454,1.638-3.237,1.563-5.089-.073-1.816-.556-3.457-1.794-4.819-1.091-1.2-2.616-2.138-4.229-2.393-.895-.142-1.771-.102-2.672-.105-.88-.003-1.449-.206-2.201-.644-1.552-.905-3.163-1.507-4.972-.985-1.691.487-2.739,1.819-3.68,3.215-.979,1.453-1.863,2.974-2.701,4.512-1.232,2.261,2.22,4.282,3.454,2.019.6-1.101,1.227-2.186,1.889-3.251.286-.46.578-.917.882-1.365.13-.191.261-.381.397-.566.007-.009.216-.274.081-.109-.12.147.197-.216.233-.251.637-.616,1.266-.422,2.023.014,1.366.788,2.654,1.353,4.262,1.407,1.13.038,2.238-.176,3.267.39.901.495,1.526,1.234,1.699,2.247.174,1.02.156,2.231-.467,3.104-.547.766-1.428,1.252-2.236,1.697-1.052.579-2.149,1.073-3.269,1.505-.548.211-1.101.412-1.659.596-.218.072-.436.142-.655.209-.265.08-.825.103-.094.103-2.574,0-2.578,4,0,4h0Z"></path><path class="t" d="M163.363,310.911c0,8.289-.008,16.578-.008,24.867,0,2.574,4,2.578,4,0,0-8.289.008-16.578.008-24.867,0-2.574-4-2.578-4,0h0Z"></path><path class="t" d="M193.118,329.044v23.909c0,2.574,4,2.578,4,0v-23.909c0-2.574-4-2.578-4,0h0Z"></path><path class="t" d="M224.365,325.673c4.439-.716,9.224-1.76,11.564-6.118.935-1.741.824-4.163,1.025-6.119.204-1.981.383-3.965.546-5.951.288-3.525.761-7.197.538-10.738-.279-4.436-3.299-8.439-6.923-10.781-3.12-2.016-6.718-2.73-10.272-3.566-2.504-.589-3.572,3.267-1.063,3.857,2.438.573,5.006.995,7.291,2.047,3.315,1.527,5.925,4.136,6.812,7.745.299,1.214.166,2.552.115,3.819-.071,1.757-.186,3.513-.315,5.267-.254,3.469-.553,6.939-.956,10.394-.128,1.097-.092,1.972-.837,2.848-.761.894-1.664,1.601-2.727,2.099-1.824.854-3.897,1.023-5.861,1.34-1.067.172-1.661,1.5-1.397,2.46.312,1.135,1.39,1.57,2.46,1.397h0Z"></path><path class="t" d="M223.567,299.629c-4.444,2.508-8.952,4.919-13.838,6.452-2.255.707-4.515,1.33-6.892,1.319-2.124-.01-4.637-.445-6.106-2.113-1.705-1.935-4.525.903-2.828,2.828,3.805,4.319,10.741,3.589,15.666,2.189,5.671-1.612,10.906-4.337,16.018-7.222,2.242-1.265.228-4.722-2.019-3.454h0Z"></path><path class="t" d="M219.659,331.618c1.866,3.559,6.053,4.864,9.825,4.22,2.102-.359,4.081-1.254,6.029-2.089,1.742-.747,3.468-1.555,5.047-2.612s3.154-2.349,4.202-3.962c1.108-1.706,1.199-3.928.56-5.829-1.452-4.319-6.162-4.987-10.089-4.676-1.077.085-2,.858-2,2,0,1.016.917,2.086,2,2,2.179-.173,5.873-.465,6.415,2.407.48,2.542-2.453,4.288-4.347,5.373-2.473,1.416-5.32,2.733-8.103,3.377-2.298.532-4.916,0-6.084-2.228-1.196-2.281-4.649-.261-3.454,2.019h0Z"></path><path class="t" d="M221.486,313.827c0,7.317-.016,14.635-.016,21.952,0,2.574,4,2.578,4,0,0-7.317.016-14.635.016-21.952,0-2.574-4-2.578-4,0h0Z"></path><path class="t" d="M209.633,262.097c-.06-.262-.108-.525-.145-.791l.071.532c-.089-.707-.091-1.417-.003-2.125l-.071.532c.055-.399.135-.793.252-1.178.058-.191.131-.375.198-.562-.23.648-.004.03.091-.146.093-.172.194-.339.304-.501.092-.136.323-.344-.082.091.066-.071.123-.151.188-.224.119-.134.245-.261.377-.381.059-.054.354-.289.061-.065-.306.234.057-.035.119-.077.865-.585,1.329-1.787.718-2.736-.556-.862-1.809-1.344-2.736-.718-3.062,2.07-3.992,5.939-3.198,9.412.233,1.021,1.464,1.719,2.46,1.397,1.068-.346,1.647-1.366,1.397-2.46h0Z"></path><path class="t" d="M209.797,270.601c2.444,3.295,4.7,7.178,7.873,9.835,2.975,2.491,7.019,4.153,10.947,3.768,4.273-.419,8.096-2.8,11.276-5.557,1.667-1.446,3.258-3.085,4.648-4.801.673-.831,1.016-1.805.693-2.876-.312-1.035-1.291-2.108-2.43-2.108l1.414.586c-1.356-1.356-2.812-2.625-4.216-3.932-.783-.729-1.566-1.457-2.349-2.185-.676-.628-1.351-1.426-2.18-1.855-1.469-.761-2.753-.26-4.207.254-.782.276-1.587.477-2.383.706-.541.156-1.814.779-2.12.788l1.009.273c.211.271.234.279.068.023-.111-.184-.219-.37-.324-.558-.176-.313-.346-.63-.511-.949-.365-.706-.705-1.426-1.027-2.152-.648-1.458-1.214-2.951-1.8-4.434-1.205-3.046-2.456-6.097-4.2-8.882-1.631-2.604-3.607-4.977-6.203-6.659-2.333-1.512-5.018-2.619-7.562-3.719-.991-.428-2.145-.293-2.736.718-.494.844-.279,2.306.718,2.736,2.934,1.268,6.352,2.523,8.798,4.641,2.946,2.551,4.832,6.251,6.338,9.783,1.529,3.586,2.736,7.326,4.629,10.747,1.036,1.872,2.253,2.947,4.444,2.029.686-.287,1.398-.486,2.115-.686.976-.273,1.921-.709,2.892-.967.367-.098.182-.17.343-.105.2.081.825.868,1.073,1.098.904.84,1.807,1.681,2.71,2.522s1.807,1.683,2.71,2.525c.728.679,1.481,1.656,2.568,1.656l-1.414-.586.036.137v-1.063c.056-.209-.43.48-.529.59-.303.34-.609.678-.918,1.012-.516.556-1.042,1.104-1.586,1.633-1.178,1.145-2.43,2.197-3.803,3.102-2.456,1.62-5.365,2.961-8.378,2.482-6.316-1.004-9.495-6.901-12.971-11.586-.643-.866-1.732-1.305-2.736-.718-.854.5-1.365,1.864-.718,2.736h0Z"></path><path class="t" d="M192.824,232.941c-3.502,0-7.104,2.604-9.415,5.025s-3.588,5.539-4.513,8.7c-1.61,5.503-2.146,11.359-2.232,17.075-.019,1.275-.023,2.555.04,3.83.126,2.562,4.126,2.577,4,0-.146-2.972-.035-5.974.191-8.938.401-5.26,1.171-11.064,3.779-15.741.858-1.538,2.144-2.827,3.561-3.86,1.259-.918,2.958-2.092,4.589-2.092,2.574,0,2.578-4,0-4h0Z"></path><path class="t" d="M215.704,280.061c.103,1.436.205,2.873.307,4.309.042.596.266,1.409.133,1.992-.074.326-.094.27-.629.502-2.069.895-4.347,1.253-6.588,1.266-4.449.025-9.154-.89-12.933-3.316-2.172-1.395-4.18,2.066-2.019,3.454,4.7,3.018,10.933,4.204,16.459,3.805,2.678-.193,6.188-.728,8.324-2.498,1.286-1.066,1.439-2.492,1.333-4.068-.122-1.816-.258-3.63-.388-5.445-.182-2.553-4.184-2.573-4,0h0Z"></path><path class="t" d="M221.472,303.844v9.931l.991-1.727c-7.137,4.117-14.286,8.215-21.427,12.326-1.317.758-2.616,1.61-3.975,2.291-1.899.951-3.451-.116-5.07-1.051-4.136-2.389-8.272-4.777-12.407-7.165-2.398-1.385-4.795-2.769-7.193-4.154-1.919-1.108-4.945-2.089-5.036-4.676-.09-2.567-4.091-2.579-4,0,.112,3.185,1.896,5.172,4.53,6.693,2.153,1.243,4.306,2.487,6.46,3.73,4.632,2.675,9.264,5.35,13.895,8.025,1.781,1.028,3.689,2.49,5.745,2.838,2.575.436,4.552-.474,6.706-1.715,3.778-2.177,7.558-4.35,11.338-6.523,4.152-2.387,8.304-4.772,12.453-7.164.609-.351.991-1.025.991-1.727v-9.931c0-2.574-4-2.578-4,0h0Z"></path><path class="t" d="M196.987,318.585v-34.541c0-2.03.047-4.046-1.133-5.817-1.313-1.969-3.525-2.985-5.507-4.155-4.234-2.5-8.486-4.971-12.749-7.422-1.994-1.146-3.991-2.288-5.994-3.419-1.903-1.075-4.048-2.765-6.286-1.557-1.844.995-1.947,2.826-1.948,4.669,0,1.421,0,2.843-.001,4.264-.001,3.878-.003,7.757-.005,11.635-.004,9.126-.009,18.251-.01,27.377,0,2.574,4,2.578,4,0,0-14.454.013-28.907.016-43.361,0-.289.036-1.241-.02-1.26.133.047-.384.333-.34.228-.033.077-.493-.428.086.064.326.277.817.455,1.189.664,1.802,1.011,3.598,2.033,5.392,3.06,4.107,2.35,8.2,4.724,12.281,7.119,1.759,1.032,3.526,2.053,5.268,3.115,1.654,1.008,1.76,2.39,1.76,4.156v35.183c0,2.574,4,2.578,4,0h0Z"></path><path class="t" d="M213.198,238.573c4.134-1.321,7.823-3.835,9.802-7.796,1.903-3.809,2.479-8.279,1.997-12.485-.516-4.505-2.245-8.804-5.497-12.037-2.856-2.84-6.608-4.835-10.571-5.568-8.158-1.508-17.12,1.811-21.745,8.85-2.448,3.726-3.32,8.412-2.948,12.811.376,4.439,1.759,9.066,4.999,12.276,6.07,6.013,16.226,6.315,23.963,3.949,2.455-.751,1.408-4.613-1.063-3.857-5.582,1.707-12.45,1.935-17.642-1.079-6.26-3.634-7.614-12.634-5.381-19.034,2.251-6.455,9.243-10.329,15.856-10.307,6.932.024,13.433,4.362,15.413,11.123,1.1,3.756,1.065,7.931-.155,11.655-1.28,3.905-4.237,6.41-8.091,7.642-2.443.781-1.399,4.644,1.063,3.857Z"></path><path class="t" d="M221.528,217.089c-1.985-.081-3.976.128-5.739,1.112-1.819,1.015-3.375,2.723-4.254,4.607-2.039,4.374-1.318,9.504-.515,14.089.187,1.065,1.49,1.664,2.46,1.397,1.124-.309,1.584-1.392,1.397-2.46-.6-3.425-1.308-7.548.056-10.882.524-1.282,1.488-2.467,2.668-3.178s2.414-.747,3.926-.685c1.08.044,2-.951,2-2,0-1.12-.916-1.956-2-2h0Z"></path><path class="t" d="M179.814,207.424c-4.079,2.35-8.151,4.71-12.23,7.06-.907.522-1.3,1.832-.718,2.736.59.915,1.766,1.276,2.736.718,4.079-2.35,8.151-4.71,12.23-7.06.907-.522,1.3-1.832.718-2.736-.59-.915-1.766-1.276-2.736-.718h0Z"></path><path class="t" d="M155.854,193.834c-5.961,3.45-11.929,6.89-17.89,10.34-2.227,1.289-.215,4.747,2.019,3.454,5.961-3.45,11.929-6.89,17.89-10.34,2.227-1.289.215-4.747-2.019-3.454h0Z"></path><path class="t" d="M181.833,207.428c-7.987-4.607-15.973-9.218-23.958-13.829l.991,1.727v-22.382l-3.009,1.727c7.982,4.616,15.975,9.213,23.958,13.829l-.991-1.727v22.382c0,2.574,4,2.578,4,0v-19.336c0-1.003.074-2.045,0-3.046-.095-1.285-1.04-1.756-2.059-2.345-7.627-4.409-15.263-8.801-22.889-13.212-1.312-.759-3.009.206-3.009,1.727v19.397c0,1.074-.217,2.468.071,3.517.303,1.101,1.521,1.543,2.417,2.06,7.486,4.323,14.972,8.645,22.46,12.964,2.234,1.289,4.251-2.167,2.019-3.454h0Z"></path><path class="t" d="M147.106,254.673c-4.444,2.508-8.952,4.919-13.838,6.452-2.255.707-4.515,1.33-6.892,1.319-2.124-.01-4.637-.445-6.106-2.113-1.705-1.935-4.525.903-2.828,2.828,3.805,4.319,10.741,3.589,15.666,2.189,5.671-1.612,10.906-4.337,16.018-7.222,2.242-1.265.228-4.722-2.019-3.454h0Z"></path><path class="t" d="M149.292,242.83c3.993,1.419,7.6,4.491,8.27,8.882.095.624.073,1.293.101,1.925.009.208.143.873.09.982-.14.29-1.405.639-1.71.771-.626.271-1.253.54-1.88.807-2.558,1.09-5.129,2.153-7.659,3.307-.983.448-1.223,1.871-.718,2.736.591,1.01,1.75,1.167,2.736.718,2.947-1.344,5.948-2.567,8.923-3.848,1.52-.655,3.103-1.151,3.863-2.753.392-.825.402-1.645.363-2.536-.042-.955-.034-1.929-.196-2.872-1.024-5.94-5.653-10.032-11.12-11.976-1.018-.362-2.189.409-2.46,1.397-.304,1.107.375,2.097,1.397,2.46h0Z"></path><path class="t" d="M143.68,287.675c1.331,2.539,4.095,3.935,6.891,4.065,3.069.143,6.13-1.362,8.85-2.611,2.58-1.185,5.096-2.727,6.846-5.008,1.975-2.575,1.429-6.151-.873-8.317-2.122-1.997-5.615-2.378-8.42-2.181-1.078.076-2,.865-2,2,0,1.024.917,2.076,2,2,1.825-.128,4.608-.141,5.918,1.339,1.795,2.028-.823,4.041-2.439,5.079-2.271,1.459-4.959,2.669-7.561,3.392-2.117.588-4.635.367-5.759-1.776-1.196-2.281-4.649-.261-3.454,2.019h0Z"></path><path class="t" d="M156.002,257.188c-.316,4.808-.55,9.589-1.155,14.377-.147,1.164-.314,2.325-.496,3.485-.093.595-.175,1.192-.342,1.772-.075.26-.172.504-.262.757-.031.088-.3.427-.078.207.281-.279-.299.119-.418.166-.223.088-.473.141-.708.19-.496.102-1.002.125-1.506.153-1.353.074-2.707.116-4.061.17-2.565.103-2.578,4.104,0,4,2.711-.109,6.023.206,8.482-1.138,2.504-1.369,2.675-4.594,3.032-7.113.805-5.666,1.135-11.322,1.51-17.024.169-2.57-3.832-2.56-4,0h0Z"></path><path class="t" d="M145.024,268.871c0,7.317-.016,14.635-.016,21.952,0,2.574,4,2.578,4,0,0-7.317.016-14.635.016-21.952,0-2.574-4-2.578-4,0h0Z"></path><path class="t" d="M145.011,258.889v9.931l.991-1.727c-7.137,4.117-14.286,8.215-21.427,12.326-1.317.758-2.616,1.61-3.975,2.291-1.899.951-3.451-.116-5.07-1.051-4.136-2.389-8.272-4.777-12.407-7.165-2.398-1.385-4.795-2.769-7.193-4.154-1.919-1.108-4.945-2.089-5.036-4.676-.09-2.567-4.091-2.579-4,0,.112,3.185,1.896,5.172,4.53,6.693,2.153,1.243,4.306,2.487,6.46,3.73,4.632,2.675,9.264,5.35,13.895,8.025,1.781,1.028,3.689,2.49,5.745,2.838,2.575.436,4.552-.474,6.706-1.715,3.778-2.177,7.558-4.35,11.338-6.523,4.152-2.387,8.304-4.772,12.453-7.164.609-.351.991-1.025.991-1.727v-9.931c0-2.574-4-2.578-4,0h0Z"></path><path class="t" d="M164.606,231.9c1.145-.382,2.208-1.243,3.176-1.937,1.172-.84,2.323-1.726,3.406-2.679,1.148-1.01,2.125-2.091,2.656-3.55.505-1.385.414-2.863.112-4.282-.634-2.98-3.11-5.07-6.116-5.418-1.268-.147-2.519.399-3.771.24-1.063-.135-2.014-1.115-3.173-1.335-3.741-.71-5.528,3.732-7.098,6.302-1.346,2.203,2.112,4.214,3.454,2.019.801-1.311,1.526-2.801,2.481-4.006-.043.054.352-.374.33-.352-.025.025.322-.093.069-.053-.24.038.266.102.113.033.299.135.578.312.865.469,1.326.728,2.684,1.034,4.195.857,1.225-.143,2.291-.428,3.413.231,1.005.59,1.294,1.302,1.456,2.47.141,1.015-.093,1.908-.834,2.635-.899.882-1.87,1.691-2.875,2.447-.556.418-1.123.82-1.701,1.207-.313.21-.628.416-.949.614-.165.102-.996.468-.273.227-1.024.341-1.694,1.379-1.397,2.46.275,1.001,1.431,1.74,2.46,1.397h0Z"></path><path class="t" d="M135.1,204.088c4.8,5.446,6.23,12.638,9.546,18.914.825,1.561,1.833,3.394,3.935,2.872.782-.194,1.547-.623,2.332-.848.869-.249,1.743-.472,2.593-.78.239-.087.981-.529,1.171-.491.014.003.749.793.756.8.843.785,1.686,1.571,2.529,2.356s1.686,1.571,2.529,2.356c.652.607,1.686,1.272,2.076,2.047l-.273-1.009c.243-.365.254-.412.035-.142-.15.171-.301.342-.453.512-.303.34-.609.679-.919,1.013-.516.556-1.043,1.104-1.587,1.633-1.178,1.146-2.429,2.197-3.802,3.101-2.459,1.619-5.366,2.954-8.381,2.476-6.312-1.001-9.504-6.899-12.971-11.586-.641-.867-1.733-1.305-2.736-.718-.855.5-1.364,1.863-.718,2.736,2.568,3.471,4.934,7.533,8.366,10.229,3.407,2.677,7.893,4.035,12.179,3.11,4.532-.978,8.531-4.068,11.694-7.328,1.448-1.493,3.975-3.469,3.12-5.809-.369-1.01-1.321-1.715-2.08-2.422-.963-.897-1.927-1.795-2.89-2.692-1.084-1.01-2.168-2.019-3.251-3.029-1.056-.983-2.084-1.722-3.589-1.59-1.177.103-2.36.78-3.501,1.102-.562.159-1.129.302-1.685.481-.227.073-.453.15-.676.235-.125.047-.999.345-.724.337l1.009.273c.253.31.251.273-.005-.111-.125-.213-.247-.428-.366-.644-.239-.434-.467-.874-.687-1.318-.422-.855-.812-1.726-1.179-2.605-.74-1.773-1.409-3.574-2.144-5.349-1.641-3.966-3.569-7.7-6.426-10.941-1.705-1.935-4.525.903-2.828,2.828h0Z"></path><path class="t" d="M86.902,265.956c0,8.289-.008,16.578-.008,24.867,0,2.574,4,2.578,4,0,0-8.289.008-16.578.008-24.867,0-2.574-4-2.578-4,0h0Z"></path><path class="t" d="M116.656,284.089v23.909c0,2.574,4,2.578,4,0v-23.909c0-2.574-4-2.578-4,0h0Z"></path><path class="t" d="M130.6,220.83c-.06-.262-.108-.525-.145-.791l.071.532c-.089-.707-.091-1.417-.003-2.125l-.071.532c.055-.399.135-.793.252-1.178.058-.191.131-.375.198-.562-.23.648-.004.03.091-.146.093-.172.194-.339.304-.501.092-.136.323-.344-.082.091.066-.071.123-.151.188-.224.119-.134.245-.261.377-.381.059-.054.354-.289.061-.065-.306.234.057-.035.119-.077.865-.585,1.329-1.787.718-2.736-.556-.862-1.809-1.344-2.736-.718-3.062,2.07-3.992,5.939-3.198,9.412.233,1.021,1.464,1.719,2.46,1.397,1.068-.346,1.647-1.366,1.397-2.46h0Z"></path><path class="t" d="M130.454,200.818c1.147.565,2.259,1.183,3.274,1.966l-.405-.313c.632.493,1.234,1.023,1.776,1.614.709.773,2.119.772,2.828,0,.759-.827.756-2.004,0-2.828-1.526-1.664-3.443-2.901-5.455-3.893-.487-.24-1.004-.35-1.541-.202-.464.128-.967.486-1.195.919-.245.464-.368,1.026-.202,1.541.154.476.455.967.919,1.195h0Z"></path><path class="t" d="M101.624,223.141c.039-4.236.33-8.494,1.135-12.658.94-4.86,2.363-9.733,6.524-12.785.87-.638,1.303-1.735.718-2.736-.502-.858-1.861-1.36-2.736-.718-2.43,1.783-4.447,3.877-5.714,6.64-1.142,2.49-1.936,5.108-2.497,7.786-.994,4.746-1.385,9.628-1.429,14.471-.024,2.575,3.976,2.577,4,0h0Z"></path><path class="t" d="M138.924,238.421c.098,1.289.193,2.578.28,3.868.019.286.072.621.05.913-.023.307-.042.189.023.117-.195.217-.778.356-1.041.457-2.111.81-4.328,1.135-6.581,1.113-4.107-.041-8.596-.83-12.121-3.045-2.186-1.374-4.196,2.086-2.019,3.454,1.99,1.25,4.29,2.134,6.582,2.634,2.963.646,6.034,1.091,9.073.925,2.673-.146,5.688-.676,8.033-2.047,2.975-1.739,1.938-5.539,1.721-8.388-.194-2.551-4.196-2.572-4,0h0Z"></path><path class="t" d="M120.526,272.303v-34.412c0-2.372-.615-4.612-2.509-6.189-1.61-1.34-3.64-2.298-5.441-3.357-4.224-2.485-8.462-4.945-12.713-7.382-1.918-1.1-3.839-2.194-5.767-3.277-1.988-1.117-4.306-2.296-6.201-.229-1.149,1.253-.985,2.892-.985,4.457,0,1.41,0,2.82-.001,4.23-.001,3.932-.003,7.863-.005,11.795-.004,8.908-.009,17.817-.009,26.725,0,2.574,4,2.578,4,0,0-14.28.012-28.56.016-42.841,0-.481.023-.967,0-1.448,0-.019.021-.24,0-.274-.193-.308.14.103-.1.072-.731-.093-.017.247.288.418,1.687.941,3.367,1.895,5.045,2.853,4.05,2.312,8.086,4.648,12.111,7.004,1.754,1.027,3.507,2.057,5.255,3.095,1.701,1.01,3.002,1.782,3.018,3.947.024,3.301,0,6.604,0,9.905v24.909c0,2.574,4,2.578,4,0h0Z"></path><path class="t" d="M140.434,178.221c.331,3.01-.041,6.375-1.357,9.126-1.383,2.892-3.83,4.789-6.845,5.816-1.022.348-1.695,1.374-1.397,2.46.274.996,1.433,1.746,2.46,1.397,3.852-1.311,7.263-3.718,9.122-7.421,1.715-3.416,2.434-7.575,2.017-11.378-.118-1.074-.835-2-2-2-.99,0-2.119.919-2,2h0Z"></path><path class="t" d="M103.236,186.534c.192,2.433.452,4.949,1.392,7.218.931,2.246,2.265,3.891,4.244,5.3,3.778,2.69,9.021,3.864,13.601,3.935,3.367.052,6.693-.594,9.735-2.04.977-.465,2.016-.937,2.648-1.862.785-1.149.182-2.68-.051-3.946-.459-2.501-.854-5.025-.766-7.576.083-2.407.674-4.807,2.633-6.38,1.725-1.386,3.923-1.123,5.992-.939,1.435.128,2.098-1.373,1.929-2.532-1.399-9.583-9.222-16.844-18.831-17.643-4.46-.371-9.358.583-13.159,3.005-3.681,2.346-6.238,5.989-7.743,10.04-1.547,4.162-1.92,9.014-1.623,13.419.172,2.555,4.173,2.574,4,0-.454-6.732.685-14.571,6.179-19.132,5.739-4.764,15.355-4.486,21.088.093,3.498,2.794,5.592,6.894,6.232,11.281l1.929-2.532c-2.304-.205-4.636-.279-6.777.736-2.129,1.01-3.822,2.95-4.754,5.088-2.223,5.098-.732,11.117.224,16.336l.514-1.946c-.625.739-1.9,1.178-2.557,1.417-.94.342-1.901.609-2.883.799-2.55.494-5.256.415-7.798-.083-2.977-.582-6.271-1.556-8.553-3.655-2.27-2.088-2.614-5.502-2.843-8.403-.202-2.549-4.203-2.571-4,0Z"></path><path class="t" d="M84.138,116.232c0,4.261-.006,8.522-.007,12.783,0,1.522,1.697,2.484,3.009,1.727,4.234-2.444,8.467-4.889,12.7-7.334,1.54-.89,3.16-1.708,4.648-2.684,1.097-.719,1.032-1.775,1.033-2.904,0-1.306.001-2.612.002-3.919.001-2.571.003-5.141.003-7.712,0-1.522-1.698-2.485-3.009-1.727-5.796,3.347-11.594,6.693-17.388,10.043-2.228,1.288-.216,4.746,2.019,3.454,5.795-3.35,11.592-6.695,17.388-10.043l-3.009-1.727c0,4.261-.005,8.522-.006,12.783l.991-1.727c-5.797,3.347-11.593,6.695-17.39,10.042l3.009,1.727c0-4.261.006-8.522.007-12.783,0-2.574-4-2.578-4,0Z"></path><path class="t" d="M94.531,61.093c-7.852,4.534-15.704,9.069-23.556,13.604-1.408.813-2.816,1.626-4.224,2.44-2.228,1.288-.216,4.746,2.019,3.454,7.729-4.468,15.46-8.93,23.191-13.394,1.53-.883,3.059-1.767,4.589-2.65,2.229-1.287.217-4.745-2.019-3.454h0Z"></path><path class="t" d="M92.865,75.222c-7.852,4.534-15.704,9.069-23.556,13.604-1.408.813-2.816,1.626-4.224,2.44-2.228,1.288-.216,4.746,2.019,3.454,7.729-4.468,15.46-8.93,23.191-13.394,1.53-.883,3.059-1.767,4.589-2.65,2.229-1.287.217-4.745-2.019-3.454h0Z"></path><path class="t" d="M109.441,83.363c0,9.018-.004,18.036-.006,27.055,0,1.33,0,2.659,0,3.989,0,1.522,1.697,2.484,3.009,1.727,3.167-1.828,6.333-3.657,9.499-5.486,1.904-1.1,3.808-2.199,5.712-3.299,1.236-.714,3.064-1.369,3.169-3,.164-2.55,0-5.163.001-7.717,0-4.717.002-9.434.003-14.152,0-3.053.001-6.107.002-9.16,0-1.522-1.697-2.485-3.009-1.727-5.796,3.347-11.594,6.693-17.388,10.043-2.228,1.288-.216,4.746,2.019,3.454,5.795-3.35,11.592-6.695,17.388-10.043l-3.009-1.727c0,9.038-.003,18.077-.005,27.115,0,1.31,0,2.619,0,3.929l.991-1.727c-5.797,3.347-11.593,6.695-17.39,10.042l3.009,1.727c0-9.036.004-18.071.006-27.107,0-1.312,0-2.624,0-3.936,0-2.574-4-2.578-4,0Z"></path><path class="t" d="M134.743,50.494c0,5.56-.002,11.121-.002,16.681-.001,8.789-.003,17.579-.004,26.368,0,2.085,0,4.17,0,6.255,0,1.522,1.697,2.484,3.009,1.727,4.672-2.698,9.344-5.396,14.016-8.094,1.436-.829,4.255-1.829,4.364-3.735.059-1.031,0-2.083,0-3.115.001-11.685.003-23.369.004-35.054,0-3.692.001-7.384.001-11.076,0-1.522-1.697-2.485-3.009-1.727-5.796,3.347-11.594,6.693-17.388,10.043-2.228,1.288-.216,4.746,2.019,3.454,5.795-3.35,11.592-6.695,17.388-10.043l-3.009-1.727c0,5.591-.001,11.181-.002,16.772-.001,8.792-.002,17.584-.003,26.376,0,2.052,0,4.104,0,6.157l.991-1.727c-5.797,3.347-11.593,6.695-17.39,10.042l3.009,1.727c0-5.585.002-11.169.002-16.754.001-8.783.003-17.565.004-26.348,0-2.067,0-4.135,0-6.202,0-2.574-4-2.578-4,0Z"></path><g id="p"><path class="t" d="M263.43,238.164c-6.243-3.605-12.486-7.21-18.729-10.815-1.018-.588-2.036-1.176-3.054-1.763-.623-.36-1.396-.36-2.019,0-5.026,2.903-10.05,5.81-15.076,8.713-1.298.75-1.297,2.704,0,3.454,7.259,4.196,14.521,8.386,21.781,12.579.623.36,1.396.36,2.019,0,5.026-2.903,10.051-5.809,15.078-8.712.829-.479,1.07-1.376.919-2.259h0c-.182-1.066-1.494-1.663-2.46-1.398-1.128.31-1.579,1.392-1.397,2.46h0c.306-.752.613-1.505.919-2.258-5.027,2.903-10.051,5.809-15.078,8.712h2.019c-7.261-4.193-14.522-8.383-21.781-12.579v3.454c5.026-2.903,10.05-5.81,15.076-8.713h-2.019c6.302,3.639,12.603,7.278,18.905,10.917.959.554,1.918,1.108,2.878,1.662,2.233,1.289,4.25-2.166,2.019-3.454Z"></path></g><path class="t" d="M309.704,211.291v-4.87c0-.702-.381-1.375-.991-1.727-9.481-5.471-18.963-10.942-28.44-16.42-1.312-.758-3.009.205-3.009,1.727v27.33c0,.701.381,1.376.991,1.727,9.58,5.52,19.154,11.052,28.73,16.58.622.359,1.397.36,2.019,0,5.8-3.359,11.61-6.701,17.41-10.06,2.227-1.29.215-4.748-2.019-3.454-5.8,3.359-11.61,6.701-17.41,10.06h2.019c-9.576-5.528-19.15-11.06-28.73-16.58l.991,1.727v-27.33l-3.009,1.727c9.477,5.478,18.959,10.949,28.44,16.42l-.991-1.727v4.87c0,2.574,4,2.578,4,0h0Z"></path><path class="t" d="M319.823,215.974c-3.708-2.129-7.409-4.269-11.11-6.41-1.312-.759-3.009.206-3.009,1.727v14.96c0,2.574,4,2.578,4,0v-14.96l-3.009,1.727c3.701,2.141,7.402,4.281,11.11,6.41,2.236,1.284,4.253-2.171,2.019-3.454h0Z"></path></g></g></svg>