<svg id="b" xmlns="http://www.w3.org/2000/svg" width="458.771" height="222.166" viewBox="0 0 458.771 222.166"><defs><style>.g{fill:#211715;}.g,.h,.i{stroke-width:0px;}.h{fill:#fff;}.i{fill:#fcdc4a;}</style></defs><g id="c"><g id="d"><path class="h" d="M424.789,116.027c1.034-.994,2.428-1.367,3.62-1.325,2.595.091,3.699,1.495,4.174,2.319,1.418,2.46,1.358,6.993.406,9.797-.674,1.986-1.779,5.025-4.442,7.203-1.208.988-3.042,1.605-4.719,1.123-1.187,4.141-3.353,9.154-7.183,13.814-2.527,3.075-4.952,5.167-7.714,6.723,0,2.987,0,4.966,0,4.966,0,.878,0,1.835.324,2.69.435,1.123,1.02,2.096,1.962,2.856,1.993,1.606,4.042,2.373,6.566,3.322l1.647.65c-5.619,4.629-15.845,8.362-26.504,8.393-10.586-.031-20.745-3.713-26.389-8.299l1.889-.744c2.523-.949,4.572-1.717,6.566-3.322.941-.759,1.527-1.732,1.962-2.856.324-.854.324-1.811.324-2.69,0,0,0-1.589-.002-4.217-3.09-1.694-5.901-4.206-8.585-7.472-3.816-4.644-5.981-9.638-7.17-13.771-1.632.399-3.388-.21-4.557-1.166-2.663-2.179-3.767-5.217-4.442-7.203-.952-2.805-1.012-7.337.406-9.797.475-.824,1.579-2.228,4.174-2.319,1.192-.042,2.586.331,3.62,1.325,0,0-9.571-29.535,30.619-29.535s33.447,29.535,33.447,29.535Z"></path><path class="h" d="M328.779,202.558c1.072-4.54,3.55-10.539,6.073-14.431,2.084-3.215,6.103-6.497,9.311-8.537,6.923-4.39,15.017-6.744,22.128-9.532,5.589,4.678,15.893,8.469,26.636,8.501,10.679-.031,20.924-3.778,26.537-8.421,7.061,2.752,15.071,5.103,21.93,9.453,3.208,2.039,7.227,5.322,9.311,8.537,2.523,3.893,5.001,9.891,6.073,14.431h-128Z"></path><path class="h" d="M173.291,205.471c0,8.113,6.577,14.689,14.69,14.689h100.621c8.113,0,14.689-6.577,14.689-14.689v-13.963c-40.427.011-89.671.023-130,.034v13.929Z"></path><path class="h" d="M303.291,16.695c0-8.113-6.577-14.69-14.689-14.69h-100.621c-8.113,0-14.69,6.577-14.69,14.69v13.968c38.79-.011,100.358-.027,130-.035v-13.934Z"></path><path class="h" d="M319.48,72.822h0s10.426,0,10.426,0c1.23,0,1.843-1.489.97-2.355l-11.396-11.302v-4.157c0-5.554-4.503-10.057-10.057-10.057h-89.712c-5.554,0-10.057,4.503-10.057,10.057v17.814c0,5.554,4.503,10.057,10.057,10.057h89.712c5.554,0,10.057-4.503,10.057-10.057Z"></path><path class="h" d="M156.515,142.12h0s-10.551,0-10.551,0c-1.244,0-1.865-1.507-.981-2.383l11.532-11.437v-20.929c0-5.621,4.557-10.177,10.177-10.177h90.785c5.621,0,10.177,4.557,10.177,10.177v34.749c0,5.621-4.557,10.177-10.177,10.177h-90.785c-5.621,0-10.177-4.557-10.177-10.177Z"></path><path class="h" d="M138.78,202.558c-.775-6.417-1.746-12.8-2.901-19.164l.377-.354c2.295-1.993,4.254-4.98,4.712-5.612,1.075-1.536,1.091-4.905.93-5.819-.881-5.005-2.756-8.973-6.071-12.37-3.604-3.693-9.521-5.605-13.23-4.654-2.921-2.184-6.846-3.557-13.443-5.519-3.678-1.086-15.028-3.563-20.926-4.821.006.586.011,1.172.017,1.758.011,1.136-.57,2.207-1.543,2.794-4.611,2.785-9.632,3.837-14.715,3.727-5.095.111-10.127-.947-14.746-3.746-.971-.588-1.551-1.657-1.54-2.792,0,0,.007-.705.023-1.741-5.904,1.258-17.254,3.735-20.932,4.821-6.597,1.963-10.523,3.336-13.443,5.519-3.708-.951-9.626.961-13.23,4.654-3.315,3.396-5.19,7.364-6.071,12.37-.161.914-.145,4.283.93,5.819.459.632,2.417,3.618,4.712,5.612l.377.354c-1.155,6.363-2.126,12.747-2.901,19.164h133.614Z"></path><path class="h" d="M105.028,86.304c.201,1.056.344,2.122.427,3.194,2.369.122,4.181.167,5.735.285.554.042,1.034.288,1.464.574.948.63,1.704,1.775,1.91,3.917.572,5.95.181,10.872-1.144,16.244-.141.574-.448,1.175-.838,1.634-.648.761-1.702,1.102-2.717,1.281-1.702.3-2.883.457-5.174.668-1.868,7.491-6.653,14.542-13.073,18.757-6.106,4.008-12.583,4.739-19.837,4.739-6.913,0-13.732-.731-19.837-4.739-6.428-4.22-11.217-11.283-13.079-18.785-2.097-.197-3.248-.353-4.873-.64-1.015-.179-2.069-.521-2.717-1.281-.391-.459-.697-1.06-.838-1.634-1.325-5.372-1.716-10.293-1.144-16.244.206-2.142.962-3.288,1.91-3.917.43-.286.91-.532,1.464-.574,1.489-.113,3.215-.159,5.439-.269.179-2.322.641-4.619,1.355-6.836.007-.021.013-.042.02-.062,1.539-4.744,4.236-9.117,7.847-12.56,6.411-6.114,15.174-8.701,24.453-8.564,9.28-.139,18.044,2.449,24.456,8.564,3.611,3.443,6.307,7.816,7.847,12.56.007.021.013.042.02.062.383,1.188.693,2.4.926,3.626Z"></path><g id="e"><path class="i" d="M429.579,90.242c-1.587-4.849-4.186-9.136-7.964-12.161l-4.258-4.465c-4.831-6.369-12.683-9.822-23.902-10.314-14.594-.494-25.367,6.037-30.135,12.119l.978,1.011c-9.898,8.591-13.501,23.96-8.701,38.5.436-.127.934-.21,1.505-.23,1.192-.042,2.586.331,3.62,1.325l5.12-4.299c3.842-4.281,10.624-10.735,15.383-13.231.558-.293,1.275.103,1.501,1.036.219.901.217,1.585.146,2.233-.108.983.846,1.698,1.657,1.248,3.397-1.887,9.451-5.686,13.743-7.494l6.365.782c2.049.891,3.608,1.747,5.862,3.687,3.864,3.325,7.568,7.885,9.208,12.013l5.081,4.026c1.034-.994,2.428-1.367,3.62-1.325.654.023,1.213.129,1.691.289,1.966-7.777,2.02-16.984-.521-24.748Z" style="fill: rgb(255, 138, 21);"></path><path class="i" d="M219.712,82.879c-5.554,0-10.057-4.503-10.057-10.057v-17.814c0-5.554,4.503-10.057,10.057-10.057h83.579v-14.327c-2.27,0-4.593.002-6.962.003-37.479.014-86.6.028-122.494.041,0,0-.187,0-.544,0v66.525h84.186c5.621,0,10.177,4.557,10.177,10.177v34.749c0,5.621-4.557,10.177-10.177,10.177h-84.186v39.251c.348,0,.53,0,.53,0,38.177-.015,91.293-.029,129.47-.044,0-22.132,0-69.113,0-108.624h-83.579Z" style="fill: rgb(255, 138, 21);"></path><path class="i" d="M55.397,169.987c-.001,9.975.026,20.975.027,30.489,0,.373.302.673.675.67,8.06-.07,22.837-.108,32.248-.143.37-.001.668-.3.668-.67-.002-9.457-.06-20.417-.06-30.429,0-.371-.3-.67-.671-.669-4.081.004-24.474.029-32.223.083-.369.003-.665.3-.665.669Z" style="fill: rgb(255, 138, 21);"></path><path class="i" d="M55.796,136.067l-.095,9.921c-.011,1.135.569,2.204,1.54,2.792,4.619,2.799,9.651,3.857,14.746,3.746,5.084.11,10.105-.942,14.715-3.727.973-.588,1.554-1.658,1.543-2.794-.032-3.313-.064-6.625-.095-9.938" style="fill: rgb(255, 138, 21);"></path></g></g><g id="f"><path class="g" d="M406.932,156.535v3.308c0,1.341-.056,2.743.396,4.027.875,2.488,2.705,4.197,4.973,5.451,2.63,1.455,5.604,2.381,8.4,3.484,1.005.397,2.196-.435,2.46-1.397.312-1.136-.388-2.062-1.397-2.46-2.311-.912-4.781-1.726-6.854-2.77-.849-.427-1.826-.99-2.451-1.544-.166-.147-.317-.303-.47-.464-.156-.187-.187-.22-.093-.101-.084-.117-.163-.237-.239-.359-.114-.185-.219-.375-.317-.569-.162-.321-.168-.312-.237-.571-.259-.967-.172-2.131-.172-3.229v-2.807c0-1.081-.919-2-2-2s-2,.915-2,2h0Z"></path><path class="g" d="M375.278,157.279v2.993c0,.574.023,1.159-.041,1.731.032-.289-.08.386-.076.369-.037.148-.083.293-.137.435.071-.151.056-.117-.044.103-.418.887-.757,1.359-1.362,1.841-.795.633-1.71,1.138-2.623,1.578-.873.42-1.623.702-2.648,1.089-.391.148-.78.299-1.169.452l-2.742,1.079c-1.004.395-1.705,1.34-1.397,2.46.263.957,1.449,1.795,2.46,1.397,2.694-1.06,5.531-1.969,8.093-3.315,2.16-1.135,4.027-2.664,5.008-4.946.974-2.265.676-4.852.676-7.265,0-1.081-.919-2-2-2s-2,.915-2,2h0Z"></path><path class="g" d="M365.865,172.254c5.67,4.372,12.965,6.764,19.985,7.759,8.039,1.14,16.302.346,23.952-2.414,3.613-1.304,7.135-2.992,10.188-5.346.854-.658,1.312-1.72.718-2.736-.492-.84-1.876-1.381-2.736-.718-5.318,4.101-12.006,6.313-18.588,7.292-7.4,1.101-15.039.221-22.074-2.281-3.362-1.196-6.593-2.828-9.425-5.011-.856-.66-2.24-.131-2.736.718-.604,1.032-.141,2.075.718,2.736h0Z"></path><path class="g" d="M364.734,76.835c4.231-5.33,10.624-8.685,17.133-10.335,7.991-2.026,17.265-1.758,24.924,1.482,3.419,1.446,6.564,3.687,8.838,6.643.657.855,1.72,1.312,2.736.718.841-.492,1.38-1.875.718-2.736-5.122-6.66-12.716-9.827-20.885-10.894-9.31-1.215-19.008.221-27.25,4.848-3.4,1.909-6.609,4.38-9.043,7.446-.671.845-.825,2.003,0,2.828.696.696,2.153.851,2.828,0h0Z"></path><path class="g" d="M357.47,114.23c-4.007-12.521-1.997-27.381,8.243-36.384,1.937-1.703-.901-4.523-2.828-2.828-11.252,9.892-13.684,26.489-9.271,40.276.782,2.442,4.645,1.398,3.857-1.063h0Z"></path><path class="g" d="M420.201,79.496c9.862,8.027,10.825,23.277,8.015,34.785-.61,2.5,3.246,3.567,3.857,1.063,3.123-12.788,1.909-29.762-9.044-38.676-.837-.681-2.01-.819-2.828,0-.704.704-.842,2.143,0,2.828h0Z"></path><path class="g" d="M358.962,133.226c2.683,12.096,11.649,25.431,24.723,27.468,1.066.166,2.151-.272,2.46-1.397.261-.949-.323-2.293-1.397-2.46-11.782-1.836-19.519-13.807-21.929-24.674-.557-2.512-4.414-1.449-3.857,1.063h0Z"></path><path class="g" d="M422.518,132.163c-1.191,5.371-3.467,10.518-6.869,14.863-3.368,4.301-7.478,7.34-12.674,9.042-2.435.798-1.393,4.662,1.063,3.857,5.856-1.919,10.627-5.255,14.456-10.092s6.538-10.555,7.881-16.607c.556-2.508-3.299-3.579-3.857-1.063h0Z"></path><path class="g" d="M386.623,143.207c2.018,1.066,4.189,1.52,6.472,1.505,2.37-.015,4.711-.504,6.603-1.978.829-.646.729-2.159,0-2.828-.88-.807-1.944-.689-2.828,0,.679-.529-.11.043-.331.159-.174.091-.647.225-.055.045-.181.055-.356.137-.536.195-.491.158-.993.258-1.5.342.285-.047.175-.023-.045,0-.147.015-.295.027-.442.036-.355.023-.711.032-1.067.03-.319-.002-.637-.013-.955-.034-.146-.01-.292-.022-.437-.036-.122-.012-.593.013-.114-.01-.435.021-.987-.187-1.402-.311-.196-.059-.388-.129-.582-.195-.475-.162.381.186-.049-.017-.24-.113-.477-.231-.712-.356-.925-.488-2.217-.265-2.736.718-.488.924-.27,2.215.718,2.736h0Z"></path><path class="g" d="M391.911,128.178c.274,1.045.537,2.107.694,3.176l-.071-.532c.019.147.027.291.012.438l.071-.532c-.01.068-.025.132-.048.197l.202-.478c-.02.046-.042.085-.07.127l.313-.405c-.033.04-.064.07-.104.102l.405-.313c-.08.052-.165.093-.252.133l.478-.202c-.139.058-.276.1-.424.124l.532-.071c-.134.016-.264.015-.398,0l.532.071c-.15-.021-.297-.057-.447-.078-.266-.083-.532-.095-.798-.036-.266.012-.514.091-.744.237-.415.243-.811.718-.919,1.195-.117.512-.091,1.087.202,1.541.26.403.695.852,1.195.919.375.05.738.145,1.119.161.602.026,1.156-.161,1.691-.408.67-.309,1.196-.932,1.374-1.653.152-.614.089-1.124-.015-1.739-.173-1.023-.409-2.038-.673-3.041-.127-.483-.49-.944-.919-1.195s-1.061-.357-1.541-.202c-1.042.337-1.681,1.376-1.397,2.46h0Z"></path><path class="g" d="M375.473,119.084c-.53,1.724-.185,5.689,3.081,6.027,4.316-.026,4.546-4.82,3.093-7.074-1.19-1.846-4.688-2.613-6.174,1.048Z"></path><path class="g" d="M410.038,119.084c.531,1.724.185,5.689-3.081,6.027-4.316-.026-4.546-4.82-3.093-7.074,1.19-1.846,4.688-2.613,6.174,1.048Z"></path><path class="g" d="M362.137,114.613c-2.226-1.986-5.373-2.454-8.096-1.213-1.968.897-3.166,2.749-3.72,4.784-1.291,4.743-.073,10.282,2.645,14.326,1.84,2.738,4.733,5.198,8.254,4.741,1.071-.139,2-.82,2-2,0-.973-.921-2.14-2-2-2.617.34-4.36-1.818-5.496-3.912-.941-1.736-1.661-3.735-1.83-5.71-.167-1.947-.161-4.29.993-5.963-.279.404.503-.474.343-.352.347-.264.713-.42,1.132-.515,1.034-.234,2.139-.078,2.947.642,1.915,1.709,4.754-1.11,2.828-2.828h0Z"></path><path class="g" d="M426.203,117.441c.763-.681,1.813-.865,2.801-.674.475.092.889.25,1.278.546-.172-.131.618.752.343.352,1.152,1.676,1.16,4.014.993,5.963-.169,1.975-.889,3.973-1.83,5.71-1.135,2.094-2.878,4.251-5.496,3.912-1.073-.139-2,1.019-2,2,0,1.196.924,1.86,2,2,5.756.747,9.269-5.497,10.706-10.145,1.28-4.142,1.271-10.645-2.79-13.308-2.733-1.792-6.457-1.304-8.833.815-1.925,1.717.912,4.538,2.828,2.828h0Z"></path><path class="g" d="M403.628,98.028c3.196,1.4,5.79,3.468,8.201,5.974,2.365,2.46,4.723,5.501,5.951,8.531.405,1,1.332,1.707,2.46,1.397.949-.261,1.805-1.453,1.397-2.46-1.538-3.795-3.984-7.137-6.79-10.097-2.66-2.806-5.643-5.241-9.2-6.798-.989-.433-2.147-.29-2.736.718-.496.848-.277,2.301.718,2.736h0Z"></path><path class="g" d="M367.257,113.142c2.526-2.802,5.229-5.456,8.079-7.927,1.36-1.179,2.755-2.318,4.234-3.345.617-.429,1.248-.841,1.897-1.22.17-.1.342-.197.515-.291-.473.071-.868-.027-1.185-.294-.064.119.109,1.173.104,1.373-.052,1.998,1.162,3.832,3.354,3.684,1.583-.107,3.305-1.536,4.652-2.323,3.381-1.975,6.768-4.009,10.374-5.553.993-.425,1.214-1.887.718-2.736-.601-1.027-1.739-1.144-2.736-.718-3.606,1.544-6.993,3.578-10.374,5.553-.784.458-1.567.917-2.355,1.369-.174.1-.348.199-.523.298-.472.197-.316.285.468.264.313.621.453.675.423.163.016-.231.018-.462.006-.694-.085-1.95-.948-4.276-3.245-4.34-1.54-.043-3.19,1.357-4.393,2.209-1.653,1.17-3.233,2.448-4.763,3.774-2.851,2.471-5.553,5.125-8.079,7.927-1.72,1.908,1.1,4.745,2.828,2.828h0Z"></path><path class="g" d="M330.707,203.09c1.466-6.061,4.049-12.694,8.575-17.125,5.068-4.962,11.542-7.979,18.095-10.465,3.695-1.402,7.439-2.676,11.096-4.178.998-.41,1.708-1.329,1.397-2.46-.26-.945-1.455-1.81-2.46-1.397-13.348,5.483-29.155,9.099-36.238,23.089-1.842,3.637-3.363,7.506-4.322,11.472-.605,2.501,3.251,3.568,3.857,1.063h0Z"></path><path class="g" d="M458.707,202.027c-.835-3.452-2.113-6.8-3.614-10.015s-3.306-6.212-5.844-8.73c-5.382-5.34-12.212-8.637-19.205-11.332-3.955-1.524-7.976-2.873-11.898-4.484-1-.411-2.199.445-2.46,1.397-.315,1.147.394,2.048,1.397,2.46,6.491,2.666,13.278,4.619,19.532,7.844,3.087,1.592,6.008,3.482,8.597,5.805,2.456,2.204,4.233,4.667,5.719,7.602,1.69,3.338,3.039,6.878,3.919,10.517.605,2.501,4.463,1.442,3.857-1.063h0Z"></path><path class="g" d="M303.291,28.624c-3.508.001-7.015.002-10.523.003-8.179.003-16.357.005-24.536.008-10.669.004-21.339.007-32.008.011-10.979.004-21.959.007-32.938.011-9.109.003-18.218.006-27.327.01-.889,0-1.778.001-2.668,0-2.574-.002-2.578,3.998,0,4,8.707.006,17.414-.006,26.12-.009,10.864-.004,21.729-.008,32.593-.011,10.828-.004,21.656-.007,32.484-.011,8.611-.003,17.222-.006,25.834-.008,4.208-.001,8.435.113,12.642-.004.109-.003.219,0,.328,0,2.574,0,2.578-4.001,0-4h0Z"></path><path class="g" d="M173.291,193.548c16.476-.033,32.952-.012,49.428-.018,17.73-.006,35.46-.011,53.19-.017,9.127-.003,18.255-.006,27.382-.01,2.574,0,2.578-4.001,0-4-16.725.006-33.451.012-50.176.017-17.711.006-35.422.011-53.133.017-8.897.003-17.794-.008-26.691.01-2.574.005-2.578,4.005,0,4h0Z"></path><path class="g" d="M175.286,97.193V17.349c0-2.74.57-5.291,2.078-7.619,1.921-2.965,5.09-4.979,8.56-5.571,1.592-.271,3.311-.156,4.924-.156h37.997c10.951,0,21.903,0,32.854,0,7.722,0,15.444,0,23.166,0,1.245,0,2.491-.012,3.736,0,6.99.067,12.621,5.732,12.685,12.713.072,7.84,0,15.685,0,23.526v4.711c0,2.574,4,2.578,4,0v-23.617c0-1.777.067-3.568-.016-5.344-.188-4.001-1.791-7.82-4.527-10.747C297.376,1.645,292.734.003,287.886.003h-82.174C199.955.003,194.197-.004,188.44.003c-5.485.007-10.553,2.348-13.868,6.771-2.167,2.891-3.257,6.412-3.286,10.011-.016,1.966,0,3.932,0,5.898v74.51c0,2.574,4,2.578,4,0h0Z"></path><path class="g" d="M301.286,82.883v19.275c0,13.591,0,27.182,0,40.773v56.552c0,2.529.235,5.209-.102,7.727-.604,4.526-3.81,8.555-8.091,10.143-2.746,1.019-5.669.81-8.542.81-10.889,0-21.778,0-32.667,0-14.001,0-28.003,0-42.004,0-7.283,0-14.569.067-21.852,0-3.895-.036-7.569-1.747-10.012-4.809-2.156-2.702-2.731-5.855-2.731-9.205v-51.856c0-2.574-4-2.578-4,0v52.635c0,4.264,1.322,8.246,4.112,11.506,3.126,3.652,7.809,5.683,12.585,5.729.575.006,1.151,0,1.726,0h11.101c13.326,0,26.653,0,39.979,0h47.232c7.494,0,14.253-4.488,16.528-11.771.932-2.985.737-6.138.737-9.223v-118.286c0-2.574-4-2.578-4,0h0Z"></path><path class="g" d="M321.48,72.822h0c-.667.667-1.333,1.333-2,2h6.201c2.044,0,5.17.55,6.712-1.106,1.294-1.39,1.054-3.392-.159-4.719-.453-.496-.96-.952-1.436-1.424l-5.688-5.641c-1.405-1.394-2.81-2.787-4.215-4.181l.586,1.414c0-2.533.239-5.229-.524-7.679-1.212-3.897-4.383-7.019-8.328-8.104-2.053-.565-4.234-.431-6.343-.431h-83.387c-2.07,0-4.21-.131-6.232.389-3.924,1.009-7.064,4.031-8.386,7.833-.691,1.988-.627,4.055-.627,6.122v14.803c0,2.785.6,5.465,2.272,7.751,2.305,3.151,5.888,4.974,9.789,5.031,5.097.075,10.201,0,15.299,0h72.278c3.086,0,6.077-.176,8.764-1.991,3.379-2.282,5.356-5.998,5.425-10.067.043-2.575-3.957-2.575-4,0-.067,3.965-2.926,7.386-6.891,7.986-.705.107-1.449.071-2.163.071h-86.283c-.738,0-1.475.004-2.213,0-2.354-.011-4.514-.859-6.14-2.591-1.813-1.932-2.136-4.298-2.136-6.809v-15.636c0-2.796.79-5.377,3.074-7.181,2.342-1.85,5.02-1.711,7.781-1.711h86.111c1.111,0,2.18.044,3.262.381,3.469,1.079,5.58,4.357,5.598,7.902.006,1.265-.07,2.548,0,3.812.053.968.524,1.474,1.145,2.089l5.579,5.533,3.1,3.075c.623.618,1.232,1.399,1.938,1.922.396.294-.006.286.044-.201.073-.711,1.049-.559.211-.641-1.127-.11-2.321,0-3.452,0h-6.565c-1.081,0-2,.916-2,2h0c0,2.574,4,2.578,4,0Z"></path><path class="g" d="M231.043,67.915h58.333c2.092,0,4.097-1.84,4-4s-1.758-4-4-4h-58.333c-2.092,0-4.097,1.84-4,4s1.758,4,4,4h0Z"></path><path class="g" d="M158.515,142.12h0c0-1.081-.916-2-2-2h-9.859c-.153,0-.363-.041-.509,0-.314.088-.174-.309.227.163.463.544-.289,1.037.24.652.335-.243.622-.617.914-.907,2.292-2.273,4.583-4.545,6.875-6.818l2.886-2.863c.635-.629,1.166-1.108,1.225-2.11.125-2.151,0-4.348,0-6.502v-10.216c0-2.034-.25-4.34.292-6.323.981-3.59,4.273-5.955,7.943-6.004,7.7-.101,15.409,0,23.109,0h41.526c8.566,0,17.132-.022,25.698,0,2.454.006,4.696.81,6.403,2.629,1.781,1.898,2.169,4.242,2.169,6.718v17.326c0,5.269.012,10.537,0,15.806-.007,3.214-1.445,6.099-4.336,7.669-1.458.792-3.022.955-4.637.955h-68.57c-7.137,0-14.283.105-21.419,0-4.522-.067-8.101-3.664-8.177-8.177-.043-2.571-4.044-2.579-4,0,.08,4.747,2.813,9.176,7.206,11.105,1.78.781,3.643,1.073,5.571,1.073h8.445c11.658,0,23.315,0,34.973,0h45.504c.651,0,1.31.022,1.959-.023,4.853-.337,9.002-3.426,10.733-7.968.728-1.911.747-3.888.747-5.89v-25.893c0-4.468.657-9.625-1.833-13.578-2.254-3.579-6.157-5.693-10.368-5.751-.577-.008-1.155,0-1.732,0h-66.083c-7.541,0-15.082-.026-22.623,0-6.921.024-12.463,5.395-12.501,12.364-.029,5.322,0,10.646,0,15.968v4.774l.586-1.414c-3.153,3.127-6.305,6.254-9.458,9.38-1.439,1.427-3.548,2.949-2.973,5.272.758,3.061,4.125,2.582,6.518,2.582h7.327l-2-2h0c0,2.574,4,2.578,4,0Z"></path><path class="g" d="M181.376,119.745h58c2.092,0,4.097-1.84,4-4s-1.758-4-4-4h-58c-2.092,0-4.097,1.84-4,4s1.758,4,4,4h0Z"></path><path class="g" d="M181.376,137.745h29.735c2.092,0,4.097-1.84,4-4s-1.758-4-4-4h-29.735c-2.092,0-4.097,1.84-4,4s1.758,4,4,4h0Z"></path><path class="g" d="M75.196,176.039c-3.377.006-6.754.012-10.131.028-1.04.005-2.017,0-2.855.727-.803.697-.932,1.66-.932,2.656,0,1.341,0,2.681.001,4.022,0,1.476.001,2.952.003,4.428.001,1.046.919,2.048,2,2s2.001-.879,2-2c-.002-1.532-.002-3.064-.003-4.596,0-.86,0-1.721,0-2.581,0-.578.123-1.297,0-1.859-.07.738-.475,1.141-1.213,1.209.09,0,.18-.001.27-.002.193-.001.385-.002.578-.003.374-.002.748-.004,1.122-.005.986-.004,1.972-.007,2.958-.01,2.068-.006,4.135-.01,6.203-.014,1.046-.002,2.048-.919,2-2s-.879-2.002-2-2h0Z"></path><path class="g" d="M53.397,169.987c0,5.834.008,11.669.016,17.503.004,2.804.007,5.608.01,8.413,0,1.239.002,2.478.002,3.717,0,1.43.288,2.941,1.881,3.403.877.254,1.912.113,2.815.106,1.083-.008,2.166-.015,3.249-.021,2.272-.013,4.543-.024,6.815-.034,4.879-.021,9.759-.037,14.638-.054,1.071-.004,2.141-.007,3.212-.011,1.125-.004,2.564.222,3.584-.335,1.26-.688,1.399-1.92,1.398-3.207,0-1.401-.003-2.802-.005-4.204-.011-5.826-.032-11.652-.045-17.478-.003-1.402-.006-2.803-.007-4.205-.002-1.362.244-3.016-.1-4.34-.495-1.906-2.264-2.007-3.877-2.006-3.069.003-6.137.008-9.206.013-4.384.008-8.769.017-13.153.031-1.945.006-3.891.013-5.836.022s-4.809-.388-5.318,2.153c-.503,2.514,3.352,3.589,3.857,1.063l-.008.006-.718.718c-.414.064-.464.089-.151.073.136,0,.271-.002.407-.003.29-.002.58-.003.869-.005.646-.004,1.292-.007,1.938-.01,1.401-.006,2.802-.011,4.203-.016,3.227-.011,6.455-.018,9.682-.025,3.002-.006,6.004-.011,9.006-.016,1.125-.002,2.249-.003,3.374-.004.454,0,.908-.001,1.362-.002.181,0,.366.011.546,0,.459-.03.316.191-.086-.078l-.718-.718c-.167-.248-.074.316-.077.377-.015.304,0,.613,0,.918,0,.616,0,1.232.002,1.848.002,1.323.004,2.647.007,3.97.005,2.591.013,5.183.02,7.774.007,2.48.014,4.961.02,7.441.003,1.28.006,2.561.007,3.841,0,.59.002,1.179.002,1.769,0,.291,0,.582,0,.874,0,.126-.096.803.078.545l.718-.718c.347-.234-.135-.074-.433-.073-.334.001-.669.002-1.003.004-.58.002-1.16.004-1.74.006-1.356.005-2.712.009-4.068.014-2.95.01-5.9.02-8.85.032-2.804.011-5.608.023-8.411.037-1.257.007-2.514.014-3.771.022-.572.004-1.145.008-1.717.012-.294.002-.587.004-.881.007-.289.002-.741-.203-.306.086l.718.718c.109.161.075-.932.075-1.186,0-.656,0-1.312-.001-1.968,0-1.191-.002-2.383-.003-3.574-.003-2.603-.006-5.206-.01-7.81-.007-5.139-.013-10.278-.013-15.417,0-2.574-4-2.578-4,0Z"></path><path class="g" d="M59.074,163.219c0,1.287.025,2.574.026,3.862,0,.513.223,1.051.586,1.414.347.347.916.608,1.414.586.517-.023,1.054-.193,1.414-.586s.586-.872.586-1.414c0-1.287-.025-2.574-.026-3.862,0-.513-.223-1.051-.586-1.414-.347-.347-.916-.608-1.414-.586-.517.023-1.054.193-1.414.586s-.586.872-.586,1.414h0Z"></path><path class="g" d="M69.983,163.219c0,1.287.025,2.574.026,3.862,0,.513.223,1.051.586,1.414.347.347.916.608,1.414.586.517-.023,1.054-.193,1.414-.586s.586-.872.586-1.414c0-1.287-.025-2.574-.026-3.862,0-.513-.223-1.051-.586-1.414-.347-.347-.916-.608-1.414-.586-.517.023-1.054.193-1.414.586s-.586.872-.586,1.414h0Z"></path><path class="g" d="M80.893,163.219c0,1.287.025,2.574.026,3.862,0,.513.223,1.051.586,1.414.347.347.916.608,1.414.586.517-.023,1.054-.193,1.414-.586s.586-.872.586-1.414c0-1.287-.025-2.574-.026-3.862,0-.513-.223-1.051-.586-1.414-.347-.347-.916-.608-1.414-.586-.517.023-1.054.193-1.414.586s-.586.872-.586,1.414h0Z"></path><path class="g" d="M94.688,173.332c-1.287,0-2.574.025-3.862.026-.513,0-1.051.223-1.414.586-.347.347-.608.916-.586,1.414.023.517.193,1.054.586,1.414s.872.586,1.414.586c1.287,0,2.574-.025,3.862-.026.513,0,1.051-.223,1.414-.586.347-.347.608-.916.586-1.414-.023-.517-.193-1.054-.586-1.414s-.872-.586-1.414-.586h0Z"></path><path class="g" d="M53.121,173.332c-1.287,0-2.574.025-3.862.026-.513,0-1.051.223-1.414.586-.347.347-.608.916-.586,1.414.023.517.193,1.054.586,1.414s.872.586,1.414.586c1.287,0,2.574-.025,3.862-.026.513,0,1.051-.223,1.414-.586.347-.347.608-.916.586-1.414-.023-.517-.193-1.054-.586-1.414s-.872-.586-1.414-.586h0Z"></path><path class="g" d="M115.719,182.902c2.454-9.415,5.365-18.683,8.807-27.784l-1.397,1.397c2.957-.695,6.305.579,8.782,2.132,2.899,1.818,5.095,4.74,6.448,7.854.729,1.677,1.169,3.452,1.537,5.237.019.091.091.753.041.179.009.099.021.202.02.301,0,.291.018.581.012.872-.014.7-.07,1.393-.233,2.075-.267,1.114-.98,1.969-1.653,2.877-1.069,1.441-2.292,2.703-3.602,3.922-3.979,3.705-7.931,7.44-11.896,11.159-1.881,1.765.951,4.589,2.828,2.828,2.764-2.593,5.527-5.185,8.291-7.778,2.46-2.307,5.042-4.504,7.118-7.175,1.43-1.84,2.628-3.5,2.967-5.866.372-2.603-.018-5.024-.788-7.53-1.711-5.565-5.387-10.721-10.705-13.316-2.454-1.197-5.231-2.041-7.987-1.937-1.467.055-3.023.174-3.64,1.704-.69,1.711-1.295,3.463-1.914,5.201-2.646,7.419-4.907,14.962-6.893,22.583-.65,2.493,3.207,3.556,3.857,1.063h0Z"></path><path class="g" d="M32.085,181.839c-1.759-6.747-3.725-13.437-5.998-20.03-.542-1.573-1.1-3.14-1.672-4.701-.581-1.588-.925-4.052-2.803-4.513-2.529-.62-5.389-.109-7.791.77-5.686,2.082-9.83,6.564-12.111,12.107-1.824,4.433-2.769,9.739.185,13.883,2.105,2.953,4.63,5.335,7.264,7.806,3.124,2.931,6.248,5.862,9.373,8.792,1.876,1.76,4.711-1.063,2.828-2.828-3.485-3.269-6.969-6.538-10.454-9.807-2.264-2.124-4.993-4.391-6.406-7.238-.554-1.116-.541-2.536-.518-3.752.003-.136.014-.274.026-.409-.008.089-.076.483.004.023.081-.464.178-.927.284-1.386.218-.944.482-1.878.803-2.792,1.114-3.181,3.122-6.274,5.811-8.348,2.609-2.012,6.563-3.684,9.906-2.898l-1.397-1.397c3.443,9.101,6.354,18.369,8.807,27.784.649,2.489,4.508,1.434,3.857-1.063h0Z"></path><path class="g" d="M87.694,146.182c5.937,1.259,11.878,2.532,17.772,3.982,2.892.711,5.746,1.568,8.566,2.527,2.661.905,5.274,1.946,7.554,3.62.871.64,2.231.146,2.736-.718.593-1.015.156-2.095-.718-2.736-2.34-1.718-5.073-2.819-7.795-3.776-2.959-1.04-5.969-1.954-9.014-2.708-5.98-1.481-12.012-2.77-18.038-4.048-2.511-.532-3.584,3.323-1.063,3.857h0Z"></path><path class="g" d="M140.78,202.558c-.716-5.899-1.583-11.778-2.605-17.632-.186-1.065-1.491-1.663-2.46-1.397-1.125.309-1.583,1.392-1.397,2.46.96,5.502,1.789,11.025,2.462,16.569.13,1.072.826,2,2,2,.98,0,2.131-.92,2-2h0Z"></path><path class="g" d="M22.355,156.31c2.282-1.675,4.899-2.715,7.562-3.62,2.819-.958,5.672-1.815,8.564-2.527,5.895-1.451,11.837-2.725,17.777-3.982,2.517-.533,1.452-4.39-1.063-3.857-6.028,1.276-12.061,2.565-18.043,4.048-2.984.74-5.932,1.636-8.835,2.646-2.785.969-5.587,2.082-7.979,3.838-.869.638-1.303,1.735-.718,2.736.502.858,1.861,1.36,2.736.718h0Z"></path><path class="g" d="M7.166,202.558c.673-5.544,1.502-11.067,2.462-16.569.185-1.063-.285-2.155-1.397-2.46-.964-.265-2.274.327-2.46,1.397-1.022,5.854-1.888,11.733-2.605,17.632-.13,1.074,1.013,2,2,2,1.189,0,1.869-.923,2-2h0Z"></path><path class="g" d="M53.796,136.067l-.059,6.189c-.024,2.529-.491,5.522,1.503,7.479,1.809,1.775,4.812,2.806,7.188,3.533s4.891,1.116,7.381,1.232c5.184.241,10.324-.376,15.091-2.507,2.733-1.222,5.203-2.702,5.346-5.989s-.064-6.641-.095-9.938c-.025-2.573-4.025-2.579-4,0,.024,2.484.048,4.969.071,7.453.008.873.319,2.358-.141,3.144-.455.779-1.813,1.223-2.59,1.594-4.032,1.922-8.403,2.352-12.812,2.27-2.149-.04-4.269-.315-6.346-.875-1.978-.533-4.469-1.284-6.082-2.6-.625-.51-.548-1.153-.541-1.872l.029-3.046c.019-2.023.039-4.045.058-6.068.025-2.575-3.975-2.577-4,0h0Z"></path><path class="g" d="M40.103,89.546c.512-6.1,3.066-12.053,7.187-16.589,3.883-4.275,8.977-7.053,14.559-8.419s11.844-1.495,17.522-.492c5.592.988,10.962,3.265,15.161,7.152,5.118,4.738,8.343,11.401,8.926,18.348.214,2.547,4.216,2.569,4,0-.594-7.073-3.375-13.777-8.081-19.108-4.34-4.916-10.264-8.211-16.603-9.757s-13.237-1.628-19.649-.491c-6.391,1.133-12.493,3.952-17.213,8.451-5.744,5.476-9.148,13.034-9.809,20.905-.215,2.565,3.786,2.551,4,0h0Z"></path><path class="g" d="M36.55,112.82c2.377,12.45,11.891,23.253,24.478,25.839,6.347,1.304,13.246,1.302,19.643.353s12.248-3.826,16.838-8.384c4.833-4.799,8.225-11.117,9.502-17.808.48-2.515-3.374-3.593-3.857-1.063-2.09,10.943-10.083,20.503-21.162,22.961-2.786.618-5.638.81-8.486.864-3.102.059-6.243.015-9.321-.415-5.824-.814-11.113-3.21-15.305-7.367-4.383-4.347-7.318-9.99-8.474-16.043-.482-2.526-4.338-1.456-3.857,1.063h0Z"></path><path class="g" d="M62.974,98.355c.613,1.991.214,6.57-3.558,6.96-4.985-.03-5.25-5.567-3.572-8.17,1.374-2.131,5.414-3.018,7.13,1.21Z"></path><path class="g" d="M89.157,98.355c.613,1.991.214,6.57-3.558,6.96-4.985-.03-5.25-5.567-3.572-8.17,1.374-2.131,5.414-3.018,7.13,1.21Z"></path><path class="g" d="M105.083,116.064c3.282-.317,7.775-.292,9.649-3.511.953-1.637,1.176-3.834,1.468-5.678.301-1.898.51-3.812.585-5.733.077-1.98.02-3.962-.138-5.937-.138-1.715-.33-3.468-1.319-4.931-2.137-3.162-6.271-2.6-9.618-2.763-2.573-.125-2.567,3.875,0,4,1.494.073,2.989.122,4.482.206.902.051,1.454.157,1.901.916.657,1.116.577,2.694.647,3.939.085,1.521.104,3.047.045,4.569-.113,2.905-.512,5.816-1.242,8.632-.36,1.39-1.263,1.565-2.572,1.793-1.289.225-2.586.371-3.888.497-1.075.104-2,.845-2,2,0,1.001.918,2.104,2,2h0Z"></path><path class="g" d="M38.773,112.064c-1.303-.126-2.599-.272-3.888-.497-1.17-.204-2.128-.347-2.52-1.582-.886-2.792-1.179-5.932-1.293-8.844-.059-1.523-.04-3.048.045-4.569.068-1.22.012-2.693.581-3.813.434-.854,1.008-.988,1.968-1.043,1.493-.085,2.988-.134,4.482-.206,2.562-.124,2.577-4.125,0-4-3.313.161-7.364-.391-9.542,2.656-1.053,1.473-1.254,3.285-1.395,5.038-.159,1.974-.216,3.957-.138,5.937.075,1.921.283,3.835.585,5.733.287,1.809.524,3.872,1.382,5.51,1.773,3.383,6.414,3.358,9.735,3.679,1.077.104,2-.994,2-2,0-1.168-.92-1.896-2-2h0Z"></path></g></g></svg>