<svg id="b" xmlns="http://www.w3.org/2000/svg" width="174.008" height="289.294" viewBox="0 0 174.008 289.294"><defs><style>.g{fill:#211715;}.g,.h,.i{stroke-width:0px;}.h{fill:#fff;}.i{fill:#fcdc4a;}</style></defs><g id="c"><g id="d"><path class="h" d="M2.002,268.081c0,10.609,8.6,19.209,19.209,19.209h131.581c10.609,0,19.209-8.6,19.209-19.209v-18.26c-52.867.015-117.262.03-170,.045v18.215Z"></path><path class="h" d="M172.002,21.22c0-10.609-8.6-19.209-19.209-19.209H21.211C10.602,2.01,2.002,10.611,2.002,21.22v18.266c50.726-.015,131.237-.035,170-.045v-18.221Z"></path><path class="h" d="M71.524,157.161c-12.412,2.597-24.375,6.786-30.298,19.007-1.852,3.82-2.938,9.177.606,12.391,1.794,1.627,4.142,2.479,6.446,3.22,12.491,4.021,24.854,5.651,38.724,5.651,13.87,0,26.233-1.63,38.724-5.651,2.304-.742,4.652-1.594,6.446-3.22,3.543-3.214,2.457-8.571.606-12.391-5.923-12.221-17.886-16.411-30.298-19.007h-30.956Z"></path><path class="h" d="M115.009,108.777c.169.889.289,1.787.359,2.689,1.991.103,3.52.141,4.831.241.467.035.871.243,1.233.484.798.53,1.435,1.495,1.609,3.3.482,5.013.152,9.159-.963,13.684-.119.483-.377.99-.706,1.377-.546.641-1.433.929-2.289,1.079-1.435.253-2.43.385-4.365.563-1.568,6.311-5.599,12.25-11.006,15.8-5.143,3.377-10.6,3.992-16.711,3.992-5.823,0-11.568-.616-16.711-3.992-5.414-3.554-9.447-9.502-11.017-15.82-1.764-.169-2.734-.301-4.106-.543-.855-.151-1.743-.439-2.289-1.079-.329-.386-.587-.893-.706-1.377-1.116-4.525-1.445-8.671-.963-13.684.173-1.804.811-2.769,1.609-3.3.363-.241.766-.448,1.233-.484,1.254-.095,2.708-.134,4.582-.227.15-1.956.539-3.891,1.141-5.758.006-.018.011-.035.017-.053,1.297-3.996,3.568-7.68,6.61-10.581,5.401-5.15,12.782-7.33,20.599-7.214,7.817-.117,15.2,2.063,20.602,7.214,3.042,2.901,5.313,6.584,6.61,10.581.006.018.011.035.017.053.323,1.001.584,2.022.78,3.055Z"></path><path class="h" d="M118.974,133.195c-4.231,0-7.438-4.092-7.438-11.326s3.875-10.839,7.44-10.839c3.625,0,8.451,2.977,8.451,10.839,0,6.837-3.733,11.326-8.453,11.326Z"></path><g id="e"><path class="i" d="M92.269,151.764c.064-.006.128-.011.192-.017-.064.006-.128.011-.192.017Z" style="fill: rgb(255, 138, 21);"></path><path class="i" d="M75.035,150.328c.056.02.111.042.167.061-.056-.019-.111-.041-.167-.061Z" style="fill: rgb(255, 138, 21);"></path><path class="i" d="M93.975,151.558c.11-.016.219-.033.329-.05-.109.017-.219.034-.329.05Z" style="fill: rgb(255, 138, 21);"></path><path class="i" d="M88.633,151.966c.113-.002.227-.005.34-.008-.113.003-.227.005-.34.008Z" style="fill: rgb(255, 138, 21);"></path><path class="i" d="M99.035,150.323c.099-.035.197-.073.295-.11-.098.037-.196.075-.295.11Z" style="fill: rgb(255, 138, 21);"></path><path class="i" d="M97.344,150.858c.088-.024.176-.047.263-.072-.087.025-.176.048-.263.072Z" style="fill: rgb(255, 138, 21);"></path><path class="i" d="M95.799,151.237c.058-.012.116-.027.174-.04-.058.013-.115.027-.174.04Z" style="fill: rgb(255, 138, 21);"></path><path class="i" d="M90.543,151.895c.092-.005.184-.012.276-.018-.092.006-.183.012-.276.018Z" style="fill: rgb(255, 138, 21);"></path><path class="i" d="M78.433,151.263c.037.008.075.013.112.021-.037-.007-.075-.013-.112-.021Z" style="fill: rgb(255, 138, 21);"></path><path class="i" d="M76.643,150.831c.109.03.218.059.327.088-.109-.029-.218-.058-.327-.088Z" style="fill: rgb(255, 138, 21);"></path><path class="i" d="M162.898,39.438c-49.011.018-113.247.036-160.184.054,0,0-.244,0-.712,0v210.382c.455-.001.692-.001.692-.001,49.924-.019,119.383-.038,169.307-.058,0-44.515,0-165.912,0-210.38-2.968.001-6.006.002-9.104.003ZM132.172,188.559c-1.794,1.627-4.142,2.479-6.446,3.22-12.491,4.021-24.854,5.651-38.724,5.651s-26.233-1.63-38.724-5.651c-2.304-.742-4.652-1.594-6.446-3.22-3.543-3.214-2.457-8.57-.606-12.391,5.923-12.221,17.886-16.411,30.298-19.007h1.951c.024-2.465.062-6.465.062-6.465,0,0,.003-.351.007-.948.061.026.123.046.184.071-1.17-.495-2.318-1.092-3.436-1.826-5.414-3.554-9.447-9.502-11.017-15.82-1.764-.169-2.734-.301-4.106-.543-.855-.151-1.743-.439-2.289-1.079-.329-.386-.587-.893-.706-1.377-1.116-4.525-1.445-8.671-.964-13.684.173-1.804.811-2.769,1.609-3.3.363-.241.766-.448,1.233-.484,1.254-.095,2.708-.134,4.582-.227.15-1.956.539-3.891,1.141-5.758.006-.018.011-.035.017-.053,1.297-3.996,3.568-7.68,6.61-10.581,5.401-5.15,12.782-7.33,20.599-7.214,7.817-.117,15.2,2.063,20.602,7.214,3.042,2.901,5.313,6.584,6.61,10.581.006.018.011.035.017.053.323,1.001.584,2.022.78,3.055.169.889.289,1.787.359,2.689.472.024.915.045,1.339.064.744-.326,1.512-.499,2.268-.499,3.625,0,8.451,2.977,8.451,10.839,0,6.837-3.733,11.326-8.453,11.326-1.265,0-2.435-.373-3.458-1.079-.25.025-.511.05-.797.076-1.568,6.311-5.599,12.25-11.006,15.8-.966.634-1.943,1.171-2.933,1.624,0,0,.002,0,.002,0,.023,2.513.047,5.029.071,7.545h1.626c12.412,2.597,24.375,6.786,30.298,19.007,1.852,3.82,2.938,9.177-.606,12.391Z" style="fill: rgb(255, 138, 21);"></path><path class="i" d="M79.958,151.529c.105.016.209.033.315.047-.105-.015-.21-.032-.315-.047Z" style="fill: rgb(255, 138, 21);"></path><path class="i" d="M85.13,151.959c.116.003.231.006.347.008-.116-.002-.231-.005-.347-.008Z" style="fill: rgb(255, 138, 21);"></path><path class="i" d="M83.391,151.884c.078.005.155.011.232.015-.078-.004-.155-.01-.232-.015Z" style="fill: rgb(255, 138, 21);"></path><path class="i" d="M81.749,151.754c.094.009.187.017.281.025-.094-.009-.187-.016-.281-.025Z" style="fill: rgb(255, 138, 21);"></path><path class="i" d="M73.459,158.78l.077-8.084s.003-.351.007-.949c4.262,1.849,8.835,2.237,13.458,2.237,4.965,0,9.497-.406,13.781-2.369.029,3.148.059,6.3.089,9.452.009.957-.48,1.859-1.3,2.354-3.884,2.346-8.114,3.233-12.396,3.14-4.292.093-8.531-.797-12.422-3.156-.818-.496-1.306-1.396-1.297-2.352l.003-.273Z" style="fill: rgb(255, 138, 21);"></path></g></g><g id="f"><path class="g" d="M172.002,37.435c-4.607.002-9.214.003-13.821.005-10.647.003-21.295.007-31.942.01-13.984.005-27.969.009-41.953.014-14.294.005-28.589.01-42.883.015-11.918.004-23.836.008-35.754.013-1.216,0-2.431.002-3.647,0-2.574-.002-2.578,3.998,0,4,11.506.008,23.012-.008,34.518-.012,14.152-.005,28.303-.01,42.455-.015s28.371-.01,42.557-.014c11.19-.004,22.38-.007,33.57-.011,5.488-.002,10.991.116,16.478-.005.141-.003.282,0,.423,0,2.574,0,2.578-4.001,0-4h0Z"></path><path class="g" d="M2.002,251.874c21.668-.044,43.337-.016,65.005-.023,23.173-.008,46.345-.015,69.518-.023,11.826-.004,23.651-.008,35.477-.013,2.574,0,2.578-4.001,0-4-21.864.008-43.728.016-65.592.023-23.153.008-46.307.015-69.46.023-11.649.004-23.299-.01-34.948.013-2.574.005-2.578,4.005,0,4h0Z"></path><path class="g" d="M152.792,285.291h-8.096c-6.847,0-13.694,0-20.542,0H24.623c-1.084,0-2.169.006-3.253,0-4.832-.028-9.388-1.913-12.718-5.442-3.045-3.226-4.623-7.482-4.65-11.893-.004-.64,0-1.281,0-1.922v-10.005c0-5.689,0-11.379,0-17.068v-22.438c0-8.828,0-17.655,0-26.483,0-9.582,0-19.164,0-28.745s0-19.83,0-29.744c0-9.688,0-19.376,0-29.064s0-17.811,0-26.717c0-7.696,0-15.392,0-23.087s0-11.805,0-17.707v-10.957c0-3.785.14-7.403,2.013-10.882,3.016-5.602,8.852-9.072,15.2-9.125.758-.006,1.517,0,2.275,0,5.089,0,10.179,0,15.268,0,8.297,0,16.593,0,24.89,0,9.779,0,19.557,0,29.336,0,9.373,0,18.746,0,28.119,0h21.757c3.268,0,6.537-.022,9.805,0,9.599.065,17.281,7.773,17.337,17.366.012,2.041,0,4.082,0,6.122v86.487c0,9.794,0,19.587,0,29.381v117.575c0,2.271.005,4.541,0,6.812-.022,9.58-7.55,17.438-17.209,17.537-2.572.026-2.579,4.026,0,4,11.722-.12,21.168-9.686,21.209-21.392.007-2.115,0-4.229,0-6.344V60.651c0-6.692,0-13.384,0-20.076v-13.653c0-1.88.014-3.76,0-5.64C173.917,9.6,164.416.097,152.733.01c-3.159-.023-6.318,0-9.477,0-7.261,0-14.521,0-21.782,0-9.497,0-18.994,0-28.49,0-9.823,0-19.647,0-29.47,0-8.386,0-16.771,0-25.157,0-5.036,0-10.071,0-15.107,0-.945,0-1.896-.022-2.841.016C13.485.311,7.075,4,3.324,9.823.606,14.043.002,18.743.002,23.597v107.811c0,10.009,0,20.019,0,30.028S.002,180.772.002,190.44c0,8.891,0,17.782,0,26.674S.002,232.188.002,239.725v16.956c0,3.237,0,6.475,0,9.712,0,.548-.004,1.096,0,1.644.043,5.619,2.227,11.054,6.213,15.04,3.999,3.999,9.444,6.173,15.078,6.213.997.007,1.994,0,2.992,0h100.23c6.848,0,13.696,0,20.544,0h7.734c2.574,0,2.578-4,0-4Z"></path><path class="g" d="M71.537,150.696c-.017,1.797-.034,3.594-.052,5.391-.022,2.296-.365,4.828,1.564,6.528,1.597,1.407,3.984,2.26,5.991,2.875,2.073.635,4.259.964,6.423,1.054,4.468.187,8.858-.383,12.949-2.251,2.259-1.032,4.29-2.34,4.45-5.048.167-2.824-.044-5.72-.071-8.549-.025-2.573-4.025-2.579-4,0,.02,2.134.041,4.268.061,6.402.006.635.244,1.729-.047,2.311-.301.602-1.439.967-2.014,1.244-3.362,1.621-7.006,1.975-10.688,1.91-1.753-.031-3.477-.248-5.174-.694-.892-.234-1.778-.521-2.628-.878-.763-.321-1.946-.722-2.539-1.312-.382-.381-.305-.813-.3-1.314l.024-2.515c.016-1.718.033-3.436.049-5.153.025-2.575-3.975-2.577-4,0h0Z"></path><path class="g" d="M60.632,111.507c.429-5.026,2.525-9.943,5.909-13.693,3.254-3.606,7.525-5.942,12.224-7.081,4.646-1.126,9.836-1.237,14.542-.404,4.775.845,9.343,2.8,12.882,6.173,4.112,3.92,6.701,9.345,7.184,15.004.217,2.546,4.219,2.569,4,0-.507-5.941-2.785-11.532-6.677-16.064-3.63-4.227-8.641-7.097-14.013-8.472-5.486-1.405-11.486-1.484-17.049-.498-5.503.975-10.76,3.435-14.791,7.343-4.818,4.672-7.642,11.04-8.209,17.691-.219,2.565,3.783,2.55,4,0h0Z"></path><path class="g" d="M112.923,131.069c-.287,1.255-.66,2.474-1.11,3.68l.514-.883c-.633.633-.891,1.824-1.283,2.627-.531,1.087-1.132,2.14-1.798,3.15-1.197,1.814-2.643,3.452-4.273,4.888-3.383,2.98-7.612,4.651-12.065,5.166-4.553.526-9.482.549-13.984-.373s-8.454-3.098-11.611-6.454c-3.323-3.533-5.523-7.988-6.432-12.741-.483-2.525-4.339-1.456-3.857,1.063,1.864,9.74,8.963,18.558,18.597,21.43,4.925,1.468,10.336,1.578,15.432,1.239s10.099-1.606,14.323-4.589c4.739-3.347,8.182-8.075,10.286-13.45l-.514.883c.998-.998,1.33-3.243,1.634-4.573.573-2.506-3.282-3.576-3.857-1.063h0Z"></path><path class="g" d="M79.583,118.928c.516,1.677.18,5.535-2.997,5.863-4.199-.025-4.423-4.689-3.009-6.882,1.157-1.795,4.56-2.542,6.006,1.019Z"></path><path class="g" d="M101.64,118.928c.516,1.677.18,5.535-2.997,5.863-4.199-.025-4.423-4.689-3.009-6.882,1.157-1.795,4.56-2.542,6.006,1.019Z"></path><path class="g" d="M114.185,131.361c-2.207,3.143-4.753,5.657-8.145,7.523-3.615,1.988-7.451,2.715-11.538,2.867-2.566.096-2.579,4.096,0,4,4.8-.179,9.314-1.08,13.557-3.413,1.985-1.092,3.842-2.432,5.503-3.974,1.582-1.469,2.842-3.225,4.077-4.984.621-.884.16-2.223-.718-2.736-.999-.584-2.114-.169-2.736.718h0Z"></path><path class="g" d="M116.682,109.53c-.366-.021-.733-.031-1.1-.05-.275-.01-.532.047-.771.172-.248.081-.463.219-.644.414-.195.181-.333.396-.414.644-.125.238-.183.495-.172.771l.071.532c.095.339.266.633.514.883l.405.313c.312.181.648.272,1.009.273.367.019.734.029,1.1.05.275.01.532-.047.771-.172.248-.081.463-.219.644-.414.195-.181.333-.396.414-.644.125-.238.183-.495.172-.771l-.071-.532c-.095-.339-.266-.633-.514-.883l-.405-.313c-.312-.181-.648-.272-1.009-.273h0Z"></path><path class="g" d="M59.197,130.161c-1.069-.103-2.133-.223-3.192-.407-.876-.152-1.609-.198-1.903-1.112-.746-2.319-.984-4.945-1.078-7.366-.05-1.283-.033-2.567.038-3.849.056-1.011.051-2.111.446-3.053.024-.057.263-.445.126-.245.03-.044.454-.392.194-.212.359-.248.635-.241,1.065-.265,1.258-.072,2.517-.113,3.775-.174,2.562-.124,2.577-4.125,0-4-2.927.142-6.397-.301-8.311,2.393-.916,1.29-1.095,2.871-1.218,4.403-.134,1.663-.182,3.333-.117,5.001.064,1.646.246,3.286.504,4.913.246,1.553.455,3.313,1.196,4.717,1.567,2.969,5.547,2.972,8.472,3.255,1.077.104,2-.994,2-2,0-1.168-.92-1.896-2-2h0Z"></path><path class="g" d="M118.974,131.195c-1.247-.021-2.274-.478-3.223-1.519-1.061-1.165-1.634-2.905-1.944-4.508-.705-3.64-.397-8.443,2.492-11.048.872-.786,1.843-1.11,2.85-1.087.922.021,1.94.349,2.974,1.008,1.025.653,2.008,1.936,2.54,3.284.778,1.972.902,4.198.679,6.288-.391,3.675-2.594,7.519-6.369,7.582-2.571.043-2.579,4.043,0,4,10.995-.184,13.715-17.031,6.598-23.5-2.891-2.628-7.283-3.616-10.73-1.448-4.586,2.886-5.726,8.954-5.183,13.972.566,5.227,3.358,10.874,9.315,10.976,2.575.044,2.575-3.956,0-4Z"></path><path class="g" d="M70.992,155.233c-11.773,2.478-23.881,6.845-30.325,17.748-2.936,4.968-5.201,12.455-.25,16.993,2.665,2.442,6.313,3.46,9.696,4.469,3.622,1.08,7.298,1.977,11.01,2.688,15.146,2.9,31.036,3.085,46.289.911,3.73-.532,7.435-1.241,11.094-2.138,3.502-.859,7.082-1.781,10.424-3.15,3.161-1.295,6.004-3.273,7.099-6.653.933-2.88.403-6.158-.657-8.927-2.202-5.749-6.324-10.593-11.376-14.051-4.964-3.398-10.785-5.429-16.581-6.884-1.461-.367-2.93-.696-4.404-1.006-2.511-.529-3.585,3.326-1.063,3.857,10.369,2.183,21.454,5.679,27.45,15.118,2.549,4.014,5.364,10.654.154,13.815-2.715,1.646-6.059,2.407-9.093,3.24-3.28.901-6.601,1.651-9.948,2.252-13.785,2.474-28.323,2.629-42.195.762-6.743-.908-13.427-2.423-19.89-4.551-2.455-.809-5.541-1.892-6.543-4.531-.897-2.362-.167-5.194.792-7.418,5.114-11.852,17.694-16.227,29.381-18.687,2.517-.53,1.452-4.387-1.063-3.857h0Z"></path><path class="g" d="M91.391,143.588c-.144-2.046,1.418-3.42,4.187-3.517,2.788-.098,4.201,1.013,4.285,2.622.085,1.622-1.207,3.584-3.997,3.767-2.519.165-4.359-1.035-4.475-2.871Z"></path><path class="g" d="M93.391,143.588c-.009-.164-.003-.325-.001-.489.005-.375-.111.52-.024.161.014-.059.024-.119.04-.178.022-.087.052-.171.079-.257.051-.165.163-.167-.1.232.094-.143.185-.307.272-.454-.305.52-.133.17.047.003.361-.336-.389.246.04-.034.14-.091.287-.165.434-.244s.244-.023-.191.076c.103-.023.205-.077.307-.11.182-.058.367-.107.554-.146.094-.02.276-.019.357-.065-.035.02-.509.048-.156.024.499-.035.994-.057,1.494-.018.039.003.203.038.253.024l-.289-.039c.078.012.155.025.233.04.181.035.361.079.538.133.066.021.131.046.198.066.369.115-.442-.228-.113-.048.148.081.289.175.436.255.204.111-.386-.37-.166-.126.037.04.084.076.123.115.051.052.106.143.165.183-.387-.263-.249-.37-.17-.21.033.067.079.145.121.207.098.146-.047.239-.103-.26.014.125.085.345.13.466-.171-.457-.041-.464-.037-.243.001.068.007.135.007.203,0,.054-.005.108-.005.162,0,.267-.153.195.035-.204-.055.117-.059.287-.097.412-.017.055-.037.109-.054.164-.103.327.254-.484.046-.114-.067.118-.127.239-.202.353-.106.163-.293.273.094-.105-.044.043-.082.098-.123.144-.109.121-.23.228-.348.34-.276.26.413-.269.084-.066-.089.055-.174.115-.265.168-.078.045-.159.083-.237.127-.15.084-.365.092.121-.043-.189.052-.369.131-.56.18-.08.02-.16.039-.241.055-.191.039-.473-.019.021.009-.239-.013-.493.039-.734.038-.206,0-.497-.082-.694-.038l.291.039c-.078-.012-.156-.026-.234-.041-.113-.023-.226-.049-.337-.079-.09-.025-.179-.052-.268-.082-.052-.017-.104-.035-.155-.055-.195-.077-.135-.052.181.077-.137-.108-.34-.187-.493-.276-.172-.101-.185-.248.127.107-.062-.071-.147-.127-.214-.194-.063-.063-.122-.156-.191-.21.12.093.282.404.095.102-.04-.064-.069-.141-.113-.202-.07-.141-.035-.052.106.266-.023-.058-.044-.116-.063-.176-.019-.06-.036-.12-.051-.181-.122-.504.028.407,0,.056-.084-1.04-.86-2.051-2-2-1.012.045-2.09.883-2,2,.099,1.228.541,2.382,1.458,3.24.861.805,1.984,1.338,3.148,1.514,2.646.399,5.332-.295,6.943-2.544,1.282-1.789,1.223-4.301-.216-5.966-1.614-1.867-4.579-1.995-6.821-1.564-2.576.495-4.666,2.594-4.51,5.321.059,1.043.877,2.05,2,2,1.033-.046,2.064-.881,2-2Z"></path></g></g></svg>