<svg xmlns="http://www.w3.org/2000/svg" width="457.736" height="344.501" viewBox="0 0 457.736 344.501"><defs><style>.a{fill:#fff;}.b{fill:#fcdc4a;}.c{fill:#211715;}</style></defs><path class="a" d="M197.4,193.374c16.5-18.311,27.05-43.146,27.05-73.658,0-76.532-48.258-117.335-111.008-117.335S2.434,43.184,2.434,119.716c0,69.99,55.5,110.118,111.008,110.118a115.542,115.542,0,0,0,66.975-21.3c6.406,3.622,22.076,11.713,29.478,15.058C206.255,213.77,201.5,202.525,197.4,193.374Z"></path><path class="a" d="M290.538,118.709c7.444-6.1,15.457-13.7,22.791-20.907-.312,2.638-1.405,7.147-1.582,9.876-.071,1.1.163,1.476,1,1.87a3.817,3.817,0,0,0,2.22-.1,53.184,53.184,0,0,0,26.512-19.3c1.451,5.578,3.511,12.52,5.3,15.9,4.432,8.368,11.955,15.417,18.642,17.457a6.219,6.219,0,0,1,4.5-1.627,5.766,5.766,0,0,1,5.167,2.9c1.747,3.058,1.651,8.681.456,12.155-.846,2.461-2.23,6.224-5.544,8.914a6.845,6.845,0,0,1-5.286,1.5l-.506-.088a40.2,40.2,0,0,1-1.836,4.924c-1.336,3.583-8.6,16-17.8,21.1.032,1.919-.026,2.615.15,5.031a11.8,11.8,0,0,0,.566,3.32,8.1,8.1,0,0,0,2.434,3.542c2.472,1.992,5.014,2.944,8.144,4.122l3.265,1.285c-8.261,5.633-21.9,8.8-33.462,9.06-11.4-.26-24.872-3.343-33.146-8.842l3.82-1.5c3.13-1.178,5.672-2.13,8.144-4.122a8.1,8.1,0,0,0,2.434-3.542,11.8,11.8,0,0,0,.566-3.32c.163-2.24.125-3,.143-4.629A35.773,35.773,0,0,1,295.8,163.9a47.23,47.23,0,0,1-8.9-16.949,6.714,6.714,0,0,1-5.707-1.451c-3.293-2.716-4.648-6.49-5.475-8.958-1.168-3.483-1.22-9.106.551-12.151a5.766,5.766,0,0,1,5.19-2.857,6.34,6.34,0,0,1,3.946,1.2C287.074,121.491,288.791,120.142,290.538,118.709Z"></path><path class="a" d="M249.878,222.68a69.77,69.77,0,0,0-5.235,21.226c-1.46,15.06-1.92,24.75-3.5,46.481H375.8l23.39-9.2c11.111-6.645,9.583-21.472,9.973-37.276a46.042,46.042,0,0,0-8.93-28.08c-8.763-12.367-22.7-18.262-39.411-26.506-7.978,6.424-22.76,10.046-35.164,10.325-11.9-.271-26.053-3.617-34.2-9.577-16.018,7.871-29.808,13.486-37.891,25.758A46.334,46.334,0,0,0,249.878,222.68Z"></path><path class="a" d="M327.4,241.9c-28.574.207-57.009.373-67.106.407a2.9,2.9,0,0,0-2.894,2.916c.059,16.4.85,73.175,1.453,94.042a2.907,2.907,0,0,0,2.956,2.822c9.125-.141,37.386-.054,65.591.042,28.206-.1,56.466-.183,65.591-.042a2.908,2.908,0,0,0,2.957-2.822c.6-20.867,1.394-77.638,1.452-94.042a2.9,2.9,0,0,0-2.894-2.916C384.414,242.271,355.978,242.105,327.4,241.9Z"></path><path class="a" d="M341.916,167.341l.167.047c7.044,1.981,15.716,6.781,18.962,12.318,3.336,7.954,2.465,15.675,4.035,24.72.627,3.617,2.432,5.758,3.115,8.036a91.133,91.133,0,0,1-20.472,6.163,13.71,13.71,0,0,1-7.3-7.424c-.861-2.237-1-6.159-.843-8.4-2.435.071-4.623,0-7.1-.08-2.425-.083-3.226-1.7-3.53-3.466a5.238,5.238,0,0,1,1.007-3.778s.192-.233.459-.551c-1.656.15-3.3-1.8-3.691-3.777a3.643,3.643,0,0,1,1.855-4.033l-.259-.032c-2.3-.277-3.411-2.624-3.583-3.944a4.519,4.519,0,0,1,3.39-5.3c-2.3-3.938.467-6.122,4.189-8.734,1.92-1.348,4.534-2.737,6.206-2.493A28.293,28.293,0,0,1,341.916,167.341Z"></path><path class="a" d="M147.269,169.5v.81c-7.69,0-15.69.01-23.7.02v-38.31h23.7Z"></path><path class="a" d="M108.869,169.5v.84c-8.18,0-16.18,0-23.7.02v-68.34h23.7Z"></path><path class="a" d="M70.479,169.5v.86c-9.66,0-17.87.01-23.7.01V72.016h23.7Z"></path><path class="b" d="M284.353,193.521c2.313-1.121,4.683-2.259,7.111-3.453.341.25.707.488,1.069.728l3.8-1.5c3.13-1.178,5.672-2.13,8.144-4.122a8.11,8.11,0,0,0,2.434-3.542,11.8,11.8,0,0,0,.566-3.32c.163-2.24.125-3,.143-4.629A35.773,35.773,0,0,1,295.8,163.9a47.23,47.23,0,0,1-8.9-16.949,6.714,6.714,0,0,1-5.707-1.451c-3.293-2.716-4.648-6.49-5.475-8.958-1.168-3.483-1.22-9.106.551-12.151a5.766,5.766,0,0,1,5.19-2.857,6.34,6.34,0,0,1,3.946,1.2c1.668-1.243,3.385-2.592,5.132-4.025,7.444-6.1,15.457-13.7,22.791-20.907-.312,2.638-1.405,7.147-1.582,9.875-.071,1.1.163,1.477,1,1.871a3.821,3.821,0,0,0,2.221-.1,53.19,53.19,0,0,0,26.511-19.3c1.451,5.578,3.511,12.52,5.3,15.9,4.432,8.368,11.955,15.417,18.642,17.457a6.219,6.219,0,0,1,4.5-1.627,5.766,5.766,0,0,1,5.167,2.9c1.747,3.058,1.651,8.681.456,12.155-.846,2.461-2.23,6.224-5.544,8.914a6.845,6.845,0,0,1-5.286,1.5l-.506-.088a40.2,40.2,0,0,1-1.836,4.924c-1.106,2.968-6.288,11.991-13.264,17.9,5.01,2.43,9.732,5.854,11.941,9.621a38.272,38.272,0,0,1,2.578,10.987c2.188,1.069,4.326,2.107,6.406,3.132A16.546,16.546,0,0,0,384.315,182.7c2.167-6.731-.527-15.455-2.534-22.235a130.793,130.793,0,0,1-5.01-35.715c.23-7.023-.26-15.349-.51-18.835-.867-12.085-6.307-25.58-14.135-33.08-3.117-2.987-4.2-4.507-7.227-6.28l-6.991-3.465a57.021,57.021,0,0,0-22.8-4.367c-15.708,0-29.688,8.092-35.892,14.031-10.292,9.853-16.82,27.85-16,52.668,0,16.82-1.378,28.95-3.31,35.847a81.509,81.509,0,0,0-2.483,17.372C267.375,185.022,273.9,193.664,284.353,193.521Z" style="fill: rgb(255, 138, 21);"></path><path class="b" d="M185.661,159.669v-2.654h-23.7V170.29c8.817-.007,16.9-.016,23.706-.026C185.663,166.3,185.662,162.233,185.661,159.669Z" style="fill: rgb(255, 138, 21);"></path><path class="c" d="M350.815,171.812a55.484,55.484,0,0,0,11.326-13.882c.518-.875,1.015-1.763,1.471-2.672q.274-.548.526-1.106c.131-.294.253-.593.378-.889.041-.1.26-.607.014-.037A43.7,43.7,0,0,0,367.282,145c.639-3.013-3.987-4.3-4.628-1.276a39.357,39.357,0,0,1-2.359,7.267c-.112.256-.215.516-.32.775-.052.131.216-.448-.02.044-.163.341-.318.684-.487,1.022-.456.909-.953,1.8-1.471,2.673a51.48,51.48,0,0,1-10.576,12.91,2.421,2.421,0,0,0,0,3.394,2.449,2.449,0,0,0,3.394,0Z"></path><path class="c" d="M283.81,144.555a50.3,50.3,0,0,0,10.851,21.723c5.148,6.015,11.8,10.8,19.761,12.014a2.476,2.476,0,0,0,2.952-1.676,2.418,2.418,0,0,0-1.676-2.953c-7.251-1.108-12.957-5.3-17.643-10.78a45.258,45.258,0,0,1-9.617-19.6c-.672-3.014-5.3-1.739-4.628,1.276Z"></path><path class="c" d="M320.377,160.533c.291-.155.584-.3.882-.444.514-.246-.512.181.079-.031.216-.078.43-.156.649-.224a13.851,13.851,0,0,1,1.809-.414c.463-.079-.258.014.058-.007.178-.012.356-.037.535-.051q.646-.049,1.3-.055.6-.006,1.209.026c.185.01.371.022.556.039.076.006.78.1.185.009a12.325,12.325,0,0,1,1.79.4c.242.075.492.209.739.262-.064-.014-.5-.239-.224-.091.1.054.21.1.313.153.151.078.3.162.444.252.2.125.739.537-.015-.046a2.467,2.467,0,0,0,3.394,0c.788-.858,1.061-2.574,0-3.394a13.067,13.067,0,0,0-8.141-2.406,16.589,16.589,0,0,0-7.981,1.883,2.42,2.42,0,0,0-.861,3.283,2.452,2.452,0,0,0,3.284.861Z"></path><path class="c" d="M324.618,140.56a36.657,36.657,0,0,1,.846,3.944l-.086-.638a2.357,2.357,0,0,1,.012.544l.086-.638a1.263,1.263,0,0,1-.061.244l.242-.573a.964.964,0,0,1-.087.157l.376-.486a.867.867,0,0,1-.13.127l.486-.375a2.642,2.642,0,0,1-.312.163l.573-.241a2.3,2.3,0,0,1-.527.151l.638-.086a2.093,2.093,0,0,1-.494,0l.638.086c-.186-.027-.368-.073-.554-.1a1.812,1.812,0,0,0-.957-.043,1.778,1.778,0,0,0-.893.285,2.4,2.4,0,0,0-.861,3.283,2.3,2.3,0,0,0,1.435,1.1c.457.064.9.178,1.366.2a4.41,4.41,0,0,0,2.058-.492,3.048,3.048,0,0,0,1.669-2,4.864,4.864,0,0,0-.015-2.114c-.21-1.27-.5-2.529-.82-3.776a2.4,2.4,0,0,0-4.628,1.276Z"></path><path class="c" d="M304.19,129.212c-.666,2.136-.256,7.056,3.793,7.491,5.355-.011,5.663-5.958,3.871-8.761C310.387,125.647,306.052,124.678,304.19,129.212Z"></path><path class="c" d="M347.068,129.379c.65,2.141.2,7.058-3.851,7.461-5.354-.053-5.616-6-3.8-8.791C340.9,125.766,345.242,124.83,347.068,129.379Z"></path><path class="c" d="M367.118,125.22a4.133,4.133,0,0,1,3.74-.794,3.72,3.72,0,0,1,1.42.654c-.131-.1.758.921.449.471,1.454,2.118,1.432,5.112,1.2,7.564a18.69,18.69,0,0,1-2.3,6.994c-1.432,2.618-3.635,5.3-6.911,4.858a2.411,2.411,0,0,0-2.4,2.4,2.463,2.463,0,0,0,2.4,2.4c7.1.949,11.446-6.758,13.242-12.474,1.6-5.09,1.61-12.973-3.253-16.357a9.1,9.1,0,0,0-10.976.89c-2.318,2.052,1.087,5.436,3.394,3.394Z"></path><path class="c" d="M287.643,121.517a9.161,9.161,0,0,0-10.083-1.456,8.862,8.862,0,0,0-4.521,6.07,22.588,22.588,0,0,0,3.248,17.413c2.252,3.405,5.828,6.466,10.182,5.918a2.477,2.477,0,0,0,2.4-2.4,2.414,2.414,0,0,0-2.4-2.4c-3.214.4-5.368-2.2-6.78-4.773a18.7,18.7,0,0,1-2.322-7.169c-.217-2.463-.181-5.332,1.212-7.472q.141-.2-.072.079.1-.131.222-.252c.062-.061.547-.506.364-.367a3.69,3.69,0,0,1,1.426-.638,4.123,4.123,0,0,1,3.729.841c2.292,2.06,5.7-1.324,3.395-3.394Z"></path><path class="c" d="M339.284,91.283c1.943,7.348,4.014,14.726,8.518,20.963,4.231,5.857,9.947,11.372,16.981,13.591,2.952.932,4.216-3.7,1.276-4.628-6.024-1.9-11.082-7-14.6-12.068-3.982-5.748-5.783-12.446-7.551-19.134-.789-2.984-5.42-1.718-4.629,1.276Z"></path><path class="c" d="M339.367,89a51.944,51.944,0,0,1-16.913,14.677,47.336,47.336,0,0,1-5.128,2.4c-.864.34-1.736.665-2.62.951-.073.023-1.22.238-1.243.265.145-.168.883.765.641.652.058.2.072.12.044-.246q.021-.306.052-.611c.035-.361.086-.717.141-1.075.134-.886.3-1.767.462-2.648.342-1.843.694-3.681.927-5.542.272-2.167-2.745-3.024-4.1-1.7-7.394,7.26-14.9,14.438-22.92,21.013a2.418,2.418,0,0,0,0,3.4,2.456,2.456,0,0,0,3.394,0c8.017-6.576,15.526-13.754,22.92-21.013l-4.1-1.7c-.379,3.023-1.312,6.378-1.559,9.577a4.08,4.08,0,0,0,2.033,4.176c1.816,1,3.9.336,5.71-.311a55.709,55.709,0,0,0,18.243-10.823,60,60,0,0,0,8.154-9.019,2.415,2.415,0,0,0-.861-3.284,2.457,2.457,0,0,0-3.283.861Z"></path><path class="c" d="M374.368,124.775a138.714,138.714,0,0,0,4.194,33.116c1.276,4.859,2.959,9.61,3.774,14.582.694,4.23.652,8.717-1.683,12.451a14.3,14.3,0,0,1-10.615,6.531,2.465,2.465,0,0,0-2.4,2.4,2.417,2.417,0,0,0,2.4,2.4,19.418,19.418,0,0,0,12.43-5.9,18.977,18.977,0,0,0,5.052-13.3c-.007-5.347-1.478-10.613-2.981-15.7a128.088,128.088,0,0,1-3.845-16.839,144.761,144.761,0,0,1-1.526-19.742c-.047-3.086-4.848-3.095-4.8,0Z"></path><path class="c" d="M353.689,68.652a21.435,21.435,0,0,1,4.2,3.386c1.465,1.463,3,2.872,4.37,4.424a43,43,0,0,1,6.5,10.229,61.28,61.28,0,0,1,5.348,23.086c.272,4.992.423,10,.27,15-.1,3.089,4.7,3.086,4.8,0,.143-4.654.019-9.315-.215-13.963a85.2,85.2,0,0,0-1.21-11.767,56.339,56.339,0,0,0-11.161-24.873A72.509,72.509,0,0,0,361.54,68.9a27.893,27.893,0,0,0-5.428-4.4c-2.659-1.587-5.076,2.562-2.423,4.145Z"></path><path class="c" d="M348.547,60.8a61.061,61.061,0,0,0-25.41-4.41A58.086,58.086,0,0,0,297.6,63.85a45.637,45.637,0,0,0-14.85,12.742,57.594,57.594,0,0,0-8.8,18.942,100.871,100.871,0,0,0-3.123,29.912c.1,3.081,4.9,3.095,4.8,0-.471-14.986,1.351-31.178,9.64-44.066a38.591,38.591,0,0,1,12.229-11.9A54.126,54.126,0,0,1,319.9,61.438a56.649,56.649,0,0,1,27.373,3.99,2.414,2.414,0,0,0,2.952-1.676,2.458,2.458,0,0,0-1.676-2.952Z"></path><path class="c" d="M270.818,125.445c-.009,11.118-.184,22.651-2.779,33.492a107.217,107.217,0,0,0-2.819,16.026,21.263,21.263,0,0,0,.254,7.127,17.214,17.214,0,0,0,3.02,6.1,19.676,19.676,0,0,0,15.864,7.745c3.088-.013,3.094-4.813,0-4.8a14.875,14.875,0,0,1-11.911-5.622,12.724,12.724,0,0,1-2.377-4.823,6.876,6.876,0,0,1-.238-2.328c.02-1.258.109-2.515.22-3.768a103.94,103.94,0,0,1,2.67-14.609,99.192,99.192,0,0,0,2-13.249c.675-7.074.888-14.188.894-21.291,0-3.089-4.8-3.094-4.8,0Z"></path><path class="c" d="M305.219,174.384c0,1.028-.02,2.055-.081,3.083-.039.659-.078,1.321-.151,1.979a4.374,4.374,0,0,1-.14.76q-.066.276-.153.546c-.115.294-.132.354-.051.178a8.375,8.375,0,0,1-.853,1.56q-.249.354-.084.115-.165.194-.344.374a6.975,6.975,0,0,1-.578.523q.183-.131-.171.129-.217.159-.441.312-.437.3-.89.571c-.521.313-1.057.6-1.6.866-2.459,1.2-5.488,2.22-8.268,3.314a2.473,2.473,0,0,0-1.676,2.953,2.417,2.417,0,0,0,2.952,1.676,97.231,97.231,0,0,0,10.11-4.152,17.557,17.557,0,0,0,3.776-2.618,10.9,10.9,0,0,0,2.559-4.014c.987-2.492.874-5.5.888-8.155a2.4,2.4,0,0,0-4.8,0Z"></path><path class="c" d="M342.219,121.3q.855.266,1.68.611l-.573-.242a18.575,18.575,0,0,1,3.679,2.079,2.421,2.421,0,0,0,1.85.242,2.448,2.448,0,0,0,1.434-1.1,2.422,2.422,0,0,0,.242-1.849l-.242-.573a2.416,2.416,0,0,0-.861-.861,20.426,20.426,0,0,0-5.933-2.933,2.422,2.422,0,0,0-2.952,1.677,2.451,2.451,0,0,0,1.676,2.952Z"></path><path class="c" d="M291.206,192.827a53.946,53.946,0,0,0,17.4,7.023,69.045,69.045,0,0,0,20.382,2.055,2.457,2.457,0,0,0,2.4-2.4,2.42,2.42,0,0,0-2.4-2.4,64.4,64.4,0,0,1-19.106-1.884,50.048,50.048,0,0,1-16.253-6.538c-2.582-1.711-4.989,2.444-2.423,4.144Z"></path><path class="c" d="M200.388,292.805h57.54c3.088,0,3.094-4.8,0-4.8h-57.54c-3.089,0-3.094,4.8,0,4.8Z"></path><path class="c" d="M396.888,292.805h58.53c3.088,0,3.094-4.8,0-4.8h-58.53c-3.089,0-3.094,4.8,0,4.8Z"></path><path class="c" d="M243.544,290.407c1.072-14.759,1.908-29.54,3.29-44.276.778-8.3,2.323-16.621,6.021-24.164a42.253,42.253,0,0,1,14.327-16.274c7.693-5.291,16.344-9.058,24.7-13.143a2.423,2.423,0,0,0,.861-3.284,2.45,2.45,0,0,0-3.283-.861c-14.453,7.063-30.7,13.638-39.186,28.209-8.072,13.863-8.47,30.4-9.591,45.984-.667,9.269-1.269,18.542-1.942,27.809a2.421,2.421,0,0,0,2.4,2.4,2.446,2.446,0,0,0,2.4-2.4Z"></path><path class="c" d="M362.416,192.787q1.944.949,3.886,1.9c1.1.539,2.507,1.57,3.746,1.57l-1.212-.328c6.544,3.229,13.11,6.559,19.013,10.881a46.942,46.942,0,0,1,13.117,14.632,43.033,43.033,0,0,1,5.811,20.705c.053,3.665-.079,7.346-.128,11.011-.046,3.424-.13,6.856-.5,10.262-.671,6.159-2.626,12.333-8.163,15.715-2.632,1.607-.223,5.76,2.423,4.144,12.713-7.765,10.894-25.107,11.128-37.924a49.648,49.648,0,0,0-18.552-40.6,80.873,80.873,0,0,0-10.678-7.192c-1.885-1.078-3.8-2.1-5.728-3.1q-1.593-.823-3.2-1.622c-.984-.492-2.227-1.381-3.344-1.381l1.211.328c-2.133-1.055-4.272-2.1-6.41-3.14a2.463,2.463,0,0,0-3.284.861,2.422,2.422,0,0,0,.861,3.283Z"></path><path class="c" d="M260.3,239.926a5.5,5.5,0,0,0-4.52,2.545,6.713,6.713,0,0,0-.77,3.674q.012,2.359.031,4.719.052,6.354.128,12.709.188,16.332.445,32.662.248,15.9.571,31.794.067,3.171.144,6.342a35.667,35.667,0,0,0,.245,5.887,5.434,5.434,0,0,0,5.607,4.243c.588,0,1.176-.011,1.764-.015,4.833-.033,9.666-.039,14.5-.049q11.625-.022,23.251-.028,13.666-.01,27.331-.009,13.6,0,27.2.011,11.176.009,22.353.031c4.415.01,8.83.013,13.246.051a8.782,8.782,0,0,0,2.938-.284,5.329,5.329,0,0,0,3.445-3.79,14.907,14.907,0,0,0,.2-3.062q.168-6.277.289-12.557.333-16.358.566-32.717.24-15.95.419-31.9.065-5.873.108-11.744c.013-1.914.3-4.1-.678-5.827a5.685,5.685,0,0,0-5.254-2.687q-6.2-.015-12.4-.012-10.971-.006-21.941-.008-13.471,0-26.945,0-13.868,0-27.735,0-12.163,0-24.325.006-8.181,0-16.361.011-1.923,0-3.845.007c-3.088.011-3.094,4.811,0,4.8,3.553-.012,7.105-.01,10.658-.013q10.145-.006,20.29-.008,12.865,0,25.732,0,13.694,0,27.387,0l24.87,0q9.147,0,18.294.01,2.7,0,5.394.006a9.188,9.188,0,0,1,1.565,0c.917.171.508,2.389.5,3.172-.054,8.572-.162,17.143-.272,25.714q-.215,16.572-.493,33.142c-.16,9.5-.328,19-.566,28.5q-.033,1.3-.068,2.6c-.013.47.16,1.477-.255,1.772-.312.222-1.194.068-1.586.065q-2.559-.021-5.119-.027-8.886-.035-17.772-.04-12.3-.018-24.61-.021-13.6-.006-27.2,0-12.81,0-25.619.017-9.927.011-19.854.036-3.218.009-6.435.024l-2.15.015c-.392,0-1.228.145-1.528-.084-.431-.329-.235-1.439-.249-1.952q-.034-1.31-.067-2.619-.077-3.05-.142-6.1-.157-7.211-.284-14.422-.3-16.563-.524-33.127-.2-14.306-.338-28.612-.021-2.4-.038-4.79c0-.662-.4-3.207.48-3.261C263.368,244.539,263.39,239.738,260.3,239.926Z"></path><path class="c" d="M271.067,332.442c13.781-.086,27.564-.013,41.345.029,16.7.051,33.4-.025,50.1-.051,6.589-.01,13.177-.019,19.766.022,3.089.019,3.093-4.781,0-4.8-13.478-.084-26.957-.012-40.434.03-16.864.053-33.726-.028-50.59-.052-6.728-.01-13.457-.02-20.186.022-3.088.019-3.1,4.819,0,4.8Z"></path><path class="c" d="M318.3,284.805q-.006,2.819,0,5.636c0,2.119-.288,4.447,1.358,6.082,1.6,1.587,3.788,1.325,5.843,1.323q2.775,0,5.55,0a6.067,6.067,0,0,0,3.113-.586,4.56,4.56,0,0,0,2.182-2.863,14.523,14.523,0,0,0,.149-3.093q0-1.484,0-2.968,0-1.357,0-2.713a5.758,5.758,0,0,0-.687-3.22,4.527,4.527,0,0,0-3.188-2.082,19.542,19.542,0,0,0-2.607-.074h-6.193a5.842,5.842,0,0,0-3.43.734,4.712,4.712,0,0,0-2.089,3.821,2.417,2.417,0,0,0,2.4,2.4,2.452,2.452,0,0,0,2.4-2.4c.027-.61-.142.486.037-.078l-.1.251q.213-.333-.069.062c.158-.1.267-.126-.087.037.5-.228-.488.008.07-.044-.678.063.247.017.415.017h7.879a2.95,2.95,0,0,1,.871.008l-.279-.025c.256.083.229.067-.079-.046.492.2-.342-.2.062.053l-.16-.212c.129.231.126.2-.006-.1.173.545.05-.514.037.078-.007.305,0,.611,0,.917q0,1.143,0,2.287,0,2.365-.01,4.73a2.23,2.23,0,0,1,0,.567l.052-.27a2.19,2.19,0,0,1-.092.347c.1-.1.069-.464,0-.1l.158-.213q-.288.269.085-.039c-.549.143.382-.063.014.016-.352.075.6.023.007.007-.348-.01-.7,0-1.045,0q-2.266-.006-4.533,0l-2.219,0-.9,0a1.637,1.637,0,0,1-.519-.007q.457.071.194,0t.164.073c-.54-.228.412.272-.065-.05.186.264.209.285.066.063l.1.252-.053-.17q-.087-.4.012.093c-.072-.065,0-.654,0-.763q-.007-1.27-.008-2.542,0-2.6,0-5.2a2.4,2.4,0,0,0-4.8,0Z"></path><path class="c" d="M345.487,221.419a86.893,86.893,0,0,0,23.409-6.627,2.416,2.416,0,0,0,.861-3.283,2.457,2.457,0,0,0-3.283-.861,82.9,82.9,0,0,1-22.263,6.142,2.414,2.414,0,0,0-1.676,2.952,2.464,2.464,0,0,0,2.952,1.677Z"></path><path class="c" d="M370.557,212.029c-.705-2.423-2.224-4.5-2.881-6.947a54.007,54.007,0,0,1-1.221-9.583c-.252-3.086-.5-6.178-1.042-9.231-.493-2.795-1.145-6.109-2.762-8.49-2.888-4.253-7.419-7.309-11.961-9.563a47.155,47.155,0,0,0-7.312-2.929c-2.363-.714-4.987-1.475-7.422-.732a22.85,22.85,0,0,0-8.444,5.281,7.135,7.135,0,0,0-1.8,8.6A2.415,2.415,0,0,0,329,179.3a2.461,2.461,0,0,0,.861-3.283c-.674-1.556.921-2.781,2.239-3.794,1.617-1.243,3.851-3.091,5.98-3.212,1.53-.087,3.994.861,5.638,1.435a40.613,40.613,0,0,1,6.014,2.68,32.872,32.872,0,0,1,5.452,3.6,15.143,15.143,0,0,1,3.716,4.054c1.248,2.33,1.7,5.419,2.085,8s.54,5.2.758,7.8a55.855,55.855,0,0,0,1.3,9.779c.659,2.45,2.193,4.584,2.88,6.947.861,2.961,5.494,1.7,4.629-1.276Z"></path><path class="c" d="M339.813,172.957c-2.753.518-5.5,1.083-8.234,1.678-2.553.555-5.467.827-7.385,2.8-3.51,3.615-1.9,11.17,3.485,11.981a2.465,2.465,0,0,0,2.952-1.677c.26-1.142-.348-2.752-1.676-2.952a4.139,4.139,0,0,1-.808-.195c.382.139.054-.011-.126-.111-.433-.238.182.248-.108-.1-.092-.109-.532-.727-.221-.222-.1-.154-.2-.3-.284-.46-.068-.123-.261-.635-.051-.047-.081-.226-.352-.758-.29-1.007.043.35.055.423.036.221-.009-.1-.015-.193-.019-.289a5.055,5.055,0,0,0,.012-.661c.015-.184,0-.125-.033.177.02-.12.044-.239.073-.358.043-.178.1-.345.158-.519-.184.572.039-.013.111-.153.045-.078.1-.154.147-.227q-.29.363-.029.059c.142-.128.265-.266.413-.388-.428.352.151-.063.262-.123.092-.051.187-.1.283-.143q-.357.15.049,0c.233-.06.461-.133.7-.188.576-.136,1.156-.252,1.734-.378q1.533-.334,3.066-.667,3.522-.756,7.063-1.424a2.423,2.423,0,0,0,1.676-2.953,2.451,2.451,0,0,0-2.952-1.676Z"></path><path class="c" d="M340.771,182.026c-2.5.517-5.018.928-7.524,1.405s-5.344.794-7.242,2.657a6.211,6.211,0,0,0-1.487,6.166,7.805,7.805,0,0,0,2.322,3.714,5.7,5.7,0,0,0,2.112,1.2,6.232,6.232,0,0,0,2.758,0c1.345-.2,2.688-.417,4.034-.614.343-.05.687-.1,1.03-.147-.036.006-.392.051-.1.014l.554-.071c.848-.107,1.7-.2,2.548-.293a2.455,2.455,0,0,0,2.4-2.4,2.425,2.425,0,0,0-2.4-2.4c-2.293.243-4.577.552-6.857.9l-1.59.245-.891.135c-.01,0-.449.079-.184.027q.222-.027-.1-.012l.265.037c-.032-.037-.364-.07-.079,0s-.079-.045-.16-.094a2.934,2.934,0,0,1-.258-.169c.107.081.271.262,0-.044-.078-.087-.406-.5-.2-.206a6.37,6.37,0,0,1-.47-.8c.16.322-.092-.287-.125-.409a2.588,2.588,0,0,0-.091-.393c-.083-.179.046.327.042.346a2.265,2.265,0,0,0-.025-.431c0-.126.039-.7,0-.26s.043-.095.068-.2c.009-.034.084-.263.089-.262.063.016-.271.446-.1.25.038-.043.263-.443.266-.44.033.037-.34.342-.133.184a3.1,3.1,0,0,0,.286-.287c.052-.052.271-.184.025-.028-.285.181.061-.029.13-.067.112-.06.687-.325.238-.154a10.99,10.99,0,0,1,1.481-.415c1.078-.247,2.163-.461,3.249-.668,2.467-.468,4.946-.873,7.405-1.383a2.416,2.416,0,0,0,1.676-2.952,2.458,2.458,0,0,0-2.952-1.676Z"></path><path class="c" d="M327.881,194.286a7.414,7.414,0,0,0,.508,9.236c1.331,1.357,3.145,1.59,4.951,1.648,2.079.067,4.158.105,6.238.052l-2.4-2.4A21.462,21.462,0,0,0,338.585,213a16.091,16.091,0,0,0,7.49,7.524,2.46,2.46,0,0,0,3.283-.861,2.422,2.422,0,0,0-.861-3.284,11.77,11.77,0,0,1-5.768-5.8q-.106-.234.006.01c-.066-.172-.125-.347-.179-.523-.089-.287-.162-.579-.227-.872a14.915,14.915,0,0,1-.3-1.994,29.419,29.419,0,0,1-.054-4.373,2.42,2.42,0,0,0-2.4-2.4c-1.452.037-2.9.034-4.356,0-.7-.016-1.4-.038-2.1-.061a5.213,5.213,0,0,1-1.212-.145c-.3-.16-.211-.124-.344-.412.126.273-.068-.167-.1-.262a5.087,5.087,0,0,1-.163-.643c.048.293-.009-.447-.007-.469-.014.161.071-.4.083-.449a3.39,3.39,0,0,1,.64-1.274,2.417,2.417,0,0,0-.861-3.284,2.459,2.459,0,0,0-3.284.861Z"></path><path class="c" d="M164.36,168.87V157.036l-2.4,2.4h23.7l-2.4-2.4v12.485c0,3.088,4.8,3.093,4.8,0V157.036a2.435,2.435,0,0,0-2.4-2.4h-23.7a2.435,2.435,0,0,0-2.4,2.4V168.87c0,3.088,4.8,3.093,4.8,0Z"></path><path class="c" d="M125.966,168.87V132.036l-2.4,2.4h23.7l-2.4-2.4v37.485c0,3.088,4.8,3.093,4.8,0V132.036a2.435,2.435,0,0,0-2.4-2.4h-23.7a2.435,2.435,0,0,0-2.4,2.4V168.87c0,3.088,4.8,3.093,4.8,0Z"></path><path class="c" d="M87.572,168.87V102.036l-2.4,2.4h23.7l-2.4-2.4v67.485c0,3.088,4.8,3.093,4.8,0V102.036a2.435,2.435,0,0,0-2.4-2.4h-23.7a2.435,2.435,0,0,0-2.4,2.4V168.87c0,3.088,4.8,3.093,4.8,0Z"></path><path class="c" d="M49.178,168.87V85.082c0-4.186.194-8.426,0-12.609-.007-.145,0-.292,0-.437l-2.4,2.4h23.7l-2.4-2.4V156.28c0,4.26-.077,8.529,0,12.789,0,.151,0,.3,0,.452,0,3.088,4.8,3.093,4.8,0V85.277c0-4.26.078-8.529,0-12.789,0-.151,0-.3,0-.452a2.435,2.435,0,0,0-2.4-2.4h-23.7a2.435,2.435,0,0,0-2.4,2.4v83.788c0,4.2-.078,8.409,0,12.609,0,.145,0,.291,0,.437,0,3.088,4.8,3.093,4.8,0Z"></path><path class="c" d="M199.1,195.092a106.852,106.852,0,0,0,19.919-32.256,117.094,117.094,0,0,0,7.816-40.919,155.8,155.8,0,0,0-3.857-37.757,118.908,118.908,0,0,0-11.649-30.725A99.426,99.426,0,0,0,168.936,12.5a113.014,113.014,0,0,0-28.614-9.857A136.749,136.749,0,0,0,108.248.1,128.558,128.558,0,0,0,76.968,5,107.629,107.629,0,0,0,49.711,17.163,98.744,98.744,0,0,0,27.386,36.409a104.623,104.623,0,0,0-16.33,26.152A128.755,128.755,0,0,0,1.785,95.439a149.629,149.629,0,0,0-.933,38.73A113.577,113.577,0,0,0,10.734,169.5a105.019,105.019,0,0,0,18.947,27.646,110.2,110.2,0,0,0,25.727,19.964,117.577,117.577,0,0,0,30.154,11.828,118.751,118.751,0,0,0,77.455-7.528,112.728,112.728,0,0,0,18.613-10.779h-2.423c9.584,5.409,19.454,10.516,29.478,15.058a2.447,2.447,0,0,0,2.665-.187,2.375,2.375,0,0,0,.861-2.523c-3.867-10.412-8.2-20.654-12.738-30.791a2.417,2.417,0,0,0-3.283-.861,2.458,2.458,0,0,0-.861,3.284c4.365,9.759,8.53,19.62,12.253,29.644l3.526-2.71c-10.024-4.543-19.9-9.65-29.478-15.058a2.375,2.375,0,0,0-2.423,0,112.684,112.684,0,0,1-39.356,17.867A114,114,0,0,1,71.289,219.4a108.08,108.08,0,0,1-26.836-15.314A101.046,101.046,0,0,1,8.9,150.776a123.052,123.052,0,0,1-3.966-36.957,143.412,143.412,0,0,1,5.22-34.627,109.31,109.31,0,0,1,12.5-28.318A95.1,95.1,0,0,1,41.4,29.187,97.93,97.93,0,0,1,65.392,14.266a113.44,113.44,0,0,1,28.057-8,134.979,134.979,0,0,1,31.082-1.028,118.782,118.782,0,0,1,29.239,6.021,100.482,100.482,0,0,1,25.2,12.864,94.45,94.45,0,0,1,20.2,19.444A103.3,103.3,0,0,1,213.671,69.9a130.976,130.976,0,0,1,7.527,32.7c1.361,13.281,1.291,26.85-1.284,39.981a104.374,104.374,0,0,1-13.828,35.351A100.243,100.243,0,0,1,195.7,191.7C193.645,193.991,197.029,197.4,199.1,195.092Z"></path><path class="c" d="M196.429,167.865q-14.247.03-28.5.04-19.584.02-39.17.033-20.519.015-41.039.026-16.826.011-33.65.017-8.732,0-17.463.007h-.6c-3.089,0-3.094,4.8,0,4.8q7.416,0,14.831-.006l32.126-.016,40.628-.025q19.935-.015,39.871-.033,15.153-.015,30.305-.039l2.653,0c3.088-.007,3.094-4.807,0-4.8Z"></path><path class="c" d="M185.266,110.436c-9.611-5.178-20.046-11.245-31-13.886a.9.9,0,0,1,0-1.758l9.813-2.4a.911.911,0,0,0,.5-1.457c-15.148-18.512-43.618-35.753-68.248-45.695a1.111,1.111,0,0,1,.6-2.125,140.713,140.713,0,0,1,41.085,13C152,62.968,163.359,69.535,172.449,80.814a.863.863,0,0,0,1.43-.1c1.452-2.557,3.647-6.036,5.653-9.387a.9.9,0,0,1,1.657.268,363.1,363.1,0,0,1,5.4,37.966A.9.9,0,0,1,185.266,110.436Z"></path></svg>