<svg xmlns="http://www.w3.org/2000/svg" xmlns:xlink="http://www.w3.org/1999/xlink" width="1920" zoomAndPan="magnify" viewBox="0 0 1440 809.999993" height="1080" preserveAspectRatio="xMidYMid meet" version="1.0"><defs><clipPath id="631ffb7064"><path d="M 738 0 L 1440 0 L 1440 616 L 738 616 Z M 738 0 " clip-rule="nonzero"/></clipPath><clipPath id="645aecf9f8"><path d="M 761.855469 -338.542969 L 1834.277344 -239.355469 L 1750.21875 669.515625 L 677.792969 570.328125 Z M 761.855469 -338.542969 " clip-rule="nonzero"/></clipPath><clipPath id="d381e92e3d"><path d="M 761.855469 -338.542969 L 1834.277344 -239.355469 L 1750.21875 669.515625 L 677.792969 570.328125 Z M 761.855469 -338.542969 " clip-rule="nonzero"/></clipPath><clipPath id="4b3b45e2f6"><path d="M 1380.523438 610.050781 L 1440 610.050781 L 1440 729 L 1380.523438 729 Z M 1380.523438 610.050781 " clip-rule="nonzero"/></clipPath><clipPath id="31bbc8a338"><path d="M 1440 610.050781 C 1407.152344 610.050781 1380.523438 636.675781 1380.523438 669.523438 C 1380.523438 702.371094 1407.152344 729 1440 729 C 1472.847656 729 1499.476562 702.371094 1499.476562 669.523438 C 1499.476562 636.675781 1472.847656 610.050781 1440 610.050781 Z M 1440 610.050781 " clip-rule="nonzero"/></clipPath><clipPath id="d13e6ad8c2"><path d="M 0.523438 0.0507812 L 60 0.0507812 L 60 119 L 0.523438 119 Z M 0.523438 0.0507812 " clip-rule="nonzero"/></clipPath><clipPath id="dc978c5e14"><path d="M 60 0.0507812 C 27.152344 0.0507812 0.523438 26.675781 0.523438 59.523438 C 0.523438 92.371094 27.152344 119 60 119 C 92.847656 119 119.476562 92.371094 119.476562 59.523438 C 119.476562 26.675781 92.847656 0.0507812 60 0.0507812 Z M 60 0.0507812 " clip-rule="nonzero"/></clipPath><clipPath id="f04a3ce868"><rect x="0" width="60" y="0" height="119"/></clipPath><clipPath id="977cb890b5"><path d="M 677.796875 163.128906 L 719.347656 163.128906 L 719.347656 184.972656 L 677.796875 184.972656 Z M 677.796875 163.128906 " clip-rule="nonzero"/></clipPath><clipPath id="aaf6ee3606"><path d="M 683.84375 184.972656 C 683.0625 184.972656 682.277344 184.808594 681.492188 184.480469 C 678.417969 183.171875 676.980469 179.640625 678.285156 176.570312 C 681.71875 168.394531 689.664062 163.128906 698.527344 163.128906 C 707.386719 163.128906 715.332031 168.394531 718.800781 176.570312 C 720.109375 179.640625 718.667969 183.207031 715.59375 184.480469 C 712.523438 185.789062 708.957031 184.351562 707.683594 181.277344 C 706.113281 177.613281 702.515625 175.226562 698.527344 175.226562 C 694.539062 175.226562 690.972656 177.613281 689.40625 181.277344 C 688.457031 183.566406 686.199219 184.972656 683.84375 184.972656 Z M 683.84375 184.972656 " clip-rule="nonzero"/></clipPath><clipPath id="acde2ac459"><path d="M 0.796875 0.128906 L 42.28125 0.128906 L 42.28125 21.972656 L 0.796875 21.972656 Z M 0.796875 0.128906 " clip-rule="nonzero"/></clipPath><clipPath id="9513d945aa"><path d="M 6.84375 21.972656 C 6.0625 21.972656 5.277344 21.808594 4.492188 21.480469 C 1.417969 20.171875 -0.0195312 16.640625 1.285156 13.570312 C 4.71875 5.394531 12.664062 0.128906 21.527344 0.128906 C 30.386719 0.128906 38.332031 5.394531 41.800781 13.570312 C 43.109375 16.640625 41.667969 20.207031 38.59375 21.480469 C 35.523438 22.789062 31.957031 21.351562 30.683594 18.277344 C 29.113281 14.613281 25.515625 12.226562 21.527344 12.226562 C 17.539062 12.226562 13.972656 14.613281 12.40625 18.277344 C 11.457031 20.566406 9.199219 21.972656 6.84375 21.972656 Z M 6.84375 21.972656 " clip-rule="nonzero"/></clipPath><clipPath id="6509712d30"><rect x="0" width="43" y="0" height="22"/></clipPath><clipPath id="b865ae671c"><path d="M 1409.953125 318.625 L 1440 318.625 L 1440 340.46875 L 1409.953125 340.46875 Z M 1409.953125 318.625 " clip-rule="nonzero"/></clipPath><clipPath id="791fb5067f"><path d="M 1416.003906 340.46875 C 1415.21875 340.46875 1414.433594 340.304688 1413.648438 339.976562 C 1410.574219 338.667969 1409.136719 335.136719 1410.445312 332.0625 C 1413.878906 323.890625 1421.824219 318.625 1430.683594 318.625 C 1439.546875 318.625 1447.492188 323.890625 1450.957031 332.0625 C 1452.265625 335.136719 1450.828125 338.703125 1447.753906 339.976562 C 1444.679688 341.285156 1441.113281 339.847656 1439.839844 336.773438 C 1438.269531 333.109375 1434.671875 330.722656 1430.683594 330.722656 C 1426.695312 330.722656 1423.132812 333.109375 1421.5625 336.773438 C 1420.613281 339.0625 1418.355469 340.46875 1416.003906 340.46875 Z M 1416.003906 340.46875 " clip-rule="nonzero"/></clipPath><clipPath id="54dd7f63dd"><path d="M 0.953125 0.625 L 31 0.625 L 31 22.46875 L 0.953125 22.46875 Z M 0.953125 0.625 " clip-rule="nonzero"/></clipPath><clipPath id="f4346ee398"><path d="M 7.003906 22.46875 C 6.21875 22.46875 5.433594 22.304688 4.648438 21.976562 C 1.574219 20.667969 0.136719 17.136719 1.445312 14.0625 C 4.878906 5.890625 12.824219 0.625 21.683594 0.625 C 30.546875 0.625 38.492188 5.890625 41.957031 14.0625 C 43.265625 17.136719 41.828125 20.703125 38.753906 21.976562 C 35.679688 23.285156 32.113281 21.847656 30.839844 18.773438 C 29.269531 15.109375 25.671875 12.722656 21.683594 12.722656 C 17.695312 12.722656 14.132812 15.109375 12.5625 18.773438 C 11.613281 21.0625 9.355469 22.46875 7.003906 22.46875 Z M 7.003906 22.46875 " clip-rule="nonzero"/></clipPath><clipPath id="621cdb5cba"><rect x="0" width="31" y="0" height="23"/></clipPath><clipPath id="b4ffc67c0c"><path d="M 733.289062 647.683594 L 774.839844 647.683594 L 774.839844 669.523438 L 733.289062 669.523438 Z M 733.289062 647.683594 " clip-rule="nonzero"/></clipPath><clipPath id="fd1f88f5a0"><path d="M 739.339844 669.523438 C 738.554688 669.523438 737.769531 669.359375 736.984375 669.035156 C 733.910156 667.726562 732.472656 664.195312 733.78125 661.121094 C 737.214844 652.945312 745.160156 647.683594 754.019531 647.683594 C 762.882812 647.683594 770.828125 652.945312 774.292969 661.121094 C 775.601562 664.195312 774.164062 667.757812 771.089844 669.035156 C 768.015625 670.34375 764.453125 668.902344 763.175781 665.828125 C 761.605469 662.167969 758.007812 659.78125 754.019531 659.78125 C 750.03125 659.78125 746.46875 662.167969 744.898438 665.828125 C 743.949219 668.117188 741.691406 669.523438 739.339844 669.523438 Z M 739.339844 669.523438 " clip-rule="nonzero"/></clipPath><clipPath id="c80a3e1dd6"><path d="M 0.289062 0.683594 L 41.839844 0.683594 L 41.839844 22.523438 L 0.289062 22.523438 Z M 0.289062 0.683594 " clip-rule="nonzero"/></clipPath><clipPath id="2d96e50bd1"><path d="M 6.339844 22.523438 C 5.554688 22.523438 4.769531 22.359375 3.984375 22.035156 C 0.910156 20.726562 -0.527344 17.195312 0.78125 14.121094 C 4.214844 5.945312 12.160156 0.683594 21.019531 0.683594 C 29.882812 0.683594 37.828125 5.945312 41.292969 14.121094 C 42.601562 17.195312 41.164062 20.757812 38.089844 22.035156 C 35.015625 23.34375 31.453125 21.902344 30.175781 18.828125 C 28.605469 15.167969 25.007812 12.78125 21.019531 12.78125 C 17.03125 12.78125 13.46875 15.167969 11.898438 18.828125 C 10.949219 21.117188 8.691406 22.523438 6.339844 22.523438 Z M 6.339844 22.523438 " clip-rule="nonzero"/></clipPath><clipPath id="cd3babe337"><rect x="0" width="42" y="0" height="23"/></clipPath><clipPath id="dd04b3b806"><path d="M 33.65625 39 L 54 39 L 54 54 L 33.65625 54 Z M 33.65625 39 " clip-rule="nonzero"/></clipPath><clipPath id="029215eb7e"><path d="M 48 36 L 64.40625 36 L 64.40625 51 L 48 51 Z M 48 36 " clip-rule="nonzero"/></clipPath></defs><rect x="-144" width="1728" fill="#ffffff" y="-80.999999" height="971.999992" fill-opacity="1"/><rect x="-144" width="1728" fill="#ffffff" y="-80.999999" height="971.999992" fill-opacity="1"/><g clip-path="url(#631ffb7064)"><g clip-path="url(#645aecf9f8)"><g clip-path="url(#d381e92e3d)"><path fill="#ff8a15" d="M 775.40625 -152.222656 C 740.636719 -102.761719 747.25 -34.933594 758.523438 24.953125 C 769.789062 84.84375 783.722656 149.21875 759.738281 205.175781 C 752.488281 222.097656 741.859375 237.855469 738.84375 256.085938 C 733.089844 290.90625 757.710938 324.570312 787.988281 339.984375 C 818.257812 355.394531 853.109375 356.929688 886.792969 359.347656 C 920.480469 361.765625 955.597656 365.894531 983.628906 385.347656 C 1040.515625 424.832031 1047.699219 510.746094 1094.496094 562.699219 C 1130.03125 602.15625 1185.070312 617.195312 1237.117188 614.777344 C 1289.171875 612.367188 1339.410156 594.570312 1388.820312 576.960938 C 1462.007812 550.863281 1535.757812 524.507812 1602.589844 483.710938 C 1664.734375 445.78125 1721.210938 394.179688 1754.503906 327.542969 C 1787.804688 260.910156 1795.207031 177.941406 1763.039062 111.269531 C 1736.644531 56.574219 1684.46875 9.753906 1688.453125 -51.585938 C 1690.789062 -87.632812 1713.175781 -121.101562 1710.179688 -157.050781 C 1703.320312 -239.15625 1594.257812 -261.492188 1531.902344 -258.269531 C 1457.292969 -254.414062 1391.785156 -216.753906 1335.410156 -167.609375 C 1298.933594 -135.824219 1263.457031 -95.101562 1212.933594 -92.691406 C 1137.652344 -89.097656 1067.132812 -152.769531 1001.359375 -182.105469 C 930.484375 -213.726562 828.25 -227.398438 775.40625 -152.222656 " fill-opacity="1" fill-rule="nonzero"/></g></g></g><g clip-path="url(#4b3b45e2f6)"><g clip-path="url(#31bbc8a338)"><g transform="matrix(1, 0, 0, 1, 1380, 610)"><g clip-path="url(#f04a3ce868)"><g clip-path="url(#d13e6ad8c2)"><g clip-path="url(#dc978c5e14)"><path fill="#ff8a15" d="M 0.523438 0.0507812 L 119.476562 0.0507812 L 119.476562 119 L 0.523438 119 Z M 0.523438 0.0507812 " fill-opacity="1" fill-rule="nonzero"/></g></g></g></g></g></g><g clip-path="url(#977cb890b5)"><g clip-path="url(#aaf6ee3606)"><g transform="matrix(1, 0, 0, 1, 677, 163)"><g clip-path="url(#6509712d30)"><g clip-path="url(#acde2ac459)"><g clip-path="url(#9513d945aa)"><path fill="#ff8a15" d="M 0.796875 0.128906 L 42.261719 0.128906 L 42.261719 21.972656 L 0.796875 21.972656 Z M 0.796875 0.128906 " fill-opacity="1" fill-rule="nonzero"/></g></g></g></g></g></g><g clip-path="url(#b865ae671c)"><g clip-path="url(#791fb5067f)"><g transform="matrix(1, 0, 0, 1, 1409, 318)"><g clip-path="url(#621cdb5cba)"><g clip-path="url(#54dd7f63dd)"><g clip-path="url(#f4346ee398)"><path fill="#ff8a15" d="M 0.953125 0.625 L 42.421875 0.625 L 42.421875 22.46875 L 0.953125 22.46875 Z M 0.953125 0.625 " fill-opacity="1" fill-rule="nonzero"/></g></g></g></g></g></g><g clip-path="url(#b4ffc67c0c)"><g clip-path="url(#fd1f88f5a0)"><g transform="matrix(1, 0, 0, 1, 733, 647)"><g clip-path="url(#cd3babe337)"><g clip-path="url(#c80a3e1dd6)"><g clip-path="url(#2d96e50bd1)"><path fill="#ff8a15" d="M 0.289062 0.683594 L 41.757812 0.683594 L 41.757812 22.523438 L 0.289062 22.523438 Z M 0.289062 0.683594 " fill-opacity="1" fill-rule="nonzero"/></g></g></g></g></g></g><g clip-path="url(#dd04b3b806)"><path fill="#ff8a15" d="M 37.117188 53.683594 L 38.480469 52.3125 L 43.816406 46.921875 L 50.507812 53.683594 L 53.976562 50.1875 L 50.722656 46.914062 L 47.265625 43.40625 L 43.816406 39.921875 L 33.65625 50.1875 Z M 37.117188 53.683594 " fill-opacity="1" fill-rule="nonzero"/></g><g clip-path="url(#029215eb7e)"><path fill="#ff8a15" d="M 54.15625 43.433594 L 60.855469 50.207031 L 64.3125 46.707031 L 54.15625 36.441406 L 48.332031 42.324219 L 51.800781 45.824219 Z M 54.15625 43.433594 " fill-opacity="1" fill-rule="nonzero"/></g><path fill="#ececec" d="M 1002.644531 311.84375 C 992.542969 314.96875 947.722656 329.496094 902.96875 368.046875 C 892.128906 377.386719 848.304688 415.136719 829.582031 465.882812 C 797.714844 552.265625 835.847656 683.6875 945.6875 736.496094 C 1073.625 798.011719 1235.234375 722.296875 1272.09375 620.96875 C 1288.441406 576.027344 1289.179688 501.496094 1247.996094 452.355469 C 1214.855469 412.804688 1158.175781 394.011719 1160.371094 356.601562 C 1161.425781 338.582031 1175.121094 333.601562 1171.324219 322.25 C 1162.3125 295.335938 1074.03125 289.753906 1002.644531 311.84375 " fill-opacity="1" fill-rule="nonzero"/><path fill="#545454" d="M 1128.390625 350.574219 C 1122.066406 353.941406 1114.207031 351.550781 1110.835938 345.230469 C 1107.46875 338.910156 1109.867188 331.050781 1116.191406 327.683594 C 1122.515625 324.316406 1130.371094 326.707031 1133.742188 333.027344 C 1137.109375 339.347656 1134.714844 347.207031 1128.390625 350.574219 Z M 1146.488281 329.09375 L 1144.117188 324.648438 L 1138.808594 326.105469 C 1138.074219 325.175781 1137.273438 324.3125 1136.417969 323.535156 L 1138.230469 318.347656 L 1133.953125 315.683594 L 1130.078125 319.597656 C 1128.992188 319.164062 1127.871094 318.820312 1126.726562 318.574219 L 1125.699219 313.167969 L 1120.660156 312.996094 L 1119.269531 318.316406 C 1118.117188 318.480469 1116.976562 318.75 1115.851562 319.113281 L 1112.253906 314.945312 L 1107.808594 317.316406 L 1109.261719 322.621094 C 1108.332031 323.351562 1107.472656 324.152344 1106.691406 325.011719 L 1101.5 323.203125 L 1098.835938 327.480469 L 1102.753906 331.347656 C 1102.316406 332.433594 1101.972656 333.554688 1101.726562 334.699219 L 1096.316406 335.726562 L 1096.148438 340.761719 L 1101.464844 342.152344 C 1101.632812 343.300781 1101.898438 344.441406 1102.261719 345.570312 L 1098.09375 349.164062 L 1100.460938 353.609375 L 1105.773438 352.15625 C 1106.503906 353.085938 1107.304688 353.945312 1108.160156 354.722656 L 1106.351562 359.910156 L 1110.628906 362.578125 L 1114.5 358.664062 C 1115.585938 359.09375 1116.707031 359.4375 1117.855469 359.683594 L 1118.878906 365.09375 L 1123.917969 365.261719 L 1125.3125 359.945312 C 1126.457031 359.777344 1127.601562 359.507812 1128.730469 359.144531 L 1132.324219 363.3125 L 1136.773438 360.941406 L 1135.316406 355.636719 C 1136.246094 354.90625 1137.109375 354.105469 1137.886719 353.246094 L 1143.078125 355.054688 L 1145.746094 350.78125 L 1141.828125 346.914062 C 1142.261719 345.824219 1142.605469 344.703125 1142.855469 343.558594 L 1148.261719 342.53125 L 1148.433594 337.496094 L 1143.113281 336.105469 C 1142.949219 334.960938 1142.683594 333.816406 1142.316406 332.6875 L 1146.488281 329.09375 " fill-opacity="1" fill-rule="nonzero"/><path fill="#000000" d="M 1162.570312 399.992188 C 1162.523438 399.992188 1162.480469 399.988281 1162.4375 399.984375 C 1161.980469 399.910156 1161.667969 399.480469 1161.742188 399.023438 L 1162.414062 394.757812 C 1162.488281 394.300781 1162.917969 393.988281 1163.371094 394.058594 C 1163.832031 394.132812 1164.140625 394.558594 1164.070312 395.019531 L 1163.398438 399.285156 C 1163.332031 399.699219 1162.972656 399.992188 1162.570312 399.992188 " fill-opacity="1" fill-rule="nonzero"/><path fill="#000000" d="M 1160.214844 414.925781 C 1160.167969 414.925781 1160.125 414.925781 1160.082031 414.917969 C 1159.621094 414.84375 1159.3125 414.414062 1159.378906 413.957031 L 1160.054688 409.691406 C 1160.128906 409.234375 1160.558594 408.917969 1161.015625 408.996094 C 1161.472656 409.066406 1161.785156 409.496094 1161.710938 409.953125 L 1161.039062 414.21875 C 1160.972656 414.632812 1160.617188 414.925781 1160.214844 414.925781 " fill-opacity="1" fill-rule="nonzero"/><path fill="#000000" d="M 1156.480469 404.417969 C 1156.433594 404.417969 1156.386719 404.414062 1156.335938 404.40625 L 1152.136719 403.679688 C 1151.679688 403.601562 1151.375 403.167969 1151.453125 402.710938 C 1151.53125 402.257812 1151.96875 401.949219 1152.421875 402.027344 L 1156.621094 402.753906 C 1157.078125 402.832031 1157.386719 403.265625 1157.304688 403.722656 C 1157.238281 404.128906 1156.878906 404.417969 1156.480469 404.417969 " fill-opacity="1" fill-rule="nonzero"/><path fill="#000000" d="M 1171.175781 406.957031 C 1171.125 406.957031 1171.082031 406.953125 1171.03125 406.945312 L 1166.828125 406.21875 C 1166.375 406.140625 1166.070312 405.707031 1166.148438 405.25 C 1166.230469 404.792969 1166.660156 404.488281 1167.117188 404.566406 L 1171.316406 405.292969 C 1171.773438 405.371094 1172.078125 405.808594 1172 406.261719 C 1171.929688 406.667969 1171.574219 406.957031 1171.175781 406.957031 " fill-opacity="1" fill-rule="nonzero"/><path fill="#000000" d="M 1144.558594 376.964844 C 1142.574219 376.964844 1140.929688 378.542969 1140.867188 380.539062 C 1140.835938 381.527344 1141.1875 382.464844 1141.863281 383.183594 C 1142.539062 383.90625 1143.453125 384.320312 1144.4375 384.351562 C 1145.429688 384.386719 1146.367188 384.03125 1147.085938 383.359375 C 1147.808594 382.683594 1148.222656 381.769531 1148.253906 380.78125 C 1148.289062 379.792969 1147.933594 378.855469 1147.253906 378.132812 C 1146.582031 377.410156 1145.667969 377 1144.679688 376.96875 C 1144.640625 376.964844 1144.601562 376.964844 1144.558594 376.964844 Z M 1144.5625 386.03125 C 1144.503906 386.03125 1144.445312 386.03125 1144.382812 386.03125 C 1142.949219 385.980469 1141.621094 385.378906 1140.640625 384.332031 C 1139.660156 383.285156 1139.144531 381.917969 1139.191406 380.484375 C 1139.289062 377.523438 1141.78125 375.203125 1144.738281 375.289062 C 1146.171875 375.335938 1147.5 375.941406 1148.480469 376.988281 C 1149.460938 378.035156 1149.976562 379.398438 1149.929688 380.832031 C 1149.882812 382.269531 1149.28125 383.601562 1148.234375 384.582031 C 1147.230469 385.519531 1145.933594 386.03125 1144.5625 386.03125 " fill-opacity="1" fill-rule="nonzero"/><path fill="#000000" d="M 876.371094 657.96875 C 876.148438 657.96875 875.925781 657.882812 875.757812 657.707031 C 861.140625 642.148438 850.410156 623.949219 843.867188 603.605469 C 843.726562 603.164062 843.96875 602.691406 844.410156 602.550781 C 844.847656 602.410156 845.324219 602.652344 845.464844 603.09375 C 851.929688 623.195312 862.535156 641.183594 876.980469 656.558594 C 877.296875 656.894531 877.28125 657.425781 876.945312 657.746094 C 876.78125 657.894531 876.578125 657.96875 876.371094 657.96875 " fill-opacity="1" fill-rule="nonzero"/><path fill="#000000" d="M 881.105469 645.949219 C 880.875 645.949219 880.644531 645.859375 880.480469 645.671875 C 860.007812 622.84375 848.851562 591.128906 843.097656 568.542969 C 842.984375 568.09375 843.253906 567.636719 843.703125 567.523438 C 844.152344 567.410156 844.609375 567.679688 844.722656 568.128906 C 850.429688 590.53125 861.484375 621.976562 881.726562 644.554688 C 882.039062 644.898438 882.007812 645.425781 881.664062 645.734375 C 881.503906 645.878906 881.304688 645.949219 881.105469 645.949219 " fill-opacity="1" fill-rule="nonzero"/><path fill="#000000" d="M 829.738281 548.390625 C 829.273438 548.390625 828.898438 548.015625 828.898438 547.554688 L 828.898438 543.21875 C 828.898438 542.753906 829.273438 542.378906 829.738281 542.378906 C 830.199219 542.378906 830.578125 542.753906 830.578125 543.21875 L 830.578125 547.554688 C 830.578125 548.015625 830.199219 548.390625 829.738281 548.390625 " fill-opacity="1" fill-rule="nonzero"/><path fill="#000000" d="M 829.738281 558.488281 C 829.273438 558.488281 828.898438 558.113281 828.898438 557.652344 L 828.898438 553.316406 C 828.898438 552.855469 829.273438 552.480469 829.738281 552.480469 C 830.199219 552.480469 830.578125 552.855469 830.578125 553.316406 L 830.578125 557.652344 C 830.578125 558.113281 830.199219 558.488281 829.738281 558.488281 " fill-opacity="1" fill-rule="nonzero"/><path fill="#000000" d="M 826.855469 551.273438 L 822.519531 551.273438 C 822.058594 551.273438 821.683594 550.898438 821.683594 550.433594 C 821.683594 549.972656 822.058594 549.597656 822.519531 549.597656 L 826.855469 549.597656 C 827.320312 549.597656 827.695312 549.972656 827.695312 550.433594 C 827.695312 550.898438 827.320312 551.273438 826.855469 551.273438 " fill-opacity="1" fill-rule="nonzero"/><path fill="#000000" d="M 836.953125 551.273438 L 832.621094 551.273438 C 832.15625 551.273438 831.78125 550.898438 831.78125 550.433594 C 831.78125 549.972656 832.15625 549.597656 832.621094 549.597656 L 836.953125 549.597656 C 837.417969 549.597656 837.792969 549.972656 837.792969 550.433594 C 837.792969 550.898438 837.417969 551.273438 836.953125 551.273438 " fill-opacity="1" fill-rule="nonzero"/><path fill="#545454" d="M 1144.832031 730.246094 C 1137.484375 724.246094 1129.769531 718.652344 1121.875 713.316406 C 1105.851562 702.484375 1088.960938 692.804688 1071.890625 683.421875 C 1062.90625 678.488281 1053.585938 674.023438 1044.378906 669.429688 C 1035.121094 664.8125 1025.835938 660.230469 1016.550781 655.65625 C 1008.0625 651.472656 999.578125 647.292969 991.105469 643.089844 C 971.851562 577.996094 950.9375 504.199219 955.09375 504.199219 L 1270.800781 495.289062 C 1278.234375 495.289062 1283.21875 501.332031 1281.914062 508.765625 L 1243.65625 726.90625 C 1242.351562 734.339844 1235.246094 740.386719 1227.8125 740.386719 L 1157.558594 740.386719 C 1153.414062 736.894531 1149.019531 733.671875 1144.832031 730.246094 " fill-opacity="1" fill-rule="nonzero"/><path fill="#ffffff" d="M 946.082031 496.050781 L 1264.253906 496.050781 C 1271.277344 496.050781 1275.972656 501.742188 1274.738281 508.769531 L 1236.480469 726.910156 C 1235.25 733.933594 1228.558594 739.625 1221.535156 739.625 L 903.363281 739.625 C 896.339844 739.625 891.644531 733.933594 892.878906 726.910156 L 931.136719 508.769531 C 932.367188 501.742188 939.058594 496.050781 946.082031 496.050781 " fill-opacity="1" fill-rule="nonzero"/><path fill="#ff8a15" d="M 953.925781 504.460938 L 1254.625 504.460938 C 1261.261719 504.460938 1265.699219 509.761719 1264.535156 516.296875 L 1228.378906 719.375 C 1227.210938 725.914062 1220.890625 731.214844 1214.25 731.214844 L 913.550781 731.214844 C 906.914062 731.214844 902.476562 725.914062 903.640625 719.375 L 939.800781 516.296875 C 940.964844 509.761719 947.289062 504.460938 953.925781 504.460938 " fill-opacity="1" fill-rule="nonzero"/><path fill="#ff8a15" d="M 829.664062 739.753906 L 1222.617188 739.753906 C 1227.855469 739.753906 1232.113281 743.828125 1232.113281 749.0625 C 1232.113281 754.300781 1227.855469 758.375 1222.617188 758.375 L 829.664062 758.375 C 824.417969 758.375 820.167969 754.308594 820.167969 749.0625 C 820.167969 743.820312 824.417969 739.753906 829.664062 739.753906 " fill-opacity="1" fill-rule="nonzero"/><path fill="#000000" d="M 829.664062 740.589844 C 824.808594 740.589844 821.003906 744.3125 821.003906 749.0625 C 821.003906 753.816406 824.808594 757.539062 829.664062 757.539062 L 1222.617188 757.539062 C 1227.46875 757.539062 1231.277344 753.816406 1231.277344 749.0625 C 1231.277344 744.3125 1227.46875 740.589844 1222.617188 740.589844 Z M 1222.617188 759.214844 L 829.664062 759.214844 C 823.867188 759.214844 819.328125 754.753906 819.328125 749.0625 C 819.328125 743.371094 823.867188 738.914062 829.664062 738.914062 L 1222.617188 738.914062 C 1228.410156 738.914062 1232.953125 743.371094 1232.953125 749.0625 C 1232.953125 754.753906 1228.410156 759.214844 1222.617188 759.214844 " fill-opacity="1" fill-rule="nonzero"/><path fill="#000000" d="M 1221.535156 740.464844 L 903.363281 740.464844 C 899.75 740.464844 896.582031 739.058594 894.441406 736.507812 C 892.253906 733.90625 891.40625 730.445312 892.050781 726.761719 L 923.152344 549.425781 C 923.234375 548.96875 923.667969 548.667969 924.125 548.746094 C 924.582031 548.824219 924.886719 549.257812 924.804688 549.714844 L 893.703125 727.054688 C 893.144531 730.238281 893.863281 733.210938 895.722656 735.429688 C 897.542969 737.59375 900.253906 738.789062 903.363281 738.789062 L 1221.535156 738.789062 C 1228.160156 738.789062 1234.496094 733.390625 1235.65625 726.761719 L 1273.914062 508.621094 C 1274.476562 505.4375 1273.757812 502.460938 1271.894531 500.242188 C 1270.078125 498.082031 1267.363281 496.886719 1264.253906 496.886719 L 1088.980469 496.886719 C 1088.519531 496.886719 1088.144531 496.511719 1088.144531 496.050781 C 1088.144531 495.585938 1088.519531 495.210938 1088.980469 495.210938 L 1264.253906 495.210938 C 1267.867188 495.210938 1271.035156 496.617188 1273.179688 499.164062 C 1275.359375 501.769531 1276.210938 505.226562 1275.5625 508.914062 L 1237.308594 727.054688 C 1236.011719 734.449219 1228.933594 740.464844 1221.535156 740.464844 " fill-opacity="1" fill-rule="nonzero"/><path fill="#545454" d="M 958.8125 650.101562 L 1036.988281 709.203125 C 1043.484375 702.179688 1052.054688 697.113281 1061.734375 694.980469 L 1023.167969 600.351562 C 996.863281 609.859375 974.417969 627.441406 958.8125 650.101562 " fill-opacity="1" fill-rule="nonzero"/><path fill="#000000" d="M 935.433594 725.394531 C 935.433594 726.9375 935.46875 728.390625 935.523438 730.0625 L 1025.695312 730.0625 C 1027.664062 722.140625 1031.617188 715.003906 1036.988281 709.203125 L 958.8125 650.101562 C 944.074219 671.507812 935.433594 697.445312 935.433594 725.394531 " fill-opacity="1" fill-rule="nonzero"/><path fill="#ff8a15" d="M 1068.285156 592.484375 C 1052.445312 592.484375 1037.257812 595.265625 1023.167969 600.351562 L 1061.734375 694.980469 C 1065.054688 694.25 1068.507812 693.863281 1072.050781 693.863281 C 1075.234375 693.863281 1078.339844 694.183594 1081.351562 694.777344 L 1118.957031 602.503906 C 1103.339844 596.050781 1086.230469 592.484375 1068.285156 592.484375 " fill-opacity="1" fill-rule="nonzero"/><path fill="#ffffff" d="M 1179.917969 653.324219 L 1106.648438 708.71875 C 1112.257812 714.605469 1116.378906 721.917969 1118.40625 730.066406 L 1201.050781 730.066406 C 1201.101562 728.390625 1201.136719 726.917969 1201.136719 725.375 C 1201.136719 698.820312 1193.339844 674.085938 1179.917969 653.324219 " fill-opacity="1" fill-rule="nonzero"/><path fill="#ececec" d="M 1118.957031 602.503906 L 1081.351562 694.777344 C 1091.214844 696.726562 1099.984375 701.707031 1106.652344 708.71875 L 1179.921875 653.324219 C 1165.328125 630.75 1144.082031 612.886719 1118.957031 602.503906 " fill-opacity="1" fill-rule="nonzero"/><path fill="#000000" d="M 1119.0625 729.507812 L 1200.234375 729.507812 C 1200.277344 727.957031 1200.300781 726.675781 1200.300781 725.515625 C 1200.300781 699.917969 1193.007812 675.113281 1179.214844 653.777344 C 1164.523438 631.046875 1143.574219 613.582031 1118.632812 603.277344 C 1102.644531 596.671875 1085.703125 593.320312 1068.285156 593.320312 C 1052.898438 593.320312 1037.816406 595.953125 1023.449219 601.144531 C 997.402344 610.554688 975.292969 627.648438 959.503906 650.578125 C 944.304688 672.648438 936.273438 698.570312 936.273438 725.535156 C 936.273438 726.699219 936.292969 727.949219 936.335938 729.507812 L 1025.03125 729.507812 C 1026.976562 721.695312 1030.695312 714.910156 1036.371094 708.769531 C 1043.210938 701.382812 1051.917969 696.355469 1061.550781 694.234375 C 1068.398438 692.726562 1075.15625 692.71875 1081.511719 693.976562 C 1091.28125 695.902344 1100.183594 700.851562 1107.257812 708.289062 C 1113.042969 714.367188 1117.011719 721.503906 1119.0625 729.507812 Z M 1201.046875 731.183594 L 1118.40625 731.183594 C 1118.019531 731.183594 1117.679688 730.917969 1117.589844 730.542969 C 1115.660156 722.570312 1111.777344 715.46875 1106.039062 709.441406 C 1099.210938 702.261719 1090.613281 697.480469 1081.1875 695.617188 C 1075.054688 694.40625 1068.535156 694.414062 1061.910156 695.871094 C 1052.613281 697.917969 1044.207031 702.773438 1037.601562 709.90625 C 1031.96875 715.996094 1028.34375 722.746094 1026.507812 730.539062 C 1026.421875 730.914062 1026.078125 731.183594 1025.691406 731.183594 L 935.523438 731.183594 C 935.070312 731.183594 934.699219 730.824219 934.683594 730.371094 C 934.621094 728.40625 934.59375 726.914062 934.59375 725.535156 C 934.59375 698.226562 942.730469 671.976562 958.125 649.625 C 974.109375 626.410156 996.503906 609.097656 1022.882812 599.566406 C 1037.425781 594.308594 1052.703125 591.644531 1068.285156 591.644531 C 1085.925781 591.644531 1103.082031 595.039062 1119.273438 601.726562 C 1144.527344 612.164062 1165.742188 629.847656 1180.625 652.867188 C 1194.59375 674.476562 1201.976562 699.597656 1201.976562 725.515625 C 1201.976562 726.890625 1201.945312 728.433594 1201.882812 730.371094 C 1201.871094 730.824219 1201.5 731.183594 1201.046875 731.183594 " fill-opacity="1" fill-rule="nonzero"/><path fill="#545454" d="M 1068.992188 718.703125 L 1159.433594 656.234375 L 1079.425781 735.46875 L 1068.992188 718.703125 " fill-opacity="1" fill-rule="nonzero"/><path fill="#000000" d="M 1070.128906 718.9375 L 1079.585938 734.132812 L 1152.097656 662.320312 Z M 1079.429688 736.304688 C 1079.394531 736.304688 1079.359375 736.304688 1079.328125 736.300781 C 1079.074219 736.269531 1078.847656 736.128906 1078.714844 735.910156 L 1068.285156 719.144531 C 1068.046875 718.765625 1068.152344 718.265625 1068.519531 718.011719 L 1158.957031 655.546875 C 1159.316406 655.300781 1159.800781 655.367188 1160.078125 655.703125 C 1160.355469 656.035156 1160.328125 656.527344 1160.023438 656.832031 L 1080.019531 736.0625 C 1079.859375 736.21875 1079.644531 736.304688 1079.429688 736.304688 " fill-opacity="1" fill-rule="nonzero"/><path fill="#545454" d="M 1082.644531 727.300781 C 1082.757812 733.097656 1078.089844 737.796875 1072.21875 737.796875 C 1066.347656 737.796875 1061.5 733.097656 1061.390625 727.300781 C 1061.28125 721.503906 1065.949219 716.800781 1071.816406 716.800781 C 1077.6875 716.800781 1082.53125 721.503906 1082.644531 727.300781 " fill-opacity="1" fill-rule="nonzero"/><path fill="#000000" d="M 1071.816406 717.640625 C 1069.179688 717.640625 1066.726562 718.660156 1064.914062 720.511719 C 1063.132812 722.328125 1062.179688 724.730469 1062.226562 727.285156 C 1062.332031 732.621094 1066.8125 736.957031 1072.21875 736.957031 C 1074.855469 736.957031 1077.304688 735.941406 1079.121094 734.089844 C 1080.902344 732.273438 1081.855469 729.867188 1081.804688 727.316406 C 1081.703125 721.984375 1077.222656 717.640625 1071.816406 717.640625 Z M 1072.21875 738.636719 C 1065.90625 738.636719 1060.671875 733.558594 1060.554688 727.316406 C 1060.496094 724.308594 1061.621094 721.476562 1063.714844 719.335938 C 1065.851562 717.164062 1068.726562 715.964844 1071.816406 715.964844 C 1078.132812 715.964844 1083.363281 721.042969 1083.484375 727.285156 C 1083.539062 730.289062 1082.417969 733.125 1080.316406 735.265625 C 1078.183594 737.4375 1075.308594 738.636719 1072.21875 738.636719 " fill-opacity="1" fill-rule="nonzero"/><path fill="#ececec" d="M 1078.484375 565.898438 C 1078.28125 565.898438 1078.074219 565.824219 1077.917969 565.675781 C 1077.574219 565.363281 1077.550781 564.835938 1077.863281 564.492188 L 1092.703125 548.339844 C 1093.015625 548 1093.546875 547.976562 1093.886719 548.285156 C 1094.230469 548.601562 1094.253906 549.132812 1093.9375 549.472656 L 1079.097656 565.628906 C 1078.933594 565.808594 1078.707031 565.898438 1078.484375 565.898438 " fill-opacity="1" fill-rule="nonzero"/><path fill="#ececec" d="M 1101.75 540.566406 C 1101.546875 540.566406 1101.34375 540.492188 1101.183594 540.347656 C 1100.84375 540.03125 1100.820312 539.503906 1101.132812 539.160156 L 1122.613281 515.777344 C 1122.925781 515.4375 1123.457031 515.417969 1123.796875 515.726562 C 1124.140625 516.042969 1124.160156 516.570312 1123.847656 516.914062 L 1102.367188 540.296875 C 1102.203125 540.476562 1101.976562 540.566406 1101.75 540.566406 " fill-opacity="1" fill-rule="nonzero"/><path fill="#ececec" d="M 1043.871094 577.542969 C 1043.667969 577.542969 1043.464844 577.46875 1043.300781 577.320312 C 1042.964844 577.003906 1042.941406 576.472656 1043.257812 576.132812 L 1085.171875 530.867188 C 1085.484375 530.527344 1086.015625 530.507812 1086.359375 530.820312 C 1086.695312 531.136719 1086.71875 531.664062 1086.402344 532.003906 L 1044.488281 577.273438 C 1044.324219 577.449219 1044.097656 577.542969 1043.871094 577.542969 " fill-opacity="1" fill-rule="nonzero"/><path fill="#ececec" d="M 956.6875 604.371094 C 956.480469 604.371094 956.277344 604.292969 956.117188 604.144531 C 955.777344 603.828125 955.757812 603.296875 956.074219 602.957031 L 973.125 584.6875 C 973.445312 584.351562 973.972656 584.332031 974.3125 584.644531 C 974.652344 584.960938 974.667969 585.492188 974.351562 585.832031 L 957.300781 604.101562 C 957.136719 604.277344 956.910156 604.371094 956.6875 604.371094 " fill-opacity="1" fill-rule="nonzero"/><path fill="#ececec" d="M 984.246094 574.839844 C 984.042969 574.839844 983.839844 574.765625 983.675781 574.613281 C 983.339844 574.296875 983.320312 573.769531 983.636719 573.429688 L 1003.019531 552.660156 C 1003.335938 552.320312 1003.867188 552.304688 1004.203125 552.617188 C 1004.542969 552.933594 1004.558594 553.464844 1004.246094 553.804688 L 984.859375 574.574219 C 984.695312 574.75 984.472656 574.839844 984.246094 574.839844 " fill-opacity="1" fill-rule="nonzero"/><path fill="#000000" d="M 1233.519531 499.769531 C 1233.519531 499.769531 1244.308594 503.789062 1248.539062 500.398438 C 1252.769531 497.019531 1241.980469 491.304688 1239.445312 491.726562 C 1236.90625 492.152344 1233.519531 499.769531 1233.519531 499.769531 " fill-opacity="1" fill-rule="nonzero"/><path fill="#ffffff" d="M 1179.304688 586.011719 L 1189.457031 603.785156 L 1194.957031 596.167969 L 1186.070312 578.824219 L 1179.304688 586.011719 " fill-opacity="1" fill-rule="nonzero"/><path fill="#000000" d="M 1180.335938 586.136719 L 1189.539062 602.238281 L 1193.976562 596.09375 L 1185.867188 580.261719 Z M 1189.453125 604.621094 C 1189.445312 604.621094 1189.425781 604.621094 1189.410156 604.621094 C 1189.125 604.605469 1188.871094 604.449219 1188.726562 604.199219 L 1178.570312 586.433594 C 1178.390625 586.109375 1178.441406 585.710938 1178.691406 585.441406 L 1185.460938 578.25 C 1185.648438 578.050781 1185.917969 577.957031 1186.1875 577.992188 C 1186.457031 578.03125 1186.691406 578.199219 1186.816406 578.441406 L 1195.699219 595.785156 C 1195.84375 596.066406 1195.820312 596.402344 1195.636719 596.660156 L 1190.136719 604.277344 C 1189.976562 604.492188 1189.722656 604.621094 1189.453125 604.621094 " fill-opacity="1" fill-rule="nonzero"/><path fill="#000000" d="M 1185.9375 601.074219 C 1188.617188 606.59375 1195.398438 619.980469 1201.925781 626.398438 C 1203.519531 627.960938 1206.210938 627.234375 1206.785156 625.078125 C 1208.824219 617.347656 1210.1875 601.246094 1202.570312 588.554688 C 1202.570312 588.554688 1198.953125 588.128906 1192.183594 589.398438 L 1193.6875 595.742188 L 1192.859375 595.152344 C 1191.609375 594.257812 1189.90625 594.332031 1188.738281 595.335938 L 1186.789062 597.003906 C 1185.613281 598.011719 1185.265625 599.679688 1185.9375 601.074219 " fill-opacity="1" fill-rule="nonzero"/><path fill="#ffffff" d="M 1202.992188 624.929688 C 1202.894531 624.929688 1202.796875 624.914062 1202.699219 624.875 C 1202.265625 624.710938 1202.046875 624.226562 1202.210938 623.792969 C 1207.945312 608.636719 1200.191406 590.761719 1200.113281 590.585938 C 1199.925781 590.160156 1200.117188 589.667969 1200.542969 589.476562 C 1200.964844 589.292969 1201.457031 589.484375 1201.648438 589.90625 C 1201.980469 590.660156 1209.753906 608.59375 1203.777344 624.390625 C 1203.652344 624.722656 1203.332031 624.929688 1202.992188 624.929688 " fill-opacity="1" fill-rule="nonzero"/><path fill="#ffffff" d="M 1189.882812 609.609375 C 1189.605469 609.609375 1189.335938 609.472656 1189.175781 609.222656 C 1188.921875 608.835938 1189.03125 608.316406 1189.421875 608.066406 L 1194.5 604.773438 C 1194.886719 604.523438 1195.40625 604.632812 1195.65625 605.019531 C 1195.910156 605.410156 1195.800781 605.925781 1195.414062 606.179688 L 1190.335938 609.472656 C 1190.195312 609.5625 1190.039062 609.609375 1189.882812 609.609375 " fill-opacity="1" fill-rule="nonzero"/><path fill="#ffffff" d="M 1192.417969 614.117188 C 1192.167969 614.117188 1191.914062 614.003906 1191.75 613.789062 C 1191.46875 613.421875 1191.535156 612.898438 1191.90625 612.617188 L 1196.558594 609.042969 C 1196.925781 608.761719 1197.453125 608.832031 1197.734375 609.199219 C 1198.015625 609.566406 1197.949219 610.09375 1197.582031 610.375 L 1192.925781 613.945312 C 1192.773438 614.0625 1192.59375 614.117188 1192.417969 614.117188 " fill-opacity="1" fill-rule="nonzero"/><path fill="#ffffff" d="M 1147.152344 586.433594 C 1147.152344 586.859375 1137.839844 607.167969 1137.839844 607.167969 L 1148.417969 608.011719 L 1155.613281 590.667969 L 1147.152344 586.433594 " fill-opacity="1" fill-rule="nonzero"/><path fill="#000000" d="M 1139.101562 606.429688 L 1147.878906 607.128906 L 1154.535156 591.070312 L 1147.582031 587.589844 C 1146.855469 589.351562 1144.8125 593.957031 1139.101562 606.429688 Z M 1148.417969 608.851562 C 1148.398438 608.851562 1148.375 608.851562 1148.351562 608.851562 L 1137.777344 608.003906 C 1137.5 607.980469 1137.257812 607.828125 1137.121094 607.59375 C 1136.980469 607.359375 1136.964844 607.070312 1137.078125 606.820312 C 1140.628906 599.074219 1145.988281 587.28125 1146.328125 586.265625 C 1146.375 586.042969 1146.511719 585.847656 1146.707031 585.726562 C 1146.953125 585.574219 1147.265625 585.558594 1147.523438 585.6875 L 1155.988281 589.917969 C 1156.378906 590.113281 1156.554688 590.582031 1156.382812 590.992188 L 1149.191406 608.335938 C 1149.0625 608.648438 1148.753906 608.851562 1148.417969 608.851562 " fill-opacity="1" fill-rule="nonzero"/><path fill="#000000" d="M 1147.570312 602.9375 C 1147.570312 602.9375 1145.453125 597.863281 1139.957031 600.402344 C 1139.957031 600.402344 1129.855469 614.984375 1126.109375 627.023438 C 1125.046875 630.429688 1128.542969 633.5 1131.792969 632.03125 C 1139.402344 628.597656 1151.328125 621.386719 1158.148438 608.015625 C 1158.148438 608.015625 1156.03125 602.515625 1152.644531 599.980469 L 1147.570312 602.9375 " fill-opacity="1" fill-rule="nonzero"/><path fill="#ffffff" d="M 1129.1875 629.195312 C 1128.742188 629.195312 1128.480469 629.160156 1128.410156 629.148438 C 1127.953125 629.085938 1127.636719 628.65625 1127.707031 628.199219 C 1127.773438 627.742188 1128.195312 627.429688 1128.652344 627.492188 C 1128.777344 627.507812 1139.859375 628.722656 1154.933594 607.945312 C 1155.203125 607.570312 1155.730469 607.488281 1156.105469 607.757812 C 1156.480469 608.03125 1156.5625 608.554688 1156.289062 608.929688 C 1142.628906 627.761719 1132.082031 629.195312 1129.1875 629.195312 " fill-opacity="1" fill-rule="nonzero"/><path fill="#ffffff" d="M 1137.839844 617.738281 C 1137.695312 617.738281 1137.550781 617.699219 1137.417969 617.625 L 1132.339844 614.664062 C 1131.941406 614.429688 1131.808594 613.917969 1132.039062 613.515625 C 1132.273438 613.117188 1132.785156 612.980469 1133.183594 613.214844 L 1138.261719 616.175781 C 1138.664062 616.410156 1138.796875 616.921875 1138.566406 617.324219 C 1138.40625 617.589844 1138.128906 617.738281 1137.839844 617.738281 " fill-opacity="1" fill-rule="nonzero"/><path fill="#ffffff" d="M 1140.378906 613.929688 C 1140.242188 613.929688 1140.109375 613.898438 1139.980469 613.832031 L 1134.480469 610.867188 C 1134.074219 610.648438 1133.921875 610.140625 1134.140625 609.734375 C 1134.359375 609.328125 1134.871094 609.171875 1135.277344 609.390625 L 1140.777344 612.351562 C 1141.183594 612.574219 1141.335938 613.082031 1141.117188 613.488281 C 1140.964844 613.773438 1140.675781 613.929688 1140.378906 613.929688 " fill-opacity="1" fill-rule="nonzero"/><path fill="#ffffff" d="M 1201.296875 484.054688 C 1201.296875 484.054688 1173.726562 488.976562 1153.855469 509.816406 C 1148.839844 515.074219 1147.066406 522.644531 1149.21875 529.585938 C 1153.632812 543.828125 1163.246094 569.839844 1179.304688 589.402344 L 1191.574219 578.824219 C 1191.574219 578.824219 1188.609375 554.285156 1180.570312 539.054688 C 1172.53125 523.824219 1219.492188 490.824219 1219.492188 490.824219 L 1201.296875 484.054688 " fill-opacity="1" fill-rule="nonzero"/><path fill="#000000" d="M 1201.230469 484.921875 C 1198.589844 485.449219 1172.976562 490.980469 1154.460938 510.394531 C 1149.660156 515.429688 1147.953125 522.691406 1150.019531 529.335938 C 1154.257812 543.027344 1163.683594 568.730469 1179.40625 588.203125 L 1190.683594 578.480469 C 1190.230469 575.113281 1187.117188 553.253906 1179.828125 539.445312 C 1172.214844 525.019531 1210.015625 496.644531 1217.722656 491.058594 Z M 1179.300781 590.238281 C 1179.277344 590.238281 1179.253906 590.238281 1179.230469 590.234375 C 1179.003906 590.214844 1178.796875 590.109375 1178.652344 589.933594 C 1162.425781 570.164062 1152.746094 543.796875 1148.417969 529.835938 C 1146.175781 522.605469 1148.027344 514.710938 1153.246094 509.238281 C 1173.078125 488.441406 1200.875 483.277344 1201.152344 483.230469 C 1201.304688 483.203125 1201.453125 483.214844 1201.59375 483.269531 L 1219.785156 490.035156 C 1220.074219 490.144531 1220.285156 490.410156 1220.324219 490.714844 C 1220.363281 491.023438 1220.230469 491.332031 1219.972656 491.511719 C 1219.511719 491.835938 1173.707031 524.253906 1181.3125 538.664062 C 1189.332031 553.855469 1192.375 578.476562 1192.402344 578.722656 C 1192.433594 579 1192.328125 579.273438 1192.117188 579.457031 L 1179.847656 590.035156 C 1179.695312 590.164062 1179.5 590.238281 1179.300781 590.238281 " fill-opacity="1" fill-rule="nonzero"/><path fill="#ffffff" d="M 1143.765625 590.246094 L 1158.152344 594.476562 C 1158.152344 594.476562 1184.378906 539.050781 1192 531.015625 C 1199.609375 522.976562 1214.417969 509.859375 1230.074219 505.207031 C 1245.726562 500.554688 1245.726562 488.707031 1245.726562 488.707031 L 1219.070312 481.089844 C 1219.070312 481.089844 1181.84375 497.171875 1169.574219 515.359375 C 1157.300781 533.554688 1143.765625 590.246094 1143.765625 590.246094 " fill-opacity="1" fill-rule="nonzero"/><path fill="#000000" d="M 1144.765625 589.664062 L 1157.699219 593.46875 C 1160.800781 586.9375 1184.125 538.105469 1191.386719 530.4375 C 1195.902344 525.667969 1212.03125 509.695312 1229.835938 504.402344 C 1242.8125 500.542969 1244.601562 491.765625 1244.851562 489.328125 L 1219.132812 481.980469 C 1215.730469 483.484375 1181.710938 498.859375 1170.265625 515.832031 C 1158.996094 532.542969 1146.445312 582.808594 1144.765625 589.664062 Z M 1158.148438 595.3125 C 1158.070312 595.3125 1157.988281 595.304688 1157.910156 595.28125 L 1143.527344 591.046875 C 1143.097656 590.925781 1142.847656 590.484375 1142.949219 590.050781 C 1143.503906 587.730469 1156.660156 533 1168.878906 514.890625 C 1181.140625 496.703125 1217.210938 480.984375 1218.738281 480.324219 C 1218.917969 480.246094 1219.117188 480.234375 1219.304688 480.285156 L 1245.957031 487.902344 C 1246.316406 488.003906 1246.5625 488.332031 1246.5625 488.707031 C 1246.5625 488.828125 1246.378906 501.234375 1230.3125 506.011719 C 1212.90625 511.183594 1197.050781 526.898438 1192.605469 531.589844 C 1185.164062 539.441406 1159.167969 594.28125 1158.910156 594.835938 C 1158.765625 595.132812 1158.464844 595.3125 1158.148438 595.3125 " fill-opacity="1" fill-rule="nonzero"/><path fill="#545454" d="M 1267.300781 445.132812 C 1260.109375 430.746094 1248.261719 428.632812 1248.261719 428.632812 L 1227.957031 426.941406 C 1221.605469 426.507812 1214.855469 430.433594 1212.347656 436.28125 L 1193.6875 479.824219 C 1193.6875 479.824219 1197.492188 489.976562 1214.417969 491.667969 C 1231.339844 493.363281 1242.972656 492.304688 1248.476562 499.074219 C 1252.101562 503.535156 1251.984375 473.773438 1249.898438 450.230469 L 1267.300781 445.132812 " fill-opacity="1" fill-rule="nonzero"/><path fill="#ffffff" d="M 1213.148438 483.210938 L 1222.453125 478.976562 L 1229.648438 481.9375 C 1229.648438 481.9375 1268.230469 477.054688 1250.976562 449.445312 C 1250.90625 449.324219 1264.535156 446.570312 1264.535156 446.570312 C 1264.535156 446.570312 1280.261719 484.054688 1230.496094 484.902344 C 1230.496094 484.902344 1227.957031 485.746094 1224.566406 484.054688 C 1221.1875 482.363281 1215.261719 485.746094 1213.148438 483.210938 " fill-opacity="1" fill-rule="nonzero"/><path fill="#000000" d="M 1222.066406 482.71875 C 1223.089844 482.71875 1224.070312 482.867188 1224.945312 483.304688 C 1227.945312 484.800781 1230.144531 484.132812 1230.234375 484.101562 C 1230.3125 484.078125 1230.398438 484.0625 1230.480469 484.0625 C 1246.609375 483.785156 1257.414062 479.628906 1262.597656 471.695312 C 1268.707031 462.351562 1265.035156 450.398438 1264.003906 447.53125 C 1260.050781 448.332031 1254.542969 449.46875 1252.285156 449.976562 C 1256.503906 457.136719 1257.371094 463.457031 1254.851562 468.761719 C 1249.445312 480.152344 1230.554688 482.667969 1229.753906 482.769531 C 1229.609375 482.785156 1229.464844 482.765625 1229.332031 482.714844 L 1222.472656 479.890625 L 1215.003906 483.285156 C 1215.984375 483.457031 1217.3125 483.261719 1218.6875 483.054688 C 1219.816406 482.886719 1220.96875 482.71875 1222.066406 482.71875 Z M 1228.800781 485.949219 C 1227.628906 485.949219 1226.019531 485.714844 1224.195312 484.800781 C 1222.851562 484.128906 1220.863281 484.425781 1218.933594 484.710938 C 1216.476562 485.078125 1213.933594 485.457031 1212.503906 483.742188 C 1212.335938 483.542969 1212.273438 483.277344 1212.335938 483.019531 C 1212.390625 482.761719 1212.566406 482.554688 1212.804688 482.445312 L 1222.109375 478.210938 C 1222.320312 478.117188 1222.5625 478.113281 1222.773438 478.199219 L 1229.753906 481.074219 C 1231.851562 480.765625 1248.621094 477.984375 1253.339844 468.042969 C 1255.707031 463.046875 1254.675781 456.9375 1250.269531 449.886719 C 1250.125 449.65625 1250.101562 449.363281 1250.210938 449.109375 C 1250.449219 448.5625 1250.449219 448.5625 1264.371094 445.746094 C 1264.765625 445.667969 1265.160156 445.875 1265.3125 446.246094 C 1265.566406 446.851562 1271.445312 461.207031 1264.007812 472.601562 C 1258.515625 481.011719 1247.285156 485.433594 1230.621094 485.734375 C 1230.347656 485.808594 1229.707031 485.949219 1228.800781 485.949219 " fill-opacity="1" fill-rule="nonzero"/><path fill="#545454" d="M 1249.132812 452.113281 L 1268.027344 446.777344 L 1267.300781 445.132812 C 1267.300781 445.132812 1265.15625 443.488281 1264.742188 443.488281 C 1264.332031 443.488281 1253.648438 443.078125 1253.648438 443.078125 L 1247.074219 445.132812 L 1249.132812 452.113281 " fill-opacity="1" fill-rule="nonzero"/><path fill="#000000" d="M 1177.511719 485.984375 L 1214.207031 485.984375 L 1187.003906 444.144531 C 1186.15625 442.835938 1184.671875 442.042969 1183.082031 442.042969 L 1153.300781 442.042969 C 1151.410156 442.042969 1150.257812 444.070312 1151.269531 445.621094 L 1177.511719 485.984375 " fill-opacity="1" fill-rule="nonzero"/><path fill="#ffffff" d="M 1170.199219 456.714844 C 1171.390625 458.546875 1173.953125 460.035156 1175.925781 460.035156 C 1177.898438 460.035156 1178.53125 458.546875 1177.335938 456.714844 C 1176.144531 454.882812 1173.582031 453.394531 1171.609375 453.394531 C 1169.640625 453.394531 1169.007812 454.882812 1170.199219 456.714844 " fill-opacity="1" fill-rule="nonzero"/><path fill="#000000" d="M 1170.898438 456.257812 C 1171.933594 457.851562 1174.238281 459.199219 1175.925781 459.199219 C 1176.476562 459.199219 1176.878906 459.046875 1177.019531 458.785156 C 1177.203125 458.445312 1177.054688 457.828125 1176.632812 457.175781 C 1175.597656 455.582031 1173.292969 454.234375 1171.609375 454.234375 C 1171.054688 454.234375 1170.652344 454.386719 1170.511719 454.648438 C 1170.328125 454.992188 1170.476562 455.605469 1170.898438 456.257812 Z M 1175.925781 460.875 C 1173.667969 460.875 1170.847656 459.25 1169.496094 457.175781 C 1168.707031 455.96875 1168.542969 454.757812 1169.035156 453.847656 C 1169.488281 453.015625 1170.402344 452.558594 1171.609375 452.558594 C 1173.859375 452.558594 1176.6875 454.183594 1178.035156 456.257812 C 1178.824219 457.464844 1178.988281 458.675781 1178.496094 459.585938 C 1178.042969 460.417969 1177.128906 460.875 1175.925781 460.875 " fill-opacity="1" fill-rule="nonzero"/><path fill="#000000" d="M 1178.449219 489.132812 L 1238.191406 489.132812 C 1238.78125 489.132812 1239.257812 488.65625 1239.257812 488.066406 L 1239.257812 485.714844 L 1177.386719 485.714844 L 1177.386719 488.066406 C 1177.386719 488.65625 1177.863281 489.132812 1178.449219 489.132812 " fill-opacity="1" fill-rule="nonzero"/><path fill="#000000" d="M 1245.90625 329.632812 C 1259.5625 324.726562 1285.53125 349.375 1281.980469 367.707031 C 1280.996094 372.765625 1277.554688 378.453125 1272.683594 381.246094 C 1264.039062 386.203125 1254.824219 379.804688 1252.605469 383.785156 C 1250.679688 387.238281 1257.515625 392.214844 1256.695312 399.4375 C 1255.46875 410.171875 1238.535156 415.347656 1236.613281 415.941406 C 1235.179688 416.378906 1214.96875 422.25 1205.378906 410.015625 C 1203.070312 407.070312 1200.042969 401.367188 1201.664062 397.746094 C 1203.207031 394.292969 1207.945312 395.035156 1209.097656 391.402344 C 1210.09375 388.253906 1206.917969 386.488281 1207.242188 382.941406 C 1207.859375 376.09375 1220.296875 375.738281 1221.742188 368.554688 C 1222.898438 362.8125 1215.671875 359.433594 1216.910156 353.746094 C 1217.902344 349.160156 1223.105469 349.039062 1231.410156 343.167969 C 1241.355469 336.148438 1240.738281 331.488281 1245.90625 329.632812 " fill-opacity="1" fill-rule="nonzero"/><path fill="#ffffff" d="M 1234.722656 425.667969 C 1234.347656 425.484375 1229.257812 419.476562 1226.28125 415.9375 C 1226.507812 414.957031 1226.472656 414.644531 1226.386719 413.15625 C 1226.386719 413.15625 1227.933594 411.609375 1227.3125 409.601562 C 1226.59375 407.269531 1224.378906 409.140625 1224.378906 409.140625 C 1224.378906 409.140625 1223.351562 407.347656 1219.492188 410.4375 C 1215.632812 413.535156 1211.558594 409.769531 1211.558594 409.769531 C 1211.558594 409.769531 1211.558594 412.085938 1213.597656 414.902344 C 1214.722656 416.457031 1214.914062 418.507812 1214.964844 420.425781 L 1217.128906 420.113281 C 1218.316406 421.523438 1219.203125 422.214844 1220.839844 422.890625 C 1220.839844 422.890625 1222.128906 422.65625 1223.46875 421.542969 L 1225.839844 426.941406 L 1223.421875 428.210938 C 1223.421875 428.210938 1222.878906 431.59375 1229.226562 432.4375 C 1235.570312 433.285156 1240.648438 428.210938 1240.648438 428.210938 C 1240.648438 428.210938 1237.261719 426.941406 1234.722656 425.667969 " fill-opacity="1" fill-rule="nonzero"/><path fill="#000000" d="M 1224.277344 428.707031 C 1224.414062 429.441406 1225.195312 431.054688 1229.332031 431.609375 C 1233.597656 432.179688 1237.316406 429.820312 1239.039062 428.480469 C 1237.808594 427.988281 1235.933594 427.210938 1234.347656 426.421875 C 1234.101562 426.296875 1233.761719 426.125 1225.640625 416.480469 C 1225.46875 416.277344 1225.402344 416.007812 1225.460938 415.75 C 1225.648438 414.9375 1225.636719 414.707031 1225.566406 413.433594 L 1225.550781 413.203125 C 1225.539062 412.964844 1225.628906 412.734375 1225.792969 412.5625 C 1225.839844 412.515625 1226.972656 411.335938 1226.511719 409.847656 C 1226.464844 409.695312 1226.335938 409.339844 1226.144531 409.28125 C 1225.847656 409.195312 1225.230469 409.523438 1224.914062 409.78125 C 1224.710938 409.957031 1224.460938 410.074219 1224.195312 410.007812 C 1223.945312 409.941406 1223.761719 409.820312 1223.660156 409.582031 C 1223.429688 409.367188 1222.351562 409.226562 1220.019531 411.09375 C 1217.492188 413.117188 1214.742188 412.617188 1212.804688 411.625 C 1213.074219 412.40625 1213.527344 413.371094 1214.277344 414.410156 C 1215.335938 415.871094 1215.65625 417.667969 1215.765625 419.460938 L 1217.007812 419.285156 C 1217.296875 419.242188 1217.582031 419.347656 1217.769531 419.574219 C 1218.839844 420.835938 1219.601562 421.4375 1220.90625 422.007812 C 1221.285156 421.894531 1222.101562 421.589844 1222.9375 420.898438 C 1223.136719 420.730469 1223.40625 420.667969 1223.667969 420.726562 C 1223.921875 420.789062 1224.132812 420.964844 1224.238281 421.207031 L 1226.609375 426.601562 C 1226.78125 427.003906 1226.617188 427.476562 1226.230469 427.683594 Z M 1230.679688 433.375 C 1230.164062 433.375 1229.648438 433.34375 1229.113281 433.269531 C 1226.324219 432.898438 1224.382812 432 1223.339844 430.605469 C 1222.421875 429.367188 1222.578125 428.203125 1222.597656 428.074219 C 1222.636719 427.816406 1222.800781 427.589844 1223.035156 427.46875 L 1224.757812 426.558594 L 1223.121094 422.824219 C 1221.980469 423.527344 1221.039062 423.707031 1220.988281 423.714844 C 1220.828125 423.742188 1220.664062 423.726562 1220.515625 423.664062 C 1218.945312 423.015625 1217.960938 422.320312 1216.792969 421.007812 L 1215.085938 421.253906 C 1214.851562 421.289062 1214.609375 421.21875 1214.425781 421.066406 C 1214.242188 420.910156 1214.136719 420.6875 1214.128906 420.445312 C 1214.078125 418.621094 1213.894531 416.742188 1212.921875 415.390625 C 1210.75 412.394531 1210.722656 409.878906 1210.722656 409.773438 C 1210.722656 409.4375 1210.917969 409.136719 1211.222656 409 C 1211.527344 408.867188 1211.882812 408.925781 1212.128906 409.152344 C 1212.273438 409.285156 1215.730469 412.382812 1218.96875 409.785156 C 1220.882812 408.253906 1222.480469 407.59375 1223.726562 407.832031 C 1224.011719 407.886719 1224.246094 407.980469 1224.433594 408.089844 C 1224.972656 407.773438 1225.796875 407.433594 1226.613281 407.671875 C 1227.105469 407.816406 1227.765625 408.226562 1228.113281 409.355469 C 1228.707031 411.269531 1227.738281 412.8125 1227.246094 413.445312 C 1227.300781 414.488281 1227.324219 414.964844 1227.183594 415.710938 C 1233.625 423.355469 1234.914062 424.71875 1235.171875 424.957031 C 1237.632812 426.179688 1240.910156 427.410156 1240.941406 427.425781 C 1241.207031 427.523438 1241.40625 427.753906 1241.464844 428.03125 C 1241.527344 428.308594 1241.441406 428.597656 1241.242188 428.800781 C 1241.039062 429.003906 1236.59375 433.375 1230.679688 433.375 " fill-opacity="1" fill-rule="nonzero"/><path fill="#ffffff" d="M 1223.472656 421.542969 L 1224.171875 420.914062 L 1223.472656 421.542969 " fill-opacity="1" fill-rule="nonzero"/><path fill="#000000" d="M 1223.472656 422.378906 C 1223.246094 422.378906 1223.015625 422.285156 1222.847656 422.101562 C 1222.539062 421.757812 1222.570312 421.226562 1222.914062 420.917969 L 1223.609375 420.289062 C 1223.953125 419.980469 1224.484375 420.007812 1224.792969 420.351562 C 1225.105469 420.695312 1225.078125 421.222656 1224.730469 421.535156 L 1224.035156 422.164062 C 1223.871094 422.308594 1223.671875 422.378906 1223.472656 422.378906 " fill-opacity="1" fill-rule="nonzero"/><path fill="#ffffff" d="M 1067.816406 344.574219 L 927.335938 344.574219 C 921.855469 344.574219 917.414062 349.015625 917.414062 354.496094 L 917.414062 509.492188 C 917.414062 514.972656 921.855469 519.414062 927.335938 519.414062 L 1067.816406 519.414062 C 1073.296875 519.414062 1077.742188 514.972656 1077.742188 509.492188 L 1077.742188 354.496094 C 1077.742188 349.015625 1073.296875 344.574219 1067.816406 344.574219 " fill-opacity="1" fill-rule="nonzero"/><path fill="#000000" d="M 927.335938 345.410156 C 922.328125 345.410156 918.25 349.488281 918.25 354.496094 L 918.25 509.492188 C 918.25 514.503906 922.328125 518.578125 927.335938 518.578125 L 1067.816406 518.578125 C 1072.824219 518.578125 1076.902344 514.503906 1076.902344 509.492188 L 1076.902344 354.496094 C 1076.902344 349.488281 1072.824219 345.410156 1067.816406 345.410156 Z M 1067.816406 520.253906 L 927.335938 520.253906 C 921.402344 520.253906 916.574219 515.425781 916.574219 509.492188 L 916.574219 354.496094 C 916.574219 348.5625 921.402344 343.734375 927.335938 343.734375 L 1067.816406 343.734375 C 1073.753906 343.734375 1078.578125 348.5625 1078.578125 354.496094 L 1078.578125 509.492188 C 1078.578125 515.425781 1073.753906 520.253906 1067.816406 520.253906 " fill-opacity="1" fill-rule="nonzero"/><path fill="#000000" d="M 1069.980469 361.699219 L 925.300781 361.699219 C 924.839844 361.699219 924.460938 361.324219 924.460938 360.859375 C 924.460938 360.394531 924.839844 360.019531 925.300781 360.019531 L 1069.980469 360.019531 C 1070.441406 360.019531 1070.820312 360.394531 1070.820312 360.859375 C 1070.820312 361.324219 1070.441406 361.699219 1069.980469 361.699219 " fill-opacity="1" fill-rule="nonzero"/><path fill="#ff8a15" d="M 930.390625 352.207031 C 930.390625 353.613281 929.25 354.75 927.84375 354.75 C 926.441406 354.75 925.300781 353.613281 925.300781 352.207031 C 925.300781 350.800781 926.441406 349.664062 927.84375 349.664062 C 929.25 349.664062 930.390625 350.800781 930.390625 352.207031 " fill-opacity="1" fill-rule="nonzero"/><path fill="#ff8a15" d="M 940.570312 352.207031 C 940.570312 353.613281 939.429688 354.75 938.023438 354.75 C 936.621094 354.75 935.480469 353.613281 935.480469 352.207031 C 935.480469 350.800781 936.621094 349.664062 938.023438 349.664062 C 939.429688 349.664062 940.570312 350.800781 940.570312 352.207031 " fill-opacity="1" fill-rule="nonzero"/><path fill="#ff8a15" d="M 950.75 352.207031 C 950.75 353.613281 949.609375 354.75 948.207031 354.75 C 946.800781 354.75 945.660156 353.613281 945.660156 352.207031 C 945.660156 350.800781 946.800781 349.664062 948.207031 349.664062 C 949.609375 349.664062 950.75 350.800781 950.75 352.207031 " fill-opacity="1" fill-rule="nonzero"/><path fill="#000000" d="M 1069.980469 353.042969 L 1055.640625 353.042969 C 1055.179688 353.042969 1054.804688 352.667969 1054.804688 352.207031 C 1054.804688 351.742188 1055.179688 351.367188 1055.640625 351.367188 L 1069.980469 351.367188 C 1070.441406 351.367188 1070.820312 351.742188 1070.820312 352.207031 C 1070.820312 352.667969 1070.441406 353.042969 1069.980469 353.042969 " fill-opacity="1" fill-rule="nonzero"/><path fill="#000000" d="M 1049.195312 353.042969 L 989.8125 353.042969 C 989.351562 353.042969 988.976562 352.667969 988.976562 352.207031 C 988.976562 351.742188 989.351562 351.367188 989.8125 351.367188 L 1049.195312 351.367188 C 1049.660156 351.367188 1050.035156 351.742188 1050.035156 352.207031 C 1050.035156 352.667969 1049.660156 353.042969 1049.195312 353.042969 " fill-opacity="1" fill-rule="nonzero"/><path fill="#000000" d="M 974.207031 353.042969 L 961.566406 353.042969 C 961.105469 353.042969 960.730469 352.667969 960.730469 352.207031 C 960.730469 351.742188 961.105469 351.367188 961.566406 351.367188 L 974.207031 351.367188 C 974.667969 351.367188 975.042969 351.742188 975.042969 352.207031 C 975.042969 352.667969 974.667969 353.042969 974.207031 353.042969 " fill-opacity="1" fill-rule="nonzero"/><path fill="#ff8a15" d="M 973.25 427.503906 C 977.878906 419.410156 986.484375 413.695312 996.488281 412.660156 L 997.179688 373.09375 C 968.453125 373.191406 943.097656 389.375 931.550781 413.300781 L 973.25 427.503906 " fill-opacity="1" fill-rule="nonzero"/><path fill="#000000" d="M 932.722656 412.816406 L 972.875 426.488281 C 977.6875 418.511719 986.117188 413.121094 995.660156 411.910156 L 996.328125 373.941406 C 969.183594 374.34375 944.390625 389.5 932.722656 412.816406 Z M 973.25 428.34375 C 973.160156 428.34375 973.070312 428.328125 972.980469 428.296875 L 931.28125 414.097656 C 931.054688 414.019531 930.871094 413.84375 930.777344 413.625 C 930.6875 413.402344 930.691406 413.152344 930.796875 412.9375 C 942.679688 388.320312 968.734375 372.351562 997.179688 372.257812 C 997.402344 372.265625 997.621094 372.347656 997.777344 372.507812 C 997.9375 372.667969 998.023438 372.882812 998.019531 373.109375 L 997.324219 412.671875 C 997.316406 413.097656 996.992188 413.449219 996.574219 413.492188 C 987.023438 414.480469 978.578125 419.871094 973.980469 427.917969 C 973.828125 428.183594 973.546875 428.34375 973.25 428.34375 " fill-opacity="1" fill-rule="nonzero"/><path fill="#000000" d="M 971.289062 384.6875 C 970.957031 384.6875 970.644531 384.492188 970.511719 384.164062 C 970.335938 383.738281 970.542969 383.246094 970.972656 383.070312 C 977.472656 380.441406 984.324219 378.800781 991.332031 378.195312 C 991.796875 378.15625 992.199219 378.496094 992.238281 378.957031 C 992.277344 379.417969 991.9375 379.824219 991.476562 379.863281 C 984.632812 380.457031 977.949219 382.058594 971.601562 384.628906 C 971.5 384.667969 971.394531 384.6875 971.289062 384.6875 " fill-opacity="1" fill-rule="nonzero"/><path fill="#000000" d="M 948.402344 399.945312 C 948.191406 399.945312 947.976562 399.863281 947.816406 399.707031 C 947.484375 399.382812 947.480469 398.851562 947.800781 398.523438 C 952.707031 393.507812 958.402344 389.289062 964.722656 385.96875 C 965.132812 385.753906 965.640625 385.910156 965.855469 386.320312 C 966.070312 386.730469 965.914062 387.238281 965.503906 387.453125 C 959.335938 390.691406 953.785156 394.808594 949 399.691406 C 948.835938 399.863281 948.617188 399.945312 948.402344 399.945312 " fill-opacity="1" fill-rule="nonzero"/><path fill="#ff8a15" d="M 1028.671875 445.035156 C 1026.316406 458.035156 1014.476562 468.253906 999.96875 468.707031 C 995.640625 468.839844 991.507812 468.09375 987.757812 466.632812 L 965.113281 501.695312 C 975.640625 506.445312 987.53125 508.773438 999.96875 508.058594 C 1036.140625 505.980469 1064.578125 478.75 1067.738281 445.972656 L 1028.671875 445.035156 " fill-opacity="1" fill-rule="nonzero"/><path fill="#000000" d="M 966.347656 501.324219 C 976.757812 505.851562 988.339844 507.886719 999.917969 507.222656 C 1034.613281 505.230469 1063.203125 479.320312 1066.808594 446.789062 L 1029.359375 445.890625 C 1026.59375 459.195312 1014.363281 469.097656 999.992188 469.542969 C 995.886719 469.671875 991.878906 469.039062 988.097656 467.65625 Z M 995.625 509.019531 C 984.925781 509.019531 974.34375 506.777344 964.769531 502.457031 C 964.546875 502.355469 964.378906 502.164062 964.308594 501.929688 C 964.238281 501.695312 964.277344 501.441406 964.410156 501.238281 L 987.054688 466.175781 C 987.269531 465.84375 987.691406 465.707031 988.0625 465.851562 C 991.828125 467.316406 995.820312 468 999.941406 467.867188 C 1013.777344 467.4375 1025.515625 457.773438 1027.847656 444.886719 C 1027.921875 444.480469 1028.289062 444.1875 1028.691406 444.199219 L 1067.757812 445.136719 C 1067.988281 445.140625 1068.207031 445.242188 1068.363281 445.417969 C 1068.515625 445.589844 1068.59375 445.820312 1068.570312 446.050781 C 1065.316406 479.820312 1035.84375 506.835938 1000.015625 508.894531 C 998.554688 508.980469 997.089844 509.019531 995.625 509.019531 " fill-opacity="1" fill-rule="nonzero"/><path fill="#000000" d="M 995.554688 503.351562 C 987.90625 503.351562 980.441406 502.140625 973.367188 499.75 C 972.929688 499.605469 972.691406 499.128906 972.839844 498.6875 C 972.988281 498.25 973.464844 498.015625 973.902344 498.164062 C 980.804688 500.492188 988.089844 501.671875 995.554688 501.671875 C 996.898438 501.671875 998.253906 501.636719 999.59375 501.554688 C 1000.054688 501.53125 1000.453125 501.882812 1000.480469 502.347656 C 1000.507812 502.808594 1000.152344 503.207031 999.691406 503.230469 C 998.320312 503.308594 996.929688 503.351562 995.554688 503.351562 " fill-opacity="1" fill-rule="nonzero"/><path fill="#000000" d="M 1013.941406 500.902344 C 1013.574219 500.902344 1013.238281 500.65625 1013.132812 500.285156 C 1013.011719 499.835938 1013.277344 499.375 1013.722656 499.253906 C 1037.425781 492.789062 1055.730469 473.976562 1060.359375 451.324219 C 1060.449219 450.867188 1060.894531 450.578125 1061.347656 450.667969 C 1061.800781 450.761719 1062.09375 451.203125 1062 451.65625 C 1057.246094 474.925781 1038.472656 494.246094 1014.164062 500.871094 C 1014.089844 500.894531 1014.015625 500.902344 1013.941406 500.902344 " fill-opacity="1" fill-rule="nonzero"/><path fill="#ff8a15" d="M 958.027344 498.003906 L 980.878906 462.839844 C 974.042969 457.777344 969.648438 449.902344 969.648438 440.96875 C 969.648438 438.808594 969.910156 436.707031 970.394531 434.679688 L 928.535156 420.648438 C 926.289062 427.238281 925.074219 434.25 925.074219 441.515625 C 925.074219 465.570312 938.273438 486.28125 958.027344 498.003906 " fill-opacity="1" fill-rule="nonzero"/><path fill="#000000" d="M 929.066406 421.710938 C 926.972656 428.117188 925.914062 434.773438 925.914062 441.515625 C 925.914062 464.082031 937.804688 484.714844 957.761719 496.871094 L 979.75 463.035156 C 972.789062 457.59375 968.8125 449.597656 968.8125 440.96875 C 968.8125 439.042969 969.011719 437.117188 969.410156 435.234375 Z M 958.023438 498.84375 C 957.878906 498.84375 957.730469 498.804688 957.597656 498.726562 C 936.707031 486.328125 924.238281 464.941406 924.238281 441.515625 C 924.238281 434.3125 925.417969 427.199219 927.742188 420.378906 C 927.894531 419.941406 928.367188 419.707031 928.804688 419.851562 L 970.664062 433.886719 C 971.074219 434.023438 971.3125 434.453125 971.210938 434.875 C 970.730469 436.871094 970.488281 438.921875 970.488281 440.96875 C 970.488281 449.316406 974.457031 457.042969 981.378906 462.167969 C 981.734375 462.429688 981.824219 462.925781 981.582031 463.296875 L 958.730469 498.460938 C 958.570312 498.710938 958.300781 498.84375 958.023438 498.84375 " fill-opacity="1" fill-rule="nonzero"/><path fill="#ff8a15" d="M 1009.464844 411.164062 C 1022.675781 413.128906 1032.835938 423.367188 1034.039062 436.019531 L 1097.917969 437.867188 C 1097.917969 437.84375 1097.917969 437.816406 1097.917969 437.789062 C 1097.917969 390.925781 1060.582031 350.824219 1010.609375 345.660156 L 1009.464844 411.164062 " fill-opacity="1" fill-rule="nonzero"/><path fill="#000000" d="M 1034.792969 435.203125 L 1097.074219 437.007812 C 1096.667969 390.695312 1060.046875 352.050781 1011.429688 346.597656 L 1010.3125 410.449219 C 1023.34375 412.695312 1033.265625 422.730469 1034.792969 435.203125 Z M 1097.910156 438.707031 C 1097.90625 438.707031 1097.894531 438.707031 1097.894531 438.707031 L 1034.015625 436.855469 C 1033.59375 436.84375 1033.246094 436.519531 1033.207031 436.101562 C 1032.03125 423.824219 1022.21875 413.910156 1009.339844 411.992188 C 1008.921875 411.929688 1008.617188 411.566406 1008.625 411.148438 L 1009.769531 345.648438 C 1009.773438 345.414062 1009.875 345.195312 1010.054688 345.039062 C 1010.226562 344.882812 1010.457031 344.808594 1010.695312 344.832031 C 1034.980469 347.339844 1057.324219 358.234375 1073.613281 375.515625 C 1089.824219 392.714844 1098.757812 414.832031 1098.757812 437.789062 C 1098.757812 438.019531 1098.664062 438.273438 1098.5 438.433594 C 1098.339844 438.585938 1098.128906 438.707031 1097.910156 438.707031 " fill-opacity="1" fill-rule="nonzero"/><path fill="#ffffff" d="M 937.847656 412.761719 L 854.242188 412.761719 C 850.121094 412.761719 846.78125 416.101562 846.78125 420.222656 L 846.78125 531.308594 C 846.78125 535.429688 850.121094 538.769531 854.242188 538.769531 L 937.847656 538.769531 C 941.96875 538.769531 945.304688 535.429688 945.304688 531.308594 L 945.304688 420.222656 C 945.304688 416.101562 941.96875 412.761719 937.847656 412.761719 " fill-opacity="1" fill-rule="nonzero"/><path fill="#000000" d="M 854.242188 413.601562 C 850.589844 413.601562 847.621094 416.570312 847.621094 420.222656 L 847.621094 531.308594 C 847.621094 534.957031 850.589844 537.929688 854.242188 537.929688 L 937.847656 537.929688 C 941.5 537.929688 944.46875 534.957031 944.46875 531.308594 L 944.46875 420.222656 C 944.46875 416.570312 941.5 413.601562 937.847656 413.601562 Z M 937.847656 539.609375 L 854.242188 539.609375 C 849.664062 539.609375 845.945312 535.882812 845.945312 531.308594 L 845.945312 420.222656 C 845.945312 415.648438 849.664062 411.925781 854.242188 411.925781 L 937.847656 411.925781 C 942.421875 411.925781 946.144531 415.648438 946.144531 420.222656 L 946.144531 531.308594 C 946.144531 535.882812 942.421875 539.609375 937.847656 539.609375 " fill-opacity="1" fill-rule="nonzero"/><path fill="#545454" d="M 879.957031 519.300781 L 858.492188 519.300781 L 858.492188 448.773438 L 879.957031 448.773438 L 879.957031 519.300781 " fill-opacity="1" fill-rule="nonzero"/><path fill="#545454" d="M 906.773438 519.300781 L 885.3125 519.300781 L 885.3125 429.308594 L 906.773438 429.308594 L 906.773438 519.300781 " fill-opacity="1" fill-rule="nonzero"/><path fill="#545454" d="M 933.59375 519.300781 L 912.132812 519.300781 L 912.132812 477.253906 L 933.59375 477.253906 L 933.59375 519.300781 " fill-opacity="1" fill-rule="nonzero"/><path fill="#000000" d="M 862.5625 491.824219 C 862.097656 491.824219 861.722656 491.449219 861.722656 490.984375 L 861.722656 446.386719 C 861.722656 445.925781 862.097656 445.550781 862.5625 445.550781 L 884.023438 445.550781 C 884.488281 445.550781 884.863281 445.925781 884.863281 446.386719 L 884.863281 466.566406 C 884.863281 467.027344 884.488281 467.402344 884.023438 467.402344 C 883.5625 467.402344 883.1875 467.027344 883.1875 466.566406 L 883.1875 447.226562 L 863.402344 447.226562 L 863.402344 490.984375 C 863.402344 491.449219 863.027344 491.824219 862.5625 491.824219 " fill-opacity="1" fill-rule="nonzero"/><path fill="#000000" d="M 910.84375 507.042969 C 910.378906 507.042969 910.003906 506.667969 910.003906 506.207031 L 910.003906 427.761719 L 890.21875 427.761719 L 890.21875 491.160156 C 890.21875 491.625 889.84375 492 889.382812 492 C 888.917969 492 888.542969 491.625 888.542969 491.160156 L 888.542969 426.925781 C 888.542969 426.460938 888.917969 426.085938 889.382812 426.085938 L 910.84375 426.085938 C 911.308594 426.085938 911.683594 426.460938 911.683594 426.925781 L 911.683594 506.207031 C 911.683594 506.667969 911.308594 507.042969 910.84375 507.042969 " fill-opacity="1" fill-rule="nonzero"/><path fill="#000000" d="M 916.199219 510.230469 C 915.738281 510.230469 915.363281 509.855469 915.363281 509.390625 L 915.363281 474.867188 C 915.363281 474.402344 915.738281 474.027344 916.199219 474.027344 L 937.664062 474.027344 C 938.125 474.027344 938.5 474.402344 938.5 474.867188 L 938.5 499.128906 C 938.5 499.589844 938.125 499.964844 937.664062 499.964844 C 937.199219 499.964844 936.824219 499.589844 936.824219 499.128906 L 936.824219 475.707031 L 917.039062 475.707031 L 917.039062 509.390625 C 917.039062 509.855469 916.664062 510.230469 916.199219 510.230469 " fill-opacity="1" fill-rule="nonzero"/></svg>