<svg xmlns="http://www.w3.org/2000/svg" xmlns:xlink="http://www.w3.org/1999/xlink" width="1920" zoomAndPan="magnify" viewBox="0 0 1440 809.999993" height="1080" preserveAspectRatio="xMidYMid meet" version="1.0"><defs><clipPath id="0a5afb566e"><path d="M 738 0 L 1440 0 L 1440 616 L 738 616 Z M 738 0 " clip-rule="nonzero"/></clipPath><clipPath id="eb048c5c5c"><path d="M 761.855469 -338.542969 L 1834.277344 -239.355469 L 1750.21875 669.515625 L 677.792969 570.328125 Z M 761.855469 -338.542969 " clip-rule="nonzero"/></clipPath><clipPath id="1f77266e79"><path d="M 761.855469 -338.542969 L 1834.277344 -239.355469 L 1750.21875 669.515625 L 677.792969 570.328125 Z M 761.855469 -338.542969 " clip-rule="nonzero"/></clipPath><clipPath id="39a460c1cc"><path d="M 1380.523438 610.050781 L 1440 610.050781 L 1440 729 L 1380.523438 729 Z M 1380.523438 610.050781 " clip-rule="nonzero"/></clipPath><clipPath id="43cc61b908"><path d="M 1440 610.050781 C 1407.152344 610.050781 1380.523438 636.675781 1380.523438 669.523438 C 1380.523438 702.371094 1407.152344 729 1440 729 C 1472.847656 729 1499.476562 702.371094 1499.476562 669.523438 C 1499.476562 636.675781 1472.847656 610.050781 1440 610.050781 Z M 1440 610.050781 " clip-rule="nonzero"/></clipPath><clipPath id="25d8889235"><path d="M 0.523438 0.0507812 L 60 0.0507812 L 60 119 L 0.523438 119 Z M 0.523438 0.0507812 " clip-rule="nonzero"/></clipPath><clipPath id="7fc5657727"><path d="M 60 0.0507812 C 27.152344 0.0507812 0.523438 26.675781 0.523438 59.523438 C 0.523438 92.371094 27.152344 119 60 119 C 92.847656 119 119.476562 92.371094 119.476562 59.523438 C 119.476562 26.675781 92.847656 0.0507812 60 0.0507812 Z M 60 0.0507812 " clip-rule="nonzero"/></clipPath><clipPath id="35f1d49941"><rect x="0" width="60" y="0" height="119"/></clipPath><clipPath id="138055c015"><path d="M 677.796875 163.128906 L 719.347656 163.128906 L 719.347656 184.972656 L 677.796875 184.972656 Z M 677.796875 163.128906 " clip-rule="nonzero"/></clipPath><clipPath id="0801ebd530"><path d="M 683.84375 184.972656 C 683.0625 184.972656 682.277344 184.808594 681.492188 184.480469 C 678.417969 183.171875 676.980469 179.640625 678.285156 176.570312 C 681.71875 168.394531 689.664062 163.128906 698.527344 163.128906 C 707.386719 163.128906 715.332031 168.394531 718.800781 176.570312 C 720.109375 179.640625 718.667969 183.207031 715.59375 184.480469 C 712.523438 185.789062 708.957031 184.351562 707.683594 181.277344 C 706.113281 177.613281 702.515625 175.226562 698.527344 175.226562 C 694.539062 175.226562 690.972656 177.613281 689.40625 181.277344 C 688.457031 183.566406 686.199219 184.972656 683.84375 184.972656 Z M 683.84375 184.972656 " clip-rule="nonzero"/></clipPath><clipPath id="2aba66b7dd"><path d="M 0.796875 0.128906 L 42.28125 0.128906 L 42.28125 21.972656 L 0.796875 21.972656 Z M 0.796875 0.128906 " clip-rule="nonzero"/></clipPath><clipPath id="9be76bc12a"><path d="M 6.84375 21.972656 C 6.0625 21.972656 5.277344 21.808594 4.492188 21.480469 C 1.417969 20.171875 -0.0195312 16.640625 1.285156 13.570312 C 4.71875 5.394531 12.664062 0.128906 21.527344 0.128906 C 30.386719 0.128906 38.332031 5.394531 41.800781 13.570312 C 43.109375 16.640625 41.667969 20.207031 38.59375 21.480469 C 35.523438 22.789062 31.957031 21.351562 30.683594 18.277344 C 29.113281 14.613281 25.515625 12.226562 21.527344 12.226562 C 17.539062 12.226562 13.972656 14.613281 12.40625 18.277344 C 11.457031 20.566406 9.199219 21.972656 6.84375 21.972656 Z M 6.84375 21.972656 " clip-rule="nonzero"/></clipPath><clipPath id="f6a9c34d5f"><rect x="0" width="43" y="0" height="22"/></clipPath><clipPath id="c431fd5d3c"><path d="M 1409.953125 318.625 L 1440 318.625 L 1440 340.46875 L 1409.953125 340.46875 Z M 1409.953125 318.625 " clip-rule="nonzero"/></clipPath><clipPath id="369afa8da1"><path d="M 1416.003906 340.46875 C 1415.21875 340.46875 1414.433594 340.304688 1413.648438 339.976562 C 1410.574219 338.667969 1409.136719 335.136719 1410.445312 332.0625 C 1413.878906 323.890625 1421.824219 318.625 1430.683594 318.625 C 1439.546875 318.625 1447.492188 323.890625 1450.957031 332.0625 C 1452.265625 335.136719 1450.828125 338.703125 1447.753906 339.976562 C 1444.679688 341.285156 1441.113281 339.847656 1439.839844 336.773438 C 1438.269531 333.109375 1434.671875 330.722656 1430.683594 330.722656 C 1426.695312 330.722656 1423.132812 333.109375 1421.5625 336.773438 C 1420.613281 339.0625 1418.355469 340.46875 1416.003906 340.46875 Z M 1416.003906 340.46875 " clip-rule="nonzero"/></clipPath><clipPath id="94e9212ac5"><path d="M 0.953125 0.625 L 31 0.625 L 31 22.46875 L 0.953125 22.46875 Z M 0.953125 0.625 " clip-rule="nonzero"/></clipPath><clipPath id="f3b71e448c"><path d="M 7.003906 22.46875 C 6.21875 22.46875 5.433594 22.304688 4.648438 21.976562 C 1.574219 20.667969 0.136719 17.136719 1.445312 14.0625 C 4.878906 5.890625 12.824219 0.625 21.683594 0.625 C 30.546875 0.625 38.492188 5.890625 41.957031 14.0625 C 43.265625 17.136719 41.828125 20.703125 38.753906 21.976562 C 35.679688 23.285156 32.113281 21.847656 30.839844 18.773438 C 29.269531 15.109375 25.671875 12.722656 21.683594 12.722656 C 17.695312 12.722656 14.132812 15.109375 12.5625 18.773438 C 11.613281 21.0625 9.355469 22.46875 7.003906 22.46875 Z M 7.003906 22.46875 " clip-rule="nonzero"/></clipPath><clipPath id="db5520f747"><rect x="0" width="31" y="0" height="23"/></clipPath><clipPath id="1d971ca04d"><path d="M 733.289062 647.683594 L 774.839844 647.683594 L 774.839844 669.523438 L 733.289062 669.523438 Z M 733.289062 647.683594 " clip-rule="nonzero"/></clipPath><clipPath id="fc6df9e9d3"><path d="M 739.339844 669.523438 C 738.554688 669.523438 737.769531 669.359375 736.984375 669.035156 C 733.910156 667.726562 732.472656 664.195312 733.78125 661.121094 C 737.214844 652.945312 745.160156 647.683594 754.019531 647.683594 C 762.882812 647.683594 770.828125 652.945312 774.292969 661.121094 C 775.601562 664.195312 774.164062 667.757812 771.089844 669.035156 C 768.015625 670.34375 764.453125 668.902344 763.175781 665.828125 C 761.605469 662.167969 758.007812 659.78125 754.019531 659.78125 C 750.03125 659.78125 746.46875 662.167969 744.898438 665.828125 C 743.949219 668.117188 741.691406 669.523438 739.339844 669.523438 Z M 739.339844 669.523438 " clip-rule="nonzero"/></clipPath><clipPath id="13ba61c431"><path d="M 0.289062 0.683594 L 41.839844 0.683594 L 41.839844 22.523438 L 0.289062 22.523438 Z M 0.289062 0.683594 " clip-rule="nonzero"/></clipPath><clipPath id="5c71b0ce0a"><path d="M 6.339844 22.523438 C 5.554688 22.523438 4.769531 22.359375 3.984375 22.035156 C 0.910156 20.726562 -0.527344 17.195312 0.78125 14.121094 C 4.214844 5.945312 12.160156 0.683594 21.019531 0.683594 C 29.882812 0.683594 37.828125 5.945312 41.292969 14.121094 C 42.601562 17.195312 41.164062 20.757812 38.089844 22.035156 C 35.015625 23.34375 31.453125 21.902344 30.175781 18.828125 C 28.605469 15.167969 25.007812 12.78125 21.019531 12.78125 C 17.03125 12.78125 13.46875 15.167969 11.898438 18.828125 C 10.949219 21.117188 8.691406 22.523438 6.339844 22.523438 Z M 6.339844 22.523438 " clip-rule="nonzero"/></clipPath><clipPath id="5fe5926b70"><rect x="0" width="42" y="0" height="23"/></clipPath><clipPath id="c1c4f3aed4"><path d="M 33.65625 39 L 54 39 L 54 54 L 33.65625 54 Z M 33.65625 39 " clip-rule="nonzero"/></clipPath><clipPath id="6f7768d8b7"><path d="M 48 36 L 64.40625 36 L 64.40625 51 L 48 51 Z M 48 36 " clip-rule="nonzero"/></clipPath></defs><rect x="-144" width="1728" fill="#ffffff" y="-80.999999" height="971.999992" fill-opacity="1"/><rect x="-144" width="1728" fill="#ffffff" y="-80.999999" height="971.999992" fill-opacity="1"/><g clip-path="url(#0a5afb566e)"><g clip-path="url(#eb048c5c5c)"><g clip-path="url(#1f77266e79)"><path fill="#ff8a15" d="M 775.40625 -152.222656 C 740.636719 -102.761719 747.25 -34.933594 758.523438 24.953125 C 769.789062 84.84375 783.722656 149.21875 759.738281 205.175781 C 752.488281 222.097656 741.859375 237.855469 738.84375 256.085938 C 733.089844 290.90625 757.710938 324.570312 787.988281 339.984375 C 818.257812 355.394531 853.109375 356.929688 886.792969 359.347656 C 920.480469 361.765625 955.597656 365.894531 983.628906 385.347656 C 1040.515625 424.832031 1047.699219 510.746094 1094.496094 562.699219 C 1130.03125 602.15625 1185.070312 617.195312 1237.117188 614.777344 C 1289.171875 612.367188 1339.410156 594.570312 1388.820312 576.960938 C 1462.007812 550.863281 1535.757812 524.507812 1602.589844 483.710938 C 1664.734375 445.78125 1721.210938 394.179688 1754.503906 327.542969 C 1787.804688 260.910156 1795.207031 177.941406 1763.039062 111.269531 C 1736.644531 56.574219 1684.46875 9.753906 1688.453125 -51.585938 C 1690.789062 -87.632812 1713.175781 -121.101562 1710.179688 -157.050781 C 1703.320312 -239.15625 1594.257812 -261.492188 1531.902344 -258.269531 C 1457.292969 -254.414062 1391.785156 -216.753906 1335.410156 -167.609375 C 1298.933594 -135.824219 1263.457031 -95.101562 1212.933594 -92.691406 C 1137.652344 -89.097656 1067.132812 -152.769531 1001.359375 -182.105469 C 930.484375 -213.726562 828.25 -227.398438 775.40625 -152.222656 " fill-opacity="1" fill-rule="nonzero"/></g></g></g><g clip-path="url(#39a460c1cc)"><g clip-path="url(#43cc61b908)"><g transform="matrix(1, 0, 0, 1, 1380, 610)"><g clip-path="url(#35f1d49941)"><g clip-path="url(#25d8889235)"><g clip-path="url(#7fc5657727)"><path fill="#ff8a15" d="M 0.523438 0.0507812 L 119.476562 0.0507812 L 119.476562 119 L 0.523438 119 Z M 0.523438 0.0507812 " fill-opacity="1" fill-rule="nonzero"/></g></g></g></g></g></g><g clip-path="url(#138055c015)"><g clip-path="url(#0801ebd530)"><g transform="matrix(1, 0, 0, 1, 677, 163)"><g clip-path="url(#f6a9c34d5f)"><g clip-path="url(#2aba66b7dd)"><g clip-path="url(#9be76bc12a)"><path fill="#ff8a15" d="M 0.796875 0.128906 L 42.261719 0.128906 L 42.261719 21.972656 L 0.796875 21.972656 Z M 0.796875 0.128906 " fill-opacity="1" fill-rule="nonzero"/></g></g></g></g></g></g><g clip-path="url(#c431fd5d3c)"><g clip-path="url(#369afa8da1)"><g transform="matrix(1, 0, 0, 1, 1409, 318)"><g clip-path="url(#db5520f747)"><g clip-path="url(#94e9212ac5)"><g clip-path="url(#f3b71e448c)"><path fill="#ff8a15" d="M 0.953125 0.625 L 42.421875 0.625 L 42.421875 22.46875 L 0.953125 22.46875 Z M 0.953125 0.625 " fill-opacity="1" fill-rule="nonzero"/></g></g></g></g></g></g><g clip-path="url(#1d971ca04d)"><g clip-path="url(#fc6df9e9d3)"><g transform="matrix(1, 0, 0, 1, 733, 647)"><g clip-path="url(#5fe5926b70)"><g clip-path="url(#13ba61c431)"><g clip-path="url(#5c71b0ce0a)"><path fill="#ff8a15" d="M 0.289062 0.683594 L 41.757812 0.683594 L 41.757812 22.523438 L 0.289062 22.523438 Z M 0.289062 0.683594 " fill-opacity="1" fill-rule="nonzero"/></g></g></g></g></g></g><g clip-path="url(#c1c4f3aed4)"><path fill="#ff8a15" d="M 37.117188 53.683594 L 38.480469 52.3125 L 43.816406 46.921875 L 50.507812 53.683594 L 53.976562 50.1875 L 50.722656 46.914062 L 47.265625 43.40625 L 43.816406 39.921875 L 33.65625 50.1875 Z M 37.117188 53.683594 " fill-opacity="1" fill-rule="nonzero"/></g><g clip-path="url(#6f7768d8b7)"><path fill="#ff8a15" d="M 54.15625 43.433594 L 60.855469 50.207031 L 64.3125 46.707031 L 54.15625 36.441406 L 48.332031 42.324219 L 51.800781 45.824219 Z M 54.15625 43.433594 " fill-opacity="1" fill-rule="nonzero"/></g><path fill="#ececec" d="M 1165.851562 427.625 C 1120.964844 382.449219 1133.816406 354.132812 1103.101562 333.21875 C 1055.84375 301.035156 967.640625 328.726562 915.601562 372.992188 C 851.867188 427.210938 818.984375 526.210938 856.445312 615.773438 C 896.335938 711.152344 1001.296875 760.660156 1094.953125 745.742188 C 1178.589844 732.417969 1260.808594 666.5 1269.046875 587.445312 C 1269.941406 578.875 1273.878906 532.554688 1246.234375 492.617188 C 1223.382812 459.609375 1201.433594 463.4375 1165.851562 427.625 " fill-opacity="1" fill-rule="nonzero"/><path fill="#000000" d="M 852.890625 603.535156 L 1214.453125 604.320312 L 1220.730469 604.335938 L 1232.402344 604.363281 C 1235.722656 604.363281 1238.445312 601.769531 1238.867188 598.472656 L 1269.097656 362.21875 C 1269.835938 356.472656 1265.644531 351.042969 1259.859375 351.042969 L 885.257812 351.382812 L 852.890625 603.535156 " fill-opacity="1" fill-rule="nonzero"/><path fill="#ffffff" d="M 1246.042969 351.019531 C 1252.5625 351.019531 1257.867188 357.582031 1257.03125 364.066406 L 1226.582031 598.511719 C 1226.160156 601.8125 1223.359375 604.277344 1220.046875 604.277344 L 1217.1875 604.382812 L 848.113281 604.277344 C 844.136719 604.277344 841.066406 600.773438 841.574219 596.820312 L 872.636719 357.605469 C 873.0625 354.308594 875.59375 351.019531 878.910156 351.019531 L 1246.042969 351.019531 " fill-opacity="1" fill-rule="nonzero"/><path fill="#000000" d="M 878.910156 351.792969 C 875.980469 351.792969 873.769531 354.859375 873.40625 357.707031 L 842.34375 596.921875 C 842.128906 598.585938 842.640625 600.265625 843.75 601.527344 C 844.855469 602.78125 846.445312 603.5 848.113281 603.5 L 1217.191406 603.613281 L 1220.015625 603.503906 C 1222.960938 603.5 1225.441406 601.3125 1225.816406 598.414062 L 1256.261719 363.96875 C 1256.644531 360.988281 1255.609375 357.769531 1253.484375 355.355469 C 1251.492188 353.089844 1248.78125 351.792969 1246.042969 351.792969 Z M 1217.21875 605.160156 L 848.113281 605.054688 C 846 605.054688 843.984375 604.140625 842.585938 602.550781 C 841.183594 600.953125 840.535156 598.828125 840.804688 596.722656 L 871.867188 357.503906 C 872.328125 353.933594 875.085938 350.242188 878.910156 350.242188 L 1246.042969 350.242188 C 1249.226562 350.242188 1252.363281 351.734375 1254.648438 354.332031 C 1257.097656 357.113281 1258.25 360.699219 1257.800781 364.167969 L 1227.351562 598.613281 C 1226.882812 602.285156 1223.738281 605.054688 1220.046875 605.054688 L 1217.21875 605.160156 " fill-opacity="1" fill-rule="nonzero"/><path fill="#ffffff" d="M 855.542969 383.085938 C 855.671875 382.082031 856.53125 381.324219 857.542969 381.324219 L 1034.601562 381.324219 C 1036.59375 381.324219 1038.136719 383.082031 1037.878906 385.0625 L 1023.835938 490.351562 C 1023.707031 491.359375 1022.847656 492.117188 1021.835938 492.117188 L 843.074219 492.117188 C 841.972656 492.117188 841.121094 491.144531 841.269531 490.054688 L 855.542969 383.085938 " fill-opacity="1" fill-rule="nonzero"/><path fill="#ececec" d="M 1008.453125 417.292969 L 877.03125 417.292969 C 875.128906 417.292969 873.664062 415.617188 873.910156 413.730469 L 878.058594 381.660156 L 1015.832031 381.660156 L 1011.574219 414.558594 C 1011.367188 416.121094 1010.03125 417.292969 1008.453125 417.292969 " fill-opacity="1" fill-rule="nonzero"/><path fill="#696052" d="M 1034.601562 381.324219 C 1036.59375 381.324219 1038.136719 383.082031 1037.878906 385.0625 L 1036.359375 393.902344 L 853.835938 393.871094 L 855.542969 383.085938 C 855.671875 382.082031 856.53125 381.324219 857.542969 381.324219 L 1034.601562 381.324219 " fill-opacity="1" fill-rule="nonzero"/><path fill="#ff8a15" d="M 900.660156 427.847656 L 884.691406 427.847656 C 883.128906 427.847656 881.925781 426.472656 882.128906 424.925781 L 884.25 408.914062 C 884.421875 407.628906 885.515625 406.667969 886.8125 406.667969 L 902.78125 406.667969 C 904.34375 406.667969 905.546875 408.042969 905.34375 409.589844 L 903.222656 425.605469 C 903.050781 426.886719 901.957031 427.847656 900.660156 427.847656 " fill-opacity="1" fill-rule="nonzero"/><path fill="#ececec" d="M 945.378906 388.175781 C 945.542969 386.914062 944.558594 385.804688 943.292969 385.804688 L 877.839844 385.804688 C 876.78125 385.804688 875.886719 386.589844 875.753906 387.640625 C 875.589844 388.898438 876.574219 390.011719 877.839844 390.011719 L 943.292969 390.011719 C 944.351562 390.011719 945.246094 389.226562 945.378906 388.175781 " fill-opacity="1" fill-rule="nonzero"/><path fill="#ececec" d="M 1012.253906 388.175781 C 1012.414062 386.914062 1011.433594 385.804688 1010.164062 385.804688 L 1004.191406 385.804688 C 1003.132812 385.804688 1002.234375 386.589844 1002.101562 387.640625 C 1001.941406 388.898438 1002.921875 390.011719 1004.191406 390.011719 L 1010.164062 390.011719 C 1011.226562 390.011719 1012.121094 389.226562 1012.253906 388.175781 " fill-opacity="1" fill-rule="nonzero"/><path fill="#ececec" d="M 910.523438 448.417969 L 870.566406 448.417969 C 869.804688 448.417969 869.1875 447.800781 869.1875 447.039062 L 869.1875 446.660156 C 869.1875 445.898438 869.804688 445.28125 870.566406 445.28125 L 910.523438 445.28125 C 911.285156 445.28125 911.902344 445.898438 911.902344 446.660156 L 911.902344 447.039062 C 911.902344 447.800781 911.285156 448.417969 910.523438 448.417969 " fill-opacity="1" fill-rule="nonzero"/><path fill="#ececec" d="M 887.378906 441.132812 L 871.722656 441.132812 C 870.964844 441.132812 870.34375 440.515625 870.34375 439.757812 L 870.34375 439.375 C 870.34375 438.617188 870.964844 438 871.722656 438 L 887.378906 438 C 888.136719 438 888.753906 438.617188 888.753906 439.375 L 888.753906 439.757812 C 888.753906 440.515625 888.136719 441.132812 887.378906 441.132812 " fill-opacity="1" fill-rule="nonzero"/><path fill="#000000" d="M 855.542969 383.085938 L 855.550781 383.085938 Z M 857.542969 382.097656 C 856.921875 382.097656 856.394531 382.570312 856.3125 383.1875 L 842.039062 490.15625 C 841.996094 490.457031 842.085938 490.753906 842.285156 490.984375 C 842.488281 491.214844 842.769531 491.339844 843.074219 491.339844 L 1021.835938 491.339844 C 1022.457031 491.339844 1022.984375 490.875 1023.066406 490.253906 L 1037.109375 384.960938 C 1037.207031 384.238281 1036.984375 383.507812 1036.5 382.960938 C 1036.019531 382.414062 1035.328125 382.097656 1034.601562 382.097656 Z M 1021.835938 492.890625 L 843.074219 492.890625 C 842.324219 492.890625 841.613281 492.570312 841.121094 492.007812 C 840.628906 491.445312 840.402344 490.691406 840.5 489.953125 L 854.773438 382.984375 C 854.957031 381.59375 856.144531 380.550781 857.542969 380.550781 L 1034.601562 380.550781 C 1035.773438 380.550781 1036.886719 381.054688 1037.664062 381.933594 C 1038.441406 382.820312 1038.800781 383.992188 1038.648438 385.160156 L 1024.601562 490.457031 C 1024.425781 491.84375 1023.238281 492.890625 1021.835938 492.890625 " fill-opacity="1" fill-rule="nonzero"/><path fill="#ececec" d="M 1133.054688 393.90625 L 1069.175781 393.90625 C 1065.25 393.90625 1062.273438 390.359375 1062.957031 386.492188 C 1063.488281 383.472656 1066.113281 381.269531 1069.175781 381.269531 L 1133.054688 381.269531 C 1136.980469 381.269531 1139.957031 384.816406 1139.277344 388.6875 C 1138.742188 391.703125 1136.121094 393.90625 1133.054688 393.90625 " fill-opacity="1" fill-rule="nonzero"/><path fill="#ececec" d="M 1112.871094 516.265625 L 1048.996094 516.265625 C 1045.070312 516.265625 1042.09375 512.71875 1042.777344 508.855469 C 1043.308594 505.835938 1045.929688 503.632812 1048.996094 503.632812 L 1112.871094 503.632812 C 1116.800781 503.632812 1119.777344 507.179688 1119.09375 511.046875 C 1118.5625 514.066406 1115.9375 516.265625 1112.871094 516.265625 " fill-opacity="1" fill-rule="nonzero"/><path fill="#696052" d="M 1112.871094 516.265625 L 1048.996094 516.265625 C 1045.070312 516.265625 1042.09375 512.71875 1042.777344 508.855469 C 1043.308594 505.835938 1045.929688 503.632812 1048.996094 503.632812 L 1112.871094 503.632812 C 1116.800781 503.632812 1119.777344 507.179688 1119.09375 511.046875 C 1118.5625 514.066406 1115.9375 516.265625 1112.871094 516.265625 " fill-opacity="1" fill-rule="nonzero"/><path fill="#000000" d="M 1118.617188 512.429688 C 1118.425781 512.429688 1118.234375 512.359375 1118.082031 512.214844 C 1117.773438 511.917969 1117.761719 511.425781 1118.058594 511.117188 L 1119.960938 509.132812 C 1120.257812 508.820312 1120.75 508.8125 1121.054688 509.109375 C 1121.367188 509.40625 1121.375 509.894531 1121.078125 510.207031 L 1119.175781 512.191406 C 1119.023438 512.351562 1118.820312 512.429688 1118.617188 512.429688 " fill-opacity="1" fill-rule="nonzero"/><path fill="#000000" d="M 1111.960938 519.378906 C 1111.765625 519.378906 1111.574219 519.308594 1111.421875 519.164062 C 1111.113281 518.871094 1111.101562 518.378906 1111.398438 518.070312 L 1113.300781 516.085938 C 1113.597656 515.773438 1114.089844 515.761719 1114.398438 516.058594 C 1114.707031 516.355469 1114.71875 516.847656 1114.421875 517.15625 L 1112.519531 519.140625 C 1112.367188 519.300781 1112.164062 519.378906 1111.960938 519.378906 " fill-opacity="1" fill-rule="nonzero"/><path fill="#000000" d="M 1113.828125 512.535156 C 1113.628906 512.535156 1113.433594 512.464844 1113.28125 512.3125 L 1111.351562 510.414062 C 1111.046875 510.113281 1111.039062 509.621094 1111.339844 509.316406 C 1111.644531 509.011719 1112.132812 509.007812 1112.4375 509.308594 L 1114.371094 511.207031 C 1114.675781 511.507812 1114.679688 512 1114.378906 512.304688 C 1114.226562 512.457031 1114.027344 512.535156 1113.828125 512.535156 " fill-opacity="1" fill-rule="nonzero"/><path fill="#000000" d="M 1120.585938 519.1875 C 1120.386719 519.1875 1120.191406 519.117188 1120.039062 518.964844 L 1118.109375 517.066406 C 1117.804688 516.765625 1117.800781 516.273438 1118.101562 515.96875 C 1118.402344 515.664062 1118.890625 515.660156 1119.199219 515.960938 L 1121.128906 517.859375 C 1121.433594 518.160156 1121.4375 518.652344 1121.136719 518.957031 C 1120.984375 519.113281 1120.785156 519.1875 1120.585938 519.1875 " fill-opacity="1" fill-rule="nonzero"/><path fill="#ececec" d="M 1119.332031 475.480469 L 1055.457031 475.480469 C 1051.527344 475.480469 1048.550781 471.933594 1049.234375 468.066406 C 1049.765625 465.046875 1052.386719 462.84375 1055.457031 462.84375 L 1119.332031 462.84375 C 1123.257812 462.84375 1126.234375 466.394531 1125.550781 470.261719 C 1125.019531 473.277344 1122.394531 475.480469 1119.332031 475.480469 " fill-opacity="1" fill-rule="nonzero"/><path fill="#696052" d="M 1082.089844 475.480469 L 1055.457031 475.480469 C 1051.527344 475.480469 1048.550781 471.933594 1049.234375 468.066406 C 1049.765625 465.046875 1052.386719 462.84375 1055.457031 462.84375 L 1082.089844 462.84375 C 1086.019531 462.84375 1088.996094 466.394531 1088.3125 470.261719 C 1087.78125 473.277344 1085.160156 475.480469 1082.089844 475.480469 " fill-opacity="1" fill-rule="nonzero"/><path fill="#000000" d="M 1086.347656 471.925781 C 1086.15625 471.925781 1085.960938 471.851562 1085.8125 471.707031 C 1085.503906 471.414062 1085.492188 470.921875 1085.789062 470.613281 L 1087.691406 468.625 C 1087.984375 468.316406 1088.480469 468.308594 1088.789062 468.601562 C 1089.097656 468.898438 1089.105469 469.390625 1088.8125 469.699219 L 1086.90625 471.683594 C 1086.753906 471.84375 1086.554688 471.925781 1086.347656 471.925781 " fill-opacity="1" fill-rule="nonzero"/><path fill="#000000" d="M 1079.691406 478.875 C 1079.496094 478.875 1079.300781 478.804688 1079.152344 478.660156 C 1078.84375 478.363281 1078.832031 477.871094 1079.128906 477.5625 L 1081.03125 475.578125 C 1081.328125 475.269531 1081.820312 475.257812 1082.128906 475.554688 C 1082.4375 475.851562 1082.445312 476.339844 1082.152344 476.648438 L 1080.25 478.636719 C 1080.097656 478.792969 1079.894531 478.875 1079.691406 478.875 " fill-opacity="1" fill-rule="nonzero"/><path fill="#000000" d="M 1081.558594 472.03125 C 1081.359375 472.03125 1081.160156 471.957031 1081.011719 471.808594 L 1079.078125 469.90625 C 1078.773438 469.605469 1078.769531 469.117188 1079.074219 468.8125 C 1079.371094 468.503906 1079.863281 468.5 1080.167969 468.800781 L 1082.101562 470.703125 C 1082.40625 471.003906 1082.410156 471.492188 1082.109375 471.796875 C 1081.957031 471.953125 1081.753906 472.03125 1081.558594 472.03125 " fill-opacity="1" fill-rule="nonzero"/><path fill="#000000" d="M 1088.3125 478.683594 C 1088.121094 478.683594 1087.921875 478.609375 1087.769531 478.460938 L 1085.839844 476.5625 C 1085.535156 476.261719 1085.53125 475.765625 1085.832031 475.464844 C 1086.132812 475.160156 1086.625 475.152344 1086.929688 475.453125 L 1088.859375 477.355469 C 1089.164062 477.65625 1089.167969 478.144531 1088.867188 478.453125 C 1088.714844 478.605469 1088.515625 478.683594 1088.3125 478.683594 " fill-opacity="1" fill-rule="nonzero"/><path fill="#ececec" d="M 1125.96875 434.691406 L 1062.089844 434.691406 C 1058.164062 434.691406 1055.1875 431.148438 1055.871094 427.277344 C 1056.402344 424.257812 1059.027344 422.058594 1062.089844 422.058594 L 1125.96875 422.058594 C 1129.894531 422.058594 1132.871094 425.601562 1132.191406 429.472656 C 1131.65625 432.492188 1129.035156 434.691406 1125.96875 434.691406 " fill-opacity="1" fill-rule="nonzero"/><path fill="#696052" d="M 1074.519531 434.691406 L 1062.21875 434.691406 C 1058.292969 434.691406 1055.316406 431.148438 1056 427.277344 C 1056.53125 424.257812 1059.15625 422.058594 1062.21875 422.058594 L 1074.519531 422.058594 C 1078.445312 422.058594 1081.421875 425.601562 1080.742188 429.472656 C 1080.207031 432.492188 1077.585938 434.691406 1074.519531 434.691406 " fill-opacity="1" fill-rule="nonzero"/><path fill="#000000" d="M 1078.871094 431.539062 C 1078.679688 431.539062 1078.484375 431.464844 1078.335938 431.324219 C 1078.027344 431.027344 1078.015625 430.535156 1078.3125 430.226562 L 1080.214844 428.242188 C 1080.511719 427.929688 1081 427.921875 1081.308594 428.21875 C 1081.621094 428.511719 1081.632812 429.003906 1081.332031 429.3125 L 1079.429688 431.300781 C 1079.28125 431.460938 1079.074219 431.539062 1078.871094 431.539062 " fill-opacity="1" fill-rule="nonzero"/><path fill="#000000" d="M 1072.214844 438.488281 C 1072.019531 438.488281 1071.828125 438.417969 1071.675781 438.273438 C 1071.367188 437.976562 1071.355469 437.488281 1071.652344 437.179688 L 1073.554688 435.191406 C 1073.851562 434.882812 1074.34375 434.871094 1074.652344 435.167969 C 1074.960938 435.464844 1074.972656 435.953125 1074.675781 436.261719 L 1072.773438 438.25 C 1072.621094 438.410156 1072.417969 438.488281 1072.214844 438.488281 " fill-opacity="1" fill-rule="nonzero"/><path fill="#000000" d="M 1074.082031 431.644531 C 1073.882812 431.644531 1073.6875 431.570312 1073.535156 431.421875 L 1071.605469 429.523438 C 1071.300781 429.222656 1071.296875 428.730469 1071.59375 428.425781 C 1071.894531 428.121094 1072.386719 428.113281 1072.691406 428.414062 L 1074.625 430.316406 C 1074.929688 430.617188 1074.933594 431.109375 1074.632812 431.414062 C 1074.480469 431.566406 1074.28125 431.644531 1074.082031 431.644531 " fill-opacity="1" fill-rule="nonzero"/><path fill="#000000" d="M 1080.839844 438.296875 C 1080.640625 438.296875 1080.445312 438.222656 1080.292969 438.074219 L 1078.363281 436.175781 C 1078.058594 435.875 1078.054688 435.382812 1078.355469 435.078125 C 1078.65625 434.773438 1079.144531 434.769531 1079.449219 435.066406 L 1081.382812 436.96875 C 1081.6875 437.269531 1081.691406 437.761719 1081.390625 438.066406 C 1081.238281 438.21875 1081.039062 438.296875 1080.839844 438.296875 " fill-opacity="1" fill-rule="nonzero"/><path fill="#ececec" d="M 1212.664062 441.011719 L 1161.621094 441.011719 C 1153.765625 441.011719 1147.8125 433.917969 1149.179688 426.179688 C 1150.242188 420.140625 1155.488281 415.742188 1161.621094 415.742188 L 1212.664062 415.742188 C 1220.519531 415.742188 1226.472656 422.835938 1225.109375 430.570312 C 1224.042969 436.609375 1218.796875 441.011719 1212.664062 441.011719 " fill-opacity="1" fill-rule="nonzero"/><path fill="#ffffff" d="M 1169.425781 430.941406 C 1169.53125 430.34375 1169.234375 429.882812 1168.539062 429.5625 L 1167.074219 428.976562 C 1165.375 428.21875 1164.566406 427.175781 1164.652344 425.84375 C 1164.6875 425.226562 1164.890625 424.679688 1165.257812 424.203125 C 1165.628906 423.730469 1166.148438 423.355469 1166.8125 423.085938 C 1167.480469 422.816406 1168.203125 422.683594 1168.976562 422.695312 C 1170.046875 422.714844 1170.90625 423.03125 1171.566406 423.644531 C 1172.222656 424.261719 1172.546875 425.085938 1172.539062 426.117188 L 1170.320312 426.117188 C 1170.347656 425.617188 1170.238281 425.226562 1169.992188 424.949219 C 1169.746094 424.671875 1169.367188 424.523438 1168.851562 424.515625 C 1168.34375 424.507812 1167.902344 424.621094 1167.527344 424.859375 C 1167.152344 425.101562 1166.929688 425.433594 1166.859375 425.851562 C 1166.765625 426.402344 1167.132812 426.84375 1167.96875 427.164062 L 1168.972656 427.542969 L 1169.546875 427.808594 C 1171.039062 428.550781 1171.738281 429.585938 1171.640625 430.921875 C 1171.59375 431.574219 1171.390625 432.136719 1171.015625 432.609375 C 1170.644531 433.085938 1170.140625 433.449219 1169.5 433.699219 C 1168.859375 433.953125 1168.152344 434.070312 1167.382812 434.058594 C 1166.601562 434.039062 1165.902344 433.875 1165.289062 433.5625 C 1164.675781 433.25 1164.210938 432.808594 1163.890625 432.234375 C 1163.59375 431.703125 1163.457031 431.09375 1163.476562 430.414062 L 1165.699219 430.421875 C 1165.628906 431.621094 1166.21875 432.230469 1167.46875 432.25 C 1168.007812 432.25 1168.457031 432.128906 1168.800781 431.890625 C 1169.152344 431.65625 1169.359375 431.339844 1169.425781 430.941406 " fill-opacity="1" fill-rule="nonzero"/><path fill="#ffffff" d="M 1182.367188 424.691406 L 1179.085938 424.691406 L 1177.492188 433.898438 L 1175.269531 433.898438 L 1176.863281 424.691406 L 1173.625 424.691406 L 1173.949219 422.847656 L 1182.691406 422.847656 L 1182.367188 424.691406 " fill-opacity="1" fill-rule="nonzero"/><path fill="#ffffff" d="M 1184.679688 429.777344 L 1187.34375 429.777344 L 1186.722656 425.660156 Z M 1187.625 431.621094 L 1183.769531 431.621094 L 1182.632812 433.898438 L 1180.179688 433.898438 L 1186.085938 422.847656 L 1188.140625 422.847656 L 1190.242188 433.898438 L 1187.972656 433.898438 L 1187.625 431.621094 " fill-opacity="1" fill-rule="nonzero"/><path fill="#ffffff" d="M 1194.601562 428.007812 L 1196.253906 428.023438 C 1196.839844 428.011719 1197.324219 427.855469 1197.707031 427.546875 C 1198.089844 427.242188 1198.320312 426.824219 1198.394531 426.300781 C 1198.464844 425.808594 1198.386719 425.421875 1198.160156 425.144531 C 1197.933594 424.867188 1197.570312 424.71875 1197.074219 424.699219 L 1195.175781 424.691406 Z M 1196.085938 429.851562 L 1194.28125 429.851562 L 1193.578125 433.898438 L 1191.351562 433.898438 L 1193.269531 422.847656 L 1196.929688 422.851562 C 1198.152344 422.851562 1199.097656 423.140625 1199.757812 423.71875 C 1200.414062 424.296875 1200.707031 425.097656 1200.632812 426.125 C 1200.527344 427.644531 1199.71875 428.699219 1198.203125 429.289062 L 1199.761719 433.777344 L 1199.761719 433.898438 L 1197.394531 433.898438 L 1196.085938 429.851562 " fill-opacity="1" fill-rule="nonzero"/><path fill="#ffffff" d="M 1210.484375 424.691406 L 1207.207031 424.691406 L 1205.613281 433.898438 L 1203.390625 433.898438 L 1204.980469 424.691406 L 1201.742188 424.691406 L 1202.070312 422.847656 L 1210.8125 422.847656 L 1210.484375 424.691406 " fill-opacity="1" fill-rule="nonzero"/><path fill="#ececec" d="M 1202.242188 525.171875 L 1151.195312 525.171875 C 1143.339844 525.171875 1137.390625 518.078125 1138.753906 510.34375 C 1139.820312 504.304688 1145.066406 499.902344 1151.195312 499.902344 L 1202.242188 499.902344 C 1210.097656 499.902344 1216.050781 506.996094 1214.683594 514.730469 C 1213.621094 520.769531 1208.375 525.171875 1202.242188 525.171875 " fill-opacity="1" fill-rule="nonzero"/><path fill="#696052" d="M 1199.65625 522.582031 L 1148.609375 522.582031 C 1140.753906 522.582031 1134.804688 515.492188 1136.164062 507.757812 C 1137.230469 501.71875 1142.480469 497.316406 1148.609375 497.316406 L 1199.65625 497.316406 C 1207.511719 497.316406 1213.464844 504.40625 1212.097656 512.144531 C 1211.035156 518.183594 1205.789062 522.582031 1199.65625 522.582031 " fill-opacity="1" fill-rule="nonzero"/><path fill="#ffffff" d="M 1156.417969 512.519531 C 1156.523438 511.917969 1156.226562 511.457031 1155.527344 511.136719 L 1154.0625 510.550781 C 1152.363281 509.796875 1151.554688 508.75 1151.640625 507.417969 C 1151.679688 506.800781 1151.878906 506.253906 1152.25 505.78125 C 1152.617188 505.304688 1153.140625 504.929688 1153.804688 504.660156 C 1154.472656 504.390625 1155.195312 504.257812 1155.96875 504.269531 C 1157.035156 504.289062 1157.898438 504.609375 1158.558594 505.222656 C 1159.214844 505.835938 1159.539062 506.660156 1159.527344 507.691406 L 1157.3125 507.691406 C 1157.335938 507.191406 1157.226562 506.800781 1156.980469 506.523438 C 1156.734375 506.246094 1156.355469 506.101562 1155.839844 506.089844 C 1155.332031 506.082031 1154.894531 506.195312 1154.519531 506.4375 C 1154.144531 506.675781 1153.921875 507.007812 1153.851562 507.425781 C 1153.753906 507.976562 1154.125 508.414062 1154.957031 508.738281 L 1155.960938 509.117188 L 1156.539062 509.382812 C 1158.03125 510.121094 1158.730469 511.160156 1158.632812 512.496094 C 1158.585938 513.148438 1158.378906 513.710938 1158.007812 514.183594 C 1157.632812 514.65625 1157.128906 515.019531 1156.488281 515.273438 C 1155.847656 515.527344 1155.144531 515.644531 1154.375 515.628906 C 1153.589844 515.613281 1152.890625 515.449219 1152.28125 515.136719 C 1151.667969 514.824219 1151.203125 514.382812 1150.882812 513.808594 C 1150.585938 513.277344 1150.445312 512.667969 1150.464844 511.988281 L 1152.691406 511.996094 C 1152.617188 513.195312 1153.207031 513.804688 1154.457031 513.824219 C 1155 513.824219 1155.445312 513.707031 1155.792969 513.46875 C 1156.140625 513.230469 1156.351562 512.914062 1156.417969 512.519531 " fill-opacity="1" fill-rule="nonzero"/><path fill="#ffffff" d="M 1169.355469 506.265625 L 1166.078125 506.265625 L 1164.484375 515.472656 L 1162.261719 515.472656 L 1163.855469 506.265625 L 1160.613281 506.265625 L 1160.941406 504.421875 L 1169.679688 504.421875 L 1169.355469 506.265625 " fill-opacity="1" fill-rule="nonzero"/><path fill="#ffffff" d="M 1171.667969 511.347656 L 1174.335938 511.347656 L 1173.710938 507.238281 Z M 1174.617188 513.195312 L 1170.761719 513.195312 L 1169.621094 515.472656 L 1167.171875 515.472656 L 1173.074219 504.421875 L 1175.132812 504.421875 L 1177.234375 515.472656 L 1174.964844 515.472656 L 1174.617188 513.195312 " fill-opacity="1" fill-rule="nonzero"/><path fill="#ffffff" d="M 1181.589844 509.582031 L 1183.246094 509.597656 C 1183.832031 509.585938 1184.316406 509.429688 1184.699219 509.121094 C 1185.082031 508.816406 1185.308594 508.398438 1185.386719 507.875 C 1185.457031 507.382812 1185.378906 507 1185.152344 506.71875 C 1184.921875 506.441406 1184.558594 506.292969 1184.066406 506.273438 L 1182.164062 506.265625 Z M 1183.078125 511.425781 L 1181.273438 511.425781 L 1180.566406 515.472656 L 1178.34375 515.472656 L 1180.261719 504.421875 L 1183.921875 504.429688 C 1185.144531 504.429688 1186.085938 504.71875 1186.746094 505.292969 C 1187.40625 505.867188 1187.699219 506.671875 1187.625 507.699219 C 1187.515625 509.21875 1186.707031 510.273438 1185.195312 510.863281 L 1186.75 515.347656 L 1186.75 515.472656 L 1184.382812 515.472656 L 1183.078125 511.425781 " fill-opacity="1" fill-rule="nonzero"/><path fill="#ffffff" d="M 1197.476562 506.265625 L 1194.199219 506.265625 L 1192.601562 515.472656 L 1190.378906 515.472656 L 1191.972656 506.265625 L 1188.730469 506.265625 L 1189.058594 504.421875 L 1197.800781 504.421875 L 1197.476562 506.265625 " fill-opacity="1" fill-rule="nonzero"/><path fill="#000000" d="M 1208.652344 518.703125 C 1208.460938 518.703125 1208.269531 518.628906 1208.117188 518.488281 C 1207.808594 518.191406 1207.796875 517.699219 1208.09375 517.390625 L 1209.996094 515.402344 C 1210.292969 515.097656 1210.78125 515.085938 1211.09375 515.378906 C 1211.402344 515.679688 1211.414062 516.167969 1211.117188 516.476562 L 1209.214844 518.464844 C 1209.0625 518.625 1208.855469 518.703125 1208.652344 518.703125 " fill-opacity="1" fill-rule="nonzero"/><path fill="#000000" d="M 1201.996094 525.652344 C 1201.800781 525.652344 1201.609375 525.582031 1201.460938 525.4375 C 1201.152344 525.140625 1201.140625 524.648438 1201.4375 524.34375 L 1203.335938 522.355469 C 1203.636719 522.046875 1204.125 522.035156 1204.433594 522.332031 C 1204.746094 522.628906 1204.753906 523.117188 1204.457031 523.425781 L 1202.558594 525.414062 C 1202.40625 525.574219 1202.199219 525.652344 1201.996094 525.652344 " fill-opacity="1" fill-rule="nonzero"/><path fill="#000000" d="M 1203.863281 518.808594 C 1203.667969 518.808594 1203.46875 518.734375 1203.320312 518.585938 L 1201.386719 516.6875 C 1201.082031 516.386719 1201.078125 515.894531 1201.378906 515.589844 C 1201.679688 515.285156 1202.167969 515.277344 1202.476562 515.578125 L 1204.40625 517.480469 C 1204.710938 517.78125 1204.714844 518.269531 1204.417969 518.578125 C 1204.265625 518.730469 1204.0625 518.808594 1203.863281 518.808594 " fill-opacity="1" fill-rule="nonzero"/><path fill="#000000" d="M 1210.621094 525.460938 C 1210.421875 525.460938 1210.226562 525.386719 1210.078125 525.238281 L 1208.148438 523.339844 C 1207.839844 523.039062 1207.839844 522.546875 1208.136719 522.242188 C 1208.4375 521.9375 1208.929688 521.929688 1209.234375 522.230469 L 1211.164062 524.132812 C 1211.46875 524.433594 1211.472656 524.925781 1211.175781 525.230469 C 1211.023438 525.386719 1210.824219 525.460938 1210.621094 525.460938 " fill-opacity="1" fill-rule="nonzero"/><path fill="#ff8a15" d="M 1206.171875 481.796875 L 1155.128906 481.796875 C 1147.273438 481.796875 1141.320312 474.707031 1142.683594 466.96875 C 1143.75 460.929688 1148.996094 456.527344 1155.128906 456.527344 L 1206.171875 456.527344 C 1214.027344 456.527344 1219.980469 463.621094 1218.617188 471.355469 C 1217.550781 477.394531 1212.304688 481.796875 1206.171875 481.796875 " fill-opacity="1" fill-rule="nonzero"/><path fill="#ffffff" d="M 1162.933594 471.734375 C 1163.039062 471.128906 1162.742188 470.667969 1162.042969 470.351562 L 1160.582031 469.765625 C 1158.882812 469.007812 1158.074219 467.960938 1158.160156 466.632812 C 1158.195312 466.011719 1158.398438 465.464844 1158.765625 464.992188 C 1159.136719 464.515625 1159.65625 464.144531 1160.324219 463.871094 C 1160.988281 463.601562 1161.710938 463.472656 1162.484375 463.480469 C 1163.550781 463.5 1164.414062 463.820312 1165.074219 464.433594 C 1165.730469 465.050781 1166.054688 465.871094 1166.042969 466.90625 L 1163.828125 466.90625 C 1163.855469 466.40625 1163.746094 466.011719 1163.5 465.738281 C 1163.253906 465.457031 1162.871094 465.316406 1162.355469 465.300781 C 1161.851562 465.292969 1161.410156 465.40625 1161.035156 465.648438 C 1160.660156 465.890625 1160.4375 466.21875 1160.367188 466.640625 C 1160.273438 467.191406 1160.640625 467.628906 1161.476562 467.953125 L 1162.476562 468.332031 L 1163.054688 468.597656 C 1164.546875 469.335938 1165.246094 470.371094 1165.148438 471.707031 C 1165.105469 472.359375 1164.894531 472.921875 1164.523438 473.398438 C 1164.148438 473.871094 1163.644531 474.234375 1163.003906 474.484375 C 1162.367188 474.738281 1161.660156 474.859375 1160.890625 474.84375 C 1160.109375 474.828125 1159.410156 474.664062 1158.796875 474.347656 C 1158.183594 474.039062 1157.71875 473.59375 1157.402344 473.023438 C 1157.101562 472.488281 1156.964844 471.882812 1156.984375 471.199219 L 1159.207031 471.207031 C 1159.136719 472.40625 1159.726562 473.019531 1160.976562 473.035156 C 1161.515625 473.035156 1161.960938 472.917969 1162.3125 472.679688 C 1162.660156 472.441406 1162.867188 472.125 1162.933594 471.734375 " fill-opacity="1" fill-rule="nonzero"/><path fill="#ffffff" d="M 1175.871094 465.476562 L 1172.59375 465.476562 L 1171.003906 474.683594 L 1168.777344 474.683594 L 1170.371094 465.476562 L 1167.128906 465.476562 L 1167.457031 463.632812 L 1176.199219 463.632812 L 1175.871094 465.476562 " fill-opacity="1" fill-rule="nonzero"/><path fill="#ffffff" d="M 1178.1875 470.5625 L 1180.851562 470.5625 L 1180.230469 466.449219 Z M 1181.132812 472.40625 L 1177.277344 472.40625 L 1176.140625 474.683594 L 1173.6875 474.683594 L 1179.589844 463.632812 L 1181.648438 463.632812 L 1183.75 474.683594 L 1181.480469 474.683594 L 1181.132812 472.40625 " fill-opacity="1" fill-rule="nonzero"/><path fill="#ffffff" d="M 1188.109375 468.792969 L 1189.761719 468.808594 C 1190.347656 468.796875 1190.832031 468.640625 1191.214844 468.335938 C 1191.597656 468.03125 1191.828125 467.613281 1191.902344 467.085938 C 1191.972656 466.59375 1191.894531 466.210938 1191.667969 465.933594 C 1191.441406 465.652344 1191.078125 465.503906 1190.582031 465.484375 L 1188.683594 465.476562 Z M 1189.59375 470.640625 L 1187.789062 470.640625 L 1187.082031 474.683594 L 1184.859375 474.683594 L 1186.777344 463.632812 L 1190.4375 463.640625 C 1191.664062 463.640625 1192.605469 463.929688 1193.265625 464.503906 C 1193.925781 465.082031 1194.214844 465.882812 1194.140625 466.910156 C 1194.035156 468.429688 1193.222656 469.484375 1191.710938 470.078125 L 1193.269531 474.5625 L 1193.269531 474.683594 L 1190.902344 474.683594 L 1189.59375 470.640625 " fill-opacity="1" fill-rule="nonzero"/><path fill="#ffffff" d="M 1203.992188 465.476562 L 1200.714844 465.476562 L 1199.121094 474.683594 L 1196.898438 474.683594 L 1198.492188 465.476562 L 1195.25 465.476562 L 1195.578125 463.632812 L 1204.316406 463.632812 L 1203.992188 465.476562 " fill-opacity="1" fill-rule="nonzero"/><path fill="#000000" d="M 1211.070312 478.5 C 1210.875 478.5 1210.683594 478.425781 1210.53125 478.285156 C 1210.222656 477.988281 1210.214844 477.496094 1210.507812 477.1875 L 1212.410156 475.203125 C 1212.707031 474.894531 1213.199219 474.882812 1213.507812 475.175781 C 1213.816406 475.472656 1213.828125 475.964844 1213.53125 476.273438 L 1211.628906 478.261719 C 1211.476562 478.421875 1211.273438 478.5 1211.070312 478.5 " fill-opacity="1" fill-rule="nonzero"/><path fill="#000000" d="M 1204.410156 485.449219 C 1204.21875 485.449219 1204.023438 485.378906 1203.875 485.234375 C 1203.5625 484.9375 1203.554688 484.449219 1203.847656 484.140625 L 1205.753906 482.152344 C 1206.050781 481.84375 1206.539062 481.832031 1206.847656 482.128906 C 1207.15625 482.425781 1207.167969 482.914062 1206.871094 483.222656 L 1204.96875 485.210938 C 1204.816406 485.371094 1204.613281 485.449219 1204.410156 485.449219 " fill-opacity="1" fill-rule="nonzero"/><path fill="#000000" d="M 1206.277344 478.605469 C 1206.082031 478.605469 1205.882812 478.53125 1205.730469 478.382812 L 1203.800781 476.484375 C 1203.496094 476.183594 1203.492188 475.691406 1203.792969 475.386719 C 1204.09375 475.082031 1204.585938 475.074219 1204.890625 475.375 L 1206.820312 477.277344 C 1207.125 477.578125 1207.128906 478.070312 1206.828125 478.375 C 1206.675781 478.527344 1206.476562 478.605469 1206.277344 478.605469 " fill-opacity="1" fill-rule="nonzero"/><path fill="#000000" d="M 1213.035156 485.257812 C 1212.839844 485.257812 1212.640625 485.183594 1212.492188 485.035156 L 1210.558594 483.136719 C 1210.253906 482.835938 1210.25 482.34375 1210.550781 482.039062 C 1210.851562 481.734375 1211.34375 481.730469 1211.648438 482.027344 L 1213.582031 483.929688 C 1213.886719 484.230469 1213.886719 484.722656 1213.585938 485.027344 C 1213.433594 485.183594 1213.234375 485.257812 1213.035156 485.257812 " fill-opacity="1" fill-rule="nonzero"/><path fill="#ececec" d="M 1200.210938 583.699219 C 1195.125 585.089844 1189.871094 582.09375 1188.476562 577.007812 C 1187.085938 571.917969 1190.078125 566.667969 1195.167969 565.273438 C 1200.257812 563.878906 1205.507812 566.875 1206.902344 571.960938 C 1208.296875 577.050781 1205.300781 582.304688 1200.210938 583.699219 Z M 1216.691406 571.203125 L 1215.714844 567.625 L 1211.664062 567.8125 C 1211.289062 567.023438 1210.855469 566.277344 1210.363281 565.578125 L 1212.507812 562.144531 L 1209.871094 559.535156 L 1206.453125 561.71875 C 1205.742188 561.230469 1204.992188 560.800781 1204.210938 560.4375 L 1204.351562 556.390625 L 1200.761719 555.445312 L 1198.898438 559.042969 C 1198.046875 558.972656 1197.183594 558.980469 1196.316406 559.058594 L 1194.410156 555.484375 L 1190.832031 556.460938 L 1191.015625 560.511719 C 1190.226562 560.886719 1189.480469 561.320312 1188.78125 561.8125 L 1185.351562 559.667969 L 1182.742188 562.304688 L 1184.921875 565.722656 C 1184.4375 566.433594 1184.007812 567.183594 1183.644531 567.964844 L 1179.59375 567.824219 L 1178.652344 571.414062 L 1182.25 573.277344 C 1182.179688 574.125 1182.1875 574.992188 1182.265625 575.863281 L 1178.6875 577.765625 L 1179.667969 581.34375 L 1183.714844 581.160156 C 1184.089844 581.945312 1184.527344 582.695312 1185.015625 583.394531 L 1182.875 586.828125 L 1185.511719 589.4375 L 1188.925781 587.253906 C 1189.636719 587.738281 1190.386719 588.167969 1191.171875 588.53125 L 1191.03125 592.582031 L 1194.621094 593.523438 L 1196.480469 589.929688 C 1197.332031 589.996094 1198.199219 589.988281 1199.066406 589.910156 L 1200.96875 593.488281 L 1204.546875 592.507812 L 1204.363281 588.460938 C 1205.152344 588.082031 1205.902344 587.648438 1206.597656 587.160156 L 1210.03125 589.304688 L 1212.640625 586.664062 L 1210.457031 583.25 C 1210.945312 582.539062 1211.375 581.789062 1211.738281 581.007812 L 1215.785156 581.148438 L 1216.726562 577.558594 L 1213.136719 575.695312 C 1213.199219 574.84375 1213.195312 573.980469 1213.117188 573.109375 L 1216.691406 571.203125 " fill-opacity="1" fill-rule="nonzero"/><path fill="#ececec" d="M 1220.855469 367.496094 L 1220.132812 371.730469 L 1218.871094 379.140625 C 1218.683594 380.226562 1218.269531 381.058594 1217.632812 381.636719 C 1217 382.222656 1216.175781 382.496094 1215.171875 382.460938 C 1213.777344 382.410156 1212.996094 381.734375 1212.835938 380.425781 C 1212.785156 380.027344 1212.789062 379.605469 1212.847656 379.152344 L 1214.015625 372.253906 L 1214.820312 367.496094 L 1211.269531 367.496094 L 1210.207031 373.773438 L 1209.296875 379.140625 C 1209.160156 380.34375 1209.308594 381.417969 1209.742188 382.371094 C 1210.183594 383.320312 1210.855469 384.054688 1211.777344 384.578125 C 1212.691406 385.09375 1213.773438 385.367188 1215.019531 385.394531 C 1217.003906 385.425781 1218.667969 384.878906 1220.007812 383.746094 C 1221.351562 382.613281 1222.160156 381.078125 1222.433594 379.128906 L 1223.578125 372.386719 L 1224.417969 367.496094 L 1220.855469 367.496094 " fill-opacity="1" fill-rule="nonzero"/><path fill="#ececec" d="M 1240.691406 367.496094 L 1236.429688 367.496094 L 1232.269531 373.554688 L 1230.019531 367.496094 L 1226.140625 367.496094 L 1229.421875 375.421875 L 1229.6875 376.074219 L 1223.0625 385.140625 L 1227.375 385.140625 L 1231.628906 378.980469 L 1233.945312 385.140625 L 1237.871094 385.140625 L 1234.210938 376.414062 L 1240.691406 367.496094 " fill-opacity="1" fill-rule="nonzero"/><path fill="#696052" d="M 1223.578125 372.386719 L 1222.433594 379.128906 C 1222.160156 381.078125 1221.351562 382.613281 1220.007812 383.746094 C 1218.667969 384.878906 1217.003906 385.425781 1215.019531 385.394531 C 1213.773438 385.367188 1212.691406 385.09375 1211.777344 384.578125 C 1210.855469 384.054688 1210.183594 383.320312 1209.742188 382.371094 C 1209.308594 381.417969 1209.160156 380.34375 1209.296875 379.140625 L 1210.207031 373.773438 C 1211.398438 373.125 1212.679688 372.609375 1214.015625 372.253906 L 1212.847656 379.152344 C 1212.789062 379.605469 1212.785156 380.027344 1212.835938 380.425781 C 1212.996094 381.734375 1213.777344 382.410156 1215.171875 382.460938 C 1216.175781 382.496094 1217 382.222656 1217.632812 381.636719 C 1218.269531 381.058594 1218.683594 380.226562 1218.871094 379.140625 L 1220.132812 371.730469 C 1221.320312 371.832031 1222.472656 372.054688 1223.578125 372.386719 " fill-opacity="1" fill-rule="nonzero"/><path fill="#696052" d="M 1235.632812 385.140625 L 1233.945312 385.140625 L 1231.628906 378.980469 L 1227.375 385.140625 L 1223.0625 385.140625 L 1229.6875 376.074219 L 1229.421875 375.421875 C 1232.476562 377.832031 1234.710938 381.234375 1235.632812 385.140625 " fill-opacity="1" fill-rule="nonzero"/><path fill="#000000" d="M 1100.9375 627.816406 L 845.8125 627.816406 C 845.382812 627.816406 845.039062 627.46875 845.039062 627.042969 C 845.039062 626.613281 845.382812 626.265625 845.8125 626.265625 L 1100.9375 626.265625 C 1101.367188 626.265625 1101.710938 626.613281 1101.710938 627.042969 C 1101.710938 627.46875 1101.367188 627.816406 1100.9375 627.816406 " fill-opacity="1" fill-rule="nonzero"/><path fill="#ffffff" d="M 1009.597656 718.128906 C 1010.910156 716.800781 1018.496094 693.195312 1018.496094 693.195312 L 1033.492188 703.894531 L 1017.054688 725.984375 L 1009.597656 718.128906 " fill-opacity="1" fill-rule="nonzero"/><path fill="#000000" d="M 1010.566406 718.019531 L 1016.984375 724.785156 L 1032.398438 704.066406 L 1018.910156 694.445312 C 1016.996094 700.378906 1012.320312 714.628906 1010.566406 718.019531 Z M 1017.054688 726.761719 C 1016.84375 726.761719 1016.636719 726.675781 1016.492188 726.519531 L 1009.035156 718.664062 C 1008.75 718.363281 1008.753906 717.890625 1009.039062 717.589844 C 1009.996094 716.433594 1014.894531 701.875 1017.757812 692.960938 C 1017.835938 692.722656 1018.019531 692.539062 1018.253906 692.460938 C 1018.488281 692.382812 1018.746094 692.421875 1018.949219 692.566406 L 1033.941406 703.265625 C 1034.113281 703.386719 1034.226562 703.570312 1034.257812 703.777344 C 1034.289062 703.980469 1034.238281 704.191406 1034.113281 704.359375 L 1017.675781 726.449219 C 1017.539062 726.632812 1017.328125 726.75 1017.101562 726.761719 C 1017.085938 726.761719 1017.070312 726.761719 1017.054688 726.761719 " fill-opacity="1" fill-rule="nonzero"/><path fill="#000000" d="M 1036.617188 747.972656 L 1026.644531 747.914062 C 1020.050781 747.875 1013.914062 744.523438 1010.316406 738.992188 L 1000.457031 723.386719 C 997.730469 719.070312 999.253906 713.355469 1003.761719 710.960938 C 1007.875 708.773438 1012.1875 706.644531 1013.199219 706.738281 C 1015.25 706.933594 1016.078125 716.640625 1016.078125 716.640625 L 1024.960938 716.980469 C 1024.960938 716.980469 1029.351562 735.230469 1033.210938 737.304688 C 1036.023438 738.816406 1037.988281 741.03125 1039.308594 743.058594 C 1040.691406 745.179688 1039.148438 747.988281 1036.617188 747.972656 " fill-opacity="1" fill-rule="nonzero"/><path fill="#ffffff" d="M 1035.613281 744.855469 C 1035.574219 744.855469 1035.539062 744.851562 1035.496094 744.847656 L 1021.859375 742.792969 C 1018.558594 742.296875 1015.683594 740.367188 1013.96875 737.503906 L 1001.917969 717.371094 C 1001.699219 717.003906 1001.816406 716.527344 1002.183594 716.304688 C 1002.550781 716.089844 1003.027344 716.207031 1003.25 716.574219 L 1015.300781 736.707031 C 1016.773438 739.171875 1019.25 740.832031 1022.089844 741.257812 L 1035.730469 743.3125 C 1036.152344 743.378906 1036.445312 743.773438 1036.378906 744.195312 C 1036.324219 744.582031 1035.992188 744.855469 1035.613281 744.855469 " fill-opacity="1" fill-rule="nonzero"/><path fill="#ffffff" d="M 1018.777344 729.714844 C 1018.4375 729.714844 1018.125 729.488281 1018.03125 729.140625 C 1017.917969 728.730469 1018.164062 728.300781 1018.574219 728.191406 L 1026.175781 726.121094 C 1026.585938 726.011719 1027.015625 726.253906 1027.125 726.664062 C 1027.238281 727.078125 1026.996094 727.503906 1026.582031 727.617188 L 1018.984375 729.6875 C 1018.914062 729.703125 1018.847656 729.714844 1018.777344 729.714844 " fill-opacity="1" fill-rule="nonzero"/><path fill="#ffffff" d="M 1022.738281 733.617188 C 1022.386719 733.617188 1022.070312 733.378906 1021.984375 733.023438 C 1021.882812 732.609375 1022.136719 732.191406 1022.550781 732.085938 L 1027.648438 730.84375 C 1028.0625 730.738281 1028.484375 730.996094 1028.585938 731.414062 C 1028.6875 731.828125 1028.433594 732.246094 1028.015625 732.347656 L 1022.921875 733.59375 C 1022.859375 733.609375 1022.796875 733.617188 1022.738281 733.617188 " fill-opacity="1" fill-rule="nonzero"/><path fill="#ffffff" d="M 1060.757812 713.625 L 1078.164062 731.117188 L 1087.390625 727.726562 L 1071.347656 705.351562 L 1060.757812 713.625 " fill-opacity="1" fill-rule="nonzero"/><path fill="#000000" d="M 1061.921875 713.699219 L 1078.363281 730.214844 L 1086.167969 727.351562 L 1071.1875 706.460938 Z M 1078.164062 731.890625 C 1077.960938 731.890625 1077.761719 731.8125 1077.613281 731.664062 L 1060.207031 714.171875 C 1060.050781 714.015625 1059.96875 713.800781 1059.984375 713.578125 C 1059.996094 713.355469 1060.105469 713.148438 1060.277344 713.015625 L 1070.867188 704.738281 C 1071.035156 704.609375 1071.246094 704.554688 1071.457031 704.582031 C 1071.664062 704.613281 1071.851562 704.726562 1071.976562 704.898438 L 1088.023438 727.273438 C 1088.164062 727.46875 1088.203125 727.722656 1088.132812 727.953125 C 1088.0625 728.183594 1087.886719 728.371094 1087.660156 728.457031 L 1078.429688 731.84375 C 1078.34375 731.875 1078.253906 731.890625 1078.164062 731.890625 " fill-opacity="1" fill-rule="nonzero"/><path fill="#000000" d="M 1072.664062 728.378906 C 1072.664062 728.378906 1071.824219 735.820312 1073.25 742.394531 C 1074.011719 745.898438 1077.167969 748.363281 1080.753906 748.363281 L 1123.476562 748.363281 C 1126.527344 748.363281 1127.914062 744.554688 1125.574219 742.589844 C 1117.976562 736.226562 1104.003906 726.507812 1086.824219 723.65625 L 1082.03125 730.363281 L 1072.664062 728.378906 " fill-opacity="1" fill-rule="nonzero"/><path fill="#ffffff" d="M 1121.445312 743.265625 L 1077.167969 743.265625 C 1076.738281 743.265625 1076.390625 742.917969 1076.390625 742.488281 C 1076.390625 742.058594 1076.738281 741.714844 1077.167969 741.714844 L 1121.445312 741.714844 C 1121.871094 741.714844 1122.21875 742.058594 1122.21875 742.488281 C 1122.21875 742.917969 1121.871094 743.265625 1121.445312 743.265625 " fill-opacity="1" fill-rule="nonzero"/><path fill="#ffffff" d="M 1096.738281 735.402344 C 1096.640625 735.402344 1096.542969 735.382812 1096.445312 735.34375 C 1096.046875 735.179688 1095.859375 734.726562 1096.023438 734.328125 L 1098.367188 728.640625 C 1098.53125 728.25 1098.984375 728.058594 1099.378906 728.222656 C 1099.777344 728.386719 1099.964844 728.839844 1099.800781 729.234375 L 1097.457031 734.921875 C 1097.332031 735.21875 1097.042969 735.402344 1096.738281 735.402344 " fill-opacity="1" fill-rule="nonzero"/><path fill="#ffffff" d="M 1104.445312 736.894531 C 1104.367188 736.894531 1104.28125 736.882812 1104.199219 736.855469 C 1103.796875 736.722656 1103.574219 736.28125 1103.707031 735.875 L 1105.40625 730.746094 C 1105.539062 730.339844 1105.976562 730.121094 1106.382812 730.253906 C 1106.792969 730.390625 1107.011719 730.828125 1106.878906 731.234375 L 1105.179688 736.363281 C 1105.074219 736.6875 1104.769531 736.894531 1104.445312 736.894531 " fill-opacity="1" fill-rule="nonzero"/><path fill="#000000" d="M 968.617188 591.238281 C 968.617188 591.238281 1048.171875 581.976562 1071.828125 602.457031 C 1095.484375 622.933594 1034.484375 710.992188 1034.484375 710.992188 L 1015.195312 696.6875 L 1033.492188 634.445312 L 959.949219 613.5625 L 968.617188 591.238281 " fill-opacity="1" fill-rule="nonzero"/><path fill="#000000" d="M 924.832031 631.769531 C 936.386719 635.4375 957.066406 640.175781 985.964844 639.78125 C 994.175781 639.671875 1001.757812 644.207031 1005.488281 651.523438 C 1014.046875 668.3125 1032.574219 698.539062 1062.753906 718.128906 L 1077.167969 710.363281 L 1040.378906 627.550781 C 1037.023438 619.988281 1030.742188 614.109375 1022.972656 611.261719 L 950.0625 584.527344 C 950.0625 584.527344 927.453125 578.207031 916.367188 598.390625 C 914.390625 601.992188 910.714844 595.550781 909.835938 598.460938 C 906.835938 608.429688 914.90625 628.621094 924.832031 631.769531 " fill-opacity="1" fill-rule="nonzero"/><path fill="#ffffff" d="M 1057.003906 665.75 C 1056.707031 665.75 1056.421875 665.578125 1056.296875 665.285156 L 1039.671875 627.863281 C 1036.417969 620.535156 1030.230469 614.75 1022.703125 611.992188 L 987.789062 599.1875 C 987.386719 599.039062 987.179688 598.59375 987.328125 598.191406 C 987.472656 597.789062 987.921875 597.585938 988.324219 597.730469 L 1023.238281 610.535156 C 1031.15625 613.4375 1037.664062 619.527344 1041.089844 627.234375 L 1057.714844 664.65625 C 1057.886719 665.050781 1057.710938 665.507812 1057.320312 665.679688 C 1057.214844 665.726562 1057.109375 665.75 1057.003906 665.75 " fill-opacity="1" fill-rule="nonzero"/><path fill="#ffffff" d="M 1037.59375 697.917969 C 1037.390625 697.917969 1037.1875 697.839844 1037.035156 697.679688 C 1033.6875 694.199219 1030.394531 690.460938 1027.246094 686.566406 C 1026.972656 686.234375 1027.027344 685.746094 1027.359375 685.476562 C 1027.691406 685.207031 1028.183594 685.257812 1028.449219 685.589844 C 1031.574219 689.449219 1034.835938 693.15625 1038.152344 696.605469 C 1038.449219 696.914062 1038.441406 697.402344 1038.132812 697.703125 C 1037.980469 697.847656 1037.785156 697.917969 1037.59375 697.917969 " fill-opacity="1" fill-rule="nonzero"/><path fill="#ffffff" d="M 1027.847656 686.855469 C 1027.621094 686.855469 1027.394531 686.757812 1027.246094 686.566406 C 1025.699219 684.65625 1024.160156 682.671875 1022.664062 680.664062 C 1022.40625 680.320312 1022.480469 679.832031 1022.820312 679.578125 C 1023.167969 679.324219 1023.652344 679.394531 1023.90625 679.738281 C 1025.390625 681.726562 1026.917969 683.695312 1028.449219 685.589844 C 1028.71875 685.921875 1028.667969 686.414062 1028.335938 686.679688 C 1028.191406 686.796875 1028.019531 686.855469 1027.847656 686.855469 " fill-opacity="1" fill-rule="nonzero"/><path fill="#ffffff" d="M 986.691406 526.976562 C 986.691406 526.976562 993.6875 590.515625 1040.675781 594.671875 L 986.691406 595.441406 C 986.691406 595.441406 966.703125 554.9375 965.890625 539.167969 C 965.078125 523.394531 986.691406 526.976562 986.691406 526.976562 " fill-opacity="1" fill-rule="nonzero"/><path fill="#000000" d="M 981.710938 527.410156 C 977.945312 527.410156 972.84375 528.015625 969.664062 530.863281 C 967.492188 532.800781 966.484375 535.582031 966.664062 539.125 C 967.414062 553.683594 985.011719 590.226562 987.171875 594.660156 L 1032.335938 594.015625 C 1016.660156 589.910156 1003.988281 578.15625 995.359375 559.59375 C 988.601562 545.050781 986.410156 530.738281 985.996094 527.664062 C 985.199219 527.566406 983.628906 527.410156 981.710938 527.410156 Z M 986.691406 596.214844 C 986.394531 596.214844 986.125 596.050781 985.996094 595.785156 C 985.175781 594.125 965.925781 554.953125 965.117188 539.207031 C 964.910156 535.167969 966.09375 531.96875 968.632812 529.699219 C 974.703125 524.277344 986.324219 526.132812 986.816406 526.214844 C 987.160156 526.269531 987.425781 526.550781 987.460938 526.894531 C 987.480469 527.054688 989.292969 542.875 996.785156 558.976562 C 1006.777344 580.453125 1021.566406 592.203125 1040.742188 593.902344 C 1041.152344 593.9375 1041.464844 594.289062 1041.449219 594.703125 C 1041.433594 595.117188 1041.101562 595.445312 1040.6875 595.449219 L 986.703125 596.214844 C 986.699219 596.214844 986.695312 596.214844 986.691406 596.214844 " fill-opacity="1" fill-rule="nonzero"/><path fill="#696052" d="M 919.816406 486.597656 C 928.933594 484.457031 932.734375 484.429688 965.867188 485.628906 C 973.96875 485.921875 983.601562 496.082031 984.550781 504.132812 C 981.980469 511.851562 970.097656 549.960938 990.835938 579.738281 C 993.78125 583.964844 997.78125 588.597656 1003.273438 593.039062 C 1000.1875 595.535156 995.390625 598.785156 988.953125 600.695312 C 978.261719 603.867188 972.886719 600.4375 964.273438 600.695312 C 941.484375 601.375 933.128906 626.753906 918.410156 623.566406 C 914.480469 622.714844 909.269531 619.648438 904.386719 609.367188 C 901.617188 600.839844 899.15625 590.828125 897.785156 579.511719 C 894.066406 548.839844 900.148438 523.300781 905.585938 507.269531 C 907.199219 502.210938 909.074219 489.125 919.816406 486.597656 " fill-opacity="1" fill-rule="nonzero"/><path fill="#696052" d="M 992.867188 534.097656 C 992.867188 534.097656 987.507812 491.136719 972.066406 487.46875 L 975.613281 543.984375 L 992.867188 534.097656 " fill-opacity="1" fill-rule="nonzero"/><path fill="#ffffff" d="M 891.746094 532.539062 C 891.632812 537.640625 891.660156 542.304688 891.871094 546.097656 C 893.226562 570.515625 896.523438 596.21875 898.542969 617.480469 C 898.96875 621.984375 891.824219 615.953125 882.609375 616 C 879.960938 616.011719 877.402344 616.960938 875.34375 618.632812 C 871.59375 621.667969 865.070312 627.042969 865.828125 627.042969 L 899.789062 627.042969 C 905.152344 627.042969 909.570312 622.832031 909.828125 617.476562 L 914.378906 522.78125 L 891.746094 532.539062 " fill-opacity="1" fill-rule="nonzero"/><path fill="#000000" d="M 867.472656 626.265625 L 899.789062 626.265625 C 904.746094 626.265625 908.816406 622.390625 909.050781 617.4375 L 913.542969 523.988281 L 892.511719 533.054688 C 892.40625 538.1875 892.453125 542.558594 892.644531 546.054688 C 893.582031 562.917969 895.40625 580.050781 897.175781 596.617188 C 897.953125 603.933594 898.691406 610.84375 899.3125 617.410156 C 899.347656 617.773438 899.453125 618.882812 898.65625 619.519531 C 897.605469 620.355469 895.84375 619.773438 893.175781 618.894531 C 890.441406 617.992188 886.671875 616.757812 882.613281 616.773438 C 880.183594 616.785156 877.773438 617.660156 875.832031 619.234375 C 871.394531 622.828125 868.773438 625.070312 867.472656 626.265625 Z M 899.789062 627.816406 L 865.828125 627.816406 C 865.46875 627.816406 865.15625 627.605469 865.042969 627.273438 C 864.804688 626.605469 864.683594 626.265625 874.855469 618.03125 C 877.070312 616.234375 879.824219 615.238281 882.605469 615.222656 C 886.949219 615.210938 890.828125 616.484375 893.664062 617.417969 C 895.28125 617.953125 897.296875 618.621094 897.6875 618.308594 C 897.738281 618.269531 897.820312 618.058594 897.769531 617.554688 C 897.148438 611 896.410156 604.09375 895.632812 596.78125 C 893.863281 580.195312 892.035156 563.042969 891.097656 546.140625 C 890.894531 542.496094 890.851562 537.914062 890.972656 532.519531 L 890.984375 532.023438 L 915.210938 521.578125 L 910.601562 617.515625 C 910.324219 623.292969 905.574219 627.816406 899.789062 627.816406 " fill-opacity="1" fill-rule="nonzero"/><path fill="#ffffff" d="M 914.386719 522.628906 C 907.332031 525.617188 899.046875 529.132812 891.75 532.269531 C 891.75 532.359375 891.75 532.445312 891.746094 532.539062 L 914.378906 522.78125 L 914.386719 522.628906 " fill-opacity="1" fill-rule="nonzero"/><path fill="#000000" d="M 890.945312 533.730469 L 890.988281 531.75 L 891.445312 531.554688 C 899.277344 528.191406 908.078125 524.457031 914.085938 521.917969 L 915.21875 521.4375 L 915.128906 523.304688 L 890.945312 533.730469 " fill-opacity="1" fill-rule="nonzero"/><path fill="#696052" d="M 887.792969 541.972656 C 887.792969 541.972656 889.304688 516.453125 891.507812 506.589844 C 896.148438 485.847656 923.035156 485.628906 923.035156 485.628906 L 918.339844 538.425781 L 887.792969 541.972656 " fill-opacity="1" fill-rule="nonzero"/><path fill="#ffffff" d="M 946.183594 485.648438 L 947.097656 472.738281 C 947.710938 472.695312 948.136719 472.671875 948.261719 472.667969 C 951.867188 472.628906 953.035156 471.460938 953.34375 468.503906 C 953.539062 466.652344 953.609375 463.90625 952.707031 460.46875 C 952.609375 460.101562 952.628906 459.710938 952.78125 459.359375 L 953.394531 457.917969 C 953.523438 457.445312 953.359375 456.9375 952.980469 456.625 L 952.652344 456.355469 C 951.476562 455.394531 950.5 454.210938 949.71875 452.894531 C 948.996094 451.6875 947.773438 449.417969 946.933594 449.015625 C 944.566406 447.886719 934.964844 442.867188 929.601562 451.640625 C 925.414062 458.484375 932.253906 467.902344 934.738281 470.988281 C 935.335938 471.734375 930.679688 486.363281 930.679688 486.363281 L 924.660156 487.816406 C 924.660156 487.816406 929.304688 496.066406 943.417969 492.65625 C 953.464844 490.222656 951.871094 486.484375 951.871094 486.484375 L 946.183594 485.648438 " fill-opacity="1" fill-rule="nonzero"/><path fill="#000000" d="M 925.960938 488.300781 C 927.582031 490.230469 932.523438 494.492188 943.234375 491.902344 C 948.902344 490.53125 950.515625 488.792969 950.976562 487.882812 C 951.117188 487.597656 951.171875 487.355469 951.183594 487.167969 L 946.070312 486.414062 C 945.671875 486.355469 945.382812 486 945.410156 485.59375 L 946.320312 472.683594 C 946.347656 472.300781 946.65625 471.992188 947.042969 471.96875 C 947.949219 471.902344 948.167969 471.894531 948.253906 471.894531 C 951.644531 471.855469 952.324219 470.792969 952.574219 468.421875 C 952.847656 465.824219 952.644531 463.289062 951.957031 460.664062 C 951.8125 460.125 951.851562 459.554688 952.066406 459.058594 L 952.65625 457.675781 C 952.683594 457.511719 952.621094 457.335938 952.488281 457.226562 L 952.160156 456.957031 C 950.960938 455.972656 949.914062 454.738281 949.050781 453.292969 C 948.949219 453.125 948.839844 452.9375 948.722656 452.734375 C 948.238281 451.902344 947.105469 449.960938 946.597656 449.71875 L 946.339844 449.59375 C 943.554688 448.25 935.085938 444.15625 930.261719 452.046875 C 926.449219 458.277344 932.542969 467.027344 935.339844 470.503906 C 935.640625 470.875 936.203125 471.574219 931.417969 486.597656 C 931.335938 486.855469 931.125 487.050781 930.863281 487.113281 Z M 936.910156 494.265625 C 927.53125 494.265625 924.152344 488.492188 923.984375 488.195312 C 923.863281 487.984375 923.851562 487.730469 923.949219 487.507812 C 924.046875 487.285156 924.242188 487.121094 924.476562 487.0625 L 930.074219 485.710938 C 932.054688 479.457031 934 472.613281 934.015625 471.332031 C 930.96875 467.507812 924.667969 458.21875 928.9375 451.238281 C 932.625 445.207031 938.707031 444.183594 947.015625 448.195312 L 947.265625 448.320312 C 948.136719 448.734375 949.011719 450.148438 950.0625 451.953125 C 950.179688 452.148438 950.285156 452.332031 950.382812 452.5 C 951.152344 453.792969 952.082031 454.886719 953.144531 455.757812 L 953.472656 456.027344 C 954.085938 456.53125 954.351562 457.355469 954.144531 458.121094 C 954.132812 458.15625 954.121094 458.191406 954.109375 458.222656 L 953.492188 459.664062 C 953.414062 459.847656 953.402344 460.0625 953.457031 460.269531 C 954.191406 463.078125 954.410156 465.796875 954.117188 468.582031 C 953.753906 472.035156 952.117188 473.398438 948.273438 473.445312 C 948.207031 473.445312 948.050781 473.453125 947.820312 473.46875 L 947.007812 484.984375 L 951.984375 485.71875 C 952.25 485.757812 952.476562 485.933594 952.582031 486.179688 C 952.628906 486.289062 953.015625 487.273438 952.363281 488.574219 C 951.332031 490.625 948.386719 492.25 943.597656 493.410156 C 941.089844 494.015625 938.871094 494.265625 936.910156 494.265625 " fill-opacity="1" fill-rule="nonzero"/><path fill="#000000" d="M 932.558594 440.484375 C 935.160156 439.921875 938.152344 440.320312 939.414062 439.859375 C 941.449219 439.109375 941.503906 436.667969 944.324219 435.984375 C 947.734375 435.152344 949.15625 436.609375 950.492188 438.640625 C 950.714844 438.980469 950.910156 439.355469 951.066406 439.785156 C 953.214844 445.539062 950.507812 448.34375 949.300781 449.253906 C 949.300781 449.253906 941.628906 453.21875 940.3125 454.351562 C 939.085938 455.410156 937.667969 457.921875 938.558594 461.523438 C 938.671875 461.988281 938.472656 462.476562 938.078125 462.710938 C 937.617188 462.988281 937.019531 462.855469 936.703125 462.398438 C 935.703125 460.949219 933.523438 458.152344 931.972656 458.816406 C 930.027344 459.648438 930.632812 465.488281 934.933594 466.164062 C 936.25 466.371094 937.324219 467.722656 937.191406 469.101562 C 937.109375 470.003906 936.257812 471.097656 934.992188 471.386719 C 934.222656 471.566406 933.460938 471.253906 932.78125 470.820312 C 929.976562 469.027344 922.066406 461.433594 921.082031 454.625 C 919.898438 446.425781 929.09375 441.230469 932.558594 440.484375 " fill-opacity="1" fill-rule="nonzero"/><path fill="#000000" d="M 948.066406 473.328125 C 948.054688 473.328125 948.046875 473.328125 948.039062 473.328125 C 947.90625 473.324219 944.769531 473.1875 942.507812 471.269531 C 942.207031 471.011719 942.167969 470.554688 942.425781 470.253906 C 942.683594 469.949219 943.140625 469.914062 943.441406 470.167969 C 945.316406 471.761719 948.066406 471.890625 948.09375 471.890625 C 948.488281 471.90625 948.796875 472.242188 948.78125 472.636719 C 948.769531 473.023438 948.449219 473.328125 948.066406 473.328125 " fill-opacity="1" fill-rule="nonzero"/><path fill="#ececec" d="M 1077.507812 601.1875 L 968.597656 601.1875 C 966.667969 601.1875 965.101562 599.621094 965.101562 597.691406 L 965.101562 594.964844 L 1081.003906 594.964844 L 1081.003906 597.691406 C 1081.003906 599.621094 1079.4375 601.1875 1077.507812 601.1875 " fill-opacity="1" fill-rule="nonzero"/><path fill="#000000" d="M 965.875 595.738281 L 965.875 597.691406 C 965.875 599.191406 967.097656 600.414062 968.597656 600.414062 L 1077.507812 600.414062 C 1079.007812 600.414062 1080.226562 599.191406 1080.226562 597.691406 L 1080.226562 595.738281 Z M 1077.507812 601.960938 L 968.597656 601.960938 C 966.242188 601.960938 964.324219 600.046875 964.324219 597.691406 L 964.324219 594.964844 C 964.324219 594.535156 964.671875 594.191406 965.101562 594.191406 L 1081.003906 594.191406 C 1081.433594 594.191406 1081.777344 594.535156 1081.777344 594.964844 L 1081.777344 597.691406 C 1081.777344 600.046875 1079.859375 601.960938 1077.507812 601.960938 " fill-opacity="1" fill-rule="nonzero"/><path fill="#ececec" d="M 1081.003906 595.074219 L 1014.683594 595.074219 L 1035.757812 533.054688 C 1037.015625 531.113281 1039.214844 529.933594 1041.578125 529.933594 L 1097.636719 529.933594 C 1100.179688 529.933594 1101.820312 532.402344 1100.988281 534.582031 C 1100.65625 535.449219 1100.304688 536.304688 1100.011719 537.183594 L 1081.003906 595.074219 " fill-opacity="1" fill-rule="nonzero"/><path fill="#000000" d="M 1015.769531 594.300781 L 1080.441406 594.300781 L 1099.277344 536.945312 C 1099.488281 536.292969 1099.742188 535.648438 1099.980469 535.03125 C 1100.078125 534.789062 1100.171875 534.546875 1100.261719 534.304688 C 1100.5625 533.519531 1100.449219 532.621094 1099.957031 531.90625 C 1099.433594 531.148438 1098.585938 530.710938 1097.636719 530.710938 L 1041.578125 530.710938 C 1039.496094 530.710938 1037.589844 531.710938 1036.460938 533.394531 Z M 1081.003906 595.851562 L 1014.683594 595.851562 C 1014.4375 595.851562 1014.203125 595.730469 1014.054688 595.527344 C 1013.910156 595.324219 1013.871094 595.0625 1013.949219 594.828125 L 1035.023438 532.800781 C 1035.042969 532.742188 1035.070312 532.683594 1035.105469 532.628906 C 1036.519531 530.457031 1038.9375 529.160156 1041.578125 529.160156 L 1097.636719 529.160156 C 1099.105469 529.160156 1100.417969 529.839844 1101.234375 531.023438 C 1102.015625 532.160156 1102.195312 533.59375 1101.710938 534.859375 C 1101.621094 535.105469 1101.523438 535.347656 1101.425781 535.59375 C 1101.191406 536.195312 1100.949219 536.8125 1100.75 537.429688 L 1081.742188 595.320312 C 1081.636719 595.636719 1081.335938 595.851562 1081.003906 595.851562 " fill-opacity="1" fill-rule="nonzero"/><path fill="#ffffff" d="M 1056.394531 561.667969 C 1055.601562 564.292969 1056.8125 566.972656 1059.089844 567.660156 C 1061.371094 568.351562 1063.859375 566.78125 1064.648438 564.160156 C 1065.441406 561.539062 1064.230469 558.855469 1061.953125 558.167969 C 1059.671875 557.476562 1057.183594 559.046875 1056.394531 561.667969 " fill-opacity="1" fill-rule="nonzero"/><path fill="#ffffff" d="M 1064.097656 595.851562 L 1027.558594 595.851562 C 1027.128906 595.851562 1026.78125 595.503906 1026.78125 595.074219 C 1026.78125 594.648438 1027.128906 594.300781 1027.558594 594.300781 L 1064.097656 594.300781 C 1064.523438 594.300781 1064.871094 594.648438 1064.871094 595.074219 C 1064.871094 595.503906 1064.523438 595.851562 1064.097656 595.851562 " fill-opacity="1" fill-rule="nonzero"/><path fill="#ffffff" d="M 1082.699219 595.851562 L 1076.222656 595.851562 C 1075.792969 595.851562 1075.445312 595.503906 1075.445312 595.074219 C 1075.445312 594.648438 1075.792969 594.300781 1076.222656 594.300781 L 1082.699219 594.300781 C 1083.128906 594.300781 1083.476562 594.648438 1083.476562 595.074219 C 1083.476562 595.503906 1083.128906 595.851562 1082.699219 595.851562 " fill-opacity="1" fill-rule="nonzero"/><path fill="#ffffff" d="M 1177.742188 721.996094 C 1177.742188 721.996094 1163.949219 670.675781 1185.046875 628.144531 C 1185.75 626.71875 1191.242188 629.640625 1192.027344 628.242188 C 1193.03125 626.453125 1189.355469 620.347656 1190.496094 618.601562 C 1194.738281 612.113281 1199.949219 605.960938 1206.332031 600.390625 C 1206.332031 600.390625 1212.796875 616.039062 1213.109375 638.386719 C 1213.136719 640.070312 1206.199219 643.265625 1206.152344 645.027344 C 1206.101562 646.6875 1212.941406 646.902344 1212.816406 648.621094 C 1211.199219 670.84375 1202.792969 697.636719 1177.742188 721.996094 " fill-opacity="1" fill-rule="nonzero"/><path fill="#ff8a15" d="M 1168.796875 662.980469 C 1168.101562 661.421875 1161.457031 665.085938 1160.730469 663.59375 C 1160.011719 662.121094 1164.617188 653.574219 1163.875 652.167969 C 1149.324219 624.570312 1130.804688 609.386719 1130.804688 609.386719 C 1126.363281 621.167969 1124.085938 632.867188 1123.4375 644.261719 C 1123.332031 646.085938 1130.675781 650.722656 1130.652344 652.527344 C 1130.625 654.507812 1123.613281 655.488281 1123.683594 657.449219 C 1124.675781 686.359375 1135.046875 711.023438 1146.28125 730.96875 C 1158.710938 729.363281 1170.289062 726.488281 1181.027344 722.507812 C 1181.367188 698.636719 1176.347656 679.828125 1168.796875 662.980469 " fill-opacity="1" fill-rule="nonzero"/><path fill="#ececec" d="M 1162.515625 717.988281 C 1158.9375 709.089844 1155.542969 699.972656 1152.429688 690.890625 C 1152.292969 690.484375 1152.507812 690.042969 1152.914062 689.90625 C 1153.320312 689.765625 1153.761719 689.984375 1153.898438 690.386719 C 1157.003906 699.441406 1160.386719 708.535156 1163.953125 717.410156 L 1162.515625 717.988281 " fill-opacity="1" fill-rule="nonzero"/><path fill="#ececec" d="M 1148.882812 678.40625 C 1148.554688 678.40625 1148.25 678.195312 1148.144531 677.863281 C 1143.273438 662.425781 1139.027344 646.582031 1135.527344 630.777344 L 1133.929688 623.550781 C 1133.835938 623.132812 1134.101562 622.71875 1134.519531 622.628906 C 1134.933594 622.535156 1135.351562 622.800781 1135.441406 623.21875 L 1137.042969 630.445312 C 1140.535156 646.207031 1144.765625 662.003906 1149.625 677.398438 C 1149.753906 677.804688 1149.523438 678.242188 1149.117188 678.371094 C 1149.039062 678.394531 1148.960938 678.40625 1148.882812 678.40625 " fill-opacity="1" fill-rule="nonzero"/><path fill="#ff8a15" d="M 1175.851562 724.292969 C 1175.851562 724.292969 1177.035156 672.847656 1229.105469 666.011719 C 1229.105469 666.011719 1223.953125 710.039062 1175.851562 724.292969 " fill-opacity="1" fill-rule="nonzero"/><path fill="#ececec" d="M 1187.441406 713.3125 C 1187.304688 713.3125 1187.167969 713.273438 1187.039062 713.199219 C 1186.675781 712.976562 1186.558594 712.5 1186.78125 712.132812 C 1195.722656 697.453125 1218.234375 676.578125 1218.460938 676.367188 C 1218.777344 676.078125 1219.269531 676.097656 1219.558594 676.410156 C 1219.847656 676.722656 1219.828125 677.214844 1219.515625 677.503906 C 1219.289062 677.714844 1196.933594 698.445312 1188.105469 712.9375 C 1187.960938 713.179688 1187.703125 713.3125 1187.441406 713.3125 " fill-opacity="1" fill-rule="nonzero"/><path fill="#ececec" d="M 949.203125 721.222656 C 949.203125 721.222656 941.707031 705.410156 921.53125 692.941406 C 920.429688 692.257812 917.480469 697.152344 916.3125 696.5 C 914.804688 695.660156 913.628906 688.300781 912.011719 687.523438 C 898.410156 680.988281 880.789062 676.886719 858.65625 679.566406 C 858.65625 679.566406 862.1875 685.800781 869.5 693.492188 C 870.34375 694.382812 876.285156 693.375 877.234375 694.296875 C 878.132812 695.175781 874.035156 697.976562 875.027344 698.871094 C 889.523438 711.898438 913.90625 725.925781 949.203125 721.222656 " fill-opacity="1" fill-rule="nonzero"/><path fill="#ff8a15" d="M 970.070312 729.078125 C 970.070312 729.078125 968.671875 681.933594 920.160156 653.964844 C 918.960938 653.269531 915.351562 658.238281 914.097656 657.574219 C 912.839844 656.910156 911.0625 647.980469 909.746094 647.34375 C 903.464844 644.300781 896.535156 641.613281 888.886719 639.394531 C 888.886719 639.394531 896.800781 708.75 970.070312 729.078125 " fill-opacity="1" fill-rule="nonzero"/><path fill="#ececec" d="M 959.375 717.851562 C 959.167969 717.851562 958.964844 717.773438 958.8125 717.613281 C 951.925781 710.421875 945.59375 703.957031 939.988281 698.390625 C 939.6875 698.089844 939.683594 697.597656 939.984375 697.292969 C 940.289062 696.992188 940.777344 696.988281 941.082031 697.292969 C 946.695312 702.863281 953.035156 709.339844 959.933594 716.539062 C 960.230469 716.847656 960.21875 717.339844 959.910156 717.636719 C 959.757812 717.777344 959.566406 717.851562 959.375 717.851562 " fill-opacity="1" fill-rule="nonzero"/><path fill="#ececec" d="M 928.9375 687.429688 C 928.75 687.429688 928.558594 687.363281 928.410156 687.226562 C 928.214844 687.042969 908.597656 668.699219 902.886719 657.207031 C 902.695312 656.824219 902.851562 656.355469 903.238281 656.167969 C 903.621094 655.976562 904.085938 656.132812 904.277344 656.515625 C 909.863281 667.761719 929.269531 685.90625 929.464844 686.085938 C 929.777344 686.378906 929.796875 686.867188 929.507812 687.183594 C 929.355469 687.347656 929.144531 687.429688 928.9375 687.429688 " fill-opacity="1" fill-rule="nonzero"/><path fill="#ffffff" d="M 1000.265625 335.03125 C 999.933594 335.03125 999.625 334.816406 999.523438 334.480469 C 999.402344 334.070312 999.632812 333.640625 1000.039062 333.515625 C 1000.199219 333.46875 1015.796875 328.789062 1034.886719 326.46875 C 1052.570312 324.320312 1076.964844 323.8125 1092.746094 333.597656 C 1093.113281 333.824219 1093.222656 334.300781 1093 334.667969 C 1092.773438 335.03125 1092.296875 335.144531 1091.933594 334.914062 C 1062.390625 316.597656 1001.105469 334.8125 1000.492188 335 C 1000.417969 335.023438 1000.339844 335.03125 1000.265625 335.03125 " fill-opacity="1" fill-rule="nonzero"/><path fill="#ffffff" d="M 1026.925781 336.253906 C 1026.550781 336.253906 1026.222656 335.980469 1026.160156 335.597656 C 1026.09375 335.175781 1026.378906 334.777344 1026.804688 334.707031 C 1046.457031 331.5625 1063.089844 331.433594 1076.246094 334.324219 C 1076.664062 334.414062 1076.925781 334.824219 1076.835938 335.246094 C 1076.746094 335.664062 1076.328125 335.929688 1075.914062 335.835938 C 1063.132812 333.03125 1046.234375 333.167969 1027.046875 336.242188 C 1027.007812 336.246094 1026.964844 336.253906 1026.925781 336.253906 " fill-opacity="1" fill-rule="nonzero"/><path fill="#ffffff" d="M 1252.558594 624.160156 C 1252.445312 624.160156 1252.328125 624.136719 1252.222656 624.082031 C 1251.835938 623.894531 1251.675781 623.433594 1251.859375 623.046875 C 1267.460938 590.871094 1261.542969 558.472656 1261.480469 558.148438 C 1261.402344 557.730469 1261.679688 557.324219 1262.097656 557.242188 C 1262.519531 557.160156 1262.925781 557.4375 1263.007812 557.859375 C 1263.070312 558.1875 1269.078125 591.085938 1253.253906 623.722656 C 1253.121094 624 1252.84375 624.160156 1252.558594 624.160156 " fill-opacity="1" fill-rule="nonzero"/><path fill="#ffffff" d="M 1260.316406 546.058594 C 1259.023438 546.058594 1257.972656 547.109375 1257.972656 548.402344 C 1257.972656 549.699219 1259.023438 550.746094 1260.316406 550.746094 C 1261.609375 550.746094 1262.664062 549.699219 1262.664062 548.402344 C 1262.664062 547.109375 1261.609375 546.058594 1260.316406 546.058594 Z M 1260.316406 552.300781 C 1258.167969 552.300781 1256.417969 550.550781 1256.417969 548.402344 C 1256.417969 546.253906 1258.167969 544.503906 1260.316406 544.503906 C 1262.464844 544.503906 1264.214844 546.253906 1264.214844 548.402344 C 1264.214844 550.550781 1262.464844 552.300781 1260.316406 552.300781 " fill-opacity="1" fill-rule="nonzero"/></svg>