<svg xmlns="http://www.w3.org/2000/svg" xmlns:xlink="http://www.w3.org/1999/xlink" width="1920" zoomAndPan="magnify" viewBox="0 0 1440 809.999993" height="1080" preserveAspectRatio="xMidYMid meet" version="1.0"><defs><clipPath id="00f3aa0930"><path d="M 738 0 L 1440 0 L 1440 616 L 738 616 Z M 738 0 " clip-rule="nonzero"/></clipPath><clipPath id="78fc5f92cb"><path d="M 761.855469 -338.542969 L 1834.277344 -239.355469 L 1750.21875 669.515625 L 677.792969 570.328125 Z M 761.855469 -338.542969 " clip-rule="nonzero"/></clipPath><clipPath id="59b03184c0"><path d="M 761.855469 -338.542969 L 1834.277344 -239.355469 L 1750.21875 669.515625 L 677.792969 570.328125 Z M 761.855469 -338.542969 " clip-rule="nonzero"/></clipPath><clipPath id="adc4a44d84"><path d="M 1380.523438 610.050781 L 1440 610.050781 L 1440 729 L 1380.523438 729 Z M 1380.523438 610.050781 " clip-rule="nonzero"/></clipPath><clipPath id="66a49a6734"><path d="M 1440 610.050781 C 1407.152344 610.050781 1380.523438 636.675781 1380.523438 669.523438 C 1380.523438 702.371094 1407.152344 729 1440 729 C 1472.847656 729 1499.476562 702.371094 1499.476562 669.523438 C 1499.476562 636.675781 1472.847656 610.050781 1440 610.050781 Z M 1440 610.050781 " clip-rule="nonzero"/></clipPath><clipPath id="51f304f084"><path d="M 0.523438 0.0507812 L 60 0.0507812 L 60 119 L 0.523438 119 Z M 0.523438 0.0507812 " clip-rule="nonzero"/></clipPath><clipPath id="917d402413"><path d="M 60 0.0507812 C 27.152344 0.0507812 0.523438 26.675781 0.523438 59.523438 C 0.523438 92.371094 27.152344 119 60 119 C 92.847656 119 119.476562 92.371094 119.476562 59.523438 C 119.476562 26.675781 92.847656 0.0507812 60 0.0507812 Z M 60 0.0507812 " clip-rule="nonzero"/></clipPath><clipPath id="5c9e8d0c07"><rect x="0" width="60" y="0" height="119"/></clipPath><clipPath id="8d27b681e0"><path d="M 677.796875 163.128906 L 719.347656 163.128906 L 719.347656 184.972656 L 677.796875 184.972656 Z M 677.796875 163.128906 " clip-rule="nonzero"/></clipPath><clipPath id="29bc1f7d19"><path d="M 683.84375 184.972656 C 683.0625 184.972656 682.277344 184.808594 681.492188 184.480469 C 678.417969 183.171875 676.980469 179.640625 678.285156 176.570312 C 681.71875 168.394531 689.664062 163.128906 698.527344 163.128906 C 707.386719 163.128906 715.332031 168.394531 718.800781 176.570312 C 720.109375 179.640625 718.667969 183.207031 715.59375 184.480469 C 712.523438 185.789062 708.957031 184.351562 707.683594 181.277344 C 706.113281 177.613281 702.515625 175.226562 698.527344 175.226562 C 694.539062 175.226562 690.972656 177.613281 689.40625 181.277344 C 688.457031 183.566406 686.199219 184.972656 683.84375 184.972656 Z M 683.84375 184.972656 " clip-rule="nonzero"/></clipPath><clipPath id="227161b66a"><path d="M 0.796875 0.128906 L 42.28125 0.128906 L 42.28125 21.972656 L 0.796875 21.972656 Z M 0.796875 0.128906 " clip-rule="nonzero"/></clipPath><clipPath id="1acb532df2"><path d="M 6.84375 21.972656 C 6.0625 21.972656 5.277344 21.808594 4.492188 21.480469 C 1.417969 20.171875 -0.0195312 16.640625 1.285156 13.570312 C 4.71875 5.394531 12.664062 0.128906 21.527344 0.128906 C 30.386719 0.128906 38.332031 5.394531 41.800781 13.570312 C 43.109375 16.640625 41.667969 20.207031 38.59375 21.480469 C 35.523438 22.789062 31.957031 21.351562 30.683594 18.277344 C 29.113281 14.613281 25.515625 12.226562 21.527344 12.226562 C 17.539062 12.226562 13.972656 14.613281 12.40625 18.277344 C 11.457031 20.566406 9.199219 21.972656 6.84375 21.972656 Z M 6.84375 21.972656 " clip-rule="nonzero"/></clipPath><clipPath id="0002b60833"><rect x="0" width="43" y="0" height="22"/></clipPath><clipPath id="ac597ed10a"><path d="M 1409.953125 318.625 L 1440 318.625 L 1440 340.46875 L 1409.953125 340.46875 Z M 1409.953125 318.625 " clip-rule="nonzero"/></clipPath><clipPath id="bc1e197f91"><path d="M 1416.003906 340.46875 C 1415.21875 340.46875 1414.433594 340.304688 1413.648438 339.976562 C 1410.574219 338.667969 1409.136719 335.136719 1410.445312 332.0625 C 1413.878906 323.890625 1421.824219 318.625 1430.683594 318.625 C 1439.546875 318.625 1447.492188 323.890625 1450.957031 332.0625 C 1452.265625 335.136719 1450.828125 338.703125 1447.753906 339.976562 C 1444.679688 341.285156 1441.113281 339.847656 1439.839844 336.773438 C 1438.269531 333.109375 1434.671875 330.722656 1430.683594 330.722656 C 1426.695312 330.722656 1423.132812 333.109375 1421.5625 336.773438 C 1420.613281 339.0625 1418.355469 340.46875 1416.003906 340.46875 Z M 1416.003906 340.46875 " clip-rule="nonzero"/></clipPath><clipPath id="df1f09667b"><path d="M 0.953125 0.625 L 31 0.625 L 31 22.46875 L 0.953125 22.46875 Z M 0.953125 0.625 " clip-rule="nonzero"/></clipPath><clipPath id="6356b79187"><path d="M 7.003906 22.46875 C 6.21875 22.46875 5.433594 22.304688 4.648438 21.976562 C 1.574219 20.667969 0.136719 17.136719 1.445312 14.0625 C 4.878906 5.890625 12.824219 0.625 21.683594 0.625 C 30.546875 0.625 38.492188 5.890625 41.957031 14.0625 C 43.265625 17.136719 41.828125 20.703125 38.753906 21.976562 C 35.679688 23.285156 32.113281 21.847656 30.839844 18.773438 C 29.269531 15.109375 25.671875 12.722656 21.683594 12.722656 C 17.695312 12.722656 14.132812 15.109375 12.5625 18.773438 C 11.613281 21.0625 9.355469 22.46875 7.003906 22.46875 Z M 7.003906 22.46875 " clip-rule="nonzero"/></clipPath><clipPath id="b710bf54b2"><rect x="0" width="31" y="0" height="23"/></clipPath><clipPath id="edec2526f9"><path d="M 733.289062 647.683594 L 774.839844 647.683594 L 774.839844 669.523438 L 733.289062 669.523438 Z M 733.289062 647.683594 " clip-rule="nonzero"/></clipPath><clipPath id="6d3ae99d72"><path d="M 739.339844 669.523438 C 738.554688 669.523438 737.769531 669.359375 736.984375 669.035156 C 733.910156 667.726562 732.472656 664.195312 733.78125 661.121094 C 737.214844 652.945312 745.160156 647.683594 754.019531 647.683594 C 762.882812 647.683594 770.828125 652.945312 774.292969 661.121094 C 775.601562 664.195312 774.164062 667.757812 771.089844 669.035156 C 768.015625 670.34375 764.453125 668.902344 763.175781 665.828125 C 761.605469 662.167969 758.007812 659.78125 754.019531 659.78125 C 750.03125 659.78125 746.46875 662.167969 744.898438 665.828125 C 743.949219 668.117188 741.691406 669.523438 739.339844 669.523438 Z M 739.339844 669.523438 " clip-rule="nonzero"/></clipPath><clipPath id="5533b47645"><path d="M 0.289062 0.683594 L 41.839844 0.683594 L 41.839844 22.523438 L 0.289062 22.523438 Z M 0.289062 0.683594 " clip-rule="nonzero"/></clipPath><clipPath id="7535208d7e"><path d="M 6.339844 22.523438 C 5.554688 22.523438 4.769531 22.359375 3.984375 22.035156 C 0.910156 20.726562 -0.527344 17.195312 0.78125 14.121094 C 4.214844 5.945312 12.160156 0.683594 21.019531 0.683594 C 29.882812 0.683594 37.828125 5.945312 41.292969 14.121094 C 42.601562 17.195312 41.164062 20.757812 38.089844 22.035156 C 35.015625 23.34375 31.453125 21.902344 30.175781 18.828125 C 28.605469 15.167969 25.007812 12.78125 21.019531 12.78125 C 17.03125 12.78125 13.46875 15.167969 11.898438 18.828125 C 10.949219 21.117188 8.691406 22.523438 6.339844 22.523438 Z M 6.339844 22.523438 " clip-rule="nonzero"/></clipPath><clipPath id="98b1b4163b"><rect x="0" width="42" y="0" height="23"/></clipPath><clipPath id="f9c0c6a4f8"><path d="M 33.65625 39 L 54 39 L 54 54 L 33.65625 54 Z M 33.65625 39 " clip-rule="nonzero"/></clipPath><clipPath id="69fea770ab"><path d="M 48 36 L 64.40625 36 L 64.40625 51 L 48 51 Z M 48 36 " clip-rule="nonzero"/></clipPath></defs><rect x="-144" width="1728" fill="#ffffff" y="-80.999999" height="971.999992" fill-opacity="1"/><rect x="-144" width="1728" fill="#ffffff" y="-80.999999" height="971.999992" fill-opacity="1"/><g clip-path="url(#00f3aa0930)"><g clip-path="url(#78fc5f92cb)"><g clip-path="url(#59b03184c0)"><path fill="#ff8a15" d="M 775.40625 -152.222656 C 740.636719 -102.761719 747.25 -34.933594 758.523438 24.953125 C 769.789062 84.84375 783.722656 149.21875 759.738281 205.175781 C 752.488281 222.097656 741.859375 237.855469 738.84375 256.085938 C 733.089844 290.90625 757.710938 324.570312 787.988281 339.984375 C 818.257812 355.394531 853.109375 356.929688 886.792969 359.347656 C 920.480469 361.765625 955.597656 365.894531 983.628906 385.347656 C 1040.515625 424.832031 1047.699219 510.746094 1094.496094 562.699219 C 1130.03125 602.15625 1185.070312 617.195312 1237.117188 614.777344 C 1289.171875 612.367188 1339.410156 594.570312 1388.820312 576.960938 C 1462.007812 550.863281 1535.757812 524.507812 1602.589844 483.710938 C 1664.734375 445.78125 1721.210938 394.179688 1754.503906 327.542969 C 1787.804688 260.910156 1795.207031 177.941406 1763.039062 111.269531 C 1736.644531 56.574219 1684.46875 9.753906 1688.453125 -51.585938 C 1690.789062 -87.632812 1713.175781 -121.101562 1710.179688 -157.050781 C 1703.320312 -239.15625 1594.257812 -261.492188 1531.902344 -258.269531 C 1457.292969 -254.414062 1391.785156 -216.753906 1335.410156 -167.609375 C 1298.933594 -135.824219 1263.457031 -95.101562 1212.933594 -92.691406 C 1137.652344 -89.097656 1067.132812 -152.769531 1001.359375 -182.105469 C 930.484375 -213.726562 828.25 -227.398438 775.40625 -152.222656 " fill-opacity="1" fill-rule="nonzero"/></g></g></g><g clip-path="url(#adc4a44d84)"><g clip-path="url(#66a49a6734)"><g transform="matrix(1, 0, 0, 1, 1380, 610)"><g clip-path="url(#5c9e8d0c07)"><g clip-path="url(#51f304f084)"><g clip-path="url(#917d402413)"><path fill="#ff8a15" d="M 0.523438 0.0507812 L 119.476562 0.0507812 L 119.476562 119 L 0.523438 119 Z M 0.523438 0.0507812 " fill-opacity="1" fill-rule="nonzero"/></g></g></g></g></g></g><g clip-path="url(#8d27b681e0)"><g clip-path="url(#29bc1f7d19)"><g transform="matrix(1, 0, 0, 1, 677, 163)"><g clip-path="url(#0002b60833)"><g clip-path="url(#227161b66a)"><g clip-path="url(#1acb532df2)"><path fill="#ff8a15" d="M 0.796875 0.128906 L 42.261719 0.128906 L 42.261719 21.972656 L 0.796875 21.972656 Z M 0.796875 0.128906 " fill-opacity="1" fill-rule="nonzero"/></g></g></g></g></g></g><g clip-path="url(#ac597ed10a)"><g clip-path="url(#bc1e197f91)"><g transform="matrix(1, 0, 0, 1, 1409, 318)"><g clip-path="url(#b710bf54b2)"><g clip-path="url(#df1f09667b)"><g clip-path="url(#6356b79187)"><path fill="#ff8a15" d="M 0.953125 0.625 L 42.421875 0.625 L 42.421875 22.46875 L 0.953125 22.46875 Z M 0.953125 0.625 " fill-opacity="1" fill-rule="nonzero"/></g></g></g></g></g></g><g clip-path="url(#edec2526f9)"><g clip-path="url(#6d3ae99d72)"><g transform="matrix(1, 0, 0, 1, 733, 647)"><g clip-path="url(#98b1b4163b)"><g clip-path="url(#5533b47645)"><g clip-path="url(#7535208d7e)"><path fill="#ff8a15" d="M 0.289062 0.683594 L 41.757812 0.683594 L 41.757812 22.523438 L 0.289062 22.523438 Z M 0.289062 0.683594 " fill-opacity="1" fill-rule="nonzero"/></g></g></g></g></g></g><g clip-path="url(#f9c0c6a4f8)"><path fill="#ff8a15" d="M 37.117188 53.683594 L 38.480469 52.3125 L 43.816406 46.921875 L 50.507812 53.683594 L 53.976562 50.1875 L 50.722656 46.914062 L 47.265625 43.40625 L 43.816406 39.921875 L 33.65625 50.1875 Z M 37.117188 53.683594 " fill-opacity="1" fill-rule="nonzero"/></g><g clip-path="url(#69fea770ab)"><path fill="#ff8a15" d="M 54.15625 43.433594 L 60.855469 50.207031 L 64.3125 46.707031 L 54.15625 36.441406 L 48.332031 42.324219 L 51.800781 45.824219 Z M 54.15625 43.433594 " fill-opacity="1" fill-rule="nonzero"/></g><path fill="#d9d9d9" d="M 862.160156 378.894531 C 898.175781 317.664062 966.722656 302.695312 992.574219 297.046875 C 1080.558594 277.835938 1210.746094 300.921875 1273.558594 405.28125 C 1328.691406 496.875 1297.992188 594.703125 1293.542969 608.113281 C 1286.082031 630.609375 1267.40625 684.554688 1214.445312 721.097656 C 1132 777.992188 1006.335938 765.230469 963.332031 706.503906 C 943.132812 678.921875 959.476562 666.199219 935.953125 617.429688 C 904.449219 552.117188 865.351562 553.683594 847.132812 501.390625 C 826.5625 442.359375 858.832031 384.554688 862.160156 378.894531 " fill-opacity="1" fill-rule="nonzero"/><path fill="#696052" d="M 1183.773438 735.683594 L 901.160156 735.683594 C 892.386719 735.683594 885.699219 727.710938 887.101562 718.921875 L 947.882812 338.457031 C 949 331.457031 954.953125 326.316406 961.941406 326.316406 L 1244.554688 326.316406 C 1253.328125 326.316406 1260.015625 334.289062 1258.613281 343.082031 L 1197.832031 723.546875 C 1196.714844 730.542969 1190.757812 735.683594 1183.773438 735.683594 " fill-opacity="1" fill-rule="nonzero"/><path fill="#ffffff" d="M 1174.789062 734.695312 L 892.179688 734.695312 C 883.40625 734.695312 876.714844 726.734375 878.121094 717.964844 L 938.902344 338.15625 C 940.019531 331.171875 945.972656 326.039062 952.960938 326.039062 L 1235.574219 326.039062 C 1244.347656 326.039062 1251.039062 334 1249.632812 342.773438 L 1188.851562 722.578125 C 1187.734375 729.5625 1181.777344 734.695312 1174.789062 734.695312 " fill-opacity="1" fill-rule="nonzero"/><path fill="#000000" d="M 1174.789062 735.539062 L 892.179688 735.539062 C 887.785156 735.539062 883.621094 733.613281 880.75 730.246094 C 877.835938 726.828125 876.570312 722.304688 877.285156 717.847656 L 938.066406 338.5 C 939.257812 331.074219 945.519531 325.6875 952.960938 325.6875 L 1021.078125 325.6875 C 1021.546875 325.6875 1021.921875 326.0625 1021.921875 326.527344 C 1021.921875 327 1021.546875 327.375 1021.078125 327.375 L 952.960938 327.375 C 946.355469 327.375 940.792969 332.167969 939.734375 338.769531 L 878.953125 718.117188 C 878.320312 722.082031 879.441406 726.105469 882.039062 729.152344 C 884.585938 732.136719 888.28125 733.851562 892.179688 733.851562 L 1174.789062 733.851562 C 1181.398438 733.851562 1186.960938 729.058594 1188.015625 722.460938 L 1229.6875 462.386719 C 1229.765625 461.925781 1230.195312 461.613281 1230.65625 461.6875 C 1231.113281 461.761719 1231.429688 462.195312 1231.359375 462.652344 L 1189.6875 722.726562 C 1188.496094 730.152344 1182.234375 735.539062 1174.789062 735.539062 " fill-opacity="1" fill-rule="nonzero"/><path fill="#000000" d="M 1243.261719 383.855469 C 1243.21875 383.855469 1243.175781 383.855469 1243.128906 383.847656 C 1242.667969 383.773438 1242.355469 383.339844 1242.425781 382.878906 L 1248.800781 343.109375 C 1249.433594 339.144531 1248.308594 335.121094 1245.71875 332.074219 C 1243.167969 329.089844 1239.472656 327.375 1235.574219 327.375 L 1163.921875 326.226562 C 1163.457031 326.222656 1163.085938 325.835938 1163.089844 325.371094 C 1163.101562 324.902344 1163.472656 324.539062 1163.953125 324.539062 L 1235.585938 325.683594 C 1239.96875 325.683594 1244.132812 327.617188 1247 330.980469 C 1249.917969 334.402344 1251.183594 338.921875 1250.46875 343.378906 L 1244.09375 383.144531 C 1244.027344 383.5625 1243.667969 383.855469 1243.261719 383.855469 " fill-opacity="1" fill-rule="nonzero"/><path fill="#ff8a15" d="M 1128.585938 361.308594 L 1046.660156 361.308594 C 1033.570312 361.308594 1023.621094 349.398438 1025.804688 336.339844 L 1027.714844 324.890625 C 1027.910156 323.730469 1028.90625 322.878906 1030.070312 322.878906 L 1156.253906 322.878906 C 1157.730469 322.878906 1158.855469 324.222656 1158.609375 325.695312 L 1156.671875 337.296875 C 1154.351562 351.160156 1142.484375 361.308594 1128.585938 361.308594 " fill-opacity="1" fill-rule="nonzero"/><path fill="#000000" d="M 1030.070312 323.722656 C 1029.316406 323.722656 1028.675781 324.273438 1028.550781 325.03125 L 1026.636719 336.476562 C 1025.628906 342.511719 1027.304688 348.636719 1031.242188 353.285156 C 1035.105469 357.847656 1040.726562 360.464844 1046.660156 360.464844 L 1128.585938 360.464844 C 1142.117188 360.464844 1153.582031 350.660156 1155.839844 337.15625 L 1157.777344 325.558594 C 1157.855469 325.09375 1157.726562 324.625 1157.425781 324.269531 C 1157.128906 323.925781 1156.707031 323.722656 1156.253906 323.722656 Z M 1128.585938 362.152344 L 1046.660156 362.152344 C 1040.226562 362.152344 1034.136719 359.316406 1029.953125 354.375 C 1025.695312 349.347656 1023.878906 342.722656 1024.96875 336.199219 L 1026.882812 324.753906 C 1027.144531 323.175781 1028.488281 322.035156 1030.070312 322.035156 L 1156.253906 322.035156 C 1157.203125 322.035156 1158.101562 322.449219 1158.714844 323.175781 C 1159.339844 323.910156 1159.601562 324.878906 1159.445312 325.835938 L 1157.503906 337.433594 C 1155.113281 351.757812 1142.949219 362.152344 1128.585938 362.152344 " fill-opacity="1" fill-rule="nonzero"/><path fill="#ff8a15" d="M 1087.75 310.386719 L 1087.789062 310.152344 C 1088.449219 306.160156 1091.851562 303.242188 1095.835938 303.242188 C 1100.882812 303.242188 1104.722656 307.84375 1103.882812 312.902344 L 1103.847656 313.132812 C 1103.183594 317.125 1099.78125 320.046875 1095.796875 320.046875 C 1090.75 320.046875 1086.914062 315.441406 1087.75 310.386719 Z M 1073.4375 347.9375 L 1108.421875 347.9375 C 1109.746094 347.9375 1110.878906 347.070312 1111.09375 345.738281 L 1115.890625 314.792969 C 1117.808594 302.476562 1108.4375 291.316406 1096.160156 291.316406 C 1086.339844 291.316406 1077.976562 298.542969 1076.433594 308.390625 L 1070.765625 344.863281 C 1070.5 346.535156 1071.769531 347.9375 1073.4375 347.9375 " fill-opacity="1" fill-rule="nonzero"/><path fill="#000000" d="M 1088.582031 310.523438 C 1088.222656 312.714844 1088.832031 314.9375 1090.257812 316.621094 C 1091.652344 318.261719 1093.667969 319.199219 1095.796875 319.199219 C 1099.382812 319.199219 1102.417969 316.589844 1103.011719 312.992188 L 1103.050781 312.761719 C 1103.410156 310.566406 1102.800781 308.347656 1101.375 306.660156 C 1099.984375 305.023438 1097.964844 304.082031 1095.835938 304.082031 C 1092.25 304.082031 1089.214844 306.695312 1088.621094 310.292969 Z M 1095.796875 320.890625 C 1093.171875 320.890625 1090.683594 319.734375 1088.96875 317.714844 C 1087.222656 315.648438 1086.472656 312.933594 1086.917969 310.246094 L 1086.957031 310.015625 C 1087.683594 305.597656 1091.421875 302.394531 1095.835938 302.394531 C 1098.460938 302.394531 1100.949219 303.550781 1102.664062 305.570312 C 1104.414062 307.632812 1105.164062 310.355469 1104.714844 313.035156 L 1104.679688 313.265625 C 1103.945312 317.683594 1100.210938 320.890625 1095.796875 320.890625 Z M 1096.160156 292.160156 C 1086.699219 292.160156 1078.753906 299.042969 1077.269531 308.519531 L 1071.605469 344.992188 C 1071.515625 345.535156 1071.65625 346.050781 1071.992188 346.445312 C 1072.34375 346.855469 1072.871094 347.09375 1073.441406 347.09375 L 1108.421875 347.09375 C 1109.378906 347.09375 1110.117188 346.496094 1110.261719 345.605469 L 1115.050781 314.660156 C 1115.941406 308.964844 1114.3125 303.199219 1110.585938 298.84375 C 1106.949219 294.597656 1101.695312 292.160156 1096.160156 292.160156 Z M 1108.421875 348.785156 L 1073.441406 348.785156 C 1072.375 348.785156 1071.378906 348.328125 1070.707031 347.542969 C 1070.050781 346.777344 1069.769531 345.75 1069.933594 344.730469 L 1075.601562 308.257812 C 1077.214844 297.953125 1085.859375 290.472656 1096.160156 290.472656 C 1102.1875 290.472656 1107.910156 293.125 1111.867188 297.746094 C 1115.917969 302.472656 1117.6875 308.738281 1116.722656 314.921875 L 1111.929688 345.863281 C 1111.65625 347.585938 1110.214844 348.785156 1108.421875 348.785156 " fill-opacity="1" fill-rule="nonzero"/><path fill="#696052" d="M 1063.367188 418.011719 L 1044.789062 534.800781 C 1044.445312 536.964844 1046.097656 538.929688 1048.261719 538.929688 L 1057.25 538.929688 C 1058.980469 538.929688 1060.449219 537.65625 1060.726562 535.933594 L 1079.304688 419.144531 C 1079.648438 416.976562 1078 415.015625 1075.832031 415.015625 L 1066.839844 415.015625 C 1065.109375 415.015625 1063.644531 416.285156 1063.367188 418.011719 " fill-opacity="1" fill-rule="nonzero"/><path fill="#d9d9d9" d="M 1032.089844 448.003906 L 1018.605469 534.816406 C 1018.269531 536.972656 1019.921875 538.929688 1022.082031 538.929688 L 1031.074219 538.929688 C 1032.804688 538.929688 1034.28125 537.652344 1034.550781 535.917969 L 1048.039062 449.109375 C 1048.375 446.949219 1046.722656 444.996094 1044.5625 444.996094 L 1035.566406 444.996094 C 1033.835938 444.996094 1032.359375 446.273438 1032.089844 448.003906 " fill-opacity="1" fill-rule="nonzero"/><path fill="#d9d9d9" d="M 1002.511719 470.484375 L 992.449219 534.808594 C 992.109375 536.972656 993.761719 538.929688 995.921875 538.929688 L 1004.914062 538.929688 C 1006.644531 538.929688 1008.117188 537.652344 1008.390625 535.925781 L 1018.457031 471.597656 C 1018.796875 469.433594 1017.140625 467.480469 1014.980469 467.480469 L 1005.984375 467.480469 C 1004.253906 467.480469 1002.78125 468.753906 1002.511719 470.484375 " fill-opacity="1" fill-rule="nonzero"/><path fill="#ff8a15" d="M 972.929688 492.957031 L 966.292969 534.804688 C 965.949219 536.964844 967.601562 538.929688 969.769531 538.929688 L 978.757812 538.929688 C 980.484375 538.929688 981.957031 537.65625 982.230469 535.929688 L 988.867188 494.089844 C 989.210938 491.925781 987.558594 489.964844 985.394531 489.964844 L 976.402344 489.964844 C 974.675781 489.964844 973.203125 491.230469 972.929688 492.957031 " fill-opacity="1" fill-rule="nonzero"/><path fill="#d9d9d9" d="M 943.390625 511.5 L 940.058594 534.859375 C 939.75 537.003906 941.394531 538.929688 943.539062 538.929688 L 952.542969 538.929688 C 954.292969 538.929688 955.777344 537.628906 956.027344 535.875 L 959.363281 512.519531 C 959.671875 510.375 958.027344 508.449219 955.882812 508.449219 L 946.875 508.449219 C 945.125 508.449219 943.640625 509.75 943.390625 511.5 " fill-opacity="1" fill-rule="nonzero"/><path fill="#ff8a15" d="M 945.203125 564.359375 C 945.203125 567.453125 942.722656 569.960938 939.664062 569.960938 C 936.605469 569.960938 934.125 567.453125 934.125 564.359375 C 934.125 561.265625 936.605469 558.757812 939.664062 558.757812 C 942.722656 558.757812 945.203125 561.265625 945.203125 564.359375 " fill-opacity="1" fill-rule="nonzero"/><path fill="#ff8a15" d="M 940.46875 587.449219 C 940.46875 590.546875 937.992188 593.054688 934.929688 593.054688 C 931.871094 593.054688 929.394531 590.546875 929.394531 587.449219 C 929.394531 584.359375 931.871094 581.847656 934.929688 581.847656 C 937.992188 581.847656 940.46875 584.359375 940.46875 587.449219 " fill-opacity="1" fill-rule="nonzero"/><path fill="#ff8a15" d="M 936.292969 611.671875 C 936.292969 614.761719 933.816406 617.269531 930.753906 617.269531 C 927.699219 617.269531 925.21875 614.761719 925.21875 611.671875 C 925.21875 608.574219 927.699219 606.066406 930.753906 606.066406 C 933.816406 606.066406 936.292969 608.574219 936.292969 611.671875 " fill-opacity="1" fill-rule="nonzero"/><path fill="#ff8a15" d="M 1049.558594 565.769531 L 955.808594 565.769531 C 955.03125 565.769531 954.402344 565.136719 954.402344 564.359375 C 954.402344 563.582031 955.03125 562.953125 955.808594 562.953125 L 1049.558594 562.953125 C 1050.335938 562.953125 1050.964844 563.582031 1050.964844 564.359375 C 1050.964844 565.136719 1050.335938 565.769531 1049.558594 565.769531 " fill-opacity="1" fill-rule="nonzero"/><path fill="#ff8a15" d="M 1046.199219 588.671875 L 1007.929688 588.671875 C 1007.152344 588.671875 1006.523438 588.039062 1006.523438 587.265625 C 1006.523438 586.484375 1007.152344 585.855469 1007.929688 585.855469 L 1046.199219 585.855469 C 1046.976562 585.855469 1047.605469 586.484375 1047.605469 587.265625 C 1047.605469 588.039062 1046.976562 588.671875 1046.199219 588.671875 " fill-opacity="1" fill-rule="nonzero"/><path fill="#ff8a15" d="M 993.945312 588.671875 L 952.097656 588.671875 C 951.320312 588.671875 950.691406 588.039062 950.691406 587.265625 C 950.691406 586.484375 951.320312 585.855469 952.097656 585.855469 L 993.945312 585.855469 C 994.722656 585.855469 995.355469 586.484375 995.355469 587.265625 C 995.355469 588.039062 994.722656 588.671875 993.945312 588.671875 " fill-opacity="1" fill-rule="nonzero"/><path fill="#ff8a15" d="M 1045.078125 612.328125 L 947.273438 612.328125 C 946.496094 612.328125 945.863281 611.695312 945.863281 610.917969 C 945.863281 610.140625 946.496094 609.511719 947.273438 609.511719 L 1045.078125 609.511719 C 1045.855469 609.511719 1046.488281 610.140625 1046.488281 610.917969 C 1046.488281 611.695312 1045.855469 612.328125 1045.078125 612.328125 " fill-opacity="1" fill-rule="nonzero"/><path fill="#ff8a15" d="M 1159.195312 612.882812 L 1081.992188 612.882812 C 1081.210938 612.882812 1080.582031 612.253906 1080.582031 611.476562 C 1080.582031 610.699219 1081.210938 610.070312 1081.992188 610.070312 L 1159.195312 610.070312 C 1159.972656 610.070312 1160.605469 610.699219 1160.605469 611.476562 C 1160.605469 612.253906 1159.972656 612.882812 1159.195312 612.882812 " fill-opacity="1" fill-rule="nonzero"/><path fill="#ff8a15" d="M 1163.671875 587.695312 L 1086.46875 587.695312 C 1085.691406 587.695312 1085.0625 587.066406 1085.0625 586.289062 C 1085.0625 585.507812 1085.691406 584.878906 1086.46875 584.878906 L 1163.671875 584.878906 C 1164.453125 584.878906 1165.082031 585.507812 1165.082031 586.289062 C 1165.082031 587.066406 1164.453125 587.695312 1163.671875 587.695312 " fill-opacity="1" fill-rule="nonzero"/><path fill="#ff8a15" d="M 1167.03125 565.863281 L 1089.828125 565.863281 C 1089.050781 565.863281 1088.417969 565.234375 1088.417969 564.457031 C 1088.417969 563.679688 1089.050781 563.050781 1089.828125 563.050781 L 1167.03125 563.050781 C 1167.8125 563.050781 1168.441406 563.679688 1168.441406 564.457031 C 1168.441406 565.234375 1167.8125 565.863281 1167.03125 565.863281 " fill-opacity="1" fill-rule="nonzero"/><path fill="#d9d9d9" d="M 1037.632812 391.523438 C 1046.542969 410.464844 1038.585938 433.128906 1019.863281 442.140625 L 1002.640625 407.808594 L 1037.632812 391.523438 " fill-opacity="1" fill-rule="nonzero"/><path fill="#ff8a15" d="M 1037.632812 391.523438 C 1028.472656 372.046875 1005.042969 364.089844 986.015625 374.355469 C 969.027344 383.527344 961.640625 404.574219 969.105469 422.527344 C 977.46875 442.636719 1000.609375 451.410156 1019.863281 442.140625 L 1004.601562 409.691406 C 1004.121094 408.671875 1004.550781 407.453125 1005.558594 406.964844 L 1037.632812 391.523438 " fill-opacity="1" fill-rule="nonzero"/><path fill="#696052" d="M 1019.863281 442.140625 L 1004.601562 409.695312 L 1003.40625 445.828125 C 1008.925781 445.882812 1014.542969 444.703125 1019.863281 442.140625 " fill-opacity="1" fill-rule="nonzero"/><path fill="#ffffff" d="M 1017.875 407.84375 C 1017.875 415.742188 1011.546875 422.140625 1003.742188 422.140625 C 995.941406 422.140625 989.613281 415.742188 989.613281 407.84375 C 989.613281 399.953125 995.941406 393.550781 1003.742188 393.550781 C 1011.546875 393.550781 1017.875 399.953125 1017.875 407.84375 " fill-opacity="1" fill-rule="nonzero"/><path fill="#d9d9d9" d="M 1194.828125 416.265625 L 1134.800781 416.265625 C 1134.394531 416.265625 1134.136719 414.757812 1134.261719 413.082031 L 1134.722656 406.65625 C 1134.820312 405.308594 1135.136719 404.308594 1135.460938 404.308594 L 1195.488281 404.308594 C 1195.894531 404.308594 1196.152344 405.820312 1196.035156 407.492188 L 1195.570312 413.921875 C 1195.472656 415.269531 1195.15625 416.265625 1194.828125 416.265625 " fill-opacity="1" fill-rule="nonzero"/><path fill="#d9d9d9" d="M 1213.671875 438.105469 L 1111.125 438.105469 C 1110.472656 438.105469 1110.054688 436.683594 1110.25 435.113281 L 1111.082031 428.351562 C 1111.238281 427.085938 1111.742188 426.148438 1112.269531 426.148438 L 1214.820312 426.148438 C 1215.472656 426.148438 1215.886719 427.566406 1215.691406 429.140625 L 1214.859375 435.902344 C 1214.703125 437.167969 1214.199219 438.105469 1213.671875 438.105469 " fill-opacity="1" fill-rule="nonzero"/><path fill="#d9d9d9" d="M 1209.363281 459.945312 L 1106.601562 459.945312 C 1106.011719 459.945312 1105.640625 458.664062 1105.8125 457.246094 L 1106.710938 449.972656 C 1106.851562 448.832031 1107.308594 447.988281 1107.78125 447.988281 L 1210.542969 447.988281 C 1211.132812 447.988281 1211.503906 449.265625 1211.328125 450.683594 L 1210.433594 457.957031 C 1210.289062 459.101562 1209.835938 459.945312 1209.363281 459.945312 " fill-opacity="1" fill-rule="nonzero"/><path fill="#d9d9d9" d="M 1202.726562 495.382812 L 1100.3125 495.382812 C 1099.621094 495.382812 1099.179688 493.871094 1099.386719 492.199219 L 1100.175781 485.769531 C 1100.34375 484.421875 1100.878906 483.425781 1101.441406 483.425781 L 1203.851562 483.425781 C 1204.546875 483.425781 1204.984375 484.9375 1204.777344 486.609375 L 1203.984375 493.035156 C 1203.816406 494.386719 1203.285156 495.382812 1202.726562 495.382812 " fill-opacity="1" fill-rule="nonzero"/><path fill="#d9d9d9" d="M 1198.558594 517.222656 L 1096.011719 517.222656 C 1095.355469 517.222656 1094.945312 515.800781 1095.140625 514.226562 L 1095.96875 507.46875 C 1096.128906 506.199219 1096.628906 505.261719 1097.15625 505.261719 L 1199.707031 505.261719 C 1200.359375 505.261719 1200.769531 506.683594 1200.578125 508.253906 L 1199.746094 515.011719 C 1199.589844 516.285156 1199.085938 517.222656 1198.558594 517.222656 " fill-opacity="1" fill-rule="nonzero"/><path fill="#d9d9d9" d="M 1194.25 539.058594 L 1091.488281 539.058594 C 1090.902344 539.058594 1090.527344 537.78125 1090.703125 536.359375 L 1091.597656 529.085938 C 1091.738281 527.945312 1092.195312 527.101562 1092.667969 527.101562 L 1195.429688 527.101562 C 1196.019531 527.101562 1196.390625 528.378906 1196.214844 529.796875 L 1195.320312 537.070312 C 1195.175781 538.214844 1194.722656 539.058594 1194.25 539.058594 " fill-opacity="1" fill-rule="nonzero"/><path fill="#d9d9d9" d="M 1172.683594 652.488281 L 1070.269531 652.488281 C 1069.578125 652.488281 1069.140625 650.980469 1069.34375 649.304688 L 1070.136719 642.878906 C 1070.300781 641.53125 1070.839844 640.535156 1071.398438 640.535156 L 1173.808594 640.535156 C 1174.503906 640.535156 1174.945312 642.042969 1174.738281 643.71875 L 1173.945312 650.144531 C 1173.777344 651.496094 1173.246094 652.488281 1172.683594 652.488281 " fill-opacity="1" fill-rule="nonzero"/><path fill="#d9d9d9" d="M 1168.519531 674.328125 L 1065.96875 674.328125 C 1065.316406 674.328125 1064.902344 672.910156 1065.097656 671.335938 L 1065.929688 664.574219 C 1066.085938 663.304688 1066.589844 662.371094 1067.113281 662.371094 L 1169.667969 662.371094 C 1170.316406 662.371094 1170.730469 663.789062 1170.539062 665.363281 L 1169.703125 672.125 C 1169.550781 673.390625 1169.046875 674.328125 1168.519531 674.328125 " fill-opacity="1" fill-rule="nonzero"/><path fill="#d9d9d9" d="M 1164.210938 696.164062 L 1061.449219 696.164062 C 1060.859375 696.164062 1060.488281 694.886719 1060.664062 693.46875 L 1061.558594 686.195312 C 1061.699219 685.050781 1062.15625 684.207031 1062.628906 684.207031 L 1165.390625 684.207031 C 1165.980469 684.207031 1166.351562 685.484375 1166.175781 686.90625 L 1165.28125 694.175781 C 1165.136719 695.320312 1164.6875 696.164062 1164.210938 696.164062 " fill-opacity="1" fill-rule="nonzero"/><path fill="#d9d9d9" d="M 1025.28125 652.304688 L 922.867188 652.304688 C 922.175781 652.304688 921.734375 650.796875 921.941406 649.121094 L 922.730469 642.691406 C 922.898438 641.34375 923.433594 640.347656 923.992188 640.347656 L 1026.40625 640.347656 C 1027.101562 640.347656 1027.539062 641.859375 1027.332031 643.53125 L 1026.542969 649.957031 C 1026.375 651.308594 1025.839844 652.304688 1025.28125 652.304688 " fill-opacity="1" fill-rule="nonzero"/><path fill="#d9d9d9" d="M 1021.113281 674.144531 L 918.5625 674.144531 C 917.910156 674.144531 917.496094 672.722656 917.691406 671.148438 L 918.523438 664.390625 C 918.679688 663.121094 919.183594 662.183594 919.710938 662.183594 L 1022.257812 662.183594 C 1022.914062 662.183594 1023.324219 663.601562 1023.132812 665.179688 L 1022.296875 671.9375 C 1022.140625 673.207031 1021.636719 674.144531 1021.113281 674.144531 " fill-opacity="1" fill-rule="nonzero"/><path fill="#d9d9d9" d="M 1016.804688 695.976562 L 914.042969 695.976562 C 913.457031 695.976562 913.082031 694.699219 913.257812 693.28125 L 914.15625 686.007812 C 914.296875 684.867188 914.75 684.023438 915.222656 684.023438 L 1017.988281 684.023438 C 1018.574219 684.023438 1018.945312 685.300781 1018.773438 686.71875 L 1017.875 693.992188 C 1017.734375 695.136719 1017.28125 695.976562 1016.804688 695.976562 " fill-opacity="1" fill-rule="nonzero"/><path fill="#000000" d="M 1294.921875 517.769531 L 1145.335938 517.769531 C 1139.191406 517.769531 1133.726562 522.140625 1133.132812 527.53125 L 1109.292969 743.847656 C 1108.699219 749.238281 1113.195312 753.609375 1119.34375 753.609375 L 1261.066406 755.269531 C 1267.210938 755.269531 1280.535156 749.238281 1281.128906 743.847656 L 1304.972656 527.53125 C 1305.566406 522.140625 1301.066406 517.769531 1294.921875 517.769531 " fill-opacity="1" fill-rule="nonzero"/><path fill="#ff8a15" d="M 1282.921875 517.085938 L 1136.949219 517.085938 C 1130.957031 517.085938 1125.609375 521.503906 1125.007812 526.949219 L 1100.914062 745.539062 C 1100.3125 750.988281 1104.6875 755.402344 1110.683594 755.402344 L 1256.652344 755.402344 C 1262.652344 755.402344 1267.996094 750.988281 1268.59375 745.539062 L 1292.691406 526.949219 C 1293.289062 521.503906 1288.917969 517.085938 1282.921875 517.085938 " fill-opacity="1" fill-rule="nonzero"/><path fill="#000000" d="M 1136.949219 517.929688 C 1131.382812 517.929688 1126.398438 522.015625 1125.847656 527.042969 L 1101.753906 745.632812 C 1101.507812 747.859375 1102.179688 749.988281 1103.652344 751.628906 C 1105.316406 753.492188 1107.878906 754.558594 1110.683594 754.558594 L 1256.65625 754.558594 C 1262.222656 754.558594 1267.203125 750.472656 1267.753906 745.445312 L 1291.851562 526.859375 C 1292.09375 524.628906 1291.421875 522.5 1289.953125 520.859375 C 1288.285156 519 1285.722656 517.929688 1282.921875 517.929688 Z M 1256.65625 756.25 L 1110.683594 756.25 C 1107.40625 756.25 1104.382812 754.976562 1102.390625 752.757812 C 1100.597656 750.753906 1099.777344 748.15625 1100.074219 745.445312 L 1124.164062 526.859375 C 1124.8125 521.003906 1130.546875 516.242188 1136.949219 516.242188 L 1282.921875 516.242188 C 1286.199219 516.242188 1289.222656 517.511719 1291.210938 519.734375 C 1293.003906 521.734375 1293.828125 524.332031 1293.527344 527.042969 L 1269.441406 745.632812 C 1268.792969 751.488281 1263.054688 756.25 1256.65625 756.25 " fill-opacity="1" fill-rule="nonzero"/><path fill="#696052" d="M 1148.125 666.273438 L 1129.929688 666.273438 C 1126.613281 666.273438 1124.222656 663.59375 1124.585938 660.285156 L 1126.515625 642.773438 C 1126.882812 639.46875 1129.863281 636.789062 1133.175781 636.789062 L 1151.375 636.789062 C 1154.683594 636.789062 1157.074219 639.46875 1156.710938 642.773438 L 1154.78125 660.285156 C 1154.414062 663.59375 1151.433594 666.273438 1148.125 666.273438 " fill-opacity="1" fill-rule="nonzero"/><path fill="#696052" d="M 1143.910156 704.476562 L 1125.714844 704.476562 C 1122.40625 704.476562 1120.015625 701.792969 1120.378906 698.488281 L 1122.308594 680.976562 C 1122.671875 677.667969 1125.652344 674.988281 1128.964844 674.988281 L 1147.160156 674.988281 C 1150.476562 674.988281 1152.863281 677.667969 1152.5 680.976562 L 1150.570312 698.488281 C 1150.207031 701.792969 1147.226562 704.476562 1143.910156 704.476562 " fill-opacity="1" fill-rule="nonzero"/><path fill="#696052" d="M 1139.667969 742.996094 L 1121.472656 742.996094 C 1118.15625 742.996094 1115.765625 740.316406 1116.132812 737.011719 L 1118.0625 719.496094 C 1118.425781 716.191406 1121.40625 713.507812 1124.722656 713.507812 L 1142.917969 713.507812 C 1146.230469 713.507812 1148.617188 716.191406 1148.253906 719.496094 L 1146.324219 737.011719 C 1145.960938 740.316406 1142.980469 742.996094 1139.667969 742.996094 " fill-opacity="1" fill-rule="nonzero"/><path fill="#696052" d="M 1184.292969 666.273438 L 1166.09375 666.273438 C 1162.785156 666.273438 1160.394531 663.59375 1160.757812 660.285156 L 1162.6875 642.773438 C 1163.050781 639.46875 1166.035156 636.789062 1169.347656 636.789062 L 1187.542969 636.789062 C 1190.855469 636.789062 1193.246094 639.46875 1192.882812 642.773438 L 1190.949219 660.285156 C 1190.585938 663.59375 1187.605469 666.273438 1184.292969 666.273438 " fill-opacity="1" fill-rule="nonzero"/><path fill="#696052" d="M 1180.082031 704.476562 L 1161.886719 704.476562 C 1158.574219 704.476562 1156.183594 701.792969 1156.546875 698.488281 L 1158.476562 680.976562 C 1158.84375 677.667969 1161.824219 674.992188 1165.132812 674.992188 L 1183.332031 674.992188 C 1186.644531 674.992188 1189.035156 677.667969 1188.671875 680.976562 L 1186.738281 698.488281 C 1186.378906 701.792969 1183.398438 704.476562 1180.082031 704.476562 " fill-opacity="1" fill-rule="nonzero"/><path fill="#696052" d="M 1175.835938 742.996094 L 1157.640625 742.996094 C 1154.328125 742.996094 1151.9375 740.316406 1152.300781 737.011719 L 1154.230469 719.496094 C 1154.59375 716.191406 1157.578125 713.511719 1160.890625 713.511719 L 1179.082031 713.511719 C 1182.398438 713.511719 1184.789062 716.191406 1184.425781 719.496094 L 1182.496094 737.011719 C 1182.128906 740.316406 1179.148438 742.996094 1175.835938 742.996094 " fill-opacity="1" fill-rule="nonzero"/><path fill="#696052" d="M 1220.464844 666.273438 L 1202.269531 666.273438 C 1198.957031 666.273438 1196.566406 663.59375 1196.933594 660.285156 L 1198.863281 642.773438 C 1199.226562 639.464844 1202.207031 636.789062 1205.515625 636.789062 L 1223.714844 636.789062 C 1227.027344 636.789062 1229.417969 639.464844 1229.054688 642.773438 L 1227.125 660.285156 C 1226.761719 663.59375 1223.777344 666.273438 1220.464844 666.273438 " fill-opacity="1" fill-rule="nonzero"/><path fill="#696052" d="M 1216.253906 704.476562 L 1198.054688 704.476562 C 1194.742188 704.476562 1192.351562 701.792969 1192.71875 698.488281 L 1194.648438 680.976562 C 1195.011719 677.667969 1197.992188 674.992188 1201.308594 674.992188 L 1219.5 674.992188 C 1222.816406 674.992188 1225.207031 677.667969 1224.839844 680.976562 L 1222.910156 698.488281 C 1222.546875 701.792969 1219.566406 704.476562 1216.253906 704.476562 " fill-opacity="1" fill-rule="nonzero"/><path fill="#696052" d="M 1212.007812 742.996094 L 1193.8125 742.996094 C 1190.5 742.996094 1188.109375 740.316406 1188.476562 737.011719 L 1190.40625 719.496094 C 1190.769531 716.191406 1193.75 713.507812 1197.0625 713.507812 L 1215.257812 713.507812 C 1218.574219 713.507812 1220.960938 716.191406 1220.597656 719.496094 L 1218.664062 737.011719 C 1218.300781 740.316406 1215.320312 742.996094 1212.007812 742.996094 " fill-opacity="1" fill-rule="nonzero"/><path fill="#696052" d="M 1256.445312 666.269531 L 1238.25 666.269531 C 1234.9375 666.269531 1232.546875 663.59375 1232.90625 660.285156 L 1234.839844 642.773438 C 1235.207031 639.464844 1238.1875 636.785156 1241.5 636.785156 L 1259.695312 636.785156 C 1263.007812 636.785156 1265.398438 639.464844 1265.035156 642.773438 L 1263.101562 660.285156 C 1262.738281 663.59375 1259.757812 666.269531 1256.445312 666.269531 " fill-opacity="1" fill-rule="nonzero"/><path fill="#696052" d="M 1152.65625 628.015625 L 1134.460938 628.015625 C 1131.148438 628.015625 1128.761719 625.335938 1129.125 622.03125 L 1131.054688 604.515625 C 1131.417969 601.210938 1134.398438 598.53125 1137.714844 598.53125 L 1155.910156 598.53125 C 1159.222656 598.53125 1161.609375 601.210938 1161.246094 604.515625 L 1159.316406 622.03125 C 1158.953125 625.335938 1155.972656 628.015625 1152.65625 628.015625 " fill-opacity="1" fill-rule="nonzero"/><path fill="#696052" d="M 1188.828125 628.015625 L 1170.632812 628.015625 C 1167.320312 628.015625 1164.929688 625.335938 1165.292969 622.03125 L 1167.222656 604.515625 C 1167.589844 601.210938 1170.574219 598.53125 1173.882812 598.53125 L 1192.078125 598.53125 C 1195.390625 598.53125 1197.78125 601.210938 1197.417969 604.519531 L 1195.488281 622.03125 C 1195.121094 625.335938 1192.140625 628.015625 1188.828125 628.015625 " fill-opacity="1" fill-rule="nonzero"/><path fill="#696052" d="M 1225 628.015625 L 1206.804688 628.015625 C 1203.488281 628.015625 1201.101562 625.335938 1201.464844 622.03125 L 1203.398438 604.515625 C 1203.757812 601.210938 1206.738281 598.53125 1210.050781 598.53125 L 1228.25 598.53125 C 1231.5625 598.53125 1233.953125 601.210938 1233.585938 604.519531 L 1231.65625 622.03125 C 1231.292969 625.335938 1228.3125 628.015625 1225 628.015625 " fill-opacity="1" fill-rule="nonzero"/><path fill="#696052" d="M 1260.980469 628.015625 L 1242.785156 628.015625 C 1239.46875 628.015625 1237.085938 625.335938 1237.445312 622.03125 L 1239.378906 604.515625 C 1239.742188 601.210938 1242.722656 598.53125 1246.035156 598.53125 L 1264.230469 598.53125 C 1267.546875 598.53125 1269.933594 601.210938 1269.570312 604.515625 L 1267.640625 622.03125 C 1267.277344 625.335938 1264.292969 628.015625 1260.980469 628.015625 " fill-opacity="1" fill-rule="nonzero"/><path fill="#696052" d="M 1247.964844 743.207031 L 1229.769531 743.207031 C 1226.457031 743.207031 1224.066406 740.523438 1224.433594 737.21875 L 1230.628906 680.976562 C 1230.992188 677.667969 1233.972656 674.988281 1237.289062 674.988281 L 1255.484375 674.988281 C 1258.796875 674.988281 1261.1875 677.667969 1260.824219 680.976562 L 1254.625 737.21875 C 1254.261719 740.523438 1251.277344 743.207031 1247.964844 743.207031 " fill-opacity="1" fill-rule="nonzero"/><path fill="#d9d9d9" d="M 1264.566406 583.191406 L 1141.386719 583.191406 C 1137.125 583.191406 1134.054688 579.746094 1134.523438 575.496094 L 1138.210938 542.027344 C 1138.679688 537.777344 1142.511719 534.332031 1146.773438 534.332031 L 1269.949219 534.332031 C 1274.207031 534.332031 1277.285156 537.777344 1276.8125 542.027344 L 1273.125 575.496094 C 1272.660156 579.746094 1268.824219 583.191406 1264.566406 583.191406 " fill-opacity="1" fill-rule="nonzero"/><path fill="#ffffff" d="M 1209.886719 534.175781 L 1246.386719 583.402344 L 1226.445312 583.0625 L 1190.082031 534.175781 L 1209.886719 534.175781 " fill-opacity="1" fill-rule="nonzero"/><path fill="#ffffff" d="M 1179.398438 534.175781 L 1215.8125 583.25 C 1208.535156 583.621094 1202.1875 583.0625 1202.1875 583.0625 L 1166.582031 534.175781 L 1179.398438 534.175781 " fill-opacity="1" fill-rule="nonzero"/><path fill="#000000" d="M 1146.773438 535.175781 C 1142.9375 535.175781 1139.472656 538.289062 1139.050781 542.117188 L 1135.363281 575.585938 C 1135.164062 577.40625 1135.683594 579.109375 1136.820312 580.382812 C 1137.953125 581.652344 1139.582031 582.347656 1141.390625 582.347656 L 1264.566406 582.347656 C 1268.402344 582.347656 1271.867188 579.230469 1272.289062 575.402344 L 1275.976562 541.933594 C 1276.175781 540.113281 1275.660156 538.410156 1274.519531 537.136719 C 1273.386719 535.871094 1271.761719 535.175781 1269.953125 535.175781 Z M 1264.566406 584.035156 L 1141.390625 584.035156 C 1139.089844 584.035156 1137.023438 583.140625 1135.5625 581.511719 C 1134.097656 579.875 1133.429688 577.707031 1133.6875 575.402344 L 1137.371094 541.933594 C 1137.886719 537.277344 1142.105469 533.484375 1146.773438 533.484375 L 1269.953125 533.484375 C 1272.25 533.484375 1274.316406 534.382812 1275.78125 536.011719 C 1277.242188 537.644531 1277.910156 539.8125 1277.65625 542.117188 L 1273.96875 575.585938 C 1273.453125 580.246094 1269.234375 584.035156 1264.566406 584.035156 " fill-opacity="1" fill-rule="nonzero"/><path fill="#000000" d="M 1212.957031 477.785156 C 1212.957031 493.484375 1200.226562 506.210938 1184.527344 506.210938 C 1168.832031 506.210938 1156.105469 493.484375 1156.105469 477.785156 C 1156.105469 462.085938 1168.832031 449.359375 1184.527344 449.359375 C 1200.226562 449.359375 1212.957031 462.085938 1212.957031 477.785156 " fill-opacity="1" fill-rule="nonzero"/><path fill="#ff8a15" d="M 1213.324219 476.941406 C 1213.324219 492.175781 1200.972656 504.523438 1185.742188 504.523438 C 1170.511719 504.523438 1158.160156 492.175781 1158.160156 476.941406 C 1158.160156 461.710938 1170.511719 449.359375 1185.742188 449.359375 C 1200.972656 449.359375 1213.324219 461.710938 1213.324219 476.941406 " fill-opacity="1" fill-rule="nonzero"/><path fill="#000000" d="M 1185.742188 450.203125 C 1171 450.203125 1159.007812 462.199219 1159.007812 476.9375 C 1159.007812 491.683594 1171 503.679688 1185.742188 503.679688 C 1200.484375 503.679688 1212.480469 491.683594 1212.480469 476.9375 C 1212.480469 462.199219 1200.484375 450.203125 1185.742188 450.203125 Z M 1185.742188 505.367188 C 1170.066406 505.367188 1157.316406 492.617188 1157.316406 476.9375 C 1157.316406 461.265625 1170.066406 448.515625 1185.742188 448.515625 C 1201.417969 448.515625 1214.171875 461.265625 1214.171875 476.9375 C 1214.171875 492.617188 1201.417969 505.367188 1185.742188 505.367188 " fill-opacity="1" fill-rule="nonzero"/><path fill="#ffffff" d="M 1208.890625 476.941406 C 1208.890625 489.726562 1198.523438 500.089844 1185.742188 500.089844 C 1172.957031 500.089844 1162.59375 489.726562 1162.59375 476.941406 C 1162.59375 464.15625 1172.957031 453.796875 1185.742188 453.796875 C 1198.523438 453.796875 1208.890625 464.15625 1208.890625 476.941406 " fill-opacity="1" fill-rule="nonzero"/><path fill="#696052" d="M 1183.617188 493.285156 L 1183.617188 489.480469 C 1180.933594 489.359375 1178.332031 488.640625 1176.808594 487.757812 L 1178.011719 483.070312 C 1179.691406 483.992188 1182.054688 484.832031 1184.660156 484.832031 C 1186.945312 484.832031 1188.503906 483.953125 1188.503906 482.347656 C 1188.503906 480.828125 1187.222656 479.867188 1184.257812 478.867188 C 1179.972656 477.421875 1177.050781 475.421875 1177.050781 471.535156 C 1177.050781 468.007812 1179.53125 465.25 1183.816406 464.40625 L 1183.816406 460.597656 L 1187.742188 460.597656 L 1187.742188 464.125 C 1190.425781 464.246094 1192.230469 464.804688 1193.550781 465.445312 L 1192.390625 469.972656 C 1191.347656 469.53125 1189.503906 468.613281 1186.625 468.613281 C 1184.019531 468.613281 1183.175781 469.734375 1183.175781 470.855469 C 1183.175781 472.175781 1184.578125 473.019531 1187.984375 474.300781 C 1192.75 475.980469 1194.671875 478.183594 1194.671875 481.789062 C 1194.671875 485.355469 1192.148438 488.398438 1187.546875 489.203125 L 1187.546875 493.285156 L 1183.617188 493.285156 " fill-opacity="1" fill-rule="nonzero"/><path fill="#000000" d="M 1297.777344 486.605469 C 1297.777344 498.617188 1288.035156 508.359375 1276.023438 508.359375 C 1264.011719 508.359375 1254.269531 498.617188 1254.269531 486.605469 C 1254.269531 474.59375 1264.011719 464.851562 1276.023438 464.851562 C 1288.035156 464.851562 1297.777344 474.59375 1297.777344 486.605469 " fill-opacity="1" fill-rule="nonzero"/><path fill="#ff8a15" d="M 1298.0625 485.960938 C 1298.0625 497.613281 1288.609375 507.066406 1276.957031 507.066406 C 1265.296875 507.066406 1255.847656 497.613281 1255.847656 485.960938 C 1255.847656 474.300781 1265.296875 464.851562 1276.957031 464.851562 C 1288.609375 464.851562 1298.0625 474.300781 1298.0625 485.960938 " fill-opacity="1" fill-rule="nonzero"/><path fill="#000000" d="M 1276.953125 465.699219 C 1265.78125 465.699219 1256.691406 474.785156 1256.691406 485.957031 C 1256.691406 497.132812 1265.78125 506.222656 1276.953125 506.222656 C 1288.128906 506.222656 1297.21875 497.132812 1297.21875 485.957031 C 1297.21875 474.785156 1288.128906 465.699219 1276.953125 465.699219 Z M 1276.953125 507.910156 C 1264.851562 507.910156 1255.003906 498.0625 1255.003906 485.957031 C 1255.003906 473.855469 1264.851562 464.007812 1276.953125 464.007812 C 1289.0625 464.007812 1298.90625 473.855469 1298.90625 485.957031 C 1298.90625 498.0625 1289.0625 507.910156 1276.953125 507.910156 " fill-opacity="1" fill-rule="nonzero"/><path fill="#ffffff" d="M 1294.667969 485.957031 C 1294.667969 495.742188 1286.734375 503.671875 1276.957031 503.671875 C 1267.171875 503.671875 1259.242188 495.742188 1259.242188 485.957031 C 1259.242188 476.179688 1267.171875 468.25 1276.957031 468.25 C 1286.734375 468.25 1294.667969 476.179688 1294.667969 485.957031 " fill-opacity="1" fill-rule="nonzero"/><path fill="#696052" d="M 1275.332031 498.464844 L 1275.332031 495.554688 C 1273.277344 495.460938 1271.285156 494.910156 1270.117188 494.234375 L 1271.039062 490.652344 C 1272.328125 491.351562 1274.136719 491.996094 1276.128906 491.996094 C 1277.871094 491.996094 1279.070312 491.324219 1279.070312 490.097656 C 1279.070312 488.933594 1278.089844 488.195312 1275.820312 487.429688 C 1272.539062 486.328125 1270.304688 484.792969 1270.304688 481.824219 C 1270.304688 479.125 1272.203125 477.011719 1275.484375 476.367188 L 1275.484375 473.453125 L 1278.488281 473.453125 L 1278.488281 476.152344 C 1280.542969 476.242188 1281.917969 476.671875 1282.933594 477.164062 L 1282.046875 480.628906 C 1281.246094 480.289062 1279.835938 479.582031 1277.628906 479.582031 C 1275.636719 479.582031 1274.992188 480.441406 1274.992188 481.300781 C 1274.992188 482.3125 1276.0625 482.957031 1278.671875 483.941406 C 1282.316406 485.226562 1283.789062 486.910156 1283.789062 489.667969 C 1283.789062 492.398438 1281.859375 494.726562 1278.332031 495.339844 L 1278.332031 498.464844 L 1275.332031 498.464844 " fill-opacity="1" fill-rule="nonzero"/><path fill="#000000" d="M 1275.074219 423.296875 C 1275.074219 442.0625 1259.855469 457.28125 1241.085938 457.28125 C 1222.316406 457.28125 1207.097656 442.0625 1207.097656 423.296875 C 1207.097656 404.523438 1222.316406 389.308594 1241.085938 389.308594 C 1259.855469 389.308594 1275.074219 404.523438 1275.074219 423.296875 " fill-opacity="1" fill-rule="nonzero"/><path fill="#ff8a15" d="M 1275.519531 422.285156 C 1275.519531 440.496094 1260.753906 455.261719 1242.542969 455.261719 C 1224.328125 455.261719 1209.5625 440.496094 1209.5625 422.285156 C 1209.5625 404.070312 1224.328125 389.304688 1242.542969 389.304688 C 1260.753906 389.304688 1275.519531 404.070312 1275.519531 422.285156 " fill-opacity="1" fill-rule="nonzero"/><path fill="#000000" d="M 1242.542969 390.148438 C 1224.824219 390.148438 1210.410156 404.566406 1210.410156 422.285156 C 1210.410156 440 1224.824219 454.417969 1242.542969 454.417969 C 1260.261719 454.417969 1274.671875 440 1274.671875 422.285156 C 1274.671875 404.566406 1260.261719 390.148438 1242.542969 390.148438 Z M 1242.542969 456.105469 C 1223.894531 456.105469 1208.714844 440.933594 1208.714844 422.285156 C 1208.714844 403.632812 1223.894531 388.457031 1242.542969 388.457031 C 1261.195312 388.457031 1276.363281 403.632812 1276.363281 422.285156 C 1276.363281 440.933594 1261.195312 456.105469 1242.542969 456.105469 " fill-opacity="1" fill-rule="nonzero"/><path fill="#ffffff" d="M 1270.214844 422.28125 C 1270.214844 437.566406 1257.824219 449.960938 1242.542969 449.960938 C 1227.253906 449.960938 1214.867188 437.566406 1214.867188 422.28125 C 1214.867188 407 1227.253906 394.609375 1242.542969 394.609375 C 1257.824219 394.609375 1270.214844 407 1270.214844 422.28125 " fill-opacity="1" fill-rule="nonzero"/><path fill="#696052" d="M 1240.003906 441.828125 L 1240.003906 437.277344 C 1236.789062 437.132812 1233.675781 436.269531 1231.859375 435.21875 L 1233.296875 429.613281 C 1235.304688 430.714844 1238.132812 431.722656 1241.246094 431.722656 C 1243.976562 431.722656 1245.84375 430.664062 1245.84375 428.75 C 1245.84375 426.929688 1244.3125 425.78125 1240.765625 424.582031 C 1235.640625 422.863281 1232.148438 420.464844 1232.148438 415.820312 C 1232.148438 411.605469 1235.113281 408.300781 1240.238281 407.292969 L 1240.238281 402.746094 L 1244.933594 402.746094 L 1244.933594 406.957031 C 1248.140625 407.101562 1250.296875 407.773438 1251.878906 408.539062 L 1250.488281 413.953125 C 1249.242188 413.425781 1247.039062 412.324219 1243.59375 412.324219 C 1240.476562 412.324219 1239.472656 413.667969 1239.472656 415.007812 C 1239.472656 416.585938 1241.148438 417.59375 1245.21875 419.125 C 1250.917969 421.136719 1253.21875 423.773438 1253.21875 428.078125 C 1253.21875 432.34375 1250.203125 435.984375 1244.695312 436.941406 L 1244.695312 441.828125 L 1240.003906 441.828125 " fill-opacity="1" fill-rule="nonzero"/><path fill="#000000" d="M 947.777344 419.0625 C 947.3125 419.0625 946.933594 418.683594 946.933594 418.21875 L 946.933594 413.875 C 946.933594 413.410156 947.3125 413.03125 947.777344 413.03125 C 948.246094 413.03125 948.625 413.410156 948.625 413.875 L 948.625 418.21875 C 948.625 418.683594 948.246094 419.0625 947.777344 419.0625 " fill-opacity="1" fill-rule="nonzero"/><path fill="#000000" d="M 947.78125 429.171875 C 947.3125 429.171875 946.933594 428.796875 946.933594 428.332031 L 946.933594 423.988281 C 946.933594 423.523438 947.3125 423.144531 947.78125 423.144531 C 948.246094 423.144531 948.625 423.523438 948.625 423.988281 L 948.625 428.332031 C 948.625 428.796875 948.246094 429.171875 947.78125 429.171875 " fill-opacity="1" fill-rule="nonzero"/><path fill="#000000" d="M 944.894531 421.949219 L 940.554688 421.949219 C 940.085938 421.949219 939.707031 421.566406 939.707031 421.101562 C 939.707031 420.636719 940.085938 420.257812 940.554688 420.257812 L 944.894531 420.257812 C 945.359375 420.257812 945.738281 420.636719 945.738281 421.101562 C 945.738281 421.566406 945.359375 421.949219 944.894531 421.949219 " fill-opacity="1" fill-rule="nonzero"/><path fill="#000000" d="M 955.007812 421.949219 L 950.664062 421.949219 C 950.199219 421.949219 949.820312 421.566406 949.820312 421.101562 C 949.820312 420.636719 950.199219 420.257812 950.664062 420.257812 L 955.007812 420.257812 C 955.472656 420.257812 955.851562 420.636719 955.851562 421.101562 C 955.851562 421.566406 955.472656 421.949219 955.007812 421.949219 " fill-opacity="1" fill-rule="nonzero"/><path fill="#000000" d="M 1276.242188 372.175781 L 1276.246094 372.175781 Z M 1278.582031 372.511719 C 1277.90625 372.511719 1277.226562 372.65625 1276.585938 372.945312 C 1274.070312 374.074219 1272.929688 377.089844 1274.035156 379.660156 C 1274.578125 380.917969 1275.566406 381.878906 1276.820312 382.367188 C 1278.042969 382.839844 1279.382812 382.804688 1280.582031 382.269531 C 1283.101562 381.136719 1284.246094 378.125 1283.132812 375.550781 C 1282.59375 374.292969 1281.601562 373.332031 1280.347656 372.847656 C 1279.777344 372.625 1279.179688 372.511719 1278.582031 372.511719 Z M 1278.585938 384.386719 C 1277.785156 384.386719 1276.976562 384.242188 1276.210938 383.941406 C 1274.53125 383.289062 1273.207031 382.003906 1272.484375 380.332031 C 1271.011719 376.914062 1272.539062 372.910156 1275.894531 371.402344 C 1277.511719 370.679688 1279.3125 370.628906 1280.960938 371.273438 C 1282.640625 371.925781 1283.960938 373.207031 1284.683594 374.878906 C 1286.160156 378.296875 1284.628906 382.300781 1281.273438 383.808594 C 1280.414062 384.195312 1279.5 384.386719 1278.585938 384.386719 " fill-opacity="1" fill-rule="nonzero"/><path fill="#000000" d="M 1297.074219 415.703125 C 1296.609375 415.703125 1296.230469 415.328125 1296.230469 414.855469 L 1296.230469 410.519531 C 1296.230469 410.046875 1296.609375 409.671875 1297.074219 409.671875 C 1297.542969 409.671875 1297.921875 410.046875 1297.921875 410.519531 L 1297.921875 414.855469 C 1297.921875 415.328125 1297.542969 415.703125 1297.074219 415.703125 " fill-opacity="1" fill-rule="nonzero"/><path fill="#000000" d="M 1297.074219 425.816406 C 1296.609375 425.816406 1296.230469 425.4375 1296.230469 424.972656 L 1296.230469 420.628906 C 1296.230469 420.164062 1296.609375 419.785156 1297.074219 419.785156 C 1297.542969 419.785156 1297.921875 420.164062 1297.921875 420.628906 L 1297.921875 424.972656 C 1297.921875 425.4375 1297.542969 425.816406 1297.074219 425.816406 " fill-opacity="1" fill-rule="nonzero"/><path fill="#000000" d="M 1294.1875 418.589844 L 1289.84375 418.589844 C 1289.378906 418.589844 1289 418.214844 1289 417.746094 C 1289 417.28125 1289.378906 416.902344 1289.84375 416.902344 L 1294.1875 416.902344 C 1294.652344 416.902344 1295.03125 417.28125 1295.03125 417.746094 C 1295.03125 418.214844 1294.652344 418.589844 1294.1875 418.589844 " fill-opacity="1" fill-rule="nonzero"/><path fill="#000000" d="M 1304.304688 418.589844 L 1299.960938 418.589844 C 1299.496094 418.589844 1299.117188 418.210938 1299.117188 417.742188 C 1299.117188 417.277344 1299.496094 416.898438 1299.960938 416.898438 L 1304.304688 416.898438 C 1304.769531 416.898438 1305.148438 417.277344 1305.148438 417.742188 C 1305.148438 418.210938 1304.769531 418.589844 1304.304688 418.589844 " fill-opacity="1" fill-rule="nonzero"/><path fill="#696052" d="M 932.734375 433.089844 C 932.453125 433.089844 932.175781 432.945312 932.015625 432.6875 C 931.769531 432.292969 931.890625 431.769531 932.289062 431.523438 C 934.199219 430.339844 936.175781 429.191406 938.167969 428.101562 C 938.578125 427.878906 939.089844 428.027344 939.3125 428.4375 C 939.539062 428.851562 939.386719 429.363281 938.976562 429.585938 C 937.015625 430.65625 935.0625 431.789062 933.179688 432.960938 C 933.042969 433.046875 932.886719 433.089844 932.734375 433.089844 Z M 921.6875 440.851562 C 921.4375 440.851562 921.191406 440.742188 921.023438 440.53125 C 920.734375 440.167969 920.796875 439.632812 921.160156 439.34375 C 922.929688 437.945312 924.761719 436.574219 926.613281 435.277344 C 926.996094 435.007812 927.519531 435.101562 927.789062 435.480469 C 928.058594 435.863281 927.964844 436.390625 927.585938 436.660156 C 925.761719 437.9375 923.953125 439.289062 922.210938 440.667969 C 922.054688 440.792969 921.867188 440.851562 921.6875 440.851562 Z M 911.601562 449.835938 C 911.382812 449.835938 911.167969 449.753906 911.003906 449.589844 C 910.671875 449.257812 910.671875 448.726562 911.003906 448.394531 C 912.59375 446.800781 914.261719 445.230469 915.953125 443.722656 C 916.300781 443.410156 916.832031 443.445312 917.144531 443.792969 C 917.453125 444.140625 917.421875 444.675781 917.074219 444.984375 C 915.410156 446.46875 913.769531 448.015625 912.199219 449.589844 C 912.035156 449.753906 911.816406 449.835938 911.601562 449.835938 Z M 902.613281 459.929688 C 902.429688 459.929688 902.242188 459.871094 902.089844 459.746094 C 901.722656 459.457031 901.660156 458.925781 901.949219 458.558594 C 903.351562 456.789062 904.828125 455.035156 906.328125 453.34375 C 906.640625 452.996094 907.175781 452.96875 907.523438 453.277344 C 907.871094 453.589844 907.902344 454.121094 907.589844 454.46875 C 906.109375 456.132812 904.65625 457.863281 903.273438 459.609375 C 903.109375 459.820312 902.859375 459.929688 902.613281 459.929688 Z M 894.84375 470.988281 C 894.691406 470.988281 894.535156 470.945312 894.398438 470.859375 C 894.003906 470.613281 893.878906 470.089844 894.125 469.695312 C 895.316406 467.773438 896.582031 465.863281 897.878906 464.015625 C 898.144531 463.632812 898.671875 463.542969 899.054688 463.808594 C 899.4375 464.078125 899.527344 464.605469 899.261719 464.988281 C 897.980469 466.808594 896.738281 468.691406 895.5625 470.585938 C 895.402344 470.84375 895.125 470.988281 894.84375 470.988281 Z M 888.382812 482.851562 C 888.261719 482.851562 888.140625 482.824219 888.023438 482.769531 C 887.601562 482.570312 887.421875 482.070312 887.621094 481.644531 C 888.585938 479.601562 889.625 477.558594 890.703125 475.578125 C 890.925781 475.167969 891.4375 475.019531 891.847656 475.238281 C 892.257812 475.464844 892.410156 475.976562 892.1875 476.386719 C 891.125 478.339844 890.101562 480.351562 889.148438 482.367188 C 889.003906 482.671875 888.699219 482.851562 888.382812 482.851562 Z M 883.308594 495.371094 C 883.214844 495.371094 883.125 495.359375 883.035156 495.328125 C 882.59375 495.175781 882.355469 494.695312 882.507812 494.257812 C 883.238281 492.113281 884.039062 489.96875 884.886719 487.878906 C 885.0625 487.449219 885.554688 487.238281 885.988281 487.414062 C 886.417969 487.589844 886.628906 488.082031 886.453125 488.511719 C 885.617188 490.574219 884.828125 492.691406 884.105469 494.800781 C 883.988281 495.152344 883.660156 495.371094 883.308594 495.371094 Z M 879.675781 508.382812 C 879.613281 508.382812 879.554688 508.378906 879.492188 508.363281 C 879.039062 508.265625 878.75 507.8125 878.847656 507.359375 C 879.332031 505.15625 879.886719 502.929688 880.492188 500.757812 C 880.617188 500.304688 881.085938 500.042969 881.535156 500.167969 C 881.984375 500.292969 882.246094 500.761719 882.121094 501.210938 C 881.519531 503.355469 880.976562 505.546875 880.5 507.722656 C 880.414062 508.113281 880.0625 508.382812 879.675781 508.382812 Z M 877.535156 521.722656 C 877.507812 521.722656 877.476562 521.722656 877.449219 521.71875 C 876.984375 521.671875 876.648438 521.257812 876.695312 520.792969 C 876.925781 518.550781 877.222656 516.277344 877.582031 514.046875 C 877.652344 513.585938 878.085938 513.273438 878.546875 513.34375 C 879.007812 513.421875 879.320312 513.851562 879.25 514.3125 C 878.894531 516.515625 878.601562 518.753906 878.375 520.964844 C 878.328125 521.398438 877.964844 521.722656 877.535156 521.722656 Z M 876.933594 535.21875 C 876.472656 535.21875 876.09375 534.847656 876.089844 534.386719 C 876.082031 533.863281 876.078125 533.34375 876.078125 532.820312 C 876.078125 531.082031 876.117188 529.320312 876.195312 527.578125 C 876.214844 527.113281 876.605469 526.734375 877.074219 526.773438 C 877.542969 526.796875 877.902344 527.191406 877.882812 527.65625 C 877.804688 529.371094 877.765625 531.105469 877.765625 532.820312 C 877.765625 533.335938 877.769531 533.847656 877.777344 534.363281 C 877.785156 534.832031 877.410156 535.210938 876.945312 535.21875 C 876.941406 535.21875 876.9375 535.21875 876.933594 535.21875 Z M 877.90625 548.6875 C 877.488281 548.6875 877.125 548.382812 877.066406 547.957031 C 876.773438 545.71875 876.542969 543.441406 876.378906 541.183594 C 876.34375 540.71875 876.695312 540.3125 877.160156 540.28125 C 877.628906 540.253906 878.03125 540.597656 878.0625 541.0625 C 878.222656 543.289062 878.453125 545.53125 878.742188 547.734375 C 878.804688 548.199219 878.480469 548.625 878.015625 548.679688 C 877.980469 548.6875 877.941406 548.6875 877.90625 548.6875 Z M 880.476562 561.949219 C 880.097656 561.949219 879.753906 561.695312 879.65625 561.3125 C 879.097656 559.132812 878.59375 556.902344 878.160156 554.675781 C 878.074219 554.214844 878.371094 553.773438 878.828125 553.683594 C 879.289062 553.597656 879.730469 553.894531 879.820312 554.351562 C 880.246094 556.546875 880.738281 558.75 881.292969 560.894531 C 881.410156 561.34375 881.136719 561.808594 880.6875 561.921875 C 880.617188 561.941406 880.542969 561.949219 880.476562 561.949219 Z M 1099.304688 565.242188 C 1099.21875 565.242188 1099.128906 565.230469 1099.039062 565.199219 C 1098.597656 565.054688 1098.355469 564.578125 1098.5 564.132812 C 1099.195312 562.027344 1099.847656 559.863281 1100.441406 557.699219 C 1100.5625 557.25 1101.03125 556.984375 1101.480469 557.109375 C 1101.929688 557.230469 1102.195312 557.699219 1102.070312 558.148438 C 1101.46875 560.335938 1100.808594 562.53125 1100.105469 564.660156 C 1099.988281 565.015625 1099.660156 565.242188 1099.304688 565.242188 Z M 884.640625 574.792969 C 884.304688 574.792969 883.988281 574.59375 883.855469 574.257812 C 883.027344 572.160156 882.253906 570.007812 881.554688 567.855469 C 881.414062 567.410156 881.65625 566.933594 882.097656 566.789062 C 882.542969 566.644531 883.019531 566.890625 883.164062 567.332031 C 883.851562 569.453125 884.613281 571.574219 885.425781 573.640625 C 885.597656 574.074219 885.386719 574.566406 884.953125 574.734375 C 884.851562 574.777344 884.746094 574.792969 884.640625 574.792969 Z M 1094.421875 577.84375 C 1094.304688 577.84375 1094.1875 577.820312 1094.078125 577.769531 C 1093.652344 577.578125 1093.460938 577.082031 1093.652344 576.652344 C 1094.558594 574.636719 1095.429688 572.554688 1096.242188 570.457031 C 1096.410156 570.023438 1096.898438 569.808594 1097.332031 569.976562 C 1097.765625 570.144531 1097.984375 570.632812 1097.816406 571.070312 C 1096.992188 573.191406 1096.113281 575.304688 1095.195312 577.347656 C 1095.054688 577.660156 1094.746094 577.84375 1094.421875 577.84375 Z M 890.371094 587.019531 C 890.074219 587.019531 889.785156 586.863281 889.632812 586.582031 C 888.546875 584.601562 887.507812 582.558594 886.550781 580.511719 C 886.351562 580.089844 886.535156 579.585938 886.957031 579.386719 C 887.378906 579.191406 887.882812 579.371094 888.078125 579.792969 C 889.023438 581.808594 890.046875 583.820312 891.113281 585.769531 C 891.335938 586.179688 891.1875 586.691406 890.777344 586.914062 C 890.648438 586.988281 890.511719 587.019531 890.371094 587.019531 Z M 1088.203125 589.839844 C 1088.054688 589.839844 1087.910156 589.804688 1087.773438 589.722656 C 1087.371094 589.484375 1087.242188 588.964844 1087.480469 588.5625 C 1088.605469 586.664062 1089.703125 584.691406 1090.734375 582.699219 C 1090.949219 582.285156 1091.457031 582.121094 1091.871094 582.339844 C 1092.285156 582.550781 1092.449219 583.058594 1092.234375 583.472656 C 1091.1875 585.496094 1090.074219 587.5 1088.929688 589.425781 C 1088.773438 589.691406 1088.492188 589.839844 1088.203125 589.839844 Z M 897.597656 598.425781 C 897.335938 598.425781 897.074219 598.304688 896.910156 598.078125 C 896.175781 597.0625 895.449219 596.019531 894.75 594.984375 C 894.183594 594.140625 893.625 593.289062 893.089844 592.441406 C 892.839844 592.046875 892.957031 591.527344 893.351562 591.277344 C 893.746094 591.027344 894.265625 591.144531 894.515625 591.539062 C 895.042969 592.371094 895.59375 593.210938 896.148438 594.042969 C 896.835938 595.0625 897.554688 596.085938 898.277344 597.085938 C 898.554688 597.464844 898.46875 597.992188 898.089844 598.265625 C 897.941406 598.375 897.769531 598.425781 897.597656 598.425781 Z M 1080.605469 601.011719 C 1080.425781 601.011719 1080.246094 600.957031 1080.089844 600.832031 C 1079.722656 600.546875 1079.65625 600.015625 1079.941406 599.652344 C 1081.296875 597.902344 1082.625 596.078125 1083.878906 594.226562 C 1084.140625 593.839844 1084.667969 593.738281 1085.050781 594 C 1085.4375 594.265625 1085.539062 594.789062 1085.277344 595.175781 C 1084 597.058594 1082.65625 598.910156 1081.277344 600.6875 C 1081.109375 600.898438 1080.859375 601.011719 1080.605469 601.011719 Z M 906.21875 608.820312 C 905.992188 608.820312 905.769531 608.730469 905.601562 608.554688 C 904.050781 606.914062 902.53125 605.199219 901.085938 603.457031 C 900.789062 603.097656 900.839844 602.566406 901.195312 602.265625 C 901.554688 601.96875 902.089844 602.019531 902.386719 602.378906 C 903.808594 604.089844 905.300781 605.777344 906.832031 607.394531 C 907.152344 607.730469 907.136719 608.265625 906.796875 608.589844 C 906.632812 608.742188 906.425781 608.820312 906.21875 608.820312 Z M 1071.640625 611.109375 C 1071.421875 611.109375 1071.203125 611.027344 1071.042969 610.859375 C 1070.714844 610.527344 1070.71875 609.992188 1071.050781 609.664062 C 1072.628906 608.109375 1074.179688 606.476562 1075.664062 604.804688 C 1075.972656 604.457031 1076.507812 604.425781 1076.855469 604.734375 C 1077.203125 605.046875 1077.238281 605.578125 1076.925781 605.925781 C 1075.417969 607.625 1073.839844 609.289062 1072.234375 610.871094 C 1072.070312 611.027344 1071.855469 611.109375 1071.640625 611.109375 Z M 916.125 617.988281 C 915.941406 617.988281 915.753906 617.925781 915.597656 617.800781 C 913.839844 616.378906 912.105469 614.878906 910.445312 613.339844 C 910.105469 613.027344 910.082031 612.492188 910.398438 612.148438 C 910.714844 611.808594 911.25 611.785156 911.59375 612.101562 C 913.226562 613.613281 914.929688 615.089844 916.660156 616.488281 C 917.023438 616.78125 917.078125 617.3125 916.785156 617.675781 C 916.617188 617.882812 916.371094 617.988281 916.125 617.988281 Z M 1061.382812 619.890625 C 1061.128906 619.890625 1060.871094 619.773438 1060.707031 619.550781 C 1060.429688 619.175781 1060.507812 618.648438 1060.878906 618.371094 L 1061.28125 618.070312 C 1062.929688 616.832031 1064.554688 615.53125 1066.117188 614.195312 C 1066.472656 613.886719 1067.003906 613.929688 1067.308594 614.285156 C 1067.609375 614.636719 1067.570312 615.171875 1067.214844 615.476562 C 1065.625 616.839844 1063.96875 618.164062 1062.296875 619.421875 L 1061.886719 619.726562 C 1061.738281 619.835938 1061.558594 619.890625 1061.382812 619.890625 Z M 927.160156 625.777344 C 927.007812 625.777344 926.855469 625.734375 926.71875 625.652344 C 924.789062 624.46875 922.875 623.210938 921.027344 621.90625 C 920.648438 621.636719 920.554688 621.109375 920.824219 620.730469 C 921.09375 620.347656 921.621094 620.257812 922.003906 620.527344 C 923.820312 621.808594 925.703125 623.046875 927.601562 624.210938 C 927.996094 624.453125 928.125 624.976562 927.878906 625.371094 C 927.71875 625.628906 927.441406 625.777344 927.160156 625.777344 Z M 1050.019531 627.195312 C 1049.71875 627.195312 1049.429688 627.039062 1049.277344 626.757812 C 1049.050781 626.351562 1049.199219 625.835938 1049.605469 625.609375 C 1051.570312 624.523438 1053.507812 623.363281 1055.367188 622.171875 C 1055.757812 621.921875 1056.28125 622.035156 1056.535156 622.429688 C 1056.785156 622.820312 1056.671875 623.339844 1056.277344 623.59375 C 1054.386719 624.808594 1052.417969 625.984375 1050.425781 627.089844 C 1050.296875 627.160156 1050.15625 627.195312 1050.019531 627.195312 Z M 939.097656 632.089844 C 938.980469 632.089844 938.863281 632.066406 938.75 632.015625 C 936.679688 631.078125 934.621094 630.070312 932.632812 629.023438 C 932.222656 628.804688 932.0625 628.292969 932.28125 627.882812 C 932.5 627.46875 933.011719 627.308594 933.421875 627.527344 C 935.378906 628.5625 937.40625 629.554688 939.445312 630.472656 C 939.871094 630.667969 940.058594 631.164062 939.867188 631.589844 C 939.726562 631.902344 939.417969 632.089844 939.097656 632.089844 Z M 1037.824219 633.03125 C 1037.488281 633.03125 1037.175781 632.832031 1037.042969 632.503906 C 1036.863281 632.074219 1037.074219 631.578125 1037.5 631.402344 C 1039.582031 630.550781 1041.648438 629.640625 1043.640625 628.6875 C 1044.0625 628.484375 1044.566406 628.664062 1044.769531 629.082031 C 1044.96875 629.503906 1044.792969 630.007812 1044.367188 630.207031 C 1042.347656 631.179688 1040.25 632.101562 1038.140625 632.964844 C 1038.039062 633.007812 1037.929688 633.03125 1037.824219 633.03125 Z M 951.722656 636.890625 C 951.640625 636.890625 951.554688 636.878906 951.46875 636.851562 C 949.304688 636.171875 947.140625 635.421875 945.039062 634.625 C 944.601562 634.457031 944.382812 633.972656 944.546875 633.53125 C 944.714844 633.097656 945.199219 632.878906 945.636719 633.046875 C 947.707031 633.832031 949.839844 634.570312 951.976562 635.238281 C 952.421875 635.378906 952.667969 635.851562 952.527344 636.296875 C 952.414062 636.660156 952.082031 636.890625 951.722656 636.890625 Z M 1025.042969 637.445312 C 1024.679688 637.445312 1024.339844 637.203125 1024.234375 636.832031 C 1024.105469 636.382812 1024.367188 635.914062 1024.8125 635.785156 C 1026.964844 635.171875 1029.117188 634.492188 1031.21875 633.765625 C 1031.660156 633.613281 1032.140625 633.851562 1032.292969 634.292969 C 1032.445312 634.730469 1032.210938 635.210938 1031.773438 635.363281 C 1029.644531 636.097656 1027.457031 636.789062 1025.277344 637.410156 C 1025.199219 637.433594 1025.125 637.445312 1025.042969 637.445312 Z M 964.820312 640.191406 C 964.769531 640.191406 964.714844 640.1875 964.660156 640.175781 C 962.4375 639.75 960.203125 639.25 958.019531 638.703125 C 957.566406 638.585938 957.292969 638.128906 957.40625 637.675781 C 957.519531 637.222656 957.976562 636.949219 958.429688 637.0625 C 960.585938 637.605469 962.789062 638.097656 964.980469 638.519531 C 965.4375 638.605469 965.738281 639.050781 965.648438 639.507812 C 965.570312 639.914062 965.21875 640.191406 964.820312 640.191406 Z M 1011.871094 640.472656 C 1011.472656 640.472656 1011.113281 640.1875 1011.042969 639.773438 C 1010.960938 639.316406 1011.265625 638.878906 1011.726562 638.796875 C 1013.929688 638.410156 1016.140625 637.960938 1018.308594 637.460938 C 1018.765625 637.355469 1019.21875 637.640625 1019.320312 638.097656 C 1019.425781 638.550781 1019.144531 639.003906 1018.6875 639.109375 C 1016.492188 639.613281 1014.25 640.070312 1012.019531 640.460938 C 1011.972656 640.46875 1011.921875 640.472656 1011.871094 640.472656 Z M 978.207031 642.03125 C 978.183594 642.03125 978.15625 642.03125 978.132812 642.027344 C 975.875 641.839844 973.601562 641.589844 971.375 641.285156 C 970.910156 641.222656 970.585938 640.792969 970.652344 640.332031 C 970.714844 639.871094 971.140625 639.550781 971.601562 639.613281 C 973.800781 639.914062 976.046875 640.160156 978.273438 640.34375 C 978.738281 640.382812 979.085938 640.792969 979.046875 641.253906 C 979.007812 641.699219 978.640625 642.03125 978.207031 642.03125 Z M 998.460938 642.136719 C 998.023438 642.136719 997.652344 641.792969 997.617188 641.347656 C 997.585938 640.886719 997.933594 640.480469 998.402344 640.445312 C 1000.621094 640.285156 1002.871094 640.066406 1005.085938 639.792969 C 1005.546875 639.738281 1005.96875 640.0625 1006.027344 640.527344 C 1006.085938 640.992188 1005.753906 641.414062 1005.292969 641.46875 C 1003.046875 641.746094 1000.769531 641.96875 998.523438 642.132812 C 998.5 642.132812 998.480469 642.136719 998.460938 642.136719 Z M 988.964844 642.476562 C 987.617188 642.476562 986.257812 642.457031 984.925781 642.414062 C 984.457031 642.398438 984.09375 642.011719 984.105469 641.542969 C 984.121094 641.085938 984.496094 640.726562 984.949219 640.726562 C 984.960938 640.726562 984.96875 640.726562 984.976562 640.726562 C 987.195312 640.792969 989.457031 640.804688 991.691406 640.757812 C 992.152344 640.757812 992.542969 641.121094 992.554688 641.585938 C 992.5625 642.050781 992.191406 642.4375 991.726562 642.449219 C 990.804688 642.46875 989.886719 642.476562 988.964844 642.476562 " fill-opacity="1" fill-rule="nonzero"/><path fill="#000000" d="M 859.796875 423.519531 C 859.707031 423.519531 859.613281 423.503906 859.527344 423.472656 C 859.082031 423.324219 858.847656 422.84375 858.996094 422.402344 C 867.050781 398.480469 879.921875 378.179688 896.214844 363.699219 C 896.5625 363.386719 897.097656 363.417969 897.40625 363.765625 C 897.71875 364.117188 897.6875 364.652344 897.339844 364.957031 C 881.265625 379.25 868.558594 399.300781 860.597656 422.941406 C 860.476562 423.292969 860.148438 423.519531 859.796875 423.519531 " fill-opacity="1" fill-rule="nonzero"/><path fill="#000000" d="M 857.15625 406.585938 C 857.058594 406.585938 856.957031 406.566406 856.859375 406.53125 C 856.425781 406.367188 856.203125 405.882812 856.367188 405.445312 C 864.835938 382.816406 881.886719 352.449219 915.03125 336.257812 C 915.449219 336.054688 915.957031 336.230469 916.160156 336.648438 C 916.367188 337.066406 916.191406 337.574219 915.773438 337.777344 C 883.128906 353.722656 866.308594 383.695312 857.949219 406.035156 C 857.820312 406.375 857.5 406.585938 857.15625 406.585938 " fill-opacity="1" fill-rule="nonzero"/><path fill="#000000" d="M 907.351562 355.820312 C 905.835938 356.5 905.148438 358.316406 905.816406 359.867188 C 906.140625 360.621094 906.738281 361.195312 907.488281 361.492188 C 908.222656 361.773438 909.023438 361.753906 909.742188 361.429688 C 911.257812 360.75 911.945312 358.9375 911.273438 357.386719 C 910.949219 356.632812 910.355469 356.054688 909.601562 355.761719 C 908.867188 355.476562 908.070312 355.496094 907.351562 355.820312 Z M 908.546875 363.382812 C 907.984375 363.382812 907.417969 363.277344 906.878906 363.0625 C 905.699219 362.605469 904.773438 361.707031 904.265625 360.535156 C 903.234375 358.140625 904.308594 355.332031 906.65625 354.277344 C 907.792969 353.769531 909.054688 353.734375 910.214844 354.1875 C 911.394531 354.644531 912.320312 355.542969 912.828125 356.714844 C 913.859375 359.109375 912.785156 361.914062 910.433594 362.96875 C 909.832031 363.242188 909.1875 363.382812 908.546875 363.382812 " fill-opacity="1" fill-rule="nonzero"/><path fill="#000000" d="M 922.230469 448.957031 C 929.003906 443.828125 935.539062 438.414062 944.71875 439.085938 C 949.242188 439.421875 950.082031 440.5 954.640625 438.695312 C 956.511719 437.957031 959.082031 435.09375 961.28125 436.035156 C 964.265625 437.316406 965.128906 444.035156 963.679688 449.46875 C 962.238281 454.863281 957.371094 458.25 954.503906 462.792969 C 950.035156 469.878906 945.683594 475.734375 939.867188 481.894531 C 933.992188 488.105469 928.285156 495.421875 927.953125 503.964844 C 927.652344 511.714844 931.84375 518.902344 933.015625 526.566406 C 935.847656 545.097656 921.601562 557.449219 905.132812 561.636719 C 898.664062 563.28125 891.625 563.308594 885.496094 560.667969 C 875.105469 556.195312 875.609375 548.179688 871.378906 539.441406 C 869.640625 535.859375 866.332031 533.347656 863.636719 530.414062 C 855.515625 521.582031 848.480469 496.421875 865.667969 492.835938 C 869.957031 491.9375 874.734375 493.308594 878.605469 491.257812 C 883.902344 488.445312 883.34375 482.636719 885.167969 477.835938 C 886.996094 473.015625 890.582031 468.808594 894.507812 465.570312 C 902.851562 458.671875 913.609375 455.484375 922.230469 448.957031 " fill-opacity="1" fill-rule="nonzero"/><path fill="#ffffff" d="M 878.339844 720.453125 C 876.542969 724.09375 872.753906 732.195312 870.777344 740.410156 C 869.976562 743.730469 870.835938 745.605469 871.59375 748.292969 C 872.683594 752.15625 873.90625 753.964844 873.375 755.0625 C 872.257812 757.367188 859.441406 756.796875 855.1875 749.796875 C 853.828125 747.558594 853.546875 744.277344 855.789062 732.59375 C 858.089844 720.609375 857.234375 718.734375 859.003906 717.277344 C 864.570312 712.683594 876.789062 719.558594 878.339844 720.453125 " fill-opacity="1" fill-rule="nonzero"/><path fill="#000000" d="M 864.050781 716.554688 C 862.320312 716.554688 860.738281 716.941406 859.539062 717.925781 C 858.78125 718.554688 858.667969 719.246094 858.261719 722.402344 C 857.984375 724.5625 857.566406 727.824219 856.621094 732.753906 C 854.441406 744.105469 854.691406 747.347656 855.910156 749.355469 C 858.765625 754.0625 865.882812 755.566406 869.703125 755.421875 C 871.644531 755.34375 872.515625 754.890625 872.613281 754.695312 C 872.792969 754.328125 872.414062 753.3125 871.980469 752.128906 C 871.632812 751.179688 871.199219 750 870.78125 748.519531 C 870.675781 748.140625 870.566406 747.78125 870.460938 747.429688 C 869.792969 745.203125 869.21875 743.28125 869.957031 740.210938 C 871.679688 733.042969 874.792969 725.820312 877.226562 720.796875 C 875.054688 719.617188 868.945312 716.554688 864.050781 716.554688 Z M 869.144531 757.121094 C 864.667969 757.121094 857.578125 755.359375 854.464844 750.234375 C 852.960938 747.757812 852.652344 744.464844 854.960938 732.433594 C 855.894531 727.554688 856.3125 724.328125 856.585938 722.1875 C 857.007812 718.921875 857.164062 717.699219 858.464844 716.625 C 864.300781 711.8125 876.394531 718.355469 878.761719 719.71875 L 879.445312 720.113281 L 879.097656 720.824219 C 876.652344 725.78125 873.371094 733.234375 871.597656 740.609375 C 870.96875 743.230469 871.457031 744.867188 872.078125 746.941406 C 872.1875 747.304688 872.296875 747.675781 872.40625 748.0625 C 872.804688 749.476562 873.226562 750.625 873.566406 751.546875 C 874.203125 753.277344 874.625 754.421875 874.136719 755.433594 C 873.53125 756.675781 871.488281 757.03125 869.882812 757.105469 C 869.648438 757.117188 869.398438 757.121094 869.144531 757.121094 " fill-opacity="1" fill-rule="nonzero"/><path fill="#696052" d="M 870.800781 754.664062 C 870.773438 754.664062 870.75 754.660156 870.722656 754.660156 C 865.378906 754.195312 861.550781 752.230469 859.339844 748.828125 C 855.257812 742.554688 858.21875 733.75 858.347656 733.378906 C 858.5 732.9375 858.980469 732.703125 859.417969 732.855469 C 859.859375 733.007812 860.09375 733.488281 859.945312 733.925781 C 859.917969 734.011719 857.128906 742.335938 860.757812 747.914062 C 862.671875 750.855469 866.074219 752.5625 870.871094 752.976562 C 871.335938 753.019531 871.679688 753.429688 871.640625 753.890625 C 871.601562 754.328125 871.230469 754.664062 870.800781 754.664062 " fill-opacity="1" fill-rule="nonzero"/><path fill="#ffffff" d="M 936.5 735.601562 C 936.5 735.601562 937.164062 740.765625 934.992188 752.632812 C 934.679688 754.332031 936.488281 755.738281 938.210938 755.890625 C 945.253906 756.511719 961.789062 757.632812 975.589844 757.195312 C 976.867188 757.152344 977.796875 756.175781 978.082031 755.34375 C 980.636719 747.902344 960.308594 745.519531 959.480469 740.476562 C 958.003906 731.449219 936.5 735.601562 936.5 735.601562 " fill-opacity="1" fill-rule="nonzero"/><path fill="#000000" d="M 937.40625 736.304688 C 937.507812 738.1875 937.539062 743.40625 935.824219 752.785156 C 935.75 753.171875 935.859375 753.550781 936.136719 753.917969 C 936.59375 754.519531 937.457031 754.972656 938.285156 755.046875 C 940.402344 755.234375 959.4375 756.859375 975.5625 756.351562 C 976.507812 756.320312 977.121094 755.550781 977.285156 755.074219 C 978.496094 751.539062 972.925781 749.148438 967.535156 746.84375 C 962.996094 744.898438 959.074219 743.21875 958.648438 740.613281 C 958.445312 739.363281 957.792969 738.375 956.65625 737.578125 C 951.828125 734.214844 940.421875 735.808594 937.40625 736.304688 Z M 968.929688 758.136719 C 954.535156 758.136719 939.976562 756.890625 938.136719 756.726562 C 936.824219 756.613281 935.542969 755.925781 934.792969 754.941406 C 934.222656 754.191406 934.003906 753.339844 934.160156 752.480469 C 936.285156 740.875 935.667969 735.761719 935.664062 735.710938 L 935.5625 734.925781 L 936.339844 734.773438 C 936.957031 734.65625 951.476562 731.910156 957.621094 736.195312 C 959.132812 737.25 960.039062 738.644531 960.316406 740.339844 C 960.59375 742.03125 964.632812 743.761719 968.199219 745.289062 C 974.015625 747.777344 980.601562 750.601562 978.882812 755.621094 C 978.484375 756.78125 977.234375 757.984375 975.617188 758.035156 C 973.425781 758.105469 971.179688 758.136719 968.929688 758.136719 " fill-opacity="1" fill-rule="nonzero"/><path fill="#696052" d="M 966.425781 755.03125 C 953.691406 755.03125 940.363281 753.144531 938.375 751.867188 C 937.980469 751.613281 937.867188 751.089844 938.121094 750.699219 C 938.371094 750.304688 938.894531 750.191406 939.285156 750.445312 C 940.996094 751.542969 959.113281 754.15625 973.871094 753.09375 C 974.335938 753.0625 974.738281 753.410156 974.773438 753.875 C 974.808594 754.339844 974.457031 754.742188 973.992188 754.777344 C 971.5625 754.949219 969.003906 755.03125 966.425781 755.03125 " fill-opacity="1" fill-rule="nonzero"/><path fill="#000000" d="M 970.09375 550.441406 C 970.09375 550.441406 968.34375 674.75 974.257812 730.792969 C 975.21875 739.921875 967.769531 747.753906 958.601562 747.246094 C 955.734375 747.089844 952.40625 746.460938 948.550781 745.160156 C 939.914062 742.253906 933.121094 741.71875 928.292969 741.996094 C 923.558594 742.273438 919.589844 738.453125 919.605469 733.707031 C 919.667969 709.589844 920.273438 648.695312 924.652344 623.128906 C 924.652344 623.128906 906.09375 676.9375 890.878906 724.457031 C 889.078125 730.089844 883.703125 733.769531 877.796875 733.46875 C 871.121094 733.125 861.820312 731.371094 851.648438 725.632812 C 844.738281 721.730469 841.472656 713.539062 843.695312 705.917969 C 851.9375 677.726562 877.136719 604.707031 931.398438 543.496094 L 970.09375 550.441406 " fill-opacity="1" fill-rule="nonzero"/><path fill="#d9d9d9" d="M 921.269531 636.28125 C 921.191406 636.28125 921.109375 636.273438 921.027344 636.246094 C 920.582031 636.113281 920.328125 635.640625 920.460938 635.195312 C 922.671875 627.785156 928.359375 612.847656 932.945312 601.339844 C 935.601562 594.671875 941.367188 589.707031 948.359375 588.070312 C 948.8125 587.964844 949.269531 588.242188 949.375 588.699219 C 949.480469 589.15625 949.199219 589.605469 948.746094 589.714844 C 942.289062 591.230469 936.96875 595.808594 934.515625 601.964844 C 929.941406 613.441406 924.277344 628.320312 922.078125 635.679688 C 921.96875 636.046875 921.632812 636.28125 921.269531 636.28125 " fill-opacity="1" fill-rule="nonzero"/><path fill="#ffffff" d="M 1054.910156 470.140625 C 1055.523438 469.269531 1055.25 468.039062 1054.269531 467.523438 C 1053.582031 467.160156 1052.726562 467.328125 1052.164062 467.871094 L 1043.269531 476.484375 L 1042.320312 476.300781 C 1040.453125 475.945312 1038.675781 477.234375 1038.425781 479.113281 C 1038.425781 479.113281 1038.542969 484.621094 1036.882812 486.777344 C 1028.328125 497.878906 1008.746094 517.351562 1005.722656 517.351562 C 1002.480469 517.351562 997.074219 514.324219 997.074219 514.324219 L 972.636719 519.082031 C 972.636719 519.082031 985.179688 538.976562 1006.589844 534.222656 C 1024.625 530.214844 1040.96875 500.738281 1045.675781 491.539062 C 1046.242188 490.4375 1047.152344 489.566406 1048.253906 489 C 1048.714844 488.765625 1049.148438 488.46875 1049.542969 488.109375 L 1053.214844 484.777344 C 1054.605469 483.523438 1055.058594 481.53125 1054.355469 479.792969 L 1053.476562 477.621094 C 1052.601562 475.460938 1052.886719 473.007812 1054.230469 471.101562 L 1054.910156 470.140625 " fill-opacity="1" fill-rule="nonzero"/><path fill="#000000" d="M 1054.910156 470.140625 L 1054.914062 470.140625 Z M 974.074219 519.660156 C 977.003906 523.613281 988.648438 537.339844 1006.40625 533.394531 C 1024.101562 529.464844 1040.363281 500.070312 1044.921875 491.15625 C 1045.558594 489.917969 1046.578125 488.910156 1047.867188 488.25 C 1048.269531 488.046875 1048.640625 487.785156 1048.976562 487.484375 L 1052.648438 484.152344 C 1053.769531 483.140625 1054.140625 481.511719 1053.574219 480.113281 L 1052.691406 477.9375 C 1051.707031 475.5 1052.023438 472.761719 1053.539062 470.617188 L 1054.21875 469.652344 C 1054.375 469.429688 1054.429688 469.152344 1054.363281 468.890625 C 1054.300781 468.621094 1054.128906 468.402344 1053.878906 468.273438 C 1053.53125 468.089844 1053.066406 468.171875 1052.753906 468.480469 L 1043.855469 477.089844 C 1043.660156 477.28125 1043.378906 477.367188 1043.109375 477.316406 L 1042.160156 477.132812 C 1041.492188 477.003906 1040.816406 477.15625 1040.261719 477.554688 C 1039.726562 477.941406 1039.375 478.515625 1039.273438 479.167969 C 1039.285156 480.019531 1039.285156 485.042969 1037.550781 487.292969 C 1029.480469 497.769531 1009.414062 518.195312 1005.722656 518.195312 C 1002.695312 518.195312 998.113281 515.84375 996.9375 515.210938 Z M 1000.097656 535.792969 C 982.398438 535.792969 972.035156 519.714844 971.921875 519.53125 C 971.773438 519.296875 971.75 519.003906 971.859375 518.75 C 971.96875 518.492188 972.199219 518.304688 972.472656 518.253906 L 996.914062 513.496094 C 997.109375 513.457031 997.3125 513.488281 997.488281 513.589844 C 997.539062 513.617188 1002.738281 516.507812 1005.722656 516.507812 C 1008.261719 516.34375 1027.222656 497.933594 1036.214844 486.261719 C 1037.429688 484.6875 1037.613281 480.582031 1037.582031 479.132812 C 1037.582031 479.09375 1037.582031 479.050781 1037.589844 479.003906 C 1037.742188 477.859375 1038.335938 476.859375 1039.273438 476.183594 C 1040.207031 475.507812 1041.347656 475.257812 1042.480469 475.472656 L 1042.996094 475.570312 L 1051.578125 467.261719 C 1052.421875 466.445312 1053.660156 466.25 1054.664062 466.777344 C 1055.339844 467.132812 1055.828125 467.757812 1056.007812 468.496094 C 1056.183594 469.230469 1056.035156 470.007812 1055.597656 470.625 L 1054.917969 471.589844 C 1053.738281 473.265625 1053.488281 475.402344 1054.257812 477.304688 L 1055.140625 479.480469 C 1055.972656 481.535156 1055.425781 483.917969 1053.78125 485.40625 L 1050.109375 488.734375 C 1049.664062 489.136719 1049.171875 489.480469 1048.636719 489.753906 C 1047.664062 490.253906 1046.898438 491.003906 1046.429688 491.925781 C 1041.78125 501.003906 1025.1875 530.953125 1006.773438 535.046875 C 1004.445312 535.5625 1002.21875 535.792969 1000.097656 535.792969 " fill-opacity="1" fill-rule="nonzero"/><path fill="#696052" d="M 981.117188 492.519531 C 976.882812 486.648438 970.03125 483.242188 962.792969 483.363281 L 921.3125 483.949219 C 917.640625 484 914.679688 486.964844 914.640625 490.636719 L 914.355469 515.332031 L 910.257812 554.214844 C 928.992188 540.261719 948.519531 552.195312 959.441406 555.847656 C 970.367188 559.5 973.71875 554.550781 973.71875 554.550781 L 972.636719 521.894531 C 972.636719 521.894531 976.308594 530.15625 986.203125 536.378906 C 987.492188 537.191406 989.195312 536.648438 989.824219 535.261719 C 992.765625 528.765625 998.390625 524.339844 998.800781 514.902344 C 998.890625 512.820312 997.96875 510.828125 996.355469 509.507812 C 990.480469 504.691406 985.042969 497.972656 981.117188 492.519531 " fill-opacity="1" fill-rule="nonzero"/><path fill="#d9d9d9" d="M 955.390625 569.546875 L 895.058594 602.960938 C 892.160156 604.570312 888.503906 603.519531 886.894531 600.617188 L 866.859375 564.445312 C 865.253906 561.542969 866.300781 557.886719 869.203125 556.277344 L 929.535156 522.863281 C 932.4375 521.257812 936.09375 522.304688 937.699219 525.207031 L 957.734375 561.382812 C 959.34375 564.28125 958.292969 567.941406 955.390625 569.546875 " fill-opacity="1" fill-rule="nonzero"/><path fill="#ffffff" d="M 957.648438 572.988281 L 897.105469 606.519531 C 895.792969 607.246094 894.144531 606.773438 893.417969 605.460938 L 870.191406 563.523438 C 869.464844 562.214844 869.9375 560.5625 871.25 559.839844 L 931.792969 526.304688 C 933.105469 525.582031 934.753906 526.054688 935.480469 527.363281 L 958.707031 569.300781 C 959.433594 570.609375 958.960938 572.261719 957.648438 572.988281 " fill-opacity="1" fill-rule="nonzero"/><path fill="#ff8a15" d="M 961.035156 576.65625 L 898.09375 611.519531 C 895.191406 613.125 891.535156 612.078125 889.929688 609.175781 L 869.894531 573 C 868.285156 570.097656 869.335938 566.445312 872.238281 564.835938 L 935.179688 529.976562 C 938.082031 528.367188 941.738281 529.417969 943.34375 532.320312 L 963.378906 568.492188 C 964.988281 571.394531 963.9375 575.050781 961.035156 576.65625 " fill-opacity="1" fill-rule="nonzero"/><path fill="#ffffff" d="M 926.117188 580.070312 L 916.480469 574.929688 C 916.480469 574.929688 925.382812 576.164062 924.382812 573.132812 C 923.871094 571.574219 923.101562 571.65625 921.082031 571.621094 C 919.605469 571.601562 917.082031 571.460938 914.808594 571.316406 C 911.25 571.097656 907.953125 569.339844 905.820312 566.488281 C 899.613281 558.195312 896.613281 546.644531 897.832031 541.84375 C 898.714844 538.351562 902.15625 533.589844 904.644531 529.761719 C 898.203125 524.664062 895.179688 524.761719 888.667969 520.273438 C 882.265625 530.9375 881.53125 541.519531 882.097656 545.089844 C 884.5 560.191406 899.847656 572.921875 904.601562 576.542969 C 905.515625 577.242188 906.390625 577.988281 907.214844 578.789062 C 910.503906 581.972656 916.796875 587.285156 921.242188 586.171875 C 927.511719 584.597656 926.117188 580.070312 926.117188 580.070312 " fill-opacity="1" fill-rule="nonzero"/><path fill="#000000" d="M 888.9375 521.476562 C 882.722656 532.273438 882.5 542.253906 882.929688 544.957031 C 885.285156 559.757812 900.503906 572.363281 905.113281 575.871094 C 906.070312 576.601562 906.972656 577.375 907.804688 578.179688 C 913.265625 583.476562 918.089844 586.09375 921.035156 585.351562 C 922.992188 584.859375 924.308594 584.03125 924.957031 582.882812 C 925.460938 581.984375 925.433594 581.085938 925.371094 580.628906 L 916.085938 575.679688 C 915.722656 575.484375 915.550781 575.0625 915.679688 574.671875 C 915.804688 574.28125 916.1875 574.042969 916.597656 574.09375 C 919.472656 574.496094 922.964844 574.425781 923.574219 573.691406 C 923.605469 573.65625 923.648438 573.605469 923.582031 573.398438 C 923.292969 572.53125 923.214844 572.496094 921.390625 572.472656 L 921.066406 572.46875 C 919.808594 572.449219 917.683594 572.34375 914.753906 572.160156 C 910.925781 571.921875 907.421875 570.039062 905.140625 566.992188 C 898.917969 558.675781 895.71875 546.746094 897.011719 541.636719 C 897.789062 538.566406 900.386719 534.65625 902.679688 531.203125 C 902.960938 530.777344 903.242188 530.359375 903.511719 529.949219 C 900.355469 527.53125 898.035156 526.394531 895.59375 525.195312 C 893.605469 524.21875 891.554688 523.210938 888.9375 521.476562 Z M 919.953125 587.167969 C 915.617188 587.167969 910.414062 583.0625 906.628906 579.390625 C 905.847656 578.636719 904.992188 577.902344 904.089844 577.214844 C 899.355469 573.609375 883.714844 560.644531 881.261719 545.222656 C 880.570312 540.867188 881.769531 530.121094 887.941406 519.835938 C 888.0625 519.636719 888.261719 519.496094 888.488281 519.445312 C 888.71875 519.398438 888.953125 519.441406 889.144531 519.574219 C 892.023438 521.558594 894.21875 522.636719 896.335938 523.675781 C 899.019531 524.996094 901.554688 526.238281 905.167969 529.097656 C 905.511719 529.371094 905.589844 529.855469 905.351562 530.222656 C 904.949219 530.839844 904.523438 531.480469 904.089844 532.140625 C 901.871094 535.476562 899.355469 539.261719 898.652344 542.050781 C 897.449219 546.792969 900.546875 558.035156 906.496094 565.980469 C 908.476562 568.628906 911.527344 570.265625 914.859375 570.476562 C 917.722656 570.65625 919.878906 570.761719 921.09375 570.777344 L 921.414062 570.785156 C 923.214844 570.804688 924.511719 570.824219 925.183594 572.867188 C 925.417969 573.578125 925.304688 574.253906 924.871094 574.773438 C 924.074219 575.730469 922.191406 576.015625 920.351562 576.039062 L 926.515625 579.328125 C 926.710938 579.429688 926.859375 579.609375 926.925781 579.824219 C 926.949219 579.902344 927.511719 581.792969 926.429688 583.714844 C 925.546875 585.28125 923.867188 586.382812 921.445312 586.988281 C 920.964844 587.113281 920.464844 587.167969 919.953125 587.167969 " fill-opacity="1" fill-rule="nonzero"/><path fill="#696052" d="M 920.902344 484.074219 C 914.398438 484.1875 908.28125 487.152344 904.152344 492.175781 C 899.019531 498.414062 891.851562 507.664062 885.832031 517.421875 C 885.1875 518.464844 885.105469 519.777344 885.683594 520.863281 C 889.855469 528.6875 897.550781 527.636719 903.460938 531.105469 C 904.359375 531.628906 905.5 531.398438 906.097656 530.546875 C 911.25 523.203125 917.269531 518.328125 917.269531 518.328125 L 922.980469 484.042969 L 920.902344 484.074219 " fill-opacity="1" fill-rule="nonzero"/><path fill="#ffffff" d="M 950.945312 446.90625 C 952.09375 447.851562 952.757812 448.121094 953.6875 449.023438 C 955.582031 450.855469 957.234375 456.269531 960.417969 457.386719 C 960.757812 459.152344 959.347656 459.355469 958.808594 460.34375 C 959.207031 461.214844 959.859375 465.265625 960.554688 467.742188 C 960.796875 468.609375 960.355469 469.53125 959.519531 469.871094 C 958.113281 470.4375 956.527344 470.8125 954.753906 470.941406 C 954.753906 470.941406 945.671875 481.289062 954.914062 488.398438 C 954.914062 488.398438 946.25 495.535156 936.433594 485.136719 C 934.710938 483.3125 942.652344 467.238281 942.652344 467.238281 C 942.382812 467.136719 938.835938 465.777344 938.460938 462.84375 C 938.324219 461.765625 938.558594 460.050781 939.53125 459.6875 C 940.476562 459.332031 942.0625 460.285156 943.0625 462.3125 C 943.285156 461.832031 943.476562 461.210938 943.671875 460.496094 C 943.941406 459.519531 944.140625 458.398438 943.859375 457.835938 C 952.707031 455.4375 944.753906 446.839844 950.945312 446.90625 " fill-opacity="1" fill-rule="nonzero"/><path fill="#000000" d="M 939.96875 460.457031 C 939.914062 460.457031 939.867188 460.460938 939.828125 460.476562 C 939.484375 460.605469 939.164062 461.699219 939.300781 462.738281 C 939.613281 465.195312 942.808594 466.394531 942.945312 466.445312 C 943.167969 466.527344 943.347656 466.703125 943.4375 466.925781 C 943.527344 467.144531 943.515625 467.398438 943.410156 467.609375 C 939.875 474.769531 936.445312 483.300781 937.078125 484.597656 C 944.554688 492.511719 951.199219 489.730469 953.519531 488.335938 C 951.410156 486.433594 950.21875 484.183594 949.96875 481.628906 C 949.402344 475.828125 953.925781 470.601562 954.117188 470.382812 C 954.265625 470.214844 954.472656 470.113281 954.691406 470.097656 C 956.320312 469.980469 957.835938 469.640625 959.203125 469.085938 C 959.636719 468.910156 959.867188 468.429688 959.738281 467.96875 C 959.402344 466.769531 959.078125 465.207031 958.789062 463.832031 C 958.519531 462.535156 958.210938 461.066406 958.042969 460.695312 C 957.933594 460.453125 957.941406 460.171875 958.066406 459.941406 C 958.320312 459.476562 958.671875 459.167969 958.984375 458.894531 C 959.375 458.554688 959.601562 458.355469 959.625 457.96875 C 957.59375 456.976562 956.230469 454.605469 955.019531 452.496094 C 954.34375 451.324219 953.707031 450.214844 953.101562 449.628906 C 952.625 449.167969 952.21875 448.882812 951.746094 448.558594 C 951.425781 448.335938 951.070312 448.085938 950.652344 447.757812 C 950.085938 447.777344 949.695312 447.898438 949.488281 448.121094 C 949.082031 448.546875 949.144531 449.605469 949.207031 450.726562 C 949.347656 453.164062 949.558594 456.789062 944.835938 458.417969 C 944.863281 459.015625 944.746094 459.773438 944.488281 460.71875 C 944.3125 461.355469 944.097656 462.082031 943.832031 462.664062 C 943.695312 462.960938 943.402344 463.152344 943.078125 463.160156 C 942.746094 463.179688 942.453125 462.976562 942.304688 462.683594 C 941.53125 461.117188 940.46875 460.457031 939.96875 460.457031 Z M 947.632812 491.609375 C 944.269531 491.609375 940.128906 490.28125 935.820312 485.714844 C 935.066406 484.917969 934.820312 483.085938 938.117188 475.179688 C 939.417969 472.0625 940.84375 469.042969 941.511719 467.65625 C 940.222656 467.007812 937.949219 465.515625 937.621094 462.953125 C 937.453125 461.628906 937.742188 459.457031 939.230469 458.898438 C 940.34375 458.480469 941.722656 459.105469 942.820312 460.402344 C 942.832031 460.359375 942.847656 460.316406 942.859375 460.269531 C 943.304688 458.644531 943.105469 458.214844 943.105469 458.207031 C 942.992188 457.980469 942.988281 457.71875 943.089844 457.488281 C 943.195312 457.257812 943.394531 457.085938 943.640625 457.019531 C 947.8125 455.890625 947.671875 453.425781 947.519531 450.824219 C 947.433594 449.324219 947.351562 447.910156 948.265625 446.953125 C 948.851562 446.339844 949.738281 446.0625 950.957031 446.0625 C 951.148438 446.0625 951.335938 446.128906 951.484375 446.253906 C 951.957031 446.644531 952.339844 446.910156 952.710938 447.171875 C 953.222656 447.523438 953.699219 447.859375 954.277344 448.414062 C 955.054688 449.167969 955.75 450.375 956.484375 451.65625 C 957.648438 453.679688 958.972656 455.980469 960.699219 456.585938 C 960.984375 456.6875 961.191406 456.929688 961.25 457.222656 C 961.566406 458.878906 960.683594 459.652344 960.097656 460.167969 C 959.972656 460.277344 959.855469 460.378906 959.753906 460.484375 C 959.941406 461.097656 960.148438 462.066406 960.445312 463.488281 C 960.726562 464.835938 961.046875 466.367188 961.367188 467.515625 C 961.726562 468.804688 961.070312 470.152344 959.835938 470.652344 C 958.410156 471.230469 956.847656 471.601562 955.179688 471.753906 C 954.328125 472.820312 951.214844 477.070312 951.648438 481.472656 C 951.886719 483.875 953.160156 485.980469 955.429688 487.730469 C 955.632812 487.882812 955.753906 488.125 955.761719 488.386719 C 955.765625 488.644531 955.652344 488.886719 955.453125 489.050781 C 955.398438 489.097656 952.257812 491.609375 947.632812 491.609375 " fill-opacity="1" fill-rule="nonzero"/><path fill="#ffffff" d="M 947.464844 469.863281 C 947.464844 469.863281 950.488281 471.738281 954.464844 470.972656 L 947.464844 469.863281 " fill-opacity="1" fill-rule="nonzero"/><path fill="#000000" d="M 952.527344 472 C 949.355469 472 947.128906 470.652344 947.019531 470.582031 C 946.621094 470.335938 946.5 469.8125 946.746094 469.421875 C 946.992188 469.023438 947.511719 468.902344 947.90625 469.144531 C 947.957031 469.171875 950.738281 470.828125 954.304688 470.144531 C 954.765625 470.054688 955.207031 470.355469 955.296875 470.8125 C 955.382812 471.269531 955.082031 471.714844 954.625 471.800781 C 953.890625 471.941406 953.1875 472 952.527344 472 " fill-opacity="1" fill-rule="nonzero"/></svg>