<svg xmlns="http://www.w3.org/2000/svg" xmlns:xlink="http://www.w3.org/1999/xlink" width="1920" zoomAndPan="magnify" viewBox="0 0 1440 809.999993" height="1080" preserveAspectRatio="xMidYMid meet" version="1.0"><defs><clipPath id="f2072d4666"><path d="M 0 285 L 584 285 L 584 810 L 0 810 Z M 0 285 " clip-rule="nonzero"/></clipPath><clipPath id="3c1a1c6fe1"><path d="M 172.046875 184.628906 L 673.933594 767.933594 L 179.316406 1193.507812 L -322.566406 610.203125 Z M 172.046875 184.628906 " clip-rule="nonzero"/></clipPath><clipPath id="6463c7a5ce"><path d="M 172.046875 184.628906 L 673.933594 767.933594 L 179.316406 1193.507812 L -322.566406 610.203125 Z M 172.046875 184.628906 " clip-rule="nonzero"/></clipPath><clipPath id="563f991db9"><path d="M 1380.523438 610.050781 L 1440 610.050781 L 1440 729 L 1380.523438 729 Z M 1380.523438 610.050781 " clip-rule="nonzero"/></clipPath><clipPath id="1411015aac"><path d="M 1440 610.050781 C 1407.152344 610.050781 1380.523438 636.675781 1380.523438 669.523438 C 1380.523438 702.371094 1407.152344 729 1440 729 C 1472.847656 729 1499.476562 702.371094 1499.476562 669.523438 C 1499.476562 636.675781 1472.847656 610.050781 1440 610.050781 Z M 1440 610.050781 " clip-rule="nonzero"/></clipPath><clipPath id="0ad1124400"><path d="M 0.523438 0.0507812 L 60 0.0507812 L 60 119 L 0.523438 119 Z M 0.523438 0.0507812 " clip-rule="nonzero"/></clipPath><clipPath id="0507b94444"><path d="M 60 0.0507812 C 27.152344 0.0507812 0.523438 26.675781 0.523438 59.523438 C 0.523438 92.371094 27.152344 119 60 119 C 92.847656 119 119.476562 92.371094 119.476562 59.523438 C 119.476562 26.675781 92.847656 0.0507812 60 0.0507812 Z M 60 0.0507812 " clip-rule="nonzero"/></clipPath><clipPath id="cd8b7e4f69"><rect x="0" width="60" y="0" height="119"/></clipPath><clipPath id="ae440edae9"><path d="M 33.65625 39 L 54 39 L 54 54 L 33.65625 54 Z M 33.65625 39 " clip-rule="nonzero"/></clipPath><clipPath id="721ce9e8fe"><path d="M 48 36 L 64.40625 36 L 64.40625 51 L 48 51 Z M 48 36 " clip-rule="nonzero"/></clipPath><clipPath id="fbe66397cf"><path d="M 1226.6875 63.921875 L 1291.667969 63.921875 L 1291.667969 98.078125 L 1226.6875 98.078125 Z M 1226.6875 63.921875 " clip-rule="nonzero"/></clipPath><clipPath id="cf4f1ecef5"><path d="M 1236.148438 98.078125 C 1234.921875 98.078125 1233.695312 97.824219 1232.46875 97.3125 C 1227.660156 95.265625 1225.410156 89.742188 1227.457031 84.9375 C 1232.824219 72.152344 1245.25 63.921875 1259.109375 63.921875 C 1272.964844 63.921875 1285.390625 72.152344 1290.8125 84.9375 C 1292.855469 89.742188 1290.605469 95.316406 1285.800781 97.3125 C 1280.992188 99.355469 1275.417969 97.105469 1273.425781 92.300781 C 1270.972656 86.574219 1265.347656 82.839844 1259.109375 82.839844 C 1252.871094 82.839844 1247.296875 86.574219 1244.839844 92.300781 C 1243.359375 95.878906 1239.832031 98.078125 1236.148438 98.078125 Z M 1236.148438 98.078125 " clip-rule="nonzero"/></clipPath><clipPath id="222a94b378"><path d="M 0.6875 0.921875 L 65.667969 0.921875 L 65.667969 35.078125 L 0.6875 35.078125 Z M 0.6875 0.921875 " clip-rule="nonzero"/></clipPath><clipPath id="1d1ff115f0"><path d="M 10.148438 35.078125 C 8.921875 35.078125 7.695312 34.824219 6.46875 34.3125 C 1.660156 32.265625 -0.589844 26.742188 1.457031 21.9375 C 6.824219 9.152344 19.25 0.921875 33.109375 0.921875 C 46.964844 0.921875 59.390625 9.152344 64.8125 21.9375 C 66.855469 26.742188 64.605469 32.316406 59.800781 34.3125 C 54.992188 36.355469 49.417969 34.105469 47.425781 29.300781 C 44.972656 23.574219 39.347656 19.839844 33.109375 19.839844 C 26.871094 19.839844 21.296875 23.574219 18.839844 29.300781 C 17.359375 32.878906 13.832031 35.078125 10.148438 35.078125 Z M 10.148438 35.078125 " clip-rule="nonzero"/></clipPath><clipPath id="861147d6ed"><rect x="0" width="66" y="0" height="36"/></clipPath><clipPath id="dc082671ae"><path d="M 75.554688 173.710938 L 117.105469 173.710938 L 117.105469 195.550781 L 75.554688 195.550781 Z M 75.554688 173.710938 " clip-rule="nonzero"/></clipPath><clipPath id="378181d5b3"><path d="M 81.601562 195.550781 C 80.820312 195.550781 80.035156 195.386719 79.25 195.0625 C 76.175781 193.753906 74.738281 190.222656 76.042969 187.148438 C 79.476562 178.972656 87.421875 173.710938 96.285156 173.710938 C 105.144531 173.710938 113.09375 178.972656 116.558594 187.148438 C 117.867188 190.222656 116.425781 193.785156 113.351562 195.0625 C 110.28125 196.371094 106.714844 194.929688 105.441406 191.855469 C 103.871094 188.195312 100.273438 185.808594 96.285156 185.808594 C 92.296875 185.808594 88.730469 188.195312 87.164062 191.855469 C 86.214844 194.144531 83.957031 195.550781 81.601562 195.550781 Z M 81.601562 195.550781 " clip-rule="nonzero"/></clipPath><clipPath id="05ecf4e0c8"><path d="M 0.554688 0.710938 L 42.105469 0.710938 L 42.105469 22.550781 L 0.554688 22.550781 Z M 0.554688 0.710938 " clip-rule="nonzero"/></clipPath><clipPath id="9774465716"><path d="M 6.601562 22.550781 C 5.820312 22.550781 5.035156 22.386719 4.25 22.0625 C 1.175781 20.753906 -0.261719 17.222656 1.042969 14.148438 C 4.476562 5.972656 12.421875 0.710938 21.285156 0.710938 C 30.144531 0.710938 38.09375 5.972656 41.558594 14.148438 C 42.867188 17.222656 41.425781 20.785156 38.351562 22.0625 C 35.28125 23.371094 31.714844 21.929688 30.441406 18.855469 C 28.871094 15.195312 25.273438 12.808594 21.285156 12.808594 C 17.296875 12.808594 13.730469 15.195312 12.164062 18.855469 C 11.214844 21.144531 8.957031 22.550781 6.601562 22.550781 Z M 6.601562 22.550781 " clip-rule="nonzero"/></clipPath><clipPath id="f1ec09f262"><rect x="0" width="43" y="0" height="23"/></clipPath><clipPath id="97e887da2a"><path d="M 687.582031 647.683594 L 729.132812 647.683594 L 729.132812 669.523438 L 687.582031 669.523438 Z M 687.582031 647.683594 " clip-rule="nonzero"/></clipPath><clipPath id="4ea043d82d"><path d="M 693.628906 669.523438 C 692.847656 669.523438 692.0625 669.359375 691.277344 669.035156 C 688.203125 667.726562 686.765625 664.195312 688.070312 661.121094 C 691.503906 652.945312 699.449219 647.683594 708.3125 647.683594 C 717.171875 647.683594 725.117188 652.945312 728.585938 661.121094 C 729.894531 664.195312 728.453125 667.757812 725.378906 669.035156 C 722.308594 670.34375 718.742188 668.902344 717.46875 665.828125 C 715.898438 662.167969 712.300781 659.78125 708.3125 659.78125 C 704.324219 659.78125 700.757812 662.167969 699.1875 665.828125 C 698.242188 668.117188 695.984375 669.523438 693.628906 669.523438 Z M 693.628906 669.523438 " clip-rule="nonzero"/></clipPath><clipPath id="a2ff54257b"><path d="M 0.582031 0.683594 L 42.121094 0.683594 L 42.121094 22.523438 L 0.582031 22.523438 Z M 0.582031 0.683594 " clip-rule="nonzero"/></clipPath><clipPath id="6e4814dd6c"><path d="M 6.628906 22.523438 C 5.847656 22.523438 5.0625 22.359375 4.277344 22.035156 C 1.203125 20.726562 -0.234375 17.195312 1.070312 14.121094 C 4.503906 5.945312 12.449219 0.683594 21.3125 0.683594 C 30.171875 0.683594 38.117188 5.945312 41.585938 14.121094 C 42.894531 17.195312 41.453125 20.757812 38.378906 22.035156 C 35.308594 23.34375 31.742188 21.902344 30.46875 18.828125 C 28.898438 15.167969 25.300781 12.78125 21.3125 12.78125 C 17.324219 12.78125 13.757812 15.167969 12.1875 18.828125 C 11.242188 21.117188 8.984375 22.523438 6.628906 22.523438 Z M 6.628906 22.523438 " clip-rule="nonzero"/></clipPath><clipPath id="934f673a5a"><rect x="0" width="43" y="0" height="23"/></clipPath><clipPath id="f104b96aab"><path d="M 646.121094 117.710938 L 687.671875 117.710938 L 687.671875 139.550781 L 646.121094 139.550781 Z M 646.121094 117.710938 " clip-rule="nonzero"/></clipPath><clipPath id="707a6bbb82"><path d="M 652.167969 139.550781 C 651.382812 139.550781 650.597656 139.390625 649.816406 139.0625 C 646.742188 137.753906 645.300781 134.222656 646.609375 131.148438 C 650.042969 122.972656 657.988281 117.710938 666.851562 117.710938 C 675.710938 117.710938 683.65625 122.972656 687.125 131.148438 C 688.429688 134.222656 686.992188 137.785156 683.917969 139.0625 C 680.84375 140.371094 677.28125 138.929688 676.007812 135.859375 C 674.4375 132.195312 670.839844 129.808594 666.851562 129.808594 C 662.863281 129.808594 659.296875 132.195312 657.726562 135.859375 C 656.78125 138.144531 654.523438 139.550781 652.167969 139.550781 Z M 652.167969 139.550781 " clip-rule="nonzero"/></clipPath><clipPath id="971a8f4f57"><path d="M 0.121094 0.710938 L 41.601562 0.710938 L 41.601562 22.550781 L 0.121094 22.550781 Z M 0.121094 0.710938 " clip-rule="nonzero"/></clipPath><clipPath id="4facfe3a83"><path d="M 6.167969 22.550781 C 5.382812 22.550781 4.597656 22.390625 3.816406 22.0625 C 0.742188 20.753906 -0.699219 17.222656 0.609375 14.148438 C 4.042969 5.972656 11.988281 0.710938 20.851562 0.710938 C 29.710938 0.710938 37.65625 5.972656 41.125 14.148438 C 42.429688 17.222656 40.992188 20.785156 37.917969 22.0625 C 34.84375 23.371094 31.28125 21.929688 30.007812 18.859375 C 28.4375 15.195312 24.839844 12.808594 20.851562 12.808594 C 16.863281 12.808594 13.296875 15.195312 11.726562 18.859375 C 10.78125 21.144531 8.523438 22.550781 6.167969 22.550781 Z M 6.167969 22.550781 " clip-rule="nonzero"/></clipPath><clipPath id="7e01818d3c"><rect x="0" width="42" y="0" height="23"/></clipPath></defs><rect x="-144" width="1728" fill="#ffffff" y="-80.999999" height="971.999992" fill-opacity="1"/><rect x="-144" width="1728" fill="#ffffff" y="-80.999999" height="971.999992" fill-opacity="1"/><g clip-path="url(#f2072d4666)"><g clip-path="url(#3c1a1c6fe1)"><g clip-path="url(#6463c7a5ce)"><path fill="#ff8a15" d="M 86.519531 287.121094 C 44.09375 295.28125 13.816406 333.425781 -10.117188 369.804688 C -34.0625 406.179688 -58.859375 446.179688 -98.96875 463.035156 C -111.09375 468.132812 -124.378906 470.953125 -134.980469 478.832031 C -155.222656 493.867188 -159.28125 523.394531 -151.371094 546.347656 C -143.464844 569.296875 -126.3125 587.386719 -110.203125 605.351562 C -94.089844 623.316406 -78.089844 642.871094 -73.339844 666.789062 C -63.703125 715.324219 -102.664062 763.050781 -104.402344 812.980469 C -105.726562 850.902344 -84.90625 885.960938 -56.953125 910.554688 C -29 935.15625 5.652344 950.953125 39.789062 966.429688 C 90.363281 989.351562 141.351562 1012.417969 195.953125 1024.628906 C 246.726562 1035.984375 301.371094 1037.5 351.566406 1019.78125 C 401.761719 1002.066406 446.753906 963.097656 463.320312 912.859375 C 476.90625 871.644531 473.335938 821.675781 505.835938 792.125 C 524.929688 774.761719 553.054688 768.671875 569.359375 748.707031 C 606.597656 703.101562 561.628906 637.480469 527.980469 608.179688 C 487.71875 573.121094 435.355469 559.957031 381.980469 557.226562 C 347.453125 555.457031 309.003906 558.769531 281.839844 534.929688 C 241.359375 499.402344 236.726562 431.667969 217.484375 383.9375 C 196.753906 332.5 151 274.71875 86.519531 287.121094 " fill-opacity="1" fill-rule="nonzero"/></g></g></g><path fill="#f3f3f3" d="M 600.769531 593.785156 C 560.382812 705.683594 383.316406 789.292969 243.136719 721.363281 C 122.792969 663.042969 81.015625 517.921875 115.929688 422.535156 C 136.445312 366.492188 184.457031 324.808594 196.335938 314.496094 C 245.367188 271.925781 294.476562 255.882812 305.542969 252.433594 C 335.242188 243.164062 367.617188 238.308594 396.886719 237.476562 C 397.828125 237.449219 398.773438 237.425781 399.714844 237.40625 L 399.738281 237.40625 C 446.261719 236.492188 484.351562 245.859375 490.355469 263.925781 C 494.515625 276.457031 479.519531 281.960938 478.359375 301.851562 C 475.949219 343.167969 538.050781 363.917969 574.367188 407.59375 C 619.480469 461.859375 618.679688 544.160156 600.769531 593.785156 " fill-opacity="1" fill-rule="nonzero"/><path fill="#696052" d="M 131.375 706.214844 C 131.375 706.214844 129.363281 554.75 210.300781 509.242188 C 240.246094 492.410156 276.082031 490.125 310.992188 491.617188 C 335.550781 492.667969 358.644531 496.105469 380.773438 509.351562 C 412.207031 528.175781 439.902344 556.433594 456.574219 606.175781 L 471.707031 707.582031 L 131.375 706.214844 " fill-opacity="1" fill-rule="nonzero"/><path fill="#ffffff" d="M 524.902344 601.792969 L 399.539062 601.792969 C 395.394531 601.792969 392.847656 597.25 395.011719 593.714844 L 472.695312 466.601562 C 474.351562 463.890625 477.300781 462.238281 480.476562 462.238281 L 604.800781 462.238281 C 609.398438 462.238281 612.222656 467.273438 609.824219 471.203125 L 532.683594 597.425781 C 531.027344 600.140625 528.078125 601.792969 524.902344 601.792969 " fill-opacity="1" fill-rule="nonzero"/><path fill="#000000" d="M 480.476562 463.152344 C 477.636719 463.152344 474.957031 464.660156 473.476562 467.082031 L 395.792969 594.191406 C 394.957031 595.566406 394.925781 597.226562 395.710938 598.632812 C 396.5 600.035156 397.929688 600.875 399.539062 600.875 L 524.902344 600.875 C 527.738281 600.875 530.417969 599.371094 531.902344 596.949219 L 609.039062 470.722656 C 609.992188 469.164062 610.027344 467.285156 609.132812 465.691406 C 608.242188 464.105469 606.621094 463.152344 604.800781 463.152344 Z M 524.902344 602.714844 L 399.539062 602.714844 C 397.257812 602.714844 395.226562 601.523438 394.109375 599.53125 C 392.992188 597.539062 393.035156 595.183594 394.226562 593.234375 L 471.910156 466.121094 C 473.71875 463.15625 477.003906 461.316406 480.476562 461.316406 L 604.800781 461.316406 C 607.296875 461.316406 609.515625 462.617188 610.738281 464.792969 C 611.960938 466.972656 611.914062 469.546875 610.609375 471.683594 L 533.472656 597.90625 C 531.660156 600.871094 528.378906 602.714844 524.902344 602.714844 " fill-opacity="1" fill-rule="nonzero"/><path fill="#2b281c" d="M 554.398438 520.742188 L 466.328125 520.742188 L 471.464844 512.3125 L 559.539062 512.3125 L 554.398438 520.742188 " fill-opacity="1" fill-rule="nonzero"/><path fill="#2b281c" d="M 564.457031 504.246094 L 476.382812 504.246094 L 492.089844 478.476562 L 580.164062 478.476562 L 564.457031 504.246094 " fill-opacity="1" fill-rule="nonzero"/><path fill="#000000" d="M 515.558594 431.875 C 515.882812 430.535156 515.761719 429.445312 515.191406 428.59375 C 514.621094 427.746094 513.445312 426.945312 511.664062 426.1875 C 509.429688 425.332031 507.964844 424.316406 507.269531 423.144531 C 506.570312 421.96875 506.453125 420.453125 506.90625 418.589844 C 507.386719 416.625 508.3125 415.03125 509.691406 413.8125 C 511.070312 412.589844 512.710938 411.894531 514.609375 411.726562 L 515.335938 408.761719 C 515.429688 408.363281 515.789062 408.078125 516.203125 408.078125 L 516.230469 408.078125 C 516.453125 408.078125 516.660156 408.183594 516.800781 408.355469 C 516.9375 408.53125 516.988281 408.761719 516.933594 408.976562 L 516.261719 411.726562 C 518.117188 411.917969 519.398438 412.707031 520.101562 414.097656 C 520.71875 415.324219 520.839844 416.929688 520.460938 418.929688 C 520.371094 419.421875 519.9375 419.777344 519.4375 419.777344 L 519.421875 419.777344 C 519.167969 419.777344 518.921875 419.667969 518.753906 419.472656 C 518.585938 419.277344 518.511719 419.019531 518.550781 418.765625 C 518.765625 417.34375 518.625 416.179688 518.125 415.273438 C 517.519531 414.160156 516.453125 413.605469 514.929688 413.605469 C 513.394531 413.605469 512.089844 414.054688 511.007812 414.953125 C 509.933594 415.851562 509.210938 417.046875 508.847656 418.539062 C 508.492188 419.984375 508.609375 421.117188 509.199219 421.929688 C 509.792969 422.742188 510.949219 423.507812 512.667969 424.226562 C 514.390625 424.945312 515.601562 425.628906 516.296875 426.285156 C 517 426.941406 517.453125 427.71875 517.660156 428.613281 C 517.867188 429.511719 517.816406 430.585938 517.511719 431.835938 C 517.03125 433.808594 516.089844 435.402344 514.6875 436.609375 C 513.28125 437.820312 511.59375 438.507812 509.621094 438.679688 L 508.949219 441.433594 C 508.851562 441.828125 508.492188 442.109375 508.085938 442.109375 C 507.859375 442.109375 507.648438 442.003906 507.503906 441.824219 C 507.367188 441.648438 507.316406 441.414062 507.367188 441.195312 L 507.976562 438.695312 C 505.847656 438.539062 504.351562 437.777344 503.496094 436.414062 C 502.757812 435.234375 502.550781 433.683594 502.882812 431.757812 C 502.972656 431.210938 503.449219 430.808594 504.003906 430.808594 L 504.066406 430.808594 C 504.296875 430.808594 504.515625 430.90625 504.664062 431.082031 C 504.8125 431.253906 504.878906 431.488281 504.84375 431.710938 C 504.628906 433.164062 504.820312 434.335938 505.421875 435.222656 C 506.144531 436.285156 507.386719 436.820312 509.152344 436.820312 C 510.683594 436.820312 512.046875 436.359375 513.238281 435.445312 C 514.425781 434.53125 515.199219 433.34375 515.558594 431.875 " fill-opacity="1" fill-rule="nonzero"/><path fill="#000000" d="M 536.703125 431.875 C 537.03125 430.535156 536.910156 429.445312 536.335938 428.59375 C 535.765625 427.746094 534.589844 426.945312 532.808594 426.1875 C 530.574219 425.332031 529.109375 424.316406 528.414062 423.144531 C 527.714844 421.96875 527.59375 420.453125 528.050781 418.589844 C 528.527344 416.625 529.457031 415.03125 530.835938 413.8125 C 532.214844 412.589844 533.855469 411.894531 535.753906 411.726562 L 536.476562 408.761719 C 536.574219 408.363281 536.933594 408.078125 537.347656 408.078125 L 537.375 408.078125 C 537.597656 408.078125 537.808594 408.183594 537.945312 408.355469 C 538.082031 408.53125 538.132812 408.761719 538.078125 408.976562 L 537.40625 411.726562 C 539.261719 411.917969 540.542969 412.707031 541.246094 414.097656 C 541.863281 415.324219 541.984375 416.929688 541.605469 418.929688 C 541.515625 419.421875 541.085938 419.777344 540.585938 419.777344 L 540.566406 419.777344 C 540.3125 419.777344 540.066406 419.667969 539.898438 419.472656 C 539.734375 419.277344 539.660156 419.019531 539.695312 418.765625 C 539.910156 417.34375 539.769531 416.179688 539.273438 415.273438 C 538.664062 414.160156 537.597656 413.605469 536.074219 413.605469 C 534.542969 413.605469 533.234375 414.054688 532.15625 414.953125 C 531.078125 415.851562 530.355469 417.046875 529.992188 418.539062 C 529.640625 419.984375 529.757812 421.117188 530.347656 421.929688 C 530.9375 422.742188 532.09375 423.507812 533.8125 424.226562 C 535.535156 424.945312 536.746094 425.628906 537.445312 426.285156 C 538.144531 426.941406 538.597656 427.71875 538.804688 428.613281 C 539.011719 429.511719 538.964844 430.585938 538.65625 431.835938 C 538.175781 433.808594 537.234375 435.402344 535.832031 436.609375 C 534.429688 437.820312 532.742188 438.507812 530.765625 438.679688 L 530.089844 441.433594 C 529.996094 441.828125 529.640625 442.109375 529.234375 442.109375 C 529.003906 442.109375 528.789062 442.003906 528.648438 441.824219 C 528.507812 441.648438 528.460938 441.414062 528.511719 441.195312 L 529.125 438.695312 C 526.988281 438.539062 525.496094 437.777344 524.640625 436.414062 C 523.902344 435.234375 523.699219 433.683594 524.027344 431.757812 C 524.121094 431.210938 524.59375 430.808594 525.148438 430.808594 L 525.214844 430.808594 C 525.441406 430.808594 525.660156 430.90625 525.808594 431.082031 C 525.957031 431.253906 526.023438 431.488281 525.988281 431.710938 C 525.773438 433.164062 525.964844 434.335938 526.566406 435.222656 C 527.289062 436.285156 528.53125 436.820312 530.292969 436.820312 C 531.828125 436.820312 533.191406 436.359375 534.382812 435.445312 C 535.570312 434.53125 536.34375 433.34375 536.703125 431.875 " fill-opacity="1" fill-rule="nonzero"/><path fill="#000000" d="M 557.96875 431.875 C 558.296875 430.535156 558.171875 429.445312 557.601562 428.59375 C 557.03125 427.746094 555.851562 426.945312 554.074219 426.1875 C 551.839844 425.332031 550.375 424.316406 549.675781 423.144531 C 548.980469 421.96875 548.859375 420.453125 549.316406 418.589844 C 549.792969 416.625 550.722656 415.03125 552.101562 413.8125 C 553.480469 412.589844 555.117188 411.894531 557.019531 411.726562 L 557.742188 408.761719 C 557.839844 408.363281 558.199219 408.078125 558.613281 408.078125 L 558.640625 408.078125 C 558.863281 408.078125 559.070312 408.183594 559.210938 408.355469 C 559.347656 408.53125 559.394531 408.761719 559.34375 408.976562 L 558.671875 411.726562 C 560.527344 411.917969 561.804688 412.707031 562.507812 414.097656 C 563.132812 415.328125 563.25 416.949219 562.863281 418.957031 C 562.777344 419.433594 562.359375 419.777344 561.875 419.777344 L 561.800781 419.777344 C 561.550781 419.777344 561.3125 419.667969 561.152344 419.480469 C 560.988281 419.289062 560.917969 419.039062 560.957031 418.792969 C 561.175781 417.359375 561.035156 416.1875 560.539062 415.273438 C 559.929688 414.160156 558.863281 413.605469 557.339844 413.605469 C 555.804688 413.605469 554.5 414.054688 553.421875 414.953125 C 552.34375 415.851562 551.621094 417.046875 551.257812 418.539062 C 550.902344 419.984375 551.023438 421.117188 551.609375 421.929688 C 552.199219 422.742188 553.355469 423.507812 555.078125 424.226562 C 556.800781 424.945312 558.007812 425.628906 558.710938 426.285156 C 559.40625 426.941406 559.859375 427.71875 560.070312 428.613281 C 560.277344 429.511719 560.226562 430.585938 559.921875 431.835938 C 559.441406 433.808594 558.5 435.402344 557.09375 436.609375 C 555.695312 437.820312 554.003906 438.507812 552.027344 438.679688 L 551.355469 441.433594 C 551.257812 441.828125 550.90625 442.109375 550.496094 442.109375 C 550.269531 442.109375 550.054688 442.003906 549.917969 441.824219 C 549.773438 441.648438 549.722656 441.414062 549.777344 441.195312 L 550.390625 438.695312 C 548.253906 438.539062 546.757812 437.777344 545.90625 436.414062 C 545.167969 435.234375 544.964844 433.683594 545.292969 431.757812 C 545.386719 431.210938 545.859375 430.808594 546.414062 430.808594 L 546.476562 430.808594 C 546.707031 430.808594 546.921875 430.90625 547.074219 431.082031 C 547.222656 431.253906 547.289062 431.488281 547.253906 431.710938 C 547.035156 433.164062 547.226562 434.335938 547.832031 435.222656 C 548.554688 436.285156 549.796875 436.820312 551.558594 436.820312 C 553.09375 436.820312 554.453125 436.359375 555.648438 435.445312 C 556.835938 434.53125 557.609375 433.34375 557.96875 431.875 " fill-opacity="1" fill-rule="nonzero"/><path fill="#000000" d="M 493.246094 705.96875 L 373.417969 705.96875 L 462.25 569.269531 C 465.027344 565 469.863281 562.410156 475.0625 562.410156 L 572.308594 562.410156 C 578.484375 562.410156 582.234375 569.023438 578.941406 574.097656 L 493.246094 705.96875 " fill-opacity="1" fill-rule="nonzero"/><path fill="#f3f3f3" d="M 518.808594 610.34375 C 514.914062 616.335938 506.539062 621.191406 500.105469 621.191406 C 493.667969 621.191406 491.609375 616.335938 495.5 610.34375 C 499.394531 604.351562 507.769531 599.496094 514.207031 599.496094 C 520.640625 599.496094 522.703125 604.351562 518.808594 610.34375 " fill-opacity="1" fill-rule="nonzero"/><path fill="#000000" d="M 482.316406 717.382812 L 280.777344 717.382812 C 274.503906 717.382812 269.414062 712.296875 269.414062 706.019531 L 269.414062 704.992188 L 493.679688 704.992188 L 493.679688 706.019531 C 493.679688 712.296875 488.589844 717.382812 482.316406 717.382812 " fill-opacity="1" fill-rule="nonzero"/><path fill="#ffffff" d="M 487.011719 707.011719 L 384.109375 707.011719 C 383.601562 707.011719 383.1875 706.601562 383.1875 706.09375 C 383.1875 705.585938 383.601562 705.175781 384.109375 705.175781 L 487.011719 705.175781 C 487.523438 705.175781 487.933594 705.585938 487.933594 706.09375 C 487.933594 706.601562 487.523438 707.011719 487.011719 707.011719 " fill-opacity="1" fill-rule="nonzero"/><path fill="#696052" d="M 254.5625 569.894531 C 180.242188 631.441406 178.621094 632.15625 198.503906 667.902344 C 211.585938 691.4375 249.242188 727.003906 282.089844 715.960938 C 302.382812 709.140625 313.117188 677.308594 328.136719 576.597656 C 334.296875 535.253906 305.519531 535.460938 301.539062 532.453125 C 294.628906 527.230469 303.332031 529.507812 254.5625 569.894531 " fill-opacity="1" fill-rule="nonzero"/><path fill="#ffffff" d="M 242.546875 611.261719 C 242.472656 611.261719 242.398438 611.246094 242.324219 611.230469 C 241.828125 611.105469 241.53125 610.605469 241.65625 610.113281 C 249.832031 577.539062 279.1875 543.679688 279.484375 543.34375 C 279.820312 542.960938 280.398438 542.921875 280.78125 543.253906 C 281.164062 543.589844 281.203125 544.171875 280.867188 544.550781 C 280.578125 544.886719 251.507812 578.421875 243.4375 610.5625 C 243.332031 610.980469 242.957031 611.261719 242.546875 611.261719 " fill-opacity="1" fill-rule="nonzero"/><path fill="#ffffff" d="M 301.84375 699.25 C 301.628906 699.25 301.414062 699.171875 301.242188 699.027344 C 300.855469 698.695312 300.8125 698.113281 301.144531 697.726562 C 331.792969 662.097656 327.324219 564.660156 327.273438 563.679688 C 327.25 563.171875 327.640625 562.742188 328.144531 562.71875 C 328.644531 562.6875 329.085938 563.082031 329.109375 563.589844 C 329.121094 563.835938 330.308594 588.582031 327.652344 617.445312 C 324.074219 656.300781 315.625 683.714844 302.539062 698.929688 C 302.355469 699.140625 302.101562 699.25 301.84375 699.25 " fill-opacity="1" fill-rule="nonzero"/><path fill="#ffffff" d="M 244.289062 605.265625 C 243.984375 605.265625 243.6875 605.113281 243.511719 604.839844 C 235.375 591.96875 239.128906 582.550781 239.292969 582.15625 C 239.488281 581.6875 240.027344 581.464844 240.496094 581.660156 C 240.964844 581.855469 241.1875 582.390625 240.992188 582.863281 C 240.957031 582.949219 237.46875 591.839844 245.066406 603.855469 C 245.335938 604.285156 245.210938 604.855469 244.777344 605.125 C 244.628906 605.21875 244.457031 605.265625 244.289062 605.265625 " fill-opacity="1" fill-rule="nonzero"/><path fill="#ffffff" d="M 228.988281 702.996094 C 228.78125 702.996094 228.574219 702.925781 228.402344 702.785156 C 192.621094 672.996094 188.421875 649.863281 188.261719 648.894531 C 188.179688 648.394531 188.515625 647.921875 189.019531 647.835938 C 189.519531 647.75 189.992188 648.089844 190.074219 648.589844 C 190.113281 648.824219 194.394531 672.078125 229.578125 701.367188 C 229.964844 701.695312 230.019531 702.273438 229.695312 702.664062 C 229.515625 702.882812 229.253906 702.996094 228.988281 702.996094 " fill-opacity="1" fill-rule="nonzero"/><path fill="#ffffff" d="M 302.71875 423.769531 L 284.320312 483.515625 C 284.320312 483.515625 239.539062 490.738281 218.648438 506.417969 C 218.648438 506.417969 253.679688 492.710938 274.949219 507.40625 C 296.222656 522.097656 348.636719 527.828125 379.261719 508.777344 C 379.261719 508.777344 337.878906 490.378906 337.554688 489.21875 C 337.015625 487.28125 339.246094 481.816406 339.246094 481.816406 C 339.246094 481.816406 344.207031 484.875 350.859375 486.636719 C 355.832031 487.957031 359.867188 484.375 362.066406 479.703125 C 367.078125 469.046875 370.390625 454.949219 370.390625 454.949219 L 378.226562 452.996094 C 377.261719 441.367188 374.527344 435.707031 376.664062 425.035156 C 378.414062 416.269531 385.039062 414.667969 385.039062 393.886719 L 328.117188 373.039062 L 302.730469 399.40625 C 302.730469 399.40625 300.175781 394.625 293.792969 396.667969 C 287.414062 398.714844 286.382812 426.660156 293.328125 427.953125 C 298.105469 428.84375 302.71875 423.769531 302.71875 423.769531 " fill-opacity="1" fill-rule="nonzero"/><path fill="#000000" d="M 249.65625 499.636719 C 258.515625 499.636719 267.8125 501.355469 275.472656 506.644531 C 295.277344 520.324219 346.179688 527.019531 377.277344 508.894531 C 373.960938 507.417969 366.027344 503.867188 358.148438 500.269531 C 336.988281 490.601562 336.839844 490.074219 336.667969 489.464844 C 336.078125 487.335938 338.003906 482.429688 338.394531 481.46875 C 338.496094 481.21875 338.703125 481.027344 338.960938 480.941406 C 339.214844 480.859375 339.5 480.894531 339.730469 481.035156 C 339.777344 481.0625 344.660156 484.046875 351.089844 485.75 C 356.960938 487.304688 360.339844 481.214844 361.234375 479.3125 C 366.144531 468.871094 369.460938 454.878906 369.496094 454.738281 C 369.574219 454.402344 369.832031 454.140625 370.167969 454.054688 L 377.242188 452.292969 C 376.933594 448.910156 376.484375 446.082031 376.050781 443.339844 C 375.101562 437.378906 374.285156 432.226562 375.757812 424.855469 C 376.382812 421.742188 377.59375 419.492188 378.875 417.109375 C 381.292969 412.617188 384.027344 407.539062 384.113281 394.527344 L 328.363281 374.109375 L 303.394531 400.042969 C 303.191406 400.253906 302.898438 400.355469 302.605469 400.316406 C 302.316406 400.277344 302.058594 400.101562 301.921875 399.84375 C 301.832031 399.675781 299.609375 395.769531 294.074219 397.542969 C 291.191406 398.46875 288.996094 407.757812 289.554688 416.65625 C 289.929688 422.59375 291.476562 426.671875 293.5 427.050781 C 297.707031 427.832031 301.996094 423.195312 302.039062 423.148438 C 302.324219 422.832031 302.796875 422.757812 303.175781 422.972656 C 303.546875 423.179688 303.722656 423.625 303.597656 424.039062 L 285.199219 483.785156 C 285.097656 484.121094 284.8125 484.367188 284.464844 484.421875 C 284.058594 484.488281 246.949219 490.59375 224.945312 503.378906 C 230.839844 501.6875 239.984375 499.636719 249.65625 499.636719 Z M 329.792969 521.804688 C 327.738281 521.804688 325.65625 521.757812 323.558594 521.660156 C 304.03125 520.777344 285.203125 515.605469 274.429688 508.160156 C 253.796875 493.910156 219.328125 507.136719 218.980469 507.273438 C 218.554688 507.441406 218.066406 507.265625 217.84375 506.863281 C 217.621094 506.460938 217.726562 505.957031 218.09375 505.679688 C 237.652344 491.003906 278.328125 483.613281 283.605469 482.703125 L 300.890625 426.570312 C 298.960938 427.964844 296.125 429.40625 293.164062 428.855469 C 288.886719 428.0625 287.933594 420.140625 287.71875 416.769531 C 287.242188 409.214844 288.753906 397.316406 293.511719 395.792969 C 298.605469 394.160156 301.566406 396.535156 302.824219 397.984375 L 327.453125 372.40625 C 327.707031 372.140625 328.089844 372.050781 328.429688 372.175781 L 385.351562 393.023438 C 385.714844 393.15625 385.957031 393.503906 385.957031 393.886719 C 385.957031 407.835938 382.929688 413.460938 380.496094 417.980469 C 379.226562 420.335938 378.132812 422.371094 377.5625 425.214844 C 376.15625 432.265625 376.910156 437.027344 377.867188 443.054688 C 378.316406 445.894531 378.828125 449.117188 379.144531 452.921875 C 379.179688 453.371094 378.890625 453.78125 378.449219 453.890625 L 371.152344 455.707031 C 370.480469 458.421875 367.335938 470.660156 362.898438 480.09375 C 360.144531 485.953125 355.433594 488.800781 350.621094 487.523438 C 345.550781 486.179688 341.484375 484.128906 339.71875 483.148438 C 338.992188 485.121094 338.277344 487.636719 338.402344 488.75 C 340.890625 490.480469 364.191406 501.070312 379.632812 507.9375 C 379.945312 508.074219 380.152344 508.371094 380.179688 508.714844 C 380.199219 509.054688 380.035156 509.378906 379.746094 509.554688 C 366.933594 517.527344 349.375 521.804688 329.792969 521.804688 " fill-opacity="1" fill-rule="nonzero"/><path fill="#000000" d="M 302.382812 400.269531 C 302.382812 400.269531 307.027344 401.507812 306.871094 409.171875 C 306.710938 416.832031 306.378906 428.527344 314.144531 433.28125 C 321.910156 438.039062 326.664062 417.113281 326.664062 410.925781 C 326.664062 404.738281 332.835938 387.945312 344.808594 389.445312 C 358.015625 391.097656 364.792969 400.484375 385.039062 398.53125 C 388.085938 398.234375 399.222656 397.164062 402.425781 390.027344 C 404.679688 385.007812 401.960938 379.308594 400.789062 376.933594 C 398.90625 373.113281 392.871094 363.324219 363.164062 354.34375 C 342.050781 347.960938 331.492188 344.769531 322.863281 348.753906 C 308.316406 355.472656 300.480469 376.289062 302.382812 400.269531 " fill-opacity="1" fill-rule="nonzero"/><path fill="#ffffff" d="M 339.246094 481.816406 L 324.140625 472.648438 C 321.082031 470.796875 318.847656 467.851562 317.875 464.40625 L 315.105469 454.542969 L 339.246094 481.816406 " fill-opacity="1" fill-rule="nonzero"/><path fill="#000000" d="M 339.246094 482.734375 C 339.082031 482.734375 338.917969 482.695312 338.769531 482.601562 L 323.664062 473.4375 C 320.394531 471.453125 318.027344 468.335938 316.992188 464.65625 L 314.21875 454.789062 C 314.082031 454.300781 314.367188 453.796875 314.855469 453.65625 C 315.34375 453.519531 315.851562 453.804688 315.988281 454.292969 L 318.761719 464.160156 C 319.667969 467.390625 321.746094 470.125 324.617188 471.867188 L 339.722656 481.03125 C 340.15625 481.292969 340.296875 481.859375 340.03125 482.292969 C 339.859375 482.582031 339.554688 482.734375 339.246094 482.734375 " fill-opacity="1" fill-rule="nonzero"/><path fill="#ffffff" d="M 322.074219 484.808594 C 323.382812 480.519531 320.90625 476.90625 318.085938 473.3125 L 308.417969 456.171875 C 304.945312 451.753906 304.253906 445.5625 306.667969 440.460938 C 306.667969 440.460938 314.8125 417.855469 320.070312 410.921875 C 321.042969 409.636719 322.082031 408.667969 323.363281 409.171875 C 324.691406 409.691406 325.367188 412.113281 325.0625 414.746094 C 324.582031 418.917969 315.105469 440.164062 315.105469 440.164062 C 315.105469 440.164062 324.460938 422.550781 326.875 418.191406 C 328.480469 415.296875 329.902344 414.707031 330.425781 414.9375 C 333.234375 416.160156 330.425781 424.691406 329.359375 427.800781 C 328.238281 431.0625 325.726562 439.628906 324.609375 443.480469 C 324.472656 443.941406 333.234375 424.105469 334.878906 424.53125 C 337.363281 425.183594 333.007812 440.660156 331.070312 446.960938 C 329.039062 453.589844 339.136719 469.910156 342.191406 476.742188 C 345.242188 483.574219 339.0625 499.871094 339.0625 499.871094 L 327.277344 560.277344 L 284.671875 540.742188 C 284.671875 540.742188 320.535156 489.871094 322.074219 484.808594 " fill-opacity="1" fill-rule="nonzero"/><path fill="#000000" d="M 286.058594 540.371094 L 326.597656 558.957031 L 338.160156 499.699219 C 338.167969 499.644531 338.183594 499.59375 338.203125 499.546875 C 338.265625 499.386719 344.214844 483.523438 341.351562 477.117188 C 340.660156 475.566406 339.601562 473.53125 338.378906 471.171875 C 334.214844 463.144531 328.515625 452.152344 330.195312 446.691406 C 333.683594 435.328125 335.03125 427.835938 334.671875 425.792969 C 333.742188 426.945312 331.492188 430.761719 326.074219 442.523438 C 325.242188 444.324219 325.09375 444.648438 324.285156 444.347656 C 323.832031 444.179688 323.589844 443.683594 323.722656 443.222656 C 324.777344 439.597656 327.351562 430.820312 328.488281 427.503906 C 331.800781 417.847656 330.585938 416.121094 330.132812 415.824219 C 329.808594 415.90625 328.851562 416.523438 327.679688 418.632812 C 325.296875 422.941406 316.007812 440.417969 315.917969 440.59375 C 315.683594 441.03125 315.144531 441.207031 314.703125 440.988281 C 314.253906 440.773438 314.0625 440.242188 314.265625 439.789062 C 316.882812 433.914062 323.769531 417.945312 324.152344 414.640625 C 324.425781 412.25 323.792969 410.328125 323.027344 410.027344 C 322.574219 409.851562 321.996094 409.902344 320.800781 411.476562 C 315.6875 418.21875 307.613281 440.550781 307.53125 440.773438 C 307.523438 440.800781 307.511719 440.828125 307.5 440.859375 C 305.226562 445.65625 305.871094 451.445312 309.140625 455.601562 C 309.167969 455.640625 309.195312 455.679688 309.21875 455.71875 L 318.851562 472.804688 C 321.835938 476.605469 324.382812 480.410156 322.957031 485.078125 C 321.484375 489.902344 291.035156 533.292969 286.058594 540.371094 Z M 327.277344 561.195312 C 327.148438 561.195312 327.015625 561.167969 326.894531 561.113281 L 284.289062 541.582031 C 284.039062 541.46875 283.855469 541.246094 283.785156 540.984375 C 283.710938 540.71875 283.761719 540.4375 283.917969 540.214844 C 293.871094 526.097656 319.964844 488.578125 321.195312 484.542969 C 322.371094 480.691406 320.15625 477.433594 317.363281 473.882812 C 317.332031 473.84375 317.304688 473.804688 317.285156 473.765625 L 307.652344 456.683594 C 304.003906 451.996094 303.28125 445.503906 305.816406 440.109375 C 306.324219 438.710938 314.117188 417.25 319.339844 410.363281 C 319.992188 409.496094 321.53125 407.464844 323.703125 408.316406 C 325.40625 408.980469 326.34375 411.671875 325.976562 414.851562 C 325.828125 416.15625 324.863281 418.992188 323.589844 422.316406 C 324.644531 420.359375 325.53125 418.714844 326.074219 417.742188 C 327.949219 414.355469 329.742188 413.636719 330.792969 414.09375 C 333.304688 415.191406 333.128906 419.640625 330.226562 428.101562 C 329.882812 429.109375 329.398438 430.640625 328.863281 432.375 C 333.433594 423.203125 334.253906 423.421875 335.109375 423.644531 C 335.40625 423.722656 335.824219 423.925781 336.128906 424.464844 C 337.707031 427.296875 334.1875 439.945312 331.949219 447.230469 C 330.496094 451.976562 336.222656 463.015625 340.011719 470.324219 C 341.25 472.710938 342.316406 474.769531 343.03125 476.367188 C 346.128906 483.292969 340.460938 498.757812 339.953125 500.125 L 328.179688 560.453125 C 328.125 560.730469 327.949219 560.964844 327.699219 561.097656 C 327.5625 561.164062 327.421875 561.195312 327.277344 561.195312 " fill-opacity="1" fill-rule="nonzero"/><path fill="#000000" d="M 192.484375 745.949219 C 192.40625 745.949219 192.324219 745.941406 192.242188 745.917969 C 186.328125 744.304688 183.417969 740.429688 182.019531 737.464844 C 180.316406 733.855469 179.988281 729.621094 181.203125 726.921875 C 187.507812 712.902344 214.464844 717.597656 255.269531 724.707031 C 284.457031 729.789062 320.78125 736.113281 360.792969 737.433594 C 406.992188 738.953125 455.136719 740.246094 494.230469 739.421875 C 552.777344 738.1875 566.167969 732.539062 567.085938 728.019531 C 567.757812 724.726562 565.679688 721.460938 561.246094 718.824219 C 534.875 703.128906 490.234375 710.316406 476.675781 714.070312 C 476.191406 714.203125 475.683594 713.917969 475.546875 713.429688 C 475.410156 712.9375 475.699219 712.433594 476.1875 712.296875 C 490.933594 708.214844 535.128906 701.140625 562.1875 717.242188 C 567.34375 720.316406 569.722656 724.269531 568.886719 728.386719 C 565.910156 743.011719 483.523438 743.3125 360.730469 739.269531 C 320.589844 737.949219 284.199219 731.609375 254.953125 726.515625 C 216.433594 719.808594 188.597656 714.960938 182.878906 727.675781 C 182.070312 729.476562 181.976562 733.0625 183.683594 736.679688 C 184.917969 739.292969 187.488281 742.714844 192.726562 744.144531 C 193.214844 744.277344 193.503906 744.785156 193.371094 745.273438 C 193.261719 745.679688 192.890625 745.949219 192.484375 745.949219 " fill-opacity="1" fill-rule="nonzero"/><path fill="#000000" d="M 234.117188 319.636719 C 233.835938 319.636719 233.554688 319.507812 233.375 319.261719 C 233.074219 318.855469 233.160156 318.277344 233.570312 317.980469 L 233.9375 317.707031 C 247.058594 308.046875 277.777344 285.421875 321.3125 275.441406 C 321.808594 275.328125 322.304688 275.640625 322.414062 276.132812 C 322.527344 276.628906 322.21875 277.121094 321.726562 277.234375 C 278.558594 287.128906 248.054688 309.597656 235.027344 319.1875 L 234.660156 319.460938 C 234.496094 319.578125 234.304688 319.636719 234.117188 319.636719 " fill-opacity="1" fill-rule="nonzero"/><path fill="#000000" d="M 250.15625 296.464844 C 249.839844 296.464844 249.535156 296.304688 249.363281 296.011719 C 249.105469 295.574219 249.253906 295.011719 249.691406 294.753906 C 250.601562 294.21875 251.277344 292.933594 251.992188 291.574219 C 252.871094 289.902344 253.777344 288.175781 255.378906 287.296875 C 256.824219 286.503906 258.660156 286.652344 260.4375 286.796875 C 262.003906 286.921875 263.625 287.054688 264.722656 286.492188 C 265.691406 285.992188 266.449219 284.726562 267.25 283.386719 C 268.207031 281.785156 269.195312 280.132812 270.808594 279.359375 C 272.3125 278.632812 274.15625 278.882812 275.933594 279.125 C 277.480469 279.332031 279.074219 279.550781 280.179688 279.054688 C 281.191406 278.601562 282.019531 277.371094 282.898438 276.066406 C 283.933594 274.53125 285.003906 272.941406 286.636719 272.261719 C 288.195312 271.613281 290.027344 271.960938 291.800781 272.300781 C 293.324219 272.589844 294.898438 272.894531 296.011719 272.464844 C 297.058594 272.058594 297.957031 270.871094 298.90625 269.613281 C 300.023438 268.136719 301.175781 266.613281 302.835938 266.027344 C 304.429688 265.460938 306.246094 265.914062 308.003906 266.351562 C 309.503906 266.722656 311.050781 267.109375 312.179688 266.746094 C 313.253906 266.398438 314.222656 265.257812 315.242188 264.050781 C 316.433594 262.644531 317.667969 261.191406 319.351562 260.699219 C 320.984375 260.222656 322.773438 260.777344 324.511719 261.316406 C 325.980469 261.769531 327.503906 262.242188 328.644531 261.945312 C 329.742188 261.660156 330.773438 260.578125 331.863281 259.429688 C 333.136719 258.097656 334.449219 256.714844 336.15625 256.324219 C 337.820312 255.941406 339.578125 256.605469 341.28125 257.242188 C 342.722656 257.78125 344.210938 258.34375 345.367188 258.113281 C 345.863281 258.015625 346.347656 258.339844 346.445312 258.839844 C 346.542969 259.335938 346.21875 259.820312 345.722656 259.917969 C 344.054688 260.246094 342.3125 259.59375 340.632812 258.964844 C 339.121094 258.394531 337.691406 257.859375 336.566406 258.117188 C 335.398438 258.382812 334.277344 259.5625 333.195312 260.699219 C 331.976562 261.980469 330.710938 263.308594 329.109375 263.726562 C 327.460938 264.15625 325.683594 263.605469 323.964844 263.070312 C 322.425781 262.59375 320.96875 262.144531 319.867188 262.464844 C 318.710938 262.796875 317.660156 264.042969 316.644531 265.242188 C 315.503906 266.59375 314.316406 267.988281 312.746094 268.492188 C 311.117188 269.019531 309.308594 268.570312 307.558594 268.136719 C 305.996094 267.746094 304.523438 267.378906 303.445312 267.761719 C 302.308594 268.164062 301.324219 269.464844 300.375 270.722656 C 299.308594 272.132812 298.210938 273.589844 296.671875 274.179688 C 295.066406 274.796875 293.234375 274.445312 291.453125 274.105469 C 289.878906 273.804688 288.390625 273.523438 287.34375 273.957031 C 286.222656 274.425781 285.308594 275.785156 284.421875 277.09375 C 283.441406 278.554688 282.425781 280.0625 280.929688 280.734375 C 279.347656 281.441406 277.488281 281.191406 275.6875 280.949219 C 274.105469 280.730469 272.613281 280.527344 271.605469 281.015625 C 270.492188 281.550781 269.644531 282.964844 268.828125 284.332031 C 267.929688 285.835938 267 287.386719 265.5625 288.125 C 264 288.933594 262.113281 288.78125 260.289062 288.628906 C 258.710938 288.5 257.226562 288.382812 256.265625 288.90625 C 255.148438 289.523438 254.371094 291 253.621094 292.429688 C 252.816406 293.957031 251.984375 295.539062 250.621094 296.339844 C 250.472656 296.425781 250.3125 296.464844 250.15625 296.464844 " fill-opacity="1" fill-rule="nonzero"/><path fill="#000000" d="M 145.25 553.316406 C 144.914062 553.316406 144.589844 553.128906 144.429688 552.808594 C 130.609375 525.332031 123.601562 495.875 123.601562 465.261719 C 123.601562 459.960938 123.820312 454.609375 124.25 449.351562 C 124.289062 448.84375 124.734375 448.46875 125.242188 448.507812 C 125.746094 448.550781 126.125 448.996094 126.082031 449.5 C 125.65625 454.710938 125.441406 460.011719 125.441406 465.261719 C 125.441406 495.585938 132.382812 524.761719 146.070312 551.984375 C 146.300781 552.4375 146.117188 552.988281 145.664062 553.21875 C 145.53125 553.285156 145.390625 553.316406 145.25 553.316406 " fill-opacity="1" fill-rule="nonzero"/><path fill="#000000" d="M 141.90625 525.496094 C 141.515625 525.496094 141.15625 525.246094 141.03125 524.851562 C 135.324219 506.761719 132.429688 487.933594 132.429688 468.886719 C 132.429688 463.804688 132.640625 458.675781 133.050781 453.636719 C 133.09375 453.132812 133.539062 452.753906 134.042969 452.792969 C 134.550781 452.835938 134.925781 453.277344 134.882812 453.785156 C 134.476562 458.777344 134.269531 463.855469 134.269531 468.886719 C 134.269531 487.742188 137.136719 506.386719 142.785156 524.300781 C 142.9375 524.78125 142.667969 525.300781 142.183594 525.453125 C 142.09375 525.480469 142 525.496094 141.90625 525.496094 " fill-opacity="1" fill-rule="nonzero"/><path fill="#000000" d="M 149.4375 463.851562 L 149.441406 463.851562 Z M 145.242188 459.847656 C 144.550781 459.847656 143.878906 460.066406 143.308594 460.480469 C 142.585938 460.996094 142.113281 461.765625 141.972656 462.640625 C 141.679688 464.449219 142.910156 466.164062 144.71875 466.457031 C 145.59375 466.59375 146.472656 466.386719 147.191406 465.867188 C 147.914062 465.347656 148.386719 464.582031 148.527344 463.703125 C 148.820312 461.894531 147.585938 460.183594 145.78125 459.890625 C 145.601562 459.867188 145.421875 459.847656 145.242188 459.847656 Z M 145.261719 468.335938 C 144.984375 468.335938 144.703125 468.3125 144.425781 468.269531 C 141.617188 467.816406 139.703125 465.160156 140.15625 462.347656 C 140.375 460.988281 141.113281 459.792969 142.230469 458.988281 C 143.347656 458.179688 144.714844 457.859375 146.074219 458.078125 C 148.882812 458.53125 150.796875 461.1875 150.34375 464 C 150.125 465.359375 149.386719 466.550781 148.269531 467.359375 C 147.378906 468.003906 146.335938 468.335938 145.261719 468.335938 " fill-opacity="1" fill-rule="nonzero"/><path fill="#ffffff" d="M 177.480469 350.179688 C 215.335938 348.285156 247.472656 366.15625 248.175781 390.140625 C 248.433594 398.945312 247.765625 403.058594 239.058594 413.832031 L 250.660156 444.875 L 220.332031 428.554688 C 209.304688 433.679688 193.007812 436.417969 181.789062 436.980469 C 143.9375 438.878906 112.285156 420.988281 111.09375 397.019531 C 109.90625 373.050781 139.628906 352.082031 177.480469 350.179688 " fill-opacity="1" fill-rule="nonzero"/><path fill="#000000" d="M 148.234375 352.878906 C 147.875 352.878906 147.53125 352.667969 147.382812 352.3125 C 147.1875 351.847656 147.40625 351.308594 147.875 351.109375 C 148.761719 350.738281 149.675781 350.371094 150.589844 350.015625 C 151.066406 349.835938 151.597656 350.074219 151.777344 350.546875 C 151.960938 351.023438 151.722656 351.554688 151.25 351.734375 C 150.351562 352.082031 149.457031 352.4375 148.589844 352.804688 C 148.472656 352.855469 148.351562 352.878906 148.234375 352.878906 " fill-opacity="1" fill-rule="nonzero"/><path fill="#000000" d="M 180.816406 432.363281 C 164.394531 432.363281 148.933594 428.6875 136.796875 421.824219 C 123.160156 414.117188 115.324219 403.308594 114.734375 391.390625 C 114.039062 377.414062 123.386719 364.050781 140.378906 354.726562 C 140.824219 354.480469 141.382812 354.644531 141.625 355.089844 C 141.871094 355.535156 141.707031 356.09375 141.261719 356.339844 C 124.914062 365.308594 115.914062 378.050781 116.570312 391.296875 C 117.128906 402.566406 124.632812 412.835938 137.703125 420.226562 C 150.90625 427.6875 168.164062 431.292969 186.300781 430.386719 C 189.09375 430.246094 191.898438 429.996094 194.644531 429.644531 C 195.148438 429.582031 195.609375 429.933594 195.671875 430.4375 C 195.738281 430.945312 195.382812 431.402344 194.878906 431.46875 C 192.085938 431.828125 189.230469 432.082031 186.390625 432.222656 C 184.523438 432.316406 182.664062 432.363281 180.816406 432.363281 " fill-opacity="1" fill-rule="nonzero"/><path fill="#000000" d="M 255.195312 439.785156 C 255.046875 439.785156 254.898438 439.75 254.761719 439.671875 L 224.800781 423.554688 C 221.5 424.761719 211.667969 427.941406 208.789062 428.71875 C 208.300781 428.851562 207.792969 428.5625 207.660156 428.074219 C 207.527344 427.582031 207.816406 427.078125 208.308594 426.945312 C 211.28125 426.140625 221.753906 422.75 224.542969 421.6875 C 224.792969 421.59375 225.070312 421.613281 225.304688 421.738281 L 253.414062 436.863281 L 242.265625 408.703125 C 242.136719 408.382812 242.199219 408.015625 242.433594 407.753906 C 250.042969 399.1875 252.328125 394.863281 251.816406 384.511719 C 251.257812 373.246094 243.75 362.972656 230.683594 355.589844 C 217.480469 348.121094 200.21875 344.519531 182.085938 345.425781 C 177.808594 345.640625 173.542969 346.105469 169.402344 346.816406 C 168.902344 346.902344 168.425781 346.5625 168.339844 346.0625 C 168.253906 345.5625 168.589844 345.085938 169.089844 345.003906 C 173.304688 344.28125 177.644531 343.804688 181.992188 343.585938 C 200.46875 342.660156 218.085938 346.355469 231.589844 353.988281 C 245.226562 361.695312 253.058594 372.503906 253.652344 384.421875 C 254.183594 395.160156 251.75 399.96875 244.183594 408.550781 L 256.050781 438.527344 C 256.195312 438.886719 256.097656 439.296875 255.808594 439.550781 C 255.636719 439.703125 255.417969 439.785156 255.195312 439.785156 " fill-opacity="1" fill-rule="nonzero"/><path fill="#000000" d="M 191.023438 383.191406 C 190.519531 383.191406 190.109375 382.785156 190.105469 382.28125 L 190 371.273438 C 189.996094 370.765625 190.40625 370.351562 190.910156 370.34375 C 190.914062 370.34375 190.917969 370.34375 190.921875 370.34375 C 191.425781 370.34375 191.835938 370.75 191.839844 371.257812 L 191.945312 382.261719 C 191.949219 382.769531 191.539062 383.183594 191.03125 383.191406 C 191.03125 383.191406 191.027344 383.191406 191.023438 383.191406 " fill-opacity="1" fill-rule="nonzero"/><path fill="#000000" d="M 172.425781 383.367188 C 171.925781 383.367188 171.511719 382.960938 171.507812 382.453125 L 171.40625 371.449219 C 171.398438 370.941406 171.808594 370.523438 172.316406 370.519531 C 172.320312 370.519531 172.320312 370.519531 172.324219 370.519531 C 172.828125 370.519531 173.238281 370.925781 173.246094 371.429688 L 173.347656 382.4375 C 173.351562 382.945312 172.945312 383.359375 172.4375 383.367188 C 172.433594 383.367188 172.429688 383.367188 172.425781 383.367188 " fill-opacity="1" fill-rule="nonzero"/><path fill="#000000" d="M 163.238281 405.46875 C 162.980469 405.46875 162.726562 405.363281 162.542969 405.152344 C 162.210938 404.769531 162.25 404.1875 162.632812 403.855469 C 173.722656 394.1875 189.949219 394.035156 201.21875 403.492188 C 201.609375 403.820312 201.660156 404.398438 201.332031 404.789062 C 201.007812 405.179688 200.425781 405.226562 200.039062 404.898438 C 189.46875 396.027344 174.242188 396.171875 163.84375 405.242188 C 163.667969 405.390625 163.453125 405.46875 163.238281 405.46875 " fill-opacity="1" fill-rule="nonzero"/><path fill="#2b281c" d="M 424.714844 332.898438 L 373.9375 332.898438 L 373.9375 318 C 373.9375 313.339844 377.710938 309.5625 382.367188 309.5625 L 415.691406 309.5625 C 420.675781 309.5625 424.714844 313.601562 424.714844 318.582031 L 424.714844 332.898438 " fill-opacity="1" fill-rule="nonzero"/><path fill="#2b281c" d="M 416.597656 317.03125 L 381.589844 317.03125 L 381.589844 293.09375 C 381.589844 284.488281 388.5625 277.515625 397.164062 277.515625 L 400.433594 277.515625 C 409.359375 277.515625 416.597656 284.753906 416.597656 293.679688 L 416.597656 317.03125 " fill-opacity="1" fill-rule="nonzero"/><path fill="#2b281c" d="M 399.738281 237.40625 L 399.675781 286.304688 L 396.894531 286.304688 L 396.886719 237.476562 C 397.828125 237.449219 398.773438 237.425781 399.714844 237.40625 L 399.738281 237.40625 " fill-opacity="1" fill-rule="nonzero"/><path fill="#696052" d="M 471.785156 378.148438 L 449.597656 378.148438 L 449.597656 298.003906 L 471.785156 298.003906 L 471.785156 378.148438 " fill-opacity="1" fill-rule="nonzero"/><path fill="#2b281c" d="M 466.984375 314.046875 C 466.984375 317.488281 464.195312 320.273438 460.757812 320.273438 C 457.324219 320.273438 454.535156 317.488281 454.535156 314.046875 C 454.535156 310.609375 457.324219 307.816406 460.757812 307.816406 C 464.195312 307.816406 466.984375 310.609375 466.984375 314.046875 " fill-opacity="1" fill-rule="nonzero"/><path fill="#696052" d="M 496.339844 377.742188 L 474.148438 377.742188 L 474.148438 297.597656 L 496.339844 297.597656 L 496.339844 377.742188 " fill-opacity="1" fill-rule="nonzero"/><path fill="#2b281c" d="M 491.539062 313.640625 C 491.539062 317.078125 488.75 319.867188 485.3125 319.867188 C 481.875 319.867188 479.089844 317.078125 479.089844 313.640625 C 479.089844 310.199219 481.875 307.414062 485.3125 307.414062 C 488.75 307.414062 491.539062 310.199219 491.539062 313.640625 " fill-opacity="1" fill-rule="nonzero"/><path fill="#696052" d="M 521.300781 377.742188 L 499.113281 377.742188 L 499.113281 297.597656 L 521.300781 297.597656 L 521.300781 377.742188 " fill-opacity="1" fill-rule="nonzero"/><path fill="#2b281c" d="M 516.5 313.640625 C 516.5 317.078125 513.710938 319.867188 510.273438 319.867188 C 506.839844 319.867188 504.050781 317.078125 504.050781 313.640625 C 504.050781 310.199219 506.839844 307.414062 510.273438 307.414062 C 513.710938 307.414062 516.5 310.199219 516.5 313.640625 " fill-opacity="1" fill-rule="nonzero"/><path fill="#696052" d="M 545.859375 377.539062 L 523.667969 377.539062 L 523.667969 297.394531 L 545.859375 297.394531 L 545.859375 377.539062 " fill-opacity="1" fill-rule="nonzero"/><path fill="#2b281c" d="M 541.054688 313.4375 C 541.054688 316.875 538.269531 319.667969 534.832031 319.667969 C 531.394531 319.667969 528.609375 316.875 528.609375 313.4375 C 528.609375 310 531.394531 307.210938 534.832031 307.210938 C 538.269531 307.210938 541.054688 310 541.054688 313.4375 " fill-opacity="1" fill-rule="nonzero"/><path fill="#696052" d="M 570.820312 377.539062 L 548.632812 377.539062 L 548.632812 297.394531 L 570.820312 297.394531 L 570.820312 377.539062 " fill-opacity="1" fill-rule="nonzero"/><path fill="#2b281c" d="M 566.015625 313.4375 C 566.015625 316.875 563.230469 319.667969 559.792969 319.667969 C 556.355469 319.667969 553.566406 316.875 553.566406 313.4375 C 553.566406 310 556.355469 307.210938 559.792969 307.210938 C 563.230469 307.210938 566.015625 310 566.015625 313.4375 " fill-opacity="1" fill-rule="nonzero"/><path fill="#2b281c" d="M 583.382812 381.800781 L 436.988281 381.800781 L 436.988281 374.949219 L 583.382812 374.949219 L 583.382812 381.800781 " fill-opacity="1" fill-rule="nonzero"/><path fill="#2b281c" d="M 583.382812 381.800781 L 436.988281 381.800781 L 436.988281 374.949219 L 583.382812 374.949219 L 583.382812 381.800781 " fill-opacity="1" fill-rule="nonzero"/><path fill="#696052" d="M 437.90625 380.882812 L 582.464844 380.882812 L 582.464844 375.871094 L 437.90625 375.871094 Z M 584.304688 382.722656 L 436.066406 382.722656 L 436.066406 374.03125 L 584.304688 374.03125 L 584.304688 382.722656 " fill-opacity="1" fill-rule="nonzero"/><path fill="#000000" d="M 579.546875 450.242188 C 579.382812 450.242188 579.222656 450.199219 579.074219 450.113281 C 578.640625 449.855469 578.496094 449.289062 578.753906 448.855469 L 604.972656 404.546875 C 605.230469 404.109375 605.792969 403.964844 606.230469 404.226562 C 606.664062 404.484375 606.808594 405.046875 606.550781 405.484375 L 580.335938 449.789062 C 580.164062 450.078125 579.859375 450.242188 579.546875 450.242188 " fill-opacity="1" fill-rule="nonzero"/><path fill="#000000" d="M 588.371094 450.242188 C 588.164062 450.242188 587.957031 450.171875 587.785156 450.03125 C 587.394531 449.703125 587.34375 449.125 587.667969 448.734375 L 607.953125 424.328125 C 608.273438 423.9375 608.855469 423.882812 609.246094 424.207031 C 609.636719 424.53125 609.691406 425.109375 609.363281 425.503906 L 589.082031 449.910156 C 588.898438 450.128906 588.636719 450.242188 588.371094 450.242188 " fill-opacity="1" fill-rule="nonzero"/><path fill="#000000" d="M 572.320312 450.242188 C 572.246094 450.242188 572.167969 450.234375 572.089844 450.214844 C 571.597656 450.085938 571.300781 449.582031 571.429688 449.089844 L 575.421875 433.75 C 575.546875 433.257812 576.050781 432.960938 576.542969 433.089844 C 577.035156 433.21875 577.332031 433.722656 577.203125 434.210938 L 573.210938 449.554688 C 573.105469 449.96875 572.730469 450.242188 572.320312 450.242188 " fill-opacity="1" fill-rule="nonzero"/><path fill="#000000" d="M 469.738281 462.589844 C 469.449219 462.589844 469.160156 462.453125 468.984375 462.199219 L 443.667969 426.34375 C 443.375 425.929688 443.476562 425.359375 443.890625 425.0625 C 444.304688 424.773438 444.878906 424.867188 445.171875 425.285156 L 470.488281 461.136719 C 470.78125 461.554688 470.679688 462.128906 470.265625 462.421875 C 470.105469 462.53125 469.921875 462.589844 469.738281 462.589844 " fill-opacity="1" fill-rule="nonzero"/><path fill="#000000" d="M 476.71875 457.703125 C 476.355469 457.703125 476.011719 457.484375 475.867188 457.125 L 464.484375 428.625 C 464.296875 428.152344 464.527344 427.613281 464.996094 427.429688 C 465.464844 427.238281 466.003906 427.46875 466.191406 427.941406 L 477.574219 456.445312 C 477.761719 456.914062 477.535156 457.449219 477.0625 457.640625 C 476.949219 457.683594 476.832031 457.703125 476.71875 457.703125 " fill-opacity="1" fill-rule="nonzero"/><path fill="#000000" d="M 485.792969 457.703125 C 485.285156 457.703125 484.875 457.292969 484.875 456.785156 L 484.875 433.980469 C 484.875 433.472656 485.285156 433.058594 485.792969 433.058594 C 486.300781 433.058594 486.714844 433.472656 486.714844 433.980469 L 486.714844 456.785156 C 486.714844 457.292969 486.300781 457.703125 485.792969 457.703125 " fill-opacity="1" fill-rule="nonzero"/><g clip-path="url(#563f991db9)"><g clip-path="url(#1411015aac)"><g transform="matrix(1, 0, 0, 1, 1380, 610)"><g clip-path="url(#cd8b7e4f69)"><g clip-path="url(#0ad1124400)"><g clip-path="url(#0507b94444)"><path fill="#ff8a15" d="M 0.523438 0.0507812 L 119.476562 0.0507812 L 119.476562 119 L 0.523438 119 Z M 0.523438 0.0507812 " fill-opacity="1" fill-rule="nonzero"/></g></g></g></g></g></g><g clip-path="url(#ae440edae9)"><path fill="#ff8a15" d="M 37.117188 53.683594 L 38.480469 52.3125 L 43.816406 46.921875 L 50.507812 53.683594 L 53.976562 50.1875 L 50.722656 46.914062 L 47.265625 43.40625 L 43.816406 39.921875 L 33.65625 50.1875 Z M 37.117188 53.683594 " fill-opacity="1" fill-rule="nonzero"/></g><g clip-path="url(#721ce9e8fe)"><path fill="#ff8a15" d="M 54.15625 43.433594 L 60.855469 50.207031 L 64.3125 46.707031 L 54.15625 36.441406 L 48.332031 42.324219 L 51.800781 45.824219 Z M 54.15625 43.433594 " fill-opacity="1" fill-rule="nonzero"/></g><g clip-path="url(#fbe66397cf)"><g clip-path="url(#cf4f1ecef5)"><g transform="matrix(1, 0, 0, 1, 1226, 63)"><g clip-path="url(#861147d6ed)"><g clip-path="url(#222a94b378)"><g clip-path="url(#1d1ff115f0)"><path fill="#ff8a15" d="M 0.6875 0.921875 L 65.535156 0.921875 L 65.535156 35.078125 L 0.6875 35.078125 Z M 0.6875 0.921875 " fill-opacity="1" fill-rule="nonzero"/></g></g></g></g></g></g><g clip-path="url(#dc082671ae)"><g clip-path="url(#378181d5b3)"><g transform="matrix(1, 0, 0, 1, 75, 173)"><g clip-path="url(#f1ec09f262)"><g clip-path="url(#05ecf4e0c8)"><g clip-path="url(#9774465716)"><path fill="#ff8a15" d="M 0.554688 0.710938 L 42.019531 0.710938 L 42.019531 22.550781 L 0.554688 22.550781 Z M 0.554688 0.710938 " fill-opacity="1" fill-rule="nonzero"/></g></g></g></g></g></g><g clip-path="url(#97e887da2a)"><g clip-path="url(#4ea043d82d)"><g transform="matrix(1, 0, 0, 1, 687, 647)"><g clip-path="url(#934f673a5a)"><g clip-path="url(#a2ff54257b)"><g clip-path="url(#6e4814dd6c)"><path fill="#ff8a15" d="M 0.582031 0.683594 L 42.046875 0.683594 L 42.046875 22.523438 L 0.582031 22.523438 Z M 0.582031 0.683594 " fill-opacity="1" fill-rule="nonzero"/></g></g></g></g></g></g><g clip-path="url(#f104b96aab)"><g clip-path="url(#707a6bbb82)"><g transform="matrix(1, 0, 0, 1, 646, 117)"><g clip-path="url(#7e01818d3c)"><g clip-path="url(#971a8f4f57)"><g clip-path="url(#4facfe3a83)"><path fill="#ff8a15" d="M 0.121094 0.710938 L 41.585938 0.710938 L 41.585938 22.550781 L 0.121094 22.550781 Z M 0.121094 0.710938 " fill-opacity="1" fill-rule="nonzero"/></g></g></g></g></g></g></svg>