<svg xmlns="http://www.w3.org/2000/svg" xmlns:xlink="http://www.w3.org/1999/xlink" width="1920" zoomAndPan="magnify" viewBox="0 0 1440 809.999993" height="1080" preserveAspectRatio="xMidYMid meet" version="1.0"><defs><clipPath id="6b0f071e15"><path d="M 0 285 L 584 285 L 584 810 L 0 810 Z M 0 285 " clip-rule="nonzero"/></clipPath><clipPath id="d30cffa079"><path d="M 172.046875 184.628906 L 673.933594 767.933594 L 179.316406 1193.507812 L -322.566406 610.203125 Z M 172.046875 184.628906 " clip-rule="nonzero"/></clipPath><clipPath id="fd55b14e94"><path d="M 172.046875 184.628906 L 673.933594 767.933594 L 179.316406 1193.507812 L -322.566406 610.203125 Z M 172.046875 184.628906 " clip-rule="nonzero"/></clipPath><clipPath id="c71b3d7944"><path d="M 1380.523438 610.050781 L 1440 610.050781 L 1440 729 L 1380.523438 729 Z M 1380.523438 610.050781 " clip-rule="nonzero"/></clipPath><clipPath id="14e1c7b363"><path d="M 1440 610.050781 C 1407.152344 610.050781 1380.523438 636.675781 1380.523438 669.523438 C 1380.523438 702.371094 1407.152344 729 1440 729 C 1472.847656 729 1499.476562 702.371094 1499.476562 669.523438 C 1499.476562 636.675781 1472.847656 610.050781 1440 610.050781 Z M 1440 610.050781 " clip-rule="nonzero"/></clipPath><clipPath id="7e7183d4f5"><path d="M 0.523438 0.0507812 L 60 0.0507812 L 60 119 L 0.523438 119 Z M 0.523438 0.0507812 " clip-rule="nonzero"/></clipPath><clipPath id="48cce5f8aa"><path d="M 60 0.0507812 C 27.152344 0.0507812 0.523438 26.675781 0.523438 59.523438 C 0.523438 92.371094 27.152344 119 60 119 C 92.847656 119 119.476562 92.371094 119.476562 59.523438 C 119.476562 26.675781 92.847656 0.0507812 60 0.0507812 Z M 60 0.0507812 " clip-rule="nonzero"/></clipPath><clipPath id="1daa26c4e6"><rect x="0" width="60" y="0" height="119"/></clipPath><clipPath id="b8247dd66e"><path d="M 33.65625 39 L 54 39 L 54 54 L 33.65625 54 Z M 33.65625 39 " clip-rule="nonzero"/></clipPath><clipPath id="dd87802fc4"><path d="M 48 36 L 64.40625 36 L 64.40625 51 L 48 51 Z M 48 36 " clip-rule="nonzero"/></clipPath><clipPath id="d7d69fdf7d"><path d="M 729.042969 518.773438 L 945.246094 518.773438 L 945.246094 532.449219 L 729.042969 532.449219 Z M 729.042969 518.773438 " clip-rule="nonzero"/></clipPath><clipPath id="c439daf56a"><path d="M 735.878906 518.773438 L 938.382812 518.773438 C 942.160156 518.773438 945.222656 521.835938 945.222656 525.613281 C 945.222656 529.390625 942.160156 532.449219 938.382812 532.449219 L 735.878906 532.449219 C 732.105469 532.449219 729.042969 529.390625 729.042969 525.613281 C 729.042969 521.835938 732.105469 518.773438 735.878906 518.773438 Z M 735.878906 518.773438 " clip-rule="nonzero"/></clipPath><clipPath id="fdf6a97468"><path d="M 0.0429688 0.773438 L 216.246094 0.773438 L 216.246094 14.449219 L 0.0429688 14.449219 Z M 0.0429688 0.773438 " clip-rule="nonzero"/></clipPath><clipPath id="c5af7ce30b"><path d="M 6.878906 0.773438 L 209.382812 0.773438 C 213.160156 0.773438 216.222656 3.835938 216.222656 7.613281 C 216.222656 11.390625 213.160156 14.449219 209.382812 14.449219 L 6.878906 14.449219 C 3.105469 14.449219 0.0429688 11.390625 0.0429688 7.613281 C 0.0429688 3.835938 3.105469 0.773438 6.878906 0.773438 Z M 6.878906 0.773438 " clip-rule="nonzero"/></clipPath><clipPath id="a79e279672"><rect x="0" width="217" y="0" height="15"/></clipPath><clipPath id="87ddfde3aa"><path d="M 1226.6875 63.921875 L 1291.667969 63.921875 L 1291.667969 98.078125 L 1226.6875 98.078125 Z M 1226.6875 63.921875 " clip-rule="nonzero"/></clipPath><clipPath id="6806cc3040"><path d="M 1236.148438 98.078125 C 1234.921875 98.078125 1233.695312 97.824219 1232.46875 97.3125 C 1227.660156 95.265625 1225.410156 89.742188 1227.457031 84.9375 C 1232.824219 72.152344 1245.25 63.921875 1259.109375 63.921875 C 1272.964844 63.921875 1285.390625 72.152344 1290.8125 84.9375 C 1292.855469 89.742188 1290.605469 95.316406 1285.800781 97.3125 C 1280.992188 99.355469 1275.417969 97.105469 1273.425781 92.300781 C 1270.972656 86.574219 1265.347656 82.839844 1259.109375 82.839844 C 1252.871094 82.839844 1247.296875 86.574219 1244.839844 92.300781 C 1243.359375 95.878906 1239.832031 98.078125 1236.148438 98.078125 Z M 1236.148438 98.078125 " clip-rule="nonzero"/></clipPath><clipPath id="a547720a4b"><path d="M 0.6875 0.921875 L 65.667969 0.921875 L 65.667969 35.078125 L 0.6875 35.078125 Z M 0.6875 0.921875 " clip-rule="nonzero"/></clipPath><clipPath id="91b6344c4e"><path d="M 10.148438 35.078125 C 8.921875 35.078125 7.695312 34.824219 6.46875 34.3125 C 1.660156 32.265625 -0.589844 26.742188 1.457031 21.9375 C 6.824219 9.152344 19.25 0.921875 33.109375 0.921875 C 46.964844 0.921875 59.390625 9.152344 64.8125 21.9375 C 66.855469 26.742188 64.605469 32.316406 59.800781 34.3125 C 54.992188 36.355469 49.417969 34.105469 47.425781 29.300781 C 44.972656 23.574219 39.347656 19.839844 33.109375 19.839844 C 26.871094 19.839844 21.296875 23.574219 18.839844 29.300781 C 17.359375 32.878906 13.832031 35.078125 10.148438 35.078125 Z M 10.148438 35.078125 " clip-rule="nonzero"/></clipPath><clipPath id="a4743e70d4"><rect x="0" width="66" y="0" height="36"/></clipPath><clipPath id="f60d847f21"><path d="M 75.554688 173.710938 L 117.105469 173.710938 L 117.105469 195.550781 L 75.554688 195.550781 Z M 75.554688 173.710938 " clip-rule="nonzero"/></clipPath><clipPath id="b343a5f310"><path d="M 81.601562 195.550781 C 80.820312 195.550781 80.035156 195.386719 79.25 195.0625 C 76.175781 193.753906 74.738281 190.222656 76.042969 187.148438 C 79.476562 178.972656 87.421875 173.710938 96.285156 173.710938 C 105.144531 173.710938 113.09375 178.972656 116.558594 187.148438 C 117.867188 190.222656 116.425781 193.785156 113.351562 195.0625 C 110.28125 196.371094 106.714844 194.929688 105.441406 191.855469 C 103.871094 188.195312 100.273438 185.808594 96.285156 185.808594 C 92.296875 185.808594 88.730469 188.195312 87.164062 191.855469 C 86.214844 194.144531 83.957031 195.550781 81.601562 195.550781 Z M 81.601562 195.550781 " clip-rule="nonzero"/></clipPath><clipPath id="4647cad290"><path d="M 0.554688 0.710938 L 42.105469 0.710938 L 42.105469 22.550781 L 0.554688 22.550781 Z M 0.554688 0.710938 " clip-rule="nonzero"/></clipPath><clipPath id="cd471e594a"><path d="M 6.601562 22.550781 C 5.820312 22.550781 5.035156 22.386719 4.25 22.0625 C 1.175781 20.753906 -0.261719 17.222656 1.042969 14.148438 C 4.476562 5.972656 12.421875 0.710938 21.285156 0.710938 C 30.144531 0.710938 38.09375 5.972656 41.558594 14.148438 C 42.867188 17.222656 41.425781 20.785156 38.351562 22.0625 C 35.28125 23.371094 31.714844 21.929688 30.441406 18.855469 C 28.871094 15.195312 25.273438 12.808594 21.285156 12.808594 C 17.296875 12.808594 13.730469 15.195312 12.164062 18.855469 C 11.214844 21.144531 8.957031 22.550781 6.601562 22.550781 Z M 6.601562 22.550781 " clip-rule="nonzero"/></clipPath><clipPath id="f2e7f6387a"><rect x="0" width="43" y="0" height="23"/></clipPath><clipPath id="aff48893d7"><path d="M 687.582031 647.683594 L 729.132812 647.683594 L 729.132812 669.523438 L 687.582031 669.523438 Z M 687.582031 647.683594 " clip-rule="nonzero"/></clipPath><clipPath id="2d3800e279"><path d="M 693.628906 669.523438 C 692.847656 669.523438 692.0625 669.359375 691.277344 669.035156 C 688.203125 667.726562 686.765625 664.195312 688.070312 661.121094 C 691.503906 652.945312 699.449219 647.683594 708.3125 647.683594 C 717.171875 647.683594 725.117188 652.945312 728.585938 661.121094 C 729.894531 664.195312 728.453125 667.757812 725.378906 669.035156 C 722.308594 670.34375 718.742188 668.902344 717.46875 665.828125 C 715.898438 662.167969 712.300781 659.78125 708.3125 659.78125 C 704.324219 659.78125 700.757812 662.167969 699.1875 665.828125 C 698.242188 668.117188 695.984375 669.523438 693.628906 669.523438 Z M 693.628906 669.523438 " clip-rule="nonzero"/></clipPath><clipPath id="94d1238758"><path d="M 0.582031 0.683594 L 42.121094 0.683594 L 42.121094 22.523438 L 0.582031 22.523438 Z M 0.582031 0.683594 " clip-rule="nonzero"/></clipPath><clipPath id="dfa2730a0a"><path d="M 6.628906 22.523438 C 5.847656 22.523438 5.0625 22.359375 4.277344 22.035156 C 1.203125 20.726562 -0.234375 17.195312 1.070312 14.121094 C 4.503906 5.945312 12.449219 0.683594 21.3125 0.683594 C 30.171875 0.683594 38.117188 5.945312 41.585938 14.121094 C 42.894531 17.195312 41.453125 20.757812 38.378906 22.035156 C 35.308594 23.34375 31.742188 21.902344 30.46875 18.828125 C 28.898438 15.167969 25.300781 12.78125 21.3125 12.78125 C 17.324219 12.78125 13.757812 15.167969 12.1875 18.828125 C 11.242188 21.117188 8.984375 22.523438 6.628906 22.523438 Z M 6.628906 22.523438 " clip-rule="nonzero"/></clipPath><clipPath id="f9da451478"><rect x="0" width="43" y="0" height="23"/></clipPath><clipPath id="4ffd0fa266"><path d="M 646.121094 117.710938 L 687.671875 117.710938 L 687.671875 139.550781 L 646.121094 139.550781 Z M 646.121094 117.710938 " clip-rule="nonzero"/></clipPath><clipPath id="833ef68d06"><path d="M 652.167969 139.550781 C 651.382812 139.550781 650.597656 139.390625 649.816406 139.0625 C 646.742188 137.753906 645.300781 134.222656 646.609375 131.148438 C 650.042969 122.972656 657.988281 117.710938 666.851562 117.710938 C 675.710938 117.710938 683.65625 122.972656 687.125 131.148438 C 688.429688 134.222656 686.992188 137.785156 683.917969 139.0625 C 680.84375 140.371094 677.28125 138.929688 676.007812 135.859375 C 674.4375 132.195312 670.839844 129.808594 666.851562 129.808594 C 662.863281 129.808594 659.296875 132.195312 657.726562 135.859375 C 656.78125 138.144531 654.523438 139.550781 652.167969 139.550781 Z M 652.167969 139.550781 " clip-rule="nonzero"/></clipPath><clipPath id="1c6c5e0fc7"><path d="M 0.121094 0.710938 L 41.601562 0.710938 L 41.601562 22.550781 L 0.121094 22.550781 Z M 0.121094 0.710938 " clip-rule="nonzero"/></clipPath><clipPath id="d5f6ef1177"><path d="M 6.167969 22.550781 C 5.382812 22.550781 4.597656 22.390625 3.816406 22.0625 C 0.742188 20.753906 -0.699219 17.222656 0.609375 14.148438 C 4.042969 5.972656 11.988281 0.710938 20.851562 0.710938 C 29.710938 0.710938 37.65625 5.972656 41.125 14.148438 C 42.429688 17.222656 40.992188 20.785156 37.917969 22.0625 C 34.84375 23.371094 31.28125 21.929688 30.007812 18.859375 C 28.4375 15.195312 24.839844 12.808594 20.851562 12.808594 C 16.863281 12.808594 13.296875 15.195312 11.726562 18.859375 C 10.78125 21.144531 8.523438 22.550781 6.167969 22.550781 Z M 6.167969 22.550781 " clip-rule="nonzero"/></clipPath><clipPath id="883f67a8d3"><rect x="0" width="42" y="0" height="23"/></clipPath></defs><rect x="-144" width="1728" fill="#ffffff" y="-80.999999" height="971.999992" fill-opacity="1"/><rect x="-144" width="1728" fill="#ffffff" y="-80.999999" height="971.999992" fill-opacity="1"/><g clip-path="url(#6b0f071e15)"><g clip-path="url(#d30cffa079)"><g clip-path="url(#fd55b14e94)"><path fill="#ff8a15" d="M 86.519531 287.121094 C 44.09375 295.28125 13.816406 333.425781 -10.117188 369.804688 C -34.0625 406.179688 -58.859375 446.179688 -98.96875 463.035156 C -111.09375 468.132812 -124.378906 470.953125 -134.980469 478.832031 C -155.222656 493.867188 -159.28125 523.394531 -151.371094 546.347656 C -143.464844 569.296875 -126.3125 587.386719 -110.203125 605.351562 C -94.089844 623.316406 -78.089844 642.871094 -73.339844 666.789062 C -63.703125 715.324219 -102.664062 763.050781 -104.402344 812.980469 C -105.726562 850.902344 -84.90625 885.960938 -56.953125 910.554688 C -29 935.15625 5.652344 950.953125 39.789062 966.429688 C 90.363281 989.351562 141.351562 1012.417969 195.953125 1024.628906 C 246.726562 1035.984375 301.371094 1037.5 351.566406 1019.78125 C 401.761719 1002.066406 446.753906 963.097656 463.320312 912.859375 C 476.90625 871.644531 473.335938 821.675781 505.835938 792.125 C 524.929688 774.761719 553.054688 768.671875 569.359375 748.707031 C 606.597656 703.101562 561.628906 637.480469 527.980469 608.179688 C 487.71875 573.121094 435.355469 559.957031 381.980469 557.226562 C 347.453125 555.457031 309.003906 558.769531 281.839844 534.929688 C 241.359375 499.402344 236.726562 431.667969 217.484375 383.9375 C 196.753906 332.5 151 274.71875 86.519531 287.121094 " fill-opacity="1" fill-rule="nonzero"/></g></g></g><path fill="#f3f3f3" d="M 628.925781 508.738281 C 588.539062 620.632812 411.472656 704.242188 271.292969 636.3125 C 150.953125 577.992188 109.171875 432.875 144.085938 337.488281 C 164.605469 281.441406 212.613281 239.757812 224.492188 229.445312 C 273.527344 186.875 322.632812 170.835938 333.699219 167.382812 C 363.402344 158.113281 395.773438 153.257812 425.042969 152.425781 C 425.988281 152.398438 426.933594 152.378906 427.871094 152.359375 L 427.894531 152.359375 C 474.421875 151.445312 512.511719 160.808594 518.515625 178.875 C 522.675781 191.40625 507.675781 196.910156 506.515625 216.800781 C 504.105469 258.117188 566.207031 278.867188 602.523438 322.542969 C 647.636719 376.8125 646.835938 459.109375 628.925781 508.738281 " fill-opacity="1" fill-rule="nonzero"/><path fill="#696052" d="M 159.53125 621.167969 C 159.53125 621.167969 157.519531 469.699219 238.457031 424.195312 C 268.402344 407.359375 304.238281 405.074219 339.148438 406.566406 C 363.710938 407.621094 386.800781 411.054688 408.929688 424.300781 C 440.363281 443.125 468.058594 471.382812 484.730469 521.125 L 499.863281 622.53125 L 159.53125 621.167969 " fill-opacity="1" fill-rule="nonzero"/><path fill="#ffffff" d="M 553.058594 516.742188 L 427.695312 516.742188 C 423.550781 516.742188 421.007812 512.203125 423.167969 508.664062 L 500.851562 381.550781 C 502.507812 378.839844 505.457031 377.1875 508.632812 377.1875 L 632.957031 377.1875 C 637.558594 377.1875 640.382812 382.226562 637.984375 386.152344 L 560.84375 512.378906 C 559.183594 515.089844 556.238281 516.742188 553.058594 516.742188 " fill-opacity="1" fill-rule="nonzero"/><path fill="#000000" d="M 508.632812 378.101562 C 505.796875 378.101562 503.113281 379.609375 501.636719 382.03125 L 423.953125 509.140625 C 423.113281 510.519531 423.082031 512.175781 423.871094 513.582031 C 424.660156 514.988281 426.085938 515.824219 427.695312 515.824219 L 553.058594 515.824219 C 555.898438 515.824219 558.578125 514.320312 560.058594 511.898438 L 637.195312 385.675781 C 638.148438 384.113281 638.183594 382.234375 637.292969 380.644531 C 636.398438 379.054688 634.777344 378.101562 632.957031 378.101562 Z M 553.058594 517.664062 L 427.695312 517.664062 C 425.414062 517.664062 423.382812 516.472656 422.265625 514.480469 C 421.148438 512.488281 421.191406 510.132812 422.386719 508.183594 L 500.066406 381.070312 C 501.878906 378.105469 505.160156 376.265625 508.632812 376.265625 L 632.957031 376.265625 C 635.453125 376.265625 637.675781 377.566406 638.894531 379.742188 C 640.117188 381.925781 640.070312 384.5 638.765625 386.632812 L 561.628906 512.859375 C 559.816406 515.820312 556.535156 517.664062 553.058594 517.664062 " fill-opacity="1" fill-rule="nonzero"/><path fill="#2b281c" d="M 582.554688 435.691406 L 494.484375 435.691406 L 499.621094 427.261719 L 587.699219 427.261719 L 582.554688 435.691406 " fill-opacity="1" fill-rule="nonzero"/><path fill="#2b281c" d="M 592.613281 419.195312 L 504.539062 419.195312 L 520.246094 393.425781 L 608.320312 393.425781 L 592.613281 419.195312 " fill-opacity="1" fill-rule="nonzero"/><path fill="#000000" d="M 543.714844 346.824219 C 544.039062 345.484375 543.917969 344.394531 543.347656 343.546875 C 542.777344 342.699219 541.601562 341.894531 539.820312 341.136719 C 537.585938 340.28125 536.125 339.269531 535.425781 338.09375 C 534.726562 336.917969 534.609375 335.402344 535.066406 333.539062 C 535.542969 331.574219 536.46875 329.984375 537.847656 328.761719 C 539.226562 327.539062 540.867188 326.84375 542.765625 326.675781 L 543.492188 323.710938 C 543.589844 323.3125 543.945312 323.027344 544.359375 323.027344 L 544.386719 323.027344 C 544.609375 323.027344 544.820312 323.132812 544.957031 323.308594 C 545.09375 323.484375 545.144531 323.710938 545.089844 323.925781 L 544.417969 326.675781 C 546.277344 326.867188 547.554688 327.65625 548.257812 329.046875 C 548.875 330.273438 548.996094 331.882812 548.617188 333.878906 C 548.527344 334.371094 548.09375 334.726562 547.597656 334.726562 L 547.578125 334.726562 C 547.324219 334.726562 547.078125 334.617188 546.914062 334.421875 C 546.742188 334.226562 546.671875 333.96875 546.710938 333.714844 C 546.921875 332.292969 546.78125 331.132812 546.285156 330.222656 C 545.675781 329.109375 544.609375 328.554688 543.085938 328.554688 C 541.554688 328.554688 540.246094 329.003906 539.167969 329.902344 C 538.089844 330.800781 537.367188 331.996094 537.003906 333.488281 C 536.652344 334.933594 536.769531 336.066406 537.359375 336.878906 C 537.949219 337.691406 539.105469 338.460938 540.824219 339.175781 C 542.550781 339.894531 543.757812 340.582031 544.457031 341.234375 C 545.15625 341.890625 545.609375 342.667969 545.816406 343.566406 C 546.023438 344.460938 545.976562 345.535156 545.671875 346.785156 C 545.1875 348.761719 544.246094 350.351562 542.84375 351.5625 C 541.441406 352.769531 539.753906 353.460938 537.777344 353.628906 L 537.105469 356.382812 C 537.007812 356.777344 536.652344 357.058594 536.242188 357.058594 C 536.019531 357.058594 535.804688 356.953125 535.660156 356.773438 C 535.523438 356.597656 535.472656 356.363281 535.527344 356.144531 L 536.132812 353.644531 C 534.003906 353.488281 532.507812 352.730469 531.652344 351.363281 C 530.914062 350.183594 530.707031 348.636719 531.039062 346.710938 C 531.132812 346.160156 531.605469 345.757812 532.164062 345.757812 L 532.222656 345.757812 C 532.453125 345.757812 532.671875 345.859375 532.820312 346.03125 C 532.972656 346.207031 533.035156 346.4375 533 346.660156 C 532.785156 348.113281 532.976562 349.285156 533.582031 350.171875 C 534.300781 351.234375 535.542969 351.769531 537.308594 351.769531 C 538.839844 351.769531 540.203125 351.3125 541.394531 350.398438 C 542.582031 349.480469 543.359375 348.292969 543.714844 346.824219 " fill-opacity="1" fill-rule="nonzero"/><path fill="#000000" d="M 564.859375 346.824219 C 565.1875 345.484375 565.066406 344.394531 564.492188 343.546875 C 563.925781 342.699219 562.746094 341.894531 560.964844 341.136719 C 558.734375 340.28125 557.265625 339.269531 556.570312 338.09375 C 555.871094 336.917969 555.753906 335.402344 556.207031 333.539062 C 556.6875 331.574219 557.613281 329.984375 558.992188 328.761719 C 560.371094 327.539062 562.011719 326.84375 563.914062 326.675781 L 564.636719 323.710938 C 564.734375 323.3125 565.089844 323.027344 565.503906 323.027344 L 565.535156 323.027344 C 565.753906 323.027344 565.964844 323.132812 566.101562 323.308594 C 566.238281 323.484375 566.289062 323.710938 566.238281 323.925781 L 565.5625 326.675781 C 567.421875 326.867188 568.699219 327.65625 569.402344 329.046875 C 570.019531 330.273438 570.140625 331.882812 569.761719 333.878906 C 569.671875 334.371094 569.242188 334.726562 568.742188 334.726562 L 568.722656 334.726562 C 568.46875 334.726562 568.222656 334.617188 568.054688 334.421875 C 567.890625 334.226562 567.816406 333.96875 567.851562 333.714844 C 568.066406 332.292969 567.925781 331.132812 567.429688 330.222656 C 566.820312 329.109375 565.753906 328.554688 564.234375 328.554688 C 562.699219 328.554688 561.390625 329.003906 560.3125 329.902344 C 559.234375 330.800781 558.511719 331.996094 558.148438 333.488281 C 557.796875 334.933594 557.914062 336.066406 558.503906 336.878906 C 559.09375 337.691406 560.25 338.460938 561.96875 339.175781 C 563.691406 339.894531 564.902344 340.582031 565.601562 341.234375 C 566.300781 341.890625 566.753906 342.667969 566.960938 343.566406 C 567.171875 344.460938 567.121094 345.535156 566.8125 346.785156 C 566.332031 348.761719 565.390625 350.351562 563.988281 351.5625 C 562.585938 352.769531 560.898438 353.460938 558.921875 353.628906 L 558.25 356.382812 C 558.152344 356.777344 557.796875 357.058594 557.390625 357.058594 C 557.160156 357.058594 556.949219 356.953125 556.804688 356.773438 C 556.667969 356.597656 556.617188 356.363281 556.671875 356.144531 L 557.28125 353.644531 C 555.148438 353.488281 553.652344 352.730469 552.796875 351.363281 C 552.058594 350.183594 551.855469 348.636719 552.183594 346.710938 C 552.277344 346.160156 552.75 345.757812 553.308594 345.757812 L 553.371094 345.757812 C 553.597656 345.757812 553.816406 345.859375 553.964844 346.03125 C 554.117188 346.207031 554.179688 346.4375 554.148438 346.660156 C 553.929688 348.113281 554.121094 349.285156 554.722656 350.171875 C 555.449219 351.234375 556.691406 351.769531 558.453125 351.769531 C 559.984375 351.769531 561.347656 351.3125 562.539062 350.398438 C 563.730469 349.480469 564.5 348.292969 564.859375 346.824219 " fill-opacity="1" fill-rule="nonzero"/><path fill="#000000" d="M 586.125 346.824219 C 586.453125 345.484375 586.328125 344.394531 585.757812 343.546875 C 585.1875 342.699219 584.011719 341.894531 582.230469 341.136719 C 579.996094 340.28125 578.53125 339.269531 577.832031 338.09375 C 577.136719 336.917969 577.015625 335.402344 577.472656 333.539062 C 577.949219 331.574219 578.878906 329.984375 580.257812 328.761719 C 581.636719 327.539062 583.277344 326.84375 585.175781 326.675781 L 585.898438 323.710938 C 585.996094 323.3125 586.355469 323.027344 586.769531 323.027344 L 586.796875 323.027344 C 587.019531 323.027344 587.226562 323.132812 587.367188 323.308594 C 587.503906 323.484375 587.554688 323.710938 587.5 323.925781 L 586.828125 326.675781 C 588.683594 326.867188 589.960938 327.65625 590.664062 329.046875 C 591.289062 330.277344 591.40625 331.898438 591.023438 333.90625 C 590.933594 334.382812 590.515625 334.726562 590.03125 334.726562 L 589.957031 334.726562 C 589.707031 334.726562 589.46875 334.621094 589.308594 334.429688 C 589.144531 334.242188 589.078125 333.992188 589.113281 333.742188 C 589.332031 332.308594 589.191406 331.136719 588.695312 330.222656 C 588.085938 329.109375 587.019531 328.554688 585.496094 328.554688 C 583.960938 328.554688 582.65625 329.003906 581.578125 329.902344 C 580.5 330.800781 579.777344 331.996094 579.414062 333.488281 C 579.058594 334.933594 579.179688 336.066406 579.769531 336.878906 C 580.359375 337.691406 581.515625 338.460938 583.234375 339.175781 C 584.957031 339.894531 586.164062 340.582031 586.867188 341.234375 C 587.5625 341.890625 588.015625 342.667969 588.226562 343.566406 C 588.433594 344.460938 588.382812 345.535156 588.078125 346.785156 C 587.597656 348.761719 586.65625 350.351562 585.25 351.5625 C 583.851562 352.769531 582.160156 353.460938 580.183594 353.628906 L 579.511719 356.382812 C 579.414062 356.777344 579.0625 357.058594 578.65625 357.058594 C 578.425781 357.058594 578.210938 356.953125 578.074219 356.773438 C 577.929688 356.597656 577.882812 356.363281 577.933594 356.144531 L 578.546875 353.644531 C 576.410156 353.488281 574.914062 352.730469 574.0625 351.363281 C 573.324219 350.183594 573.121094 348.636719 573.449219 346.710938 C 573.542969 346.160156 574.015625 345.757812 574.570312 345.757812 L 574.636719 345.757812 C 574.863281 345.757812 575.078125 345.859375 575.230469 346.03125 C 575.378906 346.207031 575.445312 346.4375 575.410156 346.660156 C 575.191406 348.113281 575.386719 349.285156 575.988281 350.171875 C 576.710938 351.234375 577.953125 351.769531 579.714844 351.769531 C 581.25 351.769531 582.613281 351.3125 583.804688 350.398438 C 584.992188 349.480469 585.765625 348.292969 586.125 346.824219 " fill-opacity="1" fill-rule="nonzero"/><path fill="#000000" d="M 521.402344 620.921875 L 401.578125 620.921875 L 490.40625 484.21875 C 493.183594 479.949219 498.019531 477.359375 503.21875 477.359375 L 600.464844 477.359375 C 606.640625 477.359375 610.394531 483.972656 607.097656 489.046875 L 521.402344 620.921875 " fill-opacity="1" fill-rule="nonzero"/><path fill="#f3f3f3" d="M 546.964844 525.292969 C 543.070312 531.285156 534.699219 536.140625 528.261719 536.140625 C 521.828125 536.140625 519.765625 531.285156 523.65625 525.292969 C 527.550781 519.304688 535.925781 514.445312 542.363281 514.445312 C 548.796875 514.445312 550.859375 519.304688 546.964844 525.292969 " fill-opacity="1" fill-rule="nonzero"/><path fill="#000000" d="M 510.472656 632.332031 L 308.933594 632.332031 C 302.660156 632.332031 297.570312 627.246094 297.570312 620.96875 L 297.570312 619.941406 L 521.835938 619.941406 L 521.835938 620.96875 C 521.835938 627.246094 516.75 632.332031 510.472656 632.332031 " fill-opacity="1" fill-rule="nonzero"/><path fill="#ffffff" d="M 515.171875 621.960938 L 412.265625 621.960938 C 411.757812 621.960938 411.34375 621.550781 411.34375 621.042969 C 411.34375 620.535156 411.757812 620.125 412.265625 620.125 L 515.171875 620.125 C 515.679688 620.125 516.089844 620.535156 516.089844 621.042969 C 516.089844 621.550781 515.679688 621.960938 515.171875 621.960938 " fill-opacity="1" fill-rule="nonzero"/><path fill="#696052" d="M 282.722656 484.84375 C 208.398438 546.390625 206.777344 547.105469 226.660156 582.855469 C 239.746094 606.386719 277.398438 641.953125 310.246094 630.910156 C 330.542969 624.089844 341.273438 592.257812 356.292969 491.546875 C 362.457031 450.203125 333.675781 450.410156 329.695312 447.402344 C 322.785156 442.183594 331.488281 444.457031 282.722656 484.84375 " fill-opacity="1" fill-rule="nonzero"/><path fill="#ffffff" d="M 270.703125 526.210938 C 270.628906 526.210938 270.554688 526.199219 270.480469 526.183594 C 269.988281 526.058594 269.6875 525.554688 269.8125 525.066406 C 277.992188 492.488281 307.34375 458.628906 307.640625 458.292969 C 307.976562 457.910156 308.554688 457.871094 308.9375 458.203125 C 309.320312 458.539062 309.359375 459.121094 309.023438 459.503906 C 308.734375 459.835938 279.667969 493.371094 271.59375 525.511719 C 271.488281 525.929688 271.117188 526.210938 270.703125 526.210938 " fill-opacity="1" fill-rule="nonzero"/><path fill="#ffffff" d="M 330 614.199219 C 329.785156 614.199219 329.570312 614.125 329.398438 613.976562 C 329.011719 613.644531 328.972656 613.0625 329.300781 612.675781 C 359.953125 577.046875 355.480469 479.609375 355.429688 478.632812 C 355.40625 478.125 355.796875 477.691406 356.300781 477.667969 C 356.800781 477.636719 357.242188 478.03125 357.265625 478.539062 C 357.277344 478.785156 358.464844 503.53125 355.808594 532.394531 C 352.230469 571.25 343.78125 598.664062 330.695312 613.878906 C 330.511719 614.089844 330.257812 614.199219 330 614.199219 " fill-opacity="1" fill-rule="nonzero"/><path fill="#ffffff" d="M 272.445312 520.21875 C 272.140625 520.21875 271.84375 520.066406 271.667969 519.789062 C 263.53125 506.917969 267.285156 497.503906 267.449219 497.109375 C 267.644531 496.636719 268.183594 496.417969 268.652344 496.609375 C 269.121094 496.804688 269.34375 497.339844 269.148438 497.8125 C 269.113281 497.902344 265.625 506.789062 273.222656 518.804688 C 273.496094 519.234375 273.367188 519.804688 272.9375 520.074219 C 272.785156 520.171875 272.613281 520.21875 272.445312 520.21875 " fill-opacity="1" fill-rule="nonzero"/><path fill="#ffffff" d="M 257.144531 617.945312 C 256.9375 617.945312 256.730469 617.875 256.558594 617.734375 C 220.777344 587.945312 216.578125 564.8125 216.417969 563.84375 C 216.335938 563.34375 216.671875 562.871094 217.175781 562.789062 C 217.675781 562.703125 218.148438 563.039062 218.234375 563.539062 C 218.273438 563.773438 222.550781 587.027344 257.734375 616.320312 C 258.125 616.644531 258.175781 617.226562 257.851562 617.613281 C 257.671875 617.832031 257.410156 617.945312 257.144531 617.945312 " fill-opacity="1" fill-rule="nonzero"/><path fill="#ffffff" d="M 330.875 338.71875 L 312.476562 398.464844 C 312.476562 398.464844 267.695312 405.691406 246.804688 421.367188 C 246.804688 421.367188 281.835938 407.660156 303.105469 422.355469 C 324.378906 437.046875 376.792969 442.777344 407.417969 423.726562 C 407.417969 423.726562 366.035156 405.328125 365.714844 404.167969 C 365.171875 402.230469 367.402344 396.765625 367.402344 396.765625 C 367.402344 396.765625 372.363281 399.824219 379.015625 401.585938 C 383.988281 402.90625 388.023438 399.324219 390.222656 394.652344 C 395.234375 383.996094 398.546875 369.898438 398.546875 369.898438 L 406.386719 367.949219 C 405.417969 356.316406 402.683594 350.65625 404.820312 339.984375 C 406.570312 331.21875 413.195312 329.617188 413.195312 308.835938 L 356.273438 287.992188 L 330.890625 314.359375 C 330.890625 314.359375 328.332031 309.574219 321.949219 311.617188 C 315.570312 313.664062 314.539062 341.613281 321.484375 342.902344 C 326.265625 343.792969 330.875 338.71875 330.875 338.71875 " fill-opacity="1" fill-rule="nonzero"/><path fill="#000000" d="M 277.8125 414.585938 C 286.671875 414.585938 295.972656 416.304688 303.628906 421.597656 C 323.433594 435.273438 374.335938 441.96875 405.433594 423.847656 C 402.117188 422.367188 394.183594 418.816406 386.304688 415.21875 C 365.144531 405.550781 364.996094 405.023438 364.828125 404.414062 C 364.234375 402.285156 366.160156 397.378906 366.550781 396.417969 C 366.652344 396.167969 366.859375 395.976562 367.117188 395.894531 C 367.371094 395.808594 367.65625 395.84375 367.886719 395.984375 C 367.933594 396.011719 372.820312 398.996094 379.25 400.699219 C 385.117188 402.253906 388.496094 396.164062 389.390625 394.261719 C 394.304688 383.820312 397.617188 369.828125 397.652344 369.6875 C 397.730469 369.351562 397.992188 369.089844 398.324219 369.007812 L 405.398438 367.242188 C 405.089844 363.859375 404.640625 361.03125 404.207031 358.289062 C 403.261719 352.328125 402.445312 347.179688 403.917969 339.804688 C 404.539062 336.691406 405.75 334.441406 407.03125 332.058594 C 409.449219 327.566406 412.183594 322.488281 412.269531 309.476562 L 356.519531 289.0625 L 331.550781 314.992188 C 331.347656 315.207031 331.054688 315.304688 330.765625 315.265625 C 330.472656 315.226562 330.214844 315.050781 330.078125 314.792969 C 329.988281 314.628906 327.769531 310.71875 322.230469 312.492188 C 319.347656 313.417969 317.152344 322.707031 317.710938 331.605469 C 318.085938 337.542969 319.636719 341.621094 321.65625 342 C 325.863281 342.78125 330.152344 338.144531 330.195312 338.097656 C 330.484375 337.78125 330.957031 337.707031 331.332031 337.921875 C 331.703125 338.132812 331.878906 338.578125 331.753906 338.988281 L 313.355469 398.738281 C 313.253906 399.070312 312.96875 399.316406 312.625 399.371094 C 312.214844 399.4375 275.105469 405.542969 253.101562 418.332031 C 259 416.636719 268.144531 414.585938 277.8125 414.585938 Z M 357.949219 436.753906 C 355.894531 436.753906 353.816406 436.707031 351.714844 436.613281 C 332.1875 435.726562 313.359375 430.554688 302.585938 423.109375 C 281.953125 408.859375 247.484375 422.085938 247.136719 422.222656 C 246.710938 422.390625 246.222656 422.214844 246 421.816406 C 245.777344 421.414062 245.882812 420.90625 246.253906 420.628906 C 265.808594 405.953125 306.484375 398.5625 311.765625 397.652344 L 329.050781 341.519531 C 327.117188 342.914062 324.28125 344.359375 321.320312 343.808594 C 317.042969 343.011719 316.089844 335.089844 315.875 331.71875 C 315.398438 324.164062 316.910156 312.269531 321.667969 310.742188 C 326.761719 309.109375 329.722656 311.484375 330.980469 312.933594 L 355.609375 287.355469 C 355.863281 287.089844 356.246094 287 356.589844 287.125 L 413.511719 307.972656 C 413.871094 308.105469 414.113281 308.453125 414.113281 308.835938 C 414.113281 322.785156 411.085938 328.410156 408.652344 332.933594 C 407.386719 335.285156 406.289062 337.320312 405.71875 340.164062 C 404.3125 347.21875 405.066406 351.976562 406.023438 358.003906 C 406.472656 360.847656 406.984375 364.066406 407.300781 367.871094 C 407.339844 368.320312 407.046875 368.730469 406.605469 368.839844 L 399.308594 370.65625 C 398.640625 373.371094 395.492188 385.609375 391.058594 395.042969 C 388.300781 400.90625 383.59375 403.75 378.777344 402.472656 C 373.710938 401.132812 369.640625 399.078125 367.875 398.101562 C 367.148438 400.074219 366.433594 402.585938 366.558594 403.699219 C 369.046875 405.433594 392.351562 416.019531 407.789062 422.886719 C 408.101562 423.023438 408.3125 423.320312 408.335938 423.664062 C 408.359375 424.003906 408.195312 424.328125 407.902344 424.503906 C 395.09375 432.476562 377.53125 436.753906 357.949219 436.753906 " fill-opacity="1" fill-rule="nonzero"/><path fill="#000000" d="M 330.542969 315.21875 C 330.542969 315.21875 335.1875 316.460938 335.027344 324.121094 C 334.867188 331.785156 334.535156 343.476562 342.300781 348.230469 C 350.066406 352.988281 354.820312 332.0625 354.820312 325.875 C 354.820312 319.6875 360.992188 302.894531 372.964844 304.394531 C 386.171875 306.046875 392.949219 315.433594 413.195312 313.484375 C 416.246094 313.183594 427.382812 312.113281 430.585938 304.976562 C 432.835938 299.957031 430.121094 294.257812 428.945312 291.886719 C 427.0625 288.0625 421.027344 278.273438 391.320312 269.292969 C 370.207031 262.910156 359.648438 259.71875 351.019531 263.703125 C 336.472656 270.425781 328.636719 291.238281 330.542969 315.21875 " fill-opacity="1" fill-rule="nonzero"/><path fill="#ffffff" d="M 367.402344 396.765625 L 352.296875 387.601562 C 349.238281 385.746094 347.003906 382.800781 346.03125 379.355469 L 343.261719 369.492188 L 367.402344 396.765625 " fill-opacity="1" fill-rule="nonzero"/><path fill="#000000" d="M 367.402344 397.6875 C 367.238281 397.6875 367.074219 397.644531 366.925781 397.550781 L 351.820312 388.386719 C 348.550781 386.40625 346.183594 383.285156 345.148438 379.605469 L 342.375 369.738281 C 342.238281 369.25 342.523438 368.746094 343.011719 368.605469 C 343.5 368.46875 344.011719 368.753906 344.144531 369.242188 L 346.917969 379.109375 C 347.824219 382.339844 349.902344 385.074219 352.773438 386.816406 L 367.878906 395.980469 C 368.316406 396.242188 368.453125 396.8125 368.191406 397.242188 C 368.015625 397.53125 367.710938 397.6875 367.402344 397.6875 " fill-opacity="1" fill-rule="nonzero"/><path fill="#ffffff" d="M 350.230469 399.757812 C 351.542969 395.472656 349.066406 391.855469 346.242188 388.265625 L 336.574219 371.121094 C 333.101562 366.703125 332.414062 360.511719 334.824219 355.414062 C 334.824219 355.414062 342.96875 332.804688 348.226562 325.871094 C 349.199219 324.585938 350.238281 323.617188 351.523438 324.121094 C 352.847656 324.640625 353.523438 327.0625 353.21875 329.695312 C 352.738281 333.867188 343.261719 355.113281 343.261719 355.113281 C 343.261719 355.113281 352.617188 337.5 355.03125 333.140625 C 356.636719 330.246094 358.058594 329.65625 358.582031 329.886719 C 361.390625 331.113281 358.582031 339.640625 357.515625 342.75 C 356.394531 346.011719 353.882812 354.578125 352.765625 358.429688 C 352.632812 358.890625 361.390625 339.054688 363.035156 339.484375 C 365.519531 340.132812 361.164062 355.609375 359.230469 361.910156 C 357.195312 368.539062 367.292969 384.863281 370.347656 391.695312 C 373.402344 398.523438 367.21875 414.824219 367.21875 414.824219 L 355.4375 475.226562 L 312.828125 455.695312 C 312.828125 455.695312 348.691406 404.820312 350.230469 399.757812 " fill-opacity="1" fill-rule="nonzero"/><path fill="#000000" d="M 314.21875 455.320312 L 354.753906 473.90625 L 366.316406 414.648438 C 366.328125 414.59375 366.339844 414.542969 366.359375 414.496094 C 366.421875 414.335938 372.371094 398.476562 369.511719 392.070312 C 368.816406 390.519531 367.757812 388.480469 366.535156 386.121094 C 362.371094 378.09375 356.671875 367.101562 358.351562 361.640625 C 361.839844 350.28125 363.1875 342.785156 362.828125 340.746094 C 361.898438 341.894531 359.648438 345.714844 354.230469 357.472656 C 353.402344 359.273438 353.25 359.597656 352.441406 359.296875 C 351.988281 359.128906 351.746094 358.636719 351.878906 358.171875 C 352.933594 354.546875 355.507812 345.769531 356.644531 342.453125 C 359.957031 332.796875 358.742188 331.074219 358.289062 330.773438 C 357.964844 330.855469 357.007812 331.476562 355.839844 333.585938 C 353.453125 337.890625 344.164062 355.371094 344.074219 355.542969 C 343.839844 355.980469 343.304688 356.15625 342.859375 355.9375 C 342.414062 355.722656 342.21875 355.191406 342.421875 354.738281 C 345.039062 348.863281 351.925781 332.894531 352.308594 329.589844 C 352.582031 327.199219 351.949219 325.277344 351.183594 324.976562 C 350.734375 324.800781 350.152344 324.851562 348.960938 326.425781 C 343.84375 333.167969 335.769531 355.5 335.6875 355.722656 C 335.679688 355.753906 335.667969 355.78125 335.65625 355.808594 C 333.386719 360.605469 334.03125 366.394531 337.296875 370.550781 C 337.324219 370.589844 337.351562 370.628906 337.375 370.667969 L 347.007812 387.753906 C 349.992188 391.554688 352.539062 395.359375 351.113281 400.027344 C 349.640625 404.851562 319.195312 448.242188 314.21875 455.320312 Z M 355.4375 476.144531 C 355.304688 476.144531 355.175781 476.121094 355.050781 476.0625 L 312.445312 456.53125 C 312.195312 456.417969 312.011719 456.199219 311.941406 455.933594 C 311.867188 455.667969 311.917969 455.390625 312.074219 455.167969 C 322.027344 441.046875 348.121094 403.527344 349.355469 399.492188 C 350.53125 395.640625 348.3125 392.386719 345.519531 388.832031 C 345.488281 388.796875 345.460938 388.757812 345.441406 388.71875 L 335.808594 371.632812 C 332.160156 366.945312 331.441406 360.453125 333.972656 355.058594 C 334.480469 353.664062 342.273438 332.199219 347.496094 325.3125 C 348.152344 324.445312 349.6875 322.414062 351.859375 323.265625 C 353.566406 323.933594 354.5 326.621094 354.136719 329.800781 C 353.984375 331.105469 353.019531 333.941406 351.746094 337.265625 C 352.800781 335.308594 353.691406 333.664062 354.230469 332.691406 C 356.109375 329.304688 357.898438 328.585938 358.949219 329.042969 C 361.464844 330.140625 361.285156 334.589844 358.382812 343.050781 C 358.039062 344.058594 357.554688 345.589844 357.023438 347.324219 C 361.589844 338.152344 362.410156 338.371094 363.265625 338.59375 C 363.566406 338.671875 363.980469 338.875 364.285156 339.414062 C 365.863281 342.25 362.34375 354.894531 360.105469 362.179688 C 358.652344 366.925781 364.378906 377.96875 368.167969 385.273438 C 369.40625 387.660156 370.472656 389.71875 371.1875 391.316406 C 374.285156 398.246094 368.617188 413.707031 368.109375 415.074219 L 356.335938 475.40625 C 356.28125 475.679688 356.105469 475.917969 355.855469 476.046875 C 355.722656 476.113281 355.578125 476.144531 355.4375 476.144531 " fill-opacity="1" fill-rule="nonzero"/><path fill="#000000" d="M 220.644531 660.902344 C 220.5625 660.902344 220.480469 660.890625 220.398438 660.867188 C 214.484375 659.253906 211.574219 655.378906 210.175781 652.414062 C 208.476562 648.804688 208.144531 644.570312 209.359375 641.875 C 215.664062 627.851562 242.621094 632.550781 283.425781 639.65625 C 312.613281 644.738281 348.9375 651.066406 388.949219 652.382812 C 435.148438 653.902344 483.292969 655.199219 522.386719 654.371094 C 580.933594 653.136719 594.324219 647.492188 595.242188 642.96875 C 595.914062 639.679688 593.835938 636.414062 589.402344 633.773438 C 563.03125 618.078125 518.390625 625.265625 504.832031 629.019531 C 504.347656 629.152344 503.839844 628.871094 503.703125 628.378906 C 503.566406 627.886719 503.855469 627.382812 504.34375 627.246094 C 519.089844 623.164062 563.285156 616.089844 590.34375 632.195312 C 595.5 635.265625 597.882812 639.21875 597.042969 643.335938 C 594.066406 657.960938 511.679688 658.261719 388.890625 654.21875 C 348.746094 652.898438 312.355469 646.558594 283.113281 641.464844 C 244.589844 634.757812 216.757812 629.910156 211.035156 642.628906 C 210.226562 644.429688 210.132812 648.011719 211.839844 651.628906 C 213.074219 654.246094 215.644531 657.664062 220.882812 659.09375 C 221.375 659.226562 221.664062 659.734375 221.53125 660.222656 C 221.417969 660.632812 221.046875 660.902344 220.644531 660.902344 " fill-opacity="1" fill-rule="nonzero"/><path fill="#000000" d="M 262.273438 234.585938 C 261.992188 234.585938 261.710938 234.460938 261.53125 234.210938 C 261.230469 233.804688 261.320312 233.230469 261.726562 232.929688 L 262.097656 232.660156 C 275.214844 222.996094 305.933594 200.371094 349.472656 190.390625 C 349.964844 190.277344 350.460938 190.589844 350.570312 191.082031 C 350.6875 191.578125 350.375 192.070312 349.882812 192.183594 C 306.714844 202.078125 276.210938 224.546875 263.1875 234.136719 L 262.816406 234.410156 C 262.652344 234.527344 262.464844 234.585938 262.273438 234.585938 " fill-opacity="1" fill-rule="nonzero"/><path fill="#000000" d="M 278.3125 211.414062 C 277.996094 211.414062 277.691406 211.253906 277.519531 210.960938 C 277.261719 210.527344 277.410156 209.960938 277.847656 209.703125 C 278.757812 209.167969 279.433594 207.886719 280.148438 206.523438 C 281.027344 204.851562 281.9375 203.125 283.539062 202.246094 C 284.980469 201.453125 286.816406 201.605469 288.59375 201.746094 C 290.164062 201.871094 291.78125 202.007812 292.878906 201.441406 C 293.851562 200.941406 294.605469 199.675781 295.40625 198.339844 C 296.363281 196.738281 297.351562 195.082031 298.964844 194.308594 C 300.472656 193.582031 302.3125 193.832031 304.09375 194.074219 C 305.636719 194.28125 307.230469 194.5 308.335938 194.003906 C 309.347656 193.550781 310.175781 192.320312 311.054688 191.015625 C 312.089844 189.480469 313.160156 187.890625 314.796875 187.210938 C 316.351562 186.5625 318.183594 186.914062 319.957031 187.25 C 321.480469 187.539062 323.054688 187.84375 324.167969 187.414062 C 325.214844 187.007812 326.113281 185.820312 327.0625 184.5625 C 328.179688 183.089844 329.332031 181.5625 330.992188 180.976562 C 332.585938 180.410156 334.40625 180.863281 336.160156 181.300781 C 337.660156 181.671875 339.210938 182.058594 340.339844 181.695312 C 341.410156 181.347656 342.378906 180.207031 343.398438 179.003906 C 344.589844 177.59375 345.824219 176.140625 347.507812 175.648438 C 349.144531 175.171875 350.933594 175.726562 352.667969 176.265625 C 354.136719 176.71875 355.660156 177.191406 356.800781 176.894531 C 357.898438 176.609375 358.929688 175.527344 360.019531 174.382812 C 361.292969 173.046875 362.605469 171.664062 364.3125 171.273438 C 365.976562 170.894531 367.734375 171.554688 369.4375 172.191406 C 370.878906 172.734375 372.367188 173.292969 373.523438 173.0625 C 374.019531 172.964844 374.503906 173.292969 374.605469 173.789062 C 374.703125 174.285156 374.375 174.769531 373.878906 174.871094 C 372.210938 175.199219 370.46875 174.546875 368.789062 173.914062 C 367.277344 173.34375 365.847656 172.808594 364.722656 173.066406 C 363.554688 173.332031 362.4375 174.511719 361.351562 175.648438 C 360.132812 176.933594 358.867188 178.257812 357.265625 178.675781 C 355.617188 179.105469 353.839844 178.554688 352.121094 178.019531 C 350.582031 177.542969 349.125 177.09375 348.023438 177.414062 C 346.871094 177.75 345.820312 178.992188 344.800781 180.191406 C 343.660156 181.542969 342.476562 182.9375 340.902344 183.445312 C 339.273438 183.96875 337.464844 183.519531 335.714844 183.085938 C 334.15625 182.695312 332.679688 182.328125 331.601562 182.710938 C 330.464844 183.113281 329.480469 184.414062 328.53125 185.671875 C 327.46875 187.082031 326.367188 188.539062 324.832031 189.128906 C 323.222656 189.746094 321.390625 189.398438 319.609375 189.054688 C 318.039062 188.753906 316.546875 188.472656 315.503906 188.90625 C 314.378906 189.375 313.464844 190.734375 312.582031 192.046875 C 311.597656 193.503906 310.582031 195.015625 309.089844 195.683594 C 307.503906 196.390625 305.644531 196.144531 303.84375 195.898438 C 302.265625 195.679688 300.769531 195.476562 299.761719 195.964844 C 298.648438 196.5 297.800781 197.914062 296.984375 199.28125 C 296.085938 200.785156 295.160156 202.335938 293.71875 203.078125 C 292.15625 203.882812 290.269531 203.730469 288.445312 203.578125 C 286.871094 203.453125 285.382812 203.332031 284.421875 203.859375 C 283.308594 204.472656 282.53125 205.949219 281.777344 207.378906 C 280.972656 208.90625 280.144531 210.488281 278.777344 211.289062 C 278.632812 211.375 278.472656 211.414062 278.3125 211.414062 " fill-opacity="1" fill-rule="nonzero"/><path fill="#000000" d="M 173.40625 468.265625 C 173.070312 468.265625 172.746094 468.078125 172.585938 467.757812 C 158.765625 440.28125 151.757812 410.828125 151.757812 380.210938 C 151.757812 374.910156 151.976562 369.558594 152.40625 364.300781 C 152.445312 363.796875 152.890625 363.417969 153.398438 363.460938 C 153.902344 363.5 154.28125 363.945312 154.238281 364.453125 C 153.8125 369.660156 153.597656 374.964844 153.597656 380.210938 C 153.597656 410.539062 160.539062 439.714844 174.226562 466.933594 C 174.457031 467.386719 174.273438 467.941406 173.820312 468.167969 C 173.6875 468.234375 173.546875 468.265625 173.40625 468.265625 " fill-opacity="1" fill-rule="nonzero"/><path fill="#000000" d="M 170.066406 440.445312 C 169.671875 440.445312 169.3125 440.195312 169.1875 439.800781 C 163.480469 421.710938 160.589844 402.882812 160.589844 383.835938 C 160.589844 378.757812 160.796875 373.625 161.207031 368.585938 C 161.25 368.082031 161.695312 367.703125 162.199219 367.746094 C 162.707031 367.785156 163.082031 368.230469 163.042969 368.738281 C 162.632812 373.726562 162.425781 378.804688 162.425781 383.835938 C 162.425781 402.695312 165.292969 421.335938 170.941406 439.25 C 171.09375 439.734375 170.824219 440.25 170.339844 440.402344 C 170.25 440.429688 170.15625 440.445312 170.066406 440.445312 " fill-opacity="1" fill-rule="nonzero"/><path fill="#000000" d="M 177.59375 378.800781 L 177.597656 378.800781 Z M 173.398438 374.796875 C 172.707031 374.796875 172.035156 375.015625 171.464844 375.429688 C 170.746094 375.945312 170.269531 376.714844 170.128906 377.589844 C 169.835938 379.402344 171.070312 381.113281 172.875 381.40625 C 173.75 381.542969 174.628906 381.339844 175.347656 380.816406 C 176.070312 380.300781 176.542969 379.53125 176.683594 378.652344 C 176.976562 376.84375 175.746094 375.132812 173.9375 374.84375 C 173.757812 374.816406 173.578125 374.796875 173.398438 374.796875 Z M 173.417969 383.285156 C 173.140625 383.285156 172.859375 383.265625 172.582031 383.21875 C 169.773438 382.765625 167.859375 380.109375 168.3125 377.300781 C 168.53125 375.9375 169.269531 374.742188 170.386719 373.9375 C 171.503906 373.128906 172.871094 372.808594 174.230469 373.027344 C 177.039062 373.480469 178.953125 376.136719 178.5 378.949219 C 178.28125 380.308594 177.542969 381.5 176.425781 382.3125 C 175.539062 382.953125 174.492188 383.285156 173.417969 383.285156 " fill-opacity="1" fill-rule="nonzero"/><path fill="#ffffff" d="M 205.640625 265.132812 C 243.492188 263.234375 275.628906 281.105469 276.332031 305.09375 C 276.589844 313.894531 275.925781 318.007812 267.21875 328.78125 L 278.816406 359.824219 L 248.488281 343.507812 C 237.460938 348.628906 221.164062 351.367188 209.945312 351.929688 C 172.09375 353.828125 140.441406 335.9375 139.25 311.96875 C 138.0625 288 167.785156 267.03125 205.640625 265.132812 " fill-opacity="1" fill-rule="nonzero"/><path fill="#000000" d="M 176.390625 267.828125 C 176.03125 267.828125 175.6875 267.617188 175.542969 267.261719 C 175.34375 266.796875 175.5625 266.257812 176.03125 266.058594 C 176.917969 265.6875 177.832031 265.320312 178.746094 264.96875 C 179.222656 264.789062 179.753906 265.023438 179.933594 265.5 C 180.117188 265.972656 179.878906 266.503906 179.40625 266.683594 C 178.507812 267.03125 177.613281 267.386719 176.746094 267.753906 C 176.628906 267.804688 176.507812 267.828125 176.390625 267.828125 " fill-opacity="1" fill-rule="nonzero"/><path fill="#000000" d="M 208.976562 347.316406 C 192.550781 347.316406 177.09375 343.636719 164.953125 336.773438 C 151.316406 329.066406 143.484375 318.257812 142.890625 306.339844 C 142.195312 292.363281 151.542969 279 168.535156 269.675781 C 168.980469 269.429688 169.539062 269.59375 169.785156 270.039062 C 170.027344 270.484375 169.863281 271.042969 169.417969 271.289062 C 153.070312 280.261719 144.070312 293.003906 144.726562 306.25 C 145.285156 317.515625 152.789062 327.789062 165.859375 335.175781 C 179.0625 342.636719 196.320312 346.246094 214.457031 345.335938 C 217.25 345.195312 220.054688 344.945312 222.800781 344.59375 C 223.308594 344.53125 223.765625 344.886719 223.828125 345.390625 C 223.894531 345.894531 223.539062 346.351562 223.035156 346.417969 C 220.246094 346.777344 217.390625 347.03125 214.550781 347.171875 C 212.683594 347.265625 210.820312 347.316406 208.976562 347.316406 " fill-opacity="1" fill-rule="nonzero"/><path fill="#000000" d="M 283.355469 354.734375 C 283.207031 354.734375 283.054688 354.699219 282.917969 354.625 L 252.957031 338.503906 C 249.65625 339.714844 239.824219 342.890625 236.945312 343.667969 C 236.457031 343.800781 235.953125 343.511719 235.820312 343.023438 C 235.683594 342.53125 235.976562 342.027344 236.464844 341.894531 C 239.441406 341.089844 249.910156 337.699219 252.699219 336.636719 C 252.949219 336.542969 253.226562 336.5625 253.464844 336.6875 L 281.570312 351.8125 L 270.421875 323.652344 C 270.292969 323.332031 270.359375 322.964844 270.589844 322.703125 C 278.199219 314.136719 280.484375 309.8125 279.972656 299.460938 C 279.414062 288.195312 271.90625 277.921875 258.839844 270.539062 C 245.636719 263.070312 228.375 259.46875 210.242188 260.375 C 205.964844 260.589844 201.699219 261.058594 197.558594 261.765625 C 197.058594 261.851562 196.582031 261.511719 196.496094 261.011719 C 196.410156 260.511719 196.746094 260.039062 197.25 259.953125 C 201.460938 259.230469 205.800781 258.757812 210.148438 258.539062 C 228.628906 257.609375 246.242188 261.304688 259.746094 268.9375 C 273.382812 276.644531 281.21875 287.453125 281.808594 299.371094 C 282.339844 310.109375 279.90625 314.917969 272.339844 323.503906 L 284.207031 353.476562 C 284.351562 353.835938 284.253906 354.246094 283.964844 354.5 C 283.792969 354.65625 283.574219 354.734375 283.355469 354.734375 " fill-opacity="1" fill-rule="nonzero"/><path fill="#000000" d="M 219.179688 298.140625 C 218.675781 298.140625 218.265625 297.734375 218.261719 297.230469 L 218.160156 286.222656 C 218.152344 285.714844 218.5625 285.300781 219.070312 285.296875 C 219.070312 285.296875 219.074219 285.296875 219.078125 285.296875 C 219.582031 285.296875 219.992188 285.699219 219.996094 286.207031 L 220.101562 297.214844 C 220.105469 297.722656 219.695312 298.136719 219.191406 298.140625 C 219.1875 298.140625 219.183594 298.140625 219.179688 298.140625 " fill-opacity="1" fill-rule="nonzero"/><path fill="#000000" d="M 200.585938 298.316406 C 200.082031 298.316406 199.671875 297.910156 199.664062 297.40625 L 199.5625 286.398438 C 199.558594 285.890625 199.964844 285.472656 200.472656 285.472656 C 200.476562 285.472656 200.480469 285.472656 200.480469 285.472656 C 200.984375 285.472656 201.394531 285.875 201.402344 286.378906 L 201.503906 297.386719 C 201.507812 297.894531 201.101562 298.3125 200.59375 298.316406 C 200.589844 298.316406 200.585938 298.316406 200.585938 298.316406 " fill-opacity="1" fill-rule="nonzero"/><path fill="#000000" d="M 191.394531 320.417969 C 191.140625 320.417969 190.882812 320.3125 190.703125 320.101562 C 190.367188 319.71875 190.40625 319.136719 190.789062 318.804688 C 201.878906 309.136719 218.109375 308.984375 229.375 318.441406 C 229.765625 318.769531 229.816406 319.351562 229.488281 319.738281 C 229.164062 320.128906 228.582031 320.179688 228.195312 319.851562 C 217.625 310.976562 202.402344 311.121094 192 320.191406 C 191.824219 320.34375 191.609375 320.417969 191.394531 320.417969 " fill-opacity="1" fill-rule="nonzero"/><path fill="#2b281c" d="M 452.871094 247.851562 L 402.09375 247.851562 L 402.09375 232.949219 C 402.09375 228.289062 405.867188 224.511719 410.527344 224.511719 L 443.847656 224.511719 C 448.832031 224.511719 452.871094 228.550781 452.871094 233.53125 L 452.871094 247.851562 " fill-opacity="1" fill-rule="nonzero"/><path fill="#2b281c" d="M 444.753906 231.980469 L 409.746094 231.980469 L 409.746094 208.042969 C 409.746094 199.4375 416.71875 192.464844 425.320312 192.464844 L 428.589844 192.464844 C 437.519531 192.464844 444.753906 199.703125 444.753906 208.628906 L 444.753906 231.980469 " fill-opacity="1" fill-rule="nonzero"/><path fill="#2b281c" d="M 427.894531 152.359375 L 427.832031 201.257812 L 425.050781 201.257812 L 425.042969 152.425781 C 425.988281 152.398438 426.933594 152.378906 427.871094 152.359375 L 427.894531 152.359375 " fill-opacity="1" fill-rule="nonzero"/><path fill="#696052" d="M 499.941406 293.097656 L 477.753906 293.097656 L 477.753906 212.953125 L 499.941406 212.953125 L 499.941406 293.097656 " fill-opacity="1" fill-rule="nonzero"/><path fill="#2b281c" d="M 495.140625 228.996094 C 495.140625 232.4375 492.351562 235.222656 488.914062 235.222656 C 485.480469 235.222656 482.691406 232.4375 482.691406 228.996094 C 482.691406 225.558594 485.480469 222.765625 488.914062 222.765625 C 492.351562 222.765625 495.140625 225.558594 495.140625 228.996094 " fill-opacity="1" fill-rule="nonzero"/><path fill="#696052" d="M 524.496094 292.691406 L 502.308594 292.691406 L 502.308594 212.546875 L 524.496094 212.546875 L 524.496094 292.691406 " fill-opacity="1" fill-rule="nonzero"/><path fill="#2b281c" d="M 519.695312 228.589844 C 519.695312 232.027344 516.90625 234.820312 513.46875 234.820312 C 510.035156 234.820312 507.246094 232.027344 507.246094 228.589844 C 507.246094 225.148438 510.035156 222.363281 513.46875 222.363281 C 516.90625 222.363281 519.695312 225.148438 519.695312 228.589844 " fill-opacity="1" fill-rule="nonzero"/><path fill="#696052" d="M 549.457031 292.691406 L 527.269531 292.691406 L 527.269531 212.546875 L 549.457031 212.546875 L 549.457031 292.691406 " fill-opacity="1" fill-rule="nonzero"/><path fill="#2b281c" d="M 544.65625 228.589844 C 544.65625 232.027344 541.867188 234.820312 538.433594 234.820312 C 534.996094 234.820312 532.207031 232.027344 532.207031 228.589844 C 532.207031 225.148438 534.996094 222.363281 538.433594 222.363281 C 541.867188 222.363281 544.65625 225.148438 544.65625 228.589844 " fill-opacity="1" fill-rule="nonzero"/><path fill="#696052" d="M 574.015625 292.488281 L 551.824219 292.488281 L 551.824219 212.34375 L 574.015625 212.34375 L 574.015625 292.488281 " fill-opacity="1" fill-rule="nonzero"/><path fill="#2b281c" d="M 569.210938 228.386719 C 569.210938 231.824219 566.425781 234.617188 562.988281 234.617188 C 559.550781 234.617188 556.765625 231.824219 556.765625 228.386719 C 556.765625 224.949219 559.550781 222.160156 562.988281 222.160156 C 566.425781 222.160156 569.210938 224.949219 569.210938 228.386719 " fill-opacity="1" fill-rule="nonzero"/><path fill="#696052" d="M 598.976562 292.488281 L 576.789062 292.488281 L 576.789062 212.34375 L 598.976562 212.34375 L 598.976562 292.488281 " fill-opacity="1" fill-rule="nonzero"/><path fill="#2b281c" d="M 594.171875 228.386719 C 594.171875 231.824219 591.386719 234.617188 587.949219 234.617188 C 584.511719 234.617188 581.722656 231.824219 581.722656 228.386719 C 581.722656 224.949219 584.511719 222.160156 587.949219 222.160156 C 591.386719 222.160156 594.171875 224.949219 594.171875 228.386719 " fill-opacity="1" fill-rule="nonzero"/><path fill="#2b281c" d="M 611.539062 296.75 L 465.144531 296.75 L 465.144531 289.898438 L 611.539062 289.898438 L 611.539062 296.75 " fill-opacity="1" fill-rule="nonzero"/><path fill="#2b281c" d="M 611.539062 296.75 L 465.144531 296.75 L 465.144531 289.898438 L 611.539062 289.898438 L 611.539062 296.75 " fill-opacity="1" fill-rule="nonzero"/><path fill="#696052" d="M 466.0625 295.835938 L 610.621094 295.835938 L 610.621094 290.820312 L 466.0625 290.820312 Z M 612.460938 297.671875 L 464.222656 297.671875 L 464.222656 288.984375 L 612.460938 288.984375 L 612.460938 297.671875 " fill-opacity="1" fill-rule="nonzero"/><path fill="#000000" d="M 607.703125 365.191406 C 607.542969 365.191406 607.378906 365.148438 607.234375 365.0625 C 606.796875 364.804688 606.652344 364.238281 606.910156 363.804688 L 633.128906 319.496094 C 633.386719 319.0625 633.949219 318.917969 634.386719 319.175781 C 634.824219 319.433594 634.96875 319.996094 634.707031 320.433594 L 608.496094 364.742188 C 608.324219 365.03125 608.015625 365.191406 607.703125 365.191406 " fill-opacity="1" fill-rule="nonzero"/><path fill="#000000" d="M 616.53125 365.191406 C 616.320312 365.191406 616.117188 365.121094 615.941406 364.980469 C 615.550781 364.652344 615.5 364.074219 615.824219 363.683594 L 636.109375 339.277344 C 636.429688 338.886719 637.011719 338.832031 637.402344 339.15625 C 637.792969 339.484375 637.847656 340.058594 637.519531 340.453125 L 617.238281 364.859375 C 617.054688 365.078125 616.792969 365.191406 616.53125 365.191406 " fill-opacity="1" fill-rule="nonzero"/><path fill="#000000" d="M 600.480469 365.191406 C 600.402344 365.191406 600.324219 365.183594 600.246094 365.164062 C 599.753906 365.035156 599.460938 364.53125 599.585938 364.039062 L 603.578125 348.699219 C 603.707031 348.207031 604.207031 347.910156 604.703125 348.039062 C 605.191406 348.167969 605.488281 348.671875 605.359375 349.160156 L 601.371094 364.503906 C 601.261719 364.917969 600.886719 365.191406 600.480469 365.191406 " fill-opacity="1" fill-rule="nonzero"/><path fill="#000000" d="M 497.894531 377.539062 C 497.605469 377.539062 497.320312 377.402344 497.140625 377.148438 L 471.824219 341.292969 C 471.535156 340.878906 471.632812 340.308594 472.046875 340.015625 C 472.460938 339.722656 473.039062 339.820312 473.328125 340.234375 L 498.644531 376.085938 C 498.9375 376.503906 498.835938 377.078125 498.421875 377.371094 C 498.261719 377.484375 498.078125 377.539062 497.894531 377.539062 " fill-opacity="1" fill-rule="nonzero"/><path fill="#000000" d="M 504.875 372.652344 C 504.511719 372.652344 504.167969 372.433594 504.023438 372.074219 L 492.640625 343.574219 C 492.453125 343.101562 492.683594 342.566406 493.152344 342.378906 C 493.621094 342.191406 494.160156 342.417969 494.347656 342.890625 L 505.730469 371.394531 C 505.917969 371.863281 505.691406 372.398438 505.21875 372.589844 C 505.105469 372.632812 504.988281 372.652344 504.875 372.652344 " fill-opacity="1" fill-rule="nonzero"/><path fill="#000000" d="M 513.949219 372.652344 C 513.445312 372.652344 513.03125 372.242188 513.03125 371.734375 L 513.03125 348.929688 C 513.03125 348.421875 513.445312 348.007812 513.949219 348.007812 C 514.457031 348.007812 514.871094 348.421875 514.871094 348.929688 L 514.871094 371.734375 C 514.871094 372.242188 514.457031 372.652344 513.949219 372.652344 " fill-opacity="1" fill-rule="nonzero"/><g clip-path="url(#c71b3d7944)"><g clip-path="url(#14e1c7b363)"><g transform="matrix(1, 0, 0, 1, 1380, 610)"><g clip-path="url(#1daa26c4e6)"><g clip-path="url(#7e7183d4f5)"><g clip-path="url(#48cce5f8aa)"><path fill="#ff8a15" d="M 0.523438 0.0507812 L 119.476562 0.0507812 L 119.476562 119 L 0.523438 119 Z M 0.523438 0.0507812 " fill-opacity="1" fill-rule="nonzero"/></g></g></g></g></g></g><g clip-path="url(#b8247dd66e)"><path fill="#ff8a15" d="M 37.117188 53.683594 L 38.480469 52.3125 L 43.816406 46.921875 L 50.507812 53.683594 L 53.976562 50.1875 L 50.722656 46.914062 L 47.265625 43.40625 L 43.816406 39.921875 L 33.65625 50.1875 Z M 37.117188 53.683594 " fill-opacity="1" fill-rule="nonzero"/></g><g clip-path="url(#dd87802fc4)"><path fill="#ff8a15" d="M 54.15625 43.433594 L 60.855469 50.207031 L 64.3125 46.707031 L 54.15625 36.441406 L 48.332031 42.324219 L 51.800781 45.824219 Z M 54.15625 43.433594 " fill-opacity="1" fill-rule="nonzero"/></g><g clip-path="url(#d7d69fdf7d)"><g clip-path="url(#c439daf56a)"><g transform="matrix(1, 0, 0, 1, 729, 518)"><g clip-path="url(#a79e279672)"><g clip-path="url(#fdf6a97468)"><g clip-path="url(#c5af7ce30b)"><path fill="#ff8a15" d="M 0.0429688 0.773438 L 216.246094 0.773438 L 216.246094 14.449219 L 0.0429688 14.449219 Z M 0.0429688 0.773438 " fill-opacity="1" fill-rule="nonzero"/></g></g></g></g></g></g><g clip-path="url(#87ddfde3aa)"><g clip-path="url(#6806cc3040)"><g transform="matrix(1, 0, 0, 1, 1226, 63)"><g clip-path="url(#a4743e70d4)"><g clip-path="url(#a547720a4b)"><g clip-path="url(#91b6344c4e)"><path fill="#ff8a15" d="M 0.6875 0.921875 L 65.535156 0.921875 L 65.535156 35.078125 L 0.6875 35.078125 Z M 0.6875 0.921875 " fill-opacity="1" fill-rule="nonzero"/></g></g></g></g></g></g><g clip-path="url(#f60d847f21)"><g clip-path="url(#b343a5f310)"><g transform="matrix(1, 0, 0, 1, 75, 173)"><g clip-path="url(#f2e7f6387a)"><g clip-path="url(#4647cad290)"><g clip-path="url(#cd471e594a)"><path fill="#ff8a15" d="M 0.554688 0.710938 L 42.019531 0.710938 L 42.019531 22.550781 L 0.554688 22.550781 Z M 0.554688 0.710938 " fill-opacity="1" fill-rule="nonzero"/></g></g></g></g></g></g><g clip-path="url(#aff48893d7)"><g clip-path="url(#2d3800e279)"><g transform="matrix(1, 0, 0, 1, 687, 647)"><g clip-path="url(#f9da451478)"><g clip-path="url(#94d1238758)"><g clip-path="url(#dfa2730a0a)"><path fill="#ff8a15" d="M 0.582031 0.683594 L 42.046875 0.683594 L 42.046875 22.523438 L 0.582031 22.523438 Z M 0.582031 0.683594 " fill-opacity="1" fill-rule="nonzero"/></g></g></g></g></g></g><g clip-path="url(#4ffd0fa266)"><g clip-path="url(#833ef68d06)"><g transform="matrix(1, 0, 0, 1, 646, 117)"><g clip-path="url(#883f67a8d3)"><g clip-path="url(#1c6c5e0fc7)"><g clip-path="url(#d5f6ef1177)"><path fill="#ff8a15" d="M 0.121094 0.710938 L 41.585938 0.710938 L 41.585938 22.550781 L 0.121094 22.550781 Z M 0.121094 0.710938 " fill-opacity="1" fill-rule="nonzero"/></g></g></g></g></g></g></svg>