<svg xmlns="http://www.w3.org/2000/svg" xmlns:xlink="http://www.w3.org/1999/xlink" width="1920" zoomAndPan="magnify" viewBox="0 0 1440 809.999993" height="1080" preserveAspectRatio="xMidYMid meet" version="1.0"><defs><clipPath id="cdd9b24073"><path d="M 1380.523438 610.050781 L 1440 610.050781 L 1440 729 L 1380.523438 729 Z M 1380.523438 610.050781 " clip-rule="nonzero"/></clipPath><clipPath id="7397e67f3a"><path d="M 1440 610.050781 C 1407.152344 610.050781 1380.523438 636.675781 1380.523438 669.523438 C 1380.523438 702.371094 1407.152344 729 1440 729 C 1472.847656 729 1499.476562 702.371094 1499.476562 669.523438 C 1499.476562 636.675781 1472.847656 610.050781 1440 610.050781 Z M 1440 610.050781 " clip-rule="nonzero"/></clipPath><clipPath id="7ea92fe4c7"><path d="M 0.523438 0.0507812 L 60 0.0507812 L 60 119 L 0.523438 119 Z M 0.523438 0.0507812 " clip-rule="nonzero"/></clipPath><clipPath id="b9e8705757"><path d="M 60 0.0507812 C 27.152344 0.0507812 0.523438 26.675781 0.523438 59.523438 C 0.523438 92.371094 27.152344 119 60 119 C 92.847656 119 119.476562 92.371094 119.476562 59.523438 C 119.476562 26.675781 92.847656 0.0507812 60 0.0507812 Z M 60 0.0507812 " clip-rule="nonzero"/></clipPath><clipPath id="e6d7645338"><rect x="0" width="60" y="0" height="119"/></clipPath><clipPath id="98d01320d9"><path d="M 272 500 L 1150 500 L 1150 810 L 272 810 Z M 272 500 " clip-rule="nonzero"/></clipPath><clipPath id="ae4f1c9551"><path d="M 292.363281 433.019531 L 1192.273438 516.25 L 1121.75 1278.746094 L 221.839844 1195.515625 Z M 292.363281 433.019531 " clip-rule="nonzero"/></clipPath><clipPath id="c5a36ee9eb"><path d="M 292.363281 433.019531 L 1192.273438 516.25 L 1121.75 1278.746094 L 221.839844 1195.515625 Z M 292.363281 433.019531 " clip-rule="nonzero"/></clipPath><clipPath id="971d539965"><path d="M 1186.824219 157.8125 L 1228.375 157.8125 L 1228.375 179.65625 L 1186.824219 179.65625 Z M 1186.824219 157.8125 " clip-rule="nonzero"/></clipPath><clipPath id="a903380643"><path d="M 1192.875 179.65625 C 1192.089844 179.65625 1191.304688 179.492188 1190.519531 179.164062 C 1187.445312 177.855469 1186.007812 174.324219 1187.316406 171.25 C 1190.746094 163.078125 1198.695312 157.8125 1207.554688 157.8125 C 1216.417969 157.8125 1224.363281 163.078125 1227.828125 171.25 C 1229.136719 174.324219 1227.695312 177.890625 1224.625 179.164062 C 1221.550781 180.472656 1217.984375 179.035156 1216.710938 175.960938 C 1215.140625 172.296875 1211.542969 169.910156 1207.554688 169.910156 C 1203.566406 169.910156 1200 172.296875 1198.433594 175.960938 C 1197.484375 178.25 1195.226562 179.65625 1192.875 179.65625 Z M 1192.875 179.65625 " clip-rule="nonzero"/></clipPath><clipPath id="f62bd00c1a"><path d="M 0.824219 0.8125 L 42.320312 0.8125 L 42.320312 22.65625 L 0.824219 22.65625 Z M 0.824219 0.8125 " clip-rule="nonzero"/></clipPath><clipPath id="afbf5247b1"><path d="M 6.875 22.65625 C 6.089844 22.65625 5.304688 22.492188 4.519531 22.164062 C 1.445312 20.855469 0.0078125 17.324219 1.316406 14.25 C 4.746094 6.078125 12.695312 0.8125 21.554688 0.8125 C 30.417969 0.8125 38.363281 6.078125 41.828125 14.25 C 43.136719 17.324219 41.695312 20.890625 38.625 22.164062 C 35.550781 23.472656 31.984375 22.035156 30.710938 18.960938 C 29.140625 15.296875 25.542969 12.910156 21.554688 12.910156 C 17.566406 12.910156 14 15.296875 12.433594 18.960938 C 11.484375 21.25 9.226562 22.65625 6.875 22.65625 Z M 6.875 22.65625 " clip-rule="nonzero"/></clipPath><clipPath id="15d1d1cb94"><rect x="0" width="43" y="0" height="23"/></clipPath><clipPath id="e670a03250"><path d="M 211.714844 157.8125 L 253.265625 157.8125 L 253.265625 179.65625 L 211.714844 179.65625 Z M 211.714844 157.8125 " clip-rule="nonzero"/></clipPath><clipPath id="0c5a201007"><path d="M 217.761719 179.65625 C 216.980469 179.65625 216.195312 179.492188 215.410156 179.164062 C 212.335938 177.855469 210.898438 174.324219 212.203125 171.25 C 215.636719 163.078125 223.582031 157.8125 232.445312 157.8125 C 241.304688 157.8125 249.253906 163.078125 252.71875 171.25 C 254.027344 174.324219 252.585938 177.890625 249.511719 179.164062 C 246.441406 180.472656 242.875 179.035156 241.601562 175.960938 C 240.03125 172.296875 236.433594 169.910156 232.445312 169.910156 C 228.457031 169.910156 224.890625 172.296875 223.324219 175.960938 C 222.375 178.25 220.117188 179.65625 217.761719 179.65625 Z M 217.761719 179.65625 " clip-rule="nonzero"/></clipPath><clipPath id="8a84c97b67"><path d="M 0.714844 0.8125 L 42.199219 0.8125 L 42.199219 22.65625 L 0.714844 22.65625 Z M 0.714844 0.8125 " clip-rule="nonzero"/></clipPath><clipPath id="818f38e7e4"><path d="M 6.761719 22.65625 C 5.980469 22.65625 5.195312 22.492188 4.410156 22.164062 C 1.335938 20.855469 -0.101562 17.324219 1.203125 14.25 C 4.636719 6.078125 12.582031 0.8125 21.445312 0.8125 C 30.304688 0.8125 38.253906 6.078125 41.71875 14.25 C 43.027344 17.324219 41.585938 20.890625 38.511719 22.164062 C 35.441406 23.472656 31.875 22.035156 30.601562 18.960938 C 29.03125 15.296875 25.433594 12.910156 21.445312 12.910156 C 17.457031 12.910156 13.890625 15.296875 12.324219 18.960938 C 11.375 21.25 9.117188 22.65625 6.761719 22.65625 Z M 6.761719 22.65625 " clip-rule="nonzero"/></clipPath><clipPath id="f030202d1f"><rect x="0" width="43" y="0" height="23"/></clipPath></defs><rect x="-144" width="1728" fill="#ffffff" y="-80.999999" height="971.999992" fill-opacity="1"/><rect x="-144" width="1728" fill="#ffffff" y="-80.999999" height="971.999992" fill-opacity="1"/><g clip-path="url(#cdd9b24073)"><g clip-path="url(#7397e67f3a)"><g transform="matrix(1, 0, 0, 1, 1380, 610)"><g clip-path="url(#e6d7645338)"><g clip-path="url(#7ea92fe4c7)"><g clip-path="url(#b9e8705757)"><path fill="#ff8a15" d="M 0.523438 0.0507812 L 119.476562 0.0507812 L 119.476562 119 L 0.523438 119 Z M 0.523438 0.0507812 " fill-opacity="1" fill-rule="nonzero"/></g></g></g></g></g></g><g clip-path="url(#98d01320d9)"><g clip-path="url(#ae4f1c9551)"><g clip-path="url(#c5a36ee9eb)"><path fill="#ececec" d="M 303.738281 589.355469 C 274.5625 630.855469 280.109375 687.773438 289.570312 738.019531 C 299.023438 788.277344 310.714844 842.289062 290.585938 889.246094 C 284.503906 903.445312 275.585938 916.664062 273.058594 931.964844 C 268.226562 961.179688 288.886719 989.425781 314.292969 1002.359375 C 339.691406 1015.289062 368.9375 1016.578125 397.199219 1018.605469 C 425.464844 1020.636719 454.929688 1024.097656 478.449219 1040.425781 C 526.183594 1073.554688 532.214844 1145.644531 571.480469 1189.234375 C 601.296875 1222.34375 647.480469 1234.964844 691.152344 1232.933594 C 734.828125 1230.910156 776.984375 1215.980469 818.441406 1201.203125 C 879.851562 1179.304688 941.734375 1157.191406 997.8125 1122.960938 C 1049.957031 1091.132812 1097.347656 1047.832031 1125.28125 991.921875 C 1153.226562 936.011719 1159.433594 866.394531 1132.445312 810.449219 C 1110.296875 764.554688 1066.515625 725.269531 1069.859375 673.800781 C 1071.820312 643.554688 1090.605469 615.46875 1088.089844 585.304688 C 1082.335938 516.410156 990.824219 497.671875 938.5 500.375 C 875.894531 503.609375 820.929688 535.210938 773.625 576.445312 C 743.019531 603.117188 713.25 637.285156 670.859375 639.308594 C 607.691406 642.324219 548.519531 588.898438 493.328125 564.28125 C 433.859375 537.75 348.078125 526.277344 303.738281 589.355469 " fill-opacity="1" fill-rule="nonzero"/></g></g></g><path fill="#ececec" d="M 502.597656 640.855469 C 541.625 601.222656 476.082031 529.101562 494.363281 475.761719 C 518.980469 403.957031 711.234375 340.691406 846.019531 418.863281 C 958.894531 484.332031 998.085938 631.691406 948.777344 691.253906 C 934.015625 709.082031 915.652344 713.824219 891.53125 732.46875 C 869.089844 749.808594 866.5625 754.234375 864.949219 757.253906 C 848.988281 787.035156 882.554688 813.171875 875.796875 838.714844 C 865.125 879.074219 758.398438 900.605469 669.148438 886.945312 C 645.082031 883.261719 523.117188 861.84375 478.257812 772.851562 C 474.785156 765.964844 441.941406 699.457031 472.851562 662.457031 C 483.566406 649.625 492.191406 651.421875 502.597656 640.855469 " fill-opacity="1" fill-rule="nonzero"/><path fill="#000000" d="M 494.035156 450.65625 C 493.742188 450.65625 493.457031 450.523438 493.277344 450.261719 L 473.078125 421.253906 C 472.785156 420.839844 472.886719 420.265625 473.304688 419.972656 C 473.722656 419.679688 474.296875 419.785156 474.589844 420.199219 L 494.789062 449.210938 C 495.082031 449.628906 494.976562 450.203125 494.558594 450.496094 C 494.398438 450.605469 494.214844 450.65625 494.035156 450.65625 " fill-opacity="1" fill-rule="nonzero"/><path fill="#000000" d="M 502.039062 447.015625 C 501.691406 447.015625 501.359375 446.816406 501.203125 446.484375 L 485.859375 413.953125 C 485.640625 413.488281 485.839844 412.941406 486.300781 412.726562 C 486.757812 412.507812 487.3125 412.703125 487.527344 413.167969 L 502.871094 445.699219 C 503.085938 446.160156 502.890625 446.710938 502.429688 446.925781 C 502.304688 446.988281 502.167969 447.015625 502.039062 447.015625 " fill-opacity="1" fill-rule="nonzero"/><path fill="#000000" d="M 510.046875 445.390625 C 509.621094 445.390625 509.234375 445.089844 509.144531 444.652344 L 502.199219 410.414062 C 502.101562 409.914062 502.421875 409.425781 502.921875 409.328125 C 503.421875 409.226562 503.90625 409.546875 504.007812 410.046875 L 510.953125 444.285156 C 511.054688 444.785156 510.730469 445.273438 510.234375 445.371094 C 510.171875 445.386719 510.109375 445.390625 510.046875 445.390625 " fill-opacity="1" fill-rule="nonzero"/><path fill="#696052" d="M 784.664062 702.695312 L 685.328125 703.320312 C 684.683594 703.320312 684.472656 703.917969 684.472656 704.488281 L 684.472656 789.007812 C 684.472656 797.097656 628.03125 818.125 627.480469 817.054688 L 627.410156 826 C 627.40625 827.664062 628.871094 829.144531 630.738281 829.144531 L 631.980469 829.144531 C 631.988281 829.144531 631.996094 829.144531 632.003906 829.144531 L 715.292969 829.144531 C 719.160156 829.144531 722.976562 828.277344 726.476562 826.8125 L 772.269531 807.53125 C 780.511719 804.058594 785.710938 796.605469 785.710938 788.472656 L 785.710938 703.867188 C 785.710938 703.292969 785.308594 702.695312 784.664062 702.695312 " fill-opacity="1" fill-rule="nonzero"/><path fill="#ffffff" d="M 674.410156 698.394531 L 674.410156 782.933594 C 674.410156 791.265625 669.046875 798.855469 660.621094 802.457031 L 629.730469 815.640625 C 627.710938 816.5 628.398438 819.203125 630.636719 819.203125 L 715.511719 819.203125 C 719.332031 819.203125 723.097656 818.453125 726.550781 816.996094 L 760.78125 802.589844 C 769.269531 799.011719 774.6875 791.390625 774.6875 783.015625 L 774.6875 698.394531 C 774.6875 698.046875 774.371094 697.769531 773.984375 697.769531 L 675.113281 697.769531 C 674.726562 697.769531 674.410156 698.046875 674.410156 698.394531 " fill-opacity="1" fill-rule="nonzero"/><path fill="#000000" d="M 675.332031 698.691406 L 675.332031 782.933594 C 675.332031 791.585938 669.699219 799.582031 660.984375 803.300781 L 630.089844 816.488281 C 629.410156 816.777344 629.429688 817.277344 629.472656 817.476562 C 629.546875 817.851562 629.898438 818.28125 630.636719 818.28125 L 715.511719 818.28125 C 719.183594 818.28125 722.878906 817.542969 726.195312 816.148438 L 760.421875 801.738281 C 768.527344 798.328125 773.765625 790.976562 773.765625 783.015625 L 773.765625 698.691406 Z M 715.511719 820.125 L 630.636719 820.125 C 629.160156 820.125 627.9375 819.191406 627.664062 817.847656 C 627.402344 816.566406 628.085938 815.339844 629.367188 814.792969 L 660.257812 801.605469 C 668.296875 798.175781 673.488281 790.847656 673.488281 782.933594 L 673.488281 698.394531 C 673.488281 697.539062 674.21875 696.847656 675.113281 696.847656 L 773.984375 696.847656 C 774.878906 696.847656 775.609375 697.539062 775.609375 698.394531 L 775.609375 783.015625 C 775.609375 791.71875 769.925781 799.738281 761.136719 803.4375 L 726.910156 817.847656 C 723.367188 819.339844 719.429688 820.125 715.511719 820.125 " fill-opacity="1" fill-rule="nonzero"/><path fill="#ff8a15" d="M 489.300781 745.671875 L 917.480469 746.632812 C 921.226562 746.632812 924.960938 743.816406 925.441406 740.089844 L 959.644531 473.339844 C 960.472656 466.847656 955.449219 460.390625 948.988281 460.546875 L 525.777344 462.789062 L 489.300781 745.671875 " fill-opacity="1" fill-rule="nonzero"/><path fill="#696052" d="M 932.171875 461.488281 C 939.539062 461.488281 946.191406 468.957031 945.25 476.28125 L 911.46875 740.023438 C 910.992188 743.746094 907.003906 746.898438 903.257812 746.898438 L 482.660156 746.214844 C 478.167969 746.214844 475.167969 742.488281 475.742188 738.019531 L 510.722656 469.390625 C 511.203125 465.664062 513.667969 461.488281 517.410156 461.488281 L 932.171875 461.488281 " fill-opacity="1" fill-rule="nonzero"/><path fill="#000000" d="M 483.703125 748.027344 C 481.296875 748.027344 479.007812 746.992188 477.421875 745.1875 C 475.824219 743.371094 475.089844 740.960938 475.398438 738.5625 L 483.953125 672.660156 C 484.019531 672.152344 484.480469 671.796875 484.988281 671.863281 C 485.492188 671.929688 485.847656 672.390625 485.785156 672.898438 L 477.226562 738.800781 C 476.984375 740.667969 477.558594 742.550781 478.804688 743.96875 C 480.042969 745.375 481.828125 746.183594 483.699219 746.183594 L 904.015625 745.421875 C 907.277344 745.421875 910.390625 742.625 910.816406 739.308594 L 944.757812 475.613281 C 945.167969 472.378906 944.175781 469.117188 942.023438 466.675781 C 939.878906 464.238281 936.792969 462.839844 933.554688 462.839844 L 859.730469 462.839844 C 859.222656 462.839844 858.808594 462.429688 858.808594 461.917969 C 858.808594 461.410156 859.222656 460.996094 859.730469 460.996094 L 933.554688 460.996094 C 937.320312 460.996094 940.914062 462.621094 943.40625 465.453125 C 945.910156 468.300781 947.066406 472.085938 946.582031 475.847656 L 912.644531 739.546875 C 912.105469 743.730469 908.15625 747.265625 904.015625 747.265625 L 483.703125 748.027344 " fill-opacity="1" fill-rule="nonzero"/><path fill="#ffffff" d="M 553.242188 511.511719 C 553.496094 509.539062 555.171875 508.0625 557.152344 508.0625 L 903.414062 508.0625 C 907.3125 508.0625 910.324219 511.5 909.824219 515.375 L 882.359375 721.285156 C 882.101562 723.253906 880.429688 724.730469 878.449219 724.730469 L 528.859375 724.730469 C 526.703125 724.730469 525.039062 722.832031 525.324219 720.695312 L 553.242188 511.511719 " fill-opacity="1" fill-rule="nonzero"/><path fill="#ececec" d="M 852.277344 578.398438 L 595.261719 578.398438 C 591.542969 578.398438 588.675781 575.121094 589.164062 571.4375 L 597.277344 508.71875 L 866.703125 508.71875 L 858.375 573.054688 C 857.972656 576.113281 855.363281 578.398438 852.277344 578.398438 " fill-opacity="1" fill-rule="nonzero"/><path fill="#ff8a15" d="M 903.414062 508.0625 C 907.3125 508.0625 910.324219 511.5 909.824219 515.375 L 906.851562 532.664062 L 549.902344 532.601562 L 553.242188 511.511719 C 553.496094 509.539062 555.171875 508.0625 557.152344 508.0625 L 903.414062 508.0625 " fill-opacity="1" fill-rule="nonzero"/><path fill="#000000" d="M 536.21875 640.128906 C 536.179688 640.128906 536.136719 640.125 536.097656 640.117188 C 535.589844 640.050781 535.234375 639.585938 535.304688 639.082031 L 552.328125 511.386719 C 552.640625 508.96875 554.714844 507.140625 557.152344 507.140625 L 839.441406 507.011719 C 839.953125 507.011719 840.367188 507.425781 840.367188 507.9375 C 840.367188 508.445312 839.953125 508.855469 839.445312 508.859375 L 557.152344 508.984375 C 555.640625 508.984375 554.351562 510.117188 554.160156 511.628906 L 537.132812 639.324219 C 537.070312 639.785156 536.675781 640.128906 536.21875 640.128906 " fill-opacity="1" fill-rule="nonzero"/><path fill="#000000" d="M 778.292969 725.652344 L 645.261719 725.652344 C 644.753906 725.652344 644.339844 725.238281 644.339844 724.730469 C 644.339844 724.222656 644.753906 723.808594 645.261719 723.808594 L 778.292969 723.808594 C 778.800781 723.808594 779.214844 724.222656 779.214844 724.730469 C 779.214844 725.238281 778.800781 725.652344 778.292969 725.652344 " fill-opacity="1" fill-rule="nonzero"/><path fill="#000000" d="M 885.238281 700.34375 C 885.199219 700.34375 885.15625 700.339844 885.113281 700.335938 C 884.609375 700.265625 884.257812 699.800781 884.324219 699.296875 L 888.71875 667.359375 C 888.792969 666.851562 889.253906 666.5 889.757812 666.570312 C 890.265625 666.640625 890.617188 667.105469 890.550781 667.613281 L 886.152344 699.546875 C 886.089844 700.011719 885.691406 700.34375 885.238281 700.34375 " fill-opacity="1" fill-rule="nonzero"/><path fill="#000000" d="M 901.59375 577.476562 C 901.550781 577.476562 901.511719 577.472656 901.46875 577.464844 C 900.960938 577.394531 900.609375 576.933594 900.675781 576.425781 L 908.910156 515.253906 C 909.109375 513.671875 908.621094 512.070312 907.566406 510.871094 C 906.515625 509.671875 905 508.988281 903.410156 508.988281 L 871.890625 508.988281 C 871.382812 508.988281 870.96875 508.574219 870.96875 508.066406 C 870.96875 507.554688 871.382812 507.144531 871.890625 507.144531 L 903.410156 507.144531 C 905.53125 507.144531 907.550781 508.058594 908.949219 509.652344 C 910.359375 511.25 911.007812 513.378906 910.734375 515.496094 L 902.5 576.671875 C 902.441406 577.136719 902.046875 577.476562 901.59375 577.476562 " fill-opacity="1" fill-rule="nonzero"/><path fill="#696052" d="M 641.472656 599.046875 L 610.242188 599.046875 C 607.191406 599.046875 604.835938 596.359375 605.234375 593.332031 L 609.386719 562.015625 C 609.714844 559.503906 611.859375 557.625 614.390625 557.625 L 645.621094 557.625 C 648.675781 557.625 651.03125 560.3125 650.628906 563.339844 L 646.480469 594.660156 C 646.148438 597.171875 644.007812 599.046875 641.472656 599.046875 " fill-opacity="1" fill-rule="nonzero"/><path fill="#ececec" d="M 711.160156 645.816406 C 711.476562 643.355469 709.558594 641.175781 707.078125 641.175781 L 579.082031 641.175781 C 577.007812 641.175781 575.257812 642.71875 574.996094 644.773438 C 574.683594 647.234375 576.601562 649.410156 579.082031 649.410156 L 707.078125 649.410156 C 709.152344 649.410156 710.902344 647.871094 711.160156 645.816406 " fill-opacity="1" fill-rule="nonzero"/><path fill="#ececec" d="M 728.929688 521.460938 C 729.242188 519 727.324219 516.820312 724.84375 516.820312 L 596.847656 516.820312 C 594.773438 516.820312 593.023438 518.363281 592.761719 520.417969 C 592.449219 522.875 594.367188 525.054688 596.847656 525.054688 L 724.84375 525.054688 C 726.917969 525.054688 728.667969 523.515625 728.929688 521.460938 " fill-opacity="1" fill-rule="nonzero"/><path fill="#ececec" d="M 859.710938 521.460938 C 860.023438 519 858.105469 516.820312 855.625 516.820312 L 843.9375 516.820312 C 841.863281 516.820312 840.121094 518.363281 839.855469 520.417969 C 839.539062 522.875 841.457031 525.054688 843.9375 525.054688 L 855.625 525.054688 C 857.699219 525.054688 859.445312 523.515625 859.710938 521.460938 " fill-opacity="1" fill-rule="nonzero"/><path fill="#ececec" d="M 705.28125 692.859375 C 705.597656 690.402344 703.679688 688.222656 701.199219 688.222656 L 573.199219 688.222656 C 571.128906 688.222656 569.378906 689.761719 569.117188 691.816406 C 568.800781 694.277344 570.71875 696.453125 573.199219 696.453125 L 701.199219 696.453125 C 703.273438 696.453125 705.019531 694.917969 705.28125 692.859375 " fill-opacity="1" fill-rule="nonzero"/><path fill="#ececec" d="M 736.390625 664.699219 L 576.140625 664.699219 C 574.066406 664.699219 572.320312 666.238281 572.058594 668.296875 C 571.742188 670.753906 573.660156 672.933594 576.140625 672.933594 L 736.390625 672.933594 C 738.453125 672.933594 740.199219 671.40625 740.46875 669.359375 C 740.796875 666.890625 738.878906 664.699219 736.390625 664.699219 " fill-opacity="1" fill-rule="nonzero"/><path fill="#ececec" d="M 742.628906 617.65625 L 582.019531 617.65625 C 579.949219 617.65625 578.199219 619.195312 577.9375 621.25 C 577.625 623.710938 579.539062 625.890625 582.019531 625.890625 L 742.628906 625.890625 C 744.691406 625.890625 746.4375 624.363281 746.707031 622.316406 C 747.035156 619.847656 745.117188 617.65625 742.628906 617.65625 " fill-opacity="1" fill-rule="nonzero"/><path fill="#000000" d="M 778.980469 686.984375 L 776.570312 686.984375 C 775.167969 686.984375 773.835938 686.378906 772.914062 685.324219 C 771.992188 684.265625 771.574219 682.863281 771.765625 681.472656 L 781.605469 610.042969 C 781.9375 607.65625 784.003906 605.855469 786.414062 605.855469 L 841.367188 605.855469 C 842.769531 605.855469 844.101562 606.460938 845.023438 607.515625 C 845.945312 608.574219 846.363281 609.976562 846.171875 611.367188 L 845.953125 612.964844 C 845.882812 613.46875 845.414062 613.820312 844.914062 613.753906 C 844.40625 613.683594 844.054688 613.21875 844.125 612.710938 L 844.34375 611.117188 C 844.464844 610.253906 844.203125 609.386719 843.632812 608.730469 C 843.0625 608.074219 842.238281 607.699219 841.367188 607.699219 L 786.414062 607.699219 C 784.917969 607.699219 783.640625 608.8125 783.433594 610.292969 L 773.59375 681.726562 C 773.476562 682.585938 773.734375 683.457031 774.304688 684.113281 C 774.875 684.765625 775.703125 685.140625 776.570312 685.140625 L 778.980469 685.140625 C 779.488281 685.140625 779.902344 685.554688 779.902344 686.0625 C 779.902344 686.574219 779.488281 686.984375 778.980469 686.984375 " fill-opacity="1" fill-rule="nonzero"/><path fill="#696052" d="M 841.148438 696.058594 L 785.703125 696.058594 C 783.464844 696.058594 781.746094 694.085938 782.050781 691.875 L 791.957031 619.953125 C 792.210938 618.132812 793.769531 616.773438 795.609375 616.773438 L 851.054688 616.773438 C 853.292969 616.773438 855.011719 618.746094 854.703125 620.960938 L 844.796875 692.878906 C 844.546875 694.703125 842.988281 696.058594 841.148438 696.058594 " fill-opacity="1" fill-rule="nonzero"/><path fill="#ffffff" d="M 495.28125 439.667969 C 495.535156 437.695312 497.210938 436.21875 499.191406 436.21875 L 845.449219 436.21875 C 849.347656 436.21875 852.363281 439.65625 851.863281 443.53125 L 824.398438 649.4375 C 824.144531 651.410156 822.46875 652.886719 820.484375 652.886719 L 470.894531 652.886719 C 468.742188 652.886719 467.078125 650.988281 467.363281 648.851562 L 495.28125 439.667969 " fill-opacity="1" fill-rule="nonzero"/><path fill="#ececec" d="M 794.316406 506.554688 L 537.300781 506.554688 C 533.582031 506.554688 530.710938 503.285156 531.199219 499.59375 L 539.3125 436.882812 L 808.742188 436.882812 L 800.417969 501.214844 C 800.011719 504.273438 797.402344 506.554688 794.316406 506.554688 " fill-opacity="1" fill-rule="nonzero"/><path fill="#ff8a15" d="M 845.449219 436.21875 C 849.347656 436.21875 852.363281 439.65625 851.863281 443.53125 L 848.890625 460.820312 L 491.941406 460.761719 L 495.28125 439.667969 C 495.535156 437.695312 497.210938 436.21875 499.191406 436.21875 L 845.449219 436.21875 " fill-opacity="1" fill-rule="nonzero"/><path fill="#696052" d="M 551.03125 637.046875 L 519.800781 637.046875 C 516.746094 637.046875 514.394531 634.359375 514.792969 631.332031 L 518.941406 600.011719 C 519.273438 597.5 521.414062 595.625 523.949219 595.625 L 555.179688 595.625 C 558.230469 595.625 560.585938 598.3125 560.1875 601.339844 L 556.039062 632.660156 C 555.707031 635.167969 553.5625 637.046875 551.03125 637.046875 " fill-opacity="1" fill-rule="nonzero"/><path fill="#ececec" d="M 670.96875 449.613281 C 671.28125 447.15625 669.363281 444.976562 666.882812 444.976562 L 538.886719 444.976562 C 536.8125 444.976562 535.0625 446.515625 534.800781 448.574219 C 534.488281 451.03125 536.40625 453.210938 538.886719 453.210938 L 666.882812 453.210938 C 668.957031 453.210938 670.707031 451.671875 670.96875 449.613281 " fill-opacity="1" fill-rule="nonzero"/><path fill="#ececec" d="M 801.746094 449.613281 C 802.0625 447.15625 800.144531 444.976562 797.667969 444.976562 L 785.976562 444.976562 C 783.90625 444.976562 782.15625 446.515625 781.894531 448.574219 C 781.578125 451.03125 783.5 453.210938 785.976562 453.210938 L 797.667969 453.210938 C 799.734375 453.210938 801.484375 451.671875 801.746094 449.613281 " fill-opacity="1" fill-rule="nonzero"/><path fill="#ececec" d="M 602.425781 567.429688 L 525.03125 567.429688 C 523.339844 567.429688 521.964844 566.058594 521.964844 564.367188 C 521.964844 562.671875 523.339844 561.296875 525.03125 561.296875 L 602.425781 561.296875 C 604.121094 561.296875 605.492188 562.671875 605.492188 564.367188 C 605.492188 566.058594 604.121094 567.429688 602.425781 567.429688 " fill-opacity="1" fill-rule="nonzero"/><path fill="#ececec" d="M 557.164062 553.1875 L 527.296875 553.1875 C 525.601562 553.1875 524.230469 551.816406 524.230469 550.121094 C 524.230469 548.425781 525.601562 547.054688 527.296875 547.054688 L 557.164062 547.054688 C 558.855469 547.054688 560.230469 548.425781 560.230469 550.121094 C 560.230469 551.816406 558.855469 553.1875 557.164062 553.1875 " fill-opacity="1" fill-rule="nonzero"/><path fill="#ff8a15" d="M 556.574219 481.375 L 559.96875 481.375 C 562.289062 481.332031 563.609375 480.410156 563.925781 478.609375 C 564.105469 477.597656 563.9375 476.871094 563.429688 476.429688 C 562.921875 475.984375 562.039062 475.761719 560.773438 475.761719 L 557.5625 475.761719 Z M 556.003906 484.613281 L 554.945312 490.621094 L 558.871094 490.621094 C 559.953125 490.621094 560.839844 490.363281 561.539062 489.847656 C 562.234375 489.335938 562.664062 488.625 562.824219 487.714844 C 563.183594 485.679688 562.3125 484.644531 560.207031 484.613281 Z M 549.710938 494.304688 L 553.632812 472.046875 L 561.429688 472.046875 C 564.128906 472.046875 566.085938 472.566406 567.300781 473.601562 C 568.511719 474.636719 568.945312 476.152344 568.589844 478.148438 C 568.398438 479.238281 567.949219 480.199219 567.242188 481.027344 C 566.535156 481.859375 565.648438 482.46875 564.582031 482.855469 C 565.671875 483.140625 566.472656 483.714844 566.976562 484.585938 C 567.480469 485.449219 567.621094 486.507812 567.402344 487.761719 C 567.023438 489.902344 566.054688 491.523438 564.496094 492.625 C 562.9375 493.722656 560.890625 494.285156 558.359375 494.304688 L 549.710938 494.304688 " fill-opacity="1" fill-rule="nonzero"/><path fill="#ff8a15" d="M 590.457031 472.046875 L 587.871094 486.707031 C 587.441406 489.144531 586.339844 491.070312 584.566406 492.484375 C 582.792969 493.902344 580.585938 494.609375 577.949219 494.609375 C 575.351562 494.609375 573.40625 493.921875 572.121094 492.542969 C 570.835938 491.171875 570.386719 489.28125 570.785156 486.875 L 573.398438 472.046875 L 577.984375 472.046875 L 575.394531 486.738281 C 575.136719 488.199219 575.296875 489.257812 575.878906 489.925781 C 576.457031 490.59375 577.363281 490.925781 578.597656 490.925781 C 581.175781 490.925781 582.722656 489.570312 583.242188 486.859375 L 585.855469 472.046875 L 590.457031 472.046875 " fill-opacity="1" fill-rule="nonzero"/><path fill="#ff8a15" d="M 602.863281 488.460938 C 603.015625 487.597656 602.824219 486.933594 602.296875 486.46875 C 601.765625 486.003906 600.753906 485.515625 599.253906 485 C 597.753906 484.484375 596.585938 483.980469 595.746094 483.480469 C 593.460938 482.113281 592.519531 480.277344 592.929688 477.960938 C 593.140625 476.757812 593.667969 475.6875 594.511719 474.746094 C 595.355469 473.800781 596.457031 473.066406 597.820312 472.535156 C 599.183594 472.003906 600.652344 471.742188 602.234375 471.742188 C 603.824219 471.742188 605.1875 472.03125 606.332031 472.605469 C 607.472656 473.183594 608.292969 473.992188 608.796875 475.042969 C 609.300781 476.09375 609.433594 477.285156 609.199219 478.617188 L 604.613281 478.617188 C 604.792969 477.601562 604.609375 476.808594 604.070312 476.242188 C 603.527344 475.675781 602.675781 475.394531 601.511719 475.394531 C 600.394531 475.394531 599.480469 475.632812 598.773438 476.105469 C 598.070312 476.578125 597.648438 477.203125 597.511719 477.976562 C 597.382812 478.699219 597.640625 479.308594 598.285156 479.796875 C 598.925781 480.285156 599.917969 480.746094 601.257812 481.171875 C 603.730469 481.957031 605.457031 482.929688 606.445312 484.089844 C 607.433594 485.253906 607.773438 486.699219 607.46875 488.433594 C 607.128906 490.359375 606.132812 491.867188 604.484375 492.964844 C 602.832031 494.0625 600.773438 494.605469 598.308594 494.605469 C 596.597656 494.605469 595.09375 494.292969 593.796875 493.667969 C 592.5 493.042969 591.578125 492.183594 591.035156 491.09375 C 590.488281 490.003906 590.339844 488.738281 590.59375 487.300781 L 595.195312 487.300781 C 594.761719 489.757812 596.011719 490.984375 598.945312 490.984375 C 600.039062 490.984375 600.925781 490.765625 601.617188 490.320312 C 602.304688 489.878906 602.722656 489.257812 602.863281 488.460938 " fill-opacity="1" fill-rule="nonzero"/><path fill="#ff8a15" d="M 614.410156 494.304688 L 609.824219 494.304688 L 613.75 472.046875 L 618.335938 472.046875 L 614.410156 494.304688 " fill-opacity="1" fill-rule="nonzero"/><path fill="#ff8a15" d="M 636.757812 494.304688 L 632.171875 494.304688 L 625.828125 479.660156 L 623.246094 494.304688 L 618.660156 494.304688 L 622.585938 472.046875 L 627.171875 472.046875 L 633.523438 486.722656 L 636.113281 472.046875 L 640.683594 472.046875 L 636.757812 494.304688 " fill-opacity="1" fill-rule="nonzero"/><path fill="#ff8a15" d="M 655.855469 484.660156 L 647.050781 484.660156 L 646 490.621094 L 656.332031 490.621094 L 655.679688 494.304688 L 640.761719 494.304688 L 644.6875 472.046875 L 659.574219 472.046875 L 658.921875 475.761719 L 648.617188 475.761719 L 647.683594 481.066406 L 656.488281 481.066406 L 655.855469 484.660156 " fill-opacity="1" fill-rule="nonzero"/><path fill="#ff8a15" d="M 670.941406 488.460938 C 671.09375 487.597656 670.90625 486.933594 670.378906 486.46875 C 669.847656 486.003906 668.832031 485.515625 667.332031 485 C 665.835938 484.484375 664.667969 483.980469 663.828125 483.480469 C 661.539062 482.113281 660.601562 480.277344 661.007812 477.960938 C 661.21875 476.757812 661.75 475.6875 662.59375 474.746094 C 663.4375 473.800781 664.539062 473.066406 665.902344 472.535156 C 667.261719 472.003906 668.734375 471.742188 670.316406 471.742188 C 671.90625 471.742188 673.269531 472.03125 674.410156 472.605469 C 675.554688 473.183594 676.375 473.992188 676.878906 475.042969 C 677.378906 476.09375 677.515625 477.285156 677.277344 478.617188 L 672.691406 478.617188 C 672.871094 477.601562 672.691406 476.808594 672.148438 476.242188 C 671.609375 475.675781 670.753906 475.394531 669.59375 475.394531 C 668.472656 475.394531 667.558594 475.632812 666.855469 476.105469 C 666.148438 476.578125 665.730469 477.203125 665.59375 477.976562 C 665.464844 478.699219 665.722656 479.308594 666.367188 479.796875 C 667.007812 480.285156 667.996094 480.746094 669.339844 481.171875 C 671.808594 481.957031 673.539062 482.929688 674.523438 484.089844 C 675.511719 485.253906 675.855469 486.699219 675.550781 488.433594 C 675.207031 490.359375 674.214844 491.867188 672.5625 492.964844 C 670.914062 494.0625 668.855469 494.605469 666.390625 494.605469 C 664.675781 494.605469 663.171875 494.292969 661.878906 493.667969 C 660.582031 493.042969 659.660156 492.183594 659.113281 491.09375 C 658.566406 490.003906 658.421875 488.738281 658.675781 487.300781 L 663.273438 487.300781 C 662.84375 489.757812 664.09375 490.984375 667.027344 490.984375 C 668.117188 490.984375 669.007812 490.765625 669.699219 490.320312 C 670.386719 489.878906 670.800781 489.257812 670.941406 488.460938 " fill-opacity="1" fill-rule="nonzero"/><path fill="#ff8a15" d="M 690.1875 488.460938 C 690.339844 487.597656 690.148438 486.933594 689.621094 486.46875 C 689.089844 486.003906 688.078125 485.515625 686.578125 485 C 685.078125 484.484375 683.910156 483.980469 683.070312 483.480469 C 680.785156 482.113281 679.84375 480.277344 680.253906 477.960938 C 680.464844 476.757812 680.992188 475.6875 681.835938 474.746094 C 682.679688 473.800781 683.78125 473.066406 685.144531 472.535156 C 686.507812 472.003906 687.980469 471.742188 689.558594 471.742188 C 691.148438 471.742188 692.515625 472.03125 693.65625 472.605469 C 694.796875 473.183594 695.617188 473.992188 696.121094 475.042969 C 696.625 476.09375 696.757812 477.285156 696.523438 478.617188 L 691.9375 478.617188 C 692.117188 477.601562 691.9375 476.808594 691.394531 476.242188 C 690.851562 475.675781 690 475.394531 688.835938 475.394531 C 687.714844 475.394531 686.804688 475.632812 686.097656 476.105469 C 685.394531 476.578125 684.972656 477.203125 684.835938 477.976562 C 684.707031 478.699219 684.964844 479.308594 685.609375 479.796875 C 686.25 480.285156 687.242188 480.746094 688.582031 481.171875 C 691.054688 481.957031 692.78125 482.929688 693.769531 484.089844 C 694.757812 485.253906 695.097656 486.699219 694.792969 488.433594 C 694.453125 490.359375 693.457031 491.867188 691.808594 492.964844 C 690.15625 494.0625 688.097656 494.605469 685.632812 494.605469 C 683.921875 494.605469 682.417969 494.292969 681.121094 493.667969 C 679.824219 493.042969 678.902344 492.183594 678.359375 491.09375 C 677.8125 490.003906 677.664062 488.738281 677.917969 487.300781 L 682.519531 487.300781 C 682.085938 489.757812 683.335938 490.984375 686.269531 490.984375 C 687.363281 490.984375 688.253906 490.765625 688.941406 490.320312 C 689.628906 489.878906 690.046875 489.257812 690.1875 488.460938 " fill-opacity="1" fill-rule="nonzero"/><path fill="#ff8a15" d="M 709.890625 490.621094 L 719.625 490.621094 L 718.976562 494.304688 L 704.65625 494.304688 L 708.578125 472.046875 L 713.164062 472.046875 L 709.890625 490.621094 " fill-opacity="1" fill-rule="nonzero"/><path fill="#ff8a15" d="M 736.238281 482.667969 C 736.648438 480.335938 736.542969 478.5625 735.921875 477.351562 C 735.300781 476.140625 734.214844 475.53125 732.667969 475.53125 C 731.128906 475.53125 729.835938 476.128906 728.789062 477.328125 C 727.742188 478.523438 727.007812 480.277344 726.589844 482.59375 L 726.398438 483.679688 C 726 485.953125 726.105469 487.714844 726.722656 488.96875 C 727.335938 490.21875 728.425781 490.847656 729.996094 490.847656 C 731.535156 490.847656 732.820312 490.242188 733.863281 489.039062 C 734.898438 487.828125 735.628906 486.066406 736.046875 483.753906 Z M 740.703125 483.679688 C 740.320312 485.871094 739.59375 487.792969 738.527344 489.441406 C 737.460938 491.09375 736.128906 492.367188 734.53125 493.261719 C 732.929688 494.160156 731.199219 494.605469 729.335938 494.605469 C 727.488281 494.605469 725.921875 494.164062 724.628906 493.277344 C 723.339844 492.390625 722.441406 491.128906 721.9375 489.480469 C 721.429688 487.832031 721.363281 485.941406 721.730469 483.800781 L 721.925781 482.703125 C 722.3125 480.507812 723.046875 478.582031 724.132812 476.917969 C 725.214844 475.25 726.554688 473.972656 728.152344 473.078125 C 729.753906 472.1875 731.480469 471.742188 733.335938 471.742188 C 735.191406 471.742188 736.757812 472.1875 738.042969 473.078125 C 739.328125 473.972656 740.21875 475.25 740.714844 476.917969 C 741.210938 478.582031 741.265625 480.503906 740.878906 482.6875 L 740.703125 483.679688 " fill-opacity="1" fill-rule="nonzero"/><path fill="#ff8a15" d="M 748.960938 486.003906 L 754.527344 486.003906 L 753.195312 477.671875 Z M 755.109375 489.71875 L 747.070312 489.71875 L 744.730469 494.304688 L 739.855469 494.304688 L 752.066406 472.046875 L 756.316406 472.046875 L 760.71875 494.304688 L 755.84375 494.304688 L 755.109375 489.71875 " fill-opacity="1" fill-rule="nonzero"/><path fill="#ff8a15" d="M 780.898438 494.304688 L 776.3125 494.304688 L 769.96875 479.660156 L 767.386719 494.304688 L 762.796875 494.304688 L 766.722656 472.046875 L 771.308594 472.046875 L 777.664062 486.722656 L 780.25 472.046875 L 784.824219 472.046875 L 780.898438 494.304688 " fill-opacity="1" fill-rule="nonzero"/><path fill="#ececec" d="M 744.015625 567.429688 L 666.617188 567.429688 C 664.925781 567.429688 663.550781 566.058594 663.550781 564.367188 C 663.550781 562.671875 664.925781 561.296875 666.617188 561.296875 L 744.015625 561.296875 C 745.707031 561.296875 747.078125 562.671875 747.078125 564.367188 C 747.078125 566.058594 745.707031 567.429688 744.015625 567.429688 " fill-opacity="1" fill-rule="nonzero"/><path fill="#ececec" d="M 628.109375 579.730469 L 550.714844 579.730469 C 549.019531 579.730469 547.648438 578.363281 547.648438 576.667969 C 547.648438 574.972656 549.019531 573.597656 550.714844 573.597656 L 628.109375 573.597656 C 629.804688 573.597656 631.175781 574.972656 631.175781 576.667969 C 631.175781 578.363281 629.804688 579.730469 628.109375 579.730469 " fill-opacity="1" fill-rule="nonzero"/><path fill="#ececec" d="M 726.527344 579.730469 L 649.132812 579.730469 C 647.4375 579.730469 646.066406 578.363281 646.066406 576.667969 C 646.066406 574.972656 647.4375 573.597656 649.132812 573.597656 L 726.527344 573.597656 C 728.222656 573.597656 729.59375 574.972656 729.59375 576.667969 C 729.59375 578.363281 728.222656 579.730469 726.527344 579.730469 " fill-opacity="1" fill-rule="nonzero"/><path fill="#000000" d="M 495.28125 439.671875 L 495.289062 439.671875 Z M 499.191406 437.144531 C 497.679688 437.144531 496.390625 438.285156 496.195312 439.789062 L 496.195312 439.792969 L 468.277344 648.976562 C 468.175781 649.730469 468.40625 650.492188 468.90625 651.066406 C 469.410156 651.636719 470.132812 651.96875 470.894531 651.96875 L 820.484375 651.96875 C 822 651.96875 823.285156 650.828125 823.480469 649.324219 L 850.949219 443.410156 C 851.152344 441.828125 850.664062 440.226562 849.605469 439.027344 C 848.550781 437.832031 847.039062 437.144531 845.449219 437.144531 Z M 820.484375 653.8125 L 470.894531 653.8125 C 469.601562 653.8125 468.371094 653.253906 467.519531 652.28125 C 466.667969 651.308594 466.277344 650.015625 466.449219 648.730469 L 494.367188 439.550781 C 494.679688 437.128906 496.753906 435.300781 499.191406 435.300781 L 845.449219 435.300781 C 847.570312 435.300781 849.589844 436.214844 850.992188 437.808594 C 852.398438 439.410156 853.050781 441.539062 852.777344 443.652344 L 825.308594 649.5625 C 824.996094 651.984375 822.921875 653.8125 820.484375 653.8125 " fill-opacity="1" fill-rule="nonzero"/><path fill="#696052" d="M 767.609375 582.679688 C 764.261719 582.679688 760.839844 583.289062 757.472656 584.507812 C 742.3125 590 733.339844 606.367188 737.472656 620.996094 C 739.386719 627.765625 743.84375 633.238281 750.035156 636.414062 C 756.769531 639.871094 764.683594 640.253906 772.304688 637.492188 C 787.46875 632.003906 796.4375 615.632812 792.308594 601 C 790.394531 594.234375 785.933594 588.761719 779.742188 585.582031 C 775.980469 583.652344 771.851562 582.679688 767.609375 582.679688 Z M 762.167969 641.164062 C 757.640625 641.164062 753.222656 640.121094 749.191406 638.054688 C 742.542969 634.644531 737.75 628.765625 735.695312 621.5 C 731.308594 605.957031 740.796875 588.585938 756.84375 582.773438 C 764.957031 579.835938 773.386719 580.25 780.585938 583.945312 C 787.238281 587.355469 792.03125 593.234375 794.082031 600.5 C 798.472656 616.042969 788.984375 633.414062 772.933594 639.226562 C 769.363281 640.519531 765.726562 641.164062 762.167969 641.164062 " fill-opacity="1" fill-rule="nonzero"/><path fill="#696052" d="M 766.890625 590.433594 C 764.453125 590.433594 761.96875 590.871094 759.523438 591.757812 C 748.496094 595.75 741.96875 607.648438 744.972656 618.28125 C 746.359375 623.1875 749.59375 627.160156 754.085938 629.460938 C 758.972656 631.972656 764.71875 632.246094 770.257812 630.242188 C 781.285156 626.25 787.808594 614.351562 784.804688 603.714844 C 783.417969 598.808594 780.183594 594.839844 775.695312 592.535156 C 772.964844 591.136719 769.96875 590.433594 766.890625 590.433594 Z M 762.890625 633.414062 C 759.523438 633.414062 756.238281 632.640625 753.242188 631.101562 C 748.292969 628.566406 744.726562 624.1875 743.199219 618.785156 C 739.9375 607.238281 746.980469 594.339844 758.894531 590.023438 C 764.921875 587.839844 771.1875 588.152344 776.539062 590.894531 C 781.488281 593.4375 785.054688 597.808594 786.578125 603.214844 C 789.84375 614.757812 782.800781 627.664062 770.886719 631.976562 C 768.234375 632.9375 765.535156 633.414062 762.890625 633.414062 " fill-opacity="1" fill-rule="nonzero"/><path fill="#ffffff" d="M 805.261719 607.074219 L 729.996094 634.328125 L 724.519531 614.929688 L 799.78125 587.671875 L 805.261719 607.074219 " fill-opacity="1" fill-rule="nonzero"/><path fill="#696052" d="M 725.636719 615.503906 L 730.617188 633.125 L 804.140625 606.496094 L 799.164062 588.875 Z M 729.996094 635.25 C 729.851562 635.25 729.707031 635.214844 729.578125 635.148438 C 729.347656 635.03125 729.179688 634.824219 729.109375 634.578125 L 723.628906 615.179688 C 723.5 614.710938 723.75 614.226562 724.203125 614.058594 L 799.464844 586.804688 C 799.707031 586.71875 799.972656 586.734375 800.203125 586.847656 C 800.429688 586.96875 800.597656 587.175781 800.667969 587.421875 L 806.148438 606.824219 C 806.28125 607.285156 806.03125 607.777344 805.574219 607.941406 L 730.3125 635.195312 C 730.210938 635.230469 730.105469 635.25 729.996094 635.25 " fill-opacity="1" fill-rule="nonzero"/><path fill="#000000" d="M 777.914062 619.75 C 777.632812 619.75 777.347656 619.699219 777.078125 619.585938 C 776.234375 619.230469 775.746094 618.402344 775.832031 617.46875 L 776.953125 605.265625 C 777.011719 604.664062 776.636719 604.445312 776.410156 604.371094 C 775.992188 604.230469 775.417969 604.351562 775.0625 604.929688 L 770.472656 612.398438 C 769.917969 613.304688 768.882812 613.722656 767.898438 613.4375 C 766.984375 613.171875 766.398438 612.382812 766.410156 611.417969 C 766.414062 611.296875 766.371094 611.234375 766.273438 611.195312 C 766.230469 611.183594 765.996094 611.117188 765.796875 611.378906 L 761.003906 617.582031 C 760.417969 618.34375 759.460938 618.671875 758.570312 618.410156 C 757.742188 618.171875 757.175781 617.484375 757.09375 616.617188 L 755.984375 604.78125 C 755.933594 604.246094 755.554688 604.089844 755.332031 604.042969 C 754.914062 603.960938 754.359375 604.128906 754.054688 604.695312 L 748.085938 615.773438 C 747.84375 616.21875 747.285156 616.390625 746.835938 616.148438 C 746.386719 615.90625 746.222656 615.34375 746.464844 614.898438 L 752.429688 603.820312 C 753.082031 602.605469 754.394531 601.972656 755.699219 602.234375 C 756.875 602.476562 757.707031 603.40625 757.820312 604.609375 L 758.929688 616.449219 C 758.941406 616.527344 758.960938 616.605469 759.082031 616.640625 C 759.207031 616.675781 759.398438 616.648438 759.546875 616.453125 L 764.335938 610.253906 C 764.949219 609.460938 765.96875 609.140625 766.878906 609.453125 C 767.722656 609.75 768.265625 610.527344 768.253906 611.4375 C 768.253906 611.550781 768.28125 611.628906 768.40625 611.664062 C 768.542969 611.703125 768.757812 611.667969 768.902344 611.433594 L 773.488281 603.964844 C 774.246094 602.738281 775.683594 602.183594 776.992188 602.617188 C 778.207031 603.023438 778.914062 604.128906 778.792969 605.433594 L 777.667969 617.640625 C 777.65625 617.773438 777.691406 617.839844 777.789062 617.882812 C 777.914062 617.9375 778.101562 617.921875 778.265625 617.722656 L 793.449219 599.734375 C 793.777344 599.347656 794.359375 599.296875 794.746094 599.628906 C 795.136719 599.957031 795.1875 600.535156 794.859375 600.929688 L 779.675781 618.914062 C 779.21875 619.457031 778.570312 619.75 777.914062 619.75 " fill-opacity="1" fill-rule="nonzero"/><path fill="#696052" d="M 860.402344 809.476562 C 860.683594 809.5625 860.957031 809.648438 861.234375 809.734375 C 878.167969 815.066406 878.515625 823.855469 862.003906 829.363281 C 845.761719 834.785156 819.25 835.015625 802.269531 829.945312 C 801.992188 829.863281 801.714844 829.78125 801.441406 829.691406 C 784.503906 824.363281 784.160156 815.574219 800.671875 810.0625 C 816.914062 804.636719 843.417969 804.410156 860.402344 809.476562 " fill-opacity="1" fill-rule="nonzero"/><path fill="#ff8a15" d="M 864.210938 806.496094 L 864.222656 818.035156 C 864.226562 821.527344 860.183594 825.035156 852.0625 827.742188 C 835.816406 833.167969 809.304688 833.394531 792.324219 828.324219 C 792.046875 828.238281 791.773438 828.15625 791.496094 828.070312 C 782.894531 825.363281 778.570312 821.761719 778.566406 818.152344 L 778.558594 806.613281 C 778.5625 810.226562 782.882812 813.824219 791.488281 816.535156 C 791.761719 816.621094 792.035156 816.707031 792.316406 816.789062 C 809.296875 821.859375 835.808594 821.628906 852.054688 816.207031 C 860.175781 813.496094 864.21875 809.992188 864.210938 806.496094 " fill-opacity="1" fill-rule="nonzero"/><path fill="#696052" d="M 850.449219 796.320312 C 850.726562 796.40625 851.003906 796.492188 851.277344 796.578125 C 868.214844 801.910156 868.558594 810.695312 852.054688 816.207031 C 835.808594 821.628906 809.296875 821.859375 792.316406 816.789062 C 792.035156 816.707031 791.761719 816.621094 791.488281 816.535156 C 774.554688 811.207031 774.207031 802.417969 790.714844 796.90625 C 806.960938 791.480469 833.46875 791.253906 850.449219 796.320312 " fill-opacity="1" fill-rule="nonzero"/><path fill="#ff8a15" d="M 871.460938 791.667969 L 871.46875 803.203125 C 871.472656 806.699219 867.429688 810.207031 859.308594 812.914062 C 843.0625 818.339844 816.554688 818.566406 799.570312 813.496094 C 799.292969 813.414062 799.019531 813.328125 798.742188 813.242188 C 790.140625 810.535156 785.816406 806.933594 785.8125 803.324219 L 785.804688 791.789062 C 785.808594 795.398438 790.128906 799 798.738281 801.707031 C 799.011719 801.792969 799.285156 801.878906 799.5625 801.960938 C 816.546875 807.03125 843.054688 806.800781 859.300781 801.382812 C 867.421875 798.667969 871.464844 795.164062 871.460938 791.667969 " fill-opacity="1" fill-rule="nonzero"/><path fill="#000000" d="M 786.730469 796.167969 L 786.734375 803.320312 C 786.738281 806.613281 791.21875 809.90625 799.023438 812.363281 C 799.292969 812.449219 799.5625 812.53125 799.835938 812.613281 C 816.5625 817.605469 843.113281 817.351562 859.015625 812.039062 C 866.347656 809.59375 870.550781 806.371094 870.546875 803.203125 L 870.542969 796.050781 C 868.492188 798.398438 864.773438 800.527344 859.59375 802.253906 C 843.105469 807.757812 816.621094 808.015625 799.300781 802.84375 C 799.015625 802.761719 798.738281 802.675781 798.457031 802.585938 C 792.867188 800.824219 788.882812 798.625 786.730469 796.167969 Z M 828.476562 818.09375 C 818.054688 818.09375 807.628906 816.863281 799.308594 814.378906 C 799.023438 814.296875 798.742188 814.210938 798.464844 814.121094 C 789.71875 811.367188 784.898438 807.535156 784.890625 803.324219 L 784.882812 791.789062 C 784.882812 791.277344 785.292969 790.867188 785.804688 790.867188 C 786.3125 790.867188 786.726562 791.277344 786.726562 791.789062 C 786.730469 795.074219 791.210938 798.371094 799.015625 800.828125 C 799.28125 800.910156 799.550781 800.996094 799.828125 801.078125 C 816.554688 806.070312 843.101562 805.816406 859.007812 800.507812 C 866.339844 798.058594 870.542969 794.835938 870.539062 791.671875 C 870.539062 791.160156 870.949219 790.746094 871.457031 790.746094 C 871.460938 790.746094 871.460938 790.746094 871.460938 790.746094 C 871.96875 790.746094 872.382812 791.15625 872.382812 791.667969 C 872.382812 791.671875 872.382812 791.671875 872.382812 791.675781 L 872.390625 803.203125 C 872.394531 807.277344 867.855469 811.035156 859.601562 813.789062 C 851.03125 816.648438 839.757812 818.09375 828.476562 818.09375 " fill-opacity="1" fill-rule="nonzero"/><path fill="#ffffff" d="M 857.695312 781.492188 C 857.976562 781.578125 858.25 781.664062 858.523438 781.75 C 875.464844 787.082031 875.808594 795.867188 859.300781 801.382812 C 843.054688 806.800781 816.546875 807.03125 799.5625 801.960938 C 799.285156 801.878906 799.011719 801.792969 798.738281 801.707031 C 781.800781 796.375 781.457031 787.589844 797.964844 782.078125 C 814.207031 776.652344 840.714844 776.425781 857.695312 781.492188 " fill-opacity="1" fill-rule="nonzero"/><path fill="#000000" d="M 828.832031 778.792969 C 817.679688 778.792969 806.53125 780.1875 798.257812 782.953125 C 790.902344 785.40625 786.699219 788.636719 786.726562 791.8125 C 786.753906 795.09375 791.234375 798.378906 799.015625 800.828125 C 799.28125 800.910156 799.550781 800.996094 799.828125 801.078125 C 816.554688 806.070312 843.101562 805.816406 859.007812 800.507812 C 866.363281 798.050781 870.566406 794.820312 870.539062 791.644531 C 870.507812 788.363281 866.03125 785.078125 858.25 782.628906 C 857.976562 782.542969 857.710938 782.460938 857.433594 782.375 C 849.40625 779.984375 839.117188 778.792969 828.832031 778.792969 Z M 828.464844 806.558594 C 818.046875 806.558594 807.617188 805.328125 799.300781 802.84375 C 799.015625 802.761719 798.738281 802.675781 798.457031 802.585938 C 789.742188 799.84375 784.917969 796.023438 784.882812 791.828125 C 784.847656 787.742188 789.390625 783.96875 797.671875 781.203125 C 814.160156 775.699219 840.636719 775.441406 857.957031 780.609375 C 858.246094 780.695312 858.523438 780.78125 858.804688 780.867188 C 867.523438 783.613281 872.347656 787.433594 872.382812 791.628906 C 872.417969 795.714844 867.875 799.488281 859.59375 802.253906 C 851.023438 805.117188 839.75 806.558594 828.464844 806.558594 " fill-opacity="1" fill-rule="nonzero"/><path fill="#ff8a15" d="M 839.140625 783.558594 L 837.085938 785.355469 C 838.945312 785.597656 840.347656 785.878906 841.429688 786.167969 C 842.183594 786.371094 842.785156 786.578125 843.28125 786.78125 L 839.25 788.9375 C 838.730469 788.753906 838.03125 788.46875 836.988281 788.1875 C 836.027344 787.933594 834.78125 787.675781 833.125 787.5 C 830.003906 787.160156 828.34375 787.625 827.691406 788.195312 C 826.917969 788.871094 828.109375 789.480469 831.445312 790.578125 C 836.179688 792.046875 837.199219 793.421875 835.09375 795.261719 C 833.019531 797.078125 828.21875 798.304688 822.226562 798.117188 L 819.84375 800.203125 L 815.140625 799.691406 L 817.359375 797.753906 C 815.585938 797.519531 813.953125 797.199219 812.632812 796.84375 C 811.609375 796.570312 810.769531 796.273438 810.199219 795.992188 L 814.371094 793.757812 C 815.113281 794.101562 816.070312 794.457031 817.230469 794.769531 C 818.394531 795.082031 819.757812 795.347656 821.316406 795.515625 C 824.054688 795.8125 826.441406 795.566406 827.375 794.746094 C 828.261719 793.972656 827.285156 793.316406 824.316406 792.421875 C 820.015625 791.132812 817.679688 789.730469 819.945312 787.753906 C 822 785.957031 826.585938 784.867188 832.21875 784.992188 L 834.4375 783.050781 L 839.140625 783.558594 " fill-opacity="1" fill-rule="nonzero"/><path fill="#696052" d="M 952.980469 810.765625 C 953.261719 810.847656 953.535156 810.933594 953.808594 811.019531 C 970.746094 816.351562 971.09375 825.136719 954.582031 830.648438 C 938.335938 836.074219 911.828125 836.300781 894.84375 831.230469 C 894.566406 831.148438 894.292969 831.0625 894.019531 830.976562 C 877.082031 825.648438 876.738281 816.859375 893.25 811.347656 C 909.488281 805.925781 935.996094 805.695312 952.980469 810.765625 " fill-opacity="1" fill-rule="nonzero"/><path fill="#ff8a15" d="M 964.945312 806.738281 L 964.953125 818.273438 C 964.960938 821.769531 960.917969 825.273438 952.796875 827.984375 C 936.546875 833.40625 910.039062 833.636719 893.058594 828.566406 C 892.777344 828.480469 892.5 828.398438 892.230469 828.3125 C 883.625 825.605469 879.304688 822.003906 879.296875 818.394531 L 879.292969 806.855469 C 879.292969 810.46875 883.617188 814.066406 892.21875 816.777344 C 892.496094 816.863281 892.769531 816.949219 893.046875 817.03125 C 910.03125 822.101562 936.539062 821.875 952.78125 816.449219 C 960.90625 813.738281 964.949219 810.234375 964.945312 806.738281 " fill-opacity="1" fill-rule="nonzero"/><path fill="#696052" d="M 951.183594 796.5625 C 951.460938 796.648438 951.738281 796.730469 952.011719 796.816406 C 968.949219 802.148438 969.296875 810.9375 952.785156 816.449219 C 936.542969 821.875 910.03125 822.101562 893.050781 817.03125 C 892.773438 816.945312 892.496094 816.863281 892.21875 816.777344 C 875.285156 811.445312 874.941406 802.65625 891.449219 797.144531 C 907.691406 791.726562 934.203125 791.496094 951.183594 796.5625 " fill-opacity="1" fill-rule="nonzero"/><path fill="#ff8a15" d="M 961.558594 790.714844 L 961.5625 802.25 C 961.570312 805.746094 957.527344 809.25 949.40625 811.960938 C 933.160156 817.382812 906.652344 817.613281 889.667969 812.542969 C 889.390625 812.457031 889.113281 812.375 888.839844 812.289062 C 880.238281 809.582031 875.914062 805.980469 875.914062 802.371094 L 875.898438 790.832031 C 875.90625 794.445312 880.230469 798.042969 888.832031 800.753906 C 889.109375 800.839844 889.382812 800.921875 889.660156 801.007812 C 906.640625 806.078125 933.152344 805.847656 949.398438 800.425781 C 957.519531 797.714844 961.558594 794.210938 961.558594 790.714844 " fill-opacity="1" fill-rule="nonzero"/><path fill="#696052" d="M 947.796875 780.539062 C 948.078125 780.625 948.351562 780.707031 948.628906 780.792969 C 965.566406 786.125 965.910156 794.914062 949.398438 800.425781 C 933.152344 805.847656 906.648438 806.074219 889.664062 801.007812 C 889.386719 800.921875 889.109375 800.839844 888.835938 800.753906 C 871.898438 795.421875 871.554688 786.632812 888.066406 781.121094 C 904.308594 775.699219 930.816406 775.46875 947.796875 780.539062 " fill-opacity="1" fill-rule="nonzero"/><path fill="#ff8a15" d="M 965.148438 775.371094 L 965.160156 786.90625 C 965.164062 790.402344 961.121094 793.90625 953 796.617188 C 936.753906 802.039062 910.242188 802.269531 893.265625 797.199219 C 892.984375 797.117188 892.707031 797.03125 892.4375 796.941406 C 883.832031 794.234375 879.511719 790.632812 879.503906 787.023438 L 879.496094 775.488281 C 879.5 779.101562 883.824219 782.699219 892.425781 785.410156 C 892.699219 785.492188 892.972656 785.578125 893.253906 785.660156 C 910.238281 790.730469 936.746094 790.503906 952.988281 785.082031 C 961.113281 782.371094 965.152344 778.867188 965.148438 775.371094 " fill-opacity="1" fill-rule="nonzero"/><path fill="#696052" d="M 951.386719 765.195312 C 951.664062 765.28125 951.941406 765.363281 952.21875 765.449219 C 969.15625 770.78125 969.5 779.570312 952.988281 785.082031 C 936.742188 790.503906 910.234375 790.730469 893.25 785.664062 C 892.976562 785.578125 892.699219 785.496094 892.425781 785.410156 C 875.488281 780.078125 875.144531 771.289062 891.65625 765.777344 C 907.898438 760.355469 934.402344 760.125 951.386719 765.195312 " fill-opacity="1" fill-rule="nonzero"/><path fill="#ff8a15" d="M 959.492188 763.636719 L 959.5 775.171875 C 959.503906 778.667969 955.460938 782.171875 947.34375 784.882812 C 931.09375 790.304688 904.589844 790.535156 887.605469 785.464844 C 887.324219 785.382812 887.050781 785.292969 886.777344 785.207031 C 878.171875 782.5 873.851562 778.898438 873.84375 775.289062 L 873.839844 763.753906 C 873.84375 767.367188 878.164062 770.96875 886.769531 773.675781 C 887.042969 773.761719 887.316406 773.84375 887.59375 773.925781 C 904.574219 778.996094 931.085938 778.769531 947.332031 773.347656 C 955.457031 770.636719 959.496094 767.132812 959.492188 763.636719 " fill-opacity="1" fill-rule="nonzero"/><path fill="#696052" d="M 945.726562 753.460938 C 946.011719 753.542969 946.285156 753.628906 946.558594 753.71875 C 963.496094 759.046875 963.84375 767.835938 947.335938 773.34375 C 931.085938 778.769531 904.578125 778.996094 887.597656 773.925781 C 887.316406 773.84375 887.042969 773.761719 886.769531 773.671875 C 869.832031 768.34375 869.484375 759.554688 885.996094 754.042969 C 902.242188 748.621094 928.75 748.390625 945.726562 753.460938 " fill-opacity="1" fill-rule="nonzero"/><path fill="#ff8a15" d="M 964.964844 747.554688 L 964.972656 759.089844 C 964.976562 762.585938 960.933594 766.089844 952.8125 768.804688 C 936.566406 774.222656 910.058594 774.457031 893.078125 769.382812 C 892.796875 769.300781 892.523438 769.214844 892.246094 769.128906 C 883.640625 766.421875 879.324219 762.820312 879.316406 759.210938 L 879.308594 747.675781 C 879.3125 751.285156 883.636719 754.886719 892.242188 757.59375 C 892.511719 757.679688 892.789062 757.765625 893.066406 757.851562 C 910.046875 762.917969 936.558594 762.691406 952.804688 757.265625 C 960.925781 754.558594 964.96875 751.050781 964.964844 747.554688 " fill-opacity="1" fill-rule="nonzero"/><path fill="#696052" d="M 951.203125 737.382812 C 951.484375 737.464844 951.753906 737.546875 952.03125 737.636719 C 968.96875 742.964844 969.3125 751.753906 952.808594 757.265625 C 936.558594 762.6875 910.050781 762.917969 893.070312 757.847656 C 892.789062 757.765625 892.515625 757.679688 892.242188 757.59375 C 875.308594 752.261719 874.960938 743.472656 891.46875 737.960938 C 907.710938 732.542969 934.21875 732.3125 951.203125 737.382812 " fill-opacity="1" fill-rule="nonzero"/><path fill="#ff8a15" d="M 959.972656 730.554688 L 959.980469 742.085938 C 959.984375 745.582031 955.941406 749.085938 947.820312 751.800781 C 931.574219 757.222656 905.066406 757.453125 888.085938 752.382812 C 887.804688 752.296875 887.53125 752.214844 887.257812 752.128906 C 878.652344 749.417969 874.328125 745.820312 874.328125 742.207031 L 874.316406 730.671875 C 874.324219 734.28125 878.644531 737.882812 887.246094 740.589844 C 887.519531 740.675781 887.796875 740.761719 888.074219 740.847656 C 905.058594 745.917969 931.570312 745.6875 947.808594 740.261719 C 955.933594 737.554688 959.976562 734.046875 959.972656 730.554688 " fill-opacity="1" fill-rule="nonzero"/><path fill="#696052" d="M 946.207031 720.378906 C 946.488281 720.460938 946.765625 720.546875 947.039062 720.632812 C 963.972656 725.964844 964.320312 734.753906 947.808594 740.265625 C 931.566406 745.6875 905.054688 745.917969 888.074219 740.847656 C 887.796875 740.761719 887.519531 740.675781 887.25 740.589844 C 870.3125 735.261719 869.964844 726.472656 886.476562 720.957031 C 902.71875 715.539062 929.226562 715.308594 946.207031 720.378906 " fill-opacity="1" fill-rule="nonzero"/><path fill="#ff8a15" d="M 963.164062 714.425781 L 963.167969 725.960938 C 963.175781 729.457031 959.132812 732.960938 951.011719 735.671875 C 934.765625 741.09375 908.257812 741.324219 891.273438 736.253906 C 890.996094 736.171875 890.722656 736.085938 890.445312 736 C 881.839844 733.292969 877.519531 729.691406 877.519531 726.082031 L 877.507812 714.546875 C 877.515625 718.15625 881.835938 721.757812 890.4375 724.464844 C 890.710938 724.550781 890.984375 724.632812 891.269531 724.714844 C 908.246094 729.785156 934.757812 729.558594 951.003906 724.136719 C 959.125 721.425781 963.167969 717.921875 963.164062 714.425781 " fill-opacity="1" fill-rule="nonzero"/><path fill="#000000" d="M 878.433594 718.925781 L 878.4375 726.078125 C 878.445312 729.367188 882.921875 732.664062 890.722656 735.121094 C 890.992188 735.203125 891.265625 735.289062 891.542969 735.367188 C 908.261719 740.363281 934.8125 740.109375 950.71875 734.796875 C 958.054688 732.351562 962.253906 729.128906 962.25 725.960938 L 962.246094 718.804688 C 960.195312 721.15625 956.476562 723.28125 951.296875 725.011719 C 934.804688 730.515625 908.324219 730.773438 891.003906 725.601562 C 890.71875 725.515625 890.441406 725.429688 890.164062 725.34375 C 884.574219 723.582031 880.585938 721.378906 878.433594 718.925781 Z M 920.175781 740.851562 C 909.757812 740.851562 899.328125 739.621094 891.011719 737.136719 C 890.730469 737.050781 890.449219 736.96875 890.171875 736.878906 C 881.425781 734.125 876.601562 730.289062 876.59375 726.082031 L 876.585938 714.546875 C 876.585938 714.035156 877 713.625 877.507812 713.625 C 878.015625 713.625 878.429688 714.035156 878.429688 714.542969 C 878.4375 717.832031 882.914062 721.128906 890.714844 723.582031 C 890.984375 723.667969 891.253906 723.753906 891.53125 723.832031 C 908.257812 728.828125 934.804688 728.570312 950.710938 723.261719 C 958.042969 720.816406 962.246094 717.59375 962.242188 714.425781 C 962.238281 713.917969 962.65625 713.503906 963.160156 713.503906 L 963.164062 713.503906 C 963.671875 713.503906 964.085938 713.914062 964.085938 714.421875 C 964.085938 714.425781 964.085938 714.429688 964.085938 714.429688 L 964.09375 725.960938 C 964.101562 730.03125 959.558594 733.789062 951.304688 736.546875 C 942.734375 739.40625 931.457031 740.851562 920.175781 740.851562 " fill-opacity="1" fill-rule="nonzero"/><path fill="#ffffff" d="M 949.402344 704.25 C 949.679688 704.335938 949.957031 704.417969 950.230469 704.503906 C 967.167969 709.835938 967.511719 718.625 951.003906 724.136719 C 934.757812 729.558594 908.246094 729.785156 891.265625 724.714844 C 890.984375 724.632812 890.710938 724.550781 890.441406 724.464844 C 873.503906 719.132812 873.15625 710.34375 889.667969 704.832031 C 905.910156 699.410156 932.421875 699.179688 949.402344 704.25 " fill-opacity="1" fill-rule="nonzero"/><path fill="#000000" d="M 920.539062 701.550781 C 909.382812 701.550781 898.234375 702.945312 889.960938 705.707031 C 882.605469 708.160156 878.402344 711.394531 878.429688 714.570312 C 878.460938 717.847656 882.9375 721.132812 890.714844 723.582031 C 890.988281 723.667969 891.257812 723.75 891.53125 723.832031 C 908.257812 728.828125 934.804688 728.570312 950.710938 723.261719 C 958.066406 720.804688 962.269531 717.578125 962.242188 714.398438 C 962.214844 711.117188 957.734375 707.832031 949.957031 705.382812 C 949.683594 705.300781 949.414062 705.21875 949.136719 705.132812 C 941.113281 702.738281 930.824219 701.550781 920.539062 701.550781 Z M 920.167969 729.3125 C 909.746094 729.3125 899.320312 728.085938 891.003906 725.601562 C 890.71875 725.515625 890.441406 725.429688 890.164062 725.34375 C 881.445312 722.597656 876.621094 718.777344 876.585938 714.582031 C 876.550781 710.496094 881.09375 706.722656 889.378906 703.957031 C 905.863281 698.457031 932.34375 698.199219 949.664062 703.367188 C 949.949219 703.449219 950.226562 703.539062 950.507812 703.625 C 959.230469 706.371094 964.050781 710.191406 964.085938 714.382812 C 964.121094 718.46875 959.582031 722.246094 951.296875 725.011719 C 942.726562 727.871094 931.453125 729.3125 920.167969 729.3125 " fill-opacity="1" fill-rule="nonzero"/><path fill="#ff8a15" d="M 930.035156 707.164062 L 929.464844 709.648438 C 927.664062 709.5625 924.429688 709.339844 919.792969 709.726562 C 915.601562 710.082031 914.570312 710.773438 914.886719 711.351562 C 915 711.546875 915.289062 711.707031 915.785156 711.839844 C 917.003906 712.167969 919.464844 712.332031 923.613281 712.46875 C 928.054688 712.589844 931.183594 712.90625 933.277344 713.464844 C 935.023438 713.933594 936.050781 714.578125 936.523438 715.417969 C 937.539062 717.253906 934.351562 719.160156 927.171875 720.199219 L 928.339844 722.296875 L 922.023438 722.828125 L 920.933594 720.871094 C 916.582031 721.175781 912.183594 721.152344 909.476562 720.90625 L 910.074219 718.332031 C 913.046875 718.582031 917.089844 718.695312 921.277344 718.339844 C 924.953125 718.03125 927.214844 717.367188 926.757812 716.542969 C 926.605469 716.273438 926.230469 716.054688 925.59375 715.886719 C 924.386719 715.5625 922.238281 715.398438 918.921875 715.324219 C 914.441406 715.222656 910.722656 714.949219 908.257812 714.289062 C 906.707031 713.871094 905.65625 713.300781 905.222656 712.527344 C 904.214844 710.714844 907.425781 708.957031 914.074219 707.941406 L 912.988281 705.984375 L 919.304688 705.453125 L 920.3125 707.269531 C 924.664062 706.96875 927.726562 707.011719 930.035156 707.164062 " fill-opacity="1" fill-rule="nonzero"/><path fill="#ff8a15" d="M 604.851562 890.972656 C 617.316406 847.214844 629.460938 803.648438 629.460938 803.648438 C 629.460938 803.648438 617.800781 800.453125 598.976562 795.230469 C 598.976562 795.230469 566.464844 779.105469 557.863281 799.667969 C 555.339844 805.695312 544.859375 822.519531 530.503906 890.972656 L 604.851562 890.972656 " fill-opacity="1" fill-rule="nonzero"/><path fill="#ff8a15" d="M 592.066406 890.972656 L 661.328125 890.972656 C 663.324219 863.417969 664.085938 823.136719 661.398438 797.71875 L 597.320312 802.828125 C 597.820312 821.40625 595.382812 861.394531 592.066406 890.972656 " fill-opacity="1" fill-rule="nonzero"/><path fill="#ffffff" d="M 727.804688 662.265625 C 729.320312 659.308594 730.050781 657.449219 730.289062 656.601562 C 730.289062 656.601562 730.851562 655.570312 730.691406 654.199219 C 730.207031 649.945312 728.4375 639.511719 731.402344 635.492188 C 736.359375 628.765625 743.136719 632.566406 743.136719 632.566406 C 743.136719 632.566406 746.246094 626.296875 750.226562 628.65625 C 753.28125 630.46875 756.261719 634.441406 755.738281 640.609375 C 755.027344 649.023438 753.597656 657.058594 744.667969 661.859375 C 742.9375 662.792969 741.558594 664.277344 740.796875 666.101562 L 727.804688 662.265625 " fill-opacity="1" fill-rule="nonzero"/><path fill="#000000" d="M 729.125 661.695312 L 740.296875 664.996094 C 741.175781 663.339844 742.550781 661.957031 744.234375 661.050781 C 752.792969 656.445312 754.125 648.714844 754.820312 640.53125 C 755.425781 633.394531 751.097656 630.246094 749.757812 629.449219 C 749.078125 629.046875 748.410156 628.949219 747.71875 629.152344 C 745.941406 629.671875 744.40625 632.089844 743.960938 632.976562 C 743.851562 633.203125 743.648438 633.371094 743.410156 633.445312 C 743.167969 633.523438 742.90625 633.492188 742.6875 633.367188 C 742.4375 633.234375 736.542969 630.066406 732.144531 636.039062 C 729.730469 639.3125 730.820312 647.855469 731.40625 652.445312 C 731.484375 653.058594 731.558594 653.613281 731.609375 654.089844 C 731.773438 655.503906 731.316406 656.597656 731.148438 656.945312 C 730.976562 657.523438 730.476562 658.960938 729.125 661.695312 Z M 740.796875 667.027344 C 740.707031 667.027344 740.621094 667.011719 740.535156 666.988281 L 727.542969 663.152344 C 727.28125 663.074219 727.066406 662.882812 726.957031 662.628906 C 726.851562 662.378906 726.859375 662.09375 726.984375 661.847656 C 728.773438 658.34375 729.285156 656.757812 729.398438 656.351562 C 729.417969 656.285156 729.445312 656.222656 729.476562 656.160156 C 729.480469 656.15625 729.898438 655.347656 729.777344 654.304688 C 729.726562 653.832031 729.65625 653.285156 729.578125 652.679688 C 728.917969 647.496094 727.808594 638.8125 730.65625 634.945312 C 734.972656 629.09375 740.632812 630.554688 742.746094 631.378906 C 743.472656 630.199219 745.058594 628.015625 747.195312 627.382812 C 748.382812 627.03125 749.566406 627.195312 750.699219 627.863281 C 752.273438 628.796875 757.355469 632.480469 756.65625 640.6875 C 755.949219 649.050781 754.472656 657.632812 745.109375 662.675781 C 743.546875 663.515625 742.316406 664.859375 741.644531 666.460938 C 741.496094 666.808594 741.15625 667.027344 740.796875 667.027344 " fill-opacity="1" fill-rule="nonzero"/><path fill="#ffffff" d="M 719.78125 673.414062 L 708.089844 658.980469 L 715.339844 653.648438 C 715.738281 653.355469 716.203125 653.160156 716.691406 653.082031 L 717.578125 652.941406 C 718.6875 652.757812 719.625 651.988281 720.007812 650.933594 C 720.21875 650.355469 720.59375 649.855469 721.089844 649.492188 L 774.945312 609.851562 C 775.390625 609.527344 775.875 609.261719 776.390625 609.0625 L 792.136719 602.933594 L 783.183594 616.484375 C 782.695312 617.21875 782.113281 617.890625 781.449219 618.484375 L 731.636719 662.859375 C 731.210938 663.238281 730.691406 663.492188 730.132812 663.597656 L 729.992188 663.625 C 728.921875 663.828125 728.023438 664.578125 727.644531 665.59375 L 727.449219 666.109375 C 727.277344 666.578125 726.984375 667 726.605469 667.335938 L 719.78125 673.414062 " fill-opacity="1" fill-rule="nonzero"/><path fill="#000000" d="M 709.414062 659.148438 L 719.890625 672.085938 L 725.992188 666.648438 C 726.257812 666.414062 726.464844 666.113281 726.589844 665.78125 L 726.78125 665.269531 C 727.277344 663.957031 728.4375 662.976562 729.820312 662.71875 L 729.960938 662.691406 C 730.355469 662.617188 730.722656 662.4375 731.019531 662.167969 L 780.835938 617.792969 C 781.4375 617.253906 781.96875 616.644531 782.414062 615.972656 L 789.769531 604.84375 L 776.722656 609.917969 C 776.285156 610.089844 775.871094 610.316406 775.492188 610.597656 L 721.636719 650.234375 C 721.285156 650.492188 721.023438 650.84375 720.875 651.25 C 720.375 652.617188 719.167969 653.613281 717.722656 653.847656 L 716.835938 653.992188 C 716.496094 654.046875 716.164062 654.1875 715.886719 654.394531 Z M 719.78125 674.335938 C 719.753906 674.335938 719.730469 674.335938 719.707031 674.335938 C 719.457031 674.316406 719.226562 674.191406 719.066406 673.996094 L 707.371094 659.558594 C 707.214844 659.363281 707.144531 659.109375 707.175781 658.859375 C 707.207031 658.609375 707.339844 658.382812 707.542969 658.234375 L 714.792969 652.910156 C 715.308594 652.527344 715.914062 652.277344 716.542969 652.171875 L 717.425781 652.027344 C 718.210938 651.902344 718.871094 651.359375 719.144531 650.613281 C 719.417969 649.867188 719.902344 649.222656 720.546875 648.75 L 774.402344 609.109375 C 774.910156 608.734375 775.464844 608.429688 776.054688 608.199219 L 791.800781 602.070312 C 792.175781 601.925781 792.601562 602.039062 792.855469 602.351562 C 793.105469 602.664062 793.125 603.105469 792.90625 603.441406 L 783.953125 616.992188 C 783.421875 617.792969 782.785156 618.527344 782.0625 619.171875 L 732.25 663.542969 C 731.699219 664.035156 731.027344 664.367188 730.304688 664.503906 L 730.164062 664.53125 C 729.410156 664.671875 728.773438 665.207031 728.507812 665.917969 L 728.3125 666.433594 C 728.085938 667.039062 727.707031 667.589844 727.21875 668.027344 L 720.394531 674.105469 C 720.226562 674.257812 720.007812 674.335938 719.78125 674.335938 " fill-opacity="1" fill-rule="nonzero"/><path fill="#000000" d="M 778.792969 614.105469 C 778.53125 614.105469 778.277344 614 778.09375 613.785156 L 774.972656 610.160156 C 774.640625 609.773438 774.683594 609.191406 775.070312 608.859375 C 775.457031 608.527344 776.039062 608.570312 776.371094 608.957031 L 779.488281 612.582031 C 779.824219 612.96875 779.777344 613.550781 779.394531 613.882812 C 779.222656 614.03125 779.003906 614.105469 778.792969 614.105469 " fill-opacity="1" fill-rule="nonzero"/><path fill="#696052" d="M 696.007812 668.390625 L 708.304688 658.738281 L 719.886719 673.394531 L 707.589844 683.046875 C 705.335938 684.816406 702.105469 684.46875 700.367188 682.273438 L 695.074219 675.570312 C 693.335938 673.375 693.753906 670.160156 696.007812 668.390625 " fill-opacity="1" fill-rule="nonzero"/><path fill="#000000" d="M 708.148438 660.027344 L 696.578125 669.117188 C 695.664062 669.832031 695.085938 670.851562 694.953125 671.988281 C 694.824219 673.078125 695.121094 674.148438 695.792969 675 L 701.09375 681.703125 C 702.511719 683.5 705.171875 683.777344 707.019531 682.324219 L 718.589844 673.238281 Z M 704.34375 685.097656 C 702.566406 685.097656 700.816406 684.328125 699.644531 682.84375 L 694.347656 676.140625 C 693.371094 674.90625 692.933594 673.351562 693.121094 671.773438 C 693.3125 670.148438 694.136719 668.6875 695.4375 667.667969 L 696.007812 668.390625 L 695.4375 667.667969 L 708.457031 657.441406 L 721.183594 673.546875 L 708.160156 683.773438 C 707.027344 684.664062 705.675781 685.097656 704.34375 685.097656 " fill-opacity="1" fill-rule="nonzero"/><path fill="#ffffff" d="M 704.367188 678.625 C 704.085938 678.625 703.8125 678.5 703.628906 678.261719 C 703.324219 677.851562 703.402344 677.277344 703.808594 676.96875 L 710.636719 671.8125 C 711.042969 671.503906 711.621094 671.582031 711.929688 671.992188 C 712.238281 672.398438 712.15625 672.972656 711.746094 673.28125 L 704.921875 678.4375 C 704.753906 678.566406 704.558594 678.625 704.367188 678.625 " fill-opacity="1" fill-rule="nonzero"/><path fill="#ffffff" d="M 730.289062 656.601562 C 730.289062 656.601562 731.996094 647.480469 737.996094 641.625 C 741.671875 638.039062 745.089844 622.464844 752.085938 629.941406 C 753.59375 631.546875 754.640625 632.539062 755.476562 635.132812 C 755.933594 636.554688 756.546875 640.09375 756.398438 641.824219 C 755.683594 650.242188 753.59375 657.074219 744.644531 661.875 C 742.917969 662.800781 741.554688 664.285156 740.796875 666.101562 C 740.308594 667.261719 729.945312 738.921875 715.042969 747.652344 C 698.09375 757.582031 668.601562 719.800781 668.601562 719.800781 L 694.21875 692.847656 C 694.21875 692.847656 706.035156 707.566406 707.726562 708.273438 C 709.027344 708.8125 730.289062 656.601562 730.289062 656.601562 " fill-opacity="1" fill-rule="nonzero"/><path fill="#000000" d="M 669.820312 719.847656 C 673.730469 724.664062 699.679688 755.585938 714.574219 746.859375 C 720.335938 743.480469 729.289062 727.335938 739.226562 669.570312 C 739.785156 666.324219 739.851562 665.964844 739.945312 665.742188 C 740.78125 663.753906 742.296875 662.09375 744.207031 661.066406 C 752.609375 656.550781 754.75 650.328125 755.480469 641.746094 C 755.613281 640.175781 755.039062 636.796875 754.597656 635.417969 C 753.886719 633.195312 753.019531 632.28125 751.714844 630.890625 L 751.410156 630.570312 C 750.230469 629.308594 749.132812 628.742188 748.167969 628.878906 C 745.867188 629.207031 743.769531 633.347656 742.082031 636.675781 C 740.921875 638.964844 739.824219 641.128906 738.636719 642.285156 C 732.925781 647.859375 731.210938 656.683594 731.195312 656.773438 L 731.140625 656.953125 C 731.089844 657.078125 725.890625 669.835938 720.546875 682.519531 C 709.585938 708.515625 708.75 708.867188 708.136719 709.121094 L 707.785156 709.265625 L 707.371094 709.125 C 705.722656 708.4375 697.542969 698.4375 694.160156 694.246094 Z M 708.691406 750.242188 C 691.421875 750.242188 668.949219 721.742188 667.871094 720.367188 L 667.382812 719.738281 L 694.277344 691.449219 L 694.9375 692.269531 C 699.976562 698.546875 705.683594 705.28125 707.589844 707.027344 C 710.21875 702.65625 721.816406 674.953125 729.398438 656.339844 C 729.609375 655.285156 731.472656 646.699219 737.351562 640.964844 C 738.320312 640.019531 739.347656 637.992188 740.433594 635.84375 C 742.511719 631.75 744.660156 627.515625 747.90625 627.050781 C 749.507812 626.824219 751.144531 627.582031 752.757812 629.308594 L 753.058594 629.628906 C 754.429688 631.085938 755.511719 632.234375 756.355469 634.855469 C 756.851562 636.402344 757.476562 640.042969 757.316406 641.902344 C 756.558594 650.84375 754.1875 657.800781 745.082031 662.6875 C 743.550781 663.511719 742.339844 664.832031 741.660156 666.417969 C 741.589844 666.710938 741.347656 668.117188 741.042969 669.882812 C 732.972656 716.820312 724.378906 743.25 715.507812 748.449219 C 713.382812 749.695312 711.085938 750.242188 708.691406 750.242188 " fill-opacity="1" fill-rule="nonzero"/><path fill="#ffffff" d="M 508.40625 823.808594 C 507.921875 825.179688 509.132812 827.867188 508.964844 828.988281 C 508.335938 833.070312 502.261719 838.804688 497.796875 842.527344 C 494.246094 845.488281 492.152344 849.898438 492.136719 854.546875 C 492.136719 855.640625 492.191406 856.835938 492.253906 858.121094 C 492.402344 861.066406 491.460938 862.628906 490.183594 863.421875 C 487.679688 864.976562 484.425781 863.15625 484.109375 860.210938 C 483.414062 853.761719 482.269531 840.394531 484.074219 835.683594 C 485.265625 832.585938 489.089844 828.53125 492.675781 825.207031 C 496.199219 821.945312 498.152344 817.3125 498.128906 812.484375 C 498.058594 795.789062 507.320312 747.042969 518.191406 712.828125 L 545.378906 727.933594 C 545.378906 727.933594 526.257812 773.140625 508.40625 823.808594 " fill-opacity="1" fill-rule="nonzero"/><path fill="#000000" d="M 518.730469 714.183594 C 507.714844 749.242188 498.984375 796.386719 499.050781 812.480469 C 499.074219 817.59375 496.976562 822.480469 493.304688 825.886719 C 488.753906 830.101562 485.863281 833.601562 484.9375 836.011719 C 483.171875 840.617188 484.410156 854.398438 485.023438 860.113281 C 485.148438 861.257812 485.84375 862.25 486.882812 862.753906 C 487.816406 863.210938 488.84375 863.171875 489.699219 862.640625 C 490.894531 861.894531 491.445312 860.390625 491.332031 858.167969 C 491.269531 856.902344 491.210938 855.671875 491.214844 854.542969 C 491.230469 849.621094 493.414062 844.984375 497.207031 841.820312 C 503.753906 836.355469 507.605469 831.75 508.050781 828.847656 C 508.097656 828.550781 507.917969 827.773438 507.773438 827.148438 C 507.476562 825.867188 507.167969 824.542969 507.535156 823.503906 C 523.9375 776.949219 541.621094 734.503906 544.207031 728.339844 Z M 488.203125 864.90625 C 487.484375 864.90625 486.753906 864.742188 486.074219 864.410156 C 484.460938 863.625 483.382812 862.09375 483.191406 860.308594 C 482.410156 853.046875 481.375 840.148438 483.214844 835.355469 C 484.253906 832.640625 487.226562 829 492.050781 824.535156 C 495.347656 821.476562 497.226562 817.085938 497.207031 812.488281 C 497.136719 796.101562 506.089844 747.871094 517.3125 712.550781 C 517.394531 712.285156 517.59375 712.074219 517.851562 711.972656 C 518.109375 711.871094 518.398438 711.886719 518.640625 712.023438 L 545.824219 727.128906 C 546.238281 727.355469 546.410156 727.859375 546.226562 728.292969 C 546.035156 728.746094 526.914062 774.058594 509.273438 824.113281 C 509.085938 824.648438 509.363281 825.851562 509.566406 826.730469 C 509.785156 827.667969 509.972656 828.476562 509.875 829.128906 C 509.214844 833.417969 503.265625 839.167969 498.386719 843.234375 C 495.015625 846.050781 493.074219 850.175781 493.058594 854.550781 C 493.058594 855.632812 493.113281 856.835938 493.175781 858.074219 C 493.324219 861.019531 492.480469 863.078125 490.671875 864.207031 C 489.917969 864.671875 489.066406 864.90625 488.203125 864.90625 " fill-opacity="1" fill-rule="nonzero"/><path fill="#ffffff" d="M 567.148438 645.335938 C 595.832031 636.121094 644.90625 640.765625 659.792969 651.769531 C 679.132812 666.070312 697.398438 689.191406 704.566406 698.765625 C 706.558594 701.429688 706.863281 704.996094 705.367188 707.96875 C 698.929688 720.757812 684.625 752.339844 676.492188 746.386719 C 668.398438 740.460938 658.113281 729.292969 658.695312 735.144531 C 660.238281 750.65625 662.878906 802.488281 662.878906 802.488281 C 662.878906 802.488281 654.367188 805.421875 653.996094 812.390625 L 653.125 831.265625 C 652.914062 833.460938 650.578125 834.753906 648.632812 833.742188 C 632.984375 825.601562 571.039062 817.804688 547.9375 805.160156 C 545.171875 803.644531 543.671875 800.527344 544.210938 797.398438 C 546.921875 781.648438 562.585938 748.378906 556.25 728.351562 C 555.597656 726.285156 550.65625 734.835938 544.6875 739.925781 C 543.726562 740.742188 542.335938 740.789062 541.351562 740.003906 L 514.015625 718.210938 C 511.597656 716.28125 510.722656 712.980469 511.878906 710.089844 C 517.554688 695.890625 536.191406 655.285156 567.148438 645.335938 " fill-opacity="1" fill-rule="nonzero"/><path fill="#000000" d="M 659.644531 734.320312 Z M 555.894531 727.109375 C 555.976562 727.109375 556.0625 727.117188 556.144531 727.136719 C 556.363281 727.175781 556.902344 727.351562 557.128906 728.074219 C 561.683594 742.460938 555.191406 763.242188 549.980469 779.9375 C 547.796875 786.929688 545.910156 792.964844 545.121094 797.554688 C 544.648438 800.292969 545.960938 803.023438 548.382812 804.347656 C 561.1875 811.359375 586.304688 816.925781 608.464844 821.835938 C 626.488281 825.828125 642.054688 829.28125 649.058594 832.921875 C 649.699219 833.253906 650.433594 833.25 651.070312 832.90625 C 651.722656 832.554688 652.136719 831.917969 652.207031 831.175781 L 653.074219 812.351562 C 653.414062 805.945312 659.816406 802.75 661.925781 801.871094 C 661.609375 795.765625 659.207031 749.601562 657.777344 735.230469 C 657.65625 733.980469 657.964844 733.148438 658.699219 732.765625 C 660.472656 731.839844 663.449219 734.28125 669.46875 739.449219 C 671.992188 741.617188 674.605469 743.863281 677.039062 745.644531 C 677.765625 746.175781 678.5625 746.328125 679.472656 746.105469 C 686.382812 744.410156 696.769531 723.308594 702.351562 711.972656 C 703.15625 710.347656 703.890625 708.851562 704.542969 707.554688 C 705.894531 704.871094 705.621094 701.714844 703.828125 699.320312 C 696.851562 690 678.539062 666.777344 659.246094 652.511719 C 652.195312 647.300781 636.988281 643.328125 618.570312 641.890625 C 599.308594 640.382812 580.671875 641.960938 567.429688 646.214844 C 536.523438 656.148438 517.75 697.878906 512.734375 710.433594 C 511.738281 712.921875 512.503906 715.824219 514.59375 717.488281 L 541.925781 739.28125 C 542.5625 739.789062 543.453125 739.765625 544.085938 739.222656 C 546.816406 736.894531 549.324219 733.832031 551.335938 731.371094 C 553.839844 728.3125 554.878906 727.109375 555.894531 727.109375 Z M 650.046875 835.011719 C 649.417969 835.011719 648.785156 834.859375 648.207031 834.558594 C 641.417969 831.027344 625.21875 827.4375 608.0625 823.636719 C 585.785156 818.699219 560.53125 813.105469 547.496094 805.96875 C 544.382812 804.261719 542.699219 800.757812 543.300781 797.242188 C 544.113281 792.535156 546.015625 786.441406 548.21875 779.386719 C 553.273438 763.199219 559.546875 743.117188 555.570312 729.296875 C 554.890625 729.941406 553.777344 731.304688 552.761719 732.539062 C 550.703125 735.058594 548.136719 738.191406 545.285156 740.625 C 543.988281 741.730469 542.089844 741.773438 540.777344 740.726562 L 513.441406 718.929688 C 510.722656 716.765625 509.726562 712.988281 511.023438 709.75 C 517.546875 693.417969 536.054688 654.363281 566.867188 644.460938 L 567.148438 645.335938 L 566.867188 644.460938 C 596.675781 634.878906 645.589844 640.125 660.339844 651.03125 C 679.832031 665.441406 698.277344 688.828125 705.304688 698.214844 C 707.519531 701.175781 707.859375 705.070312 706.191406 708.382812 C 705.539062 709.679688 704.804688 711.167969 704.007812 712.789062 C 697.496094 726.011719 687.65625 745.996094 679.914062 747.894531 C 678.460938 748.25 677.125 747.996094 675.949219 747.132812 C 673.457031 745.304688 670.820312 743.039062 668.265625 740.851562 C 665.128906 738.15625 660.871094 734.503906 659.617188 734.417969 C 659.597656 734.519531 659.582031 734.714844 659.613281 735.050781 C 661.140625 750.410156 663.773438 801.921875 663.800781 802.441406 C 663.820312 802.851562 663.570312 803.222656 663.183594 803.359375 C 663.101562 803.386719 655.25 806.183594 654.917969 812.441406 L 654.046875 831.304688 C 653.914062 832.695312 653.132812 833.886719 651.949219 834.523438 C 651.355469 834.847656 650.703125 835.011719 650.046875 835.011719 " fill-opacity="1" fill-rule="nonzero"/><path fill="#ffffff" d="M 651.085938 589.808594 C 653.515625 590.644531 654.644531 595.695312 655.03125 598.257812 C 656.296875 606.695312 651.929688 626.488281 645.867188 627.78125 C 639.894531 629.054688 640.402344 626.335938 635.851562 628.886719 C 632.21875 630.921875 631.738281 634.652344 630.089844 642.703125 C 629.984375 643.210938 640.433594 646.183594 640.617188 646.675781 C 641.035156 647.785156 634.574219 661.441406 614.460938 658.886719 C 595.40625 656.464844 592.753906 643.4375 592.683594 642.523438 C 592.640625 641.976562 607.066406 640.96875 607.320312 640.445312 C 610.660156 633.542969 613.136719 621.527344 613.136719 621.527344 C 613.136719 621.527344 625.511719 581.046875 651.085938 589.808594 " fill-opacity="1" fill-rule="nonzero"/><path fill="#000000" d="M 630.992188 642.882812 L 630.992188 642.886719 C 630.992188 642.882812 630.992188 642.882812 630.992188 642.882812 Z M 639.714844 646.800781 Z M 593.75 643.144531 C 594.457031 645.886719 598.152344 655.886719 614.578125 657.972656 C 625.105469 659.308594 631.53125 656.066406 635.066406 653.105469 C 637.964844 650.683594 639.285156 648.183594 639.625 647.179688 C 638.769531 646.832031 636.875 646.207031 635.421875 645.726562 C 629.511719 643.769531 628.972656 643.558594 629.183594 642.515625 L 629.554688 640.695312 C 630.972656 633.683594 631.683594 630.167969 635.398438 628.082031 C 638.167969 626.53125 639.394531 626.753906 640.816406 627.007812 C 641.902344 627.203125 643.132812 627.421875 645.675781 626.882812 C 650.96875 625.753906 655.335938 606.507812 654.117188 598.390625 C 653.484375 594.1875 652.179688 591.160156 650.785156 590.683594 C 645.367188 588.828125 640.136719 589.152344 635.242188 591.652344 C 621.449219 598.6875 614.367188 620.691406 614.03125 621.757812 C 613.835938 622.6875 611.429688 634.0625 608.148438 640.84375 C 607.84375 641.480469 607.800781 641.5625 600.261719 642.363281 C 598 642.605469 595.058594 642.914062 593.75 643.144531 Z M 619.265625 660.125 C 617.722656 660.125 616.085938 660.023438 614.347656 659.800781 C 593.839844 657.195312 591.773438 642.742188 591.765625 642.597656 C 591.679688 641.539062 592.753906 641.394531 594.898438 641.117188 C 596.316406 640.925781 598.222656 640.726562 600.066406 640.53125 C 602.460938 640.273438 605.664062 639.9375 606.644531 639.71875 C 609.816406 632.945312 612.207031 621.457031 612.234375 621.339844 L 612.253906 621.257812 C 612.550781 620.289062 619.648438 597.539062 634.40625 590.007812 C 639.761719 587.273438 645.472656 586.914062 651.382812 588.9375 C 654.300781 589.9375 655.492188 595.117188 655.941406 598.121094 C 657.207031 606.5625 652.898438 627.226562 646.0625 628.683594 C 643.167969 629.304688 641.683594 629.039062 640.492188 628.820312 C 639.246094 628.597656 638.492188 628.460938 636.300781 629.691406 C 633.324219 631.359375 632.710938 634.402344 631.363281 641.058594 L 631.117188 642.269531 C 632.085938 642.679688 634.390625 643.441406 636 643.972656 C 641.070312 645.652344 641.261719 645.769531 641.480469 646.351562 C 641.902344 647.472656 640.328125 650.0625 639.171875 651.53125 C 636.988281 654.292969 630.984375 660.125 619.265625 660.125 " fill-opacity="1" fill-rule="nonzero"/><path fill="#000000" d="M 639.542969 607.996094 C 639.5 607.996094 639.457031 607.996094 639.414062 607.988281 C 635.515625 607.453125 632.914062 602.183594 632.652344 597.402344 C 632.441406 593.476562 633.816406 590.75 636.339844 590.117188 C 640.585938 589.054688 643.972656 595.433594 644.117188 595.703125 C 644.351562 596.15625 644.175781 596.714844 643.726562 596.949219 C 643.273438 597.183594 642.71875 597.011719 642.480469 596.558594 C 641.695312 595.066406 639.144531 591.316406 636.789062 591.910156 C 634.90625 592.378906 634.371094 595.003906 634.496094 597.300781 C 634.710938 601.265625 636.839844 605.773438 639.664062 606.160156 C 640.171875 606.230469 640.523438 606.699219 640.453125 607.203125 C 640.390625 607.664062 639.996094 607.996094 639.542969 607.996094 " fill-opacity="1" fill-rule="nonzero"/><path fill="#000000" d="M 660.390625 581.6875 C 661.46875 587.605469 655.527344 588.960938 650.8125 592.648438 C 645.945312 596.460938 646.125 596.332031 643.941406 597.460938 C 642.488281 598.214844 641.921875 592.5625 637.96875 591.773438 C 635.019531 591.183594 634.277344 593.679688 633.636719 594.398438 C 631.058594 597.289062 657.433594 655.238281 644.039062 690.65625 C 635.492188 713.25 613.554688 723.277344 564.78125 718.777344 C 523.960938 715.015625 513.160156 673.664062 520.394531 658.488281 C 539.160156 619.125 578.367188 655.265625 587.601562 596.570312 C 594.074219 555.425781 632.53125 537.097656 656.039062 570.496094 C 658.414062 573.867188 659.707031 577.925781 660.390625 581.6875 " fill-opacity="1" fill-rule="nonzero"/><path fill="#000000" d="M 744.6875 399.878906 C 744.582031 399.878906 744.476562 399.863281 744.371094 399.820312 C 693.21875 380.976562 643.726562 399.628906 643.230469 399.816406 C 642.757812 400.003906 642.222656 399.765625 642.039062 399.289062 C 641.855469 398.8125 642.09375 398.28125 642.570312 398.097656 C 642.695312 398.046875 655.320312 393.234375 674.152344 390.847656 C 691.535156 388.644531 717.933594 388.117188 745.003906 398.09375 C 745.484375 398.265625 745.730469 398.800781 745.550781 399.277344 C 745.417969 399.648438 745.0625 399.878906 744.6875 399.878906 " fill-opacity="1" fill-rule="nonzero"/><path fill="#000000" d="M 653.417969 405.339844 C 653.0625 405.339844 652.722656 405.128906 652.570312 404.785156 C 652.367188 404.320312 652.582031 403.777344 653.046875 403.570312 C 653.9375 403.183594 675.003906 394.167969 693.980469 398.054688 C 694.476562 398.160156 694.800781 398.644531 694.695312 399.144531 C 694.59375 399.644531 694.105469 399.964844 693.609375 399.859375 C 675.210938 396.09375 653.996094 405.171875 653.785156 405.261719 C 653.664062 405.316406 653.539062 405.339844 653.417969 405.339844 " fill-opacity="1" fill-rule="nonzero"/><path fill="#000000" d="M 702.976562 399.609375 C 702.597656 399.609375 702.238281 399.738281 701.945312 399.984375 C 701.617188 400.261719 701.414062 400.648438 701.378906 401.074219 C 701.339844 401.503906 701.472656 401.921875 701.746094 402.25 C 702.023438 402.574219 702.410156 402.777344 702.839844 402.816406 C 703.269531 402.855469 703.683594 402.71875 704.011719 402.445312 C 704.339844 402.167969 704.542969 401.78125 704.578125 401.355469 C 704.617188 400.925781 704.484375 400.507812 704.207031 400.183594 C 703.933594 399.855469 703.542969 399.652344 703.117188 399.613281 C 703.070312 399.609375 703.023438 399.609375 702.976562 399.609375 Z M 702.984375 404.667969 C 702.882812 404.667969 702.78125 404.660156 702.679688 404.652344 C 701.761719 404.574219 700.929688 404.140625 700.335938 403.433594 C 699.742188 402.726562 699.460938 401.835938 699.539062 400.917969 C 699.621094 400 700.054688 399.167969 700.757812 398.574219 C 701.464844 397.980469 702.355469 397.699219 703.277344 397.777344 C 704.195312 397.855469 705.027344 398.289062 705.621094 398.996094 C 706.214844 399.703125 706.496094 400.597656 706.417969 401.515625 C 706.335938 402.433594 705.902344 403.261719 705.199219 403.859375 C 704.570312 404.382812 703.792969 404.667969 702.984375 404.667969 " fill-opacity="1" fill-rule="nonzero"/><path fill="#000000" d="M 920.929688 442.128906 L 920.933594 442.128906 Z M 925.265625 439.363281 C 924.542969 439.363281 923.84375 439.589844 923.246094 440.015625 C 922.492188 440.558594 921.992188 441.363281 921.839844 442.277344 C 921.527344 444.171875 922.816406 445.964844 924.707031 446.277344 C 926.59375 446.585938 928.390625 445.300781 928.707031 443.410156 C 929.015625 441.515625 927.730469 439.722656 925.835938 439.410156 C 925.644531 439.382812 925.453125 439.363281 925.265625 439.363281 Z M 925.273438 448.167969 C 924.988281 448.167969 924.699219 448.144531 924.40625 448.09375 C 921.511719 447.621094 919.542969 444.871094 920.019531 441.980469 C 920.253906 440.578125 921.015625 439.347656 922.167969 438.519531 C 923.328125 437.6875 924.734375 437.359375 926.136719 437.59375 C 929.03125 438.070312 931.003906 440.816406 930.523438 443.707031 C 930.09375 446.3125 927.832031 448.167969 925.273438 448.167969 " fill-opacity="1" fill-rule="nonzero"/><path fill="#696052" d="M 922.746094 412.746094 C 923.351562 409.078125 926.816406 406.589844 930.484375 407.199219 C 934.160156 407.800781 936.644531 411.269531 936.039062 414.9375 C 935.433594 418.609375 931.96875 421.09375 928.296875 420.492188 C 924.625 419.882812 922.140625 416.417969 922.746094 412.746094 " fill-opacity="1" fill-rule="nonzero"/><path fill="#000000" d="M 875.261719 401.019531 L 881.582031 422.589844 L 894.796875 404.488281 Z M 881.222656 425.570312 C 881.167969 425.570312 881.113281 425.5625 881.066406 425.554688 C 880.71875 425.492188 880.4375 425.242188 880.339844 424.902344 L 873.074219 400.109375 C 872.984375 399.804688 873.058594 399.472656 873.269531 399.238281 C 873.484375 399 873.804688 398.886719 874.121094 398.945312 L 896.566406 402.933594 C 896.882812 402.988281 897.144531 403.203125 897.265625 403.496094 C 897.382812 403.792969 897.339844 404.128906 897.152344 404.386719 L 881.964844 425.1875 C 881.789062 425.429688 881.515625 425.570312 881.222656 425.570312 " fill-opacity="1" fill-rule="nonzero"/><g clip-path="url(#971d539965)"><g clip-path="url(#a903380643)"><g transform="matrix(1, 0, 0, 1, 1186, 157)"><g clip-path="url(#15d1d1cb94)"><g clip-path="url(#f62bd00c1a)"><g clip-path="url(#afbf5247b1)"><path fill="#ff8a15" d="M 0.824219 0.8125 L 42.289062 0.8125 L 42.289062 22.65625 L 0.824219 22.65625 Z M 0.824219 0.8125 " fill-opacity="1" fill-rule="nonzero"/></g></g></g></g></g></g><g clip-path="url(#e670a03250)"><g clip-path="url(#0c5a201007)"><g transform="matrix(1, 0, 0, 1, 211, 157)"><g clip-path="url(#f030202d1f)"><g clip-path="url(#8a84c97b67)"><g clip-path="url(#818f38e7e4)"><path fill="#ff8a15" d="M 0.714844 0.8125 L 42.179688 0.8125 L 42.179688 22.65625 L 0.714844 22.65625 Z M 0.714844 0.8125 " fill-opacity="1" fill-rule="nonzero"/></g></g></g></g></g></g></svg>