<svg xmlns="http://www.w3.org/2000/svg" xmlns:xlink="http://www.w3.org/1999/xlink" width="1920" zoomAndPan="magnify" viewBox="0 0 1440 809.999993" height="1080" preserveAspectRatio="xMidYMid meet" version="1.2"><defs><clipPath id="8ef2e3f677"><path d="M 158.882812 215.785156 L 1119.078125 215.785156 L 1119.078125 421.996094 L 158.882812 421.996094 Z M 158.882812 215.785156 "/></clipPath></defs><g id="733d097184"><g clip-rule="nonzero" clip-path="url(#8ef2e3f677)"><path style=" stroke:none;fill-rule:nonzero;fill:#ff8a15;fill-opacity:1;" d="M 1010.335938 418.769531 L 260.371094 418.769531 C 204.320312 418.769531 158.882812 373.332031 158.882812 317.28125 C 158.882812 261.230469 204.320312 215.792969 260.371094 215.792969 L 1010.335938 215.792969 C 1066.390625 215.792969 1111.832031 261.230469 1111.832031 317.28125 C 1111.832031 341.601562 1103.265625 363.925781 1089 381.40625 C 1098.992188 400.167969 1119.078125 421.996094 1119.078125 421.996094 C 1119.078125 421.996094 1089.292969 410.144531 1065.960938 402.160156 C 1049.984375 412.65625 1030.875 418.769531 1010.335938 418.769531 "/></g><g style="fill:#ffffff;fill-opacity:1;"><g transform="translate(184.720353, 341.838783)"><path style="stroke:none" d=""/></g></g><g style="fill:#ffffff;fill-opacity:1;"><g transform="translate(203.353164, 341.838783)"><path style="stroke:none" d="M 33.53125 -44.796875 L 33.53125 -35.640625 C 29.132812 -37.859375 24.65625 -38.96875 20.09375 -38.96875 C 16.164062 -38.96875 14.203125 -37.4375 14.203125 -34.375 C 14.203125 -31.6875 15.910156 -29.828125 19.328125 -28.796875 C 22.273438 -27.859375 24.769531 -26.875 26.8125 -25.84375 C 28.863281 -24.820312 30.441406 -23.71875 31.546875 -22.53125 C 33.859375 -20.1875 35.015625 -17.050781 35.015625 -13.125 C 35.015625 -3.945312 29.226562 0.640625 17.65625 0.640625 C 12.707031 0.640625 8.296875 -0.46875 4.421875 -2.6875 L 4.421875 -11.96875 C 8.429688 -9.238281 12.632812 -7.875 17.03125 -7.875 C 21.632812 -7.875 23.9375 -9.554688 23.9375 -12.921875 C 23.9375 -14.335938 23.53125 -15.492188 22.71875 -16.390625 C 21.90625 -17.285156 20.5 -18.050781 18.5 -18.6875 C 13.125 -20.394531 9.238281 -22.515625 6.84375 -25.046875 C 4.457031 -27.585938 3.265625 -30.695312 3.265625 -34.375 C 3.265625 -38.382812 4.660156 -41.550781 7.453125 -43.875 C 10.242188 -46.195312 14.242188 -47.359375 19.453125 -47.359375 C 24.910156 -47.359375 29.601562 -46.503906 33.53125 -44.796875 Z M 33.53125 -44.796875 "/></g></g><g style="fill:#ffffff;fill-opacity:1;"><g transform="translate(241.622812, 341.838783)"><path style="stroke:none" d="M 15.421875 -28.671875 L 15.296875 -28.671875 L 15.296875 0 L 4.859375 0 L 4.859375 -46.71875 L 15.296875 -46.71875 L 30.40625 -18.046875 L 30.53125 -18.046875 L 30.53125 -46.71875 L 40.953125 -46.71875 L 40.953125 0 L 30.53125 0 Z M 15.421875 -28.671875 "/></g></g><g style="fill:#ffffff;fill-opacity:1;"><g transform="translate(287.444003, 341.838783)"><path style="stroke:none" d="M 33.53125 -44.796875 L 33.53125 -35.640625 C 29.132812 -37.859375 24.65625 -38.96875 20.09375 -38.96875 C 16.164062 -38.96875 14.203125 -37.4375 14.203125 -34.375 C 14.203125 -31.6875 15.910156 -29.828125 19.328125 -28.796875 C 22.273438 -27.859375 24.769531 -26.875 26.8125 -25.84375 C 28.863281 -24.820312 30.441406 -23.71875 31.546875 -22.53125 C 33.859375 -20.1875 35.015625 -17.050781 35.015625 -13.125 C 35.015625 -3.945312 29.226562 0.640625 17.65625 0.640625 C 12.707031 0.640625 8.296875 -0.46875 4.421875 -2.6875 L 4.421875 -11.96875 C 8.429688 -9.238281 12.632812 -7.875 17.03125 -7.875 C 21.632812 -7.875 23.9375 -9.554688 23.9375 -12.921875 C 23.9375 -14.335938 23.53125 -15.492188 22.71875 -16.390625 C 21.90625 -17.285156 20.5 -18.050781 18.5 -18.6875 C 13.125 -20.394531 9.238281 -22.515625 6.84375 -25.046875 C 4.457031 -27.585938 3.265625 -30.695312 3.265625 -34.375 C 3.265625 -38.382812 4.660156 -41.550781 7.453125 -43.875 C 10.242188 -46.195312 14.242188 -47.359375 19.453125 -47.359375 C 24.910156 -47.359375 29.601562 -46.503906 33.53125 -44.796875 Z M 33.53125 -44.796875 "/></g></g><g style="fill:#ffffff;fill-opacity:1;"><g transform="translate(325.713651, 341.838783)"><path style="stroke:none" d="M 27.71875 -43.578125 L 27.71875 -41.734375 L 35.015625 -41.734375 L 35.015625 -43.578125 Z M 8.578125 -6.203125 L 8.578125 -20.484375 L 3.140625 -20.484375 L 3.140625 -28.609375 L 17.65625 -28.609375 L 17.65625 -8.125 C 18.507812 -6.71875 19.429688 -5.71875 20.421875 -5.125 C 21.398438 -4.4375 23.039062 -3.890625 25.34375 -3.484375 C 27.644531 -3.078125 30.867188 -2.832031 35.015625 -2.75 L 35.015625 -5.703125 L 19.78125 -5.703125 L 19.78125 -12.546875 L 35.015625 -12.546875 L 35.015625 -14.265625 L 21.1875 -14.265625 L 21.1875 -33.65625 L 35.015625 -33.65625 L 35.015625 -35.390625 L 21.953125 -35.390625 L 21.953125 -38.078125 L 19.71875 -38.078125 L 14.265625 -32.953125 C 10.296875 -37.304688 6.585938 -41.210938 3.140625 -44.671875 L 9.65625 -50.5625 C 11.40625 -48.8125 13.046875 -47.101562 14.578125 -45.4375 C 16.117188 -43.769531 17.597656 -42.148438 19.015625 -40.578125 L 19.015625 -50.8125 L 60.09375 -50.8125 L 60.09375 -38.078125 L 57.15625 -38.078125 L 57.15625 -35.390625 L 44.421875 -35.390625 L 44.421875 -33.65625 L 57.921875 -33.65625 L 57.921875 -14.265625 L 44.421875 -14.265625 L 44.421875 -12.546875 L 60.21875 -12.546875 L 60.21875 -5.703125 L 44.421875 -5.703125 L 44.421875 -2.6875 L 60.984375 -2.6875 L 60.484375 5.0625 L 44.546875 5.0625 C 36.054688 5.0625 29.523438 4.675781 24.953125 3.90625 C 20.429688 3.050781 17.082031 1.6875 14.90625 -0.1875 C 13.96875 0.625 12.816406 1.550781 11.453125 2.59375 C 10.085938 3.632812 8.46875 4.773438 6.59375 6.015625 L 1.984375 -1.734375 C 3.265625 -2.492188 4.445312 -3.257812 5.53125 -4.03125 C 6.625 -4.800781 7.640625 -5.523438 8.578125 -6.203125 Z M 35.015625 -19.90625 L 35.015625 -21.703125 L 29.5625 -21.703125 L 29.5625 -19.90625 Z M 35.015625 -26.296875 L 35.015625 -28.03125 L 29.5625 -28.03125 L 29.5625 -26.296875 Z M 44.421875 -19.90625 L 49.53125 -19.90625 L 49.53125 -21.703125 L 44.421875 -21.703125 Z M 49.53125 -26.296875 L 49.53125 -28.03125 L 44.421875 -28.03125 L 44.421875 -26.296875 Z M 51.328125 -43.578125 L 44.421875 -43.578125 L 44.421875 -41.734375 L 51.328125 -41.734375 Z M 51.328125 -43.578125 "/></g></g><g style="fill:#ffffff;fill-opacity:1;"><g transform="translate(389.70973, 341.838783)"><path style="stroke:none" d="M 7.546875 -27.578125 L 7.546875 -50.8125 L 58.75 -50.8125 L 58.75 -5.4375 C 58.75 -4.5 58.738281 -3.644531 58.71875 -2.875 C 58.695312 -2.113281 58.664062 -1.453125 58.625 -0.890625 C 58.582031 0.171875 58.410156 1.179688 58.109375 2.140625 C 57.804688 3.097656 57.46875 3.789062 57.09375 4.21875 C 56.707031 4.601562 56.066406 4.945312 55.171875 5.25 C 54.316406 5.550781 53.382812 5.742188 52.375 5.828125 C 51.375 5.910156 50 5.953125 48.25 5.953125 C 47.695312 5.953125 46.757812 5.921875 45.4375 5.859375 C 44.113281 5.796875 42.453125 5.71875 40.453125 5.625 L 39.9375 -2.6875 C 41.8125 -2.601562 43.289062 -2.53125 44.375 -2.46875 C 45.46875 -2.40625 46.164062 -2.375 46.46875 -2.375 C 47.695312 -2.375 48.429688 -2.5 48.671875 -2.75 C 48.910156 -3.007812 49.03125 -3.753906 49.03125 -4.984375 L 49.03125 -12.21875 L 36.984375 -12.21875 L 36.984375 4.28125 L 27.515625 4.28125 L 27.515625 -12.21875 L 16.703125 -12.21875 C 16.316406 -8.71875 15.523438 -5.421875 14.328125 -2.328125 C 13.140625 0.753906 11.609375 3.644531 9.734375 6.34375 L 1.59375 -0.390625 C 3.945312 -3.878906 5.53125 -7.460938 6.34375 -11.140625 C 6.71875 -12.972656 7.007812 -15.265625 7.21875 -18.015625 C 7.4375 -20.765625 7.546875 -23.953125 7.546875 -27.578125 Z M 49.03125 -35.328125 L 49.03125 -42.6875 L 36.984375 -42.6875 L 36.984375 -35.328125 Z M 27.515625 -42.6875 L 17.28125 -42.6875 L 17.28125 -35.328125 L 27.515625 -35.328125 Z M 36.984375 -19.84375 L 49.03125 -19.84375 L 49.03125 -27.71875 L 36.984375 -27.71875 Z M 17.21875 -19.84375 L 27.515625 -19.84375 L 27.515625 -27.71875 L 17.28125 -27.71875 L 17.28125 -23.171875 C 17.28125 -22.785156 17.269531 -22.21875 17.25 -21.46875 C 17.226562 -20.726562 17.21875 -20.1875 17.21875 -19.84375 Z M 17.21875 -19.84375 "/></g></g><g style="fill:#ffffff;fill-opacity:1;"><g transform="translate(453.705797, 341.838783)"><path style="stroke:none" d="M 48.953125 -3.71875 L 43.78125 5.4375 C 33.40625 0.40625 27.257812 -6.160156 25.34375 -14.265625 C 23.8125 -21.054688 25.070312 -28.441406 29.125 -36.421875 L 6.78125 -34.6875 L 5.625 -48.1875 L 12.734375 -48.765625 L 13.125 -44.734375 L 57.40625 -48.125 L 58.109375 -38.53125 L 41.65625 -37.3125 C 40.289062 -35.21875 39.03125 -33 37.875 -30.65625 C 36.726562 -28.3125 35.898438 -25.953125 35.390625 -23.578125 C 34.878906 -21.210938 34.878906 -18.898438 35.390625 -16.640625 C 35.984375 -14.160156 37.441406 -11.820312 39.765625 -9.625 C 42.097656 -7.4375 45.160156 -5.46875 48.953125 -3.71875 Z M 50.625 -19.328125 L 44.484375 -18.296875 L 42.6875 -27.71875 L 48.828125 -28.921875 Z M 59.265625 -18.8125 L 53.1875 -17.734375 L 51.453125 -27.203125 L 57.53125 -28.484375 Z M 59.265625 -18.8125 "/></g></g><g style="fill:#ffffff;fill-opacity:1;"><g transform="translate(517.701888, 341.838783)"><path style="stroke:none" d="M 7.234375 -15.484375 L 1.09375 -16.765625 C 1.726562 -20.691406 2.300781 -24.5625 2.8125 -28.375 C 3.320312 -32.195312 3.789062 -35.988281 4.21875 -39.75 L 9.28125 -39.046875 L 9.28125 -51.71875 L 18.296875 -51.71875 L 18.296875 -40.1875 L 22.59375 -41.34375 C 23.101562 -39.382812 23.613281 -37.390625 24.125 -35.359375 C 24.632812 -33.328125 25.144531 -31.25 25.65625 -29.125 L 30.84375 -29.125 L 30.84375 -25.28125 L 34.6875 -29.703125 C 35.539062 -29.015625 36.445312 -28.273438 37.40625 -27.484375 C 38.363281 -26.691406 39.378906 -25.804688 40.453125 -24.828125 C 41.816406 -27.304688 42.90625 -29.566406 43.71875 -31.609375 L 50.75 -27.96875 L 50.75 -29.125 L 60.15625 -29.125 L 60.15625 5.3125 L 50.5625 5.3125 L 50.5625 2.5625 L 31.109375 2.5625 L 31.109375 5.3125 L 21.765625 5.3125 L 21.765625 -25.09375 L 20.21875 -24.765625 C 19.925781 -26.265625 19.617188 -27.707031 19.296875 -29.09375 C 18.972656 -30.476562 18.640625 -31.8125 18.296875 -33.09375 L 18.296875 5.625 L 9.28125 5.625 L 9.28125 -29.1875 C 9.113281 -27.5625 8.847656 -25.609375 8.484375 -23.328125 C 8.117188 -21.046875 7.703125 -18.429688 7.234375 -15.484375 Z M 54.71875 -29.5625 L 46.015625 -32.703125 C 46.140625 -33.003906 46.304688 -33.359375 46.515625 -33.765625 C 46.734375 -34.171875 46.882812 -34.5 46.96875 -34.75 L 39.234375 -32.640625 C 38.546875 -36.179688 37.816406 -39.410156 37.046875 -42.328125 C 36.285156 -45.253906 35.539062 -47.847656 34.8125 -50.109375 L 43.328125 -52.21875 C 44.691406 -48.082031 46.054688 -42.601562 47.421875 -35.78125 C 48.398438 -38.164062 49.328125 -40.660156 50.203125 -43.265625 C 51.078125 -45.867188 51.898438 -48.597656 52.671875 -51.453125 L 61.5625 -49.15625 C 60.375 -44.96875 59.210938 -41.242188 58.078125 -37.984375 C 56.953125 -34.722656 55.832031 -31.914062 54.71875 -29.5625 Z M 35.96875 -33.28125 L 27.453125 -30.78125 C 26.515625 -34.5 25.617188 -37.785156 24.765625 -40.640625 C 23.910156 -43.492188 23.144531 -45.90625 22.46875 -47.875 L 30.90625 -50.4375 C 31.894531 -47.570312 32.8125 -44.707031 33.65625 -41.84375 C 34.507812 -38.988281 35.28125 -36.132812 35.96875 -33.28125 Z M 30.84375 -22.40625 L 30.84375 -13.375 C 31.78125 -14.101562 32.65625 -14.847656 33.46875 -15.609375 C 34.28125 -16.378906 35.050781 -17.191406 35.78125 -18.046875 C 35.09375 -18.691406 34.34375 -19.382812 33.53125 -20.125 C 32.71875 -20.875 31.820312 -21.632812 30.84375 -22.40625 Z M 30.84375 -11.203125 L 30.84375 -5.0625 L 50.75 -5.0625 L 50.75 -11.203125 L 46.59375 -6.40625 C 45.78125 -7.382812 44.945312 -8.351562 44.09375 -9.3125 C 43.238281 -10.269531 42.363281 -11.238281 41.46875 -12.21875 C 39.289062 -9.664062 36.96875 -7.40625 34.5 -5.4375 Z M 50.75 -14.203125 L 50.75 -27.453125 C 50.113281 -25.921875 49.441406 -24.445312 48.734375 -23.03125 C 48.035156 -21.625 47.257812 -20.238281 46.40625 -18.875 C 47.125 -18.195312 47.832031 -17.460938 48.53125 -16.671875 C 49.238281 -15.878906 49.976562 -15.054688 50.75 -14.203125 Z M 50.75 -14.203125 "/></g></g><g style="fill:#ffffff;fill-opacity:1;"><g transform="translate(581.697978, 341.838783)"><path style="stroke:none" d="M 50.875 1.28125 C 49.425781 2.476562 47.753906 3.34375 45.859375 3.875 C 43.960938 4.40625 42.03125 4.570312 40.0625 4.375 C 38.101562 4.1875 36.289062 3.625 34.625 2.6875 C 32.238281 1.40625 30.425781 -0.425781 29.1875 -2.8125 C 27.945312 -5.207031 27.09375 -7.679688 26.625 -10.234375 L 17.984375 -9.21875 L 12.609375 4.359375 L 3.265625 0.765625 L 20.734375 -43.90625 L 15.9375 -45.765625 L 18.5 -52.28125 L 32.765625 -46.84375 L 22.140625 -19.453125 L 36.546875 -20.984375 C 36.421875 -19.148438 36.3125 -17.21875 36.21875 -15.1875 C 36.132812 -13.164062 36.4375 -11.195312 37.125 -9.28125 C 37.59375 -8 38.347656 -6.960938 39.390625 -6.171875 C 40.429688 -5.378906 41.613281 -5.195312 42.9375 -5.625 C 44.394531 -6.101562 45.535156 -7.035156 46.359375 -8.421875 C 47.191406 -9.804688 47.832031 -11.414062 48.28125 -13.25 C 48.726562 -15.082031 49.035156 -16.90625 49.203125 -18.71875 C 49.378906 -20.53125 49.507812 -22.078125 49.59375 -23.359375 L 59.78125 -22.96875 C 59.601562 -20.15625 59.269531 -17.242188 58.78125 -14.234375 C 58.289062 -11.234375 57.4375 -8.375 56.21875 -5.65625 C 55.007812 -2.945312 53.226562 -0.632812 50.875 1.28125 Z M 50.875 1.28125 "/></g></g><g style="fill:#ffffff;fill-opacity:1;"><g transform="translate(645.694069, 341.838783)"><path style="stroke:none" d="M 48.953125 -3.71875 L 43.78125 5.4375 C 33.40625 0.40625 27.257812 -6.160156 25.34375 -14.265625 C 23.8125 -21.054688 25.070312 -28.441406 29.125 -36.421875 L 6.78125 -34.6875 L 5.625 -48.1875 L 12.734375 -48.765625 L 13.125 -44.734375 L 57.40625 -48.125 L 58.109375 -38.53125 L 41.65625 -37.3125 C 40.289062 -35.21875 39.03125 -33 37.875 -30.65625 C 36.726562 -28.3125 35.898438 -25.953125 35.390625 -23.578125 C 34.878906 -21.210938 34.878906 -18.898438 35.390625 -16.640625 C 35.984375 -14.160156 37.441406 -11.820312 39.765625 -9.625 C 42.097656 -7.4375 45.160156 -5.46875 48.953125 -3.71875 Z M 50.625 -19.328125 L 44.484375 -18.296875 L 42.6875 -27.71875 L 48.828125 -28.921875 Z M 59.265625 -18.8125 L 53.1875 -17.734375 L 51.453125 -27.203125 L 57.53125 -28.484375 Z M 59.265625 -18.8125 "/></g></g><g style="fill:#ffffff;fill-opacity:1;"><g transform="translate(709.690114, 341.838783)"><path style="stroke:none" d="M 27.84375 -13.4375 L 34.6875 -10.9375 L 29.0625 3.640625 L 24.1875 1.859375 C 19.832031 0.234375 16.289062 -1.863281 13.5625 -4.4375 C 10.832031 -7.019531 8.71875 -10.03125 7.21875 -13.46875 C 5.726562 -16.90625 4.707031 -20.734375 4.15625 -24.953125 C 3.601562 -29.179688 3.328125 -33.75 3.328125 -38.65625 L 3.328125 -43.78125 L 13.703125 -43.78125 L 13.703125 -38.65625 C 13.703125 -33.53125 13.96875 -29.226562 14.5 -25.75 C 15.03125 -22.28125 15.816406 -19.425781 16.859375 -17.1875 C 17.910156 -14.945312 19.179688 -13.144531 20.671875 -11.78125 C 22.160156 -10.414062 23.890625 -9.304688 25.859375 -8.453125 Z M 60.796875 -18.046875 L 60.796875 -12.984375 L 50.375 -12.984375 L 50.375 -18.046875 C 50.375 -21.710938 49.859375 -24.769531 48.828125 -27.21875 C 47.804688 -29.675781 46.289062 -31.632812 44.28125 -33.09375 L 42.4375 -28.859375 L 35.78125 -31.609375 L 41.984375 -45.5625 L 47.171875 -43.203125 C 48.742188 -42.472656 50.328125 -41.457031 51.921875 -40.15625 C 53.523438 -38.851562 55 -37.195312 56.34375 -35.1875 C 57.695312 -33.1875 58.773438 -30.78125 59.578125 -27.96875 C 60.390625 -25.15625 60.796875 -21.847656 60.796875 -18.046875 Z M 60.796875 -18.046875 "/></g></g><g style="fill:#ffffff;fill-opacity:1;"><g transform="translate(773.686204, 341.838783)"><path style="stroke:none" d="M 54.40625 -40.890625 L 48.890625 -40.515625 L 38.015625 -32.640625 C 40.828125 -32.335938 43.363281 -31.503906 45.625 -30.140625 C 47.894531 -28.773438 49.785156 -27.066406 51.296875 -25.015625 C 52.804688 -22.972656 53.878906 -20.722656 54.515625 -18.265625 C 55.160156 -15.816406 55.28125 -13.320312 54.875 -10.78125 C 54.46875 -8.238281 53.457031 -5.816406 51.84375 -3.515625 C 49.789062 -0.660156 47.15625 1.445312 43.9375 2.8125 C 40.71875 4.175781 37.144531 4.859375 33.21875 4.859375 C 31.25 4.859375 29.21875 4.625 27.125 4.15625 C 25.039062 3.6875 23.132812 2.941406 21.40625 1.921875 C 19.675781 0.898438 18.320312 -0.472656 17.34375 -2.203125 C 16.363281 -3.929688 15.976562 -6.078125 16.1875 -8.640625 C 16.40625 -10.816406 17.078125 -12.78125 18.203125 -14.53125 C 19.335938 -16.28125 20.769531 -17.664062 22.5 -18.6875 C 24.226562 -19.707031 26.09375 -20.195312 28.09375 -20.15625 C 30.78125 -20.070312 32.945312 -19.539062 34.59375 -18.5625 C 36.238281 -17.582031 37.507812 -16.597656 38.40625 -15.609375 C 39.632812 -14.203125 40.441406 -12.71875 40.828125 -11.15625 C 41.210938 -9.601562 41.445312 -8.207031 41.53125 -6.96875 C 42.8125 -7.914062 43.738281 -9.035156 44.3125 -10.328125 C 44.894531 -11.628906 45.140625 -12.992188 45.046875 -14.421875 C 44.960938 -15.859375 44.554688 -17.207031 43.828125 -18.46875 C 43.109375 -19.726562 42.066406 -20.757812 40.703125 -21.5625 C 39.210938 -22.5 37.625 -23.128906 35.9375 -23.453125 C 34.25 -23.773438 32.539062 -23.9375 30.8125 -23.9375 C 29.082031 -23.9375 27.390625 -23.894531 25.734375 -23.8125 L 21.828125 -20.859375 L 16.453125 -27.84375 L 32.578125 -39.546875 L 9.21875 -37.890625 L 8.453125 -51.453125 L 15.6875 -51.78125 L 15.875 -47.609375 L 53.765625 -50.234375 Z M 26.5625 -6.015625 C 27.15625 -5.328125 27.960938 -4.921875 28.984375 -4.796875 C 30.015625 -4.671875 30.914062 -4.585938 31.6875 -4.546875 L 31.6875 -4.671875 C 31.851562 -5.785156 31.804688 -6.8125 31.546875 -7.75 C 31.296875 -8.6875 30.847656 -9.410156 30.203125 -9.921875 C 29.566406 -10.429688 28.78125 -10.554688 27.84375 -10.296875 C 27.332031 -10.171875 26.894531 -9.84375 26.53125 -9.3125 C 26.164062 -8.78125 25.972656 -8.203125 25.953125 -7.578125 C 25.929688 -6.960938 26.132812 -6.441406 26.5625 -6.015625 Z M 26.5625 -6.015625 "/></g></g><g style="fill:#ffffff;fill-opacity:1;"><g transform="translate(837.682295, 341.838783)"><path style="stroke:none" d="M 35.96875 -49.921875 L 35.203125 -45.375 L 55.046875 -45.375 L 55.046875 -36.09375 L 33.59375 -36.15625 C 33.550781 -35.519531 33.507812 -34.898438 33.46875 -34.296875 C 33.425781 -33.703125 33.363281 -33.109375 33.28125 -32.515625 C 35.625 -32.554688 38 -32.296875 40.40625 -31.734375 C 42.820312 -31.179688 45.128906 -30.304688 47.328125 -29.109375 C 49.523438 -27.921875 51.46875 -26.410156 53.15625 -24.578125 C 54.84375 -22.742188 56.085938 -20.566406 56.890625 -18.046875 C 58.085938 -14.503906 58.410156 -10.726562 57.859375 -6.71875 C 57.304688 -2.707031 55.832031 1.191406 53.4375 4.984375 L 40.890625 0.1875 L 43.453125 -6.34375 L 47.234375 -4.859375 C 48.296875 -8.359375 48.316406 -11.6875 47.296875 -14.84375 C 46.648438 -16.894531 45.59375 -18.535156 44.125 -19.765625 C 42.65625 -21.003906 40.945312 -21.898438 39 -22.453125 C 37.0625 -23.015625 35.046875 -23.234375 32.953125 -23.109375 C 33.085938 -19.140625 33.515625 -15.53125 34.234375 -12.28125 C 34.703125 -13.007812 35.140625 -13.703125 35.546875 -14.359375 C 35.953125 -15.023438 36.367188 -15.742188 36.796875 -16.515625 L 45.1875 -12.15625 C 43.132812 -8.226562 40.878906 -5.070312 38.421875 -2.6875 C 35.972656 -0.300781 33.445312 1.421875 30.84375 2.484375 C 28.238281 3.554688 25.640625 4.09375 23.046875 4.09375 C 20.828125 4.09375 18.628906 3.71875 16.453125 2.96875 C 14.273438 2.226562 12.375 1.082031 10.75 -0.46875 C 9.125 -2.03125 7.972656 -4.007812 7.296875 -6.40625 C 6.566406 -8.957031 6.5 -11.628906 7.09375 -14.421875 C 7.695312 -17.222656 8.832031 -19.753906 10.5 -22.015625 C 12.113281 -24.109375 14.03125 -25.878906 16.25 -27.328125 C 18.46875 -28.773438 20.835938 -29.96875 23.359375 -30.90625 C 23.398438 -31.757812 23.460938 -32.625 23.546875 -33.5 C 23.640625 -34.375 23.726562 -35.257812 23.8125 -36.15625 L 7.875 -36.15625 L 7.875 -45.375 L 25.09375 -45.375 C 25.175781 -45.675781 25.25 -45.960938 25.3125 -46.234375 C 25.375 -46.515625 25.425781 -46.804688 25.46875 -47.109375 L 26.4375 -51.71875 Z M 18.5 -16.0625 C 17.726562 -15.082031 17.191406 -13.929688 16.890625 -12.609375 C 16.597656 -11.285156 16.617188 -10.066406 16.953125 -8.953125 C 17.335938 -7.722656 18.050781 -6.816406 19.09375 -6.234375 C 20.144531 -5.660156 21.300781 -5.363281 22.5625 -5.34375 C 23.820312 -5.320312 24.960938 -5.484375 25.984375 -5.828125 C 25.253906 -8.085938 24.65625 -10.453125 24.1875 -12.921875 C 23.71875 -15.398438 23.421875 -17.878906 23.296875 -20.359375 C 22.398438 -19.835938 21.535156 -19.210938 20.703125 -18.484375 C 19.867188 -17.765625 19.132812 -16.957031 18.5 -16.0625 Z M 18.5 -16.0625 "/></g></g><g style="fill:#ffffff;fill-opacity:1;"><g transform="translate(901.678385, 341.838783)"><path style="stroke:none" d="M 13.625 -13.5625 L 10.109375 -10.046875 L 3.140625 -17.21875 C 5.484375 -19.476562 7.59375 -21.820312 9.46875 -24.25 C 11.34375 -26.6875 12.96875 -29.523438 14.34375 -32.765625 L 4.796875 -32.765625 L 4.796875 -42.109375 L 16.828125 -42.109375 C 16.910156 -43.472656 16.941406 -44.859375 16.921875 -46.265625 C 16.898438 -47.679688 16.847656 -49.132812 16.765625 -50.625 L 26.8125 -51.078125 C 26.894531 -48.984375 26.945312 -47.367188 26.96875 -46.234375 C 27 -45.109375 27.015625 -44.253906 27.015625 -43.671875 C 27.015625 -43.097656 26.988281 -42.578125 26.9375 -42.109375 L 35.640625 -42.109375 L 35.640625 -32.765625 C 35.640625 -32.765625 35.273438 -32.765625 34.546875 -32.765625 C 33.828125 -32.765625 32.945312 -32.765625 31.90625 -32.765625 C 30.863281 -32.765625 29.804688 -32.765625 28.734375 -32.765625 C 27.671875 -32.765625 26.773438 -32.765625 26.046875 -32.765625 C 25.316406 -32.765625 24.953125 -32.765625 24.953125 -32.765625 C 24.109375 -29.867188 23.078125 -27.265625 21.859375 -24.953125 C 20.640625 -22.648438 19.421875 -20.664062 18.203125 -19 C 16.992188 -17.34375 15.960938 -16.054688 15.109375 -15.140625 C 14.253906 -14.222656 13.757812 -13.695312 13.625 -13.5625 Z M 61.3125 -4.03125 L 53.375 1.921875 C 53.164062 1.535156 52.726562 0.90625 52.0625 0.03125 C 51.40625 -0.84375 50.628906 -1.820312 49.734375 -2.90625 C 48.835938 -4 47.851562 -5.054688 46.78125 -6.078125 C 46.4375 -4.929688 45.976562 -3.90625 45.40625 -3 C 44.832031 -2.101562 44.179688 -1.296875 43.453125 -0.578125 C 41.921875 1.128906 40.191406 2.429688 38.265625 3.328125 C 36.347656 4.222656 34.390625 4.671875 32.390625 4.671875 C 30.460938 4.671875 28.570312 4.203125 26.71875 3.265625 C 24.863281 2.328125 23.378906 0.941406 22.265625 -0.890625 C 21.160156 -2.859375 20.628906 -4.929688 20.671875 -7.109375 C 20.710938 -9.285156 21.296875 -11.34375 22.421875 -13.28125 C 23.554688 -15.21875 25.128906 -16.765625 27.140625 -17.921875 C 29.015625 -19.066406 30.929688 -19.820312 32.890625 -20.1875 C 34.859375 -20.550781 36.738281 -20.609375 38.53125 -20.359375 C 38.445312 -22.097656 38.285156 -23.875 38.046875 -25.6875 C 37.816406 -27.507812 37.421875 -29.296875 36.859375 -31.046875 L 47.8125 -33.40625 L 39.875 -44.609375 L 48.25 -50.109375 L 62.078125 -30.265625 L 53.828125 -24.640625 L 52.03125 -27.265625 L 48 -26.5625 C 48.207031 -24.976562 48.375 -23.40625 48.5 -21.84375 C 48.632812 -20.289062 48.660156 -18.6875 48.578125 -17.03125 C 51.046875 -15.445312 53.359375 -13.523438 55.515625 -11.265625 C 57.671875 -9.003906 59.601562 -6.59375 61.3125 -4.03125 Z M 37.828125 -10.875 C 36.078125 -11.21875 34.21875 -10.835938 32.25 -9.734375 C 31.488281 -9.210938 31 -8.554688 30.78125 -7.765625 C 30.570312 -6.984375 30.613281 -6.335938 30.90625 -5.828125 C 31.375 -5.015625 31.972656 -4.671875 32.703125 -4.796875 C 33.429688 -4.921875 34.15625 -5.335938 34.875 -6.046875 C 35.601562 -6.753906 36.234375 -7.554688 36.765625 -8.453125 C 37.296875 -9.347656 37.648438 -10.15625 37.828125 -10.875 Z M 37.828125 -10.875 "/></g></g><g style="fill:#ffffff;fill-opacity:1;"><g transform="translate(965.674476, 341.838783)"><path style="stroke:none" d="M 59.015625 -24.640625 L 52.984375 -13.3125 L 46.59375 -16.515625 L 47.875 -19.203125 C 46.800781 -19.546875 45.410156 -19.75 43.703125 -19.8125 C 42.003906 -19.875 40.003906 -19.5625 37.703125 -18.875 L 35.078125 -28.21875 C 37.765625 -29.070312 40.3125 -29.5 42.71875 -29.5 C 45.125 -29.5 47.351562 -29.234375 49.40625 -28.703125 C 51.457031 -28.171875 53.300781 -27.519531 54.9375 -26.75 C 56.582031 -25.976562 57.941406 -25.273438 59.015625 -24.640625 Z M 46.59375 -32.515625 L 26.171875 -32.515625 L 17.59375 -0.578125 L 8 -3.140625 L 15.75 -32.515625 L 4.484375 -32.515625 L 4.484375 -42.296875 L 18.234375 -42.296875 C 18.410156 -42.941406 18.59375 -43.613281 18.78125 -44.3125 C 18.976562 -45.019531 19.234375 -45.992188 19.546875 -47.234375 C 19.867188 -48.472656 20.304688 -50.15625 20.859375 -52.28125 L 30.46875 -49.984375 C 30.164062 -48.660156 29.863281 -47.359375 29.5625 -46.078125 C 29.269531 -44.796875 28.953125 -43.535156 28.609375 -42.296875 L 46.59375 -42.296875 Z M 51.578125 -9.21875 L 58.75 -2.5 C 56.832031 -0.570312 54.664062 1.050781 52.25 2.375 C 49.84375 3.695312 47.304688 4.515625 44.640625 4.828125 C 41.972656 5.148438 39.273438 4.820312 36.546875 3.84375 C 33.046875 2.5625 30.238281 0.34375 28.125 -2.8125 C 26.007812 -5.96875 24.910156 -9.703125 24.828125 -14.015625 L 34.9375 -14.34375 C 35.03125 -12.457031 35.445312 -10.660156 36.1875 -8.953125 C 36.9375 -7.253906 38.1875 -6.0625 39.9375 -5.375 C 41.726562 -4.738281 43.367188 -4.617188 44.859375 -5.015625 C 46.359375 -5.421875 47.679688 -6.0625 48.828125 -6.9375 C 49.984375 -7.8125 50.898438 -8.570312 51.578125 -9.21875 Z M 51.578125 -9.21875 "/></g></g><g style="fill:#ffffff;fill-opacity:1;"><g transform="translate(1029.670566, 341.838783)"><path style="stroke:none" d="M 59.265625 -9.59375 L 62.078125 -7.234375 L 55.484375 0.828125 C 53.910156 -0.617188 52.414062 -2.035156 51 -3.421875 C 49.59375 -4.804688 48.226562 -6.160156 46.90625 -7.484375 C 43.457031 -10.984375 40.128906 -14.597656 36.921875 -18.328125 C 33.722656 -22.066406 30.738281 -25.941406 27.96875 -29.953125 L 14.71875 -12.734375 L 17.53125 -10.234375 L 12.671875 -4.921875 L 2.296875 -14.078125 L 28.734375 -46.78125 C 33.296875 -40 38.039062 -33.4375 42.96875 -27.09375 C 47.90625 -20.757812 53.335938 -14.925781 59.265625 -9.59375 Z M 59.265625 -9.59375 "/></g></g></g></svg>